M48
;DRILL file {Pcbnew (2013-07-07 BZR 4022)-stable} date 12/17/2013 9:22:56 PM
;FORMAT={-:-/ absolute / inch / decimal}
FMAT,2
INCH,TZ
T1C0.025
T2C0.030
T3C0.032
T4C0.035
T5C0.039
T6C0.040
T7C0.073
T8C0.079
T9C0.100
T10C0.118
T11C0.120
%
G90
G05
M72
T1
X1.214Y-2.451
X2.975Y-2.37
X3.079Y-2.324
X3.17Y-2.295
X3.1775Y-1.7075
X3.1925Y-2.0225
X3.23Y-2.205
X3.408Y-1.585
X3.415Y-2.232
X3.464Y-2.243
X3.513Y-2.232
X3.546Y-2.32
X3.611Y-1.945
X3.613Y-2.32
X3.7022Y-1.8067
X3.711Y-2.599
X3.753Y-2.476
X3.765Y-2.694
X3.783Y-2.244
X3.821Y-2.365
X3.844Y-1.922
X3.872Y-2.362
X3.933Y-1.172
X3.938Y-2.575
X3.942Y-2.028
X3.942Y-2.174
X3.943Y-1.917
X3.976Y-1.731
X3.977Y-2.477
X3.993Y-1.919
X3.993Y-2.177
X3.996Y-2.367
X4.017Y-2.702
X4.042Y-2.177
X4.042Y-2.576
X4.055Y-1.68
X4.061Y-1.917
X4.089Y-2.575
X4.091Y-2.683
X4.135Y-2.328
X4.141Y-2.178
X4.143Y-1.924
X4.18Y-2.641
X4.188Y-2.587
X4.193Y-1.922
X4.215Y-2.355
X4.244Y-1.916
X4.292Y-2.305
X4.332Y-1.918
X4.341Y-1.963
X4.394Y-2.18
X4.404Y-1.516
T2
X3.643Y-1.166
X3.843Y-1.166
T3
X1.39Y-1.15
X1.39Y-1.25
X1.39Y-2.525
X1.39Y-2.625
X1.49Y-1.15
X1.49Y-1.25
X1.49Y-2.525
X1.49Y-2.625
X1.59Y-1.15
X1.59Y-1.25
X1.59Y-2.525
X1.59Y-2.625
X1.69Y-1.15
X1.69Y-1.25
X1.69Y-2.525
X1.69Y-2.625
X1.79Y-1.15
X1.79Y-1.25
X1.79Y-2.525
X1.79Y-2.625
X3.204Y-1.35
X3.204Y-1.65
X3.304Y-1.35
X3.304Y-1.65
X3.404Y-1.35
X3.404Y-1.65
X3.504Y-1.35
X3.504Y-1.65
X3.604Y-1.35
X3.604Y-1.65
X3.704Y-1.35
X3.704Y-1.65
X3.804Y-1.35
X3.804Y-1.65
X3.904Y-1.35
X3.904Y-1.65
X4.004Y-1.35
X4.004Y-1.65
X4.104Y-1.35
X4.104Y-1.65
X4.204Y-1.35
X4.204Y-1.65
X4.304Y-1.35
X4.304Y-1.65
X4.404Y-1.35
X4.404Y-1.65
X4.504Y-1.35
X4.504Y-1.65
T4
X2.49Y-1.54
X2.59Y-1.54
T5
X4.6454Y-1.3489
X4.6454Y-1.5851
X4.8226Y-1.3489
X4.8226Y-1.5851
T6
X2.9725Y-1.395
X2.9725Y-1.495
X2.9725Y-1.595
X3.123Y-1.12
X3.123Y-1.22
X3.223Y-1.12
X3.223Y-1.22
X3.323Y-1.12
X3.323Y-1.22
X4.311Y-1.248
X4.322Y-1.098
X4.411Y-1.248
X4.422Y-1.098
X4.522Y-1.098
X4.622Y-1.098
X4.722Y-1.098
X4.822Y-1.098
T7
X2.337Y-2.2128
X2.337Y-2.4292
X2.5024Y-2.2128
X2.5024Y-2.4292
X2.6676Y-2.2128
X2.6676Y-2.4292
X2.833Y-2.2128
X2.833Y-2.4292
T8
X2.39Y-1.34
X2.79Y-1.34
T9
X1.16Y-1.18
X1.16Y-2.595
X2.02Y-1.18
X2.02Y-2.595
T10
X2.337Y-2.7167
X2.833Y-2.7167
T11
X2.64Y-2.0075
X4.5525Y-2.0075
T0
M30
