G04 (created by PCBNEW (2013-07-07 BZR 4022)-stable) date 08/05/2014 11:07:20 AM*
%MOIN*%
G04 Gerber Fmt 3.4, Leading zero omitted, Abs format*
%FSLAX34Y34*%
G01*
G70*
G90*
G04 APERTURE LIST*
%ADD10C,0.00590551*%
%ADD11C,0.00787402*%
%ADD12C,0.00738189*%
%ADD13C,0.012*%
%ADD14C,0.005*%
%ADD15C,0.008*%
%ADD16C,0.015*%
%ADD17C,0.01*%
%ADD18C,0.0175*%
%ADD19C,0.0026*%
%ADD20C,0.004*%
%ADD21C,0.0001*%
%ADD22C,0.006*%
%ADD23C,0.0125*%
%ADD24C,0.0031*%
%ADD25C,0.0035*%
%ADD26C,0.01125*%
%ADD27C,0.0113*%
%ADD28C,0.0047*%
%ADD29C,0.0039*%
G04 APERTURE END LIST*
G54D10*
G54D11*
X17993Y-24565D02*
X17993Y-24266D01*
X18143Y-24415D02*
X17843Y-24415D01*
X17971Y-22375D02*
X17971Y-22076D01*
X18121Y-22225D02*
X17821Y-22225D01*
X10543Y-24355D02*
X10543Y-24056D01*
X10693Y-24205D02*
X10393Y-24205D01*
X33672Y-10415D02*
X33672Y-10594D01*
X33672Y-10505D02*
X33357Y-10505D01*
X33402Y-10534D01*
X33432Y-10564D01*
X33447Y-10594D01*
X24637Y-16612D02*
X24697Y-16612D01*
X24727Y-16627D01*
X24757Y-16657D01*
X24772Y-16717D01*
X24772Y-16822D01*
X24757Y-16882D01*
X24727Y-16912D01*
X24697Y-16927D01*
X24637Y-16927D01*
X24607Y-16912D01*
X24577Y-16882D01*
X24562Y-16822D01*
X24562Y-16717D01*
X24577Y-16657D01*
X24607Y-16627D01*
X24637Y-16612D01*
X24907Y-16612D02*
X24907Y-16867D01*
X24922Y-16897D01*
X24937Y-16912D01*
X24967Y-16927D01*
X25027Y-16927D01*
X25057Y-16912D01*
X25072Y-16897D01*
X25087Y-16867D01*
X25087Y-16612D01*
X25192Y-16612D02*
X25372Y-16612D01*
X25282Y-16927D02*
X25282Y-16612D01*
X25402Y-16957D02*
X25642Y-16957D01*
X25672Y-16612D02*
X25852Y-16612D01*
X25762Y-16927D02*
X25762Y-16612D01*
X26017Y-16612D02*
X26077Y-16612D01*
X26107Y-16627D01*
X26137Y-16657D01*
X26152Y-16717D01*
X26152Y-16822D01*
X26137Y-16882D01*
X26107Y-16912D01*
X26077Y-16927D01*
X26017Y-16927D01*
X25987Y-16912D01*
X25957Y-16882D01*
X25942Y-16822D01*
X25942Y-16717D01*
X25957Y-16657D01*
X25987Y-16627D01*
X26017Y-16612D01*
X26212Y-16957D02*
X26452Y-16957D01*
X26512Y-16837D02*
X26662Y-16837D01*
X26482Y-16927D02*
X26587Y-16612D01*
X26692Y-16927D01*
X26797Y-16927D02*
X26797Y-16612D01*
X26902Y-16837D01*
X27007Y-16612D01*
X27007Y-16927D01*
X27157Y-16927D02*
X27157Y-16612D01*
X27277Y-16612D01*
X27307Y-16627D01*
X27322Y-16642D01*
X27337Y-16672D01*
X27337Y-16717D01*
X27322Y-16747D01*
X27307Y-16762D01*
X27277Y-16777D01*
X27157Y-16777D01*
X31175Y-13169D02*
X31175Y-12775D01*
X31344Y-13150D02*
X31400Y-13169D01*
X31494Y-13169D01*
X31531Y-13150D01*
X31550Y-13131D01*
X31569Y-13094D01*
X31569Y-13056D01*
X31550Y-13019D01*
X31531Y-13000D01*
X31494Y-12981D01*
X31419Y-12963D01*
X31381Y-12944D01*
X31363Y-12925D01*
X31344Y-12888D01*
X31344Y-12850D01*
X31363Y-12813D01*
X31381Y-12794D01*
X31419Y-12775D01*
X31513Y-12775D01*
X31569Y-12794D01*
X31738Y-13169D02*
X31738Y-12775D01*
X31888Y-12775D01*
X31925Y-12794D01*
X31944Y-12813D01*
X31963Y-12850D01*
X31963Y-12906D01*
X31944Y-12944D01*
X31925Y-12963D01*
X31888Y-12981D01*
X31738Y-12981D01*
X29195Y-12972D02*
X29210Y-12957D01*
X29240Y-12942D01*
X29315Y-12942D01*
X29345Y-12957D01*
X29360Y-12972D01*
X29375Y-13002D01*
X29375Y-13032D01*
X29360Y-13077D01*
X29180Y-13257D01*
X29375Y-13257D01*
X29570Y-12942D02*
X29600Y-12942D01*
X29630Y-12957D01*
X29645Y-12972D01*
X29660Y-13002D01*
X29675Y-13062D01*
X29675Y-13137D01*
X29660Y-13197D01*
X29645Y-13227D01*
X29630Y-13242D01*
X29600Y-13257D01*
X29570Y-13257D01*
X29540Y-13242D01*
X29525Y-13227D01*
X29510Y-13197D01*
X29495Y-13137D01*
X29495Y-13062D01*
X29510Y-13002D01*
X29525Y-12972D01*
X29540Y-12957D01*
X29570Y-12942D01*
X29765Y-12942D02*
X29870Y-13257D01*
X29975Y-12942D01*
X30079Y-13047D02*
X30079Y-13362D01*
X30079Y-13062D02*
X30109Y-13047D01*
X30169Y-13047D01*
X30199Y-13062D01*
X30214Y-13077D01*
X30229Y-13107D01*
X30229Y-13197D01*
X30214Y-13227D01*
X30199Y-13242D01*
X30169Y-13257D01*
X30109Y-13257D01*
X30079Y-13242D01*
X30364Y-13137D02*
X30604Y-13137D01*
X30754Y-13047D02*
X30754Y-13362D01*
X30754Y-13062D02*
X30784Y-13047D01*
X30844Y-13047D01*
X30874Y-13062D01*
X30889Y-13077D01*
X30904Y-13107D01*
X30904Y-13197D01*
X30889Y-13227D01*
X30874Y-13242D01*
X30844Y-13257D01*
X30784Y-13257D01*
X30754Y-13242D01*
X29390Y-16602D02*
X29240Y-16602D01*
X29225Y-16752D01*
X29240Y-16737D01*
X29270Y-16722D01*
X29345Y-16722D01*
X29375Y-16737D01*
X29390Y-16752D01*
X29405Y-16782D01*
X29405Y-16857D01*
X29390Y-16887D01*
X29375Y-16902D01*
X29345Y-16917D01*
X29270Y-16917D01*
X29240Y-16902D01*
X29225Y-16887D01*
X29495Y-16602D02*
X29600Y-16917D01*
X29705Y-16602D01*
X29810Y-16707D02*
X29810Y-17022D01*
X29810Y-16722D02*
X29840Y-16707D01*
X29900Y-16707D01*
X29930Y-16722D01*
X29944Y-16737D01*
X29959Y-16767D01*
X29959Y-16857D01*
X29944Y-16887D01*
X29930Y-16902D01*
X29900Y-16917D01*
X29840Y-16917D01*
X29810Y-16902D01*
X30094Y-16797D02*
X30334Y-16797D01*
X30484Y-16707D02*
X30484Y-17022D01*
X30484Y-16722D02*
X30514Y-16707D01*
X30574Y-16707D01*
X30604Y-16722D01*
X30619Y-16737D01*
X30634Y-16767D01*
X30634Y-16857D01*
X30619Y-16887D01*
X30604Y-16902D01*
X30574Y-16917D01*
X30514Y-16917D01*
X30484Y-16902D01*
G54D12*
X10157Y-20419D02*
X10208Y-20440D01*
X10292Y-20440D01*
X10326Y-20419D01*
X10343Y-20399D01*
X10359Y-20357D01*
X10359Y-20316D01*
X10343Y-20275D01*
X10326Y-20254D01*
X10292Y-20234D01*
X10224Y-20213D01*
X10191Y-20192D01*
X10174Y-20172D01*
X10157Y-20130D01*
X10157Y-20089D01*
X10174Y-20048D01*
X10191Y-20027D01*
X10224Y-20007D01*
X10309Y-20007D01*
X10359Y-20027D01*
X10511Y-20440D02*
X10511Y-20151D01*
X10511Y-20007D02*
X10494Y-20027D01*
X10511Y-20048D01*
X10528Y-20027D01*
X10511Y-20007D01*
X10511Y-20048D01*
X10832Y-20151D02*
X10832Y-20502D01*
X10815Y-20543D01*
X10798Y-20564D01*
X10764Y-20584D01*
X10714Y-20584D01*
X10680Y-20564D01*
X10832Y-20419D02*
X10798Y-20440D01*
X10731Y-20440D01*
X10697Y-20419D01*
X10680Y-20399D01*
X10663Y-20357D01*
X10663Y-20234D01*
X10680Y-20192D01*
X10697Y-20172D01*
X10731Y-20151D01*
X10798Y-20151D01*
X10832Y-20172D01*
X11001Y-20151D02*
X11001Y-20440D01*
X11001Y-20192D02*
X11018Y-20172D01*
X11051Y-20151D01*
X11102Y-20151D01*
X11136Y-20172D01*
X11152Y-20213D01*
X11152Y-20440D01*
X11473Y-20440D02*
X11473Y-20213D01*
X11456Y-20172D01*
X11422Y-20151D01*
X11355Y-20151D01*
X11321Y-20172D01*
X11473Y-20419D02*
X11439Y-20440D01*
X11355Y-20440D01*
X11321Y-20419D01*
X11304Y-20378D01*
X11304Y-20337D01*
X11321Y-20295D01*
X11355Y-20275D01*
X11439Y-20275D01*
X11473Y-20254D01*
X11692Y-20440D02*
X11659Y-20419D01*
X11642Y-20378D01*
X11642Y-20007D01*
X12283Y-20027D02*
X12249Y-20007D01*
X12199Y-20007D01*
X12148Y-20027D01*
X12114Y-20069D01*
X12097Y-20110D01*
X12081Y-20192D01*
X12081Y-20254D01*
X12097Y-20337D01*
X12114Y-20378D01*
X12148Y-20419D01*
X12199Y-20440D01*
X12232Y-20440D01*
X12283Y-20419D01*
X12300Y-20399D01*
X12300Y-20254D01*
X12232Y-20254D01*
X12587Y-20419D02*
X12553Y-20440D01*
X12485Y-20440D01*
X12452Y-20419D01*
X12435Y-20378D01*
X12435Y-20213D01*
X12452Y-20172D01*
X12485Y-20151D01*
X12553Y-20151D01*
X12587Y-20172D01*
X12604Y-20213D01*
X12604Y-20254D01*
X12435Y-20295D01*
X12755Y-20151D02*
X12755Y-20440D01*
X12755Y-20192D02*
X12772Y-20172D01*
X12806Y-20151D01*
X12857Y-20151D01*
X12890Y-20172D01*
X12907Y-20213D01*
X12907Y-20440D01*
X13211Y-20419D02*
X13177Y-20440D01*
X13110Y-20440D01*
X13076Y-20419D01*
X13059Y-20378D01*
X13059Y-20213D01*
X13076Y-20172D01*
X13110Y-20151D01*
X13177Y-20151D01*
X13211Y-20172D01*
X13228Y-20213D01*
X13228Y-20254D01*
X13059Y-20295D01*
X13380Y-20440D02*
X13380Y-20151D01*
X13380Y-20234D02*
X13397Y-20192D01*
X13413Y-20172D01*
X13447Y-20151D01*
X13481Y-20151D01*
X13751Y-20440D02*
X13751Y-20213D01*
X13734Y-20172D01*
X13700Y-20151D01*
X13633Y-20151D01*
X13599Y-20172D01*
X13751Y-20419D02*
X13717Y-20440D01*
X13633Y-20440D01*
X13599Y-20419D01*
X13582Y-20378D01*
X13582Y-20337D01*
X13599Y-20295D01*
X13633Y-20275D01*
X13717Y-20275D01*
X13751Y-20254D01*
X13869Y-20151D02*
X14004Y-20151D01*
X13920Y-20007D02*
X13920Y-20378D01*
X13937Y-20419D01*
X13970Y-20440D01*
X14004Y-20440D01*
X14173Y-20440D02*
X14139Y-20419D01*
X14122Y-20399D01*
X14105Y-20357D01*
X14105Y-20234D01*
X14122Y-20192D01*
X14139Y-20172D01*
X14173Y-20151D01*
X14223Y-20151D01*
X14257Y-20172D01*
X14274Y-20192D01*
X14291Y-20234D01*
X14291Y-20357D01*
X14274Y-20399D01*
X14257Y-20419D01*
X14223Y-20440D01*
X14173Y-20440D01*
X14443Y-20440D02*
X14443Y-20151D01*
X14443Y-20234D02*
X14460Y-20192D01*
X14476Y-20172D01*
X14510Y-20151D01*
X14544Y-20151D01*
X10292Y-20893D02*
X10343Y-20914D01*
X10359Y-20934D01*
X10376Y-20976D01*
X10376Y-21037D01*
X10359Y-21079D01*
X10343Y-21099D01*
X10309Y-21120D01*
X10174Y-21120D01*
X10174Y-20687D01*
X10292Y-20687D01*
X10326Y-20707D01*
X10343Y-20728D01*
X10359Y-20769D01*
X10359Y-20811D01*
X10343Y-20852D01*
X10326Y-20872D01*
X10292Y-20893D01*
X10174Y-20893D01*
X10579Y-21120D02*
X10545Y-21099D01*
X10528Y-21079D01*
X10511Y-21037D01*
X10511Y-20914D01*
X10528Y-20872D01*
X10545Y-20852D01*
X10579Y-20831D01*
X10629Y-20831D01*
X10663Y-20852D01*
X10680Y-20872D01*
X10697Y-20914D01*
X10697Y-21037D01*
X10680Y-21079D01*
X10663Y-21099D01*
X10629Y-21120D01*
X10579Y-21120D01*
X11001Y-21120D02*
X11001Y-20893D01*
X10984Y-20852D01*
X10950Y-20831D01*
X10883Y-20831D01*
X10849Y-20852D01*
X11001Y-21099D02*
X10967Y-21120D01*
X10883Y-21120D01*
X10849Y-21099D01*
X10832Y-21058D01*
X10832Y-21017D01*
X10849Y-20976D01*
X10883Y-20955D01*
X10967Y-20955D01*
X11001Y-20934D01*
X11169Y-21120D02*
X11169Y-20831D01*
X11169Y-20914D02*
X11186Y-20872D01*
X11203Y-20852D01*
X11237Y-20831D01*
X11271Y-20831D01*
X11541Y-21120D02*
X11541Y-20687D01*
X11541Y-21099D02*
X11507Y-21120D01*
X11439Y-21120D01*
X11406Y-21099D01*
X11389Y-21079D01*
X11372Y-21037D01*
X11372Y-20914D01*
X11389Y-20872D01*
X11406Y-20852D01*
X11439Y-20831D01*
X11507Y-20831D01*
X11541Y-20852D01*
X11946Y-20831D02*
X12030Y-21120D01*
X12114Y-20831D01*
X12435Y-21120D02*
X12232Y-21120D01*
X12334Y-21120D02*
X12334Y-20687D01*
X12300Y-20749D01*
X12266Y-20790D01*
X12232Y-20811D01*
X12587Y-21079D02*
X12604Y-21099D01*
X12587Y-21120D01*
X12570Y-21099D01*
X12587Y-21079D01*
X12587Y-21120D01*
X12739Y-20728D02*
X12755Y-20707D01*
X12789Y-20687D01*
X12874Y-20687D01*
X12907Y-20707D01*
X12924Y-20728D01*
X12941Y-20769D01*
X12941Y-20811D01*
X12924Y-20872D01*
X12722Y-21120D01*
X12941Y-21120D01*
X10174Y-21800D02*
X10174Y-21367D01*
X10326Y-21800D02*
X10326Y-21573D01*
X10309Y-21532D01*
X10275Y-21511D01*
X10224Y-21511D01*
X10191Y-21532D01*
X10174Y-21553D01*
X10444Y-21511D02*
X10579Y-21511D01*
X10494Y-21367D02*
X10494Y-21738D01*
X10511Y-21779D01*
X10545Y-21800D01*
X10579Y-21800D01*
X10646Y-21511D02*
X10781Y-21511D01*
X10697Y-21367D02*
X10697Y-21738D01*
X10714Y-21779D01*
X10748Y-21800D01*
X10781Y-21800D01*
X10899Y-21511D02*
X10899Y-21944D01*
X10899Y-21532D02*
X10933Y-21511D01*
X11001Y-21511D01*
X11034Y-21532D01*
X11051Y-21553D01*
X11068Y-21594D01*
X11068Y-21718D01*
X11051Y-21759D01*
X11034Y-21779D01*
X11001Y-21800D01*
X10933Y-21800D01*
X10899Y-21779D01*
X11220Y-21759D02*
X11237Y-21779D01*
X11220Y-21800D01*
X11203Y-21779D01*
X11220Y-21759D01*
X11220Y-21800D01*
X11220Y-21532D02*
X11237Y-21553D01*
X11220Y-21573D01*
X11203Y-21553D01*
X11220Y-21532D01*
X11220Y-21573D01*
X11642Y-21346D02*
X11338Y-21903D01*
X12013Y-21346D02*
X11709Y-21903D01*
X12131Y-21800D02*
X12131Y-21511D01*
X12131Y-21553D02*
X12148Y-21532D01*
X12182Y-21511D01*
X12232Y-21511D01*
X12266Y-21532D01*
X12283Y-21573D01*
X12283Y-21800D01*
X12283Y-21573D02*
X12300Y-21532D01*
X12334Y-21511D01*
X12384Y-21511D01*
X12418Y-21532D01*
X12435Y-21573D01*
X12435Y-21800D01*
X12604Y-21800D02*
X12604Y-21511D01*
X12604Y-21367D02*
X12587Y-21388D01*
X12604Y-21408D01*
X12620Y-21388D01*
X12604Y-21367D01*
X12604Y-21408D01*
X12924Y-21779D02*
X12890Y-21800D01*
X12823Y-21800D01*
X12789Y-21779D01*
X12772Y-21759D01*
X12755Y-21718D01*
X12755Y-21594D01*
X12772Y-21553D01*
X12789Y-21532D01*
X12823Y-21511D01*
X12890Y-21511D01*
X12924Y-21532D01*
X13076Y-21800D02*
X13076Y-21511D01*
X13076Y-21594D02*
X13093Y-21553D01*
X13110Y-21532D01*
X13143Y-21511D01*
X13177Y-21511D01*
X13346Y-21800D02*
X13312Y-21779D01*
X13295Y-21759D01*
X13278Y-21718D01*
X13278Y-21594D01*
X13295Y-21553D01*
X13312Y-21532D01*
X13346Y-21511D01*
X13397Y-21511D01*
X13430Y-21532D01*
X13447Y-21553D01*
X13464Y-21594D01*
X13464Y-21718D01*
X13447Y-21759D01*
X13430Y-21779D01*
X13397Y-21800D01*
X13346Y-21800D01*
X13565Y-21511D02*
X13700Y-21511D01*
X13616Y-21800D02*
X13616Y-21429D01*
X13633Y-21388D01*
X13667Y-21367D01*
X13700Y-21367D01*
X13869Y-21800D02*
X13835Y-21779D01*
X13818Y-21738D01*
X13818Y-21367D01*
X14156Y-21511D02*
X14156Y-21800D01*
X14004Y-21511D02*
X14004Y-21738D01*
X14021Y-21779D01*
X14055Y-21800D01*
X14105Y-21800D01*
X14139Y-21779D01*
X14156Y-21759D01*
X14325Y-21800D02*
X14325Y-21511D01*
X14325Y-21367D02*
X14308Y-21388D01*
X14325Y-21408D01*
X14341Y-21388D01*
X14325Y-21367D01*
X14325Y-21408D01*
X14645Y-21800D02*
X14645Y-21367D01*
X14645Y-21779D02*
X14611Y-21800D01*
X14544Y-21800D01*
X14510Y-21779D01*
X14493Y-21759D01*
X14476Y-21718D01*
X14476Y-21594D01*
X14493Y-21553D01*
X14510Y-21532D01*
X14544Y-21511D01*
X14611Y-21511D01*
X14645Y-21532D01*
X14814Y-21800D02*
X14814Y-21511D01*
X14814Y-21367D02*
X14797Y-21388D01*
X14814Y-21408D01*
X14831Y-21388D01*
X14814Y-21367D01*
X14814Y-21408D01*
X15134Y-21779D02*
X15101Y-21800D01*
X15033Y-21800D01*
X15000Y-21779D01*
X14983Y-21759D01*
X14966Y-21718D01*
X14966Y-21594D01*
X14983Y-21553D01*
X15000Y-21532D01*
X15033Y-21511D01*
X15101Y-21511D01*
X15134Y-21532D01*
X15269Y-21779D02*
X15303Y-21800D01*
X15371Y-21800D01*
X15404Y-21779D01*
X15421Y-21738D01*
X15421Y-21718D01*
X15404Y-21676D01*
X15371Y-21656D01*
X15320Y-21656D01*
X15286Y-21635D01*
X15269Y-21594D01*
X15269Y-21573D01*
X15286Y-21532D01*
X15320Y-21511D01*
X15371Y-21511D01*
X15404Y-21532D01*
X15573Y-21759D02*
X15590Y-21779D01*
X15573Y-21800D01*
X15556Y-21779D01*
X15573Y-21759D01*
X15573Y-21800D01*
X15894Y-21511D02*
X15894Y-21800D01*
X15742Y-21511D02*
X15742Y-21738D01*
X15759Y-21779D01*
X15793Y-21800D01*
X15843Y-21800D01*
X15877Y-21779D01*
X15894Y-21759D01*
X16012Y-21511D02*
X16147Y-21511D01*
X16063Y-21367D02*
X16063Y-21738D01*
X16079Y-21779D01*
X16113Y-21800D01*
X16147Y-21800D01*
X16316Y-21800D02*
X16282Y-21779D01*
X16265Y-21759D01*
X16248Y-21718D01*
X16248Y-21594D01*
X16265Y-21553D01*
X16282Y-21532D01*
X16316Y-21511D01*
X16366Y-21511D01*
X16400Y-21532D01*
X16417Y-21553D01*
X16434Y-21594D01*
X16434Y-21718D01*
X16417Y-21759D01*
X16400Y-21779D01*
X16366Y-21800D01*
X16316Y-21800D01*
X16586Y-21800D02*
X16586Y-21511D01*
X16586Y-21594D02*
X16602Y-21553D01*
X16619Y-21532D01*
X16653Y-21511D01*
X16687Y-21511D01*
X16856Y-21800D02*
X16822Y-21779D01*
X16805Y-21759D01*
X16788Y-21718D01*
X16788Y-21594D01*
X16805Y-21553D01*
X16822Y-21532D01*
X16856Y-21511D01*
X16906Y-21511D01*
X16940Y-21532D01*
X16957Y-21553D01*
X16974Y-21594D01*
X16974Y-21718D01*
X16957Y-21759D01*
X16940Y-21779D01*
X16906Y-21800D01*
X16856Y-21800D01*
X17125Y-21511D02*
X17125Y-21800D01*
X17125Y-21553D02*
X17142Y-21532D01*
X17176Y-21511D01*
X17227Y-21511D01*
X17260Y-21532D01*
X17277Y-21573D01*
X17277Y-21800D01*
X17395Y-21511D02*
X17530Y-21511D01*
X17446Y-21367D02*
X17446Y-21738D01*
X17463Y-21779D01*
X17497Y-21800D01*
X17530Y-21800D01*
X17699Y-21800D02*
X17665Y-21779D01*
X17649Y-21759D01*
X17632Y-21718D01*
X17632Y-21594D01*
X17649Y-21553D01*
X17665Y-21532D01*
X17699Y-21511D01*
X17750Y-21511D01*
X17784Y-21532D01*
X17800Y-21553D01*
X17817Y-21594D01*
X17817Y-21718D01*
X17800Y-21759D01*
X17784Y-21779D01*
X17750Y-21800D01*
X17699Y-21800D01*
X17969Y-21759D02*
X17986Y-21779D01*
X17969Y-21800D01*
X17952Y-21779D01*
X17969Y-21759D01*
X17969Y-21800D01*
X18290Y-21779D02*
X18256Y-21800D01*
X18188Y-21800D01*
X18155Y-21779D01*
X18138Y-21759D01*
X18121Y-21718D01*
X18121Y-21594D01*
X18138Y-21553D01*
X18155Y-21532D01*
X18188Y-21511D01*
X18256Y-21511D01*
X18290Y-21532D01*
X18593Y-21800D02*
X18593Y-21573D01*
X18577Y-21532D01*
X18543Y-21511D01*
X18475Y-21511D01*
X18442Y-21532D01*
X18593Y-21779D02*
X18560Y-21800D01*
X18475Y-21800D01*
X18442Y-21779D01*
X18425Y-21738D01*
X18425Y-21697D01*
X18442Y-21656D01*
X18475Y-21635D01*
X18560Y-21635D01*
X18593Y-21614D01*
X19015Y-21346D02*
X18712Y-21903D01*
X19285Y-21800D02*
X19285Y-21367D01*
X19285Y-21779D02*
X19251Y-21800D01*
X19184Y-21800D01*
X19150Y-21779D01*
X19133Y-21759D01*
X19116Y-21718D01*
X19116Y-21594D01*
X19133Y-21553D01*
X19150Y-21532D01*
X19184Y-21511D01*
X19251Y-21511D01*
X19285Y-21532D01*
X19454Y-21800D02*
X19454Y-21511D01*
X19454Y-21594D02*
X19471Y-21553D01*
X19488Y-21532D01*
X19521Y-21511D01*
X19555Y-21511D01*
X19724Y-21800D02*
X19690Y-21779D01*
X19673Y-21759D01*
X19656Y-21718D01*
X19656Y-21594D01*
X19673Y-21553D01*
X19690Y-21532D01*
X19724Y-21511D01*
X19775Y-21511D01*
X19808Y-21532D01*
X19825Y-21553D01*
X19842Y-21594D01*
X19842Y-21718D01*
X19825Y-21759D01*
X19808Y-21779D01*
X19775Y-21800D01*
X19724Y-21800D01*
X19994Y-21511D02*
X19994Y-21944D01*
X19994Y-21532D02*
X20028Y-21511D01*
X20095Y-21511D01*
X20129Y-21532D01*
X20146Y-21553D01*
X20163Y-21594D01*
X20163Y-21718D01*
X20146Y-21759D01*
X20129Y-21779D01*
X20095Y-21800D01*
X20028Y-21800D01*
X19994Y-21779D01*
X20314Y-21800D02*
X20314Y-21367D01*
X20314Y-21532D02*
X20348Y-21511D01*
X20416Y-21511D01*
X20449Y-21532D01*
X20466Y-21553D01*
X20483Y-21594D01*
X20483Y-21718D01*
X20466Y-21759D01*
X20449Y-21779D01*
X20416Y-21800D01*
X20348Y-21800D01*
X20314Y-21779D01*
X20686Y-21800D02*
X20652Y-21779D01*
X20635Y-21759D01*
X20618Y-21718D01*
X20618Y-21594D01*
X20635Y-21553D01*
X20652Y-21532D01*
X20686Y-21511D01*
X20736Y-21511D01*
X20770Y-21532D01*
X20787Y-21553D01*
X20804Y-21594D01*
X20804Y-21718D01*
X20787Y-21759D01*
X20770Y-21779D01*
X20736Y-21800D01*
X20686Y-21800D01*
X20905Y-21511D02*
X21040Y-21511D01*
X20956Y-21367D02*
X20956Y-21738D01*
X20973Y-21779D01*
X21006Y-21800D01*
X21040Y-21800D01*
G54D13*
X12500Y-24750D02*
X12500Y-26550D01*
X12500Y-26550D02*
X12000Y-27050D01*
X12000Y-27050D02*
X11200Y-27050D01*
X11200Y-27050D02*
X10700Y-26550D01*
X10700Y-26550D02*
X10700Y-24750D01*
X21100Y-24750D02*
X21100Y-26550D01*
X21100Y-26550D02*
X20600Y-27050D01*
X20600Y-27050D02*
X19700Y-27050D01*
X19700Y-27050D02*
X19200Y-26550D01*
X19200Y-26550D02*
X19200Y-24750D01*
X21900Y-24750D02*
X21900Y-27500D01*
X21900Y-24750D02*
X9900Y-24750D01*
X9900Y-24750D02*
X9900Y-27500D01*
X19300Y-13000D02*
X19300Y-11200D01*
X19300Y-11200D02*
X19800Y-10700D01*
X19800Y-10700D02*
X20600Y-10700D01*
X20600Y-10700D02*
X21100Y-11200D01*
X21100Y-11200D02*
X21100Y-13000D01*
X10700Y-13000D02*
X10700Y-11200D01*
X10700Y-11200D02*
X11200Y-10700D01*
X11200Y-10700D02*
X12100Y-10700D01*
X12100Y-10700D02*
X12600Y-11200D01*
X12600Y-11200D02*
X12600Y-13000D01*
X9900Y-13000D02*
X9900Y-10250D01*
X9900Y-13000D02*
X21900Y-13000D01*
X21900Y-13000D02*
X21900Y-10250D01*
G54D14*
X32250Y-19300D02*
X32250Y-19250D01*
X32250Y-19250D02*
X30150Y-19250D01*
X30150Y-20750D02*
X32250Y-20750D01*
X32250Y-20750D02*
X32250Y-19300D01*
X32250Y-20200D02*
X32050Y-20200D01*
X32050Y-20200D02*
X32050Y-19800D01*
X32050Y-19800D02*
X32250Y-19800D01*
X30150Y-20750D02*
X30150Y-19250D01*
G54D15*
X37750Y-24550D02*
X41550Y-24550D01*
X41550Y-24550D02*
X41550Y-26050D01*
X41550Y-26050D02*
X37750Y-26050D01*
X37750Y-26050D02*
X37750Y-24550D01*
X37750Y-25050D02*
X38050Y-25050D01*
X38050Y-25050D02*
X38050Y-25450D01*
X38050Y-25450D02*
X37750Y-25450D01*
G54D14*
X34060Y-12720D02*
X34960Y-12720D01*
X34960Y-12720D02*
X34960Y-12070D01*
X34060Y-11370D02*
X34060Y-10720D01*
X34060Y-10720D02*
X34960Y-10720D01*
X34960Y-10720D02*
X34960Y-11370D01*
X34060Y-12070D02*
X34060Y-12720D01*
X31300Y-17450D02*
X31300Y-18350D01*
X31300Y-18350D02*
X31950Y-18350D01*
X32650Y-17450D02*
X33300Y-17450D01*
X33300Y-17450D02*
X33300Y-18350D01*
X33300Y-18350D02*
X32650Y-18350D01*
X31950Y-17450D02*
X31300Y-17450D01*
G54D16*
X22900Y-16400D02*
X28900Y-16400D01*
X28900Y-16400D02*
X28900Y-10400D01*
X28900Y-10400D02*
X22900Y-10400D01*
X22900Y-10400D02*
X22900Y-16400D01*
G54D17*
X48543Y-14399D02*
X48543Y-16761D01*
X48543Y-16761D02*
X46377Y-16761D01*
X46377Y-16761D02*
X46377Y-14399D01*
X46377Y-14399D02*
X48543Y-14399D01*
G54D18*
X48247Y-15580D02*
G75*
G03X48247Y-15580I-787J0D01*
G74*
G01*
G54D14*
X34400Y-19450D02*
X34400Y-18550D01*
X34400Y-18550D02*
X33750Y-18550D01*
X33050Y-19450D02*
X32400Y-19450D01*
X32400Y-19450D02*
X32400Y-18550D01*
X32400Y-18550D02*
X33050Y-18550D01*
X33750Y-19450D02*
X34400Y-19450D01*
X32465Y-21575D02*
X33365Y-21575D01*
X33365Y-21575D02*
X33365Y-20925D01*
X32465Y-20225D02*
X32465Y-19575D01*
X32465Y-19575D02*
X33365Y-19575D01*
X33365Y-19575D02*
X33365Y-20225D01*
X32465Y-20925D02*
X32465Y-21575D01*
G54D15*
X30730Y-10700D02*
X33730Y-10700D01*
X33730Y-12700D02*
X30730Y-12700D01*
X30730Y-12700D02*
X30730Y-10700D01*
X33730Y-10700D02*
X33730Y-12700D01*
G54D13*
X42720Y-11480D02*
X42720Y-10480D01*
X42720Y-10480D02*
X48720Y-10480D01*
X48720Y-10480D02*
X48720Y-11480D01*
X48720Y-11480D02*
X42720Y-11480D01*
X43720Y-11480D02*
X43720Y-10480D01*
G54D17*
X31540Y-14000D02*
X45540Y-14000D01*
X45540Y-16000D02*
X31540Y-16000D01*
G54D16*
X31540Y-16000D02*
X31540Y-14000D01*
X45540Y-14000D02*
X45540Y-16000D01*
X45540Y-15500D02*
X45040Y-15500D01*
X45040Y-15500D02*
X45040Y-14500D01*
X45040Y-14500D02*
X45540Y-14500D01*
G54D15*
X47455Y-18205D02*
X47955Y-18680D01*
X47955Y-18205D02*
X46705Y-18205D01*
X46705Y-18205D02*
X46705Y-19455D01*
X46705Y-19455D02*
X47955Y-19455D01*
X47955Y-19455D02*
X47955Y-18205D01*
G54D14*
X41840Y-10770D02*
X40940Y-10770D01*
X40940Y-10770D02*
X40940Y-11420D01*
X41840Y-12120D02*
X41840Y-12770D01*
X41840Y-12770D02*
X40940Y-12770D01*
X40940Y-12770D02*
X40940Y-12120D01*
X41840Y-11420D02*
X41840Y-10770D01*
X10700Y-22230D02*
X10700Y-23130D01*
X10700Y-23130D02*
X11350Y-23130D01*
X12050Y-22230D02*
X12700Y-22230D01*
X12700Y-22230D02*
X12700Y-23130D01*
X12700Y-23130D02*
X12050Y-23130D01*
X11350Y-22230D02*
X10700Y-22230D01*
G54D19*
X11551Y-23739D02*
X11629Y-23739D01*
X11629Y-23739D02*
X11629Y-23661D01*
X11551Y-23661D02*
X11629Y-23661D01*
X11551Y-23739D02*
X11551Y-23661D01*
X11767Y-23975D02*
X11904Y-23975D01*
X11904Y-23975D02*
X11904Y-23877D01*
X11767Y-23877D02*
X11904Y-23877D01*
X11767Y-23975D02*
X11767Y-23877D01*
X11904Y-23975D02*
X11944Y-23975D01*
X11944Y-23975D02*
X11944Y-23504D01*
X11904Y-23504D02*
X11944Y-23504D01*
X11904Y-23975D02*
X11904Y-23504D01*
X11904Y-23484D02*
X11944Y-23484D01*
X11944Y-23484D02*
X11944Y-23425D01*
X11904Y-23425D02*
X11944Y-23425D01*
X11904Y-23484D02*
X11904Y-23425D01*
X11236Y-23975D02*
X11276Y-23975D01*
X11276Y-23975D02*
X11276Y-23504D01*
X11236Y-23504D02*
X11276Y-23504D01*
X11236Y-23975D02*
X11236Y-23504D01*
X11236Y-23484D02*
X11276Y-23484D01*
X11276Y-23484D02*
X11276Y-23425D01*
X11236Y-23425D02*
X11276Y-23425D01*
X11236Y-23484D02*
X11236Y-23425D01*
X11767Y-23975D02*
X11826Y-23975D01*
X11826Y-23975D02*
X11826Y-23877D01*
X11767Y-23877D02*
X11826Y-23877D01*
X11767Y-23975D02*
X11767Y-23877D01*
G54D20*
X12200Y-23995D02*
X10980Y-23995D01*
X10980Y-23995D02*
X10980Y-23405D01*
X10980Y-23405D02*
X12200Y-23405D01*
X12200Y-23405D02*
X12200Y-23995D01*
X11374Y-23896D02*
G75*
G03X11806Y-23895I215J196D01*
G74*
G01*
X11374Y-23503D02*
G75*
G03X11373Y-23895I215J-196D01*
G74*
G01*
X11805Y-23503D02*
G75*
G03X11373Y-23504I-215J-196D01*
G74*
G01*
X11805Y-23896D02*
G75*
G03X11806Y-23504I-215J196D01*
G74*
G01*
G54D21*
G36*
X16540Y-18486D02*
X16540Y-18586D01*
X16540Y-18686D01*
X16307Y-18686D01*
X16179Y-18690D01*
X16102Y-18701D01*
X16059Y-18725D01*
X16042Y-18748D01*
X16027Y-18812D01*
X16065Y-18855D01*
X16159Y-18879D01*
X16313Y-18886D01*
X16540Y-18886D01*
X16540Y-18987D01*
X16540Y-19088D01*
X15681Y-19079D01*
X14823Y-19070D01*
X14815Y-18864D01*
X14819Y-18705D01*
X14851Y-18599D01*
X14921Y-18537D01*
X15037Y-18509D01*
X15149Y-18504D01*
X15313Y-18515D01*
X15422Y-18554D01*
X15484Y-18626D01*
X15499Y-18703D01*
X15156Y-18703D01*
X15057Y-18706D01*
X15008Y-18720D01*
X14991Y-18753D01*
X14990Y-18786D01*
X14998Y-18842D01*
X15038Y-18869D01*
X15118Y-18880D01*
X15243Y-18882D01*
X15312Y-18858D01*
X15335Y-18805D01*
X15334Y-18778D01*
X15319Y-18733D01*
X15281Y-18711D01*
X15202Y-18704D01*
X15156Y-18703D01*
X15499Y-18703D01*
X15506Y-18737D01*
X15506Y-18758D01*
X15506Y-18886D01*
X15686Y-18886D01*
X15866Y-18886D01*
X15863Y-18766D01*
X15876Y-18661D01*
X15935Y-18580D01*
X15951Y-18566D01*
X16010Y-18523D01*
X16076Y-18499D01*
X16172Y-18489D01*
X16291Y-18486D01*
X16540Y-18486D01*
X16540Y-18486D01*
X16540Y-18486D01*
G37*
G36*
X16540Y-17886D02*
X16540Y-18059D01*
X16331Y-18059D01*
X16289Y-18067D01*
X16274Y-18121D01*
X16273Y-18149D01*
X16288Y-18239D01*
X16328Y-18279D01*
X16375Y-18269D01*
X16401Y-18219D01*
X16396Y-18146D01*
X16366Y-18082D01*
X16331Y-18059D01*
X16540Y-18059D01*
X16540Y-18115D01*
X16535Y-18249D01*
X16520Y-18334D01*
X16489Y-18387D01*
X16479Y-18398D01*
X16380Y-18448D01*
X16271Y-18434D01*
X16214Y-18401D01*
X16163Y-18348D01*
X16142Y-18267D01*
X16140Y-18201D01*
X16133Y-18104D01*
X16111Y-18059D01*
X16088Y-18053D01*
X16033Y-18080D01*
X16012Y-18147D01*
X16031Y-18232D01*
X16044Y-18307D01*
X16024Y-18371D01*
X15981Y-18405D01*
X15928Y-18391D01*
X15881Y-18315D01*
X15860Y-18205D01*
X15866Y-18085D01*
X15896Y-17979D01*
X15947Y-17914D01*
X15999Y-17902D01*
X16098Y-17892D01*
X16226Y-17887D01*
X16265Y-17887D01*
X16540Y-17886D01*
X16540Y-17886D01*
X16540Y-17886D01*
G37*
G36*
X16540Y-16753D02*
X16540Y-16925D01*
X16200Y-16925D01*
X16104Y-16941D01*
X16038Y-16984D01*
X16028Y-17002D01*
X16034Y-17066D01*
X16087Y-17121D01*
X16170Y-17152D01*
X16194Y-17153D01*
X16302Y-17136D01*
X16372Y-17094D01*
X16397Y-17038D01*
X16372Y-16981D01*
X16302Y-16941D01*
X16200Y-16925D01*
X16540Y-16925D01*
X16540Y-16986D01*
X16537Y-17111D01*
X16527Y-17188D01*
X16503Y-17235D01*
X16461Y-17270D01*
X16457Y-17272D01*
X16371Y-17307D01*
X16246Y-17317D01*
X16177Y-17315D01*
X16066Y-17311D01*
X16012Y-17319D01*
X16008Y-17338D01*
X16011Y-17343D01*
X16035Y-17408D01*
X16034Y-17443D01*
X16035Y-17512D01*
X16071Y-17556D01*
X16152Y-17579D01*
X16288Y-17586D01*
X16308Y-17586D01*
X16540Y-17586D01*
X16540Y-17686D01*
X16540Y-17786D01*
X16210Y-17786D01*
X15881Y-17786D01*
X15864Y-17595D01*
X15861Y-17449D01*
X15880Y-17352D01*
X15887Y-17339D01*
X15911Y-17275D01*
X15892Y-17202D01*
X15883Y-17184D01*
X15856Y-17082D01*
X15871Y-17007D01*
X15888Y-16953D01*
X15875Y-16928D01*
X15818Y-16920D01*
X15755Y-16920D01*
X15663Y-16916D01*
X15620Y-16899D01*
X15607Y-16858D01*
X15606Y-16836D01*
X15606Y-16753D01*
X16073Y-16753D01*
X16540Y-16753D01*
X16540Y-16753D01*
X16540Y-16753D01*
G37*
G36*
X16540Y-15186D02*
X16540Y-15393D01*
X16331Y-15393D01*
X16286Y-15402D01*
X16273Y-15463D01*
X16273Y-15465D01*
X16290Y-15546D01*
X16333Y-15580D01*
X16375Y-15569D01*
X16401Y-15520D01*
X16392Y-15453D01*
X16353Y-15402D01*
X16331Y-15393D01*
X16540Y-15393D01*
X16540Y-15435D01*
X16537Y-15566D01*
X16527Y-15648D01*
X16506Y-15697D01*
X16468Y-15733D01*
X16465Y-15735D01*
X16357Y-15780D01*
X16261Y-15765D01*
X16186Y-15698D01*
X16145Y-15586D01*
X16140Y-15520D01*
X16132Y-15428D01*
X16105Y-15389D01*
X16088Y-15386D01*
X16034Y-15413D01*
X16011Y-15477D01*
X16031Y-15551D01*
X16032Y-15553D01*
X16049Y-15617D01*
X16017Y-15685D01*
X15983Y-15741D01*
X15978Y-15767D01*
X16013Y-15780D01*
X16096Y-15808D01*
X16212Y-15844D01*
X16256Y-15857D01*
X16388Y-15899D01*
X16469Y-15933D01*
X16512Y-15965D01*
X16530Y-16005D01*
X16533Y-16028D01*
X16534Y-16079D01*
X16511Y-16113D01*
X16450Y-16142D01*
X16350Y-16174D01*
X16156Y-16231D01*
X16340Y-16285D01*
X16446Y-16321D01*
X16504Y-16356D01*
X16529Y-16401D01*
X16533Y-16427D01*
X16534Y-16471D01*
X16517Y-16504D01*
X16469Y-16533D01*
X16380Y-16566D01*
X16267Y-16602D01*
X16133Y-16644D01*
X16020Y-16679D01*
X15945Y-16702D01*
X15931Y-16707D01*
X15889Y-16706D01*
X15874Y-16659D01*
X15873Y-16626D01*
X15878Y-16569D01*
X15903Y-16533D01*
X15964Y-16506D01*
X16065Y-16479D01*
X16256Y-16431D01*
X16065Y-16369D01*
X15955Y-16330D01*
X15896Y-16294D01*
X15874Y-16253D01*
X15873Y-16232D01*
X15884Y-16185D01*
X15926Y-16149D01*
X16013Y-16113D01*
X16062Y-16097D01*
X16251Y-16037D01*
X16070Y-15983D01*
X15964Y-15947D01*
X15907Y-15911D01*
X15883Y-15864D01*
X15879Y-15841D01*
X15882Y-15777D01*
X15902Y-15753D01*
X15914Y-15726D01*
X15895Y-15656D01*
X15887Y-15635D01*
X15855Y-15502D01*
X15866Y-15373D01*
X15915Y-15269D01*
X15951Y-15236D01*
X16037Y-15204D01*
X16185Y-15188D01*
X16280Y-15186D01*
X16540Y-15186D01*
X16540Y-15186D01*
X16540Y-15186D01*
G37*
G36*
X15931Y-14621D02*
X15981Y-14658D01*
X16018Y-14720D01*
X16026Y-14760D01*
X16036Y-14839D01*
X16069Y-14887D01*
X16136Y-14911D01*
X16251Y-14919D01*
X16308Y-14920D01*
X16429Y-14921D01*
X16499Y-14928D01*
X16530Y-14947D01*
X16539Y-14982D01*
X16540Y-15003D01*
X16540Y-15086D01*
X16205Y-15086D01*
X15871Y-15086D01*
X15870Y-14978D01*
X15868Y-14860D01*
X15866Y-14761D01*
X15871Y-14679D01*
X15885Y-14630D01*
X15886Y-14629D01*
X15931Y-14621D01*
X15931Y-14621D01*
X15931Y-14621D01*
G37*
G36*
X16273Y-14053D02*
X16273Y-14253D01*
X16093Y-14253D01*
X16042Y-14280D01*
X16021Y-14340D01*
X16041Y-14404D01*
X16043Y-14407D01*
X16096Y-14450D01*
X16129Y-14430D01*
X16140Y-14353D01*
X16126Y-14276D01*
X16093Y-14253D01*
X16273Y-14253D01*
X16273Y-14256D01*
X16280Y-14381D01*
X16302Y-14441D01*
X16338Y-14437D01*
X16387Y-14376D01*
X16403Y-14309D01*
X16378Y-14249D01*
X16351Y-14188D01*
X16372Y-14141D01*
X16385Y-14127D01*
X16446Y-14094D01*
X16494Y-14121D01*
X16527Y-14203D01*
X16539Y-14335D01*
X16540Y-14341D01*
X16536Y-14448D01*
X16519Y-14512D01*
X16478Y-14556D01*
X16431Y-14587D01*
X16293Y-14641D01*
X16151Y-14647D01*
X16022Y-14608D01*
X15922Y-14528D01*
X15875Y-14445D01*
X15859Y-14305D01*
X15900Y-14186D01*
X15990Y-14099D01*
X16119Y-14056D01*
X16164Y-14053D01*
X16273Y-14053D01*
X16273Y-14053D01*
X16273Y-14053D01*
G37*
G36*
X15144Y-19153D02*
X15273Y-19166D01*
X15383Y-19200D01*
X15418Y-19222D01*
X15487Y-19315D01*
X15488Y-19323D01*
X15135Y-19323D01*
X15037Y-19352D01*
X14995Y-19392D01*
X14981Y-19461D01*
X15023Y-19516D01*
X15112Y-19549D01*
X15171Y-19553D01*
X15272Y-19547D01*
X15322Y-19519D01*
X15339Y-19459D01*
X15340Y-19432D01*
X15315Y-19362D01*
X15260Y-19334D01*
X15135Y-19323D01*
X15488Y-19323D01*
X15511Y-19433D01*
X15491Y-19554D01*
X15429Y-19647D01*
X15327Y-19703D01*
X15194Y-19726D01*
X15054Y-19715D01*
X14934Y-19673D01*
X14888Y-19638D01*
X14823Y-19530D01*
X14813Y-19407D01*
X14855Y-19286D01*
X14937Y-19196D01*
X15023Y-19162D01*
X15144Y-19153D01*
X15144Y-19153D01*
X15144Y-19153D01*
G37*
G36*
X15240Y-17844D02*
X15240Y-18061D01*
X15031Y-18061D01*
X14999Y-18102D01*
X14990Y-18153D01*
X15005Y-18219D01*
X15031Y-18245D01*
X15063Y-18227D01*
X15073Y-18153D01*
X15062Y-18077D01*
X15031Y-18061D01*
X15240Y-18061D01*
X15240Y-18064D01*
X15242Y-18184D01*
X15252Y-18248D01*
X15272Y-18269D01*
X15287Y-18266D01*
X15345Y-18213D01*
X15352Y-18127D01*
X15333Y-18068D01*
X15312Y-17997D01*
X15337Y-17943D01*
X15352Y-17927D01*
X15399Y-17889D01*
X15433Y-17903D01*
X15458Y-17935D01*
X15496Y-18031D01*
X15505Y-18156D01*
X15484Y-18278D01*
X15445Y-18355D01*
X15386Y-18404D01*
X15296Y-18433D01*
X15196Y-18446D01*
X15085Y-18452D01*
X15014Y-18441D01*
X14956Y-18406D01*
X14908Y-18360D01*
X14829Y-18243D01*
X14810Y-18123D01*
X14845Y-18013D01*
X14931Y-17924D01*
X15062Y-17870D01*
X15098Y-17863D01*
X15240Y-17844D01*
X15240Y-17844D01*
X15240Y-17844D01*
G37*
G36*
X15238Y-17220D02*
X15371Y-17221D01*
X15450Y-17226D01*
X15490Y-17240D01*
X15504Y-17268D01*
X15506Y-17303D01*
X15502Y-17348D01*
X15480Y-17373D01*
X15425Y-17384D01*
X15321Y-17386D01*
X15296Y-17386D01*
X15136Y-17397D01*
X15030Y-17428D01*
X14981Y-17477D01*
X14993Y-17542D01*
X14993Y-17543D01*
X15029Y-17577D01*
X15095Y-17598D01*
X15207Y-17610D01*
X15268Y-17613D01*
X15392Y-17619D01*
X15463Y-17630D01*
X15496Y-17649D01*
X15506Y-17684D01*
X15506Y-17705D01*
X15504Y-17741D01*
X15490Y-17765D01*
X15452Y-17778D01*
X15378Y-17785D01*
X15256Y-17786D01*
X15160Y-17786D01*
X14813Y-17786D01*
X14813Y-17582D01*
X14817Y-17458D01*
X14835Y-17378D01*
X14873Y-17318D01*
X14891Y-17298D01*
X14939Y-17258D01*
X14995Y-17235D01*
X15077Y-17223D01*
X15203Y-17220D01*
X15238Y-17220D01*
X15238Y-17220D01*
X15238Y-17220D01*
G37*
G36*
X15284Y-16293D02*
X15380Y-16310D01*
X15440Y-16353D01*
X15486Y-16440D01*
X15505Y-16563D01*
X15496Y-16697D01*
X15458Y-16820D01*
X15452Y-16832D01*
X15414Y-16896D01*
X15384Y-16906D01*
X15341Y-16870D01*
X15335Y-16864D01*
X15295Y-16815D01*
X15292Y-16768D01*
X15323Y-16697D01*
X15354Y-16600D01*
X15345Y-16524D01*
X15300Y-16488D01*
X15286Y-16486D01*
X15250Y-16517D01*
X15240Y-16596D01*
X15216Y-16728D01*
X15149Y-16816D01*
X15043Y-16852D01*
X15023Y-16853D01*
X14912Y-16826D01*
X14839Y-16751D01*
X14808Y-16636D01*
X14824Y-16489D01*
X14843Y-16425D01*
X14889Y-16342D01*
X14944Y-16324D01*
X15006Y-16370D01*
X15031Y-16424D01*
X15008Y-16468D01*
X14983Y-16528D01*
X14980Y-16600D01*
X14998Y-16656D01*
X15022Y-16670D01*
X15048Y-16640D01*
X15071Y-16567D01*
X15076Y-16539D01*
X15119Y-16413D01*
X15193Y-16329D01*
X15284Y-16293D01*
X15284Y-16293D01*
X15284Y-16293D01*
G37*
G36*
X15166Y-15686D02*
X15287Y-15691D01*
X15364Y-15711D01*
X15421Y-15751D01*
X15434Y-15764D01*
X15482Y-15852D01*
X15181Y-15852D01*
X15085Y-15863D01*
X15013Y-15900D01*
X14980Y-15955D01*
X14995Y-16014D01*
X15065Y-16068D01*
X15174Y-16084D01*
X15260Y-16072D01*
X15318Y-16031D01*
X15341Y-15966D01*
X15324Y-15902D01*
X15287Y-15873D01*
X15181Y-15852D01*
X15482Y-15852D01*
X15493Y-15870D01*
X15508Y-15995D01*
X15477Y-16114D01*
X15429Y-16181D01*
X15364Y-16226D01*
X15278Y-16248D01*
X15161Y-16253D01*
X14995Y-16233D01*
X14881Y-16171D01*
X14819Y-16068D01*
X14806Y-15970D01*
X14831Y-15838D01*
X14907Y-15747D01*
X15035Y-15698D01*
X15166Y-15686D01*
X15166Y-15686D01*
X15166Y-15686D01*
G37*
G36*
X15506Y-15020D02*
X15506Y-15248D01*
X15503Y-15378D01*
X15489Y-15460D01*
X15460Y-15515D01*
X15436Y-15540D01*
X15386Y-15573D01*
X15316Y-15593D01*
X15209Y-15602D01*
X15094Y-15603D01*
X14961Y-15602D01*
X14879Y-15597D01*
X14837Y-15583D01*
X14819Y-15555D01*
X14812Y-15513D01*
X14802Y-15423D01*
X15062Y-15413D01*
X15193Y-15407D01*
X15270Y-15398D01*
X15309Y-15381D01*
X15322Y-15351D01*
X15323Y-15320D01*
X15319Y-15277D01*
X15298Y-15251D01*
X15247Y-15236D01*
X15150Y-15225D01*
X15073Y-15220D01*
X14946Y-15210D01*
X14870Y-15198D01*
X14832Y-15178D01*
X14817Y-15143D01*
X14812Y-15111D01*
X14802Y-15020D01*
X15154Y-15020D01*
X15506Y-15020D01*
X15506Y-15020D01*
X15506Y-15020D01*
G37*
G36*
X14879Y-14457D02*
X14930Y-14475D01*
X14976Y-14537D01*
X14981Y-14587D01*
X14985Y-14666D01*
X15027Y-14717D01*
X15115Y-14744D01*
X15258Y-14753D01*
X15277Y-14753D01*
X15398Y-14754D01*
X15466Y-14762D01*
X15497Y-14781D01*
X15506Y-14816D01*
X15506Y-14836D01*
X15506Y-14920D01*
X15160Y-14920D01*
X14813Y-14920D01*
X14813Y-14725D01*
X14819Y-14576D01*
X14841Y-14488D01*
X14879Y-14457D01*
X14879Y-14457D01*
X14879Y-14457D01*
G37*
G36*
X14933Y-13923D02*
X14973Y-13940D01*
X14993Y-13959D01*
X15028Y-14017D01*
X15009Y-14080D01*
X14976Y-14164D01*
X14990Y-14226D01*
X15025Y-14267D01*
X15103Y-14309D01*
X15201Y-14317D01*
X15284Y-14292D01*
X15300Y-14280D01*
X15332Y-14215D01*
X15337Y-14136D01*
X15313Y-14076D01*
X15304Y-14068D01*
X15294Y-14030D01*
X15326Y-13983D01*
X15373Y-13940D01*
X15412Y-13947D01*
X15445Y-13975D01*
X15495Y-14061D01*
X15509Y-14176D01*
X15488Y-14297D01*
X15432Y-14396D01*
X15424Y-14405D01*
X15356Y-14457D01*
X15271Y-14482D01*
X15172Y-14486D01*
X15059Y-14480D01*
X14981Y-14453D01*
X14908Y-14394D01*
X14899Y-14385D01*
X14834Y-14310D01*
X14811Y-14242D01*
X14816Y-14147D01*
X14840Y-14047D01*
X14877Y-13970D01*
X14887Y-13958D01*
X14933Y-13923D01*
X14933Y-13923D01*
X14933Y-13923D01*
G37*
G36*
X15240Y-13353D02*
X15240Y-13527D01*
X15036Y-13527D01*
X15031Y-13528D01*
X14989Y-13571D01*
X14982Y-13641D01*
X15010Y-13708D01*
X15021Y-13718D01*
X15055Y-13738D01*
X15070Y-13714D01*
X15073Y-13638D01*
X15064Y-13551D01*
X15036Y-13527D01*
X15240Y-13527D01*
X15240Y-13552D01*
X15243Y-13664D01*
X15254Y-13722D01*
X15277Y-13736D01*
X15287Y-13733D01*
X15345Y-13680D01*
X15352Y-13594D01*
X15333Y-13535D01*
X15312Y-13463D01*
X15337Y-13410D01*
X15352Y-13394D01*
X15399Y-13356D01*
X15433Y-13370D01*
X15458Y-13401D01*
X15501Y-13508D01*
X15506Y-13638D01*
X15474Y-13762D01*
X15424Y-13838D01*
X15356Y-13891D01*
X15271Y-13915D01*
X15172Y-13920D01*
X15058Y-13913D01*
X14980Y-13886D01*
X14908Y-13827D01*
X14904Y-13822D01*
X14827Y-13708D01*
X14809Y-13591D01*
X14843Y-13484D01*
X14925Y-13402D01*
X15047Y-13357D01*
X15105Y-13353D01*
X15240Y-13353D01*
X15240Y-13353D01*
X15240Y-13353D01*
G37*
G36*
X12703Y-14053D02*
X12725Y-14178D01*
X12745Y-14283D01*
X12770Y-14416D01*
X12786Y-14499D01*
X12824Y-14694D01*
X13069Y-14792D01*
X13313Y-14889D01*
X13584Y-14704D01*
X13854Y-14519D01*
X14097Y-14760D01*
X14198Y-14863D01*
X14279Y-14951D01*
X14328Y-15010D01*
X14340Y-15030D01*
X14322Y-15068D01*
X14273Y-15147D01*
X14204Y-15252D01*
X14166Y-15307D01*
X14085Y-15424D01*
X14037Y-15502D01*
X14017Y-15554D01*
X14021Y-15595D01*
X14043Y-15639D01*
X14049Y-15651D01*
X14089Y-15731D01*
X14106Y-15794D01*
X14106Y-15795D01*
X14075Y-15827D01*
X13984Y-15880D01*
X13837Y-15950D01*
X13637Y-16038D01*
X13572Y-16065D01*
X13396Y-16137D01*
X13241Y-16200D01*
X13118Y-16248D01*
X13036Y-16278D01*
X13008Y-16286D01*
X12974Y-16261D01*
X12923Y-16196D01*
X12906Y-16170D01*
X12783Y-16029D01*
X12626Y-15935D01*
X12448Y-15889D01*
X12262Y-15891D01*
X12082Y-15940D01*
X11920Y-16037D01*
X11807Y-16157D01*
X11716Y-16334D01*
X11683Y-16517D01*
X11704Y-16698D01*
X11773Y-16864D01*
X11885Y-17006D01*
X12034Y-17113D01*
X12215Y-17175D01*
X12339Y-17186D01*
X12522Y-17168D01*
X12673Y-17108D01*
X12812Y-16995D01*
X12862Y-16941D01*
X12937Y-16860D01*
X12995Y-16804D01*
X13021Y-16786D01*
X13072Y-16799D01*
X13167Y-16834D01*
X13295Y-16886D01*
X13444Y-16950D01*
X13602Y-17019D01*
X13757Y-17090D01*
X13897Y-17156D01*
X14009Y-17212D01*
X14083Y-17252D01*
X14106Y-17271D01*
X14091Y-17328D01*
X14053Y-17408D01*
X14049Y-17413D01*
X13993Y-17512D01*
X14166Y-17763D01*
X14242Y-17877D01*
X14302Y-17970D01*
X14335Y-18030D01*
X14340Y-18043D01*
X14317Y-18077D01*
X14257Y-18146D01*
X14171Y-18238D01*
X14114Y-18296D01*
X14012Y-18393D01*
X13924Y-18469D01*
X13862Y-18513D01*
X13844Y-18520D01*
X13799Y-18502D01*
X13715Y-18453D01*
X13607Y-18384D01*
X13560Y-18351D01*
X13318Y-18183D01*
X13071Y-18281D01*
X12824Y-18379D01*
X12786Y-18574D01*
X12760Y-18707D01*
X12736Y-18835D01*
X12725Y-18896D01*
X12703Y-19022D01*
X12347Y-19013D01*
X11991Y-19003D01*
X11928Y-18682D01*
X11866Y-18360D01*
X11661Y-18273D01*
X11549Y-18229D01*
X11458Y-18197D01*
X11410Y-18186D01*
X11363Y-18205D01*
X11279Y-18253D01*
X11174Y-18323D01*
X11154Y-18337D01*
X11046Y-18412D01*
X10953Y-18472D01*
X10894Y-18506D01*
X10889Y-18508D01*
X10841Y-18500D01*
X10764Y-18448D01*
X10653Y-18349D01*
X10603Y-18300D01*
X10505Y-18198D01*
X10427Y-18111D01*
X10381Y-18050D01*
X10373Y-18031D01*
X10391Y-17988D01*
X10439Y-17905D01*
X10509Y-17796D01*
X10551Y-17733D01*
X10730Y-17474D01*
X10648Y-17272D01*
X10603Y-17164D01*
X10564Y-17081D01*
X10542Y-17044D01*
X10500Y-17027D01*
X10409Y-17002D01*
X10283Y-16975D01*
X10203Y-16960D01*
X9890Y-16901D01*
X9890Y-16537D01*
X9890Y-16173D01*
X10221Y-16105D01*
X10552Y-16036D01*
X10641Y-15820D01*
X10730Y-15603D01*
X10551Y-15342D01*
X10474Y-15225D01*
X10414Y-15126D01*
X10379Y-15060D01*
X10374Y-15042D01*
X10398Y-14997D01*
X10457Y-14922D01*
X10540Y-14829D01*
X10633Y-14733D01*
X10724Y-14646D01*
X10798Y-14581D01*
X10845Y-14553D01*
X10847Y-14553D01*
X10895Y-14571D01*
X10981Y-14620D01*
X11090Y-14690D01*
X11133Y-14720D01*
X11244Y-14795D01*
X11336Y-14853D01*
X11394Y-14884D01*
X11404Y-14886D01*
X11450Y-14875D01*
X11539Y-14843D01*
X11651Y-14799D01*
X11654Y-14798D01*
X11869Y-14710D01*
X11929Y-14381D01*
X11988Y-14053D01*
X12346Y-14053D01*
X12703Y-14053D01*
X12703Y-14053D01*
X12703Y-14053D01*
G37*
G36*
X18077Y-18807D02*
X18315Y-18826D01*
X18527Y-18885D01*
X18555Y-18897D01*
X18723Y-18999D01*
X18005Y-18999D01*
X17752Y-19046D01*
X17530Y-19146D01*
X17346Y-19294D01*
X17206Y-19483D01*
X17117Y-19705D01*
X17085Y-19955D01*
X17085Y-19961D01*
X17114Y-20228D01*
X17200Y-20462D01*
X17341Y-20661D01*
X17536Y-20821D01*
X17644Y-20882D01*
X17850Y-20953D01*
X18073Y-20980D01*
X18290Y-20962D01*
X18480Y-20898D01*
X18485Y-20896D01*
X18707Y-20747D01*
X18879Y-20563D01*
X18998Y-20352D01*
X19062Y-20121D01*
X19066Y-19880D01*
X19009Y-19636D01*
X18966Y-19535D01*
X18828Y-19323D01*
X18648Y-19161D01*
X18432Y-19053D01*
X18186Y-19001D01*
X18005Y-18999D01*
X18723Y-18999D01*
X18799Y-19045D01*
X18996Y-19241D01*
X19146Y-19482D01*
X19238Y-19737D01*
X19274Y-19915D01*
X19275Y-20073D01*
X19241Y-20245D01*
X19237Y-20258D01*
X19169Y-20451D01*
X19074Y-20618D01*
X18936Y-20786D01*
X18923Y-20800D01*
X18722Y-20975D01*
X18488Y-21097D01*
X18292Y-21158D01*
X18048Y-21182D01*
X17802Y-21147D01*
X17566Y-21057D01*
X17349Y-20917D01*
X17163Y-20734D01*
X17017Y-20512D01*
X17011Y-20500D01*
X16957Y-20383D01*
X16924Y-20288D01*
X16908Y-20189D01*
X16902Y-20060D01*
X16902Y-19976D01*
X16905Y-19816D01*
X16918Y-19698D01*
X16944Y-19597D01*
X16989Y-19489D01*
X16992Y-19483D01*
X17117Y-19278D01*
X17285Y-19096D01*
X17479Y-18952D01*
X17609Y-18888D01*
X17834Y-18827D01*
X18077Y-18807D01*
X18077Y-18807D01*
X18077Y-18807D01*
G37*
G36*
X18077Y-16258D02*
X18323Y-16275D01*
X18529Y-16331D01*
X18713Y-16433D01*
X18113Y-16433D01*
X17864Y-16455D01*
X17630Y-16539D01*
X17421Y-16679D01*
X17325Y-16775D01*
X17186Y-16980D01*
X17105Y-17207D01*
X17080Y-17445D01*
X17112Y-17682D01*
X17200Y-17907D01*
X17344Y-18109D01*
X17372Y-18138D01*
X17570Y-18292D01*
X17792Y-18388D01*
X18029Y-18427D01*
X18269Y-18409D01*
X18503Y-18332D01*
X18720Y-18197D01*
X18741Y-18179D01*
X18897Y-18006D01*
X19005Y-17797D01*
X19063Y-17566D01*
X19068Y-17327D01*
X19017Y-17094D01*
X18984Y-17014D01*
X18874Y-16842D01*
X18722Y-16683D01*
X18547Y-16555D01*
X18368Y-16474D01*
X18366Y-16473D01*
X18113Y-16433D01*
X18713Y-16433D01*
X18842Y-16538D01*
X19034Y-16746D01*
X19167Y-16969D01*
X19237Y-17166D01*
X19272Y-17330D01*
X19278Y-17472D01*
X19255Y-17626D01*
X19231Y-17724D01*
X19129Y-17981D01*
X18970Y-18208D01*
X18763Y-18397D01*
X18532Y-18532D01*
X18427Y-18572D01*
X18316Y-18595D01*
X18175Y-18606D01*
X18068Y-18608D01*
X17913Y-18605D01*
X17801Y-18595D01*
X17707Y-18571D01*
X17607Y-18529D01*
X17570Y-18511D01*
X17338Y-18364D01*
X17144Y-18173D01*
X17000Y-17950D01*
X16991Y-17932D01*
X16944Y-17817D01*
X16917Y-17709D01*
X16905Y-17580D01*
X16902Y-17458D01*
X16915Y-17217D01*
X16958Y-17018D01*
X17041Y-16843D01*
X17170Y-16674D01*
X17235Y-16606D01*
X17419Y-16444D01*
X17607Y-16337D01*
X17818Y-16277D01*
X18068Y-16258D01*
X18077Y-16258D01*
X18077Y-16258D01*
X18077Y-16258D01*
G37*
G36*
X18068Y-13712D02*
X18318Y-13731D01*
X18538Y-13800D01*
X18706Y-13902D01*
X18126Y-13902D01*
X17887Y-13922D01*
X17661Y-13994D01*
X17458Y-14114D01*
X17290Y-14276D01*
X17167Y-14474D01*
X17137Y-14550D01*
X17092Y-14756D01*
X17087Y-14978D01*
X17120Y-15188D01*
X17163Y-15308D01*
X17264Y-15468D01*
X17407Y-15625D01*
X17572Y-15757D01*
X17695Y-15827D01*
X17835Y-15868D01*
X18011Y-15889D01*
X18193Y-15888D01*
X18352Y-15864D01*
X18388Y-15853D01*
X18610Y-15745D01*
X18794Y-15590D01*
X18936Y-15400D01*
X19030Y-15184D01*
X19072Y-14952D01*
X19059Y-14715D01*
X18984Y-14483D01*
X18984Y-14480D01*
X18874Y-14308D01*
X18722Y-14150D01*
X18547Y-14021D01*
X18368Y-13940D01*
X18366Y-13940D01*
X18126Y-13902D01*
X18706Y-13902D01*
X18743Y-13924D01*
X18860Y-14022D01*
X19025Y-14197D01*
X19142Y-14377D01*
X19223Y-14586D01*
X19239Y-14642D01*
X19273Y-14802D01*
X19278Y-14944D01*
X19254Y-15101D01*
X19231Y-15191D01*
X19131Y-15444D01*
X18982Y-15662D01*
X18792Y-15841D01*
X18571Y-15975D01*
X18327Y-16058D01*
X18069Y-16087D01*
X17806Y-16055D01*
X17766Y-16044D01*
X17573Y-15969D01*
X17384Y-15860D01*
X17221Y-15733D01*
X17134Y-15638D01*
X17019Y-15463D01*
X16947Y-15288D01*
X16910Y-15090D01*
X16902Y-14908D01*
X16904Y-14755D01*
X16914Y-14644D01*
X16938Y-14550D01*
X16980Y-14449D01*
X17011Y-14385D01*
X17164Y-14143D01*
X17359Y-13952D01*
X17590Y-13814D01*
X17852Y-13733D01*
X18068Y-13712D01*
X18068Y-13712D01*
X18068Y-13712D01*
G37*
G36*
X17876Y-20012D02*
X17900Y-20089D01*
X17905Y-20165D01*
X17888Y-20202D01*
X17854Y-20275D01*
X17863Y-20360D01*
X17912Y-20422D01*
X17916Y-20424D01*
X18005Y-20451D01*
X18111Y-20457D01*
X18204Y-20441D01*
X18245Y-20418D01*
X18277Y-20350D01*
X18282Y-20259D01*
X18260Y-20183D01*
X18250Y-20171D01*
X18233Y-20120D01*
X18245Y-20061D01*
X18277Y-20026D01*
X18284Y-20025D01*
X18338Y-20055D01*
X18384Y-20131D01*
X18415Y-20234D01*
X18424Y-20341D01*
X18414Y-20404D01*
X18348Y-20536D01*
X18241Y-20620D01*
X18102Y-20652D01*
X17941Y-20627D01*
X17936Y-20626D01*
X17821Y-20556D01*
X17747Y-20449D01*
X17719Y-20322D01*
X17743Y-20192D01*
X17797Y-20104D01*
X17876Y-20012D01*
X17876Y-20012D01*
X17876Y-20012D01*
G37*
G36*
X17876Y-19312D02*
X17900Y-19389D01*
X17905Y-19465D01*
X17888Y-19502D01*
X17854Y-19576D01*
X17863Y-19665D01*
X17904Y-19728D01*
X17974Y-19759D01*
X18068Y-19772D01*
X18161Y-19759D01*
X18231Y-19728D01*
X18273Y-19658D01*
X18283Y-19565D01*
X18260Y-19484D01*
X18248Y-19468D01*
X18230Y-19409D01*
X18243Y-19375D01*
X18270Y-19339D01*
X18302Y-19350D01*
X18343Y-19391D01*
X18410Y-19497D01*
X18429Y-19631D01*
X18424Y-19699D01*
X18381Y-19809D01*
X18290Y-19893D01*
X18168Y-19943D01*
X18030Y-19953D01*
X17900Y-19919D01*
X17799Y-19839D01*
X17738Y-19724D01*
X17723Y-19593D01*
X17756Y-19465D01*
X17797Y-19404D01*
X17876Y-19312D01*
X17876Y-19312D01*
X17876Y-19312D01*
G37*
G36*
X18123Y-17128D02*
X18200Y-17132D01*
X18238Y-17145D01*
X18250Y-17172D01*
X18251Y-17190D01*
X18256Y-17224D01*
X18280Y-17244D01*
X18335Y-17254D01*
X18435Y-17258D01*
X18535Y-17258D01*
X18818Y-17258D01*
X18818Y-17425D01*
X18818Y-17592D01*
X18548Y-17592D01*
X18413Y-17593D01*
X18330Y-17601D01*
X18286Y-17616D01*
X18265Y-17644D01*
X18261Y-17658D01*
X18245Y-17692D01*
X18211Y-17712D01*
X18143Y-17722D01*
X18027Y-17725D01*
X17979Y-17725D01*
X17715Y-17725D01*
X17725Y-17433D01*
X17735Y-17142D01*
X17993Y-17132D01*
X18123Y-17128D01*
X18123Y-17128D01*
X18123Y-17128D01*
G37*
G36*
X17428Y-17298D02*
X17535Y-17309D01*
X17601Y-17369D01*
X17618Y-17447D01*
X17588Y-17528D01*
X17539Y-17563D01*
X17438Y-17581D01*
X17362Y-17545D01*
X17325Y-17463D01*
X17324Y-17415D01*
X17342Y-17338D01*
X17388Y-17305D01*
X17428Y-17298D01*
X17428Y-17298D01*
X17428Y-17298D01*
G37*
G36*
X18092Y-14306D02*
X18268Y-14329D01*
X18430Y-14395D01*
X18565Y-14503D01*
X18654Y-14639D01*
X18708Y-14825D01*
X18706Y-15012D01*
X18659Y-15158D01*
X18596Y-15247D01*
X18507Y-15333D01*
X18412Y-15398D01*
X18333Y-15425D01*
X18330Y-15425D01*
X18297Y-15395D01*
X18285Y-15303D01*
X18285Y-15292D01*
X18292Y-15208D01*
X18310Y-15162D01*
X18318Y-15158D01*
X18385Y-15129D01*
X18443Y-15054D01*
X18479Y-14954D01*
X18484Y-14900D01*
X18476Y-14794D01*
X18444Y-14724D01*
X18371Y-14661D01*
X18352Y-14648D01*
X18248Y-14605D01*
X18117Y-14590D01*
X17977Y-14601D01*
X17849Y-14633D01*
X17751Y-14686D01*
X17705Y-14743D01*
X17684Y-14857D01*
X17700Y-14970D01*
X17745Y-15067D01*
X17811Y-15132D01*
X17890Y-15149D01*
X17909Y-15145D01*
X17984Y-15154D01*
X18051Y-15208D01*
X18130Y-15292D01*
X18034Y-15392D01*
X17971Y-15448D01*
X17928Y-15470D01*
X17920Y-15467D01*
X17881Y-15439D01*
X17803Y-15394D01*
X17744Y-15363D01*
X17596Y-15255D01*
X17499Y-15111D01*
X17457Y-14942D01*
X17473Y-14758D01*
X17515Y-14639D01*
X17615Y-14492D01*
X17753Y-14387D01*
X17916Y-14325D01*
X18092Y-14306D01*
X18092Y-14306D01*
X18092Y-14306D01*
G37*
G54D22*
X30225Y-16450D02*
X29225Y-16450D01*
X29225Y-16450D02*
X29225Y-13450D01*
X29225Y-13450D02*
X30225Y-13450D01*
X30225Y-13450D02*
X30225Y-16450D01*
X29225Y-15450D02*
X30225Y-15450D01*
G54D15*
X48440Y-23750D02*
X44640Y-23750D01*
X44640Y-23750D02*
X44640Y-22250D01*
X44640Y-22250D02*
X48440Y-22250D01*
X48440Y-22250D02*
X48440Y-23750D01*
X48440Y-23250D02*
X48140Y-23250D01*
X48140Y-23250D02*
X48140Y-22850D01*
X48140Y-22850D02*
X48440Y-22850D01*
X33740Y-22000D02*
X37540Y-22000D01*
X37540Y-22000D02*
X37540Y-23500D01*
X37540Y-23500D02*
X33740Y-23500D01*
X33740Y-23500D02*
X33740Y-22000D01*
X33740Y-22500D02*
X34040Y-22500D01*
X34040Y-22500D02*
X34040Y-22900D01*
X34040Y-22900D02*
X33740Y-22900D01*
G54D23*
X36180Y-12660D02*
X38680Y-12660D01*
X36180Y-10660D02*
X38680Y-10660D01*
X39680Y-11660D02*
G75*
G03X38680Y-10660I-1000J0D01*
G74*
G01*
X38680Y-12660D02*
G75*
G03X39680Y-11660I0J1000D01*
G74*
G01*
X36180Y-10660D02*
G75*
G03X35180Y-11660I0J-1000D01*
G74*
G01*
X35180Y-11660D02*
G75*
G03X36180Y-12660I1000J0D01*
G74*
G01*
G54D15*
X38180Y-22150D02*
X44180Y-22150D01*
X44180Y-22150D02*
X44180Y-18850D01*
X44180Y-20750D02*
X43680Y-20750D01*
X43680Y-20750D02*
X43680Y-20250D01*
X43680Y-20250D02*
X44180Y-20250D01*
X38180Y-18850D02*
X38180Y-22150D01*
G54D13*
X44180Y-18850D02*
X38180Y-18850D01*
G54D14*
X42220Y-26000D02*
X42220Y-26050D01*
X42220Y-26050D02*
X44320Y-26050D01*
X44320Y-24550D02*
X42220Y-24550D01*
X42220Y-24550D02*
X42220Y-26000D01*
X42220Y-25100D02*
X42420Y-25100D01*
X42420Y-25100D02*
X42420Y-25500D01*
X42420Y-25500D02*
X42220Y-25500D01*
X44320Y-24550D02*
X44320Y-26050D01*
X47770Y-12700D02*
X47770Y-11800D01*
X47770Y-11800D02*
X47120Y-11800D01*
X46420Y-12700D02*
X45770Y-12700D01*
X45770Y-12700D02*
X45770Y-11800D01*
X45770Y-11800D02*
X46420Y-11800D01*
X47120Y-12700D02*
X47770Y-12700D01*
X39910Y-12770D02*
X40810Y-12770D01*
X40810Y-12770D02*
X40810Y-12120D01*
X39910Y-11420D02*
X39910Y-10770D01*
X39910Y-10770D02*
X40810Y-10770D01*
X40810Y-10770D02*
X40810Y-11420D01*
X39910Y-12120D02*
X39910Y-12770D01*
X35810Y-26440D02*
X36710Y-26440D01*
X36710Y-26440D02*
X36710Y-25790D01*
X35810Y-25090D02*
X35810Y-24440D01*
X35810Y-24440D02*
X36710Y-24440D01*
X36710Y-24440D02*
X36710Y-25090D01*
X35810Y-25790D02*
X35810Y-26440D01*
X31570Y-25770D02*
X32470Y-25770D01*
X32470Y-25770D02*
X32470Y-25120D01*
X31570Y-24420D02*
X31570Y-23770D01*
X31570Y-23770D02*
X32470Y-23770D01*
X32470Y-23770D02*
X32470Y-24420D01*
X31570Y-25120D02*
X31570Y-25770D01*
X34770Y-26440D02*
X35670Y-26440D01*
X35670Y-26440D02*
X35670Y-25790D01*
X34770Y-25090D02*
X34770Y-24440D01*
X34770Y-24440D02*
X35670Y-24440D01*
X35670Y-24440D02*
X35670Y-25090D01*
X34770Y-25790D02*
X34770Y-26440D01*
X33730Y-26440D02*
X34630Y-26440D01*
X34630Y-26440D02*
X34630Y-25790D01*
X33730Y-25090D02*
X33730Y-24440D01*
X33730Y-24440D02*
X34630Y-24440D01*
X34630Y-24440D02*
X34630Y-25090D01*
X33730Y-25790D02*
X33730Y-26440D01*
X35770Y-19980D02*
X35770Y-20880D01*
X35770Y-20880D02*
X36420Y-20880D01*
X37120Y-19980D02*
X37770Y-19980D01*
X37770Y-19980D02*
X37770Y-20880D01*
X37770Y-20880D02*
X37120Y-20880D01*
X36420Y-19980D02*
X35770Y-19980D01*
X35650Y-20880D02*
X35650Y-19980D01*
X35650Y-19980D02*
X35000Y-19980D01*
X34300Y-20880D02*
X33650Y-20880D01*
X33650Y-20880D02*
X33650Y-19980D01*
X33650Y-19980D02*
X34300Y-19980D01*
X35000Y-20880D02*
X35650Y-20880D01*
G54D24*
X36635Y-18382D02*
G75*
G03X36635Y-18382I-62J0D01*
G74*
G01*
X35610Y-18720D02*
X35610Y-18320D01*
X36635Y-18720D02*
X36635Y-18320D01*
X35610Y-18320D02*
X36635Y-18320D01*
X36635Y-18720D02*
X35610Y-18720D01*
G54D22*
X42610Y-12980D02*
X42610Y-11980D01*
X42610Y-11980D02*
X44610Y-11980D01*
X44610Y-11980D02*
X44610Y-12980D01*
X44610Y-12980D02*
X42610Y-12980D01*
G54D15*
X20540Y-18100D02*
X24340Y-18100D01*
X24340Y-18100D02*
X24340Y-19600D01*
X24340Y-19600D02*
X20540Y-19600D01*
X20540Y-19600D02*
X20540Y-18100D01*
X20540Y-18600D02*
X20840Y-18600D01*
X20840Y-18600D02*
X20840Y-19000D01*
X20840Y-19000D02*
X20540Y-19000D01*
G54D14*
X20165Y-16095D02*
X20165Y-16995D01*
X20165Y-16995D02*
X20815Y-16995D01*
X21515Y-16095D02*
X22165Y-16095D01*
X22165Y-16095D02*
X22165Y-16995D01*
X22165Y-16995D02*
X21515Y-16995D01*
X20815Y-16095D02*
X20165Y-16095D01*
X15420Y-22350D02*
X15420Y-23250D01*
X15420Y-23250D02*
X16070Y-23250D01*
X16770Y-22350D02*
X17420Y-22350D01*
X17420Y-22350D02*
X17420Y-23250D01*
X17420Y-23250D02*
X16770Y-23250D01*
X16070Y-22350D02*
X15420Y-22350D01*
X15410Y-23410D02*
X15410Y-24310D01*
X15410Y-24310D02*
X16060Y-24310D01*
X16760Y-23410D02*
X17410Y-23410D01*
X17410Y-23410D02*
X17410Y-24310D01*
X17410Y-24310D02*
X16760Y-24310D01*
X16060Y-23410D02*
X15410Y-23410D01*
G54D22*
X22120Y-14725D02*
X22120Y-15725D01*
X22120Y-15725D02*
X20120Y-15725D01*
X20120Y-15725D02*
X20120Y-14725D01*
X20120Y-14725D02*
X22120Y-14725D01*
G54D19*
X18641Y-22899D02*
X18719Y-22899D01*
X18719Y-22899D02*
X18719Y-22821D01*
X18641Y-22821D02*
X18719Y-22821D01*
X18641Y-22899D02*
X18641Y-22821D01*
X18857Y-23135D02*
X18994Y-23135D01*
X18994Y-23135D02*
X18994Y-23037D01*
X18857Y-23037D02*
X18994Y-23037D01*
X18857Y-23135D02*
X18857Y-23037D01*
X18994Y-23135D02*
X19034Y-23135D01*
X19034Y-23135D02*
X19034Y-22664D01*
X18994Y-22664D02*
X19034Y-22664D01*
X18994Y-23135D02*
X18994Y-22664D01*
X18994Y-22644D02*
X19034Y-22644D01*
X19034Y-22644D02*
X19034Y-22585D01*
X18994Y-22585D02*
X19034Y-22585D01*
X18994Y-22644D02*
X18994Y-22585D01*
X18326Y-23135D02*
X18366Y-23135D01*
X18366Y-23135D02*
X18366Y-22664D01*
X18326Y-22664D02*
X18366Y-22664D01*
X18326Y-23135D02*
X18326Y-22664D01*
X18326Y-22644D02*
X18366Y-22644D01*
X18366Y-22644D02*
X18366Y-22585D01*
X18326Y-22585D02*
X18366Y-22585D01*
X18326Y-22644D02*
X18326Y-22585D01*
X18857Y-23135D02*
X18916Y-23135D01*
X18916Y-23135D02*
X18916Y-23037D01*
X18857Y-23037D02*
X18916Y-23037D01*
X18857Y-23135D02*
X18857Y-23037D01*
G54D20*
X19290Y-23155D02*
X18070Y-23155D01*
X18070Y-23155D02*
X18070Y-22565D01*
X18070Y-22565D02*
X19290Y-22565D01*
X19290Y-22565D02*
X19290Y-23155D01*
X18464Y-23056D02*
G75*
G03X18896Y-23055I215J196D01*
G74*
G01*
X18464Y-22663D02*
G75*
G03X18463Y-23055I215J-196D01*
G74*
G01*
X18895Y-22663D02*
G75*
G03X18463Y-22664I-215J-196D01*
G74*
G01*
X18895Y-23056D02*
G75*
G03X18896Y-22664I-215J196D01*
G74*
G01*
G54D19*
X18636Y-23844D02*
X18714Y-23844D01*
X18714Y-23844D02*
X18714Y-23766D01*
X18636Y-23766D02*
X18714Y-23766D01*
X18636Y-23844D02*
X18636Y-23766D01*
X18852Y-24080D02*
X18989Y-24080D01*
X18989Y-24080D02*
X18989Y-23982D01*
X18852Y-23982D02*
X18989Y-23982D01*
X18852Y-24080D02*
X18852Y-23982D01*
X18989Y-24080D02*
X19029Y-24080D01*
X19029Y-24080D02*
X19029Y-23609D01*
X18989Y-23609D02*
X19029Y-23609D01*
X18989Y-24080D02*
X18989Y-23609D01*
X18989Y-23589D02*
X19029Y-23589D01*
X19029Y-23589D02*
X19029Y-23530D01*
X18989Y-23530D02*
X19029Y-23530D01*
X18989Y-23589D02*
X18989Y-23530D01*
X18321Y-24080D02*
X18361Y-24080D01*
X18361Y-24080D02*
X18361Y-23609D01*
X18321Y-23609D02*
X18361Y-23609D01*
X18321Y-24080D02*
X18321Y-23609D01*
X18321Y-23589D02*
X18361Y-23589D01*
X18361Y-23589D02*
X18361Y-23530D01*
X18321Y-23530D02*
X18361Y-23530D01*
X18321Y-23589D02*
X18321Y-23530D01*
X18852Y-24080D02*
X18911Y-24080D01*
X18911Y-24080D02*
X18911Y-23982D01*
X18852Y-23982D02*
X18911Y-23982D01*
X18852Y-24080D02*
X18852Y-23982D01*
G54D20*
X19285Y-24100D02*
X18065Y-24100D01*
X18065Y-24100D02*
X18065Y-23510D01*
X18065Y-23510D02*
X19285Y-23510D01*
X19285Y-23510D02*
X19285Y-24100D01*
X18459Y-24001D02*
G75*
G03X18891Y-24000I215J196D01*
G74*
G01*
X18459Y-23608D02*
G75*
G03X18458Y-24000I215J-196D01*
G74*
G01*
X18890Y-23608D02*
G75*
G03X18458Y-23609I-215J-196D01*
G74*
G01*
X18890Y-24001D02*
G75*
G03X18891Y-23609I-215J196D01*
G74*
G01*
G54D14*
X19380Y-19460D02*
X20280Y-19460D01*
X20280Y-19460D02*
X20280Y-18810D01*
X19380Y-18110D02*
X19380Y-17460D01*
X19380Y-17460D02*
X20280Y-17460D01*
X20280Y-17460D02*
X20280Y-18110D01*
X19380Y-18810D02*
X19380Y-19460D01*
X48778Y-11866D02*
X47878Y-11866D01*
X47878Y-11866D02*
X47878Y-12516D01*
X48778Y-13216D02*
X48778Y-13866D01*
X48778Y-13866D02*
X47878Y-13866D01*
X47878Y-13866D02*
X47878Y-13216D01*
X48778Y-12516D02*
X48778Y-11866D01*
X48038Y-19846D02*
X48938Y-19846D01*
X48938Y-19846D02*
X48938Y-19196D01*
X48038Y-18496D02*
X48038Y-17846D01*
X48038Y-17846D02*
X48938Y-17846D01*
X48938Y-17846D02*
X48938Y-18496D01*
X48038Y-19196D02*
X48038Y-19846D01*
X46765Y-24380D02*
X46765Y-25280D01*
X46765Y-25280D02*
X47415Y-25280D01*
X48115Y-24380D02*
X48765Y-24380D01*
X48765Y-24380D02*
X48765Y-25280D01*
X48765Y-25280D02*
X48115Y-25280D01*
X47415Y-24380D02*
X46765Y-24380D01*
X30025Y-19005D02*
X30025Y-18105D01*
X30025Y-18105D02*
X29375Y-18105D01*
X28675Y-19005D02*
X28025Y-19005D01*
X28025Y-19005D02*
X28025Y-18105D01*
X28025Y-18105D02*
X28675Y-18105D01*
X29375Y-19005D02*
X30025Y-19005D01*
X30010Y-21415D02*
X30010Y-22315D01*
X30010Y-22315D02*
X30660Y-22315D01*
X31360Y-21415D02*
X32010Y-21415D01*
X32010Y-21415D02*
X32010Y-22315D01*
X32010Y-22315D02*
X31360Y-22315D01*
X30660Y-21415D02*
X30010Y-21415D01*
X40185Y-27645D02*
X40185Y-26745D01*
X40185Y-26745D02*
X39535Y-26745D01*
X38835Y-27645D02*
X38185Y-27645D01*
X38185Y-27645D02*
X38185Y-26745D01*
X38185Y-26745D02*
X38835Y-26745D01*
X39535Y-27645D02*
X40185Y-27645D01*
X32695Y-23905D02*
X33595Y-23905D01*
X33595Y-23905D02*
X33595Y-23255D01*
X32695Y-22555D02*
X32695Y-21905D01*
X32695Y-21905D02*
X33595Y-21905D01*
X33595Y-21905D02*
X33595Y-22555D01*
X32695Y-23255D02*
X32695Y-23905D01*
X44260Y-27210D02*
X45160Y-27210D01*
X45160Y-27210D02*
X45160Y-26560D01*
X44260Y-25860D02*
X44260Y-25210D01*
X44260Y-25210D02*
X45160Y-25210D01*
X45160Y-25210D02*
X45160Y-25860D01*
X44260Y-26560D02*
X44260Y-27210D01*
G54D11*
X22407Y-26372D02*
X22092Y-26372D01*
X22092Y-26252D01*
X22107Y-26222D01*
X22122Y-26207D01*
X22152Y-26192D01*
X22197Y-26192D01*
X22227Y-26207D01*
X22242Y-26222D01*
X22257Y-26252D01*
X22257Y-26372D01*
X22197Y-25922D02*
X22407Y-25922D01*
X22077Y-25997D02*
X22302Y-26072D01*
X22302Y-25877D01*
G54D25*
X29147Y-24827D02*
X29147Y-24512D01*
X29267Y-24512D01*
X29297Y-24527D01*
X29312Y-24542D01*
X29327Y-24572D01*
X29327Y-24617D01*
X29312Y-24647D01*
X29297Y-24662D01*
X29267Y-24677D01*
X29147Y-24677D01*
X29447Y-24542D02*
X29462Y-24527D01*
X29492Y-24512D01*
X29567Y-24512D01*
X29597Y-24527D01*
X29612Y-24542D01*
X29627Y-24572D01*
X29627Y-24602D01*
X29612Y-24647D01*
X29432Y-24827D01*
X29627Y-24827D01*
G54D11*
X15907Y-13447D02*
X15907Y-13132D01*
X16027Y-13132D01*
X16057Y-13147D01*
X16072Y-13162D01*
X16087Y-13192D01*
X16087Y-13237D01*
X16072Y-13267D01*
X16057Y-13282D01*
X16027Y-13297D01*
X15907Y-13297D01*
X16387Y-13447D02*
X16207Y-13447D01*
X16297Y-13447D02*
X16297Y-13132D01*
X16267Y-13177D01*
X16237Y-13207D01*
X16207Y-13222D01*
G54D22*
X29110Y-20207D02*
X29110Y-19757D01*
X29582Y-20164D02*
X29560Y-20185D01*
X29496Y-20207D01*
X29453Y-20207D01*
X29389Y-20185D01*
X29346Y-20142D01*
X29325Y-20100D01*
X29303Y-20014D01*
X29303Y-19950D01*
X29325Y-19864D01*
X29346Y-19821D01*
X29389Y-19778D01*
X29453Y-19757D01*
X29496Y-19757D01*
X29560Y-19778D01*
X29582Y-19800D01*
X29967Y-19757D02*
X29882Y-19757D01*
X29839Y-19778D01*
X29817Y-19800D01*
X29775Y-19864D01*
X29753Y-19950D01*
X29753Y-20121D01*
X29775Y-20164D01*
X29796Y-20185D01*
X29839Y-20207D01*
X29925Y-20207D01*
X29967Y-20185D01*
X29989Y-20164D01*
X30010Y-20121D01*
X30010Y-20014D01*
X29989Y-19971D01*
X29967Y-19950D01*
X29925Y-19928D01*
X29839Y-19928D01*
X29796Y-19950D01*
X29775Y-19971D01*
X29753Y-20014D01*
X30275Y-19741D02*
X30275Y-19391D01*
X30475Y-19741D01*
X30475Y-19391D01*
X30641Y-19558D02*
X30758Y-19558D01*
X30808Y-19741D02*
X30641Y-19741D01*
X30641Y-19391D01*
X30808Y-19391D01*
X31124Y-19391D02*
X30958Y-19391D01*
X30941Y-19558D01*
X30958Y-19541D01*
X30991Y-19525D01*
X31074Y-19525D01*
X31108Y-19541D01*
X31124Y-19558D01*
X31141Y-19591D01*
X31141Y-19675D01*
X31124Y-19708D01*
X31108Y-19725D01*
X31074Y-19741D01*
X30991Y-19741D01*
X30958Y-19725D01*
X30941Y-19708D01*
X31458Y-19391D02*
X31291Y-19391D01*
X31274Y-19558D01*
X31291Y-19541D01*
X31324Y-19525D01*
X31408Y-19525D01*
X31441Y-19541D01*
X31458Y-19558D01*
X31474Y-19591D01*
X31474Y-19675D01*
X31458Y-19708D01*
X31441Y-19725D01*
X31408Y-19741D01*
X31324Y-19741D01*
X31291Y-19725D01*
X31274Y-19708D01*
X31591Y-19391D02*
X31808Y-19391D01*
X31691Y-19525D01*
X31741Y-19525D01*
X31775Y-19541D01*
X31791Y-19558D01*
X31808Y-19591D01*
X31808Y-19675D01*
X31791Y-19708D01*
X31775Y-19725D01*
X31741Y-19741D01*
X31641Y-19741D01*
X31608Y-19725D01*
X31591Y-19708D01*
X31941Y-19425D02*
X31958Y-19408D01*
X31991Y-19391D01*
X32075Y-19391D01*
X32108Y-19408D01*
X32125Y-19425D01*
X32141Y-19458D01*
X32141Y-19491D01*
X32125Y-19541D01*
X31925Y-19741D01*
X32141Y-19741D01*
G54D14*
X36980Y-26601D02*
X36980Y-26201D01*
X37452Y-26563D02*
X37430Y-26582D01*
X37366Y-26601D01*
X37323Y-26601D01*
X37259Y-26582D01*
X37216Y-26544D01*
X37195Y-26506D01*
X37173Y-26430D01*
X37173Y-26373D01*
X37195Y-26297D01*
X37216Y-26259D01*
X37259Y-26220D01*
X37323Y-26201D01*
X37366Y-26201D01*
X37430Y-26220D01*
X37452Y-26240D01*
X37859Y-26201D02*
X37645Y-26201D01*
X37623Y-26392D01*
X37645Y-26373D01*
X37687Y-26354D01*
X37795Y-26354D01*
X37837Y-26373D01*
X37859Y-26392D01*
X37880Y-26430D01*
X37880Y-26525D01*
X37859Y-26563D01*
X37837Y-26582D01*
X37795Y-26601D01*
X37687Y-26601D01*
X37645Y-26582D01*
X37623Y-26563D01*
X38354Y-25811D02*
X38354Y-25411D01*
X38488Y-25697D01*
X38621Y-25411D01*
X38621Y-25811D01*
X39040Y-25773D02*
X39021Y-25792D01*
X38964Y-25811D01*
X38926Y-25811D01*
X38869Y-25792D01*
X38830Y-25754D01*
X38811Y-25716D01*
X38792Y-25640D01*
X38792Y-25583D01*
X38811Y-25507D01*
X38830Y-25469D01*
X38869Y-25430D01*
X38926Y-25411D01*
X38964Y-25411D01*
X39021Y-25430D01*
X39040Y-25450D01*
X39211Y-25811D02*
X39211Y-25411D01*
X39364Y-25411D01*
X39402Y-25430D01*
X39421Y-25450D01*
X39440Y-25488D01*
X39440Y-25545D01*
X39421Y-25583D01*
X39402Y-25602D01*
X39364Y-25621D01*
X39211Y-25621D01*
X39783Y-25411D02*
X39707Y-25411D01*
X39669Y-25430D01*
X39650Y-25450D01*
X39611Y-25507D01*
X39592Y-25583D01*
X39592Y-25735D01*
X39611Y-25773D01*
X39630Y-25792D01*
X39669Y-25811D01*
X39745Y-25811D01*
X39783Y-25792D01*
X39802Y-25773D01*
X39821Y-25735D01*
X39821Y-25640D01*
X39802Y-25602D01*
X39783Y-25583D01*
X39745Y-25564D01*
X39669Y-25564D01*
X39630Y-25583D01*
X39611Y-25602D01*
X39592Y-25640D01*
X40069Y-25411D02*
X40107Y-25411D01*
X40145Y-25430D01*
X40164Y-25450D01*
X40183Y-25488D01*
X40202Y-25564D01*
X40202Y-25659D01*
X40183Y-25735D01*
X40164Y-25773D01*
X40145Y-25792D01*
X40107Y-25811D01*
X40069Y-25811D01*
X40030Y-25792D01*
X40011Y-25773D01*
X39992Y-25735D01*
X39973Y-25659D01*
X39973Y-25564D01*
X39992Y-25488D01*
X40011Y-25450D01*
X40030Y-25430D01*
X40069Y-25411D01*
X40354Y-25450D02*
X40373Y-25430D01*
X40411Y-25411D01*
X40507Y-25411D01*
X40545Y-25430D01*
X40564Y-25450D01*
X40583Y-25488D01*
X40583Y-25526D01*
X40564Y-25583D01*
X40335Y-25811D01*
X40583Y-25811D01*
X40926Y-25545D02*
X40926Y-25811D01*
X40830Y-25392D02*
X40735Y-25678D01*
X40983Y-25678D01*
X34327Y-13082D02*
X34312Y-13097D01*
X34270Y-13111D01*
X34241Y-13111D01*
X34198Y-13097D01*
X34170Y-13068D01*
X34155Y-13040D01*
X34141Y-12982D01*
X34141Y-12940D01*
X34155Y-12882D01*
X34170Y-12854D01*
X34198Y-12825D01*
X34241Y-12811D01*
X34270Y-12811D01*
X34312Y-12825D01*
X34327Y-12840D01*
X34612Y-13111D02*
X34441Y-13111D01*
X34527Y-13111D02*
X34527Y-12811D01*
X34498Y-12854D01*
X34470Y-12882D01*
X34441Y-12897D01*
X34898Y-13111D02*
X34727Y-13111D01*
X34812Y-13111D02*
X34812Y-12811D01*
X34784Y-12854D01*
X34755Y-12882D01*
X34727Y-12897D01*
X32107Y-17342D02*
X32092Y-17357D01*
X32050Y-17371D01*
X32021Y-17371D01*
X31978Y-17357D01*
X31950Y-17328D01*
X31935Y-17300D01*
X31921Y-17242D01*
X31921Y-17200D01*
X31935Y-17142D01*
X31950Y-17114D01*
X31978Y-17085D01*
X32021Y-17071D01*
X32050Y-17071D01*
X32092Y-17085D01*
X32107Y-17100D01*
X32392Y-17371D02*
X32221Y-17371D01*
X32307Y-17371D02*
X32307Y-17071D01*
X32278Y-17114D01*
X32250Y-17142D01*
X32221Y-17157D01*
X32492Y-17071D02*
X32678Y-17071D01*
X32578Y-17185D01*
X32621Y-17185D01*
X32650Y-17200D01*
X32664Y-17214D01*
X32678Y-17242D01*
X32678Y-17314D01*
X32664Y-17342D01*
X32650Y-17357D01*
X32621Y-17371D01*
X32535Y-17371D01*
X32507Y-17357D01*
X32492Y-17342D01*
G54D17*
X22034Y-13951D02*
X22034Y-13551D01*
X22187Y-13551D01*
X22225Y-13570D01*
X22244Y-13590D01*
X22263Y-13628D01*
X22263Y-13685D01*
X22244Y-13723D01*
X22225Y-13742D01*
X22187Y-13761D01*
X22034Y-13761D01*
X22625Y-13551D02*
X22434Y-13551D01*
X22415Y-13742D01*
X22434Y-13723D01*
X22472Y-13704D01*
X22568Y-13704D01*
X22606Y-13723D01*
X22625Y-13742D01*
X22644Y-13780D01*
X22644Y-13875D01*
X22625Y-13913D01*
X22606Y-13932D01*
X22568Y-13951D01*
X22472Y-13951D01*
X22434Y-13932D01*
X22415Y-13913D01*
G54D15*
X46276Y-16153D02*
X46295Y-16096D01*
X46295Y-16000D01*
X46276Y-15962D01*
X46257Y-15943D01*
X46219Y-15924D01*
X46181Y-15924D01*
X46143Y-15943D01*
X46124Y-15962D01*
X46105Y-16000D01*
X46086Y-16077D01*
X46067Y-16115D01*
X46048Y-16134D01*
X46010Y-16153D01*
X45972Y-16153D01*
X45934Y-16134D01*
X45914Y-16115D01*
X45895Y-16077D01*
X45895Y-15981D01*
X45914Y-15924D01*
X45895Y-15791D02*
X46295Y-15696D01*
X46010Y-15620D01*
X46295Y-15543D01*
X45895Y-15448D01*
X46295Y-15086D02*
X46295Y-15315D01*
X46295Y-15200D02*
X45895Y-15200D01*
X45953Y-15239D01*
X45991Y-15277D01*
X46010Y-15315D01*
G54D14*
X33775Y-18471D02*
X33675Y-18328D01*
X33603Y-18471D02*
X33603Y-18171D01*
X33717Y-18171D01*
X33746Y-18185D01*
X33760Y-18200D01*
X33775Y-18228D01*
X33775Y-18271D01*
X33760Y-18300D01*
X33746Y-18314D01*
X33717Y-18328D01*
X33603Y-18328D01*
X33917Y-18471D02*
X33975Y-18471D01*
X34003Y-18457D01*
X34017Y-18442D01*
X34046Y-18400D01*
X34060Y-18342D01*
X34060Y-18228D01*
X34046Y-18200D01*
X34032Y-18185D01*
X34003Y-18171D01*
X33946Y-18171D01*
X33917Y-18185D01*
X33903Y-18200D01*
X33889Y-18228D01*
X33889Y-18300D01*
X33903Y-18328D01*
X33917Y-18342D01*
X33946Y-18357D01*
X34003Y-18357D01*
X34032Y-18342D01*
X34046Y-18328D01*
X34060Y-18300D01*
X33721Y-21475D02*
X33578Y-21575D01*
X33721Y-21646D02*
X33421Y-21646D01*
X33421Y-21532D01*
X33435Y-21503D01*
X33450Y-21489D01*
X33478Y-21475D01*
X33521Y-21475D01*
X33550Y-21489D01*
X33564Y-21503D01*
X33578Y-21532D01*
X33578Y-21646D01*
X33550Y-21303D02*
X33535Y-21332D01*
X33521Y-21346D01*
X33492Y-21360D01*
X33478Y-21360D01*
X33450Y-21346D01*
X33435Y-21332D01*
X33421Y-21303D01*
X33421Y-21246D01*
X33435Y-21217D01*
X33450Y-21203D01*
X33478Y-21189D01*
X33492Y-21189D01*
X33521Y-21203D01*
X33535Y-21217D01*
X33550Y-21246D01*
X33550Y-21303D01*
X33564Y-21332D01*
X33578Y-21346D01*
X33607Y-21360D01*
X33664Y-21360D01*
X33692Y-21346D01*
X33707Y-21332D01*
X33721Y-21303D01*
X33721Y-21246D01*
X33707Y-21217D01*
X33692Y-21203D01*
X33664Y-21189D01*
X33607Y-21189D01*
X33578Y-21203D01*
X33564Y-21217D01*
X33550Y-21246D01*
G54D15*
X30034Y-11021D02*
X30034Y-10621D01*
X30187Y-10621D01*
X30225Y-10640D01*
X30244Y-10660D01*
X30263Y-10698D01*
X30263Y-10755D01*
X30244Y-10793D01*
X30225Y-10812D01*
X30187Y-10831D01*
X30034Y-10831D01*
X30606Y-10621D02*
X30530Y-10621D01*
X30491Y-10640D01*
X30472Y-10660D01*
X30434Y-10717D01*
X30415Y-10793D01*
X30415Y-10945D01*
X30434Y-10983D01*
X30453Y-11002D01*
X30491Y-11021D01*
X30568Y-11021D01*
X30606Y-11002D01*
X30625Y-10983D01*
X30644Y-10945D01*
X30644Y-10850D01*
X30625Y-10812D01*
X30606Y-10793D01*
X30568Y-10774D01*
X30491Y-10774D01*
X30453Y-10793D01*
X30434Y-10812D01*
X30415Y-10850D01*
G54D11*
X42111Y-10781D02*
X42111Y-10466D01*
X42231Y-10466D01*
X42261Y-10481D01*
X42276Y-10496D01*
X42291Y-10526D01*
X42291Y-10571D01*
X42276Y-10601D01*
X42261Y-10616D01*
X42231Y-10631D01*
X42111Y-10631D01*
X42396Y-10466D02*
X42591Y-10466D01*
X42486Y-10586D01*
X42531Y-10586D01*
X42561Y-10601D01*
X42576Y-10616D01*
X42591Y-10646D01*
X42591Y-10721D01*
X42576Y-10751D01*
X42561Y-10766D01*
X42531Y-10781D01*
X42441Y-10781D01*
X42411Y-10766D01*
X42396Y-10751D01*
G54D26*
X30430Y-14832D02*
X30430Y-14232D01*
X30902Y-14775D02*
X30880Y-14804D01*
X30816Y-14832D01*
X30773Y-14832D01*
X30709Y-14804D01*
X30666Y-14747D01*
X30645Y-14690D01*
X30623Y-14575D01*
X30623Y-14490D01*
X30645Y-14375D01*
X30666Y-14318D01*
X30709Y-14261D01*
X30773Y-14232D01*
X30816Y-14232D01*
X30880Y-14261D01*
X30902Y-14290D01*
X31052Y-14232D02*
X31352Y-14232D01*
X31159Y-14832D01*
G54D27*
G54D26*
X32472Y-15071D02*
X32686Y-15071D01*
X32429Y-15242D02*
X32579Y-14642D01*
X32729Y-15242D01*
X32815Y-14642D02*
X33072Y-14642D01*
X32943Y-15242D02*
X32943Y-14642D01*
X33222Y-15242D02*
X33222Y-14642D01*
X33372Y-15071D01*
X33522Y-14642D01*
X33522Y-15242D01*
X33736Y-14928D02*
X33886Y-14928D01*
X33950Y-15242D02*
X33736Y-15242D01*
X33736Y-14642D01*
X33950Y-14642D01*
X34379Y-14671D02*
X34336Y-14642D01*
X34272Y-14642D01*
X34207Y-14671D01*
X34165Y-14728D01*
X34143Y-14785D01*
X34122Y-14900D01*
X34122Y-14985D01*
X34143Y-15100D01*
X34165Y-15157D01*
X34207Y-15214D01*
X34272Y-15242D01*
X34315Y-15242D01*
X34379Y-15214D01*
X34400Y-15185D01*
X34400Y-14985D01*
X34315Y-14985D01*
X34550Y-14642D02*
X34829Y-14642D01*
X34679Y-14871D01*
X34743Y-14871D01*
X34786Y-14900D01*
X34807Y-14928D01*
X34829Y-14985D01*
X34829Y-15128D01*
X34807Y-15185D01*
X34786Y-15214D01*
X34743Y-15242D01*
X34615Y-15242D01*
X34572Y-15214D01*
X34550Y-15185D01*
X35000Y-14700D02*
X35022Y-14671D01*
X35065Y-14642D01*
X35172Y-14642D01*
X35215Y-14671D01*
X35236Y-14700D01*
X35257Y-14757D01*
X35257Y-14814D01*
X35236Y-14900D01*
X34979Y-15242D01*
X35257Y-15242D01*
X35515Y-14900D02*
X35472Y-14871D01*
X35450Y-14842D01*
X35429Y-14785D01*
X35429Y-14757D01*
X35450Y-14700D01*
X35472Y-14671D01*
X35515Y-14642D01*
X35600Y-14642D01*
X35643Y-14671D01*
X35665Y-14700D01*
X35686Y-14757D01*
X35686Y-14785D01*
X35665Y-14842D01*
X35643Y-14871D01*
X35600Y-14900D01*
X35515Y-14900D01*
X35472Y-14928D01*
X35450Y-14957D01*
X35429Y-15014D01*
X35429Y-15128D01*
X35450Y-15185D01*
X35472Y-15214D01*
X35515Y-15242D01*
X35600Y-15242D01*
X35643Y-15214D01*
X35665Y-15185D01*
X35686Y-15128D01*
X35686Y-15014D01*
X35665Y-14957D01*
X35643Y-14928D01*
X35600Y-14900D01*
X35879Y-15242D02*
X35879Y-14642D01*
X36050Y-14642D01*
X36093Y-14671D01*
X36114Y-14700D01*
X36136Y-14757D01*
X36136Y-14842D01*
X36114Y-14900D01*
X36093Y-14928D01*
X36050Y-14957D01*
X35879Y-14957D01*
X36329Y-14642D02*
X36329Y-15128D01*
X36350Y-15185D01*
X36372Y-15214D01*
X36414Y-15242D01*
X36500Y-15242D01*
X36543Y-15214D01*
X36564Y-15185D01*
X36586Y-15128D01*
X36586Y-14642D01*
G54D27*
G54D22*
X45765Y-18509D02*
X45765Y-18115D01*
X46178Y-18471D02*
X46159Y-18490D01*
X46103Y-18509D01*
X46065Y-18509D01*
X46009Y-18490D01*
X45971Y-18453D01*
X45953Y-18415D01*
X45934Y-18340D01*
X45934Y-18284D01*
X45953Y-18209D01*
X45971Y-18171D01*
X46009Y-18134D01*
X46065Y-18115D01*
X46103Y-18115D01*
X46159Y-18134D01*
X46178Y-18153D01*
X46403Y-18284D02*
X46365Y-18265D01*
X46347Y-18246D01*
X46328Y-18209D01*
X46328Y-18190D01*
X46347Y-18153D01*
X46365Y-18134D01*
X46403Y-18115D01*
X46478Y-18115D01*
X46515Y-18134D01*
X46534Y-18153D01*
X46553Y-18190D01*
X46553Y-18209D01*
X46534Y-18246D01*
X46515Y-18265D01*
X46478Y-18284D01*
X46403Y-18284D01*
X46365Y-18303D01*
X46347Y-18321D01*
X46328Y-18359D01*
X46328Y-18434D01*
X46347Y-18471D01*
X46365Y-18490D01*
X46403Y-18509D01*
X46478Y-18509D01*
X46515Y-18490D01*
X46534Y-18471D01*
X46553Y-18434D01*
X46553Y-18359D01*
X46534Y-18321D01*
X46515Y-18303D01*
X46478Y-18284D01*
G54D14*
X42192Y-11952D02*
X42207Y-11967D01*
X42221Y-12010D01*
X42221Y-12038D01*
X42207Y-12081D01*
X42178Y-12110D01*
X42150Y-12124D01*
X42092Y-12138D01*
X42050Y-12138D01*
X41992Y-12124D01*
X41964Y-12110D01*
X41935Y-12081D01*
X41921Y-12038D01*
X41921Y-12010D01*
X41935Y-11967D01*
X41950Y-11952D01*
X42221Y-11667D02*
X42221Y-11838D01*
X42221Y-11752D02*
X41921Y-11752D01*
X41964Y-11781D01*
X41992Y-11810D01*
X42007Y-11838D01*
X41921Y-11481D02*
X41921Y-11452D01*
X41935Y-11424D01*
X41950Y-11410D01*
X41978Y-11395D01*
X42035Y-11381D01*
X42107Y-11381D01*
X42164Y-11395D01*
X42192Y-11410D01*
X42207Y-11424D01*
X42221Y-11452D01*
X42221Y-11481D01*
X42207Y-11510D01*
X42192Y-11524D01*
X42164Y-11538D01*
X42107Y-11552D01*
X42035Y-11552D01*
X41978Y-11538D01*
X41950Y-11524D01*
X41935Y-11510D01*
X41921Y-11481D01*
X10022Y-22831D02*
X9922Y-22688D01*
X9850Y-22831D02*
X9850Y-22531D01*
X9965Y-22531D01*
X9993Y-22545D01*
X10007Y-22560D01*
X10022Y-22588D01*
X10022Y-22631D01*
X10007Y-22660D01*
X9993Y-22674D01*
X9965Y-22688D01*
X9850Y-22688D01*
X10307Y-22831D02*
X10136Y-22831D01*
X10222Y-22831D02*
X10222Y-22531D01*
X10193Y-22574D01*
X10165Y-22602D01*
X10136Y-22617D01*
X10493Y-22531D02*
X10522Y-22531D01*
X10550Y-22545D01*
X10565Y-22560D01*
X10579Y-22588D01*
X10593Y-22645D01*
X10593Y-22717D01*
X10579Y-22774D01*
X10565Y-22802D01*
X10550Y-22817D01*
X10522Y-22831D01*
X10493Y-22831D01*
X10465Y-22817D01*
X10450Y-22802D01*
X10436Y-22774D01*
X10422Y-22717D01*
X10422Y-22645D01*
X10436Y-22588D01*
X10450Y-22560D01*
X10465Y-22545D01*
X10493Y-22531D01*
G54D25*
X10168Y-23771D02*
X10168Y-23471D01*
X10240Y-23471D01*
X10282Y-23485D01*
X10311Y-23514D01*
X10325Y-23542D01*
X10340Y-23600D01*
X10340Y-23642D01*
X10325Y-23700D01*
X10311Y-23728D01*
X10282Y-23757D01*
X10240Y-23771D01*
X10168Y-23771D01*
X10625Y-23771D02*
X10454Y-23771D01*
X10540Y-23771D02*
X10540Y-23471D01*
X10511Y-23514D01*
X10482Y-23542D01*
X10454Y-23557D01*
X12642Y-23866D02*
X12642Y-23566D01*
X12756Y-23566D01*
X12785Y-23580D01*
X12799Y-23595D01*
X12813Y-23623D01*
X12813Y-23666D01*
X12799Y-23695D01*
X12785Y-23709D01*
X12756Y-23723D01*
X12642Y-23723D01*
X12999Y-23566D02*
X13056Y-23566D01*
X13085Y-23580D01*
X13113Y-23609D01*
X13127Y-23666D01*
X13127Y-23766D01*
X13113Y-23823D01*
X13085Y-23852D01*
X13056Y-23866D01*
X12999Y-23866D01*
X12970Y-23852D01*
X12942Y-23823D01*
X12927Y-23766D01*
X12927Y-23666D01*
X12942Y-23609D01*
X12970Y-23580D01*
X12999Y-23566D01*
X13227Y-23566D02*
X13299Y-23866D01*
X13356Y-23652D01*
X13413Y-23866D01*
X13485Y-23566D01*
X13599Y-23709D02*
X13699Y-23709D01*
X13742Y-23866D02*
X13599Y-23866D01*
X13599Y-23566D01*
X13742Y-23566D01*
X14042Y-23866D02*
X13942Y-23723D01*
X13870Y-23866D02*
X13870Y-23566D01*
X13985Y-23566D01*
X14013Y-23580D01*
X14027Y-23595D01*
X14042Y-23623D01*
X14042Y-23666D01*
X14027Y-23695D01*
X14013Y-23709D01*
X13985Y-23723D01*
X13870Y-23723D01*
G54D22*
X30354Y-16331D02*
X30354Y-15931D01*
X30507Y-15931D01*
X30545Y-15950D01*
X30564Y-15970D01*
X30583Y-16008D01*
X30583Y-16065D01*
X30564Y-16103D01*
X30545Y-16122D01*
X30507Y-16141D01*
X30354Y-16141D01*
X30716Y-15931D02*
X30983Y-15931D01*
X30811Y-16331D01*
G54D14*
X43917Y-23281D02*
X43917Y-23605D01*
X43938Y-23643D01*
X43960Y-23662D01*
X44002Y-23681D01*
X44088Y-23681D01*
X44131Y-23662D01*
X44152Y-23643D01*
X44174Y-23605D01*
X44174Y-23281D01*
X44367Y-23320D02*
X44388Y-23300D01*
X44431Y-23281D01*
X44538Y-23281D01*
X44581Y-23300D01*
X44602Y-23320D01*
X44624Y-23358D01*
X44624Y-23396D01*
X44602Y-23453D01*
X44345Y-23681D01*
X44624Y-23681D01*
X45292Y-22411D02*
X45559Y-22411D01*
X45387Y-22811D01*
X45882Y-22545D02*
X45882Y-22811D01*
X45787Y-22392D02*
X45692Y-22678D01*
X45940Y-22678D01*
X46282Y-22811D02*
X46092Y-22811D01*
X46092Y-22411D01*
X46397Y-22792D02*
X46454Y-22811D01*
X46549Y-22811D01*
X46587Y-22792D01*
X46606Y-22773D01*
X46625Y-22735D01*
X46625Y-22697D01*
X46606Y-22659D01*
X46587Y-22640D01*
X46549Y-22621D01*
X46473Y-22602D01*
X46435Y-22583D01*
X46416Y-22564D01*
X46397Y-22526D01*
X46397Y-22488D01*
X46416Y-22450D01*
X46435Y-22430D01*
X46473Y-22411D01*
X46568Y-22411D01*
X46625Y-22430D01*
X46759Y-22411D02*
X47006Y-22411D01*
X46873Y-22564D01*
X46930Y-22564D01*
X46968Y-22583D01*
X46987Y-22602D01*
X47006Y-22640D01*
X47006Y-22735D01*
X46987Y-22773D01*
X46968Y-22792D01*
X46930Y-22811D01*
X46816Y-22811D01*
X46778Y-22792D01*
X46759Y-22773D01*
X47197Y-22811D02*
X47273Y-22811D01*
X47311Y-22792D01*
X47330Y-22773D01*
X47368Y-22716D01*
X47387Y-22640D01*
X47387Y-22488D01*
X47368Y-22450D01*
X47349Y-22430D01*
X47311Y-22411D01*
X47235Y-22411D01*
X47197Y-22430D01*
X47178Y-22450D01*
X47159Y-22488D01*
X47159Y-22583D01*
X47178Y-22621D01*
X47197Y-22640D01*
X47235Y-22659D01*
X47311Y-22659D01*
X47349Y-22640D01*
X47368Y-22621D01*
X47387Y-22583D01*
X47520Y-22411D02*
X47768Y-22411D01*
X47635Y-22564D01*
X47692Y-22564D01*
X47730Y-22583D01*
X47749Y-22602D01*
X47768Y-22640D01*
X47768Y-22735D01*
X47749Y-22773D01*
X47730Y-22792D01*
X47692Y-22811D01*
X47578Y-22811D01*
X47540Y-22792D01*
X47520Y-22773D01*
X34017Y-21011D02*
X34017Y-21335D01*
X34038Y-21373D01*
X34060Y-21392D01*
X34102Y-21411D01*
X34188Y-21411D01*
X34231Y-21392D01*
X34252Y-21373D01*
X34274Y-21335D01*
X34274Y-21011D01*
X34724Y-21411D02*
X34467Y-21411D01*
X34595Y-21411D02*
X34595Y-21011D01*
X34552Y-21069D01*
X34510Y-21107D01*
X34467Y-21126D01*
X35144Y-22995D02*
X35144Y-23261D01*
X35049Y-22842D02*
X34954Y-23128D01*
X35201Y-23128D01*
X35430Y-22861D02*
X35468Y-22861D01*
X35506Y-22880D01*
X35525Y-22900D01*
X35544Y-22938D01*
X35563Y-23014D01*
X35563Y-23109D01*
X35544Y-23185D01*
X35525Y-23223D01*
X35506Y-23242D01*
X35468Y-23261D01*
X35430Y-23261D01*
X35392Y-23242D01*
X35373Y-23223D01*
X35354Y-23185D01*
X35335Y-23109D01*
X35335Y-23014D01*
X35354Y-22938D01*
X35373Y-22900D01*
X35392Y-22880D01*
X35430Y-22861D01*
X35906Y-22861D02*
X35830Y-22861D01*
X35792Y-22880D01*
X35773Y-22900D01*
X35735Y-22957D01*
X35716Y-23033D01*
X35716Y-23185D01*
X35735Y-23223D01*
X35754Y-23242D01*
X35792Y-23261D01*
X35868Y-23261D01*
X35906Y-23242D01*
X35925Y-23223D01*
X35944Y-23185D01*
X35944Y-23090D01*
X35925Y-23052D01*
X35906Y-23033D01*
X35868Y-23014D01*
X35792Y-23014D01*
X35754Y-23033D01*
X35735Y-23052D01*
X35716Y-23090D01*
X36287Y-22861D02*
X36211Y-22861D01*
X36173Y-22880D01*
X36154Y-22900D01*
X36116Y-22957D01*
X36097Y-23033D01*
X36097Y-23185D01*
X36116Y-23223D01*
X36135Y-23242D01*
X36173Y-23261D01*
X36249Y-23261D01*
X36287Y-23242D01*
X36306Y-23223D01*
X36325Y-23185D01*
X36325Y-23090D01*
X36306Y-23052D01*
X36287Y-23033D01*
X36249Y-23014D01*
X36173Y-23014D01*
X36135Y-23033D01*
X36116Y-23052D01*
X36097Y-23090D01*
G54D13*
X37014Y-11342D02*
X37414Y-11942D01*
X37414Y-11342D02*
X37014Y-11942D01*
X37957Y-11942D02*
X37614Y-11942D01*
X37785Y-11942D02*
X37785Y-11342D01*
X37728Y-11428D01*
X37671Y-11485D01*
X37614Y-11514D01*
G54D14*
X44862Y-19355D02*
X44262Y-19355D01*
X44805Y-18727D02*
X44834Y-18755D01*
X44862Y-18841D01*
X44862Y-18898D01*
X44834Y-18984D01*
X44777Y-19041D01*
X44720Y-19070D01*
X44605Y-19098D01*
X44520Y-19098D01*
X44405Y-19070D01*
X44348Y-19041D01*
X44291Y-18984D01*
X44262Y-18898D01*
X44262Y-18841D01*
X44291Y-18755D01*
X44320Y-18727D01*
X44862Y-18155D02*
X44862Y-18498D01*
X44862Y-18327D02*
X44262Y-18327D01*
X44348Y-18384D01*
X44405Y-18441D01*
X44434Y-18498D01*
G54D22*
X44429Y-24534D02*
X44429Y-24898D01*
X44450Y-24941D01*
X44472Y-24962D01*
X44514Y-24984D01*
X44600Y-24984D01*
X44643Y-24962D01*
X44664Y-24941D01*
X44686Y-24898D01*
X44686Y-24534D01*
X44857Y-24534D02*
X45136Y-24534D01*
X44986Y-24705D01*
X45050Y-24705D01*
X45093Y-24727D01*
X45114Y-24748D01*
X45136Y-24791D01*
X45136Y-24898D01*
X45114Y-24941D01*
X45093Y-24962D01*
X45050Y-24984D01*
X44922Y-24984D01*
X44879Y-24962D01*
X44857Y-24941D01*
X42203Y-25491D02*
X42403Y-25491D01*
X42303Y-25841D02*
X42303Y-25491D01*
X42686Y-25841D02*
X42520Y-25841D01*
X42520Y-25491D01*
X42803Y-25658D02*
X42920Y-25658D01*
X42970Y-25841D02*
X42803Y-25841D01*
X42803Y-25491D01*
X42970Y-25491D01*
X43103Y-25525D02*
X43120Y-25508D01*
X43153Y-25491D01*
X43236Y-25491D01*
X43270Y-25508D01*
X43286Y-25525D01*
X43303Y-25558D01*
X43303Y-25591D01*
X43286Y-25641D01*
X43086Y-25841D01*
X43303Y-25841D01*
X43603Y-25608D02*
X43603Y-25841D01*
X43520Y-25475D02*
X43436Y-25725D01*
X43653Y-25725D01*
X43770Y-25525D02*
X43786Y-25508D01*
X43820Y-25491D01*
X43903Y-25491D01*
X43936Y-25508D01*
X43953Y-25525D01*
X43970Y-25558D01*
X43970Y-25591D01*
X43953Y-25641D01*
X43753Y-25841D01*
X43970Y-25841D01*
X44270Y-25491D02*
X44203Y-25491D01*
X44170Y-25508D01*
X44153Y-25525D01*
X44120Y-25575D01*
X44103Y-25641D01*
X44103Y-25775D01*
X44120Y-25808D01*
X44136Y-25825D01*
X44170Y-25841D01*
X44236Y-25841D01*
X44270Y-25825D01*
X44286Y-25808D01*
X44303Y-25775D01*
X44303Y-25691D01*
X44286Y-25658D01*
X44270Y-25641D01*
X44236Y-25625D01*
X44170Y-25625D01*
X44136Y-25641D01*
X44120Y-25658D01*
X44103Y-25691D01*
G54D14*
X45400Y-12411D02*
X45300Y-12268D01*
X45228Y-12411D02*
X45228Y-12111D01*
X45342Y-12111D01*
X45371Y-12125D01*
X45385Y-12140D01*
X45400Y-12168D01*
X45400Y-12211D01*
X45385Y-12240D01*
X45371Y-12254D01*
X45342Y-12268D01*
X45228Y-12268D01*
X45685Y-12411D02*
X45514Y-12411D01*
X45600Y-12411D02*
X45600Y-12111D01*
X45571Y-12154D01*
X45542Y-12182D01*
X45514Y-12197D01*
X40671Y-13110D02*
X40528Y-13210D01*
X40671Y-13281D02*
X40371Y-13281D01*
X40371Y-13167D01*
X40385Y-13138D01*
X40400Y-13124D01*
X40428Y-13110D01*
X40471Y-13110D01*
X40500Y-13124D01*
X40514Y-13138D01*
X40528Y-13167D01*
X40528Y-13281D01*
X40371Y-13010D02*
X40371Y-12824D01*
X40485Y-12924D01*
X40485Y-12881D01*
X40500Y-12852D01*
X40514Y-12838D01*
X40542Y-12824D01*
X40614Y-12824D01*
X40642Y-12838D01*
X40657Y-12852D01*
X40671Y-12881D01*
X40671Y-12967D01*
X40657Y-12995D01*
X40642Y-13010D01*
X36391Y-26810D02*
X36248Y-26910D01*
X36391Y-26981D02*
X36091Y-26981D01*
X36091Y-26867D01*
X36105Y-26838D01*
X36120Y-26824D01*
X36148Y-26810D01*
X36191Y-26810D01*
X36220Y-26824D01*
X36234Y-26838D01*
X36248Y-26867D01*
X36248Y-26981D01*
X36120Y-26695D02*
X36105Y-26681D01*
X36091Y-26652D01*
X36091Y-26581D01*
X36105Y-26552D01*
X36120Y-26538D01*
X36148Y-26524D01*
X36177Y-26524D01*
X36220Y-26538D01*
X36391Y-26710D01*
X36391Y-26524D01*
X31832Y-26482D02*
X31847Y-26497D01*
X31861Y-26540D01*
X31861Y-26568D01*
X31847Y-26611D01*
X31818Y-26640D01*
X31790Y-26654D01*
X31732Y-26668D01*
X31690Y-26668D01*
X31632Y-26654D01*
X31604Y-26640D01*
X31575Y-26611D01*
X31561Y-26568D01*
X31561Y-26540D01*
X31575Y-26497D01*
X31590Y-26482D01*
X31861Y-26197D02*
X31861Y-26368D01*
X31861Y-26282D02*
X31561Y-26282D01*
X31604Y-26311D01*
X31632Y-26340D01*
X31647Y-26368D01*
X31590Y-26082D02*
X31575Y-26068D01*
X31561Y-26040D01*
X31561Y-25968D01*
X31575Y-25940D01*
X31590Y-25925D01*
X31618Y-25911D01*
X31647Y-25911D01*
X31690Y-25925D01*
X31861Y-26097D01*
X31861Y-25911D01*
X35342Y-26820D02*
X35357Y-26834D01*
X35371Y-26877D01*
X35371Y-26905D01*
X35357Y-26948D01*
X35328Y-26977D01*
X35300Y-26991D01*
X35242Y-27005D01*
X35200Y-27005D01*
X35142Y-26991D01*
X35114Y-26977D01*
X35085Y-26948D01*
X35071Y-26905D01*
X35071Y-26877D01*
X35085Y-26834D01*
X35100Y-26820D01*
X35171Y-26562D02*
X35371Y-26562D01*
X35057Y-26634D02*
X35271Y-26705D01*
X35271Y-26520D01*
X34372Y-26800D02*
X34387Y-26814D01*
X34401Y-26857D01*
X34401Y-26885D01*
X34387Y-26928D01*
X34358Y-26957D01*
X34330Y-26971D01*
X34272Y-26985D01*
X34230Y-26985D01*
X34172Y-26971D01*
X34144Y-26957D01*
X34115Y-26928D01*
X34101Y-26885D01*
X34101Y-26857D01*
X34115Y-26814D01*
X34130Y-26800D01*
X34101Y-26700D02*
X34101Y-26514D01*
X34215Y-26614D01*
X34215Y-26571D01*
X34230Y-26542D01*
X34244Y-26528D01*
X34272Y-26514D01*
X34344Y-26514D01*
X34372Y-26528D01*
X34387Y-26542D01*
X34401Y-26571D01*
X34401Y-26657D01*
X34387Y-26685D01*
X34372Y-26700D01*
X36710Y-19832D02*
X36695Y-19847D01*
X36652Y-19861D01*
X36624Y-19861D01*
X36581Y-19847D01*
X36552Y-19818D01*
X36538Y-19790D01*
X36524Y-19732D01*
X36524Y-19690D01*
X36538Y-19632D01*
X36552Y-19604D01*
X36581Y-19575D01*
X36624Y-19561D01*
X36652Y-19561D01*
X36695Y-19575D01*
X36710Y-19590D01*
X36967Y-19561D02*
X36910Y-19561D01*
X36881Y-19575D01*
X36867Y-19590D01*
X36838Y-19632D01*
X36824Y-19690D01*
X36824Y-19804D01*
X36838Y-19832D01*
X36852Y-19847D01*
X36881Y-19861D01*
X36938Y-19861D01*
X36967Y-19847D01*
X36981Y-19832D01*
X36995Y-19804D01*
X36995Y-19732D01*
X36981Y-19704D01*
X36967Y-19690D01*
X36938Y-19675D01*
X36881Y-19675D01*
X36852Y-19690D01*
X36838Y-19704D01*
X36824Y-19732D01*
X34620Y-19812D02*
X34605Y-19827D01*
X34562Y-19841D01*
X34534Y-19841D01*
X34491Y-19827D01*
X34462Y-19798D01*
X34448Y-19770D01*
X34434Y-19712D01*
X34434Y-19670D01*
X34448Y-19612D01*
X34462Y-19584D01*
X34491Y-19555D01*
X34534Y-19541D01*
X34562Y-19541D01*
X34605Y-19555D01*
X34620Y-19570D01*
X34720Y-19541D02*
X34920Y-19541D01*
X34791Y-19841D01*
G54D28*
X36991Y-18690D02*
X36962Y-18675D01*
X36934Y-18647D01*
X36891Y-18604D01*
X36862Y-18590D01*
X36834Y-18590D01*
X36848Y-18661D02*
X36820Y-18647D01*
X36791Y-18618D01*
X36777Y-18561D01*
X36777Y-18461D01*
X36791Y-18404D01*
X36820Y-18375D01*
X36848Y-18361D01*
X36905Y-18361D01*
X36934Y-18375D01*
X36962Y-18404D01*
X36977Y-18461D01*
X36977Y-18561D01*
X36962Y-18618D01*
X36934Y-18647D01*
X36905Y-18661D01*
X36848Y-18661D01*
X37262Y-18661D02*
X37091Y-18661D01*
X37177Y-18661D02*
X37177Y-18361D01*
X37148Y-18404D01*
X37120Y-18432D01*
X37091Y-18447D01*
G54D29*
X35550Y-18421D02*
X35559Y-18412D01*
X35578Y-18402D01*
X35625Y-18402D01*
X35644Y-18412D01*
X35653Y-18421D01*
X35662Y-18440D01*
X35662Y-18459D01*
X35653Y-18487D01*
X35540Y-18599D01*
X35662Y-18599D01*
X35747Y-18599D02*
X35747Y-18402D01*
X35859Y-18599D01*
X35859Y-18402D01*
X35934Y-18402D02*
X36066Y-18402D01*
X35981Y-18599D01*
X36178Y-18402D02*
X36197Y-18402D01*
X36216Y-18412D01*
X36225Y-18421D01*
X36235Y-18440D01*
X36244Y-18477D01*
X36244Y-18524D01*
X36235Y-18562D01*
X36225Y-18580D01*
X36216Y-18590D01*
X36197Y-18599D01*
X36178Y-18599D01*
X36160Y-18590D01*
X36150Y-18580D01*
X36141Y-18562D01*
X36131Y-18524D01*
X36131Y-18477D01*
X36141Y-18440D01*
X36150Y-18421D01*
X36160Y-18412D01*
X36178Y-18402D01*
X36366Y-18402D02*
X36385Y-18402D01*
X36403Y-18412D01*
X36413Y-18421D01*
X36422Y-18440D01*
X36432Y-18477D01*
X36432Y-18524D01*
X36422Y-18562D01*
X36413Y-18580D01*
X36403Y-18590D01*
X36385Y-18599D01*
X36366Y-18599D01*
X36347Y-18590D01*
X36338Y-18580D01*
X36328Y-18562D01*
X36319Y-18524D01*
X36319Y-18477D01*
X36328Y-18440D01*
X36338Y-18421D01*
X36347Y-18412D01*
X36366Y-18402D01*
X36507Y-18421D02*
X36516Y-18412D01*
X36535Y-18402D01*
X36582Y-18402D01*
X36600Y-18412D01*
X36610Y-18421D01*
X36619Y-18440D01*
X36619Y-18459D01*
X36610Y-18487D01*
X36497Y-18599D01*
X36619Y-18599D01*
G54D10*
X42067Y-12735D02*
X42067Y-12904D01*
X42055Y-12937D01*
X42033Y-12960D01*
X41999Y-12971D01*
X41977Y-12971D01*
X42179Y-12971D02*
X42179Y-12735D01*
X42269Y-12735D01*
X42292Y-12746D01*
X42303Y-12757D01*
X42314Y-12780D01*
X42314Y-12814D01*
X42303Y-12836D01*
X42292Y-12847D01*
X42269Y-12859D01*
X42179Y-12859D01*
X42539Y-12971D02*
X42404Y-12971D01*
X42472Y-12971D02*
X42472Y-12735D01*
X42449Y-12769D01*
X42427Y-12791D01*
X42404Y-12802D01*
G54D22*
X42497Y-11596D02*
X42497Y-11839D01*
X42512Y-11867D01*
X42526Y-11882D01*
X42555Y-11896D01*
X42612Y-11896D01*
X42640Y-11882D01*
X42655Y-11867D01*
X42669Y-11839D01*
X42669Y-11596D01*
X42797Y-11882D02*
X42840Y-11896D01*
X42912Y-11896D01*
X42940Y-11882D01*
X42955Y-11867D01*
X42969Y-11839D01*
X42969Y-11810D01*
X42955Y-11782D01*
X42940Y-11767D01*
X42912Y-11753D01*
X42855Y-11739D01*
X42826Y-11725D01*
X42812Y-11710D01*
X42797Y-11682D01*
X42797Y-11653D01*
X42812Y-11625D01*
X42826Y-11610D01*
X42855Y-11596D01*
X42926Y-11596D01*
X42969Y-11610D01*
X43197Y-11739D02*
X43240Y-11753D01*
X43255Y-11767D01*
X43269Y-11796D01*
X43269Y-11839D01*
X43255Y-11867D01*
X43240Y-11882D01*
X43212Y-11896D01*
X43097Y-11896D01*
X43097Y-11596D01*
X43197Y-11596D01*
X43226Y-11610D01*
X43240Y-11625D01*
X43255Y-11653D01*
X43255Y-11682D01*
X43240Y-11710D01*
X43226Y-11725D01*
X43197Y-11739D01*
X43097Y-11739D01*
X43326Y-11925D02*
X43555Y-11925D01*
X43626Y-11896D02*
X43626Y-11596D01*
X43740Y-11596D01*
X43769Y-11610D01*
X43783Y-11625D01*
X43797Y-11653D01*
X43797Y-11696D01*
X43783Y-11725D01*
X43769Y-11739D01*
X43740Y-11753D01*
X43626Y-11753D01*
X43983Y-11596D02*
X44040Y-11596D01*
X44069Y-11610D01*
X44097Y-11639D01*
X44112Y-11696D01*
X44112Y-11796D01*
X44097Y-11853D01*
X44069Y-11882D01*
X44040Y-11896D01*
X43983Y-11896D01*
X43955Y-11882D01*
X43926Y-11853D01*
X43912Y-11796D01*
X43912Y-11696D01*
X43926Y-11639D01*
X43955Y-11610D01*
X43983Y-11596D01*
X44212Y-11596D02*
X44283Y-11896D01*
X44340Y-11682D01*
X44397Y-11896D01*
X44469Y-11596D01*
X44583Y-11739D02*
X44683Y-11739D01*
X44726Y-11896D02*
X44583Y-11896D01*
X44583Y-11596D01*
X44726Y-11596D01*
X45026Y-11896D02*
X44926Y-11753D01*
X44855Y-11896D02*
X44855Y-11596D01*
X44969Y-11596D01*
X44997Y-11610D01*
X45012Y-11625D01*
X45026Y-11653D01*
X45026Y-11696D01*
X45012Y-11725D01*
X44997Y-11739D01*
X44969Y-11753D01*
X44855Y-11753D01*
G54D14*
X24486Y-19192D02*
X24810Y-19192D01*
X24848Y-19171D01*
X24867Y-19150D01*
X24886Y-19107D01*
X24886Y-19021D01*
X24867Y-18978D01*
X24848Y-18957D01*
X24810Y-18935D01*
X24486Y-18935D01*
X24620Y-18528D02*
X24886Y-18528D01*
X24467Y-18635D02*
X24753Y-18742D01*
X24753Y-18464D01*
X21735Y-18961D02*
X22001Y-18961D01*
X21830Y-19361D01*
X22325Y-19095D02*
X22325Y-19361D01*
X22230Y-18942D02*
X22135Y-19228D01*
X22382Y-19228D01*
X22611Y-18961D02*
X22649Y-18961D01*
X22687Y-18980D01*
X22706Y-19000D01*
X22725Y-19038D01*
X22744Y-19114D01*
X22744Y-19209D01*
X22725Y-19285D01*
X22706Y-19323D01*
X22687Y-19342D01*
X22649Y-19361D01*
X22611Y-19361D01*
X22573Y-19342D01*
X22554Y-19323D01*
X22535Y-19285D01*
X22516Y-19209D01*
X22516Y-19114D01*
X22535Y-19038D01*
X22554Y-19000D01*
X22573Y-18980D01*
X22611Y-18961D01*
X22992Y-18961D02*
X23030Y-18961D01*
X23068Y-18980D01*
X23087Y-19000D01*
X23106Y-19038D01*
X23125Y-19114D01*
X23125Y-19209D01*
X23106Y-19285D01*
X23087Y-19323D01*
X23068Y-19342D01*
X23030Y-19361D01*
X22992Y-19361D01*
X22954Y-19342D01*
X22935Y-19323D01*
X22916Y-19285D01*
X22897Y-19209D01*
X22897Y-19114D01*
X22916Y-19038D01*
X22935Y-19000D01*
X22954Y-18980D01*
X22992Y-18961D01*
X20066Y-16600D02*
X19923Y-16700D01*
X20066Y-16771D02*
X19766Y-16771D01*
X19766Y-16657D01*
X19780Y-16628D01*
X19795Y-16614D01*
X19823Y-16600D01*
X19866Y-16600D01*
X19895Y-16614D01*
X19909Y-16628D01*
X19923Y-16657D01*
X19923Y-16771D01*
X19866Y-16342D02*
X20066Y-16342D01*
X19752Y-16414D02*
X19966Y-16485D01*
X19966Y-16300D01*
X14980Y-22931D02*
X14880Y-22788D01*
X14808Y-22931D02*
X14808Y-22631D01*
X14922Y-22631D01*
X14951Y-22645D01*
X14965Y-22660D01*
X14980Y-22688D01*
X14980Y-22731D01*
X14965Y-22760D01*
X14951Y-22774D01*
X14922Y-22788D01*
X14808Y-22788D01*
X15237Y-22631D02*
X15180Y-22631D01*
X15151Y-22645D01*
X15137Y-22660D01*
X15108Y-22702D01*
X15094Y-22760D01*
X15094Y-22874D01*
X15108Y-22902D01*
X15122Y-22917D01*
X15151Y-22931D01*
X15208Y-22931D01*
X15237Y-22917D01*
X15251Y-22902D01*
X15265Y-22874D01*
X15265Y-22802D01*
X15251Y-22774D01*
X15237Y-22760D01*
X15208Y-22745D01*
X15151Y-22745D01*
X15122Y-22760D01*
X15108Y-22774D01*
X15094Y-22802D01*
X15010Y-23991D02*
X14910Y-23848D01*
X14838Y-23991D02*
X14838Y-23691D01*
X14952Y-23691D01*
X14981Y-23705D01*
X14995Y-23720D01*
X15010Y-23748D01*
X15010Y-23791D01*
X14995Y-23820D01*
X14981Y-23834D01*
X14952Y-23848D01*
X14838Y-23848D01*
X15281Y-23691D02*
X15138Y-23691D01*
X15124Y-23834D01*
X15138Y-23820D01*
X15167Y-23805D01*
X15238Y-23805D01*
X15267Y-23820D01*
X15281Y-23834D01*
X15295Y-23862D01*
X15295Y-23934D01*
X15281Y-23962D01*
X15267Y-23977D01*
X15238Y-23991D01*
X15167Y-23991D01*
X15138Y-23977D01*
X15124Y-23962D01*
G54D22*
X19666Y-15479D02*
X19880Y-15479D01*
X19923Y-15494D01*
X19952Y-15522D01*
X19966Y-15565D01*
X19966Y-15594D01*
X19966Y-15337D02*
X19666Y-15337D01*
X19666Y-15222D01*
X19680Y-15194D01*
X19695Y-15180D01*
X19723Y-15165D01*
X19766Y-15165D01*
X19795Y-15180D01*
X19809Y-15194D01*
X19823Y-15222D01*
X19823Y-15337D01*
X19695Y-15051D02*
X19680Y-15037D01*
X19666Y-15008D01*
X19666Y-14937D01*
X19680Y-14908D01*
X19695Y-14894D01*
X19723Y-14880D01*
X19752Y-14880D01*
X19795Y-14894D01*
X19966Y-15065D01*
X19966Y-14880D01*
G54D25*
X18616Y-22445D02*
X18616Y-22145D01*
X18688Y-22145D01*
X18730Y-22159D01*
X18759Y-22188D01*
X18773Y-22216D01*
X18788Y-22274D01*
X18788Y-22316D01*
X18773Y-22374D01*
X18759Y-22402D01*
X18730Y-22431D01*
X18688Y-22445D01*
X18616Y-22445D01*
X18888Y-22145D02*
X19073Y-22145D01*
X18973Y-22259D01*
X19016Y-22259D01*
X19045Y-22274D01*
X19059Y-22288D01*
X19073Y-22316D01*
X19073Y-22388D01*
X19059Y-22416D01*
X19045Y-22431D01*
X19016Y-22445D01*
X18930Y-22445D01*
X18902Y-22431D01*
X18888Y-22416D01*
X19885Y-22971D02*
X19785Y-22828D01*
X19714Y-22971D02*
X19714Y-22671D01*
X19828Y-22671D01*
X19857Y-22685D01*
X19871Y-22700D01*
X19885Y-22728D01*
X19885Y-22771D01*
X19871Y-22800D01*
X19857Y-22814D01*
X19828Y-22828D01*
X19714Y-22828D01*
X20000Y-22957D02*
X20042Y-22971D01*
X20114Y-22971D01*
X20142Y-22957D01*
X20157Y-22942D01*
X20171Y-22914D01*
X20171Y-22885D01*
X20157Y-22857D01*
X20142Y-22842D01*
X20114Y-22828D01*
X20057Y-22814D01*
X20028Y-22800D01*
X20014Y-22785D01*
X20000Y-22757D01*
X20000Y-22728D01*
X20014Y-22700D01*
X20028Y-22685D01*
X20057Y-22671D01*
X20128Y-22671D01*
X20171Y-22685D01*
X20257Y-22671D02*
X20428Y-22671D01*
X20342Y-22971D02*
X20342Y-22671D01*
X18812Y-24523D02*
X18812Y-24223D01*
X18884Y-24223D01*
X18926Y-24237D01*
X18955Y-24266D01*
X18969Y-24294D01*
X18984Y-24352D01*
X18984Y-24394D01*
X18969Y-24452D01*
X18955Y-24480D01*
X18926Y-24509D01*
X18884Y-24523D01*
X18812Y-24523D01*
X19098Y-24252D02*
X19112Y-24237D01*
X19141Y-24223D01*
X19212Y-24223D01*
X19241Y-24237D01*
X19255Y-24252D01*
X19269Y-24280D01*
X19269Y-24309D01*
X19255Y-24352D01*
X19084Y-24523D01*
X19269Y-24523D01*
X19700Y-24081D02*
X19700Y-23781D01*
X19815Y-23781D01*
X19843Y-23795D01*
X19857Y-23810D01*
X19872Y-23838D01*
X19872Y-23881D01*
X19857Y-23910D01*
X19843Y-23924D01*
X19815Y-23938D01*
X19700Y-23938D01*
X20172Y-24081D02*
X20072Y-23938D01*
X20000Y-24081D02*
X20000Y-23781D01*
X20115Y-23781D01*
X20143Y-23795D01*
X20157Y-23810D01*
X20172Y-23838D01*
X20172Y-23881D01*
X20157Y-23910D01*
X20143Y-23924D01*
X20115Y-23938D01*
X20000Y-23938D01*
X20357Y-23781D02*
X20415Y-23781D01*
X20443Y-23795D01*
X20472Y-23824D01*
X20486Y-23881D01*
X20486Y-23981D01*
X20472Y-24038D01*
X20443Y-24067D01*
X20415Y-24081D01*
X20357Y-24081D01*
X20329Y-24067D01*
X20300Y-24038D01*
X20286Y-23981D01*
X20286Y-23881D01*
X20300Y-23824D01*
X20329Y-23795D01*
X20357Y-23781D01*
X20772Y-23795D02*
X20743Y-23781D01*
X20700Y-23781D01*
X20657Y-23795D01*
X20629Y-23824D01*
X20615Y-23852D01*
X20600Y-23910D01*
X20600Y-23952D01*
X20615Y-24010D01*
X20629Y-24038D01*
X20657Y-24067D01*
X20700Y-24081D01*
X20729Y-24081D01*
X20772Y-24067D01*
X20786Y-24052D01*
X20786Y-23952D01*
X20729Y-23952D01*
X20843Y-24110D02*
X21072Y-24110D01*
X21143Y-24081D02*
X21143Y-23781D01*
X21243Y-23995D01*
X21343Y-23781D01*
X21343Y-24081D01*
X21543Y-23781D02*
X21600Y-23781D01*
X21629Y-23795D01*
X21657Y-23824D01*
X21672Y-23881D01*
X21672Y-23981D01*
X21657Y-24038D01*
X21629Y-24067D01*
X21600Y-24081D01*
X21543Y-24081D01*
X21515Y-24067D01*
X21486Y-24038D01*
X21472Y-23981D01*
X21472Y-23881D01*
X21486Y-23824D01*
X21515Y-23795D01*
X21543Y-23781D01*
X21800Y-24081D02*
X21800Y-23781D01*
X21872Y-23781D01*
X21915Y-23795D01*
X21943Y-23824D01*
X21957Y-23852D01*
X21972Y-23910D01*
X21972Y-23952D01*
X21957Y-24010D01*
X21943Y-24038D01*
X21915Y-24067D01*
X21872Y-24081D01*
X21800Y-24081D01*
X22100Y-23924D02*
X22200Y-23924D01*
X22243Y-24081D02*
X22100Y-24081D01*
X22100Y-23781D01*
X22243Y-23781D01*
G54D14*
X19867Y-20102D02*
X19882Y-20117D01*
X19896Y-20160D01*
X19896Y-20188D01*
X19882Y-20231D01*
X19853Y-20260D01*
X19825Y-20274D01*
X19767Y-20288D01*
X19725Y-20288D01*
X19667Y-20274D01*
X19639Y-20260D01*
X19610Y-20231D01*
X19596Y-20188D01*
X19596Y-20160D01*
X19610Y-20117D01*
X19625Y-20102D01*
X19896Y-19817D02*
X19896Y-19988D01*
X19896Y-19902D02*
X19596Y-19902D01*
X19639Y-19931D01*
X19667Y-19960D01*
X19682Y-19988D01*
X19896Y-19674D02*
X19896Y-19617D01*
X19882Y-19588D01*
X19867Y-19574D01*
X19825Y-19545D01*
X19767Y-19531D01*
X19653Y-19531D01*
X19625Y-19545D01*
X19610Y-19560D01*
X19596Y-19588D01*
X19596Y-19645D01*
X19610Y-19674D01*
X19625Y-19688D01*
X19653Y-19702D01*
X19725Y-19702D01*
X19753Y-19688D01*
X19767Y-19674D01*
X19782Y-19645D01*
X19782Y-19588D01*
X19767Y-19560D01*
X19753Y-19545D01*
X19725Y-19531D01*
X47776Y-13652D02*
X47791Y-13666D01*
X47805Y-13709D01*
X47805Y-13737D01*
X47791Y-13780D01*
X47762Y-13809D01*
X47734Y-13823D01*
X47676Y-13837D01*
X47634Y-13837D01*
X47576Y-13823D01*
X47548Y-13809D01*
X47519Y-13780D01*
X47505Y-13737D01*
X47505Y-13709D01*
X47519Y-13666D01*
X47534Y-13652D01*
X47805Y-13366D02*
X47805Y-13537D01*
X47805Y-13452D02*
X47505Y-13452D01*
X47548Y-13480D01*
X47576Y-13509D01*
X47591Y-13537D01*
X48572Y-20230D02*
X48587Y-20244D01*
X48601Y-20287D01*
X48601Y-20315D01*
X48587Y-20358D01*
X48558Y-20387D01*
X48530Y-20401D01*
X48472Y-20415D01*
X48430Y-20415D01*
X48372Y-20401D01*
X48344Y-20387D01*
X48315Y-20358D01*
X48301Y-20315D01*
X48301Y-20287D01*
X48315Y-20244D01*
X48330Y-20230D01*
X48330Y-20115D02*
X48315Y-20101D01*
X48301Y-20072D01*
X48301Y-20001D01*
X48315Y-19972D01*
X48330Y-19958D01*
X48358Y-19944D01*
X48387Y-19944D01*
X48430Y-19958D01*
X48601Y-20130D01*
X48601Y-19944D01*
X46368Y-24928D02*
X46353Y-24943D01*
X46310Y-24957D01*
X46282Y-24957D01*
X46239Y-24943D01*
X46210Y-24914D01*
X46196Y-24886D01*
X46182Y-24828D01*
X46182Y-24786D01*
X46196Y-24728D01*
X46210Y-24700D01*
X46239Y-24671D01*
X46282Y-24657D01*
X46310Y-24657D01*
X46353Y-24671D01*
X46368Y-24686D01*
X46539Y-24786D02*
X46510Y-24771D01*
X46496Y-24757D01*
X46482Y-24728D01*
X46482Y-24714D01*
X46496Y-24686D01*
X46510Y-24671D01*
X46539Y-24657D01*
X46596Y-24657D01*
X46625Y-24671D01*
X46639Y-24686D01*
X46653Y-24714D01*
X46653Y-24728D01*
X46639Y-24757D01*
X46625Y-24771D01*
X46596Y-24786D01*
X46539Y-24786D01*
X46510Y-24800D01*
X46496Y-24814D01*
X46482Y-24843D01*
X46482Y-24900D01*
X46496Y-24928D01*
X46510Y-24943D01*
X46539Y-24957D01*
X46596Y-24957D01*
X46625Y-24943D01*
X46639Y-24928D01*
X46653Y-24900D01*
X46653Y-24843D01*
X46639Y-24814D01*
X46625Y-24800D01*
X46596Y-24786D01*
X28172Y-17947D02*
X28157Y-17962D01*
X28115Y-17976D01*
X28086Y-17976D01*
X28043Y-17962D01*
X28015Y-17933D01*
X28000Y-17905D01*
X27986Y-17847D01*
X27986Y-17805D01*
X28000Y-17747D01*
X28015Y-17719D01*
X28043Y-17690D01*
X28086Y-17676D01*
X28115Y-17676D01*
X28157Y-17690D01*
X28172Y-17705D01*
X28457Y-17976D02*
X28286Y-17976D01*
X28372Y-17976D02*
X28372Y-17676D01*
X28343Y-17719D01*
X28315Y-17747D01*
X28286Y-17762D01*
X28729Y-17676D02*
X28586Y-17676D01*
X28572Y-17819D01*
X28586Y-17805D01*
X28615Y-17790D01*
X28686Y-17790D01*
X28715Y-17805D01*
X28729Y-17819D01*
X28743Y-17847D01*
X28743Y-17919D01*
X28729Y-17947D01*
X28715Y-17962D01*
X28686Y-17976D01*
X28615Y-17976D01*
X28586Y-17962D01*
X28572Y-17947D01*
X29367Y-21997D02*
X29352Y-22012D01*
X29310Y-22026D01*
X29281Y-22026D01*
X29238Y-22012D01*
X29210Y-21983D01*
X29195Y-21955D01*
X29181Y-21897D01*
X29181Y-21855D01*
X29195Y-21797D01*
X29210Y-21769D01*
X29238Y-21740D01*
X29281Y-21726D01*
X29310Y-21726D01*
X29352Y-21740D01*
X29367Y-21755D01*
X29652Y-22026D02*
X29481Y-22026D01*
X29567Y-22026D02*
X29567Y-21726D01*
X29538Y-21769D01*
X29510Y-21797D01*
X29481Y-21812D01*
X29910Y-21726D02*
X29852Y-21726D01*
X29824Y-21740D01*
X29810Y-21755D01*
X29781Y-21797D01*
X29767Y-21855D01*
X29767Y-21969D01*
X29781Y-21997D01*
X29795Y-22012D01*
X29824Y-22026D01*
X29881Y-22026D01*
X29910Y-22012D01*
X29924Y-21997D01*
X29938Y-21969D01*
X29938Y-21897D01*
X29924Y-21869D01*
X29910Y-21855D01*
X29881Y-21840D01*
X29824Y-21840D01*
X29795Y-21855D01*
X29781Y-21869D01*
X29767Y-21897D01*
X37778Y-27644D02*
X37763Y-27659D01*
X37720Y-27673D01*
X37692Y-27673D01*
X37649Y-27659D01*
X37620Y-27630D01*
X37606Y-27602D01*
X37592Y-27544D01*
X37592Y-27502D01*
X37606Y-27444D01*
X37620Y-27416D01*
X37649Y-27387D01*
X37692Y-27373D01*
X37720Y-27373D01*
X37763Y-27387D01*
X37778Y-27402D01*
X37920Y-27673D02*
X37978Y-27673D01*
X38006Y-27659D01*
X38020Y-27644D01*
X38049Y-27602D01*
X38063Y-27544D01*
X38063Y-27430D01*
X38049Y-27402D01*
X38035Y-27387D01*
X38006Y-27373D01*
X37949Y-27373D01*
X37920Y-27387D01*
X37906Y-27402D01*
X37892Y-27430D01*
X37892Y-27502D01*
X37906Y-27530D01*
X37920Y-27544D01*
X37949Y-27559D01*
X38006Y-27559D01*
X38035Y-27544D01*
X38049Y-27530D01*
X38063Y-27502D01*
X33237Y-24265D02*
X33252Y-24279D01*
X33266Y-24322D01*
X33266Y-24350D01*
X33252Y-24393D01*
X33223Y-24422D01*
X33195Y-24436D01*
X33137Y-24450D01*
X33095Y-24450D01*
X33037Y-24436D01*
X33009Y-24422D01*
X32980Y-24393D01*
X32966Y-24350D01*
X32966Y-24322D01*
X32980Y-24279D01*
X32995Y-24265D01*
X32966Y-23993D02*
X32966Y-24136D01*
X33109Y-24150D01*
X33095Y-24136D01*
X33080Y-24107D01*
X33080Y-24036D01*
X33095Y-24007D01*
X33109Y-23993D01*
X33137Y-23979D01*
X33209Y-23979D01*
X33237Y-23993D01*
X33252Y-24007D01*
X33266Y-24036D01*
X33266Y-24107D01*
X33252Y-24136D01*
X33237Y-24150D01*
X45578Y-26400D02*
X45593Y-26415D01*
X45607Y-26458D01*
X45607Y-26486D01*
X45593Y-26529D01*
X45564Y-26558D01*
X45536Y-26572D01*
X45478Y-26586D01*
X45436Y-26586D01*
X45378Y-26572D01*
X45350Y-26558D01*
X45321Y-26529D01*
X45307Y-26486D01*
X45307Y-26458D01*
X45321Y-26415D01*
X45336Y-26400D01*
X45607Y-26115D02*
X45607Y-26286D01*
X45607Y-26200D02*
X45307Y-26200D01*
X45350Y-26229D01*
X45378Y-26258D01*
X45393Y-26286D01*
X45407Y-25858D02*
X45607Y-25858D01*
X45293Y-25929D02*
X45507Y-26000D01*
X45507Y-25815D01*
M02*
