G04 (created by PCBNEW (2013-07-07 BZR 4022)-stable) date 08/05/2014 11:07:20 AM*
%MOIN*%
G04 Gerber Fmt 3.4, Leading zero omitted, Abs format*
%FSLAX34Y34*%
G01*
G70*
G90*
G04 APERTURE LIST*
%ADD10C,0.00590551*%
%ADD11C,0.135748*%
%ADD12R,0.075748X0.075748*%
%ADD13C,0.075748*%
%ADD14C,0.175748*%
%ADD15C,0.133858*%
%ADD16R,0.115748X0.115748*%
%ADD17R,0.039348X0.070848*%
%ADD18R,0.035748X0.060748*%
%ADD19R,0.095748X0.075748*%
%ADD20R,0.075748X0.095748*%
%ADD21C,0.153548*%
%ADD22C,0.070748*%
%ADD23R,0.070748X0.070748*%
%ADD24R,0.030748X0.065748*%
%ADD25R,0.078648X0.086648*%
%ADD26C,0.071748*%
%ADD27R,0.045748X0.065748*%
%ADD28R,0.047248X0.055148*%
G04 APERTURE END LIST*
G54D10*
G54D11*
X11600Y-25950D03*
X20200Y-25950D03*
G54D12*
X17900Y-25250D03*
G54D13*
X17900Y-26250D03*
X16900Y-25250D03*
X16900Y-26250D03*
X15900Y-25250D03*
X15900Y-26250D03*
X14900Y-25250D03*
X14900Y-26250D03*
X13900Y-25250D03*
X13900Y-26250D03*
G54D14*
X45525Y-20075D03*
X26400Y-20075D03*
G54D15*
X23370Y-27166D03*
G54D16*
X23370Y-22128D03*
X25024Y-22128D03*
X26676Y-22128D03*
X28330Y-22128D03*
X23370Y-24292D03*
X25024Y-24292D03*
X26676Y-24292D03*
X28330Y-24292D03*
G54D15*
X28330Y-27166D03*
G54D11*
X20200Y-11800D03*
X11600Y-11800D03*
G54D12*
X13900Y-12500D03*
G54D13*
X13900Y-11500D03*
X14900Y-12500D03*
X14900Y-11500D03*
X15900Y-12500D03*
X15900Y-11500D03*
X16900Y-12500D03*
X16900Y-11500D03*
X17900Y-12500D03*
X17900Y-11500D03*
G54D17*
X31950Y-21050D03*
X31950Y-18950D03*
X31450Y-21050D03*
X30950Y-21050D03*
X30450Y-21050D03*
X31450Y-18950D03*
X30950Y-18950D03*
X30450Y-18950D03*
G54D18*
X38150Y-26350D03*
X38650Y-26350D03*
X39150Y-26350D03*
X39650Y-26350D03*
X40150Y-26350D03*
X40650Y-26350D03*
X41150Y-26350D03*
X41150Y-24250D03*
X40650Y-24250D03*
X40150Y-24250D03*
X39650Y-24250D03*
X39150Y-24250D03*
X38650Y-24250D03*
X38150Y-24250D03*
G54D19*
X34510Y-12370D03*
X34510Y-11070D03*
G54D20*
X31650Y-17900D03*
X32950Y-17900D03*
G54D21*
X27900Y-13400D03*
X23900Y-13400D03*
G54D13*
X24900Y-15400D03*
X25900Y-15400D03*
G54D22*
X48346Y-16761D03*
X46574Y-16761D03*
X48346Y-14399D03*
X46574Y-14399D03*
G54D20*
X34050Y-19000D03*
X32750Y-19000D03*
G54D19*
X32915Y-21225D03*
X32915Y-19925D03*
G54D12*
X33230Y-11200D03*
G54D13*
X33230Y-12200D03*
X32230Y-11200D03*
X32230Y-12200D03*
X31230Y-11200D03*
X31230Y-12200D03*
G54D12*
X43220Y-10980D03*
G54D13*
X44220Y-10980D03*
X45220Y-10980D03*
X46220Y-10980D03*
X47220Y-10980D03*
X48220Y-10980D03*
G54D22*
X44040Y-13500D03*
X43040Y-13500D03*
X42040Y-13500D03*
X41040Y-13500D03*
X40040Y-13500D03*
X39040Y-13500D03*
X38040Y-13500D03*
X37040Y-13500D03*
X36040Y-13500D03*
X35040Y-13500D03*
X34040Y-13500D03*
X33040Y-13500D03*
X32040Y-13500D03*
G54D23*
X45040Y-13500D03*
G54D22*
X32040Y-16500D03*
X33040Y-16500D03*
X34040Y-16500D03*
X35040Y-16500D03*
X36040Y-16500D03*
X37040Y-16500D03*
X38040Y-16500D03*
X39040Y-16500D03*
X40040Y-16500D03*
X41040Y-16500D03*
X42040Y-16500D03*
X43040Y-16500D03*
X44040Y-16500D03*
X45040Y-16500D03*
G54D24*
X47714Y-17980D03*
X47458Y-17980D03*
X47202Y-17980D03*
X46946Y-17980D03*
X46946Y-19680D03*
X47202Y-19680D03*
X47458Y-19680D03*
X47714Y-19680D03*
G54D19*
X41390Y-11120D03*
X41390Y-12420D03*
G54D20*
X11050Y-22680D03*
X12350Y-22680D03*
G54D25*
X11031Y-23700D03*
X12149Y-23700D03*
G54D12*
X29725Y-15950D03*
G54D13*
X29725Y-14950D03*
X29725Y-13950D03*
G54D18*
X48040Y-21950D03*
X47540Y-21950D03*
X47040Y-21950D03*
X46540Y-21950D03*
X46040Y-21950D03*
X45540Y-21950D03*
X45040Y-21950D03*
X45040Y-24050D03*
X45540Y-24050D03*
X46040Y-24050D03*
X46540Y-24050D03*
X47040Y-24050D03*
X47540Y-24050D03*
X48040Y-24050D03*
X34140Y-23800D03*
X34640Y-23800D03*
X35140Y-23800D03*
X35640Y-23800D03*
X36140Y-23800D03*
X36640Y-23800D03*
X37140Y-23800D03*
X37140Y-21700D03*
X36640Y-21700D03*
X36140Y-21700D03*
X35640Y-21700D03*
X35140Y-21700D03*
X34640Y-21700D03*
X34140Y-21700D03*
G54D26*
X36430Y-11660D03*
X38430Y-11660D03*
G54D27*
X43930Y-18600D03*
X43430Y-18600D03*
X42930Y-18600D03*
X42430Y-18600D03*
X41930Y-18600D03*
X41430Y-18600D03*
X40930Y-18600D03*
X40430Y-18600D03*
X39930Y-18600D03*
X39430Y-18600D03*
X38930Y-18600D03*
X38430Y-18600D03*
X43930Y-22400D03*
X43430Y-22400D03*
X42930Y-22400D03*
X42430Y-22400D03*
X41930Y-22400D03*
X41430Y-22400D03*
X40930Y-22400D03*
X40430Y-22400D03*
X39930Y-22400D03*
X39430Y-22400D03*
X38930Y-22400D03*
X38430Y-22400D03*
G54D17*
X42520Y-24250D03*
X42520Y-26350D03*
X43020Y-24250D03*
X43520Y-24250D03*
X44020Y-24250D03*
X43020Y-26350D03*
X43520Y-26350D03*
X44020Y-26350D03*
G54D20*
X47420Y-12250D03*
X46120Y-12250D03*
G54D19*
X40360Y-12420D03*
X40360Y-11120D03*
X36260Y-26090D03*
X36260Y-24790D03*
X32020Y-25420D03*
X32020Y-24120D03*
X35220Y-26090D03*
X35220Y-24790D03*
X34180Y-26090D03*
X34180Y-24790D03*
G54D20*
X36120Y-20430D03*
X37420Y-20430D03*
X35300Y-20430D03*
X34000Y-20430D03*
G54D28*
X36110Y-18953D03*
X35735Y-18087D03*
X36485Y-18087D03*
G54D12*
X43110Y-12480D03*
G54D13*
X44110Y-12480D03*
G54D18*
X20940Y-19900D03*
X21440Y-19900D03*
X21940Y-19900D03*
X22440Y-19900D03*
X22940Y-19900D03*
X23440Y-19900D03*
X23940Y-19900D03*
X23940Y-17800D03*
X23440Y-17800D03*
X22940Y-17800D03*
X22440Y-17800D03*
X21940Y-17800D03*
X21440Y-17800D03*
X20940Y-17800D03*
G54D20*
X20515Y-16545D03*
X21815Y-16545D03*
X15770Y-22800D03*
X17070Y-22800D03*
X15760Y-23860D03*
X17060Y-23860D03*
G54D12*
X21620Y-15225D03*
G54D13*
X20620Y-15225D03*
G54D25*
X18121Y-22860D03*
X19239Y-22860D03*
X18116Y-23805D03*
X19234Y-23805D03*
G54D19*
X19830Y-19110D03*
X19830Y-17810D03*
X48328Y-12216D03*
X48328Y-13516D03*
X48488Y-19496D03*
X48488Y-18196D03*
G54D20*
X47115Y-24830D03*
X48415Y-24830D03*
X29675Y-18555D03*
X28375Y-18555D03*
X30360Y-21865D03*
X31660Y-21865D03*
X39835Y-27195D03*
X38535Y-27195D03*
G54D19*
X33145Y-23555D03*
X33145Y-22255D03*
X44710Y-26860D03*
X44710Y-25560D03*
M02*
