M48
INCH,TZ
T1C0.025
T2C0.030
T3C0.032
T4C0.035
T5C0.039
T6C0.040
T7C0.073
T8C0.079
T9C0.100
T10C0.118
T11C0.120
%
T1
X12140Y-24510
X13900Y-16445
X14400Y-16790
X14905Y-17130
X15395Y-17460
X16900Y-17130
X17345Y-17465
X17915Y-16445
X18890Y-16800
X18900Y-11500
X18910Y-13360
X19360Y-26250
X19770Y-22205
X19870Y-15920
X20505Y-17805
X20615Y-13310
X20670Y-23585
X21140Y-13665
X21330Y-16535
X21440Y-20440
X21930Y-17305
X21960Y-20440
X22275Y-24930
X22440Y-20435
X22470Y-17200
X22875Y-10915
X23150Y-17190
X23345Y-10570
X23615Y-17165
X23800Y-21280
X23986Y-23280
X29630Y-10930
X29750Y-23700
X29970Y-10570
X30300Y-12680
X30305Y-11970
X30650Y-12350
X30715Y-15505
X30790Y-23240
X30820Y-15050
X31310Y-10615
X31700Y-22950
X31775Y-17075
X31925Y-20225
X32300Y-22050
X34080Y-15850
X34150Y-22320
X34640Y-22430
X34950Y-14550
X35130Y-22320
X35460Y-23200
X35550Y-16850
X36110Y-19450
X36130Y-23200
X36550Y-16850
X37023Y-18067
X37110Y-25990
X37530Y-24760
X37650Y-26940
X37830Y-22440
X38210Y-23650
X38440Y-19220
X38720Y-23620
X39330Y-11720
X39380Y-25750
X39420Y-20280
X39420Y-21740
X39430Y-19170
X39760Y-17310
X39770Y-24770
X39900Y-19490
X39930Y-21770
X39960Y-23670
X40420Y-21770
X40420Y-25760
X40550Y-16800
X40560Y-27195
X40610Y-19170
X40890Y-25750
X40910Y-26830
X41350Y-23280
X41410Y-21780
X41430Y-19240
X41780Y-24245
X41800Y-26410
X41880Y-25870
X41930Y-19220
X42150Y-23550
X42440Y-19160
X42920Y-23050
X43320Y-19180
X43595Y-20190
X43940Y-21800
X44040Y-15160
T2
X36430Y-11660
X38430Y-11660
T3
X13900Y-11500
X13900Y-12500
X13900Y-25250
X13900Y-26250
X14900Y-11500
X14900Y-12500
X14900Y-25250
X14900Y-26250
X15900Y-11500
X15900Y-12500
X15900Y-25250
X15900Y-26250
X16900Y-11500
X16900Y-12500
X16900Y-25250
X16900Y-26250
X17900Y-11500
X17900Y-12500
X17900Y-25250
X17900Y-26250
X32040Y-13500
X32040Y-16500
X33040Y-13500
X33040Y-16500
X34040Y-13500
X34040Y-16500
X35040Y-13500
X35040Y-16500
X36040Y-13500
X36040Y-16500
X37040Y-13500
X37040Y-16500
X38040Y-13500
X38040Y-16500
X39040Y-13500
X39040Y-16500
X40040Y-13500
X40040Y-16500
X41040Y-13500
X41040Y-16500
X42040Y-13500
X42040Y-16500
X43040Y-13500
X43040Y-16500
X44040Y-13500
X44040Y-16500
X45040Y-13500
X45040Y-16500
T4
X24900Y-15400
X25900Y-15400
T5
X46574Y-14399
X46574Y-16761
X48346Y-14399
X48346Y-16761
T6
X20620Y-15225
X21620Y-15225
X29725Y-13950
X29725Y-14950
X29725Y-15950
X31230Y-11200
X31230Y-12200
X32230Y-11200
X32230Y-12200
X33230Y-11200
X33230Y-12200
X43110Y-12480
X43220Y-10980
X44110Y-12480
X44220Y-10980
X45220Y-10980
X46220Y-10980
X47220Y-10980
X48220Y-10980
T7
X23370Y-22128
X23370Y-24292
X25024Y-22128
X25024Y-24292
X26676Y-22128
X26676Y-24292
X28330Y-22128
X28330Y-24292
T8
X23900Y-13400
X27900Y-13400
T9
X11600Y-11800
X11600Y-25950
X20200Y-11800
X20200Y-25950
T10
X23370Y-27167
X28330Y-27167
T11
X26400Y-20075
X45525Y-20075
M30
