G04 (created by PCBNEW (2013-07-07 BZR 4022)-stable) date 08/05/2014 11:07:20 AM*
%MOIN*%
G04 Gerber Fmt 3.4, Leading zero omitted, Abs format*
%FSLAX34Y34*%
G01*
G70*
G90*
G04 APERTURE LIST*
%ADD10C,0.00590551*%
%ADD11C,0.005*%
G04 APERTURE END LIST*
G54D10*
G54D11*
X43910Y-23900D02*
X43910Y-24800D01*
X43910Y-24800D02*
X43260Y-24800D01*
X42560Y-23900D02*
X41910Y-23900D01*
X41910Y-23900D02*
X41910Y-24800D01*
X41910Y-24800D02*
X42560Y-24800D01*
X43260Y-23900D02*
X43910Y-23900D01*
X41065Y-20395D02*
X41065Y-19495D01*
X41065Y-19495D02*
X41715Y-19495D01*
X42415Y-20395D02*
X43065Y-20395D01*
X43065Y-20395D02*
X43065Y-19495D01*
X43065Y-19495D02*
X42415Y-19495D01*
X41715Y-20395D02*
X41065Y-20395D01*
X43102Y-24442D02*
X43117Y-24457D01*
X43160Y-24471D01*
X43188Y-24471D01*
X43231Y-24457D01*
X43260Y-24428D01*
X43274Y-24400D01*
X43288Y-24342D01*
X43288Y-24300D01*
X43274Y-24242D01*
X43260Y-24214D01*
X43231Y-24185D01*
X43188Y-24171D01*
X43160Y-24171D01*
X43117Y-24185D01*
X43102Y-24200D01*
X42817Y-24471D02*
X42988Y-24471D01*
X42902Y-24471D02*
X42902Y-24171D01*
X42931Y-24214D01*
X42960Y-24242D01*
X42988Y-24257D01*
X42717Y-24171D02*
X42517Y-24171D01*
X42645Y-24471D01*
X42257Y-20037D02*
X42272Y-20052D01*
X42315Y-20066D01*
X42343Y-20066D01*
X42386Y-20052D01*
X42415Y-20023D01*
X42429Y-19995D01*
X42443Y-19937D01*
X42443Y-19895D01*
X42429Y-19837D01*
X42415Y-19809D01*
X42386Y-19780D01*
X42343Y-19766D01*
X42315Y-19766D01*
X42272Y-19780D01*
X42257Y-19795D01*
X41972Y-20066D02*
X42143Y-20066D01*
X42057Y-20066D02*
X42057Y-19766D01*
X42086Y-19809D01*
X42115Y-19837D01*
X42143Y-19852D01*
X41800Y-19895D02*
X41829Y-19880D01*
X41843Y-19866D01*
X41857Y-19837D01*
X41857Y-19823D01*
X41843Y-19795D01*
X41829Y-19780D01*
X41800Y-19766D01*
X41743Y-19766D01*
X41715Y-19780D01*
X41700Y-19795D01*
X41686Y-19823D01*
X41686Y-19837D01*
X41700Y-19866D01*
X41715Y-19880D01*
X41743Y-19895D01*
X41800Y-19895D01*
X41829Y-19909D01*
X41843Y-19923D01*
X41857Y-19952D01*
X41857Y-20009D01*
X41843Y-20037D01*
X41829Y-20052D01*
X41800Y-20066D01*
X41743Y-20066D01*
X41715Y-20052D01*
X41700Y-20037D01*
X41686Y-20009D01*
X41686Y-19952D01*
X41700Y-19923D01*
X41715Y-19909D01*
X41743Y-19895D01*
M02*
