G04 (created by PCBNEW (2013-07-07 BZR 4022)-stable) date 26/08/2013 6:07:25 PM*
%MOIN*%
G04 Gerber Fmt 3.4, Leading zero omitted, Abs format*
%FSLAX34Y34*%
G01*
G70*
G90*
G04 APERTURE LIST*
%ADD10C,0.00590551*%
%ADD11C,0.00787402*%
%ADD12C,0.00738189*%
%ADD13C,0.012*%
%ADD14C,0.005*%
%ADD15C,0.008*%
%ADD16C,0.015*%
%ADD17C,0.01*%
%ADD18C,0.0175*%
%ADD19C,0.0026*%
%ADD20C,0.004*%
%ADD21C,0.0001*%
%ADD22C,0.006*%
%ADD23C,0.0125*%
%ADD24C,0.0031*%
%ADD25C,0.0035*%
%ADD26C,0.0045*%
%ADD27C,0.01125*%
%ADD28C,0.0113*%
%ADD29C,0.0047*%
%ADD30C,0.0039*%
G04 APERTURE END LIST*
G54D10*
G54D11*
X24637Y-16612D02*
X24697Y-16612D01*
X24727Y-16627D01*
X24757Y-16657D01*
X24772Y-16717D01*
X24772Y-16822D01*
X24757Y-16882D01*
X24727Y-16912D01*
X24697Y-16927D01*
X24637Y-16927D01*
X24607Y-16912D01*
X24577Y-16882D01*
X24562Y-16822D01*
X24562Y-16717D01*
X24577Y-16657D01*
X24607Y-16627D01*
X24637Y-16612D01*
X24907Y-16612D02*
X24907Y-16867D01*
X24922Y-16897D01*
X24937Y-16912D01*
X24967Y-16927D01*
X25027Y-16927D01*
X25057Y-16912D01*
X25072Y-16897D01*
X25087Y-16867D01*
X25087Y-16612D01*
X25192Y-16612D02*
X25372Y-16612D01*
X25282Y-16927D02*
X25282Y-16612D01*
X25402Y-16957D02*
X25642Y-16957D01*
X25672Y-16612D02*
X25852Y-16612D01*
X25762Y-16927D02*
X25762Y-16612D01*
X26017Y-16612D02*
X26077Y-16612D01*
X26107Y-16627D01*
X26137Y-16657D01*
X26152Y-16717D01*
X26152Y-16822D01*
X26137Y-16882D01*
X26107Y-16912D01*
X26077Y-16927D01*
X26017Y-16927D01*
X25987Y-16912D01*
X25957Y-16882D01*
X25942Y-16822D01*
X25942Y-16717D01*
X25957Y-16657D01*
X25987Y-16627D01*
X26017Y-16612D01*
X26212Y-16957D02*
X26452Y-16957D01*
X26512Y-16837D02*
X26662Y-16837D01*
X26482Y-16927D02*
X26587Y-16612D01*
X26692Y-16927D01*
X26797Y-16927D02*
X26797Y-16612D01*
X26902Y-16837D01*
X27007Y-16612D01*
X27007Y-16927D01*
X27157Y-16927D02*
X27157Y-16612D01*
X27277Y-16612D01*
X27307Y-16627D01*
X27322Y-16642D01*
X27337Y-16672D01*
X27337Y-16717D01*
X27322Y-16747D01*
X27307Y-16762D01*
X27277Y-16777D01*
X27157Y-16777D01*
X30599Y-12261D02*
X30205Y-12261D01*
X30561Y-11848D02*
X30580Y-11867D01*
X30599Y-11923D01*
X30599Y-11961D01*
X30580Y-12017D01*
X30543Y-12054D01*
X30505Y-12073D01*
X30430Y-12092D01*
X30374Y-12092D01*
X30299Y-12073D01*
X30261Y-12054D01*
X30224Y-12017D01*
X30205Y-11961D01*
X30205Y-11923D01*
X30224Y-11867D01*
X30243Y-11848D01*
X30580Y-11698D02*
X30599Y-11642D01*
X30599Y-11548D01*
X30580Y-11511D01*
X30561Y-11492D01*
X30524Y-11473D01*
X30486Y-11473D01*
X30449Y-11492D01*
X30430Y-11511D01*
X30411Y-11548D01*
X30393Y-11623D01*
X30374Y-11661D01*
X30355Y-11680D01*
X30318Y-11698D01*
X30280Y-11698D01*
X30243Y-11680D01*
X30224Y-11661D01*
X30205Y-11623D01*
X30205Y-11530D01*
X30224Y-11473D01*
X30599Y-11305D02*
X30205Y-11305D01*
X30205Y-11155D01*
X30224Y-11117D01*
X30243Y-11098D01*
X30280Y-11080D01*
X30336Y-11080D01*
X30374Y-11098D01*
X30393Y-11117D01*
X30411Y-11155D01*
X30411Y-11305D01*
X29195Y-12972D02*
X29210Y-12957D01*
X29240Y-12942D01*
X29315Y-12942D01*
X29345Y-12957D01*
X29360Y-12972D01*
X29375Y-13002D01*
X29375Y-13032D01*
X29360Y-13077D01*
X29180Y-13257D01*
X29375Y-13257D01*
X29570Y-12942D02*
X29600Y-12942D01*
X29630Y-12957D01*
X29645Y-12972D01*
X29660Y-13002D01*
X29675Y-13062D01*
X29675Y-13137D01*
X29660Y-13197D01*
X29645Y-13227D01*
X29630Y-13242D01*
X29600Y-13257D01*
X29570Y-13257D01*
X29540Y-13242D01*
X29525Y-13227D01*
X29510Y-13197D01*
X29495Y-13137D01*
X29495Y-13062D01*
X29510Y-13002D01*
X29525Y-12972D01*
X29540Y-12957D01*
X29570Y-12942D01*
X29765Y-12942D02*
X29870Y-13257D01*
X29975Y-12942D01*
X30079Y-13047D02*
X30079Y-13362D01*
X30079Y-13062D02*
X30109Y-13047D01*
X30169Y-13047D01*
X30199Y-13062D01*
X30214Y-13077D01*
X30229Y-13107D01*
X30229Y-13197D01*
X30214Y-13227D01*
X30199Y-13242D01*
X30169Y-13257D01*
X30109Y-13257D01*
X30079Y-13242D01*
X30364Y-13137D02*
X30604Y-13137D01*
X30754Y-13047D02*
X30754Y-13362D01*
X30754Y-13062D02*
X30784Y-13047D01*
X30844Y-13047D01*
X30874Y-13062D01*
X30889Y-13077D01*
X30904Y-13107D01*
X30904Y-13197D01*
X30889Y-13227D01*
X30874Y-13242D01*
X30844Y-13257D01*
X30784Y-13257D01*
X30754Y-13242D01*
X29390Y-16602D02*
X29240Y-16602D01*
X29225Y-16752D01*
X29240Y-16737D01*
X29270Y-16722D01*
X29345Y-16722D01*
X29375Y-16737D01*
X29390Y-16752D01*
X29405Y-16782D01*
X29405Y-16857D01*
X29390Y-16887D01*
X29375Y-16902D01*
X29345Y-16917D01*
X29270Y-16917D01*
X29240Y-16902D01*
X29225Y-16887D01*
X29495Y-16602D02*
X29600Y-16917D01*
X29705Y-16602D01*
X29810Y-16707D02*
X29810Y-17022D01*
X29810Y-16722D02*
X29840Y-16707D01*
X29900Y-16707D01*
X29930Y-16722D01*
X29944Y-16737D01*
X29959Y-16767D01*
X29959Y-16857D01*
X29944Y-16887D01*
X29930Y-16902D01*
X29900Y-16917D01*
X29840Y-16917D01*
X29810Y-16902D01*
X30094Y-16797D02*
X30334Y-16797D01*
X30484Y-16707D02*
X30484Y-17022D01*
X30484Y-16722D02*
X30514Y-16707D01*
X30574Y-16707D01*
X30604Y-16722D01*
X30619Y-16737D01*
X30634Y-16767D01*
X30634Y-16857D01*
X30619Y-16887D01*
X30604Y-16902D01*
X30574Y-16917D01*
X30514Y-16917D01*
X30484Y-16902D01*
G54D12*
X10492Y-20454D02*
X10543Y-20475D01*
X10627Y-20475D01*
X10661Y-20454D01*
X10678Y-20434D01*
X10694Y-20392D01*
X10694Y-20351D01*
X10678Y-20310D01*
X10661Y-20289D01*
X10627Y-20269D01*
X10559Y-20248D01*
X10526Y-20227D01*
X10509Y-20207D01*
X10492Y-20165D01*
X10492Y-20124D01*
X10509Y-20083D01*
X10526Y-20062D01*
X10559Y-20042D01*
X10644Y-20042D01*
X10694Y-20062D01*
X10846Y-20475D02*
X10846Y-20186D01*
X10846Y-20042D02*
X10829Y-20062D01*
X10846Y-20083D01*
X10863Y-20062D01*
X10846Y-20042D01*
X10846Y-20083D01*
X11167Y-20186D02*
X11167Y-20537D01*
X11150Y-20578D01*
X11133Y-20599D01*
X11099Y-20619D01*
X11049Y-20619D01*
X11015Y-20599D01*
X11167Y-20454D02*
X11133Y-20475D01*
X11066Y-20475D01*
X11032Y-20454D01*
X11015Y-20434D01*
X10998Y-20392D01*
X10998Y-20269D01*
X11015Y-20227D01*
X11032Y-20207D01*
X11066Y-20186D01*
X11133Y-20186D01*
X11167Y-20207D01*
X11336Y-20186D02*
X11336Y-20475D01*
X11336Y-20227D02*
X11353Y-20207D01*
X11386Y-20186D01*
X11437Y-20186D01*
X11471Y-20207D01*
X11487Y-20248D01*
X11487Y-20475D01*
X11808Y-20475D02*
X11808Y-20248D01*
X11791Y-20207D01*
X11757Y-20186D01*
X11690Y-20186D01*
X11656Y-20207D01*
X11808Y-20454D02*
X11774Y-20475D01*
X11690Y-20475D01*
X11656Y-20454D01*
X11639Y-20413D01*
X11639Y-20372D01*
X11656Y-20330D01*
X11690Y-20310D01*
X11774Y-20310D01*
X11808Y-20289D01*
X12027Y-20475D02*
X11994Y-20454D01*
X11977Y-20413D01*
X11977Y-20042D01*
X12618Y-20062D02*
X12584Y-20042D01*
X12534Y-20042D01*
X12483Y-20062D01*
X12449Y-20104D01*
X12432Y-20145D01*
X12416Y-20227D01*
X12416Y-20289D01*
X12432Y-20372D01*
X12449Y-20413D01*
X12483Y-20454D01*
X12534Y-20475D01*
X12567Y-20475D01*
X12618Y-20454D01*
X12635Y-20434D01*
X12635Y-20289D01*
X12567Y-20289D01*
X12922Y-20454D02*
X12888Y-20475D01*
X12820Y-20475D01*
X12787Y-20454D01*
X12770Y-20413D01*
X12770Y-20248D01*
X12787Y-20207D01*
X12820Y-20186D01*
X12888Y-20186D01*
X12922Y-20207D01*
X12939Y-20248D01*
X12939Y-20289D01*
X12770Y-20330D01*
X13090Y-20186D02*
X13090Y-20475D01*
X13090Y-20227D02*
X13107Y-20207D01*
X13141Y-20186D01*
X13192Y-20186D01*
X13225Y-20207D01*
X13242Y-20248D01*
X13242Y-20475D01*
X13546Y-20454D02*
X13512Y-20475D01*
X13445Y-20475D01*
X13411Y-20454D01*
X13394Y-20413D01*
X13394Y-20248D01*
X13411Y-20207D01*
X13445Y-20186D01*
X13512Y-20186D01*
X13546Y-20207D01*
X13563Y-20248D01*
X13563Y-20289D01*
X13394Y-20330D01*
X13715Y-20475D02*
X13715Y-20186D01*
X13715Y-20269D02*
X13732Y-20227D01*
X13748Y-20207D01*
X13782Y-20186D01*
X13816Y-20186D01*
X14086Y-20475D02*
X14086Y-20248D01*
X14069Y-20207D01*
X14035Y-20186D01*
X13968Y-20186D01*
X13934Y-20207D01*
X14086Y-20454D02*
X14052Y-20475D01*
X13968Y-20475D01*
X13934Y-20454D01*
X13917Y-20413D01*
X13917Y-20372D01*
X13934Y-20330D01*
X13968Y-20310D01*
X14052Y-20310D01*
X14086Y-20289D01*
X14204Y-20186D02*
X14339Y-20186D01*
X14255Y-20042D02*
X14255Y-20413D01*
X14272Y-20454D01*
X14305Y-20475D01*
X14339Y-20475D01*
X14508Y-20475D02*
X14474Y-20454D01*
X14457Y-20434D01*
X14440Y-20392D01*
X14440Y-20269D01*
X14457Y-20227D01*
X14474Y-20207D01*
X14508Y-20186D01*
X14558Y-20186D01*
X14592Y-20207D01*
X14609Y-20227D01*
X14626Y-20269D01*
X14626Y-20392D01*
X14609Y-20434D01*
X14592Y-20454D01*
X14558Y-20475D01*
X14508Y-20475D01*
X14778Y-20475D02*
X14778Y-20186D01*
X14778Y-20269D02*
X14795Y-20227D01*
X14811Y-20207D01*
X14845Y-20186D01*
X14879Y-20186D01*
X10627Y-20928D02*
X10678Y-20949D01*
X10694Y-20969D01*
X10711Y-21011D01*
X10711Y-21072D01*
X10694Y-21114D01*
X10678Y-21134D01*
X10644Y-21155D01*
X10509Y-21155D01*
X10509Y-20722D01*
X10627Y-20722D01*
X10661Y-20742D01*
X10678Y-20763D01*
X10694Y-20804D01*
X10694Y-20846D01*
X10678Y-20887D01*
X10661Y-20907D01*
X10627Y-20928D01*
X10509Y-20928D01*
X10914Y-21155D02*
X10880Y-21134D01*
X10863Y-21114D01*
X10846Y-21072D01*
X10846Y-20949D01*
X10863Y-20907D01*
X10880Y-20887D01*
X10914Y-20866D01*
X10964Y-20866D01*
X10998Y-20887D01*
X11015Y-20907D01*
X11032Y-20949D01*
X11032Y-21072D01*
X11015Y-21114D01*
X10998Y-21134D01*
X10964Y-21155D01*
X10914Y-21155D01*
X11336Y-21155D02*
X11336Y-20928D01*
X11319Y-20887D01*
X11285Y-20866D01*
X11218Y-20866D01*
X11184Y-20887D01*
X11336Y-21134D02*
X11302Y-21155D01*
X11218Y-21155D01*
X11184Y-21134D01*
X11167Y-21093D01*
X11167Y-21052D01*
X11184Y-21011D01*
X11218Y-20990D01*
X11302Y-20990D01*
X11336Y-20969D01*
X11504Y-21155D02*
X11504Y-20866D01*
X11504Y-20949D02*
X11521Y-20907D01*
X11538Y-20887D01*
X11572Y-20866D01*
X11606Y-20866D01*
X11876Y-21155D02*
X11876Y-20722D01*
X11876Y-21134D02*
X11842Y-21155D01*
X11774Y-21155D01*
X11741Y-21134D01*
X11724Y-21114D01*
X11707Y-21072D01*
X11707Y-20949D01*
X11724Y-20907D01*
X11741Y-20887D01*
X11774Y-20866D01*
X11842Y-20866D01*
X11876Y-20887D01*
X12281Y-20866D02*
X12365Y-21155D01*
X12449Y-20866D01*
X12770Y-21155D02*
X12567Y-21155D01*
X12669Y-21155D02*
X12669Y-20722D01*
X12635Y-20784D01*
X12601Y-20825D01*
X12567Y-20846D01*
X12922Y-21114D02*
X12939Y-21134D01*
X12922Y-21155D01*
X12905Y-21134D01*
X12922Y-21114D01*
X12922Y-21155D01*
X13158Y-20722D02*
X13192Y-20722D01*
X13225Y-20742D01*
X13242Y-20763D01*
X13259Y-20804D01*
X13276Y-20887D01*
X13276Y-20990D01*
X13259Y-21072D01*
X13242Y-21114D01*
X13225Y-21134D01*
X13192Y-21155D01*
X13158Y-21155D01*
X13124Y-21134D01*
X13107Y-21114D01*
X13090Y-21072D01*
X13074Y-20990D01*
X13074Y-20887D01*
X13090Y-20804D01*
X13107Y-20763D01*
X13124Y-20742D01*
X13158Y-20722D01*
X10509Y-21835D02*
X10509Y-21402D01*
X10661Y-21835D02*
X10661Y-21608D01*
X10644Y-21567D01*
X10610Y-21546D01*
X10559Y-21546D01*
X10526Y-21567D01*
X10509Y-21588D01*
X10779Y-21546D02*
X10914Y-21546D01*
X10829Y-21402D02*
X10829Y-21773D01*
X10846Y-21814D01*
X10880Y-21835D01*
X10914Y-21835D01*
X10981Y-21546D02*
X11116Y-21546D01*
X11032Y-21402D02*
X11032Y-21773D01*
X11049Y-21814D01*
X11083Y-21835D01*
X11116Y-21835D01*
X11234Y-21546D02*
X11234Y-21979D01*
X11234Y-21567D02*
X11268Y-21546D01*
X11336Y-21546D01*
X11369Y-21567D01*
X11386Y-21588D01*
X11403Y-21629D01*
X11403Y-21753D01*
X11386Y-21794D01*
X11369Y-21814D01*
X11336Y-21835D01*
X11268Y-21835D01*
X11234Y-21814D01*
X11555Y-21794D02*
X11572Y-21814D01*
X11555Y-21835D01*
X11538Y-21814D01*
X11555Y-21794D01*
X11555Y-21835D01*
X11555Y-21567D02*
X11572Y-21588D01*
X11555Y-21608D01*
X11538Y-21588D01*
X11555Y-21567D01*
X11555Y-21608D01*
X11977Y-21381D02*
X11673Y-21938D01*
X12348Y-21381D02*
X12044Y-21938D01*
X12466Y-21835D02*
X12466Y-21546D01*
X12466Y-21588D02*
X12483Y-21567D01*
X12517Y-21546D01*
X12567Y-21546D01*
X12601Y-21567D01*
X12618Y-21608D01*
X12618Y-21835D01*
X12618Y-21608D02*
X12635Y-21567D01*
X12669Y-21546D01*
X12719Y-21546D01*
X12753Y-21567D01*
X12770Y-21608D01*
X12770Y-21835D01*
X12939Y-21835D02*
X12939Y-21546D01*
X12939Y-21402D02*
X12922Y-21423D01*
X12939Y-21443D01*
X12955Y-21423D01*
X12939Y-21402D01*
X12939Y-21443D01*
X13259Y-21814D02*
X13225Y-21835D01*
X13158Y-21835D01*
X13124Y-21814D01*
X13107Y-21794D01*
X13090Y-21753D01*
X13090Y-21629D01*
X13107Y-21588D01*
X13124Y-21567D01*
X13158Y-21546D01*
X13225Y-21546D01*
X13259Y-21567D01*
X13411Y-21835D02*
X13411Y-21546D01*
X13411Y-21629D02*
X13428Y-21588D01*
X13445Y-21567D01*
X13478Y-21546D01*
X13512Y-21546D01*
X13681Y-21835D02*
X13647Y-21814D01*
X13630Y-21794D01*
X13613Y-21753D01*
X13613Y-21629D01*
X13630Y-21588D01*
X13647Y-21567D01*
X13681Y-21546D01*
X13732Y-21546D01*
X13765Y-21567D01*
X13782Y-21588D01*
X13799Y-21629D01*
X13799Y-21753D01*
X13782Y-21794D01*
X13765Y-21814D01*
X13732Y-21835D01*
X13681Y-21835D01*
X13900Y-21546D02*
X14035Y-21546D01*
X13951Y-21835D02*
X13951Y-21464D01*
X13968Y-21423D01*
X14002Y-21402D01*
X14035Y-21402D01*
X14204Y-21835D02*
X14170Y-21814D01*
X14153Y-21773D01*
X14153Y-21402D01*
X14491Y-21546D02*
X14491Y-21835D01*
X14339Y-21546D02*
X14339Y-21773D01*
X14356Y-21814D01*
X14390Y-21835D01*
X14440Y-21835D01*
X14474Y-21814D01*
X14491Y-21794D01*
X14660Y-21835D02*
X14660Y-21546D01*
X14660Y-21402D02*
X14643Y-21423D01*
X14660Y-21443D01*
X14676Y-21423D01*
X14660Y-21402D01*
X14660Y-21443D01*
X14980Y-21835D02*
X14980Y-21402D01*
X14980Y-21814D02*
X14946Y-21835D01*
X14879Y-21835D01*
X14845Y-21814D01*
X14828Y-21794D01*
X14811Y-21753D01*
X14811Y-21629D01*
X14828Y-21588D01*
X14845Y-21567D01*
X14879Y-21546D01*
X14946Y-21546D01*
X14980Y-21567D01*
X15149Y-21835D02*
X15149Y-21546D01*
X15149Y-21402D02*
X15132Y-21423D01*
X15149Y-21443D01*
X15166Y-21423D01*
X15149Y-21402D01*
X15149Y-21443D01*
X15469Y-21814D02*
X15436Y-21835D01*
X15368Y-21835D01*
X15335Y-21814D01*
X15318Y-21794D01*
X15301Y-21753D01*
X15301Y-21629D01*
X15318Y-21588D01*
X15335Y-21567D01*
X15368Y-21546D01*
X15436Y-21546D01*
X15469Y-21567D01*
X15604Y-21814D02*
X15638Y-21835D01*
X15706Y-21835D01*
X15739Y-21814D01*
X15756Y-21773D01*
X15756Y-21753D01*
X15739Y-21711D01*
X15706Y-21691D01*
X15655Y-21691D01*
X15621Y-21670D01*
X15604Y-21629D01*
X15604Y-21608D01*
X15621Y-21567D01*
X15655Y-21546D01*
X15706Y-21546D01*
X15739Y-21567D01*
X15908Y-21794D02*
X15925Y-21814D01*
X15908Y-21835D01*
X15891Y-21814D01*
X15908Y-21794D01*
X15908Y-21835D01*
X16229Y-21546D02*
X16229Y-21835D01*
X16077Y-21546D02*
X16077Y-21773D01*
X16094Y-21814D01*
X16128Y-21835D01*
X16178Y-21835D01*
X16212Y-21814D01*
X16229Y-21794D01*
X16347Y-21546D02*
X16482Y-21546D01*
X16398Y-21402D02*
X16398Y-21773D01*
X16414Y-21814D01*
X16448Y-21835D01*
X16482Y-21835D01*
X16651Y-21835D02*
X16617Y-21814D01*
X16600Y-21794D01*
X16583Y-21753D01*
X16583Y-21629D01*
X16600Y-21588D01*
X16617Y-21567D01*
X16651Y-21546D01*
X16701Y-21546D01*
X16735Y-21567D01*
X16752Y-21588D01*
X16769Y-21629D01*
X16769Y-21753D01*
X16752Y-21794D01*
X16735Y-21814D01*
X16701Y-21835D01*
X16651Y-21835D01*
X16921Y-21835D02*
X16921Y-21546D01*
X16921Y-21629D02*
X16937Y-21588D01*
X16954Y-21567D01*
X16988Y-21546D01*
X17022Y-21546D01*
X17191Y-21835D02*
X17157Y-21814D01*
X17140Y-21794D01*
X17123Y-21753D01*
X17123Y-21629D01*
X17140Y-21588D01*
X17157Y-21567D01*
X17191Y-21546D01*
X17241Y-21546D01*
X17275Y-21567D01*
X17292Y-21588D01*
X17309Y-21629D01*
X17309Y-21753D01*
X17292Y-21794D01*
X17275Y-21814D01*
X17241Y-21835D01*
X17191Y-21835D01*
X17460Y-21546D02*
X17460Y-21835D01*
X17460Y-21588D02*
X17477Y-21567D01*
X17511Y-21546D01*
X17562Y-21546D01*
X17595Y-21567D01*
X17612Y-21608D01*
X17612Y-21835D01*
X17730Y-21546D02*
X17865Y-21546D01*
X17781Y-21402D02*
X17781Y-21773D01*
X17798Y-21814D01*
X17832Y-21835D01*
X17865Y-21835D01*
X18034Y-21835D02*
X18000Y-21814D01*
X17984Y-21794D01*
X17967Y-21753D01*
X17967Y-21629D01*
X17984Y-21588D01*
X18000Y-21567D01*
X18034Y-21546D01*
X18085Y-21546D01*
X18119Y-21567D01*
X18135Y-21588D01*
X18152Y-21629D01*
X18152Y-21753D01*
X18135Y-21794D01*
X18119Y-21814D01*
X18085Y-21835D01*
X18034Y-21835D01*
X18304Y-21794D02*
X18321Y-21814D01*
X18304Y-21835D01*
X18287Y-21814D01*
X18304Y-21794D01*
X18304Y-21835D01*
X18625Y-21814D02*
X18591Y-21835D01*
X18523Y-21835D01*
X18490Y-21814D01*
X18473Y-21794D01*
X18456Y-21753D01*
X18456Y-21629D01*
X18473Y-21588D01*
X18490Y-21567D01*
X18523Y-21546D01*
X18591Y-21546D01*
X18625Y-21567D01*
X18928Y-21835D02*
X18928Y-21608D01*
X18912Y-21567D01*
X18878Y-21546D01*
X18810Y-21546D01*
X18777Y-21567D01*
X18928Y-21814D02*
X18895Y-21835D01*
X18810Y-21835D01*
X18777Y-21814D01*
X18760Y-21773D01*
X18760Y-21732D01*
X18777Y-21691D01*
X18810Y-21670D01*
X18895Y-21670D01*
X18928Y-21649D01*
X19350Y-21381D02*
X19047Y-21938D01*
X19620Y-21835D02*
X19620Y-21402D01*
X19620Y-21814D02*
X19586Y-21835D01*
X19519Y-21835D01*
X19485Y-21814D01*
X19468Y-21794D01*
X19451Y-21753D01*
X19451Y-21629D01*
X19468Y-21588D01*
X19485Y-21567D01*
X19519Y-21546D01*
X19586Y-21546D01*
X19620Y-21567D01*
X19789Y-21835D02*
X19789Y-21546D01*
X19789Y-21629D02*
X19806Y-21588D01*
X19823Y-21567D01*
X19856Y-21546D01*
X19890Y-21546D01*
X20059Y-21835D02*
X20025Y-21814D01*
X20008Y-21794D01*
X19991Y-21753D01*
X19991Y-21629D01*
X20008Y-21588D01*
X20025Y-21567D01*
X20059Y-21546D01*
X20110Y-21546D01*
X20143Y-21567D01*
X20160Y-21588D01*
X20177Y-21629D01*
X20177Y-21753D01*
X20160Y-21794D01*
X20143Y-21814D01*
X20110Y-21835D01*
X20059Y-21835D01*
X20329Y-21546D02*
X20329Y-21979D01*
X20329Y-21567D02*
X20363Y-21546D01*
X20430Y-21546D01*
X20464Y-21567D01*
X20481Y-21588D01*
X20498Y-21629D01*
X20498Y-21753D01*
X20481Y-21794D01*
X20464Y-21814D01*
X20430Y-21835D01*
X20363Y-21835D01*
X20329Y-21814D01*
X20649Y-21835D02*
X20649Y-21402D01*
X20649Y-21567D02*
X20683Y-21546D01*
X20751Y-21546D01*
X20784Y-21567D01*
X20801Y-21588D01*
X20818Y-21629D01*
X20818Y-21753D01*
X20801Y-21794D01*
X20784Y-21814D01*
X20751Y-21835D01*
X20683Y-21835D01*
X20649Y-21814D01*
X21021Y-21835D02*
X20987Y-21814D01*
X20970Y-21794D01*
X20953Y-21753D01*
X20953Y-21629D01*
X20970Y-21588D01*
X20987Y-21567D01*
X21021Y-21546D01*
X21071Y-21546D01*
X21105Y-21567D01*
X21122Y-21588D01*
X21139Y-21629D01*
X21139Y-21753D01*
X21122Y-21794D01*
X21105Y-21814D01*
X21071Y-21835D01*
X21021Y-21835D01*
X21240Y-21546D02*
X21375Y-21546D01*
X21291Y-21402D02*
X21291Y-21773D01*
X21308Y-21814D01*
X21341Y-21835D01*
X21375Y-21835D01*
G54D13*
X12500Y-24750D02*
X12500Y-26550D01*
X12500Y-26550D02*
X12000Y-27050D01*
X12000Y-27050D02*
X11200Y-27050D01*
X11200Y-27050D02*
X10700Y-26550D01*
X10700Y-26550D02*
X10700Y-24750D01*
X21100Y-24750D02*
X21100Y-26550D01*
X21100Y-26550D02*
X20600Y-27050D01*
X20600Y-27050D02*
X19700Y-27050D01*
X19700Y-27050D02*
X19200Y-26550D01*
X19200Y-26550D02*
X19200Y-24750D01*
X21900Y-24750D02*
X21900Y-27500D01*
X21900Y-24750D02*
X9900Y-24750D01*
X9900Y-24750D02*
X9900Y-27500D01*
X19300Y-13000D02*
X19300Y-11200D01*
X19300Y-11200D02*
X19800Y-10700D01*
X19800Y-10700D02*
X20600Y-10700D01*
X20600Y-10700D02*
X21100Y-11200D01*
X21100Y-11200D02*
X21100Y-13000D01*
X10700Y-13000D02*
X10700Y-11200D01*
X10700Y-11200D02*
X11200Y-10700D01*
X11200Y-10700D02*
X12100Y-10700D01*
X12100Y-10700D02*
X12600Y-11200D01*
X12600Y-11200D02*
X12600Y-13000D01*
X9900Y-13000D02*
X9900Y-10250D01*
X9900Y-13000D02*
X21900Y-13000D01*
X21900Y-13000D02*
X21900Y-10250D01*
G54D14*
X32250Y-19300D02*
X32250Y-19250D01*
X32250Y-19250D02*
X30150Y-19250D01*
X30150Y-20750D02*
X32250Y-20750D01*
X32250Y-20750D02*
X32250Y-19300D01*
X32250Y-20200D02*
X32050Y-20200D01*
X32050Y-20200D02*
X32050Y-19800D01*
X32050Y-19800D02*
X32250Y-19800D01*
X30150Y-20750D02*
X30150Y-19250D01*
G54D15*
X37750Y-24550D02*
X41550Y-24550D01*
X41550Y-24550D02*
X41550Y-26050D01*
X41550Y-26050D02*
X37750Y-26050D01*
X37750Y-26050D02*
X37750Y-24550D01*
X37750Y-25050D02*
X38050Y-25050D01*
X38050Y-25050D02*
X38050Y-25450D01*
X38050Y-25450D02*
X37750Y-25450D01*
G54D14*
X34060Y-12720D02*
X34960Y-12720D01*
X34960Y-12720D02*
X34960Y-12070D01*
X34060Y-11370D02*
X34060Y-10720D01*
X34060Y-10720D02*
X34960Y-10720D01*
X34960Y-10720D02*
X34960Y-11370D01*
X34060Y-12070D02*
X34060Y-12720D01*
X31300Y-17450D02*
X31300Y-18350D01*
X31300Y-18350D02*
X31950Y-18350D01*
X32650Y-17450D02*
X33300Y-17450D01*
X33300Y-17450D02*
X33300Y-18350D01*
X33300Y-18350D02*
X32650Y-18350D01*
X31950Y-17450D02*
X31300Y-17450D01*
X48470Y-11780D02*
X48470Y-12680D01*
X48470Y-12680D02*
X47970Y-12680D01*
X47970Y-12680D02*
X47970Y-11780D01*
X47970Y-11780D02*
X48470Y-11780D01*
X48090Y-19220D02*
X48090Y-18320D01*
X48090Y-18320D02*
X48590Y-18320D01*
X48590Y-18320D02*
X48590Y-19220D01*
X48590Y-19220D02*
X48090Y-19220D01*
X47060Y-24480D02*
X47960Y-24480D01*
X47960Y-24480D02*
X47960Y-24980D01*
X47960Y-24980D02*
X47060Y-24980D01*
X47060Y-24980D02*
X47060Y-24480D01*
G54D16*
X22900Y-16400D02*
X28900Y-16400D01*
X28900Y-16400D02*
X28900Y-10400D01*
X28900Y-10400D02*
X22900Y-10400D01*
X22900Y-10400D02*
X22900Y-16400D01*
G54D17*
X48423Y-13489D02*
X48423Y-15851D01*
X48423Y-15851D02*
X46257Y-15851D01*
X46257Y-15851D02*
X46257Y-13489D01*
X46257Y-13489D02*
X48423Y-13489D01*
G54D18*
X48127Y-14670D02*
G75*
G03X48127Y-14670I-787J0D01*
G74*
G01*
G54D14*
X34400Y-19450D02*
X34400Y-18550D01*
X34400Y-18550D02*
X33750Y-18550D01*
X33050Y-19450D02*
X32400Y-19450D01*
X32400Y-19450D02*
X32400Y-18550D01*
X32400Y-18550D02*
X33050Y-18550D01*
X33750Y-19450D02*
X34400Y-19450D01*
X32350Y-21800D02*
X33250Y-21800D01*
X33250Y-21800D02*
X33250Y-21150D01*
X32350Y-20450D02*
X32350Y-19800D01*
X32350Y-19800D02*
X33250Y-19800D01*
X33250Y-19800D02*
X33250Y-20450D01*
X32350Y-21150D02*
X32350Y-21800D01*
G54D15*
X30730Y-10700D02*
X33730Y-10700D01*
X33730Y-12700D02*
X30730Y-12700D01*
X30730Y-12700D02*
X30730Y-10700D01*
X33730Y-10700D02*
X33730Y-12700D01*
G54D13*
X42720Y-11480D02*
X42720Y-10480D01*
X42720Y-10480D02*
X48720Y-10480D01*
X48720Y-10480D02*
X48720Y-11480D01*
X48720Y-11480D02*
X42720Y-11480D01*
X43720Y-11480D02*
X43720Y-10480D01*
G54D17*
X31540Y-14000D02*
X45540Y-14000D01*
X45540Y-16000D02*
X31540Y-16000D01*
G54D16*
X31540Y-16000D02*
X31540Y-14000D01*
X45540Y-14000D02*
X45540Y-16000D01*
X45540Y-15500D02*
X45040Y-15500D01*
X45040Y-15500D02*
X45040Y-14500D01*
X45040Y-14500D02*
X45540Y-14500D01*
G54D15*
X47455Y-18205D02*
X47955Y-18680D01*
X47955Y-18205D02*
X46705Y-18205D01*
X46705Y-18205D02*
X46705Y-19455D01*
X46705Y-19455D02*
X47955Y-19455D01*
X47955Y-19455D02*
X47955Y-18205D01*
G54D14*
X30250Y-17950D02*
X31150Y-17950D01*
X31150Y-17950D02*
X31150Y-18450D01*
X31150Y-18450D02*
X30250Y-18450D01*
X30250Y-18450D02*
X30250Y-17950D01*
X30340Y-21540D02*
X31240Y-21540D01*
X31240Y-21540D02*
X31240Y-22040D01*
X31240Y-22040D02*
X30340Y-22040D01*
X30340Y-22040D02*
X30340Y-21540D01*
X41840Y-10770D02*
X40940Y-10770D01*
X40940Y-10770D02*
X40940Y-11420D01*
X41840Y-12120D02*
X41840Y-12770D01*
X41840Y-12770D02*
X40940Y-12770D01*
X40940Y-12770D02*
X40940Y-12120D01*
X41840Y-11420D02*
X41840Y-10770D01*
X10700Y-22230D02*
X10700Y-23130D01*
X10700Y-23130D02*
X11350Y-23130D01*
X12050Y-22230D02*
X12700Y-22230D01*
X12700Y-22230D02*
X12700Y-23130D01*
X12700Y-23130D02*
X12050Y-23130D01*
X11350Y-22230D02*
X10700Y-22230D01*
G54D19*
X11551Y-23739D02*
X11629Y-23739D01*
X11629Y-23739D02*
X11629Y-23661D01*
X11551Y-23661D02*
X11629Y-23661D01*
X11551Y-23739D02*
X11551Y-23661D01*
X11767Y-23975D02*
X11904Y-23975D01*
X11904Y-23975D02*
X11904Y-23877D01*
X11767Y-23877D02*
X11904Y-23877D01*
X11767Y-23975D02*
X11767Y-23877D01*
X11904Y-23975D02*
X11944Y-23975D01*
X11944Y-23975D02*
X11944Y-23504D01*
X11904Y-23504D02*
X11944Y-23504D01*
X11904Y-23975D02*
X11904Y-23504D01*
X11904Y-23484D02*
X11944Y-23484D01*
X11944Y-23484D02*
X11944Y-23425D01*
X11904Y-23425D02*
X11944Y-23425D01*
X11904Y-23484D02*
X11904Y-23425D01*
X11236Y-23975D02*
X11276Y-23975D01*
X11276Y-23975D02*
X11276Y-23504D01*
X11236Y-23504D02*
X11276Y-23504D01*
X11236Y-23975D02*
X11236Y-23504D01*
X11236Y-23484D02*
X11276Y-23484D01*
X11276Y-23484D02*
X11276Y-23425D01*
X11236Y-23425D02*
X11276Y-23425D01*
X11236Y-23484D02*
X11236Y-23425D01*
X11767Y-23975D02*
X11826Y-23975D01*
X11826Y-23975D02*
X11826Y-23877D01*
X11767Y-23877D02*
X11826Y-23877D01*
X11767Y-23975D02*
X11767Y-23877D01*
G54D20*
X12200Y-23995D02*
X10980Y-23995D01*
X10980Y-23995D02*
X10980Y-23405D01*
X10980Y-23405D02*
X12200Y-23405D01*
X12200Y-23405D02*
X12200Y-23995D01*
X11374Y-23896D02*
G75*
G03X11806Y-23895I215J196D01*
G74*
G01*
X11374Y-23503D02*
G75*
G03X11373Y-23895I215J-196D01*
G74*
G01*
X11805Y-23503D02*
G75*
G03X11373Y-23504I-215J-196D01*
G74*
G01*
X11805Y-23896D02*
G75*
G03X11806Y-23504I-215J196D01*
G74*
G01*
G54D21*
G36*
X17325Y-19216D02*
X17325Y-19316D01*
X17325Y-19416D01*
X17092Y-19416D01*
X16964Y-19420D01*
X16887Y-19431D01*
X16844Y-19455D01*
X16827Y-19478D01*
X16812Y-19542D01*
X16850Y-19585D01*
X16944Y-19609D01*
X17098Y-19616D01*
X17325Y-19616D01*
X17325Y-19717D01*
X17325Y-19818D01*
X16466Y-19809D01*
X15608Y-19800D01*
X15600Y-19594D01*
X15604Y-19435D01*
X15636Y-19329D01*
X15706Y-19267D01*
X15822Y-19239D01*
X15934Y-19234D01*
X16098Y-19245D01*
X16207Y-19284D01*
X16269Y-19356D01*
X16284Y-19433D01*
X15941Y-19433D01*
X15842Y-19436D01*
X15793Y-19450D01*
X15776Y-19483D01*
X15775Y-19516D01*
X15783Y-19572D01*
X15823Y-19599D01*
X15903Y-19610D01*
X16028Y-19612D01*
X16097Y-19588D01*
X16120Y-19535D01*
X16119Y-19508D01*
X16104Y-19463D01*
X16066Y-19441D01*
X15987Y-19434D01*
X15941Y-19433D01*
X16284Y-19433D01*
X16291Y-19467D01*
X16291Y-19488D01*
X16291Y-19616D01*
X16471Y-19616D01*
X16651Y-19616D01*
X16648Y-19496D01*
X16661Y-19391D01*
X16720Y-19310D01*
X16736Y-19296D01*
X16795Y-19253D01*
X16861Y-19229D01*
X16957Y-19219D01*
X17076Y-19216D01*
X17325Y-19216D01*
X17325Y-19216D01*
X17325Y-19216D01*
G37*
G36*
X17325Y-18616D02*
X17325Y-18789D01*
X17116Y-18789D01*
X17074Y-18797D01*
X17059Y-18851D01*
X17058Y-18879D01*
X17073Y-18969D01*
X17113Y-19009D01*
X17160Y-18999D01*
X17186Y-18949D01*
X17181Y-18876D01*
X17151Y-18812D01*
X17116Y-18789D01*
X17325Y-18789D01*
X17325Y-18845D01*
X17320Y-18979D01*
X17305Y-19064D01*
X17274Y-19117D01*
X17264Y-19128D01*
X17165Y-19178D01*
X17056Y-19164D01*
X16999Y-19131D01*
X16948Y-19078D01*
X16927Y-18997D01*
X16925Y-18931D01*
X16918Y-18834D01*
X16896Y-18789D01*
X16873Y-18783D01*
X16818Y-18810D01*
X16797Y-18877D01*
X16816Y-18962D01*
X16829Y-19037D01*
X16809Y-19101D01*
X16766Y-19135D01*
X16713Y-19121D01*
X16666Y-19045D01*
X16645Y-18935D01*
X16651Y-18815D01*
X16681Y-18709D01*
X16732Y-18644D01*
X16784Y-18632D01*
X16883Y-18622D01*
X17011Y-18617D01*
X17050Y-18617D01*
X17325Y-18616D01*
X17325Y-18616D01*
X17325Y-18616D01*
G37*
G36*
X17325Y-17483D02*
X17325Y-17655D01*
X16985Y-17655D01*
X16889Y-17671D01*
X16823Y-17714D01*
X16813Y-17732D01*
X16819Y-17796D01*
X16872Y-17851D01*
X16955Y-17882D01*
X16979Y-17883D01*
X17087Y-17866D01*
X17157Y-17824D01*
X17182Y-17768D01*
X17157Y-17711D01*
X17087Y-17671D01*
X16985Y-17655D01*
X17325Y-17655D01*
X17325Y-17716D01*
X17322Y-17841D01*
X17312Y-17918D01*
X17288Y-17965D01*
X17246Y-18000D01*
X17242Y-18002D01*
X17156Y-18037D01*
X17031Y-18047D01*
X16962Y-18045D01*
X16851Y-18041D01*
X16797Y-18049D01*
X16793Y-18068D01*
X16796Y-18073D01*
X16820Y-18138D01*
X16819Y-18173D01*
X16820Y-18242D01*
X16856Y-18286D01*
X16937Y-18309D01*
X17073Y-18316D01*
X17093Y-18316D01*
X17325Y-18316D01*
X17325Y-18416D01*
X17325Y-18516D01*
X16995Y-18516D01*
X16666Y-18516D01*
X16649Y-18325D01*
X16646Y-18179D01*
X16665Y-18082D01*
X16672Y-18069D01*
X16696Y-18005D01*
X16677Y-17932D01*
X16668Y-17914D01*
X16641Y-17812D01*
X16656Y-17737D01*
X16673Y-17683D01*
X16660Y-17658D01*
X16603Y-17650D01*
X16540Y-17650D01*
X16448Y-17646D01*
X16405Y-17629D01*
X16392Y-17588D01*
X16391Y-17566D01*
X16391Y-17483D01*
X16858Y-17483D01*
X17325Y-17483D01*
X17325Y-17483D01*
X17325Y-17483D01*
G37*
G36*
X17325Y-15916D02*
X17325Y-16123D01*
X17116Y-16123D01*
X17071Y-16132D01*
X17058Y-16193D01*
X17058Y-16195D01*
X17075Y-16276D01*
X17118Y-16310D01*
X17160Y-16299D01*
X17186Y-16250D01*
X17177Y-16183D01*
X17138Y-16132D01*
X17116Y-16123D01*
X17325Y-16123D01*
X17325Y-16165D01*
X17322Y-16296D01*
X17312Y-16378D01*
X17291Y-16427D01*
X17253Y-16463D01*
X17250Y-16465D01*
X17142Y-16510D01*
X17046Y-16495D01*
X16971Y-16428D01*
X16930Y-16316D01*
X16925Y-16250D01*
X16917Y-16158D01*
X16890Y-16119D01*
X16873Y-16116D01*
X16819Y-16143D01*
X16796Y-16207D01*
X16816Y-16281D01*
X16817Y-16283D01*
X16834Y-16347D01*
X16802Y-16415D01*
X16768Y-16471D01*
X16763Y-16497D01*
X16798Y-16510D01*
X16881Y-16538D01*
X16997Y-16574D01*
X17041Y-16587D01*
X17173Y-16629D01*
X17254Y-16663D01*
X17297Y-16695D01*
X17315Y-16735D01*
X17318Y-16758D01*
X17319Y-16809D01*
X17296Y-16843D01*
X17235Y-16872D01*
X17135Y-16904D01*
X16941Y-16961D01*
X17125Y-17015D01*
X17231Y-17051D01*
X17289Y-17086D01*
X17314Y-17131D01*
X17318Y-17157D01*
X17319Y-17201D01*
X17302Y-17234D01*
X17254Y-17263D01*
X17165Y-17296D01*
X17052Y-17332D01*
X16918Y-17374D01*
X16805Y-17409D01*
X16730Y-17432D01*
X16716Y-17437D01*
X16674Y-17436D01*
X16659Y-17389D01*
X16658Y-17356D01*
X16663Y-17299D01*
X16688Y-17263D01*
X16749Y-17236D01*
X16850Y-17209D01*
X17041Y-17161D01*
X16850Y-17099D01*
X16740Y-17060D01*
X16681Y-17024D01*
X16659Y-16983D01*
X16658Y-16962D01*
X16669Y-16915D01*
X16711Y-16879D01*
X16798Y-16843D01*
X16847Y-16827D01*
X17036Y-16767D01*
X16855Y-16713D01*
X16749Y-16677D01*
X16692Y-16641D01*
X16668Y-16594D01*
X16664Y-16571D01*
X16667Y-16507D01*
X16687Y-16483D01*
X16699Y-16456D01*
X16680Y-16386D01*
X16672Y-16365D01*
X16640Y-16232D01*
X16651Y-16103D01*
X16700Y-15999D01*
X16736Y-15966D01*
X16822Y-15934D01*
X16970Y-15918D01*
X17065Y-15916D01*
X17325Y-15916D01*
X17325Y-15916D01*
X17325Y-15916D01*
G37*
G36*
X16716Y-15351D02*
X16766Y-15388D01*
X16803Y-15450D01*
X16811Y-15490D01*
X16821Y-15569D01*
X16854Y-15617D01*
X16921Y-15641D01*
X17036Y-15649D01*
X17093Y-15650D01*
X17214Y-15651D01*
X17284Y-15658D01*
X17315Y-15677D01*
X17324Y-15712D01*
X17325Y-15733D01*
X17325Y-15816D01*
X16990Y-15816D01*
X16656Y-15816D01*
X16655Y-15708D01*
X16653Y-15590D01*
X16651Y-15491D01*
X16656Y-15409D01*
X16670Y-15360D01*
X16671Y-15359D01*
X16716Y-15351D01*
X16716Y-15351D01*
X16716Y-15351D01*
G37*
G36*
X17058Y-14783D02*
X17058Y-14983D01*
X16878Y-14983D01*
X16827Y-15010D01*
X16806Y-15070D01*
X16826Y-15134D01*
X16828Y-15137D01*
X16881Y-15180D01*
X16914Y-15160D01*
X16925Y-15083D01*
X16911Y-15006D01*
X16878Y-14983D01*
X17058Y-14983D01*
X17058Y-14986D01*
X17065Y-15111D01*
X17087Y-15171D01*
X17123Y-15167D01*
X17172Y-15106D01*
X17188Y-15039D01*
X17163Y-14979D01*
X17136Y-14918D01*
X17157Y-14871D01*
X17170Y-14857D01*
X17231Y-14824D01*
X17279Y-14851D01*
X17312Y-14933D01*
X17324Y-15065D01*
X17325Y-15071D01*
X17321Y-15178D01*
X17304Y-15242D01*
X17263Y-15286D01*
X17216Y-15317D01*
X17078Y-15371D01*
X16936Y-15377D01*
X16807Y-15338D01*
X16707Y-15258D01*
X16660Y-15175D01*
X16644Y-15035D01*
X16685Y-14916D01*
X16775Y-14829D01*
X16904Y-14786D01*
X16949Y-14783D01*
X17058Y-14783D01*
X17058Y-14783D01*
X17058Y-14783D01*
G37*
G36*
X15929Y-19883D02*
X16058Y-19896D01*
X16168Y-19930D01*
X16203Y-19952D01*
X16272Y-20045D01*
X16273Y-20053D01*
X15920Y-20053D01*
X15822Y-20082D01*
X15780Y-20122D01*
X15766Y-20191D01*
X15808Y-20246D01*
X15897Y-20279D01*
X15956Y-20283D01*
X16057Y-20277D01*
X16107Y-20249D01*
X16124Y-20189D01*
X16125Y-20162D01*
X16100Y-20092D01*
X16045Y-20064D01*
X15920Y-20053D01*
X16273Y-20053D01*
X16296Y-20163D01*
X16276Y-20284D01*
X16214Y-20377D01*
X16112Y-20433D01*
X15979Y-20456D01*
X15839Y-20445D01*
X15719Y-20403D01*
X15673Y-20368D01*
X15608Y-20260D01*
X15598Y-20137D01*
X15640Y-20016D01*
X15722Y-19926D01*
X15808Y-19892D01*
X15929Y-19883D01*
X15929Y-19883D01*
X15929Y-19883D01*
G37*
G36*
X16025Y-18574D02*
X16025Y-18791D01*
X15816Y-18791D01*
X15784Y-18832D01*
X15775Y-18883D01*
X15790Y-18949D01*
X15816Y-18975D01*
X15848Y-18957D01*
X15858Y-18883D01*
X15847Y-18807D01*
X15816Y-18791D01*
X16025Y-18791D01*
X16025Y-18794D01*
X16027Y-18914D01*
X16037Y-18978D01*
X16057Y-18999D01*
X16072Y-18996D01*
X16130Y-18943D01*
X16137Y-18857D01*
X16118Y-18798D01*
X16097Y-18727D01*
X16122Y-18673D01*
X16137Y-18657D01*
X16184Y-18619D01*
X16218Y-18633D01*
X16243Y-18665D01*
X16281Y-18761D01*
X16290Y-18886D01*
X16269Y-19008D01*
X16230Y-19085D01*
X16171Y-19134D01*
X16081Y-19163D01*
X15981Y-19176D01*
X15870Y-19182D01*
X15799Y-19171D01*
X15741Y-19136D01*
X15693Y-19090D01*
X15614Y-18973D01*
X15595Y-18853D01*
X15630Y-18743D01*
X15716Y-18654D01*
X15847Y-18600D01*
X15883Y-18593D01*
X16025Y-18574D01*
X16025Y-18574D01*
X16025Y-18574D01*
G37*
G36*
X16023Y-17950D02*
X16156Y-17951D01*
X16235Y-17956D01*
X16275Y-17970D01*
X16289Y-17998D01*
X16291Y-18033D01*
X16287Y-18078D01*
X16265Y-18103D01*
X16210Y-18114D01*
X16106Y-18116D01*
X16081Y-18116D01*
X15921Y-18127D01*
X15815Y-18158D01*
X15766Y-18207D01*
X15778Y-18272D01*
X15778Y-18273D01*
X15814Y-18307D01*
X15880Y-18328D01*
X15992Y-18340D01*
X16053Y-18343D01*
X16177Y-18349D01*
X16248Y-18360D01*
X16281Y-18379D01*
X16291Y-18414D01*
X16291Y-18435D01*
X16289Y-18471D01*
X16275Y-18495D01*
X16237Y-18508D01*
X16163Y-18515D01*
X16041Y-18516D01*
X15945Y-18516D01*
X15598Y-18516D01*
X15598Y-18312D01*
X15602Y-18188D01*
X15620Y-18108D01*
X15658Y-18048D01*
X15676Y-18028D01*
X15724Y-17988D01*
X15780Y-17965D01*
X15862Y-17953D01*
X15988Y-17950D01*
X16023Y-17950D01*
X16023Y-17950D01*
X16023Y-17950D01*
G37*
G36*
X16069Y-17023D02*
X16165Y-17040D01*
X16225Y-17083D01*
X16271Y-17170D01*
X16290Y-17293D01*
X16281Y-17427D01*
X16243Y-17550D01*
X16237Y-17562D01*
X16199Y-17626D01*
X16169Y-17636D01*
X16126Y-17600D01*
X16120Y-17594D01*
X16080Y-17545D01*
X16077Y-17498D01*
X16108Y-17427D01*
X16139Y-17330D01*
X16130Y-17254D01*
X16085Y-17218D01*
X16071Y-17216D01*
X16035Y-17247D01*
X16025Y-17326D01*
X16001Y-17458D01*
X15934Y-17546D01*
X15828Y-17582D01*
X15808Y-17583D01*
X15697Y-17556D01*
X15624Y-17481D01*
X15593Y-17366D01*
X15609Y-17219D01*
X15628Y-17155D01*
X15674Y-17072D01*
X15729Y-17054D01*
X15791Y-17100D01*
X15816Y-17154D01*
X15793Y-17198D01*
X15768Y-17258D01*
X15765Y-17330D01*
X15783Y-17386D01*
X15807Y-17400D01*
X15833Y-17370D01*
X15856Y-17297D01*
X15861Y-17269D01*
X15904Y-17143D01*
X15978Y-17059D01*
X16069Y-17023D01*
X16069Y-17023D01*
X16069Y-17023D01*
G37*
G36*
X15951Y-16416D02*
X16072Y-16421D01*
X16149Y-16441D01*
X16206Y-16481D01*
X16219Y-16494D01*
X16267Y-16582D01*
X15966Y-16582D01*
X15870Y-16593D01*
X15798Y-16630D01*
X15765Y-16685D01*
X15780Y-16744D01*
X15850Y-16798D01*
X15959Y-16814D01*
X16045Y-16802D01*
X16103Y-16761D01*
X16126Y-16696D01*
X16109Y-16632D01*
X16072Y-16603D01*
X15966Y-16582D01*
X16267Y-16582D01*
X16278Y-16600D01*
X16293Y-16725D01*
X16262Y-16844D01*
X16214Y-16911D01*
X16149Y-16956D01*
X16063Y-16978D01*
X15946Y-16983D01*
X15780Y-16963D01*
X15666Y-16901D01*
X15604Y-16798D01*
X15591Y-16700D01*
X15616Y-16568D01*
X15692Y-16477D01*
X15820Y-16428D01*
X15951Y-16416D01*
X15951Y-16416D01*
X15951Y-16416D01*
G37*
G36*
X16291Y-15750D02*
X16291Y-15978D01*
X16288Y-16108D01*
X16274Y-16190D01*
X16245Y-16245D01*
X16221Y-16270D01*
X16171Y-16303D01*
X16101Y-16323D01*
X15994Y-16332D01*
X15879Y-16333D01*
X15746Y-16332D01*
X15664Y-16327D01*
X15622Y-16313D01*
X15604Y-16285D01*
X15597Y-16243D01*
X15587Y-16153D01*
X15847Y-16143D01*
X15978Y-16137D01*
X16055Y-16128D01*
X16094Y-16111D01*
X16107Y-16081D01*
X16108Y-16050D01*
X16104Y-16007D01*
X16083Y-15981D01*
X16032Y-15966D01*
X15935Y-15955D01*
X15858Y-15950D01*
X15731Y-15940D01*
X15655Y-15928D01*
X15617Y-15908D01*
X15602Y-15873D01*
X15597Y-15841D01*
X15587Y-15750D01*
X15939Y-15750D01*
X16291Y-15750D01*
X16291Y-15750D01*
X16291Y-15750D01*
G37*
G36*
X15664Y-15187D02*
X15715Y-15205D01*
X15761Y-15267D01*
X15766Y-15317D01*
X15770Y-15396D01*
X15812Y-15447D01*
X15900Y-15474D01*
X16043Y-15483D01*
X16062Y-15483D01*
X16183Y-15484D01*
X16251Y-15492D01*
X16282Y-15511D01*
X16291Y-15546D01*
X16291Y-15566D01*
X16291Y-15650D01*
X15945Y-15650D01*
X15598Y-15650D01*
X15598Y-15455D01*
X15604Y-15306D01*
X15626Y-15218D01*
X15664Y-15187D01*
X15664Y-15187D01*
X15664Y-15187D01*
G37*
G36*
X15718Y-14653D02*
X15758Y-14670D01*
X15778Y-14689D01*
X15813Y-14747D01*
X15794Y-14810D01*
X15761Y-14894D01*
X15775Y-14956D01*
X15810Y-14997D01*
X15888Y-15039D01*
X15986Y-15047D01*
X16069Y-15022D01*
X16085Y-15010D01*
X16117Y-14945D01*
X16122Y-14866D01*
X16098Y-14806D01*
X16089Y-14798D01*
X16079Y-14760D01*
X16111Y-14713D01*
X16158Y-14670D01*
X16197Y-14677D01*
X16230Y-14705D01*
X16280Y-14791D01*
X16294Y-14906D01*
X16273Y-15027D01*
X16217Y-15126D01*
X16209Y-15135D01*
X16141Y-15187D01*
X16056Y-15212D01*
X15957Y-15216D01*
X15844Y-15210D01*
X15766Y-15183D01*
X15693Y-15124D01*
X15684Y-15115D01*
X15619Y-15040D01*
X15596Y-14972D01*
X15601Y-14877D01*
X15625Y-14777D01*
X15662Y-14700D01*
X15672Y-14688D01*
X15718Y-14653D01*
X15718Y-14653D01*
X15718Y-14653D01*
G37*
G36*
X16025Y-14083D02*
X16025Y-14257D01*
X15821Y-14257D01*
X15816Y-14258D01*
X15774Y-14301D01*
X15767Y-14371D01*
X15795Y-14438D01*
X15806Y-14448D01*
X15840Y-14468D01*
X15855Y-14444D01*
X15858Y-14368D01*
X15849Y-14281D01*
X15821Y-14257D01*
X16025Y-14257D01*
X16025Y-14282D01*
X16028Y-14394D01*
X16039Y-14452D01*
X16062Y-14466D01*
X16072Y-14463D01*
X16130Y-14410D01*
X16137Y-14324D01*
X16118Y-14265D01*
X16097Y-14193D01*
X16122Y-14140D01*
X16137Y-14124D01*
X16184Y-14086D01*
X16218Y-14100D01*
X16243Y-14131D01*
X16286Y-14238D01*
X16291Y-14368D01*
X16259Y-14492D01*
X16209Y-14568D01*
X16141Y-14621D01*
X16056Y-14645D01*
X15957Y-14650D01*
X15843Y-14643D01*
X15765Y-14616D01*
X15693Y-14557D01*
X15689Y-14552D01*
X15612Y-14438D01*
X15594Y-14321D01*
X15628Y-14214D01*
X15710Y-14132D01*
X15832Y-14087D01*
X15890Y-14083D01*
X16025Y-14083D01*
X16025Y-14083D01*
X16025Y-14083D01*
G37*
G36*
X13488Y-14783D02*
X13510Y-14908D01*
X13530Y-15013D01*
X13555Y-15146D01*
X13571Y-15229D01*
X13609Y-15424D01*
X13854Y-15522D01*
X14098Y-15619D01*
X14369Y-15434D01*
X14639Y-15249D01*
X14882Y-15490D01*
X14983Y-15593D01*
X15064Y-15681D01*
X15113Y-15740D01*
X15125Y-15760D01*
X15107Y-15798D01*
X15058Y-15877D01*
X14989Y-15982D01*
X14951Y-16037D01*
X14870Y-16154D01*
X14822Y-16232D01*
X14802Y-16284D01*
X14806Y-16325D01*
X14828Y-16369D01*
X14834Y-16381D01*
X14874Y-16461D01*
X14891Y-16524D01*
X14891Y-16525D01*
X14860Y-16557D01*
X14769Y-16610D01*
X14622Y-16680D01*
X14422Y-16768D01*
X14357Y-16795D01*
X14181Y-16867D01*
X14026Y-16930D01*
X13903Y-16978D01*
X13821Y-17008D01*
X13793Y-17016D01*
X13759Y-16991D01*
X13708Y-16926D01*
X13691Y-16900D01*
X13568Y-16759D01*
X13411Y-16665D01*
X13233Y-16619D01*
X13047Y-16621D01*
X12867Y-16670D01*
X12705Y-16767D01*
X12592Y-16887D01*
X12501Y-17064D01*
X12468Y-17247D01*
X12489Y-17428D01*
X12558Y-17594D01*
X12670Y-17736D01*
X12819Y-17843D01*
X13000Y-17905D01*
X13124Y-17916D01*
X13307Y-17898D01*
X13458Y-17838D01*
X13597Y-17725D01*
X13647Y-17671D01*
X13722Y-17590D01*
X13780Y-17534D01*
X13806Y-17516D01*
X13857Y-17529D01*
X13952Y-17564D01*
X14080Y-17616D01*
X14229Y-17680D01*
X14387Y-17749D01*
X14542Y-17820D01*
X14682Y-17886D01*
X14794Y-17942D01*
X14868Y-17982D01*
X14891Y-18001D01*
X14876Y-18058D01*
X14838Y-18138D01*
X14834Y-18143D01*
X14778Y-18242D01*
X14951Y-18493D01*
X15027Y-18607D01*
X15087Y-18700D01*
X15120Y-18760D01*
X15125Y-18773D01*
X15102Y-18807D01*
X15042Y-18876D01*
X14956Y-18968D01*
X14899Y-19026D01*
X14797Y-19123D01*
X14709Y-19199D01*
X14647Y-19243D01*
X14629Y-19250D01*
X14584Y-19232D01*
X14500Y-19183D01*
X14392Y-19114D01*
X14345Y-19081D01*
X14103Y-18913D01*
X13856Y-19011D01*
X13609Y-19109D01*
X13571Y-19304D01*
X13545Y-19437D01*
X13521Y-19565D01*
X13510Y-19626D01*
X13488Y-19752D01*
X13132Y-19743D01*
X12776Y-19733D01*
X12713Y-19412D01*
X12651Y-19090D01*
X12446Y-19003D01*
X12334Y-18959D01*
X12243Y-18927D01*
X12195Y-18916D01*
X12148Y-18935D01*
X12064Y-18983D01*
X11959Y-19053D01*
X11939Y-19067D01*
X11831Y-19142D01*
X11738Y-19202D01*
X11679Y-19236D01*
X11674Y-19238D01*
X11626Y-19230D01*
X11549Y-19178D01*
X11438Y-19079D01*
X11388Y-19030D01*
X11290Y-18928D01*
X11212Y-18841D01*
X11166Y-18780D01*
X11158Y-18761D01*
X11176Y-18718D01*
X11224Y-18635D01*
X11294Y-18526D01*
X11336Y-18463D01*
X11515Y-18204D01*
X11433Y-18002D01*
X11388Y-17894D01*
X11349Y-17811D01*
X11327Y-17774D01*
X11285Y-17757D01*
X11194Y-17732D01*
X11068Y-17705D01*
X10988Y-17690D01*
X10675Y-17631D01*
X10675Y-17267D01*
X10675Y-16903D01*
X11006Y-16835D01*
X11337Y-16766D01*
X11426Y-16550D01*
X11515Y-16333D01*
X11336Y-16072D01*
X11259Y-15955D01*
X11199Y-15856D01*
X11164Y-15790D01*
X11159Y-15772D01*
X11183Y-15727D01*
X11242Y-15652D01*
X11325Y-15559D01*
X11418Y-15463D01*
X11509Y-15376D01*
X11583Y-15311D01*
X11630Y-15283D01*
X11632Y-15283D01*
X11680Y-15301D01*
X11766Y-15350D01*
X11875Y-15420D01*
X11918Y-15450D01*
X12029Y-15525D01*
X12121Y-15583D01*
X12179Y-15614D01*
X12189Y-15616D01*
X12235Y-15605D01*
X12324Y-15573D01*
X12436Y-15529D01*
X12439Y-15528D01*
X12654Y-15440D01*
X12714Y-15111D01*
X12773Y-14783D01*
X13131Y-14783D01*
X13488Y-14783D01*
X13488Y-14783D01*
X13488Y-14783D01*
G37*
G36*
X20492Y-18707D02*
X20730Y-18726D01*
X20942Y-18785D01*
X20970Y-18797D01*
X21138Y-18899D01*
X20420Y-18899D01*
X20167Y-18946D01*
X19945Y-19046D01*
X19761Y-19194D01*
X19621Y-19383D01*
X19532Y-19605D01*
X19500Y-19855D01*
X19500Y-19861D01*
X19529Y-20128D01*
X19615Y-20362D01*
X19756Y-20561D01*
X19951Y-20721D01*
X20059Y-20782D01*
X20265Y-20853D01*
X20488Y-20880D01*
X20705Y-20862D01*
X20895Y-20798D01*
X20900Y-20796D01*
X21122Y-20647D01*
X21294Y-20463D01*
X21413Y-20252D01*
X21477Y-20021D01*
X21481Y-19780D01*
X21424Y-19536D01*
X21381Y-19435D01*
X21243Y-19223D01*
X21063Y-19061D01*
X20847Y-18953D01*
X20601Y-18901D01*
X20420Y-18899D01*
X21138Y-18899D01*
X21214Y-18945D01*
X21411Y-19141D01*
X21561Y-19382D01*
X21653Y-19637D01*
X21689Y-19815D01*
X21690Y-19973D01*
X21656Y-20145D01*
X21652Y-20158D01*
X21584Y-20351D01*
X21489Y-20518D01*
X21351Y-20686D01*
X21338Y-20700D01*
X21137Y-20875D01*
X20903Y-20997D01*
X20707Y-21058D01*
X20463Y-21082D01*
X20217Y-21047D01*
X19981Y-20957D01*
X19764Y-20817D01*
X19578Y-20634D01*
X19432Y-20412D01*
X19426Y-20400D01*
X19372Y-20283D01*
X19339Y-20188D01*
X19323Y-20089D01*
X19317Y-19960D01*
X19317Y-19876D01*
X19320Y-19716D01*
X19333Y-19598D01*
X19359Y-19497D01*
X19404Y-19389D01*
X19407Y-19383D01*
X19532Y-19178D01*
X19700Y-18996D01*
X19894Y-18852D01*
X20024Y-18788D01*
X20249Y-18727D01*
X20492Y-18707D01*
X20492Y-18707D01*
X20492Y-18707D01*
G37*
G36*
X20492Y-16158D02*
X20738Y-16175D01*
X20944Y-16231D01*
X21128Y-16333D01*
X20528Y-16333D01*
X20279Y-16355D01*
X20045Y-16439D01*
X19836Y-16579D01*
X19740Y-16675D01*
X19601Y-16880D01*
X19520Y-17107D01*
X19495Y-17345D01*
X19527Y-17582D01*
X19615Y-17807D01*
X19759Y-18009D01*
X19787Y-18038D01*
X19985Y-18192D01*
X20207Y-18288D01*
X20444Y-18327D01*
X20684Y-18309D01*
X20918Y-18232D01*
X21135Y-18097D01*
X21156Y-18079D01*
X21312Y-17906D01*
X21420Y-17697D01*
X21478Y-17466D01*
X21483Y-17227D01*
X21432Y-16994D01*
X21399Y-16914D01*
X21289Y-16742D01*
X21137Y-16583D01*
X20962Y-16455D01*
X20783Y-16374D01*
X20781Y-16373D01*
X20528Y-16333D01*
X21128Y-16333D01*
X21257Y-16438D01*
X21449Y-16646D01*
X21582Y-16869D01*
X21652Y-17066D01*
X21687Y-17230D01*
X21693Y-17372D01*
X21670Y-17526D01*
X21646Y-17624D01*
X21544Y-17881D01*
X21385Y-18108D01*
X21178Y-18297D01*
X20947Y-18432D01*
X20842Y-18472D01*
X20731Y-18495D01*
X20590Y-18506D01*
X20483Y-18508D01*
X20328Y-18505D01*
X20216Y-18495D01*
X20122Y-18471D01*
X20022Y-18429D01*
X19985Y-18411D01*
X19753Y-18264D01*
X19559Y-18073D01*
X19415Y-17850D01*
X19406Y-17832D01*
X19359Y-17717D01*
X19332Y-17609D01*
X19320Y-17480D01*
X19317Y-17358D01*
X19330Y-17117D01*
X19373Y-16918D01*
X19456Y-16743D01*
X19585Y-16574D01*
X19650Y-16506D01*
X19834Y-16344D01*
X20022Y-16237D01*
X20233Y-16177D01*
X20483Y-16158D01*
X20492Y-16158D01*
X20492Y-16158D01*
X20492Y-16158D01*
G37*
G36*
X20483Y-13612D02*
X20733Y-13631D01*
X20953Y-13700D01*
X21121Y-13802D01*
X20541Y-13802D01*
X20302Y-13822D01*
X20076Y-13894D01*
X19873Y-14014D01*
X19705Y-14176D01*
X19582Y-14374D01*
X19552Y-14450D01*
X19507Y-14656D01*
X19502Y-14878D01*
X19535Y-15088D01*
X19578Y-15208D01*
X19679Y-15368D01*
X19822Y-15525D01*
X19987Y-15657D01*
X20110Y-15727D01*
X20250Y-15768D01*
X20426Y-15789D01*
X20608Y-15788D01*
X20767Y-15764D01*
X20803Y-15753D01*
X21025Y-15645D01*
X21209Y-15490D01*
X21351Y-15300D01*
X21445Y-15084D01*
X21487Y-14852D01*
X21474Y-14615D01*
X21399Y-14383D01*
X21399Y-14380D01*
X21289Y-14208D01*
X21137Y-14050D01*
X20962Y-13921D01*
X20783Y-13840D01*
X20781Y-13840D01*
X20541Y-13802D01*
X21121Y-13802D01*
X21158Y-13824D01*
X21275Y-13922D01*
X21440Y-14097D01*
X21557Y-14277D01*
X21638Y-14486D01*
X21654Y-14542D01*
X21688Y-14702D01*
X21693Y-14844D01*
X21669Y-15001D01*
X21646Y-15091D01*
X21546Y-15344D01*
X21397Y-15562D01*
X21207Y-15741D01*
X20986Y-15875D01*
X20742Y-15958D01*
X20484Y-15987D01*
X20221Y-15955D01*
X20181Y-15944D01*
X19988Y-15869D01*
X19799Y-15760D01*
X19636Y-15633D01*
X19549Y-15538D01*
X19434Y-15363D01*
X19362Y-15188D01*
X19325Y-14990D01*
X19317Y-14808D01*
X19319Y-14655D01*
X19329Y-14544D01*
X19353Y-14450D01*
X19395Y-14349D01*
X19426Y-14285D01*
X19579Y-14043D01*
X19774Y-13852D01*
X20005Y-13714D01*
X20267Y-13633D01*
X20483Y-13612D01*
X20483Y-13612D01*
X20483Y-13612D01*
G37*
G36*
X20291Y-19912D02*
X20315Y-19989D01*
X20320Y-20065D01*
X20303Y-20102D01*
X20269Y-20175D01*
X20278Y-20260D01*
X20327Y-20322D01*
X20331Y-20324D01*
X20420Y-20351D01*
X20526Y-20357D01*
X20619Y-20341D01*
X20660Y-20318D01*
X20692Y-20250D01*
X20697Y-20159D01*
X20675Y-20083D01*
X20665Y-20071D01*
X20648Y-20020D01*
X20660Y-19961D01*
X20692Y-19926D01*
X20699Y-19925D01*
X20753Y-19955D01*
X20799Y-20031D01*
X20830Y-20134D01*
X20839Y-20241D01*
X20829Y-20304D01*
X20763Y-20436D01*
X20656Y-20520D01*
X20517Y-20552D01*
X20356Y-20527D01*
X20351Y-20526D01*
X20236Y-20456D01*
X20162Y-20349D01*
X20134Y-20222D01*
X20158Y-20092D01*
X20212Y-20004D01*
X20291Y-19912D01*
X20291Y-19912D01*
X20291Y-19912D01*
G37*
G36*
X20291Y-19212D02*
X20315Y-19289D01*
X20320Y-19365D01*
X20303Y-19402D01*
X20269Y-19476D01*
X20278Y-19565D01*
X20319Y-19628D01*
X20389Y-19659D01*
X20483Y-19672D01*
X20576Y-19659D01*
X20646Y-19628D01*
X20688Y-19558D01*
X20698Y-19465D01*
X20675Y-19384D01*
X20663Y-19368D01*
X20645Y-19309D01*
X20658Y-19275D01*
X20685Y-19239D01*
X20717Y-19250D01*
X20758Y-19291D01*
X20825Y-19397D01*
X20844Y-19531D01*
X20839Y-19599D01*
X20796Y-19709D01*
X20705Y-19793D01*
X20583Y-19843D01*
X20445Y-19853D01*
X20315Y-19819D01*
X20214Y-19739D01*
X20153Y-19624D01*
X20138Y-19493D01*
X20171Y-19365D01*
X20212Y-19304D01*
X20291Y-19212D01*
X20291Y-19212D01*
X20291Y-19212D01*
G37*
G36*
X20538Y-17028D02*
X20615Y-17032D01*
X20653Y-17045D01*
X20665Y-17072D01*
X20666Y-17090D01*
X20671Y-17124D01*
X20695Y-17144D01*
X20750Y-17154D01*
X20850Y-17158D01*
X20950Y-17158D01*
X21233Y-17158D01*
X21233Y-17325D01*
X21233Y-17492D01*
X20963Y-17492D01*
X20828Y-17493D01*
X20745Y-17501D01*
X20701Y-17516D01*
X20680Y-17544D01*
X20676Y-17558D01*
X20660Y-17592D01*
X20626Y-17612D01*
X20558Y-17622D01*
X20442Y-17625D01*
X20394Y-17625D01*
X20130Y-17625D01*
X20140Y-17333D01*
X20150Y-17042D01*
X20408Y-17032D01*
X20538Y-17028D01*
X20538Y-17028D01*
X20538Y-17028D01*
G37*
G36*
X19843Y-17198D02*
X19950Y-17209D01*
X20016Y-17269D01*
X20033Y-17347D01*
X20003Y-17428D01*
X19954Y-17463D01*
X19853Y-17481D01*
X19777Y-17445D01*
X19740Y-17363D01*
X19739Y-17315D01*
X19757Y-17238D01*
X19803Y-17205D01*
X19843Y-17198D01*
X19843Y-17198D01*
X19843Y-17198D01*
G37*
G36*
X20507Y-14206D02*
X20683Y-14229D01*
X20845Y-14295D01*
X20980Y-14403D01*
X21069Y-14539D01*
X21123Y-14725D01*
X21121Y-14912D01*
X21074Y-15058D01*
X21011Y-15147D01*
X20922Y-15233D01*
X20827Y-15298D01*
X20748Y-15325D01*
X20745Y-15325D01*
X20712Y-15295D01*
X20700Y-15203D01*
X20700Y-15192D01*
X20707Y-15108D01*
X20725Y-15062D01*
X20733Y-15058D01*
X20800Y-15029D01*
X20858Y-14954D01*
X20894Y-14854D01*
X20899Y-14800D01*
X20891Y-14694D01*
X20859Y-14624D01*
X20786Y-14561D01*
X20767Y-14548D01*
X20663Y-14505D01*
X20532Y-14490D01*
X20392Y-14501D01*
X20264Y-14533D01*
X20166Y-14586D01*
X20120Y-14643D01*
X20099Y-14757D01*
X20115Y-14870D01*
X20160Y-14967D01*
X20226Y-15032D01*
X20305Y-15049D01*
X20324Y-15045D01*
X20399Y-15054D01*
X20466Y-15108D01*
X20545Y-15192D01*
X20449Y-15292D01*
X20386Y-15348D01*
X20343Y-15370D01*
X20335Y-15367D01*
X20296Y-15339D01*
X20218Y-15294D01*
X20159Y-15263D01*
X20011Y-15155D01*
X19914Y-15011D01*
X19872Y-14842D01*
X19888Y-14658D01*
X19930Y-14539D01*
X20030Y-14392D01*
X20168Y-14287D01*
X20331Y-14225D01*
X20507Y-14206D01*
X20507Y-14206D01*
X20507Y-14206D01*
G37*
G54D22*
X30225Y-16450D02*
X29225Y-16450D01*
X29225Y-16450D02*
X29225Y-13450D01*
X29225Y-13450D02*
X30225Y-13450D01*
X30225Y-13450D02*
X30225Y-16450D01*
X29225Y-15450D02*
X30225Y-15450D01*
G54D15*
X48440Y-23750D02*
X44640Y-23750D01*
X44640Y-23750D02*
X44640Y-22250D01*
X44640Y-22250D02*
X48440Y-22250D01*
X48440Y-22250D02*
X48440Y-23750D01*
X48440Y-23250D02*
X48140Y-23250D01*
X48140Y-23250D02*
X48140Y-22850D01*
X48140Y-22850D02*
X48440Y-22850D01*
X33740Y-22000D02*
X37540Y-22000D01*
X37540Y-22000D02*
X37540Y-23500D01*
X37540Y-23500D02*
X33740Y-23500D01*
X33740Y-23500D02*
X33740Y-22000D01*
X33740Y-22500D02*
X34040Y-22500D01*
X34040Y-22500D02*
X34040Y-22900D01*
X34040Y-22900D02*
X33740Y-22900D01*
G54D14*
X41680Y-24830D02*
X41680Y-23930D01*
X41680Y-23930D02*
X42180Y-23930D01*
X42180Y-23930D02*
X42180Y-24830D01*
X42180Y-24830D02*
X41680Y-24830D01*
G54D23*
X36180Y-12660D02*
X38680Y-12660D01*
X36180Y-10660D02*
X38680Y-10660D01*
X39680Y-11660D02*
G75*
G03X38680Y-10660I-1000J0D01*
G74*
G01*
X38680Y-12660D02*
G75*
G03X39680Y-11660I0J1000D01*
G74*
G01*
X36180Y-10660D02*
G75*
G03X35180Y-11660I0J-1000D01*
G74*
G01*
X35180Y-11660D02*
G75*
G03X36180Y-12660I1000J0D01*
G74*
G01*
G54D15*
X38180Y-22150D02*
X44180Y-22150D01*
X44180Y-22150D02*
X44180Y-18850D01*
X44180Y-20750D02*
X43680Y-20750D01*
X43680Y-20750D02*
X43680Y-20250D01*
X43680Y-20250D02*
X44180Y-20250D01*
X38180Y-18850D02*
X38180Y-22150D01*
G54D13*
X44180Y-18850D02*
X38180Y-18850D01*
G54D14*
X42220Y-26000D02*
X42220Y-26050D01*
X42220Y-26050D02*
X44320Y-26050D01*
X44320Y-24550D02*
X42220Y-24550D01*
X42220Y-24550D02*
X42220Y-26000D01*
X42220Y-25100D02*
X42420Y-25100D01*
X42420Y-25100D02*
X42420Y-25500D01*
X42420Y-25500D02*
X42220Y-25500D01*
X44320Y-24550D02*
X44320Y-26050D01*
X47770Y-12700D02*
X47770Y-11800D01*
X47770Y-11800D02*
X47120Y-11800D01*
X46420Y-12700D02*
X45770Y-12700D01*
X45770Y-12700D02*
X45770Y-11800D01*
X45770Y-11800D02*
X46420Y-11800D01*
X47120Y-12700D02*
X47770Y-12700D01*
X39910Y-12770D02*
X40810Y-12770D01*
X40810Y-12770D02*
X40810Y-12120D01*
X39910Y-11420D02*
X39910Y-10770D01*
X39910Y-10770D02*
X40810Y-10770D01*
X40810Y-10770D02*
X40810Y-11420D01*
X39910Y-12120D02*
X39910Y-12770D01*
X35810Y-26440D02*
X36710Y-26440D01*
X36710Y-26440D02*
X36710Y-25790D01*
X35810Y-25090D02*
X35810Y-24440D01*
X35810Y-24440D02*
X36710Y-24440D01*
X36710Y-24440D02*
X36710Y-25090D01*
X35810Y-25790D02*
X35810Y-26440D01*
X32960Y-22690D02*
X32060Y-22690D01*
X32060Y-22690D02*
X32060Y-23340D01*
X32960Y-24040D02*
X32960Y-24690D01*
X32960Y-24690D02*
X32060Y-24690D01*
X32060Y-24690D02*
X32060Y-24040D01*
X32960Y-23340D02*
X32960Y-22690D01*
X39790Y-27260D02*
X38890Y-27260D01*
X38890Y-27260D02*
X38890Y-26760D01*
X38890Y-26760D02*
X39790Y-26760D01*
X39790Y-26760D02*
X39790Y-27260D01*
X33110Y-23170D02*
X33110Y-22270D01*
X33110Y-22270D02*
X33610Y-22270D01*
X33610Y-22270D02*
X33610Y-23170D01*
X33610Y-23170D02*
X33110Y-23170D01*
X44460Y-26660D02*
X44460Y-25760D01*
X44460Y-25760D02*
X44960Y-25760D01*
X44960Y-25760D02*
X44960Y-26660D01*
X44960Y-26660D02*
X44460Y-26660D01*
X34770Y-26440D02*
X35670Y-26440D01*
X35670Y-26440D02*
X35670Y-25790D01*
X34770Y-25090D02*
X34770Y-24440D01*
X34770Y-24440D02*
X35670Y-24440D01*
X35670Y-24440D02*
X35670Y-25090D01*
X34770Y-25790D02*
X34770Y-26440D01*
X33730Y-26440D02*
X34630Y-26440D01*
X34630Y-26440D02*
X34630Y-25790D01*
X33730Y-25090D02*
X33730Y-24440D01*
X33730Y-24440D02*
X34630Y-24440D01*
X34630Y-24440D02*
X34630Y-25090D01*
X33730Y-25790D02*
X33730Y-26440D01*
X35770Y-19980D02*
X35770Y-20880D01*
X35770Y-20880D02*
X36420Y-20880D01*
X37120Y-19980D02*
X37770Y-19980D01*
X37770Y-19980D02*
X37770Y-20880D01*
X37770Y-20880D02*
X37120Y-20880D01*
X36420Y-19980D02*
X35770Y-19980D01*
X35650Y-20880D02*
X35650Y-19980D01*
X35650Y-19980D02*
X35000Y-19980D01*
X34300Y-20880D02*
X33650Y-20880D01*
X33650Y-20880D02*
X33650Y-19980D01*
X33650Y-19980D02*
X34300Y-19980D01*
X35000Y-20880D02*
X35650Y-20880D01*
X41290Y-17710D02*
X42190Y-17710D01*
X42190Y-17710D02*
X42190Y-18210D01*
X42190Y-18210D02*
X41290Y-18210D01*
X41290Y-18210D02*
X41290Y-17710D01*
G54D24*
X36635Y-18382D02*
G75*
G03X36635Y-18382I-62J0D01*
G74*
G01*
X35610Y-18720D02*
X35610Y-18320D01*
X36635Y-18720D02*
X36635Y-18320D01*
X35610Y-18320D02*
X36635Y-18320D01*
X36635Y-18720D02*
X35610Y-18720D01*
G54D22*
X42610Y-12980D02*
X42610Y-11980D01*
X42610Y-11980D02*
X44610Y-11980D01*
X44610Y-11980D02*
X44610Y-12980D01*
X44610Y-12980D02*
X42610Y-12980D01*
G54D13*
X15838Y-24532D02*
X15838Y-23833D01*
X16076Y-23833D01*
X16136Y-23867D01*
X16166Y-23900D01*
X16195Y-23967D01*
X16195Y-24066D01*
X16166Y-24133D01*
X16136Y-24166D01*
X16076Y-24200D01*
X15838Y-24200D01*
X16731Y-24066D02*
X16731Y-24532D01*
X16582Y-23800D02*
X16433Y-24299D01*
X16820Y-24299D01*
G54D25*
X21830Y-24572D02*
X21830Y-24072D01*
X22021Y-24072D01*
X22069Y-24096D01*
X22092Y-24120D01*
X22116Y-24167D01*
X22116Y-24239D01*
X22092Y-24286D01*
X22069Y-24310D01*
X22021Y-24334D01*
X21830Y-24334D01*
X22307Y-24120D02*
X22330Y-24096D01*
X22378Y-24072D01*
X22497Y-24072D01*
X22545Y-24096D01*
X22569Y-24120D01*
X22592Y-24167D01*
X22592Y-24215D01*
X22569Y-24286D01*
X22283Y-24572D01*
X22592Y-24572D01*
G54D13*
X15963Y-13882D02*
X15963Y-13183D01*
X16201Y-13183D01*
X16261Y-13217D01*
X16291Y-13250D01*
X16320Y-13317D01*
X16320Y-13416D01*
X16291Y-13483D01*
X16261Y-13516D01*
X16201Y-13550D01*
X15963Y-13550D01*
X16916Y-13882D02*
X16558Y-13882D01*
X16737Y-13882D02*
X16737Y-13183D01*
X16677Y-13283D01*
X16618Y-13350D01*
X16558Y-13383D01*
G54D22*
X29110Y-20207D02*
X29110Y-19757D01*
X29582Y-20164D02*
X29560Y-20185D01*
X29496Y-20207D01*
X29453Y-20207D01*
X29389Y-20185D01*
X29346Y-20142D01*
X29325Y-20100D01*
X29303Y-20014D01*
X29303Y-19950D01*
X29325Y-19864D01*
X29346Y-19821D01*
X29389Y-19778D01*
X29453Y-19757D01*
X29496Y-19757D01*
X29560Y-19778D01*
X29582Y-19800D01*
X29967Y-19757D02*
X29882Y-19757D01*
X29839Y-19778D01*
X29817Y-19800D01*
X29775Y-19864D01*
X29753Y-19950D01*
X29753Y-20121D01*
X29775Y-20164D01*
X29796Y-20185D01*
X29839Y-20207D01*
X29925Y-20207D01*
X29967Y-20185D01*
X29989Y-20164D01*
X30010Y-20121D01*
X30010Y-20014D01*
X29989Y-19971D01*
X29967Y-19950D01*
X29925Y-19928D01*
X29839Y-19928D01*
X29796Y-19950D01*
X29775Y-19971D01*
X29753Y-20014D01*
X30275Y-19741D02*
X30275Y-19391D01*
X30475Y-19741D01*
X30475Y-19391D01*
X30641Y-19558D02*
X30758Y-19558D01*
X30808Y-19741D02*
X30641Y-19741D01*
X30641Y-19391D01*
X30808Y-19391D01*
X31124Y-19391D02*
X30958Y-19391D01*
X30941Y-19558D01*
X30958Y-19541D01*
X30991Y-19525D01*
X31074Y-19525D01*
X31108Y-19541D01*
X31124Y-19558D01*
X31141Y-19591D01*
X31141Y-19675D01*
X31124Y-19708D01*
X31108Y-19725D01*
X31074Y-19741D01*
X30991Y-19741D01*
X30958Y-19725D01*
X30941Y-19708D01*
X31458Y-19391D02*
X31291Y-19391D01*
X31274Y-19558D01*
X31291Y-19541D01*
X31324Y-19525D01*
X31408Y-19525D01*
X31441Y-19541D01*
X31458Y-19558D01*
X31474Y-19591D01*
X31474Y-19675D01*
X31458Y-19708D01*
X31441Y-19725D01*
X31408Y-19741D01*
X31324Y-19741D01*
X31291Y-19725D01*
X31274Y-19708D01*
X31591Y-19391D02*
X31808Y-19391D01*
X31691Y-19525D01*
X31741Y-19525D01*
X31775Y-19541D01*
X31791Y-19558D01*
X31808Y-19591D01*
X31808Y-19675D01*
X31791Y-19708D01*
X31775Y-19725D01*
X31741Y-19741D01*
X31641Y-19741D01*
X31608Y-19725D01*
X31591Y-19708D01*
X31941Y-19425D02*
X31958Y-19408D01*
X31991Y-19391D01*
X32075Y-19391D01*
X32108Y-19408D01*
X32125Y-19425D01*
X32141Y-19458D01*
X32141Y-19491D01*
X32125Y-19541D01*
X31925Y-19741D01*
X32141Y-19741D01*
G54D14*
X36980Y-26601D02*
X36980Y-26201D01*
X37452Y-26563D02*
X37430Y-26582D01*
X37366Y-26601D01*
X37323Y-26601D01*
X37259Y-26582D01*
X37216Y-26544D01*
X37195Y-26506D01*
X37173Y-26430D01*
X37173Y-26373D01*
X37195Y-26297D01*
X37216Y-26259D01*
X37259Y-26220D01*
X37323Y-26201D01*
X37366Y-26201D01*
X37430Y-26220D01*
X37452Y-26240D01*
X37859Y-26201D02*
X37645Y-26201D01*
X37623Y-26392D01*
X37645Y-26373D01*
X37687Y-26354D01*
X37795Y-26354D01*
X37837Y-26373D01*
X37859Y-26392D01*
X37880Y-26430D01*
X37880Y-26525D01*
X37859Y-26563D01*
X37837Y-26582D01*
X37795Y-26601D01*
X37687Y-26601D01*
X37645Y-26582D01*
X37623Y-26563D01*
X38354Y-25811D02*
X38354Y-25411D01*
X38488Y-25697D01*
X38621Y-25411D01*
X38621Y-25811D01*
X39040Y-25773D02*
X39021Y-25792D01*
X38964Y-25811D01*
X38926Y-25811D01*
X38869Y-25792D01*
X38830Y-25754D01*
X38811Y-25716D01*
X38792Y-25640D01*
X38792Y-25583D01*
X38811Y-25507D01*
X38830Y-25469D01*
X38869Y-25430D01*
X38926Y-25411D01*
X38964Y-25411D01*
X39021Y-25430D01*
X39040Y-25450D01*
X39211Y-25811D02*
X39211Y-25411D01*
X39364Y-25411D01*
X39402Y-25430D01*
X39421Y-25450D01*
X39440Y-25488D01*
X39440Y-25545D01*
X39421Y-25583D01*
X39402Y-25602D01*
X39364Y-25621D01*
X39211Y-25621D01*
X39783Y-25411D02*
X39707Y-25411D01*
X39669Y-25430D01*
X39650Y-25450D01*
X39611Y-25507D01*
X39592Y-25583D01*
X39592Y-25735D01*
X39611Y-25773D01*
X39630Y-25792D01*
X39669Y-25811D01*
X39745Y-25811D01*
X39783Y-25792D01*
X39802Y-25773D01*
X39821Y-25735D01*
X39821Y-25640D01*
X39802Y-25602D01*
X39783Y-25583D01*
X39745Y-25564D01*
X39669Y-25564D01*
X39630Y-25583D01*
X39611Y-25602D01*
X39592Y-25640D01*
X40069Y-25411D02*
X40107Y-25411D01*
X40145Y-25430D01*
X40164Y-25450D01*
X40183Y-25488D01*
X40202Y-25564D01*
X40202Y-25659D01*
X40183Y-25735D01*
X40164Y-25773D01*
X40145Y-25792D01*
X40107Y-25811D01*
X40069Y-25811D01*
X40030Y-25792D01*
X40011Y-25773D01*
X39992Y-25735D01*
X39973Y-25659D01*
X39973Y-25564D01*
X39992Y-25488D01*
X40011Y-25450D01*
X40030Y-25430D01*
X40069Y-25411D01*
X40354Y-25450D02*
X40373Y-25430D01*
X40411Y-25411D01*
X40507Y-25411D01*
X40545Y-25430D01*
X40564Y-25450D01*
X40583Y-25488D01*
X40583Y-25526D01*
X40564Y-25583D01*
X40335Y-25811D01*
X40583Y-25811D01*
X40926Y-25545D02*
X40926Y-25811D01*
X40830Y-25392D02*
X40735Y-25678D01*
X40983Y-25678D01*
X35277Y-11912D02*
X35292Y-11927D01*
X35306Y-11970D01*
X35306Y-11998D01*
X35292Y-12041D01*
X35263Y-12070D01*
X35235Y-12084D01*
X35177Y-12098D01*
X35135Y-12098D01*
X35077Y-12084D01*
X35049Y-12070D01*
X35020Y-12041D01*
X35006Y-11998D01*
X35006Y-11970D01*
X35020Y-11927D01*
X35035Y-11912D01*
X35306Y-11627D02*
X35306Y-11798D01*
X35306Y-11712D02*
X35006Y-11712D01*
X35049Y-11741D01*
X35077Y-11770D01*
X35092Y-11798D01*
X35306Y-11341D02*
X35306Y-11512D01*
X35306Y-11427D02*
X35006Y-11427D01*
X35049Y-11455D01*
X35077Y-11484D01*
X35092Y-11512D01*
X32107Y-17342D02*
X32092Y-17357D01*
X32050Y-17371D01*
X32021Y-17371D01*
X31978Y-17357D01*
X31950Y-17328D01*
X31935Y-17300D01*
X31921Y-17242D01*
X31921Y-17200D01*
X31935Y-17142D01*
X31950Y-17114D01*
X31978Y-17085D01*
X32021Y-17071D01*
X32050Y-17071D01*
X32092Y-17085D01*
X32107Y-17100D01*
X32392Y-17371D02*
X32221Y-17371D01*
X32307Y-17371D02*
X32307Y-17071D01*
X32278Y-17114D01*
X32250Y-17142D01*
X32221Y-17157D01*
X32492Y-17071D02*
X32678Y-17071D01*
X32578Y-17185D01*
X32621Y-17185D01*
X32650Y-17200D01*
X32664Y-17214D01*
X32678Y-17242D01*
X32678Y-17314D01*
X32664Y-17342D01*
X32650Y-17357D01*
X32621Y-17371D01*
X32535Y-17371D01*
X32507Y-17357D01*
X32492Y-17342D01*
G54D26*
X48726Y-12260D02*
X48736Y-12268D01*
X48745Y-12294D01*
X48745Y-12311D01*
X48736Y-12337D01*
X48717Y-12354D01*
X48698Y-12362D01*
X48660Y-12371D01*
X48631Y-12371D01*
X48593Y-12362D01*
X48574Y-12354D01*
X48555Y-12337D01*
X48545Y-12311D01*
X48545Y-12294D01*
X48555Y-12268D01*
X48565Y-12260D01*
X48745Y-12088D02*
X48745Y-12191D01*
X48745Y-12140D02*
X48545Y-12140D01*
X48574Y-12157D01*
X48593Y-12174D01*
X48603Y-12191D01*
X48406Y-18160D02*
X48416Y-18168D01*
X48425Y-18194D01*
X48425Y-18211D01*
X48416Y-18237D01*
X48397Y-18254D01*
X48378Y-18262D01*
X48340Y-18271D01*
X48311Y-18271D01*
X48273Y-18262D01*
X48254Y-18254D01*
X48235Y-18237D01*
X48225Y-18211D01*
X48225Y-18194D01*
X48235Y-18168D01*
X48245Y-18160D01*
X48245Y-18091D02*
X48235Y-18082D01*
X48225Y-18065D01*
X48225Y-18022D01*
X48235Y-18005D01*
X48245Y-17997D01*
X48264Y-17988D01*
X48283Y-17988D01*
X48311Y-17997D01*
X48425Y-18100D01*
X48425Y-17988D01*
X46790Y-24831D02*
X46781Y-24841D01*
X46755Y-24850D01*
X46738Y-24850D01*
X46712Y-24841D01*
X46695Y-24822D01*
X46687Y-24803D01*
X46678Y-24765D01*
X46678Y-24736D01*
X46687Y-24698D01*
X46695Y-24679D01*
X46712Y-24660D01*
X46738Y-24650D01*
X46755Y-24650D01*
X46781Y-24660D01*
X46790Y-24670D01*
X46892Y-24736D02*
X46875Y-24727D01*
X46867Y-24717D01*
X46858Y-24698D01*
X46858Y-24689D01*
X46867Y-24670D01*
X46875Y-24660D01*
X46892Y-24650D01*
X46927Y-24650D01*
X46944Y-24660D01*
X46952Y-24670D01*
X46961Y-24689D01*
X46961Y-24698D01*
X46952Y-24717D01*
X46944Y-24727D01*
X46927Y-24736D01*
X46892Y-24736D01*
X46875Y-24746D01*
X46867Y-24755D01*
X46858Y-24774D01*
X46858Y-24812D01*
X46867Y-24831D01*
X46875Y-24841D01*
X46892Y-24850D01*
X46927Y-24850D01*
X46944Y-24841D01*
X46952Y-24831D01*
X46961Y-24812D01*
X46961Y-24774D01*
X46952Y-24755D01*
X46944Y-24746D01*
X46927Y-24736D01*
G54D17*
X22034Y-13951D02*
X22034Y-13551D01*
X22187Y-13551D01*
X22225Y-13570D01*
X22244Y-13590D01*
X22263Y-13628D01*
X22263Y-13685D01*
X22244Y-13723D01*
X22225Y-13742D01*
X22187Y-13761D01*
X22034Y-13761D01*
X22625Y-13551D02*
X22434Y-13551D01*
X22415Y-13742D01*
X22434Y-13723D01*
X22472Y-13704D01*
X22568Y-13704D01*
X22606Y-13723D01*
X22625Y-13742D01*
X22644Y-13780D01*
X22644Y-13875D01*
X22625Y-13913D01*
X22606Y-13932D01*
X22568Y-13951D01*
X22472Y-13951D01*
X22434Y-13932D01*
X22415Y-13913D01*
G54D14*
X33775Y-18471D02*
X33675Y-18328D01*
X33603Y-18471D02*
X33603Y-18171D01*
X33717Y-18171D01*
X33746Y-18185D01*
X33760Y-18200D01*
X33775Y-18228D01*
X33775Y-18271D01*
X33760Y-18300D01*
X33746Y-18314D01*
X33717Y-18328D01*
X33603Y-18328D01*
X33917Y-18471D02*
X33975Y-18471D01*
X34003Y-18457D01*
X34017Y-18442D01*
X34046Y-18400D01*
X34060Y-18342D01*
X34060Y-18228D01*
X34046Y-18200D01*
X34032Y-18185D01*
X34003Y-18171D01*
X33946Y-18171D01*
X33917Y-18185D01*
X33903Y-18200D01*
X33889Y-18228D01*
X33889Y-18300D01*
X33903Y-18328D01*
X33917Y-18342D01*
X33946Y-18357D01*
X34003Y-18357D01*
X34032Y-18342D01*
X34046Y-18328D01*
X34060Y-18300D01*
X32971Y-22150D02*
X32828Y-22250D01*
X32971Y-22321D02*
X32671Y-22321D01*
X32671Y-22207D01*
X32685Y-22178D01*
X32700Y-22164D01*
X32728Y-22150D01*
X32771Y-22150D01*
X32800Y-22164D01*
X32814Y-22178D01*
X32828Y-22207D01*
X32828Y-22321D01*
X32800Y-21978D02*
X32785Y-22007D01*
X32771Y-22021D01*
X32742Y-22035D01*
X32728Y-22035D01*
X32700Y-22021D01*
X32685Y-22007D01*
X32671Y-21978D01*
X32671Y-21921D01*
X32685Y-21892D01*
X32700Y-21878D01*
X32728Y-21864D01*
X32742Y-21864D01*
X32771Y-21878D01*
X32785Y-21892D01*
X32800Y-21921D01*
X32800Y-21978D01*
X32814Y-22007D01*
X32828Y-22021D01*
X32857Y-22035D01*
X32914Y-22035D01*
X32942Y-22021D01*
X32957Y-22007D01*
X32971Y-21978D01*
X32971Y-21921D01*
X32957Y-21892D01*
X32942Y-21878D01*
X32914Y-21864D01*
X32857Y-21864D01*
X32828Y-21878D01*
X32814Y-21892D01*
X32800Y-21921D01*
G54D27*
X30430Y-14832D02*
X30430Y-14232D01*
X30902Y-14775D02*
X30880Y-14804D01*
X30816Y-14832D01*
X30773Y-14832D01*
X30709Y-14804D01*
X30666Y-14747D01*
X30645Y-14690D01*
X30623Y-14575D01*
X30623Y-14490D01*
X30645Y-14375D01*
X30666Y-14318D01*
X30709Y-14261D01*
X30773Y-14232D01*
X30816Y-14232D01*
X30880Y-14261D01*
X30902Y-14290D01*
X31052Y-14232D02*
X31352Y-14232D01*
X31159Y-14832D01*
G54D28*
G54D27*
X32472Y-15071D02*
X32686Y-15071D01*
X32429Y-15242D02*
X32579Y-14642D01*
X32729Y-15242D01*
X32815Y-14642D02*
X33072Y-14642D01*
X32943Y-15242D02*
X32943Y-14642D01*
X33222Y-15242D02*
X33222Y-14642D01*
X33372Y-15071D01*
X33522Y-14642D01*
X33522Y-15242D01*
X33736Y-14928D02*
X33886Y-14928D01*
X33950Y-15242D02*
X33736Y-15242D01*
X33736Y-14642D01*
X33950Y-14642D01*
X34379Y-14671D02*
X34336Y-14642D01*
X34272Y-14642D01*
X34207Y-14671D01*
X34165Y-14728D01*
X34143Y-14785D01*
X34122Y-14900D01*
X34122Y-14985D01*
X34143Y-15100D01*
X34165Y-15157D01*
X34207Y-15214D01*
X34272Y-15242D01*
X34315Y-15242D01*
X34379Y-15214D01*
X34400Y-15185D01*
X34400Y-14985D01*
X34315Y-14985D01*
X34550Y-14642D02*
X34829Y-14642D01*
X34679Y-14871D01*
X34743Y-14871D01*
X34786Y-14900D01*
X34807Y-14928D01*
X34829Y-14985D01*
X34829Y-15128D01*
X34807Y-15185D01*
X34786Y-15214D01*
X34743Y-15242D01*
X34615Y-15242D01*
X34572Y-15214D01*
X34550Y-15185D01*
X35000Y-14700D02*
X35022Y-14671D01*
X35065Y-14642D01*
X35172Y-14642D01*
X35215Y-14671D01*
X35236Y-14700D01*
X35257Y-14757D01*
X35257Y-14814D01*
X35236Y-14900D01*
X34979Y-15242D01*
X35257Y-15242D01*
X35515Y-14900D02*
X35472Y-14871D01*
X35450Y-14842D01*
X35429Y-14785D01*
X35429Y-14757D01*
X35450Y-14700D01*
X35472Y-14671D01*
X35515Y-14642D01*
X35600Y-14642D01*
X35643Y-14671D01*
X35665Y-14700D01*
X35686Y-14757D01*
X35686Y-14785D01*
X35665Y-14842D01*
X35643Y-14871D01*
X35600Y-14900D01*
X35515Y-14900D01*
X35472Y-14928D01*
X35450Y-14957D01*
X35429Y-15014D01*
X35429Y-15128D01*
X35450Y-15185D01*
X35472Y-15214D01*
X35515Y-15242D01*
X35600Y-15242D01*
X35643Y-15214D01*
X35665Y-15185D01*
X35686Y-15128D01*
X35686Y-15014D01*
X35665Y-14957D01*
X35643Y-14928D01*
X35600Y-14900D01*
X35879Y-15242D02*
X35879Y-14642D01*
X36050Y-14642D01*
X36093Y-14671D01*
X36114Y-14700D01*
X36136Y-14757D01*
X36136Y-14842D01*
X36114Y-14900D01*
X36093Y-14928D01*
X36050Y-14957D01*
X35879Y-14957D01*
X36329Y-14642D02*
X36329Y-15128D01*
X36350Y-15185D01*
X36372Y-15214D01*
X36414Y-15242D01*
X36500Y-15242D01*
X36543Y-15214D01*
X36564Y-15185D01*
X36586Y-15128D01*
X36586Y-14642D01*
G54D28*
G54D22*
X45765Y-18509D02*
X45765Y-18115D01*
X46178Y-18471D02*
X46159Y-18490D01*
X46103Y-18509D01*
X46065Y-18509D01*
X46009Y-18490D01*
X45971Y-18453D01*
X45953Y-18415D01*
X45934Y-18340D01*
X45934Y-18284D01*
X45953Y-18209D01*
X45971Y-18171D01*
X46009Y-18134D01*
X46065Y-18115D01*
X46103Y-18115D01*
X46159Y-18134D01*
X46178Y-18153D01*
X46403Y-18284D02*
X46365Y-18265D01*
X46347Y-18246D01*
X46328Y-18209D01*
X46328Y-18190D01*
X46347Y-18153D01*
X46365Y-18134D01*
X46403Y-18115D01*
X46478Y-18115D01*
X46515Y-18134D01*
X46534Y-18153D01*
X46553Y-18190D01*
X46553Y-18209D01*
X46534Y-18246D01*
X46515Y-18265D01*
X46478Y-18284D01*
X46403Y-18284D01*
X46365Y-18303D01*
X46347Y-18321D01*
X46328Y-18359D01*
X46328Y-18434D01*
X46347Y-18471D01*
X46365Y-18490D01*
X46403Y-18509D01*
X46478Y-18509D01*
X46515Y-18490D01*
X46534Y-18471D01*
X46553Y-18434D01*
X46553Y-18359D01*
X46534Y-18321D01*
X46515Y-18303D01*
X46478Y-18284D01*
G54D26*
X30559Y-17836D02*
X30550Y-17846D01*
X30525Y-17855D01*
X30507Y-17855D01*
X30482Y-17846D01*
X30465Y-17827D01*
X30456Y-17808D01*
X30447Y-17770D01*
X30447Y-17741D01*
X30456Y-17703D01*
X30465Y-17684D01*
X30482Y-17665D01*
X30507Y-17655D01*
X30525Y-17655D01*
X30550Y-17665D01*
X30559Y-17675D01*
X30730Y-17855D02*
X30627Y-17855D01*
X30679Y-17855D02*
X30679Y-17655D01*
X30662Y-17684D01*
X30645Y-17703D01*
X30627Y-17713D01*
X30893Y-17655D02*
X30807Y-17655D01*
X30799Y-17751D01*
X30807Y-17741D01*
X30825Y-17732D01*
X30867Y-17732D01*
X30885Y-17741D01*
X30893Y-17751D01*
X30902Y-17770D01*
X30902Y-17817D01*
X30893Y-17836D01*
X30885Y-17846D01*
X30867Y-17855D01*
X30825Y-17855D01*
X30807Y-17846D01*
X30799Y-17836D01*
X29899Y-21851D02*
X29890Y-21861D01*
X29865Y-21870D01*
X29847Y-21870D01*
X29822Y-21861D01*
X29805Y-21842D01*
X29796Y-21823D01*
X29787Y-21785D01*
X29787Y-21756D01*
X29796Y-21718D01*
X29805Y-21699D01*
X29822Y-21680D01*
X29847Y-21670D01*
X29865Y-21670D01*
X29890Y-21680D01*
X29899Y-21690D01*
X30070Y-21870D02*
X29967Y-21870D01*
X30019Y-21870D02*
X30019Y-21670D01*
X30002Y-21699D01*
X29985Y-21718D01*
X29967Y-21728D01*
X30225Y-21670D02*
X30190Y-21670D01*
X30173Y-21680D01*
X30165Y-21690D01*
X30147Y-21718D01*
X30139Y-21756D01*
X30139Y-21832D01*
X30147Y-21851D01*
X30156Y-21861D01*
X30173Y-21870D01*
X30207Y-21870D01*
X30225Y-21861D01*
X30233Y-21851D01*
X30242Y-21832D01*
X30242Y-21785D01*
X30233Y-21766D01*
X30225Y-21756D01*
X30207Y-21747D01*
X30173Y-21747D01*
X30156Y-21756D01*
X30147Y-21766D01*
X30139Y-21785D01*
G54D14*
X42192Y-11952D02*
X42207Y-11967D01*
X42221Y-12010D01*
X42221Y-12038D01*
X42207Y-12081D01*
X42178Y-12110D01*
X42150Y-12124D01*
X42092Y-12138D01*
X42050Y-12138D01*
X41992Y-12124D01*
X41964Y-12110D01*
X41935Y-12081D01*
X41921Y-12038D01*
X41921Y-12010D01*
X41935Y-11967D01*
X41950Y-11952D01*
X42221Y-11667D02*
X42221Y-11838D01*
X42221Y-11752D02*
X41921Y-11752D01*
X41964Y-11781D01*
X41992Y-11810D01*
X42007Y-11838D01*
X41921Y-11481D02*
X41921Y-11452D01*
X41935Y-11424D01*
X41950Y-11410D01*
X41978Y-11395D01*
X42035Y-11381D01*
X42107Y-11381D01*
X42164Y-11395D01*
X42192Y-11410D01*
X42207Y-11424D01*
X42221Y-11452D01*
X42221Y-11481D01*
X42207Y-11510D01*
X42192Y-11524D01*
X42164Y-11538D01*
X42107Y-11552D01*
X42035Y-11552D01*
X41978Y-11538D01*
X41950Y-11524D01*
X41935Y-11510D01*
X41921Y-11481D01*
X10057Y-22501D02*
X9957Y-22358D01*
X9885Y-22501D02*
X9885Y-22201D01*
X10000Y-22201D01*
X10028Y-22215D01*
X10042Y-22230D01*
X10057Y-22258D01*
X10057Y-22301D01*
X10042Y-22330D01*
X10028Y-22344D01*
X10000Y-22358D01*
X9885Y-22358D01*
X10342Y-22501D02*
X10171Y-22501D01*
X10257Y-22501D02*
X10257Y-22201D01*
X10228Y-22244D01*
X10200Y-22272D01*
X10171Y-22287D01*
X10528Y-22201D02*
X10557Y-22201D01*
X10585Y-22215D01*
X10600Y-22230D01*
X10614Y-22258D01*
X10628Y-22315D01*
X10628Y-22387D01*
X10614Y-22444D01*
X10600Y-22472D01*
X10585Y-22487D01*
X10557Y-22501D01*
X10528Y-22501D01*
X10500Y-22487D01*
X10485Y-22472D01*
X10471Y-22444D01*
X10457Y-22387D01*
X10457Y-22315D01*
X10471Y-22258D01*
X10485Y-22230D01*
X10500Y-22215D01*
X10528Y-22201D01*
G54D25*
X10168Y-23771D02*
X10168Y-23471D01*
X10240Y-23471D01*
X10282Y-23485D01*
X10311Y-23514D01*
X10325Y-23542D01*
X10340Y-23600D01*
X10340Y-23642D01*
X10325Y-23700D01*
X10311Y-23728D01*
X10282Y-23757D01*
X10240Y-23771D01*
X10168Y-23771D01*
X10625Y-23771D02*
X10454Y-23771D01*
X10540Y-23771D02*
X10540Y-23471D01*
X10511Y-23514D01*
X10482Y-23542D01*
X10454Y-23557D01*
X12537Y-23701D02*
X12537Y-23401D01*
X12651Y-23401D01*
X12680Y-23415D01*
X12694Y-23430D01*
X12708Y-23458D01*
X12708Y-23501D01*
X12694Y-23530D01*
X12680Y-23544D01*
X12651Y-23558D01*
X12537Y-23558D01*
X12894Y-23401D02*
X12951Y-23401D01*
X12980Y-23415D01*
X13008Y-23444D01*
X13022Y-23501D01*
X13022Y-23601D01*
X13008Y-23658D01*
X12980Y-23687D01*
X12951Y-23701D01*
X12894Y-23701D01*
X12865Y-23687D01*
X12837Y-23658D01*
X12822Y-23601D01*
X12822Y-23501D01*
X12837Y-23444D01*
X12865Y-23415D01*
X12894Y-23401D01*
X13122Y-23401D02*
X13194Y-23701D01*
X13251Y-23487D01*
X13308Y-23701D01*
X13380Y-23401D01*
X13494Y-23544D02*
X13594Y-23544D01*
X13637Y-23701D02*
X13494Y-23701D01*
X13494Y-23401D01*
X13637Y-23401D01*
X13937Y-23701D02*
X13837Y-23558D01*
X13765Y-23701D02*
X13765Y-23401D01*
X13880Y-23401D01*
X13908Y-23415D01*
X13922Y-23430D01*
X13937Y-23458D01*
X13937Y-23501D01*
X13922Y-23530D01*
X13908Y-23544D01*
X13880Y-23558D01*
X13765Y-23558D01*
G54D22*
X30354Y-16331D02*
X30354Y-15931D01*
X30507Y-15931D01*
X30545Y-15950D01*
X30564Y-15970D01*
X30583Y-16008D01*
X30583Y-16065D01*
X30564Y-16103D01*
X30545Y-16122D01*
X30507Y-16141D01*
X30354Y-16141D01*
X30716Y-15931D02*
X30983Y-15931D01*
X30811Y-16331D01*
G54D14*
X43917Y-23281D02*
X43917Y-23605D01*
X43938Y-23643D01*
X43960Y-23662D01*
X44002Y-23681D01*
X44088Y-23681D01*
X44131Y-23662D01*
X44152Y-23643D01*
X44174Y-23605D01*
X44174Y-23281D01*
X44367Y-23320D02*
X44388Y-23300D01*
X44431Y-23281D01*
X44538Y-23281D01*
X44581Y-23300D01*
X44602Y-23320D01*
X44624Y-23358D01*
X44624Y-23396D01*
X44602Y-23453D01*
X44345Y-23681D01*
X44624Y-23681D01*
X45292Y-22411D02*
X45559Y-22411D01*
X45387Y-22811D01*
X45882Y-22545D02*
X45882Y-22811D01*
X45787Y-22392D02*
X45692Y-22678D01*
X45940Y-22678D01*
X46282Y-22811D02*
X46092Y-22811D01*
X46092Y-22411D01*
X46397Y-22792D02*
X46454Y-22811D01*
X46549Y-22811D01*
X46587Y-22792D01*
X46606Y-22773D01*
X46625Y-22735D01*
X46625Y-22697D01*
X46606Y-22659D01*
X46587Y-22640D01*
X46549Y-22621D01*
X46473Y-22602D01*
X46435Y-22583D01*
X46416Y-22564D01*
X46397Y-22526D01*
X46397Y-22488D01*
X46416Y-22450D01*
X46435Y-22430D01*
X46473Y-22411D01*
X46568Y-22411D01*
X46625Y-22430D01*
X46759Y-22411D02*
X47006Y-22411D01*
X46873Y-22564D01*
X46930Y-22564D01*
X46968Y-22583D01*
X46987Y-22602D01*
X47006Y-22640D01*
X47006Y-22735D01*
X46987Y-22773D01*
X46968Y-22792D01*
X46930Y-22811D01*
X46816Y-22811D01*
X46778Y-22792D01*
X46759Y-22773D01*
X47197Y-22811D02*
X47273Y-22811D01*
X47311Y-22792D01*
X47330Y-22773D01*
X47368Y-22716D01*
X47387Y-22640D01*
X47387Y-22488D01*
X47368Y-22450D01*
X47349Y-22430D01*
X47311Y-22411D01*
X47235Y-22411D01*
X47197Y-22430D01*
X47178Y-22450D01*
X47159Y-22488D01*
X47159Y-22583D01*
X47178Y-22621D01*
X47197Y-22640D01*
X47235Y-22659D01*
X47311Y-22659D01*
X47349Y-22640D01*
X47368Y-22621D01*
X47387Y-22583D01*
X47520Y-22411D02*
X47768Y-22411D01*
X47635Y-22564D01*
X47692Y-22564D01*
X47730Y-22583D01*
X47749Y-22602D01*
X47768Y-22640D01*
X47768Y-22735D01*
X47749Y-22773D01*
X47730Y-22792D01*
X47692Y-22811D01*
X47578Y-22811D01*
X47540Y-22792D01*
X47520Y-22773D01*
X34017Y-21011D02*
X34017Y-21335D01*
X34038Y-21373D01*
X34060Y-21392D01*
X34102Y-21411D01*
X34188Y-21411D01*
X34231Y-21392D01*
X34252Y-21373D01*
X34274Y-21335D01*
X34274Y-21011D01*
X34724Y-21411D02*
X34467Y-21411D01*
X34595Y-21411D02*
X34595Y-21011D01*
X34552Y-21069D01*
X34510Y-21107D01*
X34467Y-21126D01*
X35144Y-22995D02*
X35144Y-23261D01*
X35049Y-22842D02*
X34954Y-23128D01*
X35201Y-23128D01*
X35430Y-22861D02*
X35468Y-22861D01*
X35506Y-22880D01*
X35525Y-22900D01*
X35544Y-22938D01*
X35563Y-23014D01*
X35563Y-23109D01*
X35544Y-23185D01*
X35525Y-23223D01*
X35506Y-23242D01*
X35468Y-23261D01*
X35430Y-23261D01*
X35392Y-23242D01*
X35373Y-23223D01*
X35354Y-23185D01*
X35335Y-23109D01*
X35335Y-23014D01*
X35354Y-22938D01*
X35373Y-22900D01*
X35392Y-22880D01*
X35430Y-22861D01*
X35906Y-22861D02*
X35830Y-22861D01*
X35792Y-22880D01*
X35773Y-22900D01*
X35735Y-22957D01*
X35716Y-23033D01*
X35716Y-23185D01*
X35735Y-23223D01*
X35754Y-23242D01*
X35792Y-23261D01*
X35868Y-23261D01*
X35906Y-23242D01*
X35925Y-23223D01*
X35944Y-23185D01*
X35944Y-23090D01*
X35925Y-23052D01*
X35906Y-23033D01*
X35868Y-23014D01*
X35792Y-23014D01*
X35754Y-23033D01*
X35735Y-23052D01*
X35716Y-23090D01*
X36287Y-22861D02*
X36211Y-22861D01*
X36173Y-22880D01*
X36154Y-22900D01*
X36116Y-22957D01*
X36097Y-23033D01*
X36097Y-23185D01*
X36116Y-23223D01*
X36135Y-23242D01*
X36173Y-23261D01*
X36249Y-23261D01*
X36287Y-23242D01*
X36306Y-23223D01*
X36325Y-23185D01*
X36325Y-23090D01*
X36306Y-23052D01*
X36287Y-23033D01*
X36249Y-23014D01*
X36173Y-23014D01*
X36135Y-23033D01*
X36116Y-23052D01*
X36097Y-23090D01*
G54D26*
X41561Y-24275D02*
X41571Y-24284D01*
X41580Y-24310D01*
X41580Y-24327D01*
X41571Y-24352D01*
X41552Y-24370D01*
X41533Y-24378D01*
X41495Y-24387D01*
X41466Y-24387D01*
X41428Y-24378D01*
X41409Y-24370D01*
X41390Y-24352D01*
X41380Y-24327D01*
X41380Y-24310D01*
X41390Y-24284D01*
X41400Y-24275D01*
X41580Y-24104D02*
X41580Y-24207D01*
X41580Y-24155D02*
X41380Y-24155D01*
X41409Y-24172D01*
X41428Y-24190D01*
X41438Y-24207D01*
X41380Y-24044D02*
X41380Y-23924D01*
X41580Y-24001D01*
G54D13*
X37014Y-11342D02*
X37414Y-11942D01*
X37414Y-11342D02*
X37014Y-11942D01*
X37957Y-11942D02*
X37614Y-11942D01*
X37785Y-11942D02*
X37785Y-11342D01*
X37728Y-11428D01*
X37671Y-11485D01*
X37614Y-11514D01*
G54D14*
X44862Y-19355D02*
X44262Y-19355D01*
X44805Y-18727D02*
X44834Y-18755D01*
X44862Y-18841D01*
X44862Y-18898D01*
X44834Y-18984D01*
X44777Y-19041D01*
X44720Y-19070D01*
X44605Y-19098D01*
X44520Y-19098D01*
X44405Y-19070D01*
X44348Y-19041D01*
X44291Y-18984D01*
X44262Y-18898D01*
X44262Y-18841D01*
X44291Y-18755D01*
X44320Y-18727D01*
X44862Y-18155D02*
X44862Y-18498D01*
X44862Y-18327D02*
X44262Y-18327D01*
X44348Y-18384D01*
X44405Y-18441D01*
X44434Y-18498D01*
G54D22*
X44847Y-25012D02*
X44847Y-25376D01*
X44868Y-25419D01*
X44890Y-25440D01*
X44932Y-25462D01*
X45018Y-25462D01*
X45061Y-25440D01*
X45082Y-25419D01*
X45104Y-25376D01*
X45104Y-25012D01*
X45275Y-25012D02*
X45554Y-25012D01*
X45404Y-25183D01*
X45468Y-25183D01*
X45511Y-25205D01*
X45532Y-25226D01*
X45554Y-25269D01*
X45554Y-25376D01*
X45532Y-25419D01*
X45511Y-25440D01*
X45468Y-25462D01*
X45340Y-25462D01*
X45297Y-25440D01*
X45275Y-25419D01*
X42203Y-25491D02*
X42403Y-25491D01*
X42303Y-25841D02*
X42303Y-25491D01*
X42686Y-25841D02*
X42520Y-25841D01*
X42520Y-25491D01*
X42803Y-25658D02*
X42920Y-25658D01*
X42970Y-25841D02*
X42803Y-25841D01*
X42803Y-25491D01*
X42970Y-25491D01*
X43103Y-25525D02*
X43120Y-25508D01*
X43153Y-25491D01*
X43236Y-25491D01*
X43270Y-25508D01*
X43286Y-25525D01*
X43303Y-25558D01*
X43303Y-25591D01*
X43286Y-25641D01*
X43086Y-25841D01*
X43303Y-25841D01*
X43603Y-25608D02*
X43603Y-25841D01*
X43520Y-25475D02*
X43436Y-25725D01*
X43653Y-25725D01*
X43770Y-25525D02*
X43786Y-25508D01*
X43820Y-25491D01*
X43903Y-25491D01*
X43936Y-25508D01*
X43953Y-25525D01*
X43970Y-25558D01*
X43970Y-25591D01*
X43953Y-25641D01*
X43753Y-25841D01*
X43970Y-25841D01*
X44270Y-25491D02*
X44203Y-25491D01*
X44170Y-25508D01*
X44153Y-25525D01*
X44120Y-25575D01*
X44103Y-25641D01*
X44103Y-25775D01*
X44120Y-25808D01*
X44136Y-25825D01*
X44170Y-25841D01*
X44236Y-25841D01*
X44270Y-25825D01*
X44286Y-25808D01*
X44303Y-25775D01*
X44303Y-25691D01*
X44286Y-25658D01*
X44270Y-25641D01*
X44236Y-25625D01*
X44170Y-25625D01*
X44136Y-25641D01*
X44120Y-25658D01*
X44103Y-25691D01*
G54D14*
X45400Y-12411D02*
X45300Y-12268D01*
X45228Y-12411D02*
X45228Y-12111D01*
X45342Y-12111D01*
X45371Y-12125D01*
X45385Y-12140D01*
X45400Y-12168D01*
X45400Y-12211D01*
X45385Y-12240D01*
X45371Y-12254D01*
X45342Y-12268D01*
X45228Y-12268D01*
X45685Y-12411D02*
X45514Y-12411D01*
X45600Y-12411D02*
X45600Y-12111D01*
X45571Y-12154D01*
X45542Y-12182D01*
X45514Y-12197D01*
X40671Y-13110D02*
X40528Y-13210D01*
X40671Y-13281D02*
X40371Y-13281D01*
X40371Y-13167D01*
X40385Y-13138D01*
X40400Y-13124D01*
X40428Y-13110D01*
X40471Y-13110D01*
X40500Y-13124D01*
X40514Y-13138D01*
X40528Y-13167D01*
X40528Y-13281D01*
X40371Y-13010D02*
X40371Y-12824D01*
X40485Y-12924D01*
X40485Y-12881D01*
X40500Y-12852D01*
X40514Y-12838D01*
X40542Y-12824D01*
X40614Y-12824D01*
X40642Y-12838D01*
X40657Y-12852D01*
X40671Y-12881D01*
X40671Y-12967D01*
X40657Y-12995D01*
X40642Y-13010D01*
X36391Y-26810D02*
X36248Y-26910D01*
X36391Y-26981D02*
X36091Y-26981D01*
X36091Y-26867D01*
X36105Y-26838D01*
X36120Y-26824D01*
X36148Y-26810D01*
X36191Y-26810D01*
X36220Y-26824D01*
X36234Y-26838D01*
X36248Y-26867D01*
X36248Y-26981D01*
X36120Y-26695D02*
X36105Y-26681D01*
X36091Y-26652D01*
X36091Y-26581D01*
X36105Y-26552D01*
X36120Y-26538D01*
X36148Y-26524D01*
X36177Y-26524D01*
X36220Y-26538D01*
X36391Y-26710D01*
X36391Y-26524D01*
X31902Y-23932D02*
X31917Y-23947D01*
X31931Y-23990D01*
X31931Y-24018D01*
X31917Y-24061D01*
X31888Y-24090D01*
X31860Y-24104D01*
X31802Y-24118D01*
X31760Y-24118D01*
X31702Y-24104D01*
X31674Y-24090D01*
X31645Y-24061D01*
X31631Y-24018D01*
X31631Y-23990D01*
X31645Y-23947D01*
X31660Y-23932D01*
X31931Y-23647D02*
X31931Y-23818D01*
X31931Y-23732D02*
X31631Y-23732D01*
X31674Y-23761D01*
X31702Y-23790D01*
X31717Y-23818D01*
X31660Y-23532D02*
X31645Y-23518D01*
X31631Y-23490D01*
X31631Y-23418D01*
X31645Y-23390D01*
X31660Y-23375D01*
X31688Y-23361D01*
X31717Y-23361D01*
X31760Y-23375D01*
X31931Y-23547D01*
X31931Y-23361D01*
G54D26*
X38670Y-27121D02*
X38661Y-27131D01*
X38635Y-27140D01*
X38618Y-27140D01*
X38592Y-27131D01*
X38575Y-27112D01*
X38567Y-27093D01*
X38558Y-27055D01*
X38558Y-27026D01*
X38567Y-26988D01*
X38575Y-26969D01*
X38592Y-26950D01*
X38618Y-26940D01*
X38635Y-26940D01*
X38661Y-26950D01*
X38670Y-26960D01*
X38755Y-27140D02*
X38790Y-27140D01*
X38807Y-27131D01*
X38815Y-27121D01*
X38832Y-27093D01*
X38841Y-27055D01*
X38841Y-26979D01*
X38832Y-26960D01*
X38824Y-26950D01*
X38807Y-26940D01*
X38772Y-26940D01*
X38755Y-26950D01*
X38747Y-26960D01*
X38738Y-26979D01*
X38738Y-27026D01*
X38747Y-27045D01*
X38755Y-27055D01*
X38772Y-27064D01*
X38807Y-27064D01*
X38824Y-27055D01*
X38832Y-27045D01*
X38841Y-27026D01*
X33511Y-23370D02*
X33521Y-23378D01*
X33530Y-23404D01*
X33530Y-23421D01*
X33521Y-23447D01*
X33502Y-23464D01*
X33483Y-23472D01*
X33445Y-23481D01*
X33416Y-23481D01*
X33378Y-23472D01*
X33359Y-23464D01*
X33340Y-23447D01*
X33330Y-23421D01*
X33330Y-23404D01*
X33340Y-23378D01*
X33350Y-23370D01*
X33330Y-23207D02*
X33330Y-23292D01*
X33426Y-23301D01*
X33416Y-23292D01*
X33407Y-23275D01*
X33407Y-23232D01*
X33416Y-23215D01*
X33426Y-23207D01*
X33445Y-23198D01*
X33492Y-23198D01*
X33511Y-23207D01*
X33521Y-23215D01*
X33530Y-23232D01*
X33530Y-23275D01*
X33521Y-23292D01*
X33511Y-23301D01*
X44771Y-26325D02*
X44781Y-26334D01*
X44790Y-26360D01*
X44790Y-26377D01*
X44781Y-26402D01*
X44762Y-26420D01*
X44743Y-26428D01*
X44705Y-26437D01*
X44676Y-26437D01*
X44638Y-26428D01*
X44619Y-26420D01*
X44600Y-26402D01*
X44590Y-26377D01*
X44590Y-26360D01*
X44600Y-26334D01*
X44610Y-26325D01*
X44790Y-26154D02*
X44790Y-26257D01*
X44790Y-26205D02*
X44590Y-26205D01*
X44619Y-26222D01*
X44638Y-26240D01*
X44648Y-26257D01*
X44657Y-26000D02*
X44790Y-26000D01*
X44581Y-26042D02*
X44724Y-26085D01*
X44724Y-25974D01*
G54D14*
X35342Y-26820D02*
X35357Y-26834D01*
X35371Y-26877D01*
X35371Y-26905D01*
X35357Y-26948D01*
X35328Y-26977D01*
X35300Y-26991D01*
X35242Y-27005D01*
X35200Y-27005D01*
X35142Y-26991D01*
X35114Y-26977D01*
X35085Y-26948D01*
X35071Y-26905D01*
X35071Y-26877D01*
X35085Y-26834D01*
X35100Y-26820D01*
X35171Y-26562D02*
X35371Y-26562D01*
X35057Y-26634D02*
X35271Y-26705D01*
X35271Y-26520D01*
X34372Y-26800D02*
X34387Y-26814D01*
X34401Y-26857D01*
X34401Y-26885D01*
X34387Y-26928D01*
X34358Y-26957D01*
X34330Y-26971D01*
X34272Y-26985D01*
X34230Y-26985D01*
X34172Y-26971D01*
X34144Y-26957D01*
X34115Y-26928D01*
X34101Y-26885D01*
X34101Y-26857D01*
X34115Y-26814D01*
X34130Y-26800D01*
X34101Y-26700D02*
X34101Y-26514D01*
X34215Y-26614D01*
X34215Y-26571D01*
X34230Y-26542D01*
X34244Y-26528D01*
X34272Y-26514D01*
X34344Y-26514D01*
X34372Y-26528D01*
X34387Y-26542D01*
X34401Y-26571D01*
X34401Y-26657D01*
X34387Y-26685D01*
X34372Y-26700D01*
X36710Y-19832D02*
X36695Y-19847D01*
X36652Y-19861D01*
X36624Y-19861D01*
X36581Y-19847D01*
X36552Y-19818D01*
X36538Y-19790D01*
X36524Y-19732D01*
X36524Y-19690D01*
X36538Y-19632D01*
X36552Y-19604D01*
X36581Y-19575D01*
X36624Y-19561D01*
X36652Y-19561D01*
X36695Y-19575D01*
X36710Y-19590D01*
X36967Y-19561D02*
X36910Y-19561D01*
X36881Y-19575D01*
X36867Y-19590D01*
X36838Y-19632D01*
X36824Y-19690D01*
X36824Y-19804D01*
X36838Y-19832D01*
X36852Y-19847D01*
X36881Y-19861D01*
X36938Y-19861D01*
X36967Y-19847D01*
X36981Y-19832D01*
X36995Y-19804D01*
X36995Y-19732D01*
X36981Y-19704D01*
X36967Y-19690D01*
X36938Y-19675D01*
X36881Y-19675D01*
X36852Y-19690D01*
X36838Y-19704D01*
X36824Y-19732D01*
X34620Y-19812D02*
X34605Y-19827D01*
X34562Y-19841D01*
X34534Y-19841D01*
X34491Y-19827D01*
X34462Y-19798D01*
X34448Y-19770D01*
X34434Y-19712D01*
X34434Y-19670D01*
X34448Y-19612D01*
X34462Y-19584D01*
X34491Y-19555D01*
X34534Y-19541D01*
X34562Y-19541D01*
X34605Y-19555D01*
X34620Y-19570D01*
X34720Y-19541D02*
X34920Y-19541D01*
X34791Y-19841D01*
G54D26*
X40874Y-18001D02*
X40865Y-18011D01*
X40840Y-18020D01*
X40822Y-18020D01*
X40797Y-18011D01*
X40780Y-17992D01*
X40771Y-17973D01*
X40762Y-17935D01*
X40762Y-17906D01*
X40771Y-17868D01*
X40780Y-17849D01*
X40797Y-17830D01*
X40822Y-17820D01*
X40840Y-17820D01*
X40865Y-17830D01*
X40874Y-17840D01*
X41045Y-18020D02*
X40942Y-18020D01*
X40994Y-18020D02*
X40994Y-17820D01*
X40977Y-17849D01*
X40960Y-17868D01*
X40942Y-17878D01*
X41148Y-17906D02*
X41131Y-17897D01*
X41122Y-17887D01*
X41114Y-17868D01*
X41114Y-17859D01*
X41122Y-17840D01*
X41131Y-17830D01*
X41148Y-17820D01*
X41182Y-17820D01*
X41200Y-17830D01*
X41208Y-17840D01*
X41217Y-17859D01*
X41217Y-17868D01*
X41208Y-17887D01*
X41200Y-17897D01*
X41182Y-17906D01*
X41148Y-17906D01*
X41131Y-17916D01*
X41122Y-17925D01*
X41114Y-17944D01*
X41114Y-17982D01*
X41122Y-18001D01*
X41131Y-18011D01*
X41148Y-18020D01*
X41182Y-18020D01*
X41200Y-18011D01*
X41208Y-18001D01*
X41217Y-17982D01*
X41217Y-17944D01*
X41208Y-17925D01*
X41200Y-17916D01*
X41182Y-17906D01*
G54D29*
X36991Y-18690D02*
X36962Y-18675D01*
X36934Y-18647D01*
X36891Y-18604D01*
X36862Y-18590D01*
X36834Y-18590D01*
X36848Y-18661D02*
X36820Y-18647D01*
X36791Y-18618D01*
X36777Y-18561D01*
X36777Y-18461D01*
X36791Y-18404D01*
X36820Y-18375D01*
X36848Y-18361D01*
X36905Y-18361D01*
X36934Y-18375D01*
X36962Y-18404D01*
X36977Y-18461D01*
X36977Y-18561D01*
X36962Y-18618D01*
X36934Y-18647D01*
X36905Y-18661D01*
X36848Y-18661D01*
X37262Y-18661D02*
X37091Y-18661D01*
X37177Y-18661D02*
X37177Y-18361D01*
X37148Y-18404D01*
X37120Y-18432D01*
X37091Y-18447D01*
G54D30*
X35550Y-18421D02*
X35559Y-18412D01*
X35578Y-18402D01*
X35625Y-18402D01*
X35644Y-18412D01*
X35653Y-18421D01*
X35662Y-18440D01*
X35662Y-18459D01*
X35653Y-18487D01*
X35540Y-18599D01*
X35662Y-18599D01*
X35747Y-18599D02*
X35747Y-18402D01*
X35859Y-18599D01*
X35859Y-18402D01*
X35934Y-18402D02*
X36066Y-18402D01*
X35981Y-18599D01*
X36178Y-18402D02*
X36197Y-18402D01*
X36216Y-18412D01*
X36225Y-18421D01*
X36235Y-18440D01*
X36244Y-18477D01*
X36244Y-18524D01*
X36235Y-18562D01*
X36225Y-18580D01*
X36216Y-18590D01*
X36197Y-18599D01*
X36178Y-18599D01*
X36160Y-18590D01*
X36150Y-18580D01*
X36141Y-18562D01*
X36131Y-18524D01*
X36131Y-18477D01*
X36141Y-18440D01*
X36150Y-18421D01*
X36160Y-18412D01*
X36178Y-18402D01*
X36366Y-18402D02*
X36385Y-18402D01*
X36403Y-18412D01*
X36413Y-18421D01*
X36422Y-18440D01*
X36432Y-18477D01*
X36432Y-18524D01*
X36422Y-18562D01*
X36413Y-18580D01*
X36403Y-18590D01*
X36385Y-18599D01*
X36366Y-18599D01*
X36347Y-18590D01*
X36338Y-18580D01*
X36328Y-18562D01*
X36319Y-18524D01*
X36319Y-18477D01*
X36328Y-18440D01*
X36338Y-18421D01*
X36347Y-18412D01*
X36366Y-18402D01*
X36507Y-18421D02*
X36516Y-18412D01*
X36535Y-18402D01*
X36582Y-18402D01*
X36600Y-18412D01*
X36610Y-18421D01*
X36619Y-18440D01*
X36619Y-18459D01*
X36610Y-18487D01*
X36497Y-18599D01*
X36619Y-18599D01*
G54D22*
X42497Y-11596D02*
X42497Y-11839D01*
X42512Y-11867D01*
X42526Y-11882D01*
X42555Y-11896D01*
X42612Y-11896D01*
X42640Y-11882D01*
X42655Y-11867D01*
X42669Y-11839D01*
X42669Y-11596D01*
X42797Y-11882D02*
X42840Y-11896D01*
X42912Y-11896D01*
X42940Y-11882D01*
X42955Y-11867D01*
X42969Y-11839D01*
X42969Y-11810D01*
X42955Y-11782D01*
X42940Y-11767D01*
X42912Y-11753D01*
X42855Y-11739D01*
X42826Y-11725D01*
X42812Y-11710D01*
X42797Y-11682D01*
X42797Y-11653D01*
X42812Y-11625D01*
X42826Y-11610D01*
X42855Y-11596D01*
X42926Y-11596D01*
X42969Y-11610D01*
X43197Y-11739D02*
X43240Y-11753D01*
X43255Y-11767D01*
X43269Y-11796D01*
X43269Y-11839D01*
X43255Y-11867D01*
X43240Y-11882D01*
X43212Y-11896D01*
X43097Y-11896D01*
X43097Y-11596D01*
X43197Y-11596D01*
X43226Y-11610D01*
X43240Y-11625D01*
X43255Y-11653D01*
X43255Y-11682D01*
X43240Y-11710D01*
X43226Y-11725D01*
X43197Y-11739D01*
X43097Y-11739D01*
X43326Y-11925D02*
X43555Y-11925D01*
X43626Y-11896D02*
X43626Y-11596D01*
X43740Y-11596D01*
X43769Y-11610D01*
X43783Y-11625D01*
X43797Y-11653D01*
X43797Y-11696D01*
X43783Y-11725D01*
X43769Y-11739D01*
X43740Y-11753D01*
X43626Y-11753D01*
X43983Y-11596D02*
X44040Y-11596D01*
X44069Y-11610D01*
X44097Y-11639D01*
X44112Y-11696D01*
X44112Y-11796D01*
X44097Y-11853D01*
X44069Y-11882D01*
X44040Y-11896D01*
X43983Y-11896D01*
X43955Y-11882D01*
X43926Y-11853D01*
X43912Y-11796D01*
X43912Y-11696D01*
X43926Y-11639D01*
X43955Y-11610D01*
X43983Y-11596D01*
X44212Y-11596D02*
X44283Y-11896D01*
X44340Y-11682D01*
X44397Y-11896D01*
X44469Y-11596D01*
X44583Y-11739D02*
X44683Y-11739D01*
X44726Y-11896D02*
X44583Y-11896D01*
X44583Y-11596D01*
X44726Y-11596D01*
X45026Y-11896D02*
X44926Y-11753D01*
X44855Y-11896D02*
X44855Y-11596D01*
X44969Y-11596D01*
X44997Y-11610D01*
X45012Y-11625D01*
X45026Y-11653D01*
X45026Y-11696D01*
X45012Y-11725D01*
X44997Y-11739D01*
X44969Y-11753D01*
X44855Y-11753D01*
M02*
