G04 (created by PCBNEW (2013-07-07 BZR 4022)-stable) date 11/09/2013 1:30:06 PM*
%MOIN*%
G04 Gerber Fmt 3.4, Leading zero omitted, Abs format*
%FSLAX34Y34*%
G01*
G70*
G90*
G04 APERTURE LIST*
%ADD10C,0.00590551*%
%ADD11R,0.0236X0.0551*%
%ADD12R,0.02X0.045*%
%ADD13R,0.08X0.06*%
%ADD14R,0.06X0.08*%
%ADD15R,0.045X0.025*%
%ADD16R,0.025X0.045*%
%ADD17R,0.015X0.05*%
%ADD18R,0.0629X0.0709*%
%ADD19R,0.03X0.05*%
%ADD20R,0.0315X0.0394*%
G04 APERTURE END LIST*
G54D10*
G54D11*
X31950Y-21050D03*
X31950Y-18950D03*
X31450Y-21050D03*
X30950Y-21050D03*
X30450Y-21050D03*
X31450Y-18950D03*
X30950Y-18950D03*
X30450Y-18950D03*
G54D12*
X38150Y-26350D03*
X38650Y-26350D03*
X39150Y-26350D03*
X39650Y-26350D03*
X40150Y-26350D03*
X40650Y-26350D03*
X41150Y-26350D03*
X41150Y-24250D03*
X40650Y-24250D03*
X40150Y-24250D03*
X39650Y-24250D03*
X39150Y-24250D03*
X38650Y-24250D03*
X38150Y-24250D03*
G54D13*
X34510Y-12370D03*
X34510Y-11070D03*
G54D14*
X31650Y-17900D03*
X32950Y-17900D03*
G54D15*
X48220Y-11930D03*
X48220Y-12530D03*
X48340Y-19070D03*
X48340Y-18470D03*
G54D16*
X47210Y-24730D03*
X47810Y-24730D03*
G54D14*
X34050Y-19000D03*
X32750Y-19000D03*
G54D13*
X32800Y-21450D03*
X32800Y-20150D03*
G54D17*
X47714Y-17980D03*
X47458Y-17980D03*
X47202Y-17980D03*
X46946Y-17980D03*
X46946Y-19680D03*
X47202Y-19680D03*
X47458Y-19680D03*
X47714Y-19680D03*
G54D16*
X30400Y-18200D03*
X31000Y-18200D03*
X30490Y-21790D03*
X31090Y-21790D03*
G54D13*
X41390Y-11120D03*
X41390Y-12420D03*
G54D14*
X11050Y-22680D03*
X12350Y-22680D03*
G54D18*
X11031Y-23700D03*
X12149Y-23700D03*
G54D12*
X48040Y-21950D03*
X47540Y-21950D03*
X47040Y-21950D03*
X46540Y-21950D03*
X46040Y-21950D03*
X45540Y-21950D03*
X45040Y-21950D03*
X45040Y-24050D03*
X45540Y-24050D03*
X46040Y-24050D03*
X46540Y-24050D03*
X47040Y-24050D03*
X47540Y-24050D03*
X48040Y-24050D03*
X34140Y-23800D03*
X34640Y-23800D03*
X35140Y-23800D03*
X35640Y-23800D03*
X36140Y-23800D03*
X36640Y-23800D03*
X37140Y-23800D03*
X37140Y-21700D03*
X36640Y-21700D03*
X36140Y-21700D03*
X35640Y-21700D03*
X35140Y-21700D03*
X34640Y-21700D03*
X34140Y-21700D03*
G54D15*
X41930Y-24680D03*
X41930Y-24080D03*
G54D19*
X43930Y-18600D03*
X43430Y-18600D03*
X42930Y-18600D03*
X42430Y-18600D03*
X41930Y-18600D03*
X41430Y-18600D03*
X40930Y-18600D03*
X40430Y-18600D03*
X39930Y-18600D03*
X39430Y-18600D03*
X38930Y-18600D03*
X38430Y-18600D03*
X43930Y-22400D03*
X43430Y-22400D03*
X42930Y-22400D03*
X42430Y-22400D03*
X41930Y-22400D03*
X41430Y-22400D03*
X40930Y-22400D03*
X40430Y-22400D03*
X39930Y-22400D03*
X39430Y-22400D03*
X38930Y-22400D03*
X38430Y-22400D03*
G54D11*
X42520Y-24250D03*
X42520Y-26350D03*
X43020Y-24250D03*
X43520Y-24250D03*
X44020Y-24250D03*
X43020Y-26350D03*
X43520Y-26350D03*
X44020Y-26350D03*
G54D14*
X47420Y-12250D03*
X46120Y-12250D03*
G54D13*
X40360Y-12420D03*
X40360Y-11120D03*
X36260Y-26090D03*
X36260Y-24790D03*
X32510Y-23040D03*
X32510Y-24340D03*
G54D16*
X39640Y-27010D03*
X39040Y-27010D03*
G54D15*
X33360Y-23020D03*
X33360Y-22420D03*
X44710Y-26510D03*
X44710Y-25910D03*
G54D13*
X35220Y-26090D03*
X35220Y-24790D03*
X34180Y-26090D03*
X34180Y-24790D03*
G54D14*
X36120Y-20430D03*
X37420Y-20430D03*
X35300Y-20430D03*
X34000Y-20430D03*
G54D16*
X41440Y-17960D03*
X42040Y-17960D03*
G54D20*
X36110Y-18953D03*
X35735Y-18087D03*
X36485Y-18087D03*
M02*
