G04 (created by PCBNEW (2013-07-07 BZR 4022)-stable) date 27/05/2014 8:16:36 PM*
%MOIN*%
G04 Gerber Fmt 3.4, Leading zero omitted, Abs format*
%FSLAX34Y34*%
G01*
G70*
G90*
G04 APERTURE LIST*
%ADD10C,0.00590551*%
%ADD11C,0.005*%
G04 APERTURE END LIST*
G54D10*
G54D11*
X43910Y-23900D02*
X43910Y-24800D01*
X43910Y-24800D02*
X43260Y-24800D01*
X42560Y-23900D02*
X41910Y-23900D01*
X41910Y-23900D02*
X41910Y-24800D01*
X41910Y-24800D02*
X42560Y-24800D01*
X43260Y-23900D02*
X43910Y-23900D01*
X41065Y-20395D02*
X41065Y-19495D01*
X41065Y-19495D02*
X41715Y-19495D01*
X42415Y-20395D02*
X43065Y-20395D01*
X43065Y-20395D02*
X43065Y-19495D01*
X43065Y-19495D02*
X42415Y-19495D01*
X41715Y-20395D02*
X41065Y-20395D01*
X43092Y-25142D02*
X43107Y-25157D01*
X43150Y-25171D01*
X43178Y-25171D01*
X43221Y-25157D01*
X43250Y-25128D01*
X43264Y-25100D01*
X43278Y-25042D01*
X43278Y-25000D01*
X43264Y-24942D01*
X43250Y-24914D01*
X43221Y-24885D01*
X43178Y-24871D01*
X43150Y-24871D01*
X43107Y-24885D01*
X43092Y-24900D01*
X42807Y-25171D02*
X42978Y-25171D01*
X42892Y-25171D02*
X42892Y-24871D01*
X42921Y-24914D01*
X42950Y-24942D01*
X42978Y-24957D01*
X42707Y-24871D02*
X42507Y-24871D01*
X42635Y-25171D01*
X42242Y-20792D02*
X42257Y-20807D01*
X42300Y-20821D01*
X42328Y-20821D01*
X42371Y-20807D01*
X42400Y-20778D01*
X42414Y-20750D01*
X42428Y-20692D01*
X42428Y-20650D01*
X42414Y-20592D01*
X42400Y-20564D01*
X42371Y-20535D01*
X42328Y-20521D01*
X42300Y-20521D01*
X42257Y-20535D01*
X42242Y-20550D01*
X41957Y-20821D02*
X42128Y-20821D01*
X42042Y-20821D02*
X42042Y-20521D01*
X42071Y-20564D01*
X42100Y-20592D01*
X42128Y-20607D01*
X41785Y-20650D02*
X41814Y-20635D01*
X41828Y-20621D01*
X41842Y-20592D01*
X41842Y-20578D01*
X41828Y-20550D01*
X41814Y-20535D01*
X41785Y-20521D01*
X41728Y-20521D01*
X41700Y-20535D01*
X41685Y-20550D01*
X41671Y-20578D01*
X41671Y-20592D01*
X41685Y-20621D01*
X41700Y-20635D01*
X41728Y-20650D01*
X41785Y-20650D01*
X41814Y-20664D01*
X41828Y-20678D01*
X41842Y-20707D01*
X41842Y-20764D01*
X41828Y-20792D01*
X41814Y-20807D01*
X41785Y-20821D01*
X41728Y-20821D01*
X41700Y-20807D01*
X41685Y-20792D01*
X41671Y-20764D01*
X41671Y-20707D01*
X41685Y-20678D01*
X41700Y-20664D01*
X41728Y-20650D01*
M02*
