G04 (created by PCBNEW (2013-07-07 BZR 4022)-stable) date 26/08/2013 6:07:25 PM*
%MOIN*%
G04 Gerber Fmt 3.4, Leading zero omitted, Abs format*
%FSLAX34Y34*%
G01*
G70*
G90*
G04 APERTURE LIST*
%ADD10C,0.00590551*%
%ADD11C,0.12*%
%ADD12R,0.06X0.06*%
%ADD13C,0.06*%
%ADD14C,0.16*%
%ADD15C,0.11811*%
%ADD16R,0.1X0.1*%
%ADD17R,0.0236X0.0551*%
%ADD18R,0.02X0.045*%
%ADD19R,0.08X0.06*%
%ADD20R,0.06X0.08*%
%ADD21R,0.045X0.025*%
%ADD22R,0.025X0.045*%
%ADD23C,0.1378*%
%ADD24C,0.055*%
%ADD25R,0.055X0.055*%
%ADD26R,0.015X0.05*%
%ADD27R,0.0629X0.0709*%
%ADD28C,0.056*%
%ADD29R,0.03X0.05*%
%ADD30R,0.0315X0.0394*%
%ADD31C,0.035*%
%ADD32C,0.01*%
%ADD33C,0.0079*%
G04 APERTURE END LIST*
G54D10*
G54D11*
X11600Y-25950D03*
X20200Y-25950D03*
G54D12*
X17900Y-25250D03*
G54D13*
X17900Y-26250D03*
X16900Y-25250D03*
X16900Y-26250D03*
X15900Y-25250D03*
X15900Y-26250D03*
X14900Y-25250D03*
X14900Y-26250D03*
X13900Y-25250D03*
X13900Y-26250D03*
G54D14*
X45525Y-20075D03*
X26400Y-20075D03*
G54D15*
X23370Y-27166D03*
G54D16*
X23370Y-22128D03*
X25024Y-22128D03*
X26676Y-22128D03*
X28330Y-22128D03*
X23370Y-24292D03*
X25024Y-24292D03*
X26676Y-24292D03*
X28330Y-24292D03*
G54D15*
X28330Y-27166D03*
G54D11*
X20200Y-11800D03*
X11600Y-11800D03*
G54D12*
X13900Y-12500D03*
G54D13*
X13900Y-11500D03*
X14900Y-12500D03*
X14900Y-11500D03*
X15900Y-12500D03*
X15900Y-11500D03*
X16900Y-12500D03*
X16900Y-11500D03*
X17900Y-12500D03*
X17900Y-11500D03*
G54D17*
X31950Y-21050D03*
X31950Y-18950D03*
X31450Y-21050D03*
X30950Y-21050D03*
X30450Y-21050D03*
X31450Y-18950D03*
X30950Y-18950D03*
X30450Y-18950D03*
G54D18*
X38150Y-26350D03*
X38650Y-26350D03*
X39150Y-26350D03*
X39650Y-26350D03*
X40150Y-26350D03*
X40650Y-26350D03*
X41150Y-26350D03*
X41150Y-24250D03*
X40650Y-24250D03*
X40150Y-24250D03*
X39650Y-24250D03*
X39150Y-24250D03*
X38650Y-24250D03*
X38150Y-24250D03*
G54D19*
X34510Y-12370D03*
X34510Y-11070D03*
G54D20*
X31650Y-17900D03*
X32950Y-17900D03*
G54D21*
X48220Y-11930D03*
X48220Y-12530D03*
X48340Y-19070D03*
X48340Y-18470D03*
G54D22*
X47210Y-24730D03*
X47810Y-24730D03*
G54D23*
X27900Y-13400D03*
X23900Y-13400D03*
G54D13*
X24900Y-15400D03*
X25900Y-15400D03*
G54D24*
X48226Y-15851D03*
X46454Y-15851D03*
X48226Y-13489D03*
X46454Y-13489D03*
G54D20*
X34050Y-19000D03*
X32750Y-19000D03*
G54D19*
X32800Y-21450D03*
X32800Y-20150D03*
G54D12*
X33230Y-11200D03*
G54D13*
X33230Y-12200D03*
X32230Y-11200D03*
X32230Y-12200D03*
X31230Y-11200D03*
X31230Y-12200D03*
G54D12*
X43220Y-10980D03*
G54D13*
X44220Y-10980D03*
X45220Y-10980D03*
X46220Y-10980D03*
X47220Y-10980D03*
X48220Y-10980D03*
G54D24*
X44040Y-13500D03*
X43040Y-13500D03*
X42040Y-13500D03*
X41040Y-13500D03*
X40040Y-13500D03*
X39040Y-13500D03*
X38040Y-13500D03*
X37040Y-13500D03*
X36040Y-13500D03*
X35040Y-13500D03*
X34040Y-13500D03*
X33040Y-13500D03*
X32040Y-13500D03*
G54D25*
X45040Y-13500D03*
G54D24*
X32040Y-16500D03*
X33040Y-16500D03*
X34040Y-16500D03*
X35040Y-16500D03*
X36040Y-16500D03*
X37040Y-16500D03*
X38040Y-16500D03*
X39040Y-16500D03*
X40040Y-16500D03*
X41040Y-16500D03*
X42040Y-16500D03*
X43040Y-16500D03*
X44040Y-16500D03*
X45040Y-16500D03*
G54D26*
X47714Y-17980D03*
X47458Y-17980D03*
X47202Y-17980D03*
X46946Y-17980D03*
X46946Y-19680D03*
X47202Y-19680D03*
X47458Y-19680D03*
X47714Y-19680D03*
G54D22*
X30400Y-18200D03*
X31000Y-18200D03*
X30490Y-21790D03*
X31090Y-21790D03*
G54D19*
X41390Y-11120D03*
X41390Y-12420D03*
G54D20*
X11050Y-22680D03*
X12350Y-22680D03*
G54D27*
X11031Y-23700D03*
X12149Y-23700D03*
G54D12*
X29725Y-15950D03*
G54D13*
X29725Y-14950D03*
X29725Y-13950D03*
G54D18*
X48040Y-21950D03*
X47540Y-21950D03*
X47040Y-21950D03*
X46540Y-21950D03*
X46040Y-21950D03*
X45540Y-21950D03*
X45040Y-21950D03*
X45040Y-24050D03*
X45540Y-24050D03*
X46040Y-24050D03*
X46540Y-24050D03*
X47040Y-24050D03*
X47540Y-24050D03*
X48040Y-24050D03*
X34140Y-23800D03*
X34640Y-23800D03*
X35140Y-23800D03*
X35640Y-23800D03*
X36140Y-23800D03*
X36640Y-23800D03*
X37140Y-23800D03*
X37140Y-21700D03*
X36640Y-21700D03*
X36140Y-21700D03*
X35640Y-21700D03*
X35140Y-21700D03*
X34640Y-21700D03*
X34140Y-21700D03*
G54D21*
X41930Y-24680D03*
X41930Y-24080D03*
G54D28*
X36430Y-11660D03*
X38430Y-11660D03*
G54D29*
X43930Y-18600D03*
X43430Y-18600D03*
X42930Y-18600D03*
X42430Y-18600D03*
X41930Y-18600D03*
X41430Y-18600D03*
X40930Y-18600D03*
X40430Y-18600D03*
X39930Y-18600D03*
X39430Y-18600D03*
X38930Y-18600D03*
X38430Y-18600D03*
X43930Y-22400D03*
X43430Y-22400D03*
X42930Y-22400D03*
X42430Y-22400D03*
X41930Y-22400D03*
X41430Y-22400D03*
X40930Y-22400D03*
X40430Y-22400D03*
X39930Y-22400D03*
X39430Y-22400D03*
X38930Y-22400D03*
X38430Y-22400D03*
G54D17*
X42520Y-24250D03*
X42520Y-26350D03*
X43020Y-24250D03*
X43520Y-24250D03*
X44020Y-24250D03*
X43020Y-26350D03*
X43520Y-26350D03*
X44020Y-26350D03*
G54D20*
X47420Y-12250D03*
X46120Y-12250D03*
G54D19*
X40360Y-12420D03*
X40360Y-11120D03*
X36260Y-26090D03*
X36260Y-24790D03*
X32510Y-23040D03*
X32510Y-24340D03*
G54D22*
X39640Y-27010D03*
X39040Y-27010D03*
G54D21*
X33360Y-23020D03*
X33360Y-22420D03*
X44710Y-26510D03*
X44710Y-25910D03*
G54D19*
X35220Y-26090D03*
X35220Y-24790D03*
X34180Y-26090D03*
X34180Y-24790D03*
G54D20*
X36120Y-20430D03*
X37420Y-20430D03*
X35300Y-20430D03*
X34000Y-20430D03*
G54D22*
X41440Y-17960D03*
X42040Y-17960D03*
G54D30*
X36110Y-18953D03*
X35735Y-18087D03*
X36485Y-18087D03*
G54D12*
X43110Y-12480D03*
G54D13*
X44110Y-12480D03*
G54D31*
X31925Y-20225D03*
X30790Y-23240D03*
X40170Y-27020D03*
X39770Y-24770D03*
X37110Y-25990D03*
X41430Y-19240D03*
X40550Y-16800D03*
X34150Y-22320D03*
X31775Y-17075D03*
X29700Y-23690D03*
X44040Y-15160D03*
X37830Y-22440D03*
X37530Y-24760D03*
X37650Y-26940D03*
X35460Y-23200D03*
X42920Y-23050D03*
X41880Y-25870D03*
X39420Y-20280D03*
X39380Y-25750D03*
X39420Y-21740D03*
X40610Y-19170D03*
X39760Y-17310D03*
X34080Y-15850D03*
X41930Y-19220D03*
X37022Y-18067D03*
X34640Y-22430D03*
X40910Y-26830D03*
X39960Y-23670D03*
X42440Y-19160D03*
X12140Y-24510D03*
X39330Y-11720D03*
X39430Y-19170D03*
X38720Y-23620D03*
X43940Y-21800D03*
X43410Y-19630D03*
X38440Y-19220D03*
X38210Y-23650D03*
X33610Y-21440D03*
X31750Y-23080D03*
X42150Y-23550D03*
X43320Y-19180D03*
X40420Y-21770D03*
X40420Y-25760D03*
X40890Y-25750D03*
X41410Y-21780D03*
X36110Y-19450D03*
X36130Y-23200D03*
X35130Y-22320D03*
X41800Y-26410D03*
X41350Y-23280D03*
X39930Y-19190D03*
X39930Y-21770D03*
G54D32*
X31950Y-21050D02*
X31950Y-20250D01*
X31925Y-20225D02*
X31950Y-20250D01*
X24492Y-23250D02*
X23370Y-22128D01*
X30780Y-23250D02*
X24492Y-23250D01*
X30790Y-23240D02*
X30780Y-23250D01*
X31950Y-21200D02*
X31950Y-21050D01*
X31350Y-21800D02*
X31950Y-21200D01*
X31100Y-21800D02*
X31350Y-21800D01*
X45450Y-11580D02*
X44010Y-11580D01*
X44010Y-11580D02*
X43110Y-12480D01*
X46120Y-12250D02*
X45450Y-11580D01*
X21925Y-22335D02*
X21925Y-21915D01*
X24166Y-21270D02*
X25024Y-22128D01*
X22570Y-21270D02*
X24166Y-21270D01*
X21925Y-21915D02*
X22570Y-21270D01*
X31530Y-22420D02*
X30800Y-22420D01*
X30800Y-22420D02*
X30280Y-22940D01*
X30280Y-22940D02*
X25836Y-22940D01*
X25836Y-22940D02*
X25024Y-22128D01*
X33360Y-22420D02*
X31530Y-22420D01*
X43390Y-27160D02*
X43400Y-27160D01*
X43400Y-27160D02*
X43770Y-26790D01*
X40170Y-27020D02*
X40540Y-27020D01*
X40680Y-27160D02*
X43390Y-27160D01*
X40540Y-27020D02*
X40680Y-27160D01*
X37110Y-25990D02*
X37110Y-25760D01*
X40170Y-27020D02*
X40170Y-27010D01*
X39720Y-24820D02*
X39770Y-24770D01*
X38050Y-24820D02*
X39720Y-24820D01*
X37110Y-25760D02*
X38050Y-24820D01*
X37010Y-26090D02*
X36260Y-26090D01*
X37110Y-25990D02*
X37010Y-26090D01*
X17900Y-26250D02*
X18010Y-26250D01*
X18010Y-26250D02*
X21925Y-22335D01*
X21925Y-22335D02*
X21930Y-22330D01*
X39640Y-27010D02*
X40170Y-27010D01*
X39640Y-27010D02*
X39640Y-26360D01*
X39640Y-26360D02*
X39650Y-26350D01*
X44710Y-26510D02*
X46480Y-26510D01*
X47810Y-25180D02*
X47810Y-24730D01*
X46480Y-26510D02*
X47810Y-25180D01*
X48040Y-24050D02*
X48040Y-22960D01*
X48040Y-22960D02*
X48380Y-22620D01*
X48380Y-22620D02*
X48380Y-20346D01*
X48380Y-20346D02*
X47714Y-19680D01*
X43520Y-26350D02*
X43520Y-26540D01*
X43520Y-26540D02*
X43770Y-26790D01*
X44430Y-26790D02*
X44710Y-26510D01*
X43770Y-26790D02*
X44430Y-26790D01*
X41440Y-17960D02*
X41440Y-18590D01*
X41440Y-18590D02*
X41430Y-18600D01*
X33360Y-22420D02*
X34050Y-22420D01*
X34050Y-22420D02*
X34150Y-22320D01*
X12350Y-22680D02*
X12900Y-22680D01*
X12900Y-22680D02*
X12900Y-22700D01*
X47714Y-19680D02*
X47730Y-19680D01*
X47730Y-19680D02*
X48340Y-19070D01*
X47714Y-19680D02*
X47458Y-19680D01*
X40560Y-16970D02*
X40560Y-16810D01*
X41430Y-19240D02*
X41430Y-18600D01*
X40560Y-16810D02*
X40550Y-16800D01*
X37040Y-16500D02*
X37140Y-16500D01*
X37610Y-16970D02*
X40560Y-16970D01*
X37140Y-16500D02*
X37610Y-16970D01*
X34140Y-21700D02*
X34140Y-22310D01*
X34140Y-22310D02*
X34150Y-22320D01*
X47810Y-24730D02*
X47810Y-24280D01*
X47810Y-24280D02*
X48040Y-24050D01*
X33230Y-12200D02*
X33260Y-12200D01*
X38390Y-12850D02*
X39040Y-13500D01*
X33910Y-12850D02*
X38390Y-12850D01*
X33260Y-12200D02*
X33910Y-12850D01*
X17925Y-26250D02*
X17900Y-26250D01*
X13800Y-27200D02*
X16950Y-27200D01*
X12900Y-26300D02*
X13800Y-27200D01*
X13900Y-11500D02*
X12900Y-12500D01*
X12900Y-12500D02*
X12900Y-22700D01*
X12900Y-22700D02*
X12900Y-26300D01*
X16950Y-27200D02*
X17900Y-26250D01*
X28286Y-21486D02*
X28286Y-22084D01*
X28286Y-22084D02*
X28330Y-22128D01*
X30450Y-18950D02*
X30450Y-19323D01*
X30450Y-19323D02*
X28286Y-21486D01*
X28286Y-21486D02*
X28280Y-21493D01*
X30400Y-18200D02*
X30400Y-18900D01*
X30400Y-18900D02*
X30450Y-18950D01*
X32100Y-17050D02*
X32950Y-17900D01*
X31800Y-17050D02*
X32100Y-17050D01*
X31775Y-17075D02*
X31800Y-17050D01*
X32950Y-17900D02*
X34050Y-19000D01*
X31950Y-18950D02*
X31950Y-18650D01*
X32700Y-17900D02*
X32950Y-17900D01*
X31950Y-18650D02*
X32700Y-17900D01*
X32510Y-24340D02*
X30350Y-24340D01*
X30350Y-24340D02*
X29700Y-23690D01*
X36900Y-26920D02*
X33870Y-26920D01*
X40650Y-24700D02*
X40190Y-25160D01*
X40190Y-25160D02*
X38660Y-25160D01*
X38660Y-25160D02*
X36900Y-26920D01*
X40650Y-24250D02*
X40650Y-24700D01*
X32510Y-25560D02*
X32510Y-24340D01*
X33870Y-26920D02*
X32510Y-25560D01*
X41150Y-24250D02*
X40650Y-24250D01*
X13900Y-12500D02*
X13900Y-12300D01*
X32390Y-15160D02*
X44040Y-15160D01*
X27800Y-10570D02*
X32390Y-15160D01*
X15010Y-10570D02*
X27800Y-10570D01*
X14420Y-11160D02*
X15010Y-10570D01*
X14420Y-11780D02*
X14420Y-11160D01*
X13900Y-12300D02*
X14420Y-11780D01*
X32080Y-15510D02*
X44050Y-15510D01*
X14900Y-11400D02*
X15510Y-10790D01*
X15510Y-10790D02*
X27360Y-10790D01*
X27360Y-10790D02*
X32080Y-15510D01*
X14900Y-11500D02*
X14900Y-11400D01*
X44050Y-15510D02*
X45040Y-16500D01*
X14900Y-11500D02*
X14900Y-11325D01*
X36720Y-25460D02*
X36830Y-25460D01*
X35220Y-25810D02*
X35570Y-25460D01*
X35570Y-25460D02*
X36720Y-25460D01*
X35220Y-26090D02*
X35220Y-25810D01*
X37870Y-22400D02*
X38430Y-22400D01*
X37830Y-22440D02*
X37870Y-22400D01*
X36830Y-25460D02*
X37530Y-24760D01*
X35220Y-26090D02*
X34180Y-26090D01*
X38430Y-22400D02*
X38430Y-22040D01*
X42430Y-21890D02*
X42430Y-22400D01*
X41900Y-21360D02*
X42430Y-21890D01*
X39110Y-21360D02*
X41900Y-21360D01*
X38430Y-22040D02*
X39110Y-21360D01*
X35140Y-23800D02*
X35140Y-23520D01*
X38150Y-26440D02*
X38150Y-26350D01*
X37650Y-26940D02*
X38150Y-26440D01*
X35140Y-23520D02*
X35460Y-23200D01*
X34640Y-23800D02*
X35140Y-23800D01*
X41880Y-25870D02*
X41470Y-25870D01*
X42930Y-23040D02*
X42920Y-23050D01*
X42930Y-22400D02*
X42930Y-23040D01*
X38650Y-25980D02*
X38650Y-26350D01*
X39210Y-25420D02*
X38650Y-25980D01*
X41020Y-25420D02*
X39210Y-25420D01*
X41470Y-25870D02*
X41020Y-25420D01*
X43430Y-22400D02*
X42930Y-22400D01*
X38150Y-26350D02*
X38650Y-26350D01*
X36120Y-20180D02*
X36500Y-19800D01*
X36500Y-19800D02*
X38940Y-19800D01*
X36120Y-20430D02*
X36120Y-20180D01*
X39420Y-20280D02*
X38940Y-19800D01*
X39150Y-26350D02*
X39150Y-25980D01*
X39150Y-25980D02*
X39380Y-25750D01*
X39430Y-21750D02*
X39430Y-22400D01*
X39420Y-21740D02*
X39430Y-21750D01*
X38930Y-22400D02*
X39430Y-22400D01*
X35300Y-20430D02*
X36120Y-20430D01*
X40930Y-18600D02*
X40930Y-17710D01*
X40930Y-17710D02*
X40870Y-17650D01*
X35135Y-17475D02*
X39425Y-17475D01*
X47458Y-17980D02*
X47458Y-18402D01*
X47180Y-18680D02*
X47458Y-18402D01*
X46700Y-18680D02*
X47180Y-18680D01*
X46400Y-18380D02*
X46700Y-18680D01*
X46400Y-18040D02*
X46400Y-18380D01*
X45940Y-17580D02*
X46400Y-18040D01*
X34160Y-16500D02*
X35135Y-17475D01*
X34160Y-16500D02*
X34040Y-16500D01*
X40940Y-17580D02*
X45940Y-17580D01*
X40870Y-17650D02*
X40940Y-17580D01*
X39600Y-17650D02*
X40870Y-17650D01*
X39425Y-17475D02*
X39600Y-17650D01*
X39740Y-17240D02*
X39740Y-17290D01*
X40430Y-18990D02*
X40430Y-18600D01*
X40610Y-19170D02*
X40430Y-18990D01*
X39740Y-17290D02*
X39760Y-17310D01*
X37090Y-17240D02*
X39740Y-17240D01*
X39740Y-17240D02*
X46020Y-17240D01*
X36350Y-16500D02*
X37090Y-17240D01*
X36040Y-16500D02*
X36350Y-16500D01*
X46020Y-17240D02*
X46640Y-17860D01*
X46640Y-17860D02*
X46640Y-18310D01*
X46640Y-18310D02*
X46790Y-18460D01*
X46790Y-18460D02*
X47040Y-18460D01*
X47040Y-18460D02*
X47202Y-18298D01*
X47202Y-18298D02*
X47202Y-17980D01*
X35370Y-15830D02*
X36040Y-16500D01*
X34100Y-15830D02*
X35370Y-15830D01*
X34080Y-15850D02*
X34100Y-15830D01*
X35950Y-16500D02*
X36040Y-16500D01*
X42040Y-13500D02*
X42410Y-13500D01*
X46946Y-17276D02*
X46946Y-17980D01*
X44320Y-14650D02*
X46946Y-17276D01*
X43560Y-14650D02*
X44320Y-14650D01*
X42410Y-13500D02*
X43560Y-14650D01*
X41930Y-19220D02*
X41930Y-18600D01*
X36485Y-18087D02*
X37003Y-18087D01*
X37003Y-18087D02*
X37022Y-18067D01*
X37022Y-18067D02*
X37025Y-18070D01*
X34640Y-21700D02*
X34640Y-22430D01*
X34640Y-22430D02*
X34640Y-22470D01*
X34640Y-22470D02*
X34930Y-22760D01*
X34930Y-22760D02*
X36220Y-22760D01*
X36220Y-22760D02*
X36640Y-23180D01*
X36640Y-23180D02*
X36640Y-23800D01*
X36502Y-18070D02*
X36485Y-18087D01*
X35735Y-18087D02*
X35735Y-18005D01*
X39930Y-18350D02*
X39930Y-18600D01*
X39280Y-17700D02*
X39930Y-18350D01*
X36040Y-17700D02*
X39280Y-17700D01*
X35735Y-18005D02*
X36040Y-17700D01*
X39650Y-23980D02*
X39960Y-23670D01*
X39650Y-24250D02*
X39650Y-23980D01*
X43020Y-26640D02*
X43020Y-26350D01*
X42830Y-26830D02*
X43020Y-26640D01*
X40910Y-26830D02*
X42830Y-26830D01*
X41930Y-24680D02*
X43480Y-24680D01*
X43480Y-24680D02*
X44710Y-25910D01*
X30450Y-21750D02*
X30500Y-21800D01*
X42430Y-18600D02*
X42430Y-19150D01*
X42430Y-19150D02*
X42440Y-19160D01*
X42430Y-18600D02*
X42430Y-18350D01*
X42430Y-18350D02*
X42040Y-17960D01*
X12149Y-23700D02*
X12149Y-24501D01*
X12149Y-24501D02*
X12140Y-24510D01*
X47714Y-17980D02*
X47850Y-17980D01*
X47850Y-17980D02*
X48340Y-18470D01*
X36640Y-21700D02*
X36140Y-21700D01*
X47210Y-24730D02*
X47210Y-24220D01*
X47210Y-24220D02*
X47040Y-24050D01*
X31230Y-12200D02*
X31380Y-12200D01*
X33870Y-11730D02*
X34510Y-12370D01*
X31850Y-11730D02*
X33870Y-11730D01*
X31380Y-12200D02*
X31850Y-11730D01*
X38040Y-13500D02*
X37930Y-13500D01*
X32080Y-13050D02*
X31230Y-12200D01*
X37480Y-13050D02*
X32080Y-13050D01*
X37930Y-13500D02*
X37480Y-13050D01*
X34510Y-12370D02*
X36720Y-12370D01*
X36720Y-12370D02*
X37960Y-11130D01*
X37960Y-11130D02*
X38740Y-11130D01*
X38740Y-11130D02*
X39330Y-11720D01*
X41390Y-11120D02*
X41390Y-11310D01*
X40980Y-11720D02*
X39330Y-11720D01*
X41390Y-11310D02*
X40980Y-11720D01*
X24900Y-15400D02*
X27150Y-17650D01*
X31000Y-17950D02*
X31000Y-18200D01*
X30700Y-17650D02*
X31000Y-17950D01*
X27150Y-17650D02*
X30700Y-17650D01*
X30450Y-21050D02*
X30450Y-21750D01*
X31000Y-18200D02*
X31000Y-18100D01*
X31000Y-18200D02*
X31000Y-18900D01*
X31000Y-18900D02*
X30950Y-18950D01*
X35220Y-24790D02*
X35220Y-24450D01*
X35640Y-24030D02*
X35640Y-23800D01*
X35220Y-24450D02*
X35640Y-24030D01*
X48220Y-11930D02*
X48220Y-10980D01*
X18000Y-12500D02*
X17900Y-12500D01*
X15390Y-26740D02*
X14900Y-26250D01*
X16900Y-11500D02*
X16820Y-11500D01*
X16120Y-26740D02*
X15390Y-26740D01*
X16420Y-26440D02*
X16120Y-26740D01*
X16420Y-11900D02*
X16420Y-26440D01*
X16820Y-11500D02*
X16420Y-11900D01*
X15400Y-25750D02*
X15400Y-12000D01*
X15400Y-12000D02*
X15900Y-11500D01*
X15900Y-26250D02*
X15400Y-25750D01*
X15900Y-12500D02*
X15900Y-25250D01*
X39465Y-19205D02*
X39430Y-19170D01*
X38650Y-23690D02*
X38650Y-24250D01*
X38720Y-23620D02*
X38650Y-23690D01*
X40070Y-19810D02*
X43230Y-19810D01*
X39465Y-19205D02*
X40070Y-19810D01*
X39430Y-18600D02*
X39430Y-19170D01*
X43930Y-21810D02*
X43930Y-22400D01*
X43940Y-21800D02*
X43930Y-21810D01*
X43230Y-19810D02*
X43410Y-19630D01*
X38150Y-24250D02*
X38150Y-23710D01*
X38430Y-19210D02*
X38430Y-18600D01*
X38440Y-19220D02*
X38430Y-19210D01*
X38150Y-23710D02*
X38210Y-23650D01*
X38430Y-18600D02*
X38930Y-18600D01*
X43930Y-18600D02*
X43930Y-19590D01*
X38930Y-19330D02*
X38930Y-18600D01*
X39620Y-20020D02*
X38930Y-19330D01*
X43500Y-20020D02*
X39620Y-20020D01*
X43930Y-19590D02*
X43500Y-20020D01*
X34000Y-20430D02*
X34720Y-21150D01*
X35640Y-21450D02*
X35640Y-21700D01*
X35340Y-21150D02*
X35640Y-21450D01*
X34720Y-21150D02*
X35340Y-21150D01*
X45540Y-21950D02*
X45540Y-22310D01*
X47540Y-23690D02*
X47540Y-24050D01*
X46840Y-22990D02*
X47540Y-23690D01*
X46220Y-22990D02*
X46840Y-22990D01*
X45540Y-22310D02*
X46220Y-22990D01*
X40930Y-22400D02*
X40930Y-22680D01*
X46540Y-23670D02*
X46540Y-24050D01*
X46390Y-23520D02*
X46540Y-23670D01*
X42810Y-23520D02*
X46390Y-23520D01*
X42150Y-22860D02*
X42810Y-23520D01*
X41110Y-22860D02*
X42150Y-22860D01*
X40930Y-22680D02*
X41110Y-22860D01*
X41930Y-24080D02*
X42350Y-24080D01*
X42350Y-24080D02*
X42520Y-24250D01*
X37140Y-21700D02*
X37140Y-20710D01*
X37140Y-20710D02*
X37420Y-20430D01*
X32510Y-23040D02*
X31790Y-23040D01*
X33600Y-21450D02*
X32800Y-21450D01*
X33610Y-21440D02*
X33600Y-21450D01*
X31790Y-23040D02*
X31750Y-23080D01*
X32510Y-21740D02*
X32800Y-21450D01*
X43430Y-18600D02*
X43430Y-19070D01*
X40150Y-24000D02*
X40150Y-24250D01*
X40480Y-23670D02*
X40150Y-24000D01*
X42030Y-23670D02*
X40480Y-23670D01*
X42150Y-23550D02*
X42030Y-23670D01*
X43430Y-19070D02*
X43320Y-19180D01*
X40420Y-21770D02*
X40430Y-21780D01*
X40430Y-21780D02*
X40430Y-22400D01*
X40150Y-26350D02*
X40150Y-26030D01*
X40150Y-26030D02*
X40420Y-25760D01*
X41430Y-22400D02*
X41430Y-21800D01*
X40650Y-25990D02*
X40650Y-26350D01*
X40890Y-25750D02*
X40650Y-25990D01*
X41430Y-21800D02*
X41410Y-21780D01*
X41430Y-22400D02*
X41930Y-22400D01*
X40650Y-26350D02*
X41150Y-26350D01*
X47202Y-19680D02*
X47202Y-20572D01*
X48040Y-21410D02*
X48040Y-21950D01*
X47202Y-20572D02*
X48040Y-21410D01*
X30950Y-21050D02*
X31450Y-21050D01*
X34180Y-24790D02*
X34180Y-23840D01*
X34180Y-23840D02*
X34140Y-23800D01*
X11050Y-22680D02*
X11050Y-23681D01*
X11050Y-23681D02*
X11031Y-23700D01*
X36110Y-19450D02*
X36110Y-18953D01*
X36140Y-23210D02*
X36140Y-23800D01*
X36130Y-23200D02*
X36140Y-23210D01*
X36260Y-24790D02*
X36260Y-23920D01*
X36260Y-23920D02*
X36140Y-23800D01*
X35140Y-21700D02*
X35140Y-22310D01*
X35140Y-22310D02*
X35130Y-22320D01*
X38430Y-11660D02*
X38620Y-11660D01*
X39380Y-12420D02*
X40360Y-12420D01*
X38620Y-11660D02*
X39380Y-12420D01*
X40360Y-12420D02*
X41390Y-12420D01*
X36430Y-11660D02*
X36550Y-11660D01*
X40080Y-10840D02*
X40360Y-11120D01*
X37370Y-10840D02*
X40080Y-10840D01*
X36550Y-11660D02*
X37370Y-10840D01*
X34510Y-11070D02*
X35840Y-11070D01*
X35840Y-11070D02*
X36430Y-11660D01*
X32750Y-19000D02*
X32750Y-20100D01*
X32750Y-20100D02*
X32800Y-20150D01*
X31450Y-18950D02*
X31450Y-19350D01*
X32250Y-19500D02*
X32750Y-19000D01*
X31600Y-19500D02*
X32250Y-19500D01*
X31450Y-19350D02*
X31600Y-19500D01*
X31650Y-17900D02*
X31650Y-18750D01*
X31650Y-18750D02*
X31450Y-18950D01*
X42075Y-10835D02*
X42075Y-12265D01*
X44505Y-12965D02*
X45040Y-13500D01*
X42775Y-12965D02*
X44505Y-12965D01*
X42075Y-12265D02*
X42775Y-12965D01*
X48226Y-13489D02*
X48226Y-15851D01*
X48220Y-12530D02*
X47700Y-12530D01*
X47700Y-12530D02*
X47420Y-12250D01*
X47420Y-12250D02*
X47420Y-12683D01*
X47420Y-12683D02*
X48226Y-13489D01*
X47420Y-12250D02*
X47215Y-12250D01*
X47215Y-12250D02*
X46535Y-12930D01*
X46535Y-12930D02*
X45610Y-12930D01*
X45610Y-12930D02*
X45040Y-13500D01*
X31850Y-10540D02*
X41780Y-10540D01*
X31230Y-11160D02*
X31850Y-10540D01*
X31230Y-11200D02*
X31230Y-11160D01*
X41780Y-10540D02*
X42075Y-10835D01*
X42075Y-10835D02*
X42080Y-10840D01*
X39150Y-24250D02*
X39150Y-23990D01*
X39150Y-23990D02*
X39865Y-23275D01*
X39930Y-22400D02*
X39930Y-23210D01*
X39930Y-23210D02*
X39865Y-23275D01*
X39865Y-23275D02*
X39860Y-23280D01*
X39860Y-23280D02*
X41350Y-23280D01*
X41860Y-26350D02*
X42520Y-26350D01*
X41800Y-26410D02*
X41860Y-26350D01*
X39930Y-19190D02*
X40170Y-19190D01*
X42930Y-19130D02*
X42930Y-18600D01*
X42450Y-19609D02*
X42930Y-19130D01*
X40589Y-19609D02*
X42450Y-19609D01*
X40170Y-19190D02*
X40589Y-19609D01*
X39930Y-22400D02*
X39930Y-21770D01*
X39930Y-19190D02*
X39920Y-19190D01*
X29725Y-14950D02*
X26350Y-14950D01*
X26350Y-14950D02*
X25900Y-15400D01*
G54D10*
G36*
X40740Y-18215D02*
X40701Y-18231D01*
X40679Y-18252D01*
X40659Y-18231D01*
X40607Y-18210D01*
X40552Y-18210D01*
X40279Y-18210D01*
X40215Y-18146D01*
X40127Y-18110D01*
X40050Y-18110D01*
X39990Y-18170D01*
X39990Y-18539D01*
X39998Y-18539D01*
X39998Y-18660D01*
X39990Y-18660D01*
X39990Y-18668D01*
X39869Y-18668D01*
X39869Y-18660D01*
X39861Y-18660D01*
X39861Y-18539D01*
X39869Y-18539D01*
X39869Y-18170D01*
X39809Y-18110D01*
X39732Y-18110D01*
X39644Y-18146D01*
X39580Y-18210D01*
X39552Y-18210D01*
X39252Y-18210D01*
X39201Y-18231D01*
X39179Y-18252D01*
X39159Y-18231D01*
X39107Y-18210D01*
X39052Y-18210D01*
X38752Y-18210D01*
X38701Y-18231D01*
X38679Y-18252D01*
X38659Y-18231D01*
X38607Y-18210D01*
X38552Y-18210D01*
X38252Y-18210D01*
X38201Y-18231D01*
X38161Y-18270D01*
X38140Y-18322D01*
X38140Y-18377D01*
X38140Y-18877D01*
X38161Y-18928D01*
X38200Y-18968D01*
X38233Y-18981D01*
X38173Y-19041D01*
X38125Y-19157D01*
X38125Y-19282D01*
X38173Y-19397D01*
X38261Y-19486D01*
X38377Y-19534D01*
X38502Y-19534D01*
X38617Y-19486D01*
X38706Y-19398D01*
X38740Y-19316D01*
X38740Y-19330D01*
X38754Y-19402D01*
X38796Y-19463D01*
X38943Y-19611D01*
X38940Y-19610D01*
X37337Y-19610D01*
X37337Y-18005D01*
X37289Y-17889D01*
X37200Y-17801D01*
X37085Y-17753D01*
X36960Y-17752D01*
X36844Y-17800D01*
X36782Y-17863D01*
X36782Y-17862D01*
X36760Y-17811D01*
X36721Y-17771D01*
X36670Y-17750D01*
X36614Y-17750D01*
X36299Y-17750D01*
X36248Y-17771D01*
X36209Y-17810D01*
X36188Y-17862D01*
X36187Y-17917D01*
X36187Y-18311D01*
X36209Y-18362D01*
X36248Y-18402D01*
X36299Y-18423D01*
X36355Y-18423D01*
X36670Y-18423D01*
X36721Y-18402D01*
X36760Y-18363D01*
X36781Y-18311D01*
X36782Y-18276D01*
X36786Y-18276D01*
X36844Y-18333D01*
X36959Y-18381D01*
X37084Y-18382D01*
X37200Y-18334D01*
X37288Y-18245D01*
X37336Y-18130D01*
X37337Y-18005D01*
X37337Y-19610D01*
X36500Y-19610D01*
X36499Y-19610D01*
X36485Y-19613D01*
X36427Y-19624D01*
X36424Y-19626D01*
X36424Y-19387D01*
X36376Y-19272D01*
X36359Y-19255D01*
X36385Y-19229D01*
X36406Y-19177D01*
X36407Y-19122D01*
X36407Y-18728D01*
X36385Y-18677D01*
X36346Y-18637D01*
X36295Y-18616D01*
X36239Y-18616D01*
X36132Y-18616D01*
X36132Y-18236D01*
X36132Y-18207D01*
X36072Y-18147D01*
X35795Y-18147D01*
X35795Y-18463D01*
X35855Y-18523D01*
X35939Y-18523D01*
X36027Y-18487D01*
X36095Y-18419D01*
X36131Y-18331D01*
X36132Y-18236D01*
X36132Y-18616D01*
X35924Y-18616D01*
X35873Y-18637D01*
X35834Y-18676D01*
X35813Y-18728D01*
X35812Y-18783D01*
X35812Y-19177D01*
X35834Y-19228D01*
X35860Y-19254D01*
X35843Y-19271D01*
X35795Y-19387D01*
X35795Y-19512D01*
X35843Y-19627D01*
X35931Y-19716D01*
X36047Y-19764D01*
X36172Y-19764D01*
X36287Y-19716D01*
X36376Y-19628D01*
X36424Y-19512D01*
X36424Y-19387D01*
X36424Y-19626D01*
X36366Y-19666D01*
X36366Y-19666D01*
X36141Y-19890D01*
X35792Y-19890D01*
X35741Y-19911D01*
X35709Y-19942D01*
X35679Y-19911D01*
X35674Y-19909D01*
X35674Y-18463D01*
X35674Y-18147D01*
X35397Y-18147D01*
X35338Y-18207D01*
X35337Y-18236D01*
X35338Y-18331D01*
X35374Y-18419D01*
X35442Y-18487D01*
X35530Y-18523D01*
X35614Y-18523D01*
X35674Y-18463D01*
X35674Y-19909D01*
X35627Y-19890D01*
X35572Y-19890D01*
X34972Y-19890D01*
X34921Y-19911D01*
X34881Y-19950D01*
X34860Y-20002D01*
X34860Y-20057D01*
X34860Y-20857D01*
X34881Y-20908D01*
X34920Y-20948D01*
X34950Y-20960D01*
X34798Y-20960D01*
X34489Y-20651D01*
X34489Y-19372D01*
X34489Y-18572D01*
X34468Y-18521D01*
X34429Y-18481D01*
X34377Y-18460D01*
X34322Y-18460D01*
X33778Y-18460D01*
X33454Y-18136D01*
X33454Y-16417D01*
X33391Y-16265D01*
X33275Y-16148D01*
X33122Y-16085D01*
X32957Y-16085D01*
X32805Y-16148D01*
X32688Y-16264D01*
X32625Y-16417D01*
X32625Y-16582D01*
X32688Y-16734D01*
X32804Y-16851D01*
X32957Y-16914D01*
X33122Y-16914D01*
X33274Y-16851D01*
X33391Y-16735D01*
X33454Y-16582D01*
X33454Y-16417D01*
X33454Y-18136D01*
X33389Y-18071D01*
X33389Y-17472D01*
X33368Y-17421D01*
X33329Y-17381D01*
X33277Y-17360D01*
X33222Y-17360D01*
X32678Y-17360D01*
X32233Y-16916D01*
X32189Y-16886D01*
X32274Y-16851D01*
X32391Y-16735D01*
X32454Y-16582D01*
X32454Y-16417D01*
X32391Y-16265D01*
X32275Y-16148D01*
X32122Y-16085D01*
X31957Y-16085D01*
X31805Y-16148D01*
X31688Y-16264D01*
X31625Y-16417D01*
X31625Y-16582D01*
X31688Y-16734D01*
X31714Y-16760D01*
X31712Y-16760D01*
X31597Y-16808D01*
X31508Y-16896D01*
X31460Y-17012D01*
X31460Y-17137D01*
X31508Y-17252D01*
X31596Y-17341D01*
X31642Y-17360D01*
X31322Y-17360D01*
X31271Y-17381D01*
X31231Y-17420D01*
X31210Y-17472D01*
X31210Y-17527D01*
X31210Y-17751D01*
X31172Y-17735D01*
X31120Y-17735D01*
X31060Y-17795D01*
X31060Y-18139D01*
X31068Y-18139D01*
X31068Y-18260D01*
X31060Y-18260D01*
X31060Y-18443D01*
X31009Y-18494D01*
X31009Y-18889D01*
X31018Y-18889D01*
X31018Y-19010D01*
X31009Y-19010D01*
X31009Y-19405D01*
X31068Y-19465D01*
X31115Y-19465D01*
X31203Y-19428D01*
X31264Y-19368D01*
X31274Y-19422D01*
X31316Y-19483D01*
X31466Y-19633D01*
X31466Y-19633D01*
X31527Y-19675D01*
X31600Y-19689D01*
X32250Y-19689D01*
X32322Y-19675D01*
X32383Y-19633D01*
X32478Y-19539D01*
X32560Y-19539D01*
X32560Y-19710D01*
X32372Y-19710D01*
X32321Y-19731D01*
X32281Y-19770D01*
X32260Y-19822D01*
X32260Y-19877D01*
X32260Y-20477D01*
X32281Y-20528D01*
X32320Y-20568D01*
X32372Y-20589D01*
X32427Y-20589D01*
X33227Y-20589D01*
X33278Y-20568D01*
X33318Y-20529D01*
X33339Y-20477D01*
X33339Y-20422D01*
X33339Y-19822D01*
X33318Y-19771D01*
X33279Y-19731D01*
X33227Y-19710D01*
X33172Y-19710D01*
X32939Y-19710D01*
X32939Y-19539D01*
X33077Y-19539D01*
X33128Y-19518D01*
X33168Y-19479D01*
X33189Y-19427D01*
X33189Y-19372D01*
X33189Y-18572D01*
X33168Y-18521D01*
X33129Y-18481D01*
X33077Y-18460D01*
X33022Y-18460D01*
X32422Y-18460D01*
X32397Y-18470D01*
X32519Y-18348D01*
X32531Y-18378D01*
X32570Y-18418D01*
X32622Y-18439D01*
X32677Y-18439D01*
X33221Y-18439D01*
X33610Y-18828D01*
X33610Y-19427D01*
X33631Y-19478D01*
X33670Y-19518D01*
X33722Y-19539D01*
X33777Y-19539D01*
X34377Y-19539D01*
X34428Y-19518D01*
X34468Y-19479D01*
X34489Y-19427D01*
X34489Y-19372D01*
X34489Y-20651D01*
X34439Y-20601D01*
X34439Y-20002D01*
X34418Y-19951D01*
X34379Y-19911D01*
X34327Y-19890D01*
X34272Y-19890D01*
X33672Y-19890D01*
X33621Y-19911D01*
X33581Y-19950D01*
X33560Y-20002D01*
X33560Y-20057D01*
X33560Y-20857D01*
X33581Y-20908D01*
X33620Y-20948D01*
X33672Y-20969D01*
X33727Y-20969D01*
X34271Y-20969D01*
X34586Y-21283D01*
X34586Y-21283D01*
X34647Y-21325D01*
X34647Y-21325D01*
X34699Y-21335D01*
X34512Y-21335D01*
X34461Y-21356D01*
X34421Y-21395D01*
X34400Y-21447D01*
X34400Y-21502D01*
X34400Y-21952D01*
X34421Y-22003D01*
X34450Y-22032D01*
X34450Y-22174D01*
X34436Y-22189D01*
X34416Y-22142D01*
X34329Y-22054D01*
X34329Y-22032D01*
X34358Y-22004D01*
X34379Y-21952D01*
X34379Y-21897D01*
X34379Y-21447D01*
X34358Y-21396D01*
X34319Y-21356D01*
X34267Y-21335D01*
X34212Y-21335D01*
X34012Y-21335D01*
X33961Y-21356D01*
X33924Y-21393D01*
X33924Y-21377D01*
X33876Y-21262D01*
X33788Y-21173D01*
X33672Y-21125D01*
X33547Y-21125D01*
X33432Y-21173D01*
X33344Y-21260D01*
X33339Y-21260D01*
X33339Y-21122D01*
X33318Y-21071D01*
X33279Y-21031D01*
X33227Y-21010D01*
X33172Y-21010D01*
X32372Y-21010D01*
X32321Y-21031D01*
X32281Y-21070D01*
X32260Y-21122D01*
X32260Y-21177D01*
X32260Y-21777D01*
X32281Y-21828D01*
X32320Y-21868D01*
X32372Y-21889D01*
X32399Y-21889D01*
X32437Y-21915D01*
X32510Y-21929D01*
X32582Y-21915D01*
X32620Y-21889D01*
X33227Y-21889D01*
X33278Y-21868D01*
X33318Y-21829D01*
X33339Y-21777D01*
X33339Y-21722D01*
X33339Y-21639D01*
X33364Y-21639D01*
X33431Y-21706D01*
X33547Y-21754D01*
X33672Y-21754D01*
X33787Y-21706D01*
X33876Y-21618D01*
X33900Y-21560D01*
X33900Y-21952D01*
X33921Y-22003D01*
X33950Y-22032D01*
X33950Y-22074D01*
X33883Y-22141D01*
X33846Y-22230D01*
X33709Y-22230D01*
X33703Y-22216D01*
X33664Y-22176D01*
X33612Y-22155D01*
X33557Y-22155D01*
X33107Y-22155D01*
X33056Y-22176D01*
X33016Y-22215D01*
X33010Y-22230D01*
X32239Y-22230D01*
X32239Y-20162D01*
X32191Y-20047D01*
X32103Y-19958D01*
X31987Y-19910D01*
X31862Y-19910D01*
X31747Y-19958D01*
X31658Y-20046D01*
X31610Y-20162D01*
X31610Y-20287D01*
X31658Y-20402D01*
X31746Y-20491D01*
X31760Y-20497D01*
X31760Y-20653D01*
X31753Y-20656D01*
X31713Y-20695D01*
X31699Y-20728D01*
X31686Y-20695D01*
X31647Y-20656D01*
X31595Y-20635D01*
X31540Y-20634D01*
X31304Y-20634D01*
X31253Y-20656D01*
X31213Y-20695D01*
X31199Y-20728D01*
X31186Y-20695D01*
X31147Y-20656D01*
X31095Y-20635D01*
X31040Y-20634D01*
X30804Y-20634D01*
X30774Y-20647D01*
X30770Y-20638D01*
X30703Y-20571D01*
X30615Y-20534D01*
X30568Y-20535D01*
X30509Y-20594D01*
X30509Y-20989D01*
X30518Y-20989D01*
X30518Y-21110D01*
X30509Y-21110D01*
X30509Y-21505D01*
X30550Y-21546D01*
X30550Y-21729D01*
X30558Y-21729D01*
X30558Y-21850D01*
X30550Y-21850D01*
X30550Y-22194D01*
X30610Y-22254D01*
X30662Y-22254D01*
X30750Y-22218D01*
X30817Y-22150D01*
X30844Y-22087D01*
X30846Y-22093D01*
X30885Y-22133D01*
X30937Y-22154D01*
X30992Y-22154D01*
X31242Y-22154D01*
X31293Y-22133D01*
X31333Y-22094D01*
X31354Y-22042D01*
X31354Y-21988D01*
X31422Y-21975D01*
X31483Y-21933D01*
X31952Y-21465D01*
X32095Y-21465D01*
X32146Y-21443D01*
X32186Y-21404D01*
X32207Y-21353D01*
X32207Y-21297D01*
X32207Y-20746D01*
X32186Y-20695D01*
X32147Y-20656D01*
X32139Y-20653D01*
X32139Y-20455D01*
X32191Y-20403D01*
X32239Y-20287D01*
X32239Y-20162D01*
X32239Y-22230D01*
X31530Y-22230D01*
X30800Y-22230D01*
X30727Y-22244D01*
X30666Y-22286D01*
X30429Y-22522D01*
X30429Y-22194D01*
X30429Y-21850D01*
X30429Y-21729D01*
X30429Y-21385D01*
X30391Y-21346D01*
X30391Y-21110D01*
X30391Y-20989D01*
X30391Y-20594D01*
X30331Y-20535D01*
X30284Y-20534D01*
X30196Y-20571D01*
X30129Y-20638D01*
X30092Y-20726D01*
X30092Y-20821D01*
X30092Y-20929D01*
X30152Y-20989D01*
X30391Y-20989D01*
X30391Y-21110D01*
X30152Y-21110D01*
X30092Y-21170D01*
X30092Y-21278D01*
X30092Y-21373D01*
X30129Y-21461D01*
X30142Y-21475D01*
X30125Y-21517D01*
X30125Y-21612D01*
X30125Y-21669D01*
X30185Y-21729D01*
X30429Y-21729D01*
X30429Y-21850D01*
X30185Y-21850D01*
X30125Y-21910D01*
X30125Y-21967D01*
X30125Y-22062D01*
X30162Y-22150D01*
X30229Y-22218D01*
X30317Y-22254D01*
X30369Y-22254D01*
X30429Y-22194D01*
X30429Y-22522D01*
X30201Y-22750D01*
X28898Y-22750D01*
X28908Y-22746D01*
X28948Y-22707D01*
X28969Y-22655D01*
X28969Y-22600D01*
X28969Y-21600D01*
X28948Y-21549D01*
X28909Y-21509D01*
X28857Y-21488D01*
X28802Y-21488D01*
X28552Y-21488D01*
X30583Y-19456D01*
X30583Y-19456D01*
X30583Y-19456D01*
X30608Y-19420D01*
X30625Y-19395D01*
X30625Y-19395D01*
X30631Y-19363D01*
X30696Y-19428D01*
X30784Y-19465D01*
X30831Y-19465D01*
X30891Y-19405D01*
X30891Y-19010D01*
X30881Y-19010D01*
X30881Y-18889D01*
X30891Y-18889D01*
X30891Y-18653D01*
X30939Y-18604D01*
X30939Y-18260D01*
X30931Y-18260D01*
X30931Y-18139D01*
X30939Y-18139D01*
X30939Y-17795D01*
X30879Y-17735D01*
X30827Y-17735D01*
X30739Y-17771D01*
X30672Y-17839D01*
X30645Y-17902D01*
X30643Y-17896D01*
X30604Y-17856D01*
X30552Y-17835D01*
X30497Y-17835D01*
X30247Y-17835D01*
X30196Y-17856D01*
X30164Y-17888D01*
X30164Y-14862D01*
X30097Y-14701D01*
X29974Y-14577D01*
X29812Y-14510D01*
X29637Y-14510D01*
X29476Y-14577D01*
X29352Y-14700D01*
X29327Y-14760D01*
X28728Y-14760D01*
X28728Y-13235D01*
X28602Y-12931D01*
X28369Y-12698D01*
X28065Y-12571D01*
X27735Y-12571D01*
X27431Y-12697D01*
X27198Y-12930D01*
X27071Y-13234D01*
X27071Y-13564D01*
X27197Y-13868D01*
X27430Y-14101D01*
X27734Y-14228D01*
X28064Y-14228D01*
X28368Y-14102D01*
X28601Y-13869D01*
X28728Y-13565D01*
X28728Y-13235D01*
X28728Y-14760D01*
X26350Y-14760D01*
X26277Y-14774D01*
X26216Y-14816D01*
X26046Y-14985D01*
X25987Y-14960D01*
X25812Y-14960D01*
X25651Y-15027D01*
X25527Y-15150D01*
X25460Y-15312D01*
X25460Y-15487D01*
X25527Y-15648D01*
X25650Y-15772D01*
X25812Y-15839D01*
X25987Y-15839D01*
X26148Y-15772D01*
X26272Y-15649D01*
X26339Y-15487D01*
X26339Y-15312D01*
X26314Y-15253D01*
X26428Y-15139D01*
X29327Y-15139D01*
X29352Y-15198D01*
X29475Y-15322D01*
X29637Y-15389D01*
X29812Y-15389D01*
X29973Y-15322D01*
X30097Y-15199D01*
X30164Y-15037D01*
X30164Y-14862D01*
X30164Y-17888D01*
X30164Y-17888D01*
X30164Y-16222D01*
X30164Y-15622D01*
X30143Y-15571D01*
X30104Y-15531D01*
X30052Y-15510D01*
X29997Y-15510D01*
X29397Y-15510D01*
X29346Y-15531D01*
X29306Y-15570D01*
X29285Y-15622D01*
X29285Y-15677D01*
X29285Y-16277D01*
X29306Y-16328D01*
X29345Y-16368D01*
X29397Y-16389D01*
X29452Y-16389D01*
X30052Y-16389D01*
X30103Y-16368D01*
X30143Y-16329D01*
X30164Y-16277D01*
X30164Y-16222D01*
X30164Y-17888D01*
X30156Y-17895D01*
X30135Y-17947D01*
X30135Y-18002D01*
X30135Y-18452D01*
X30156Y-18503D01*
X30195Y-18543D01*
X30210Y-18549D01*
X30210Y-18603D01*
X30192Y-18646D01*
X30192Y-18702D01*
X30192Y-19253D01*
X30209Y-19295D01*
X28152Y-21352D01*
X28152Y-21352D01*
X28146Y-21359D01*
X28104Y-21420D01*
X28091Y-21488D01*
X27802Y-21488D01*
X27751Y-21509D01*
X27711Y-21548D01*
X27690Y-21600D01*
X27690Y-21655D01*
X27690Y-22655D01*
X27711Y-22706D01*
X27750Y-22746D01*
X27761Y-22750D01*
X27339Y-22750D01*
X27339Y-19888D01*
X27196Y-19543D01*
X26932Y-19278D01*
X26587Y-19135D01*
X26213Y-19135D01*
X25868Y-19278D01*
X25603Y-19542D01*
X25460Y-19887D01*
X25460Y-20261D01*
X25603Y-20606D01*
X25867Y-20871D01*
X26212Y-21014D01*
X26586Y-21014D01*
X26931Y-20871D01*
X27196Y-20607D01*
X27339Y-20262D01*
X27339Y-19888D01*
X27339Y-22750D01*
X27244Y-22750D01*
X27254Y-22746D01*
X27294Y-22707D01*
X27315Y-22655D01*
X27315Y-22600D01*
X27315Y-21600D01*
X27294Y-21549D01*
X27255Y-21509D01*
X27203Y-21488D01*
X27148Y-21488D01*
X26148Y-21488D01*
X26097Y-21509D01*
X26057Y-21548D01*
X26036Y-21600D01*
X26036Y-21655D01*
X26036Y-22655D01*
X26057Y-22706D01*
X26096Y-22746D01*
X26107Y-22750D01*
X25914Y-22750D01*
X25663Y-22499D01*
X25663Y-21600D01*
X25642Y-21549D01*
X25603Y-21509D01*
X25551Y-21488D01*
X25496Y-21488D01*
X25445Y-21488D01*
X25445Y-15468D01*
X25430Y-15254D01*
X25377Y-15127D01*
X25286Y-15098D01*
X25201Y-15184D01*
X25201Y-15013D01*
X25172Y-14922D01*
X24968Y-14854D01*
X24754Y-14869D01*
X24728Y-14880D01*
X24728Y-13235D01*
X24602Y-12931D01*
X24369Y-12698D01*
X24065Y-12571D01*
X23735Y-12571D01*
X23431Y-12697D01*
X23198Y-12930D01*
X23071Y-13234D01*
X23071Y-13564D01*
X23197Y-13868D01*
X23430Y-14101D01*
X23734Y-14228D01*
X24064Y-14228D01*
X24368Y-14102D01*
X24601Y-13869D01*
X24728Y-13565D01*
X24728Y-13235D01*
X24728Y-14880D01*
X24627Y-14922D01*
X24598Y-15013D01*
X24900Y-15314D01*
X25201Y-15013D01*
X25201Y-15184D01*
X24985Y-15400D01*
X25286Y-15701D01*
X25377Y-15672D01*
X25445Y-15468D01*
X25445Y-21488D01*
X25201Y-21488D01*
X25201Y-15786D01*
X24900Y-15485D01*
X24814Y-15571D01*
X24814Y-15400D01*
X24513Y-15098D01*
X24422Y-15127D01*
X24354Y-15331D01*
X24369Y-15545D01*
X24422Y-15672D01*
X24513Y-15701D01*
X24814Y-15400D01*
X24814Y-15571D01*
X24598Y-15786D01*
X24627Y-15877D01*
X24831Y-15945D01*
X25045Y-15930D01*
X25172Y-15877D01*
X25201Y-15786D01*
X25201Y-21488D01*
X24652Y-21488D01*
X24299Y-21136D01*
X24238Y-21094D01*
X24166Y-21080D01*
X22570Y-21080D01*
X22497Y-21094D01*
X22436Y-21136D01*
X21791Y-21781D01*
X21749Y-21842D01*
X21735Y-21915D01*
X21735Y-22256D01*
X20939Y-23052D01*
X20939Y-11653D01*
X20827Y-11381D01*
X20619Y-11173D01*
X20347Y-11060D01*
X20053Y-11060D01*
X19781Y-11172D01*
X19573Y-11380D01*
X19460Y-11652D01*
X19460Y-11946D01*
X19572Y-12218D01*
X19780Y-12426D01*
X20052Y-12539D01*
X20346Y-12539D01*
X20618Y-12427D01*
X20826Y-12219D01*
X20939Y-11947D01*
X20939Y-11653D01*
X20939Y-23052D01*
X18339Y-25652D01*
X18339Y-12412D01*
X18339Y-11412D01*
X18272Y-11251D01*
X18149Y-11127D01*
X17987Y-11060D01*
X17812Y-11060D01*
X17651Y-11127D01*
X17527Y-11250D01*
X17460Y-11412D01*
X17460Y-11587D01*
X17527Y-11748D01*
X17650Y-11872D01*
X17812Y-11939D01*
X17987Y-11939D01*
X18148Y-11872D01*
X18272Y-11749D01*
X18339Y-11587D01*
X18339Y-11412D01*
X18339Y-12412D01*
X18272Y-12251D01*
X18149Y-12127D01*
X17987Y-12060D01*
X17812Y-12060D01*
X17651Y-12127D01*
X17527Y-12250D01*
X17460Y-12412D01*
X17460Y-12587D01*
X17527Y-12748D01*
X17650Y-12872D01*
X17812Y-12939D01*
X17987Y-12939D01*
X18148Y-12872D01*
X18272Y-12749D01*
X18339Y-12587D01*
X18339Y-12412D01*
X18339Y-25652D01*
X18339Y-25652D01*
X18339Y-25522D01*
X18339Y-24922D01*
X18318Y-24871D01*
X18279Y-24831D01*
X18227Y-24810D01*
X18172Y-24810D01*
X17572Y-24810D01*
X17521Y-24831D01*
X17481Y-24870D01*
X17460Y-24922D01*
X17460Y-24977D01*
X17460Y-25577D01*
X17481Y-25628D01*
X17520Y-25668D01*
X17572Y-25689D01*
X17627Y-25689D01*
X18227Y-25689D01*
X18278Y-25668D01*
X18318Y-25629D01*
X18339Y-25577D01*
X18339Y-25522D01*
X18339Y-25652D01*
X18124Y-25867D01*
X17987Y-25810D01*
X17812Y-25810D01*
X17651Y-25877D01*
X17527Y-26000D01*
X17460Y-26162D01*
X17460Y-26337D01*
X17485Y-26396D01*
X17445Y-26436D01*
X17445Y-25318D01*
X17430Y-25104D01*
X17377Y-24977D01*
X17286Y-24948D01*
X16985Y-25250D01*
X17286Y-25551D01*
X17377Y-25522D01*
X17445Y-25318D01*
X17445Y-26436D01*
X17339Y-26542D01*
X17339Y-26162D01*
X17272Y-26001D01*
X17149Y-25877D01*
X16987Y-25810D01*
X16812Y-25810D01*
X16651Y-25877D01*
X16609Y-25918D01*
X16609Y-25670D01*
X16627Y-25727D01*
X16831Y-25795D01*
X17045Y-25780D01*
X17172Y-25727D01*
X17201Y-25636D01*
X16900Y-25335D01*
X16894Y-25341D01*
X16808Y-25255D01*
X16814Y-25250D01*
X16808Y-25244D01*
X16894Y-25158D01*
X16900Y-25164D01*
X17201Y-24863D01*
X17172Y-24772D01*
X16968Y-24704D01*
X16754Y-24719D01*
X16627Y-24772D01*
X16609Y-24829D01*
X16609Y-12831D01*
X16650Y-12872D01*
X16812Y-12939D01*
X16987Y-12939D01*
X17148Y-12872D01*
X17272Y-12749D01*
X17339Y-12587D01*
X17339Y-12412D01*
X17272Y-12251D01*
X17149Y-12127D01*
X16987Y-12060D01*
X16812Y-12060D01*
X16651Y-12127D01*
X16609Y-12168D01*
X16609Y-11978D01*
X16696Y-11891D01*
X16812Y-11939D01*
X16987Y-11939D01*
X17148Y-11872D01*
X17272Y-11749D01*
X17339Y-11587D01*
X17339Y-11412D01*
X17272Y-11251D01*
X17149Y-11127D01*
X16987Y-11060D01*
X16812Y-11060D01*
X16651Y-11127D01*
X16527Y-11250D01*
X16460Y-11412D01*
X16460Y-11587D01*
X16461Y-11590D01*
X16286Y-11766D01*
X16244Y-11827D01*
X16230Y-11900D01*
X16230Y-12208D01*
X16149Y-12127D01*
X15987Y-12060D01*
X15812Y-12060D01*
X15651Y-12127D01*
X15589Y-12188D01*
X15589Y-12078D01*
X15753Y-11914D01*
X15812Y-11939D01*
X15987Y-11939D01*
X16148Y-11872D01*
X16272Y-11749D01*
X16339Y-11587D01*
X16339Y-11412D01*
X16272Y-11251D01*
X16149Y-11127D01*
X15987Y-11060D01*
X15812Y-11060D01*
X15651Y-11127D01*
X15527Y-11250D01*
X15460Y-11412D01*
X15460Y-11587D01*
X15485Y-11646D01*
X15266Y-11866D01*
X15224Y-11927D01*
X15210Y-12000D01*
X15210Y-12103D01*
X15201Y-12113D01*
X15172Y-12022D01*
X14968Y-11954D01*
X14754Y-11969D01*
X14627Y-12022D01*
X14598Y-12113D01*
X14900Y-12414D01*
X14905Y-12408D01*
X14991Y-12494D01*
X14985Y-12500D01*
X14991Y-12505D01*
X14905Y-12591D01*
X14900Y-12585D01*
X14814Y-12671D01*
X14814Y-12500D01*
X14513Y-12198D01*
X14422Y-12227D01*
X14354Y-12431D01*
X14369Y-12645D01*
X14422Y-12772D01*
X14513Y-12801D01*
X14814Y-12500D01*
X14814Y-12671D01*
X14598Y-12886D01*
X14627Y-12977D01*
X14831Y-13045D01*
X15045Y-13030D01*
X15172Y-12977D01*
X15201Y-12886D01*
X15201Y-12886D01*
X15210Y-12896D01*
X15210Y-24938D01*
X15201Y-24929D01*
X15149Y-24877D01*
X14987Y-24810D01*
X14812Y-24810D01*
X14651Y-24877D01*
X14527Y-25000D01*
X14460Y-25162D01*
X14460Y-25337D01*
X14527Y-25498D01*
X14650Y-25622D01*
X14812Y-25689D01*
X14987Y-25689D01*
X15148Y-25622D01*
X15210Y-25561D01*
X15210Y-25750D01*
X15224Y-25822D01*
X15266Y-25883D01*
X15485Y-26103D01*
X15460Y-26162D01*
X15460Y-26337D01*
X15527Y-26498D01*
X15578Y-26550D01*
X15468Y-26550D01*
X15314Y-26396D01*
X15339Y-26337D01*
X15339Y-26162D01*
X15272Y-26001D01*
X15149Y-25877D01*
X14987Y-25810D01*
X14812Y-25810D01*
X14651Y-25877D01*
X14527Y-26000D01*
X14460Y-26162D01*
X14460Y-26337D01*
X14527Y-26498D01*
X14650Y-26622D01*
X14812Y-26689D01*
X14987Y-26689D01*
X15046Y-26664D01*
X15256Y-26873D01*
X15317Y-26915D01*
X15390Y-26929D01*
X16120Y-26929D01*
X16192Y-26915D01*
X16253Y-26873D01*
X16553Y-26573D01*
X16553Y-26573D01*
X16553Y-26573D01*
X16573Y-26544D01*
X16573Y-26544D01*
X16650Y-26622D01*
X16812Y-26689D01*
X16987Y-26689D01*
X17148Y-26622D01*
X17272Y-26499D01*
X17339Y-26337D01*
X17339Y-26162D01*
X17339Y-26542D01*
X16871Y-27010D01*
X14339Y-27010D01*
X14339Y-26162D01*
X14339Y-25162D01*
X14272Y-25001D01*
X14149Y-24877D01*
X13987Y-24810D01*
X13812Y-24810D01*
X13651Y-24877D01*
X13527Y-25000D01*
X13460Y-25162D01*
X13460Y-25337D01*
X13527Y-25498D01*
X13650Y-25622D01*
X13812Y-25689D01*
X13987Y-25689D01*
X14148Y-25622D01*
X14272Y-25499D01*
X14339Y-25337D01*
X14339Y-25162D01*
X14339Y-26162D01*
X14272Y-26001D01*
X14149Y-25877D01*
X13987Y-25810D01*
X13812Y-25810D01*
X13651Y-25877D01*
X13527Y-26000D01*
X13460Y-26162D01*
X13460Y-26337D01*
X13527Y-26498D01*
X13650Y-26622D01*
X13812Y-26689D01*
X13987Y-26689D01*
X14148Y-26622D01*
X14272Y-26499D01*
X14339Y-26337D01*
X14339Y-26162D01*
X14339Y-27010D01*
X13878Y-27010D01*
X13089Y-26221D01*
X13089Y-22700D01*
X13089Y-22680D01*
X13089Y-12578D01*
X13460Y-12207D01*
X13460Y-12227D01*
X13460Y-12827D01*
X13481Y-12878D01*
X13520Y-12918D01*
X13572Y-12939D01*
X13627Y-12939D01*
X14227Y-12939D01*
X14278Y-12918D01*
X14318Y-12879D01*
X14339Y-12827D01*
X14339Y-12772D01*
X14339Y-12172D01*
X14326Y-12141D01*
X14553Y-11913D01*
X14595Y-11852D01*
X14601Y-11822D01*
X14650Y-11872D01*
X14812Y-11939D01*
X14987Y-11939D01*
X15148Y-11872D01*
X15272Y-11749D01*
X15339Y-11587D01*
X15339Y-11412D01*
X15285Y-11282D01*
X15588Y-10979D01*
X27281Y-10979D01*
X29812Y-13510D01*
X29637Y-13510D01*
X29476Y-13577D01*
X29352Y-13700D01*
X29285Y-13862D01*
X29285Y-14037D01*
X29352Y-14198D01*
X29475Y-14322D01*
X29637Y-14389D01*
X29812Y-14389D01*
X29973Y-14322D01*
X30097Y-14199D01*
X30164Y-14037D01*
X30164Y-13862D01*
X30164Y-13862D01*
X31946Y-15643D01*
X31946Y-15643D01*
X32007Y-15685D01*
X32080Y-15699D01*
X33801Y-15699D01*
X33765Y-15787D01*
X33765Y-15912D01*
X33813Y-16027D01*
X33896Y-16110D01*
X33805Y-16148D01*
X33688Y-16264D01*
X33625Y-16417D01*
X33625Y-16582D01*
X33688Y-16734D01*
X33804Y-16851D01*
X33957Y-16914D01*
X34122Y-16914D01*
X34252Y-16860D01*
X35001Y-17608D01*
X35001Y-17608D01*
X35062Y-17650D01*
X35062Y-17650D01*
X35120Y-17661D01*
X35134Y-17664D01*
X35134Y-17664D01*
X35135Y-17664D01*
X35496Y-17664D01*
X35442Y-17686D01*
X35374Y-17754D01*
X35338Y-17842D01*
X35337Y-17937D01*
X35338Y-17966D01*
X35397Y-18026D01*
X35674Y-18026D01*
X35674Y-18018D01*
X35795Y-18018D01*
X35795Y-18026D01*
X36072Y-18026D01*
X36132Y-17966D01*
X36132Y-17937D01*
X36131Y-17842D01*
X36095Y-17754D01*
X36027Y-17686D01*
X35973Y-17664D01*
X39346Y-17664D01*
X39466Y-17783D01*
X39466Y-17783D01*
X39527Y-17825D01*
X39527Y-17825D01*
X39585Y-17836D01*
X39599Y-17839D01*
X39599Y-17839D01*
X39600Y-17839D01*
X40740Y-17839D01*
X40740Y-18215D01*
X40740Y-18215D01*
G37*
G54D33*
X40740Y-18215D02*
X40701Y-18231D01*
X40679Y-18252D01*
X40659Y-18231D01*
X40607Y-18210D01*
X40552Y-18210D01*
X40279Y-18210D01*
X40215Y-18146D01*
X40127Y-18110D01*
X40050Y-18110D01*
X39990Y-18170D01*
X39990Y-18539D01*
X39998Y-18539D01*
X39998Y-18660D01*
X39990Y-18660D01*
X39990Y-18668D01*
X39869Y-18668D01*
X39869Y-18660D01*
X39861Y-18660D01*
X39861Y-18539D01*
X39869Y-18539D01*
X39869Y-18170D01*
X39809Y-18110D01*
X39732Y-18110D01*
X39644Y-18146D01*
X39580Y-18210D01*
X39552Y-18210D01*
X39252Y-18210D01*
X39201Y-18231D01*
X39179Y-18252D01*
X39159Y-18231D01*
X39107Y-18210D01*
X39052Y-18210D01*
X38752Y-18210D01*
X38701Y-18231D01*
X38679Y-18252D01*
X38659Y-18231D01*
X38607Y-18210D01*
X38552Y-18210D01*
X38252Y-18210D01*
X38201Y-18231D01*
X38161Y-18270D01*
X38140Y-18322D01*
X38140Y-18377D01*
X38140Y-18877D01*
X38161Y-18928D01*
X38200Y-18968D01*
X38233Y-18981D01*
X38173Y-19041D01*
X38125Y-19157D01*
X38125Y-19282D01*
X38173Y-19397D01*
X38261Y-19486D01*
X38377Y-19534D01*
X38502Y-19534D01*
X38617Y-19486D01*
X38706Y-19398D01*
X38740Y-19316D01*
X38740Y-19330D01*
X38754Y-19402D01*
X38796Y-19463D01*
X38943Y-19611D01*
X38940Y-19610D01*
X37337Y-19610D01*
X37337Y-18005D01*
X37289Y-17889D01*
X37200Y-17801D01*
X37085Y-17753D01*
X36960Y-17752D01*
X36844Y-17800D01*
X36782Y-17863D01*
X36782Y-17862D01*
X36760Y-17811D01*
X36721Y-17771D01*
X36670Y-17750D01*
X36614Y-17750D01*
X36299Y-17750D01*
X36248Y-17771D01*
X36209Y-17810D01*
X36188Y-17862D01*
X36187Y-17917D01*
X36187Y-18311D01*
X36209Y-18362D01*
X36248Y-18402D01*
X36299Y-18423D01*
X36355Y-18423D01*
X36670Y-18423D01*
X36721Y-18402D01*
X36760Y-18363D01*
X36781Y-18311D01*
X36782Y-18276D01*
X36786Y-18276D01*
X36844Y-18333D01*
X36959Y-18381D01*
X37084Y-18382D01*
X37200Y-18334D01*
X37288Y-18245D01*
X37336Y-18130D01*
X37337Y-18005D01*
X37337Y-19610D01*
X36500Y-19610D01*
X36499Y-19610D01*
X36485Y-19613D01*
X36427Y-19624D01*
X36424Y-19626D01*
X36424Y-19387D01*
X36376Y-19272D01*
X36359Y-19255D01*
X36385Y-19229D01*
X36406Y-19177D01*
X36407Y-19122D01*
X36407Y-18728D01*
X36385Y-18677D01*
X36346Y-18637D01*
X36295Y-18616D01*
X36239Y-18616D01*
X36132Y-18616D01*
X36132Y-18236D01*
X36132Y-18207D01*
X36072Y-18147D01*
X35795Y-18147D01*
X35795Y-18463D01*
X35855Y-18523D01*
X35939Y-18523D01*
X36027Y-18487D01*
X36095Y-18419D01*
X36131Y-18331D01*
X36132Y-18236D01*
X36132Y-18616D01*
X35924Y-18616D01*
X35873Y-18637D01*
X35834Y-18676D01*
X35813Y-18728D01*
X35812Y-18783D01*
X35812Y-19177D01*
X35834Y-19228D01*
X35860Y-19254D01*
X35843Y-19271D01*
X35795Y-19387D01*
X35795Y-19512D01*
X35843Y-19627D01*
X35931Y-19716D01*
X36047Y-19764D01*
X36172Y-19764D01*
X36287Y-19716D01*
X36376Y-19628D01*
X36424Y-19512D01*
X36424Y-19387D01*
X36424Y-19626D01*
X36366Y-19666D01*
X36366Y-19666D01*
X36141Y-19890D01*
X35792Y-19890D01*
X35741Y-19911D01*
X35709Y-19942D01*
X35679Y-19911D01*
X35674Y-19909D01*
X35674Y-18463D01*
X35674Y-18147D01*
X35397Y-18147D01*
X35338Y-18207D01*
X35337Y-18236D01*
X35338Y-18331D01*
X35374Y-18419D01*
X35442Y-18487D01*
X35530Y-18523D01*
X35614Y-18523D01*
X35674Y-18463D01*
X35674Y-19909D01*
X35627Y-19890D01*
X35572Y-19890D01*
X34972Y-19890D01*
X34921Y-19911D01*
X34881Y-19950D01*
X34860Y-20002D01*
X34860Y-20057D01*
X34860Y-20857D01*
X34881Y-20908D01*
X34920Y-20948D01*
X34950Y-20960D01*
X34798Y-20960D01*
X34489Y-20651D01*
X34489Y-19372D01*
X34489Y-18572D01*
X34468Y-18521D01*
X34429Y-18481D01*
X34377Y-18460D01*
X34322Y-18460D01*
X33778Y-18460D01*
X33454Y-18136D01*
X33454Y-16417D01*
X33391Y-16265D01*
X33275Y-16148D01*
X33122Y-16085D01*
X32957Y-16085D01*
X32805Y-16148D01*
X32688Y-16264D01*
X32625Y-16417D01*
X32625Y-16582D01*
X32688Y-16734D01*
X32804Y-16851D01*
X32957Y-16914D01*
X33122Y-16914D01*
X33274Y-16851D01*
X33391Y-16735D01*
X33454Y-16582D01*
X33454Y-16417D01*
X33454Y-18136D01*
X33389Y-18071D01*
X33389Y-17472D01*
X33368Y-17421D01*
X33329Y-17381D01*
X33277Y-17360D01*
X33222Y-17360D01*
X32678Y-17360D01*
X32233Y-16916D01*
X32189Y-16886D01*
X32274Y-16851D01*
X32391Y-16735D01*
X32454Y-16582D01*
X32454Y-16417D01*
X32391Y-16265D01*
X32275Y-16148D01*
X32122Y-16085D01*
X31957Y-16085D01*
X31805Y-16148D01*
X31688Y-16264D01*
X31625Y-16417D01*
X31625Y-16582D01*
X31688Y-16734D01*
X31714Y-16760D01*
X31712Y-16760D01*
X31597Y-16808D01*
X31508Y-16896D01*
X31460Y-17012D01*
X31460Y-17137D01*
X31508Y-17252D01*
X31596Y-17341D01*
X31642Y-17360D01*
X31322Y-17360D01*
X31271Y-17381D01*
X31231Y-17420D01*
X31210Y-17472D01*
X31210Y-17527D01*
X31210Y-17751D01*
X31172Y-17735D01*
X31120Y-17735D01*
X31060Y-17795D01*
X31060Y-18139D01*
X31068Y-18139D01*
X31068Y-18260D01*
X31060Y-18260D01*
X31060Y-18443D01*
X31009Y-18494D01*
X31009Y-18889D01*
X31018Y-18889D01*
X31018Y-19010D01*
X31009Y-19010D01*
X31009Y-19405D01*
X31068Y-19465D01*
X31115Y-19465D01*
X31203Y-19428D01*
X31264Y-19368D01*
X31274Y-19422D01*
X31316Y-19483D01*
X31466Y-19633D01*
X31466Y-19633D01*
X31527Y-19675D01*
X31600Y-19689D01*
X32250Y-19689D01*
X32322Y-19675D01*
X32383Y-19633D01*
X32478Y-19539D01*
X32560Y-19539D01*
X32560Y-19710D01*
X32372Y-19710D01*
X32321Y-19731D01*
X32281Y-19770D01*
X32260Y-19822D01*
X32260Y-19877D01*
X32260Y-20477D01*
X32281Y-20528D01*
X32320Y-20568D01*
X32372Y-20589D01*
X32427Y-20589D01*
X33227Y-20589D01*
X33278Y-20568D01*
X33318Y-20529D01*
X33339Y-20477D01*
X33339Y-20422D01*
X33339Y-19822D01*
X33318Y-19771D01*
X33279Y-19731D01*
X33227Y-19710D01*
X33172Y-19710D01*
X32939Y-19710D01*
X32939Y-19539D01*
X33077Y-19539D01*
X33128Y-19518D01*
X33168Y-19479D01*
X33189Y-19427D01*
X33189Y-19372D01*
X33189Y-18572D01*
X33168Y-18521D01*
X33129Y-18481D01*
X33077Y-18460D01*
X33022Y-18460D01*
X32422Y-18460D01*
X32397Y-18470D01*
X32519Y-18348D01*
X32531Y-18378D01*
X32570Y-18418D01*
X32622Y-18439D01*
X32677Y-18439D01*
X33221Y-18439D01*
X33610Y-18828D01*
X33610Y-19427D01*
X33631Y-19478D01*
X33670Y-19518D01*
X33722Y-19539D01*
X33777Y-19539D01*
X34377Y-19539D01*
X34428Y-19518D01*
X34468Y-19479D01*
X34489Y-19427D01*
X34489Y-19372D01*
X34489Y-20651D01*
X34439Y-20601D01*
X34439Y-20002D01*
X34418Y-19951D01*
X34379Y-19911D01*
X34327Y-19890D01*
X34272Y-19890D01*
X33672Y-19890D01*
X33621Y-19911D01*
X33581Y-19950D01*
X33560Y-20002D01*
X33560Y-20057D01*
X33560Y-20857D01*
X33581Y-20908D01*
X33620Y-20948D01*
X33672Y-20969D01*
X33727Y-20969D01*
X34271Y-20969D01*
X34586Y-21283D01*
X34586Y-21283D01*
X34647Y-21325D01*
X34647Y-21325D01*
X34699Y-21335D01*
X34512Y-21335D01*
X34461Y-21356D01*
X34421Y-21395D01*
X34400Y-21447D01*
X34400Y-21502D01*
X34400Y-21952D01*
X34421Y-22003D01*
X34450Y-22032D01*
X34450Y-22174D01*
X34436Y-22189D01*
X34416Y-22142D01*
X34329Y-22054D01*
X34329Y-22032D01*
X34358Y-22004D01*
X34379Y-21952D01*
X34379Y-21897D01*
X34379Y-21447D01*
X34358Y-21396D01*
X34319Y-21356D01*
X34267Y-21335D01*
X34212Y-21335D01*
X34012Y-21335D01*
X33961Y-21356D01*
X33924Y-21393D01*
X33924Y-21377D01*
X33876Y-21262D01*
X33788Y-21173D01*
X33672Y-21125D01*
X33547Y-21125D01*
X33432Y-21173D01*
X33344Y-21260D01*
X33339Y-21260D01*
X33339Y-21122D01*
X33318Y-21071D01*
X33279Y-21031D01*
X33227Y-21010D01*
X33172Y-21010D01*
X32372Y-21010D01*
X32321Y-21031D01*
X32281Y-21070D01*
X32260Y-21122D01*
X32260Y-21177D01*
X32260Y-21777D01*
X32281Y-21828D01*
X32320Y-21868D01*
X32372Y-21889D01*
X32399Y-21889D01*
X32437Y-21915D01*
X32510Y-21929D01*
X32582Y-21915D01*
X32620Y-21889D01*
X33227Y-21889D01*
X33278Y-21868D01*
X33318Y-21829D01*
X33339Y-21777D01*
X33339Y-21722D01*
X33339Y-21639D01*
X33364Y-21639D01*
X33431Y-21706D01*
X33547Y-21754D01*
X33672Y-21754D01*
X33787Y-21706D01*
X33876Y-21618D01*
X33900Y-21560D01*
X33900Y-21952D01*
X33921Y-22003D01*
X33950Y-22032D01*
X33950Y-22074D01*
X33883Y-22141D01*
X33846Y-22230D01*
X33709Y-22230D01*
X33703Y-22216D01*
X33664Y-22176D01*
X33612Y-22155D01*
X33557Y-22155D01*
X33107Y-22155D01*
X33056Y-22176D01*
X33016Y-22215D01*
X33010Y-22230D01*
X32239Y-22230D01*
X32239Y-20162D01*
X32191Y-20047D01*
X32103Y-19958D01*
X31987Y-19910D01*
X31862Y-19910D01*
X31747Y-19958D01*
X31658Y-20046D01*
X31610Y-20162D01*
X31610Y-20287D01*
X31658Y-20402D01*
X31746Y-20491D01*
X31760Y-20497D01*
X31760Y-20653D01*
X31753Y-20656D01*
X31713Y-20695D01*
X31699Y-20728D01*
X31686Y-20695D01*
X31647Y-20656D01*
X31595Y-20635D01*
X31540Y-20634D01*
X31304Y-20634D01*
X31253Y-20656D01*
X31213Y-20695D01*
X31199Y-20728D01*
X31186Y-20695D01*
X31147Y-20656D01*
X31095Y-20635D01*
X31040Y-20634D01*
X30804Y-20634D01*
X30774Y-20647D01*
X30770Y-20638D01*
X30703Y-20571D01*
X30615Y-20534D01*
X30568Y-20535D01*
X30509Y-20594D01*
X30509Y-20989D01*
X30518Y-20989D01*
X30518Y-21110D01*
X30509Y-21110D01*
X30509Y-21505D01*
X30550Y-21546D01*
X30550Y-21729D01*
X30558Y-21729D01*
X30558Y-21850D01*
X30550Y-21850D01*
X30550Y-22194D01*
X30610Y-22254D01*
X30662Y-22254D01*
X30750Y-22218D01*
X30817Y-22150D01*
X30844Y-22087D01*
X30846Y-22093D01*
X30885Y-22133D01*
X30937Y-22154D01*
X30992Y-22154D01*
X31242Y-22154D01*
X31293Y-22133D01*
X31333Y-22094D01*
X31354Y-22042D01*
X31354Y-21988D01*
X31422Y-21975D01*
X31483Y-21933D01*
X31952Y-21465D01*
X32095Y-21465D01*
X32146Y-21443D01*
X32186Y-21404D01*
X32207Y-21353D01*
X32207Y-21297D01*
X32207Y-20746D01*
X32186Y-20695D01*
X32147Y-20656D01*
X32139Y-20653D01*
X32139Y-20455D01*
X32191Y-20403D01*
X32239Y-20287D01*
X32239Y-20162D01*
X32239Y-22230D01*
X31530Y-22230D01*
X30800Y-22230D01*
X30727Y-22244D01*
X30666Y-22286D01*
X30429Y-22522D01*
X30429Y-22194D01*
X30429Y-21850D01*
X30429Y-21729D01*
X30429Y-21385D01*
X30391Y-21346D01*
X30391Y-21110D01*
X30391Y-20989D01*
X30391Y-20594D01*
X30331Y-20535D01*
X30284Y-20534D01*
X30196Y-20571D01*
X30129Y-20638D01*
X30092Y-20726D01*
X30092Y-20821D01*
X30092Y-20929D01*
X30152Y-20989D01*
X30391Y-20989D01*
X30391Y-21110D01*
X30152Y-21110D01*
X30092Y-21170D01*
X30092Y-21278D01*
X30092Y-21373D01*
X30129Y-21461D01*
X30142Y-21475D01*
X30125Y-21517D01*
X30125Y-21612D01*
X30125Y-21669D01*
X30185Y-21729D01*
X30429Y-21729D01*
X30429Y-21850D01*
X30185Y-21850D01*
X30125Y-21910D01*
X30125Y-21967D01*
X30125Y-22062D01*
X30162Y-22150D01*
X30229Y-22218D01*
X30317Y-22254D01*
X30369Y-22254D01*
X30429Y-22194D01*
X30429Y-22522D01*
X30201Y-22750D01*
X28898Y-22750D01*
X28908Y-22746D01*
X28948Y-22707D01*
X28969Y-22655D01*
X28969Y-22600D01*
X28969Y-21600D01*
X28948Y-21549D01*
X28909Y-21509D01*
X28857Y-21488D01*
X28802Y-21488D01*
X28552Y-21488D01*
X30583Y-19456D01*
X30583Y-19456D01*
X30583Y-19456D01*
X30608Y-19420D01*
X30625Y-19395D01*
X30625Y-19395D01*
X30631Y-19363D01*
X30696Y-19428D01*
X30784Y-19465D01*
X30831Y-19465D01*
X30891Y-19405D01*
X30891Y-19010D01*
X30881Y-19010D01*
X30881Y-18889D01*
X30891Y-18889D01*
X30891Y-18653D01*
X30939Y-18604D01*
X30939Y-18260D01*
X30931Y-18260D01*
X30931Y-18139D01*
X30939Y-18139D01*
X30939Y-17795D01*
X30879Y-17735D01*
X30827Y-17735D01*
X30739Y-17771D01*
X30672Y-17839D01*
X30645Y-17902D01*
X30643Y-17896D01*
X30604Y-17856D01*
X30552Y-17835D01*
X30497Y-17835D01*
X30247Y-17835D01*
X30196Y-17856D01*
X30164Y-17888D01*
X30164Y-14862D01*
X30097Y-14701D01*
X29974Y-14577D01*
X29812Y-14510D01*
X29637Y-14510D01*
X29476Y-14577D01*
X29352Y-14700D01*
X29327Y-14760D01*
X28728Y-14760D01*
X28728Y-13235D01*
X28602Y-12931D01*
X28369Y-12698D01*
X28065Y-12571D01*
X27735Y-12571D01*
X27431Y-12697D01*
X27198Y-12930D01*
X27071Y-13234D01*
X27071Y-13564D01*
X27197Y-13868D01*
X27430Y-14101D01*
X27734Y-14228D01*
X28064Y-14228D01*
X28368Y-14102D01*
X28601Y-13869D01*
X28728Y-13565D01*
X28728Y-13235D01*
X28728Y-14760D01*
X26350Y-14760D01*
X26277Y-14774D01*
X26216Y-14816D01*
X26046Y-14985D01*
X25987Y-14960D01*
X25812Y-14960D01*
X25651Y-15027D01*
X25527Y-15150D01*
X25460Y-15312D01*
X25460Y-15487D01*
X25527Y-15648D01*
X25650Y-15772D01*
X25812Y-15839D01*
X25987Y-15839D01*
X26148Y-15772D01*
X26272Y-15649D01*
X26339Y-15487D01*
X26339Y-15312D01*
X26314Y-15253D01*
X26428Y-15139D01*
X29327Y-15139D01*
X29352Y-15198D01*
X29475Y-15322D01*
X29637Y-15389D01*
X29812Y-15389D01*
X29973Y-15322D01*
X30097Y-15199D01*
X30164Y-15037D01*
X30164Y-14862D01*
X30164Y-17888D01*
X30164Y-17888D01*
X30164Y-16222D01*
X30164Y-15622D01*
X30143Y-15571D01*
X30104Y-15531D01*
X30052Y-15510D01*
X29997Y-15510D01*
X29397Y-15510D01*
X29346Y-15531D01*
X29306Y-15570D01*
X29285Y-15622D01*
X29285Y-15677D01*
X29285Y-16277D01*
X29306Y-16328D01*
X29345Y-16368D01*
X29397Y-16389D01*
X29452Y-16389D01*
X30052Y-16389D01*
X30103Y-16368D01*
X30143Y-16329D01*
X30164Y-16277D01*
X30164Y-16222D01*
X30164Y-17888D01*
X30156Y-17895D01*
X30135Y-17947D01*
X30135Y-18002D01*
X30135Y-18452D01*
X30156Y-18503D01*
X30195Y-18543D01*
X30210Y-18549D01*
X30210Y-18603D01*
X30192Y-18646D01*
X30192Y-18702D01*
X30192Y-19253D01*
X30209Y-19295D01*
X28152Y-21352D01*
X28152Y-21352D01*
X28146Y-21359D01*
X28104Y-21420D01*
X28091Y-21488D01*
X27802Y-21488D01*
X27751Y-21509D01*
X27711Y-21548D01*
X27690Y-21600D01*
X27690Y-21655D01*
X27690Y-22655D01*
X27711Y-22706D01*
X27750Y-22746D01*
X27761Y-22750D01*
X27339Y-22750D01*
X27339Y-19888D01*
X27196Y-19543D01*
X26932Y-19278D01*
X26587Y-19135D01*
X26213Y-19135D01*
X25868Y-19278D01*
X25603Y-19542D01*
X25460Y-19887D01*
X25460Y-20261D01*
X25603Y-20606D01*
X25867Y-20871D01*
X26212Y-21014D01*
X26586Y-21014D01*
X26931Y-20871D01*
X27196Y-20607D01*
X27339Y-20262D01*
X27339Y-19888D01*
X27339Y-22750D01*
X27244Y-22750D01*
X27254Y-22746D01*
X27294Y-22707D01*
X27315Y-22655D01*
X27315Y-22600D01*
X27315Y-21600D01*
X27294Y-21549D01*
X27255Y-21509D01*
X27203Y-21488D01*
X27148Y-21488D01*
X26148Y-21488D01*
X26097Y-21509D01*
X26057Y-21548D01*
X26036Y-21600D01*
X26036Y-21655D01*
X26036Y-22655D01*
X26057Y-22706D01*
X26096Y-22746D01*
X26107Y-22750D01*
X25914Y-22750D01*
X25663Y-22499D01*
X25663Y-21600D01*
X25642Y-21549D01*
X25603Y-21509D01*
X25551Y-21488D01*
X25496Y-21488D01*
X25445Y-21488D01*
X25445Y-15468D01*
X25430Y-15254D01*
X25377Y-15127D01*
X25286Y-15098D01*
X25201Y-15184D01*
X25201Y-15013D01*
X25172Y-14922D01*
X24968Y-14854D01*
X24754Y-14869D01*
X24728Y-14880D01*
X24728Y-13235D01*
X24602Y-12931D01*
X24369Y-12698D01*
X24065Y-12571D01*
X23735Y-12571D01*
X23431Y-12697D01*
X23198Y-12930D01*
X23071Y-13234D01*
X23071Y-13564D01*
X23197Y-13868D01*
X23430Y-14101D01*
X23734Y-14228D01*
X24064Y-14228D01*
X24368Y-14102D01*
X24601Y-13869D01*
X24728Y-13565D01*
X24728Y-13235D01*
X24728Y-14880D01*
X24627Y-14922D01*
X24598Y-15013D01*
X24900Y-15314D01*
X25201Y-15013D01*
X25201Y-15184D01*
X24985Y-15400D01*
X25286Y-15701D01*
X25377Y-15672D01*
X25445Y-15468D01*
X25445Y-21488D01*
X25201Y-21488D01*
X25201Y-15786D01*
X24900Y-15485D01*
X24814Y-15571D01*
X24814Y-15400D01*
X24513Y-15098D01*
X24422Y-15127D01*
X24354Y-15331D01*
X24369Y-15545D01*
X24422Y-15672D01*
X24513Y-15701D01*
X24814Y-15400D01*
X24814Y-15571D01*
X24598Y-15786D01*
X24627Y-15877D01*
X24831Y-15945D01*
X25045Y-15930D01*
X25172Y-15877D01*
X25201Y-15786D01*
X25201Y-21488D01*
X24652Y-21488D01*
X24299Y-21136D01*
X24238Y-21094D01*
X24166Y-21080D01*
X22570Y-21080D01*
X22497Y-21094D01*
X22436Y-21136D01*
X21791Y-21781D01*
X21749Y-21842D01*
X21735Y-21915D01*
X21735Y-22256D01*
X20939Y-23052D01*
X20939Y-11653D01*
X20827Y-11381D01*
X20619Y-11173D01*
X20347Y-11060D01*
X20053Y-11060D01*
X19781Y-11172D01*
X19573Y-11380D01*
X19460Y-11652D01*
X19460Y-11946D01*
X19572Y-12218D01*
X19780Y-12426D01*
X20052Y-12539D01*
X20346Y-12539D01*
X20618Y-12427D01*
X20826Y-12219D01*
X20939Y-11947D01*
X20939Y-11653D01*
X20939Y-23052D01*
X18339Y-25652D01*
X18339Y-12412D01*
X18339Y-11412D01*
X18272Y-11251D01*
X18149Y-11127D01*
X17987Y-11060D01*
X17812Y-11060D01*
X17651Y-11127D01*
X17527Y-11250D01*
X17460Y-11412D01*
X17460Y-11587D01*
X17527Y-11748D01*
X17650Y-11872D01*
X17812Y-11939D01*
X17987Y-11939D01*
X18148Y-11872D01*
X18272Y-11749D01*
X18339Y-11587D01*
X18339Y-11412D01*
X18339Y-12412D01*
X18272Y-12251D01*
X18149Y-12127D01*
X17987Y-12060D01*
X17812Y-12060D01*
X17651Y-12127D01*
X17527Y-12250D01*
X17460Y-12412D01*
X17460Y-12587D01*
X17527Y-12748D01*
X17650Y-12872D01*
X17812Y-12939D01*
X17987Y-12939D01*
X18148Y-12872D01*
X18272Y-12749D01*
X18339Y-12587D01*
X18339Y-12412D01*
X18339Y-25652D01*
X18339Y-25652D01*
X18339Y-25522D01*
X18339Y-24922D01*
X18318Y-24871D01*
X18279Y-24831D01*
X18227Y-24810D01*
X18172Y-24810D01*
X17572Y-24810D01*
X17521Y-24831D01*
X17481Y-24870D01*
X17460Y-24922D01*
X17460Y-24977D01*
X17460Y-25577D01*
X17481Y-25628D01*
X17520Y-25668D01*
X17572Y-25689D01*
X17627Y-25689D01*
X18227Y-25689D01*
X18278Y-25668D01*
X18318Y-25629D01*
X18339Y-25577D01*
X18339Y-25522D01*
X18339Y-25652D01*
X18124Y-25867D01*
X17987Y-25810D01*
X17812Y-25810D01*
X17651Y-25877D01*
X17527Y-26000D01*
X17460Y-26162D01*
X17460Y-26337D01*
X17485Y-26396D01*
X17445Y-26436D01*
X17445Y-25318D01*
X17430Y-25104D01*
X17377Y-24977D01*
X17286Y-24948D01*
X16985Y-25250D01*
X17286Y-25551D01*
X17377Y-25522D01*
X17445Y-25318D01*
X17445Y-26436D01*
X17339Y-26542D01*
X17339Y-26162D01*
X17272Y-26001D01*
X17149Y-25877D01*
X16987Y-25810D01*
X16812Y-25810D01*
X16651Y-25877D01*
X16609Y-25918D01*
X16609Y-25670D01*
X16627Y-25727D01*
X16831Y-25795D01*
X17045Y-25780D01*
X17172Y-25727D01*
X17201Y-25636D01*
X16900Y-25335D01*
X16894Y-25341D01*
X16808Y-25255D01*
X16814Y-25250D01*
X16808Y-25244D01*
X16894Y-25158D01*
X16900Y-25164D01*
X17201Y-24863D01*
X17172Y-24772D01*
X16968Y-24704D01*
X16754Y-24719D01*
X16627Y-24772D01*
X16609Y-24829D01*
X16609Y-12831D01*
X16650Y-12872D01*
X16812Y-12939D01*
X16987Y-12939D01*
X17148Y-12872D01*
X17272Y-12749D01*
X17339Y-12587D01*
X17339Y-12412D01*
X17272Y-12251D01*
X17149Y-12127D01*
X16987Y-12060D01*
X16812Y-12060D01*
X16651Y-12127D01*
X16609Y-12168D01*
X16609Y-11978D01*
X16696Y-11891D01*
X16812Y-11939D01*
X16987Y-11939D01*
X17148Y-11872D01*
X17272Y-11749D01*
X17339Y-11587D01*
X17339Y-11412D01*
X17272Y-11251D01*
X17149Y-11127D01*
X16987Y-11060D01*
X16812Y-11060D01*
X16651Y-11127D01*
X16527Y-11250D01*
X16460Y-11412D01*
X16460Y-11587D01*
X16461Y-11590D01*
X16286Y-11766D01*
X16244Y-11827D01*
X16230Y-11900D01*
X16230Y-12208D01*
X16149Y-12127D01*
X15987Y-12060D01*
X15812Y-12060D01*
X15651Y-12127D01*
X15589Y-12188D01*
X15589Y-12078D01*
X15753Y-11914D01*
X15812Y-11939D01*
X15987Y-11939D01*
X16148Y-11872D01*
X16272Y-11749D01*
X16339Y-11587D01*
X16339Y-11412D01*
X16272Y-11251D01*
X16149Y-11127D01*
X15987Y-11060D01*
X15812Y-11060D01*
X15651Y-11127D01*
X15527Y-11250D01*
X15460Y-11412D01*
X15460Y-11587D01*
X15485Y-11646D01*
X15266Y-11866D01*
X15224Y-11927D01*
X15210Y-12000D01*
X15210Y-12103D01*
X15201Y-12113D01*
X15172Y-12022D01*
X14968Y-11954D01*
X14754Y-11969D01*
X14627Y-12022D01*
X14598Y-12113D01*
X14900Y-12414D01*
X14905Y-12408D01*
X14991Y-12494D01*
X14985Y-12500D01*
X14991Y-12505D01*
X14905Y-12591D01*
X14900Y-12585D01*
X14814Y-12671D01*
X14814Y-12500D01*
X14513Y-12198D01*
X14422Y-12227D01*
X14354Y-12431D01*
X14369Y-12645D01*
X14422Y-12772D01*
X14513Y-12801D01*
X14814Y-12500D01*
X14814Y-12671D01*
X14598Y-12886D01*
X14627Y-12977D01*
X14831Y-13045D01*
X15045Y-13030D01*
X15172Y-12977D01*
X15201Y-12886D01*
X15201Y-12886D01*
X15210Y-12896D01*
X15210Y-24938D01*
X15201Y-24929D01*
X15149Y-24877D01*
X14987Y-24810D01*
X14812Y-24810D01*
X14651Y-24877D01*
X14527Y-25000D01*
X14460Y-25162D01*
X14460Y-25337D01*
X14527Y-25498D01*
X14650Y-25622D01*
X14812Y-25689D01*
X14987Y-25689D01*
X15148Y-25622D01*
X15210Y-25561D01*
X15210Y-25750D01*
X15224Y-25822D01*
X15266Y-25883D01*
X15485Y-26103D01*
X15460Y-26162D01*
X15460Y-26337D01*
X15527Y-26498D01*
X15578Y-26550D01*
X15468Y-26550D01*
X15314Y-26396D01*
X15339Y-26337D01*
X15339Y-26162D01*
X15272Y-26001D01*
X15149Y-25877D01*
X14987Y-25810D01*
X14812Y-25810D01*
X14651Y-25877D01*
X14527Y-26000D01*
X14460Y-26162D01*
X14460Y-26337D01*
X14527Y-26498D01*
X14650Y-26622D01*
X14812Y-26689D01*
X14987Y-26689D01*
X15046Y-26664D01*
X15256Y-26873D01*
X15317Y-26915D01*
X15390Y-26929D01*
X16120Y-26929D01*
X16192Y-26915D01*
X16253Y-26873D01*
X16553Y-26573D01*
X16553Y-26573D01*
X16553Y-26573D01*
X16573Y-26544D01*
X16573Y-26544D01*
X16650Y-26622D01*
X16812Y-26689D01*
X16987Y-26689D01*
X17148Y-26622D01*
X17272Y-26499D01*
X17339Y-26337D01*
X17339Y-26162D01*
X17339Y-26542D01*
X16871Y-27010D01*
X14339Y-27010D01*
X14339Y-26162D01*
X14339Y-25162D01*
X14272Y-25001D01*
X14149Y-24877D01*
X13987Y-24810D01*
X13812Y-24810D01*
X13651Y-24877D01*
X13527Y-25000D01*
X13460Y-25162D01*
X13460Y-25337D01*
X13527Y-25498D01*
X13650Y-25622D01*
X13812Y-25689D01*
X13987Y-25689D01*
X14148Y-25622D01*
X14272Y-25499D01*
X14339Y-25337D01*
X14339Y-25162D01*
X14339Y-26162D01*
X14272Y-26001D01*
X14149Y-25877D01*
X13987Y-25810D01*
X13812Y-25810D01*
X13651Y-25877D01*
X13527Y-26000D01*
X13460Y-26162D01*
X13460Y-26337D01*
X13527Y-26498D01*
X13650Y-26622D01*
X13812Y-26689D01*
X13987Y-26689D01*
X14148Y-26622D01*
X14272Y-26499D01*
X14339Y-26337D01*
X14339Y-26162D01*
X14339Y-27010D01*
X13878Y-27010D01*
X13089Y-26221D01*
X13089Y-22700D01*
X13089Y-22680D01*
X13089Y-12578D01*
X13460Y-12207D01*
X13460Y-12227D01*
X13460Y-12827D01*
X13481Y-12878D01*
X13520Y-12918D01*
X13572Y-12939D01*
X13627Y-12939D01*
X14227Y-12939D01*
X14278Y-12918D01*
X14318Y-12879D01*
X14339Y-12827D01*
X14339Y-12772D01*
X14339Y-12172D01*
X14326Y-12141D01*
X14553Y-11913D01*
X14595Y-11852D01*
X14601Y-11822D01*
X14650Y-11872D01*
X14812Y-11939D01*
X14987Y-11939D01*
X15148Y-11872D01*
X15272Y-11749D01*
X15339Y-11587D01*
X15339Y-11412D01*
X15285Y-11282D01*
X15588Y-10979D01*
X27281Y-10979D01*
X29812Y-13510D01*
X29637Y-13510D01*
X29476Y-13577D01*
X29352Y-13700D01*
X29285Y-13862D01*
X29285Y-14037D01*
X29352Y-14198D01*
X29475Y-14322D01*
X29637Y-14389D01*
X29812Y-14389D01*
X29973Y-14322D01*
X30097Y-14199D01*
X30164Y-14037D01*
X30164Y-13862D01*
X30164Y-13862D01*
X31946Y-15643D01*
X31946Y-15643D01*
X32007Y-15685D01*
X32080Y-15699D01*
X33801Y-15699D01*
X33765Y-15787D01*
X33765Y-15912D01*
X33813Y-16027D01*
X33896Y-16110D01*
X33805Y-16148D01*
X33688Y-16264D01*
X33625Y-16417D01*
X33625Y-16582D01*
X33688Y-16734D01*
X33804Y-16851D01*
X33957Y-16914D01*
X34122Y-16914D01*
X34252Y-16860D01*
X35001Y-17608D01*
X35001Y-17608D01*
X35062Y-17650D01*
X35062Y-17650D01*
X35120Y-17661D01*
X35134Y-17664D01*
X35134Y-17664D01*
X35135Y-17664D01*
X35496Y-17664D01*
X35442Y-17686D01*
X35374Y-17754D01*
X35338Y-17842D01*
X35337Y-17937D01*
X35338Y-17966D01*
X35397Y-18026D01*
X35674Y-18026D01*
X35674Y-18018D01*
X35795Y-18018D01*
X35795Y-18026D01*
X36072Y-18026D01*
X36132Y-17966D01*
X36132Y-17937D01*
X36131Y-17842D01*
X36095Y-17754D01*
X36027Y-17686D01*
X35973Y-17664D01*
X39346Y-17664D01*
X39466Y-17783D01*
X39466Y-17783D01*
X39527Y-17825D01*
X39527Y-17825D01*
X39585Y-17836D01*
X39599Y-17839D01*
X39599Y-17839D01*
X39600Y-17839D01*
X40740Y-17839D01*
X40740Y-18215D01*
G54D10*
G36*
X41105Y-23480D02*
X40480Y-23480D01*
X40479Y-23480D01*
X40465Y-23483D01*
X40407Y-23494D01*
X40346Y-23536D01*
X40346Y-23536D01*
X40016Y-23866D01*
X39995Y-23896D01*
X39971Y-23906D01*
X39963Y-23914D01*
X39952Y-23889D01*
X39885Y-23821D01*
X39797Y-23785D01*
X39759Y-23785D01*
X39700Y-23845D01*
X39700Y-24189D01*
X39718Y-24189D01*
X39718Y-24310D01*
X39700Y-24310D01*
X39700Y-24318D01*
X39600Y-24318D01*
X39600Y-24310D01*
X39581Y-24310D01*
X39581Y-24189D01*
X39600Y-24189D01*
X39600Y-23845D01*
X39581Y-23826D01*
X39938Y-23469D01*
X41094Y-23469D01*
X41105Y-23480D01*
X41105Y-23480D01*
G37*
G54D33*
X41105Y-23480D02*
X40480Y-23480D01*
X40479Y-23480D01*
X40465Y-23483D01*
X40407Y-23494D01*
X40346Y-23536D01*
X40346Y-23536D01*
X40016Y-23866D01*
X39995Y-23896D01*
X39971Y-23906D01*
X39963Y-23914D01*
X39952Y-23889D01*
X39885Y-23821D01*
X39797Y-23785D01*
X39759Y-23785D01*
X39700Y-23845D01*
X39700Y-24189D01*
X39718Y-24189D01*
X39718Y-24310D01*
X39700Y-24310D01*
X39700Y-24318D01*
X39600Y-24318D01*
X39600Y-24310D01*
X39581Y-24310D01*
X39581Y-24189D01*
X39600Y-24189D01*
X39600Y-23845D01*
X39581Y-23826D01*
X39938Y-23469D01*
X41094Y-23469D01*
X41105Y-23480D01*
G54D10*
G36*
X46756Y-17647D02*
X46752Y-17650D01*
X46736Y-17688D01*
X46153Y-17106D01*
X46092Y-17064D01*
X46020Y-17050D01*
X44454Y-17050D01*
X44454Y-16417D01*
X44391Y-16265D01*
X44275Y-16148D01*
X44122Y-16085D01*
X43957Y-16085D01*
X43805Y-16148D01*
X43688Y-16264D01*
X43625Y-16417D01*
X43625Y-16582D01*
X43688Y-16734D01*
X43804Y-16851D01*
X43957Y-16914D01*
X44122Y-16914D01*
X44274Y-16851D01*
X44391Y-16735D01*
X44454Y-16582D01*
X44454Y-16417D01*
X44454Y-17050D01*
X43454Y-17050D01*
X43454Y-16417D01*
X43391Y-16265D01*
X43275Y-16148D01*
X43122Y-16085D01*
X42957Y-16085D01*
X42805Y-16148D01*
X42688Y-16264D01*
X42625Y-16417D01*
X42625Y-16582D01*
X42688Y-16734D01*
X42804Y-16851D01*
X42957Y-16914D01*
X43122Y-16914D01*
X43274Y-16851D01*
X43391Y-16735D01*
X43454Y-16582D01*
X43454Y-16417D01*
X43454Y-17050D01*
X42454Y-17050D01*
X42454Y-16417D01*
X42391Y-16265D01*
X42275Y-16148D01*
X42122Y-16085D01*
X41957Y-16085D01*
X41805Y-16148D01*
X41688Y-16264D01*
X41625Y-16417D01*
X41625Y-16582D01*
X41688Y-16734D01*
X41804Y-16851D01*
X41957Y-16914D01*
X42122Y-16914D01*
X42274Y-16851D01*
X42391Y-16735D01*
X42454Y-16582D01*
X42454Y-16417D01*
X42454Y-17050D01*
X40744Y-17050D01*
X40816Y-16978D01*
X40859Y-16873D01*
X40957Y-16914D01*
X41122Y-16914D01*
X41274Y-16851D01*
X41391Y-16735D01*
X41454Y-16582D01*
X41454Y-16417D01*
X41391Y-16265D01*
X41275Y-16148D01*
X41122Y-16085D01*
X40957Y-16085D01*
X40805Y-16148D01*
X40688Y-16264D01*
X40625Y-16417D01*
X40625Y-16490D01*
X40612Y-16485D01*
X40487Y-16485D01*
X40454Y-16499D01*
X40454Y-16417D01*
X40391Y-16265D01*
X40275Y-16148D01*
X40122Y-16085D01*
X39957Y-16085D01*
X39805Y-16148D01*
X39688Y-16264D01*
X39625Y-16417D01*
X39625Y-16582D01*
X39688Y-16734D01*
X39734Y-16780D01*
X39417Y-16780D01*
X39497Y-16757D01*
X39560Y-16562D01*
X39545Y-16358D01*
X39497Y-16242D01*
X39408Y-16216D01*
X39323Y-16302D01*
X39323Y-16131D01*
X39297Y-16042D01*
X39102Y-15979D01*
X38898Y-15994D01*
X38782Y-16042D01*
X38756Y-16131D01*
X39040Y-16414D01*
X39323Y-16131D01*
X39323Y-16302D01*
X39125Y-16500D01*
X39131Y-16505D01*
X39045Y-16591D01*
X39040Y-16585D01*
X39034Y-16591D01*
X38948Y-16505D01*
X38954Y-16500D01*
X38671Y-16216D01*
X38582Y-16242D01*
X38519Y-16437D01*
X38534Y-16641D01*
X38582Y-16757D01*
X38662Y-16780D01*
X38345Y-16780D01*
X38391Y-16735D01*
X38454Y-16582D01*
X38454Y-16417D01*
X38391Y-16265D01*
X38275Y-16148D01*
X38122Y-16085D01*
X37957Y-16085D01*
X37805Y-16148D01*
X37688Y-16264D01*
X37625Y-16417D01*
X37625Y-16582D01*
X37688Y-16734D01*
X37734Y-16780D01*
X37688Y-16780D01*
X37454Y-16546D01*
X37454Y-16417D01*
X37391Y-16265D01*
X37275Y-16148D01*
X37122Y-16085D01*
X36957Y-16085D01*
X36805Y-16148D01*
X36688Y-16264D01*
X36625Y-16417D01*
X36625Y-16507D01*
X36483Y-16366D01*
X36422Y-16324D01*
X36415Y-16323D01*
X36391Y-16265D01*
X36275Y-16148D01*
X36122Y-16085D01*
X35957Y-16085D01*
X35912Y-16104D01*
X35507Y-15699D01*
X43971Y-15699D01*
X44644Y-16372D01*
X44625Y-16417D01*
X44625Y-16582D01*
X44688Y-16734D01*
X44804Y-16851D01*
X44957Y-16914D01*
X45122Y-16914D01*
X45274Y-16851D01*
X45391Y-16735D01*
X45454Y-16582D01*
X45454Y-16417D01*
X45391Y-16265D01*
X45275Y-16148D01*
X45122Y-16085D01*
X44957Y-16085D01*
X44912Y-16104D01*
X44226Y-15418D01*
X44306Y-15338D01*
X44354Y-15222D01*
X44354Y-15097D01*
X44306Y-14982D01*
X44218Y-14893D01*
X44102Y-14845D01*
X43977Y-14845D01*
X43862Y-14893D01*
X43784Y-14970D01*
X41454Y-14970D01*
X41454Y-13417D01*
X41391Y-13265D01*
X41275Y-13148D01*
X41122Y-13085D01*
X40957Y-13085D01*
X40805Y-13148D01*
X40688Y-13264D01*
X40625Y-13417D01*
X40625Y-13582D01*
X40688Y-13734D01*
X40804Y-13851D01*
X40957Y-13914D01*
X41122Y-13914D01*
X41274Y-13851D01*
X41391Y-13735D01*
X41454Y-13582D01*
X41454Y-13417D01*
X41454Y-14970D01*
X40454Y-14970D01*
X40454Y-13417D01*
X40391Y-13265D01*
X40275Y-13148D01*
X40122Y-13085D01*
X39957Y-13085D01*
X39805Y-13148D01*
X39688Y-13264D01*
X39625Y-13417D01*
X39625Y-13582D01*
X39688Y-13734D01*
X39804Y-13851D01*
X39957Y-13914D01*
X40122Y-13914D01*
X40274Y-13851D01*
X40391Y-13735D01*
X40454Y-13582D01*
X40454Y-13417D01*
X40454Y-14970D01*
X39454Y-14970D01*
X39454Y-13417D01*
X39391Y-13265D01*
X39275Y-13148D01*
X39122Y-13085D01*
X38957Y-13085D01*
X38912Y-13104D01*
X38523Y-12716D01*
X38462Y-12674D01*
X38390Y-12660D01*
X35149Y-12660D01*
X35149Y-12022D01*
X35113Y-11934D01*
X35045Y-11867D01*
X34957Y-11830D01*
X34862Y-11830D01*
X34630Y-11830D01*
X34570Y-11890D01*
X34570Y-12309D01*
X35089Y-12309D01*
X35149Y-12249D01*
X35149Y-12022D01*
X35149Y-12660D01*
X35149Y-12660D01*
X35149Y-12490D01*
X35089Y-12430D01*
X34570Y-12430D01*
X34570Y-12438D01*
X34449Y-12438D01*
X34449Y-12430D01*
X34449Y-12309D01*
X34449Y-11890D01*
X34389Y-11830D01*
X34157Y-11830D01*
X34062Y-11830D01*
X33974Y-11867D01*
X33906Y-11934D01*
X33870Y-12022D01*
X33870Y-12249D01*
X33930Y-12309D01*
X34449Y-12309D01*
X34449Y-12430D01*
X33930Y-12430D01*
X33870Y-12490D01*
X33870Y-12542D01*
X33653Y-12325D01*
X33669Y-12287D01*
X33669Y-12112D01*
X33669Y-12112D01*
X33669Y-11472D01*
X33669Y-10872D01*
X33648Y-10821D01*
X33609Y-10781D01*
X33557Y-10760D01*
X33502Y-10760D01*
X32902Y-10760D01*
X32851Y-10781D01*
X32811Y-10820D01*
X32790Y-10872D01*
X32790Y-10927D01*
X32790Y-11527D01*
X32811Y-11578D01*
X32850Y-11618D01*
X32902Y-11639D01*
X32957Y-11639D01*
X33557Y-11639D01*
X33608Y-11618D01*
X33648Y-11579D01*
X33669Y-11527D01*
X33669Y-11472D01*
X33669Y-12112D01*
X33602Y-11951D01*
X33479Y-11827D01*
X33317Y-11760D01*
X33142Y-11760D01*
X32981Y-11827D01*
X32857Y-11950D01*
X32790Y-12112D01*
X32790Y-12287D01*
X32857Y-12448D01*
X32980Y-12572D01*
X33142Y-12639D01*
X33317Y-12639D01*
X33398Y-12606D01*
X33776Y-12983D01*
X33776Y-12983D01*
X33837Y-13025D01*
X33910Y-13039D01*
X37790Y-13039D01*
X37782Y-13042D01*
X37756Y-13131D01*
X38040Y-13414D01*
X38045Y-13408D01*
X38131Y-13494D01*
X38125Y-13500D01*
X38408Y-13783D01*
X38497Y-13757D01*
X38560Y-13562D01*
X38545Y-13358D01*
X38497Y-13242D01*
X38408Y-13216D01*
X38448Y-13176D01*
X38644Y-13372D01*
X38625Y-13417D01*
X38625Y-13582D01*
X38688Y-13734D01*
X38804Y-13851D01*
X38957Y-13914D01*
X39122Y-13914D01*
X39274Y-13851D01*
X39391Y-13735D01*
X39454Y-13582D01*
X39454Y-13417D01*
X39454Y-14970D01*
X38560Y-14970D01*
X38323Y-14970D01*
X38323Y-13868D01*
X38040Y-13585D01*
X37954Y-13671D01*
X37954Y-13500D01*
X37671Y-13216D01*
X37582Y-13242D01*
X37519Y-13437D01*
X37534Y-13641D01*
X37582Y-13757D01*
X37671Y-13783D01*
X37954Y-13500D01*
X37954Y-13671D01*
X37756Y-13868D01*
X37782Y-13957D01*
X37977Y-14020D01*
X38181Y-14005D01*
X38297Y-13957D01*
X38323Y-13868D01*
X38323Y-14970D01*
X37454Y-14970D01*
X37454Y-13417D01*
X37391Y-13265D01*
X37275Y-13148D01*
X37122Y-13085D01*
X36957Y-13085D01*
X36805Y-13148D01*
X36688Y-13264D01*
X36625Y-13417D01*
X36625Y-13582D01*
X36688Y-13734D01*
X36804Y-13851D01*
X36957Y-13914D01*
X37122Y-13914D01*
X37274Y-13851D01*
X37391Y-13735D01*
X37454Y-13582D01*
X37454Y-13417D01*
X37454Y-14970D01*
X36454Y-14970D01*
X36454Y-13417D01*
X36391Y-13265D01*
X36275Y-13148D01*
X36122Y-13085D01*
X35957Y-13085D01*
X35805Y-13148D01*
X35688Y-13264D01*
X35625Y-13417D01*
X35625Y-13582D01*
X35688Y-13734D01*
X35804Y-13851D01*
X35957Y-13914D01*
X36122Y-13914D01*
X36274Y-13851D01*
X36391Y-13735D01*
X36454Y-13582D01*
X36454Y-13417D01*
X36454Y-14970D01*
X35454Y-14970D01*
X35454Y-13417D01*
X35391Y-13265D01*
X35275Y-13148D01*
X35122Y-13085D01*
X34957Y-13085D01*
X34805Y-13148D01*
X34688Y-13264D01*
X34625Y-13417D01*
X34625Y-13582D01*
X34688Y-13734D01*
X34804Y-13851D01*
X34957Y-13914D01*
X35122Y-13914D01*
X35274Y-13851D01*
X35391Y-13735D01*
X35454Y-13582D01*
X35454Y-13417D01*
X35454Y-14970D01*
X34454Y-14970D01*
X34454Y-13417D01*
X34391Y-13265D01*
X34275Y-13148D01*
X34122Y-13085D01*
X33957Y-13085D01*
X33805Y-13148D01*
X33688Y-13264D01*
X33625Y-13417D01*
X33625Y-13582D01*
X33688Y-13734D01*
X33804Y-13851D01*
X33957Y-13914D01*
X34122Y-13914D01*
X34274Y-13851D01*
X34391Y-13735D01*
X34454Y-13582D01*
X34454Y-13417D01*
X34454Y-14970D01*
X33454Y-14970D01*
X33454Y-13417D01*
X33391Y-13265D01*
X33275Y-13148D01*
X33122Y-13085D01*
X32957Y-13085D01*
X32805Y-13148D01*
X32688Y-13264D01*
X32669Y-13311D01*
X32669Y-12112D01*
X32669Y-11112D01*
X32602Y-10951D01*
X32479Y-10827D01*
X32317Y-10760D01*
X32142Y-10760D01*
X31981Y-10827D01*
X31857Y-10950D01*
X31790Y-11112D01*
X31790Y-11287D01*
X31857Y-11448D01*
X31980Y-11572D01*
X32142Y-11639D01*
X32317Y-11639D01*
X32478Y-11572D01*
X32602Y-11449D01*
X32669Y-11287D01*
X32669Y-11112D01*
X32669Y-12112D01*
X32602Y-11951D01*
X32479Y-11827D01*
X32317Y-11760D01*
X32142Y-11760D01*
X31981Y-11827D01*
X31857Y-11950D01*
X31790Y-12112D01*
X31790Y-12287D01*
X31857Y-12448D01*
X31980Y-12572D01*
X32142Y-12639D01*
X32317Y-12639D01*
X32478Y-12572D01*
X32602Y-12449D01*
X32669Y-12287D01*
X32669Y-12112D01*
X32669Y-13311D01*
X32625Y-13417D01*
X32625Y-13582D01*
X32688Y-13734D01*
X32804Y-13851D01*
X32957Y-13914D01*
X33122Y-13914D01*
X33274Y-13851D01*
X33391Y-13735D01*
X33454Y-13582D01*
X33454Y-13417D01*
X33454Y-14970D01*
X32468Y-14970D01*
X32454Y-14956D01*
X32454Y-13417D01*
X32391Y-13265D01*
X32275Y-13148D01*
X32122Y-13085D01*
X31957Y-13085D01*
X31805Y-13148D01*
X31775Y-13178D01*
X31775Y-12268D01*
X31760Y-12054D01*
X31707Y-11927D01*
X31616Y-11898D01*
X31531Y-11984D01*
X31531Y-11813D01*
X31502Y-11722D01*
X31298Y-11654D01*
X31084Y-11669D01*
X30957Y-11722D01*
X30928Y-11813D01*
X31230Y-12114D01*
X31531Y-11813D01*
X31531Y-11984D01*
X31315Y-12200D01*
X31616Y-12501D01*
X31707Y-12472D01*
X31775Y-12268D01*
X31775Y-13178D01*
X31688Y-13264D01*
X31625Y-13417D01*
X31625Y-13582D01*
X31688Y-13734D01*
X31804Y-13851D01*
X31957Y-13914D01*
X32122Y-13914D01*
X32274Y-13851D01*
X32391Y-13735D01*
X32454Y-13582D01*
X32454Y-13417D01*
X32454Y-14956D01*
X31531Y-14033D01*
X31531Y-12586D01*
X31230Y-12285D01*
X31144Y-12371D01*
X31144Y-12200D01*
X30843Y-11898D01*
X30752Y-11927D01*
X30684Y-12131D01*
X30699Y-12345D01*
X30752Y-12472D01*
X30843Y-12501D01*
X31144Y-12200D01*
X31144Y-12371D01*
X30928Y-12586D01*
X30957Y-12677D01*
X31161Y-12745D01*
X31375Y-12730D01*
X31502Y-12677D01*
X31531Y-12586D01*
X31531Y-14033D01*
X27933Y-10436D01*
X27877Y-10398D01*
X31727Y-10398D01*
X31716Y-10406D01*
X31716Y-10406D01*
X31348Y-10773D01*
X31317Y-10760D01*
X31142Y-10760D01*
X30981Y-10827D01*
X30857Y-10950D01*
X30790Y-11112D01*
X30790Y-11287D01*
X30857Y-11448D01*
X30980Y-11572D01*
X31142Y-11639D01*
X31317Y-11639D01*
X31478Y-11572D01*
X31602Y-11449D01*
X31669Y-11287D01*
X31669Y-11112D01*
X31633Y-11024D01*
X31928Y-10729D01*
X33975Y-10729D01*
X33970Y-10742D01*
X33970Y-10797D01*
X33970Y-11397D01*
X33991Y-11448D01*
X34030Y-11488D01*
X34082Y-11509D01*
X34137Y-11509D01*
X34937Y-11509D01*
X34988Y-11488D01*
X35028Y-11449D01*
X35049Y-11397D01*
X35049Y-11342D01*
X35049Y-11259D01*
X35761Y-11259D01*
X36030Y-11528D01*
X36010Y-11576D01*
X36010Y-11743D01*
X36074Y-11897D01*
X36192Y-12015D01*
X36346Y-12079D01*
X36513Y-12079D01*
X36667Y-12015D01*
X36785Y-11897D01*
X36849Y-11743D01*
X36849Y-11628D01*
X37448Y-11029D01*
X39820Y-11029D01*
X39820Y-11447D01*
X39841Y-11498D01*
X39880Y-11538D01*
X39932Y-11559D01*
X39987Y-11559D01*
X40787Y-11559D01*
X40789Y-11558D01*
X40854Y-11622D01*
X40942Y-11659D01*
X41037Y-11659D01*
X41269Y-11659D01*
X41329Y-11599D01*
X41329Y-11180D01*
X41321Y-11180D01*
X41321Y-11059D01*
X41329Y-11059D01*
X41329Y-11051D01*
X41450Y-11051D01*
X41450Y-11059D01*
X41458Y-11059D01*
X41458Y-11180D01*
X41450Y-11180D01*
X41450Y-11599D01*
X41510Y-11659D01*
X41742Y-11659D01*
X41837Y-11659D01*
X41885Y-11639D01*
X41885Y-12018D01*
X41869Y-12001D01*
X41817Y-11980D01*
X41762Y-11980D01*
X40962Y-11980D01*
X40911Y-12001D01*
X40874Y-12037D01*
X40839Y-12001D01*
X40787Y-11980D01*
X40732Y-11980D01*
X39932Y-11980D01*
X39881Y-12001D01*
X39841Y-12040D01*
X39820Y-12092D01*
X39820Y-12147D01*
X39820Y-12230D01*
X39458Y-12230D01*
X38849Y-11621D01*
X38849Y-11576D01*
X38785Y-11422D01*
X38667Y-11304D01*
X38513Y-11240D01*
X38346Y-11240D01*
X38192Y-11304D01*
X38074Y-11422D01*
X38010Y-11576D01*
X38010Y-11743D01*
X38074Y-11897D01*
X38192Y-12015D01*
X38346Y-12079D01*
X38513Y-12079D01*
X38667Y-12015D01*
X38687Y-11995D01*
X39246Y-12553D01*
X39246Y-12553D01*
X39307Y-12595D01*
X39307Y-12595D01*
X39365Y-12606D01*
X39379Y-12609D01*
X39379Y-12609D01*
X39380Y-12609D01*
X39820Y-12609D01*
X39820Y-12747D01*
X39841Y-12798D01*
X39880Y-12838D01*
X39932Y-12859D01*
X39987Y-12859D01*
X40787Y-12859D01*
X40838Y-12838D01*
X40875Y-12802D01*
X40910Y-12838D01*
X40962Y-12859D01*
X41017Y-12859D01*
X41817Y-12859D01*
X41868Y-12838D01*
X41908Y-12799D01*
X41929Y-12747D01*
X41929Y-12692D01*
X41929Y-12381D01*
X41941Y-12398D01*
X42641Y-13098D01*
X42641Y-13098D01*
X42702Y-13140D01*
X42702Y-13140D01*
X42760Y-13151D01*
X42774Y-13154D01*
X42774Y-13154D01*
X42775Y-13154D01*
X42799Y-13154D01*
X42688Y-13264D01*
X42625Y-13417D01*
X42625Y-13447D01*
X42543Y-13366D01*
X42482Y-13324D01*
X42410Y-13310D01*
X42391Y-13265D01*
X42275Y-13148D01*
X42122Y-13085D01*
X41957Y-13085D01*
X41805Y-13148D01*
X41688Y-13264D01*
X41625Y-13417D01*
X41625Y-13582D01*
X41688Y-13734D01*
X41804Y-13851D01*
X41957Y-13914D01*
X42122Y-13914D01*
X42274Y-13851D01*
X42384Y-13742D01*
X43426Y-14783D01*
X43426Y-14783D01*
X43487Y-14825D01*
X43487Y-14825D01*
X43545Y-14836D01*
X43559Y-14839D01*
X43559Y-14839D01*
X43560Y-14839D01*
X44241Y-14839D01*
X46756Y-17354D01*
X46756Y-17647D01*
X46756Y-17647D01*
G37*
G54D33*
X46756Y-17647D02*
X46752Y-17650D01*
X46736Y-17688D01*
X46153Y-17106D01*
X46092Y-17064D01*
X46020Y-17050D01*
X44454Y-17050D01*
X44454Y-16417D01*
X44391Y-16265D01*
X44275Y-16148D01*
X44122Y-16085D01*
X43957Y-16085D01*
X43805Y-16148D01*
X43688Y-16264D01*
X43625Y-16417D01*
X43625Y-16582D01*
X43688Y-16734D01*
X43804Y-16851D01*
X43957Y-16914D01*
X44122Y-16914D01*
X44274Y-16851D01*
X44391Y-16735D01*
X44454Y-16582D01*
X44454Y-16417D01*
X44454Y-17050D01*
X43454Y-17050D01*
X43454Y-16417D01*
X43391Y-16265D01*
X43275Y-16148D01*
X43122Y-16085D01*
X42957Y-16085D01*
X42805Y-16148D01*
X42688Y-16264D01*
X42625Y-16417D01*
X42625Y-16582D01*
X42688Y-16734D01*
X42804Y-16851D01*
X42957Y-16914D01*
X43122Y-16914D01*
X43274Y-16851D01*
X43391Y-16735D01*
X43454Y-16582D01*
X43454Y-16417D01*
X43454Y-17050D01*
X42454Y-17050D01*
X42454Y-16417D01*
X42391Y-16265D01*
X42275Y-16148D01*
X42122Y-16085D01*
X41957Y-16085D01*
X41805Y-16148D01*
X41688Y-16264D01*
X41625Y-16417D01*
X41625Y-16582D01*
X41688Y-16734D01*
X41804Y-16851D01*
X41957Y-16914D01*
X42122Y-16914D01*
X42274Y-16851D01*
X42391Y-16735D01*
X42454Y-16582D01*
X42454Y-16417D01*
X42454Y-17050D01*
X40744Y-17050D01*
X40816Y-16978D01*
X40859Y-16873D01*
X40957Y-16914D01*
X41122Y-16914D01*
X41274Y-16851D01*
X41391Y-16735D01*
X41454Y-16582D01*
X41454Y-16417D01*
X41391Y-16265D01*
X41275Y-16148D01*
X41122Y-16085D01*
X40957Y-16085D01*
X40805Y-16148D01*
X40688Y-16264D01*
X40625Y-16417D01*
X40625Y-16490D01*
X40612Y-16485D01*
X40487Y-16485D01*
X40454Y-16499D01*
X40454Y-16417D01*
X40391Y-16265D01*
X40275Y-16148D01*
X40122Y-16085D01*
X39957Y-16085D01*
X39805Y-16148D01*
X39688Y-16264D01*
X39625Y-16417D01*
X39625Y-16582D01*
X39688Y-16734D01*
X39734Y-16780D01*
X39417Y-16780D01*
X39497Y-16757D01*
X39560Y-16562D01*
X39545Y-16358D01*
X39497Y-16242D01*
X39408Y-16216D01*
X39323Y-16302D01*
X39323Y-16131D01*
X39297Y-16042D01*
X39102Y-15979D01*
X38898Y-15994D01*
X38782Y-16042D01*
X38756Y-16131D01*
X39040Y-16414D01*
X39323Y-16131D01*
X39323Y-16302D01*
X39125Y-16500D01*
X39131Y-16505D01*
X39045Y-16591D01*
X39040Y-16585D01*
X39034Y-16591D01*
X38948Y-16505D01*
X38954Y-16500D01*
X38671Y-16216D01*
X38582Y-16242D01*
X38519Y-16437D01*
X38534Y-16641D01*
X38582Y-16757D01*
X38662Y-16780D01*
X38345Y-16780D01*
X38391Y-16735D01*
X38454Y-16582D01*
X38454Y-16417D01*
X38391Y-16265D01*
X38275Y-16148D01*
X38122Y-16085D01*
X37957Y-16085D01*
X37805Y-16148D01*
X37688Y-16264D01*
X37625Y-16417D01*
X37625Y-16582D01*
X37688Y-16734D01*
X37734Y-16780D01*
X37688Y-16780D01*
X37454Y-16546D01*
X37454Y-16417D01*
X37391Y-16265D01*
X37275Y-16148D01*
X37122Y-16085D01*
X36957Y-16085D01*
X36805Y-16148D01*
X36688Y-16264D01*
X36625Y-16417D01*
X36625Y-16507D01*
X36483Y-16366D01*
X36422Y-16324D01*
X36415Y-16323D01*
X36391Y-16265D01*
X36275Y-16148D01*
X36122Y-16085D01*
X35957Y-16085D01*
X35912Y-16104D01*
X35507Y-15699D01*
X43971Y-15699D01*
X44644Y-16372D01*
X44625Y-16417D01*
X44625Y-16582D01*
X44688Y-16734D01*
X44804Y-16851D01*
X44957Y-16914D01*
X45122Y-16914D01*
X45274Y-16851D01*
X45391Y-16735D01*
X45454Y-16582D01*
X45454Y-16417D01*
X45391Y-16265D01*
X45275Y-16148D01*
X45122Y-16085D01*
X44957Y-16085D01*
X44912Y-16104D01*
X44226Y-15418D01*
X44306Y-15338D01*
X44354Y-15222D01*
X44354Y-15097D01*
X44306Y-14982D01*
X44218Y-14893D01*
X44102Y-14845D01*
X43977Y-14845D01*
X43862Y-14893D01*
X43784Y-14970D01*
X41454Y-14970D01*
X41454Y-13417D01*
X41391Y-13265D01*
X41275Y-13148D01*
X41122Y-13085D01*
X40957Y-13085D01*
X40805Y-13148D01*
X40688Y-13264D01*
X40625Y-13417D01*
X40625Y-13582D01*
X40688Y-13734D01*
X40804Y-13851D01*
X40957Y-13914D01*
X41122Y-13914D01*
X41274Y-13851D01*
X41391Y-13735D01*
X41454Y-13582D01*
X41454Y-13417D01*
X41454Y-14970D01*
X40454Y-14970D01*
X40454Y-13417D01*
X40391Y-13265D01*
X40275Y-13148D01*
X40122Y-13085D01*
X39957Y-13085D01*
X39805Y-13148D01*
X39688Y-13264D01*
X39625Y-13417D01*
X39625Y-13582D01*
X39688Y-13734D01*
X39804Y-13851D01*
X39957Y-13914D01*
X40122Y-13914D01*
X40274Y-13851D01*
X40391Y-13735D01*
X40454Y-13582D01*
X40454Y-13417D01*
X40454Y-14970D01*
X39454Y-14970D01*
X39454Y-13417D01*
X39391Y-13265D01*
X39275Y-13148D01*
X39122Y-13085D01*
X38957Y-13085D01*
X38912Y-13104D01*
X38523Y-12716D01*
X38462Y-12674D01*
X38390Y-12660D01*
X35149Y-12660D01*
X35149Y-12022D01*
X35113Y-11934D01*
X35045Y-11867D01*
X34957Y-11830D01*
X34862Y-11830D01*
X34630Y-11830D01*
X34570Y-11890D01*
X34570Y-12309D01*
X35089Y-12309D01*
X35149Y-12249D01*
X35149Y-12022D01*
X35149Y-12660D01*
X35149Y-12660D01*
X35149Y-12490D01*
X35089Y-12430D01*
X34570Y-12430D01*
X34570Y-12438D01*
X34449Y-12438D01*
X34449Y-12430D01*
X34449Y-12309D01*
X34449Y-11890D01*
X34389Y-11830D01*
X34157Y-11830D01*
X34062Y-11830D01*
X33974Y-11867D01*
X33906Y-11934D01*
X33870Y-12022D01*
X33870Y-12249D01*
X33930Y-12309D01*
X34449Y-12309D01*
X34449Y-12430D01*
X33930Y-12430D01*
X33870Y-12490D01*
X33870Y-12542D01*
X33653Y-12325D01*
X33669Y-12287D01*
X33669Y-12112D01*
X33669Y-12112D01*
X33669Y-11472D01*
X33669Y-10872D01*
X33648Y-10821D01*
X33609Y-10781D01*
X33557Y-10760D01*
X33502Y-10760D01*
X32902Y-10760D01*
X32851Y-10781D01*
X32811Y-10820D01*
X32790Y-10872D01*
X32790Y-10927D01*
X32790Y-11527D01*
X32811Y-11578D01*
X32850Y-11618D01*
X32902Y-11639D01*
X32957Y-11639D01*
X33557Y-11639D01*
X33608Y-11618D01*
X33648Y-11579D01*
X33669Y-11527D01*
X33669Y-11472D01*
X33669Y-12112D01*
X33602Y-11951D01*
X33479Y-11827D01*
X33317Y-11760D01*
X33142Y-11760D01*
X32981Y-11827D01*
X32857Y-11950D01*
X32790Y-12112D01*
X32790Y-12287D01*
X32857Y-12448D01*
X32980Y-12572D01*
X33142Y-12639D01*
X33317Y-12639D01*
X33398Y-12606D01*
X33776Y-12983D01*
X33776Y-12983D01*
X33837Y-13025D01*
X33910Y-13039D01*
X37790Y-13039D01*
X37782Y-13042D01*
X37756Y-13131D01*
X38040Y-13414D01*
X38045Y-13408D01*
X38131Y-13494D01*
X38125Y-13500D01*
X38408Y-13783D01*
X38497Y-13757D01*
X38560Y-13562D01*
X38545Y-13358D01*
X38497Y-13242D01*
X38408Y-13216D01*
X38448Y-13176D01*
X38644Y-13372D01*
X38625Y-13417D01*
X38625Y-13582D01*
X38688Y-13734D01*
X38804Y-13851D01*
X38957Y-13914D01*
X39122Y-13914D01*
X39274Y-13851D01*
X39391Y-13735D01*
X39454Y-13582D01*
X39454Y-13417D01*
X39454Y-14970D01*
X38560Y-14970D01*
X38323Y-14970D01*
X38323Y-13868D01*
X38040Y-13585D01*
X37954Y-13671D01*
X37954Y-13500D01*
X37671Y-13216D01*
X37582Y-13242D01*
X37519Y-13437D01*
X37534Y-13641D01*
X37582Y-13757D01*
X37671Y-13783D01*
X37954Y-13500D01*
X37954Y-13671D01*
X37756Y-13868D01*
X37782Y-13957D01*
X37977Y-14020D01*
X38181Y-14005D01*
X38297Y-13957D01*
X38323Y-13868D01*
X38323Y-14970D01*
X37454Y-14970D01*
X37454Y-13417D01*
X37391Y-13265D01*
X37275Y-13148D01*
X37122Y-13085D01*
X36957Y-13085D01*
X36805Y-13148D01*
X36688Y-13264D01*
X36625Y-13417D01*
X36625Y-13582D01*
X36688Y-13734D01*
X36804Y-13851D01*
X36957Y-13914D01*
X37122Y-13914D01*
X37274Y-13851D01*
X37391Y-13735D01*
X37454Y-13582D01*
X37454Y-13417D01*
X37454Y-14970D01*
X36454Y-14970D01*
X36454Y-13417D01*
X36391Y-13265D01*
X36275Y-13148D01*
X36122Y-13085D01*
X35957Y-13085D01*
X35805Y-13148D01*
X35688Y-13264D01*
X35625Y-13417D01*
X35625Y-13582D01*
X35688Y-13734D01*
X35804Y-13851D01*
X35957Y-13914D01*
X36122Y-13914D01*
X36274Y-13851D01*
X36391Y-13735D01*
X36454Y-13582D01*
X36454Y-13417D01*
X36454Y-14970D01*
X35454Y-14970D01*
X35454Y-13417D01*
X35391Y-13265D01*
X35275Y-13148D01*
X35122Y-13085D01*
X34957Y-13085D01*
X34805Y-13148D01*
X34688Y-13264D01*
X34625Y-13417D01*
X34625Y-13582D01*
X34688Y-13734D01*
X34804Y-13851D01*
X34957Y-13914D01*
X35122Y-13914D01*
X35274Y-13851D01*
X35391Y-13735D01*
X35454Y-13582D01*
X35454Y-13417D01*
X35454Y-14970D01*
X34454Y-14970D01*
X34454Y-13417D01*
X34391Y-13265D01*
X34275Y-13148D01*
X34122Y-13085D01*
X33957Y-13085D01*
X33805Y-13148D01*
X33688Y-13264D01*
X33625Y-13417D01*
X33625Y-13582D01*
X33688Y-13734D01*
X33804Y-13851D01*
X33957Y-13914D01*
X34122Y-13914D01*
X34274Y-13851D01*
X34391Y-13735D01*
X34454Y-13582D01*
X34454Y-13417D01*
X34454Y-14970D01*
X33454Y-14970D01*
X33454Y-13417D01*
X33391Y-13265D01*
X33275Y-13148D01*
X33122Y-13085D01*
X32957Y-13085D01*
X32805Y-13148D01*
X32688Y-13264D01*
X32669Y-13311D01*
X32669Y-12112D01*
X32669Y-11112D01*
X32602Y-10951D01*
X32479Y-10827D01*
X32317Y-10760D01*
X32142Y-10760D01*
X31981Y-10827D01*
X31857Y-10950D01*
X31790Y-11112D01*
X31790Y-11287D01*
X31857Y-11448D01*
X31980Y-11572D01*
X32142Y-11639D01*
X32317Y-11639D01*
X32478Y-11572D01*
X32602Y-11449D01*
X32669Y-11287D01*
X32669Y-11112D01*
X32669Y-12112D01*
X32602Y-11951D01*
X32479Y-11827D01*
X32317Y-11760D01*
X32142Y-11760D01*
X31981Y-11827D01*
X31857Y-11950D01*
X31790Y-12112D01*
X31790Y-12287D01*
X31857Y-12448D01*
X31980Y-12572D01*
X32142Y-12639D01*
X32317Y-12639D01*
X32478Y-12572D01*
X32602Y-12449D01*
X32669Y-12287D01*
X32669Y-12112D01*
X32669Y-13311D01*
X32625Y-13417D01*
X32625Y-13582D01*
X32688Y-13734D01*
X32804Y-13851D01*
X32957Y-13914D01*
X33122Y-13914D01*
X33274Y-13851D01*
X33391Y-13735D01*
X33454Y-13582D01*
X33454Y-13417D01*
X33454Y-14970D01*
X32468Y-14970D01*
X32454Y-14956D01*
X32454Y-13417D01*
X32391Y-13265D01*
X32275Y-13148D01*
X32122Y-13085D01*
X31957Y-13085D01*
X31805Y-13148D01*
X31775Y-13178D01*
X31775Y-12268D01*
X31760Y-12054D01*
X31707Y-11927D01*
X31616Y-11898D01*
X31531Y-11984D01*
X31531Y-11813D01*
X31502Y-11722D01*
X31298Y-11654D01*
X31084Y-11669D01*
X30957Y-11722D01*
X30928Y-11813D01*
X31230Y-12114D01*
X31531Y-11813D01*
X31531Y-11984D01*
X31315Y-12200D01*
X31616Y-12501D01*
X31707Y-12472D01*
X31775Y-12268D01*
X31775Y-13178D01*
X31688Y-13264D01*
X31625Y-13417D01*
X31625Y-13582D01*
X31688Y-13734D01*
X31804Y-13851D01*
X31957Y-13914D01*
X32122Y-13914D01*
X32274Y-13851D01*
X32391Y-13735D01*
X32454Y-13582D01*
X32454Y-13417D01*
X32454Y-14956D01*
X31531Y-14033D01*
X31531Y-12586D01*
X31230Y-12285D01*
X31144Y-12371D01*
X31144Y-12200D01*
X30843Y-11898D01*
X30752Y-11927D01*
X30684Y-12131D01*
X30699Y-12345D01*
X30752Y-12472D01*
X30843Y-12501D01*
X31144Y-12200D01*
X31144Y-12371D01*
X30928Y-12586D01*
X30957Y-12677D01*
X31161Y-12745D01*
X31375Y-12730D01*
X31502Y-12677D01*
X31531Y-12586D01*
X31531Y-14033D01*
X27933Y-10436D01*
X27877Y-10398D01*
X31727Y-10398D01*
X31716Y-10406D01*
X31716Y-10406D01*
X31348Y-10773D01*
X31317Y-10760D01*
X31142Y-10760D01*
X30981Y-10827D01*
X30857Y-10950D01*
X30790Y-11112D01*
X30790Y-11287D01*
X30857Y-11448D01*
X30980Y-11572D01*
X31142Y-11639D01*
X31317Y-11639D01*
X31478Y-11572D01*
X31602Y-11449D01*
X31669Y-11287D01*
X31669Y-11112D01*
X31633Y-11024D01*
X31928Y-10729D01*
X33975Y-10729D01*
X33970Y-10742D01*
X33970Y-10797D01*
X33970Y-11397D01*
X33991Y-11448D01*
X34030Y-11488D01*
X34082Y-11509D01*
X34137Y-11509D01*
X34937Y-11509D01*
X34988Y-11488D01*
X35028Y-11449D01*
X35049Y-11397D01*
X35049Y-11342D01*
X35049Y-11259D01*
X35761Y-11259D01*
X36030Y-11528D01*
X36010Y-11576D01*
X36010Y-11743D01*
X36074Y-11897D01*
X36192Y-12015D01*
X36346Y-12079D01*
X36513Y-12079D01*
X36667Y-12015D01*
X36785Y-11897D01*
X36849Y-11743D01*
X36849Y-11628D01*
X37448Y-11029D01*
X39820Y-11029D01*
X39820Y-11447D01*
X39841Y-11498D01*
X39880Y-11538D01*
X39932Y-11559D01*
X39987Y-11559D01*
X40787Y-11559D01*
X40789Y-11558D01*
X40854Y-11622D01*
X40942Y-11659D01*
X41037Y-11659D01*
X41269Y-11659D01*
X41329Y-11599D01*
X41329Y-11180D01*
X41321Y-11180D01*
X41321Y-11059D01*
X41329Y-11059D01*
X41329Y-11051D01*
X41450Y-11051D01*
X41450Y-11059D01*
X41458Y-11059D01*
X41458Y-11180D01*
X41450Y-11180D01*
X41450Y-11599D01*
X41510Y-11659D01*
X41742Y-11659D01*
X41837Y-11659D01*
X41885Y-11639D01*
X41885Y-12018D01*
X41869Y-12001D01*
X41817Y-11980D01*
X41762Y-11980D01*
X40962Y-11980D01*
X40911Y-12001D01*
X40874Y-12037D01*
X40839Y-12001D01*
X40787Y-11980D01*
X40732Y-11980D01*
X39932Y-11980D01*
X39881Y-12001D01*
X39841Y-12040D01*
X39820Y-12092D01*
X39820Y-12147D01*
X39820Y-12230D01*
X39458Y-12230D01*
X38849Y-11621D01*
X38849Y-11576D01*
X38785Y-11422D01*
X38667Y-11304D01*
X38513Y-11240D01*
X38346Y-11240D01*
X38192Y-11304D01*
X38074Y-11422D01*
X38010Y-11576D01*
X38010Y-11743D01*
X38074Y-11897D01*
X38192Y-12015D01*
X38346Y-12079D01*
X38513Y-12079D01*
X38667Y-12015D01*
X38687Y-11995D01*
X39246Y-12553D01*
X39246Y-12553D01*
X39307Y-12595D01*
X39307Y-12595D01*
X39365Y-12606D01*
X39379Y-12609D01*
X39379Y-12609D01*
X39380Y-12609D01*
X39820Y-12609D01*
X39820Y-12747D01*
X39841Y-12798D01*
X39880Y-12838D01*
X39932Y-12859D01*
X39987Y-12859D01*
X40787Y-12859D01*
X40838Y-12838D01*
X40875Y-12802D01*
X40910Y-12838D01*
X40962Y-12859D01*
X41017Y-12859D01*
X41817Y-12859D01*
X41868Y-12838D01*
X41908Y-12799D01*
X41929Y-12747D01*
X41929Y-12692D01*
X41929Y-12381D01*
X41941Y-12398D01*
X42641Y-13098D01*
X42641Y-13098D01*
X42702Y-13140D01*
X42702Y-13140D01*
X42760Y-13151D01*
X42774Y-13154D01*
X42774Y-13154D01*
X42775Y-13154D01*
X42799Y-13154D01*
X42688Y-13264D01*
X42625Y-13417D01*
X42625Y-13447D01*
X42543Y-13366D01*
X42482Y-13324D01*
X42410Y-13310D01*
X42391Y-13265D01*
X42275Y-13148D01*
X42122Y-13085D01*
X41957Y-13085D01*
X41805Y-13148D01*
X41688Y-13264D01*
X41625Y-13417D01*
X41625Y-13582D01*
X41688Y-13734D01*
X41804Y-13851D01*
X41957Y-13914D01*
X42122Y-13914D01*
X42274Y-13851D01*
X42384Y-13742D01*
X43426Y-14783D01*
X43426Y-14783D01*
X43487Y-14825D01*
X43487Y-14825D01*
X43545Y-14836D01*
X43559Y-14839D01*
X43559Y-14839D01*
X43560Y-14839D01*
X44241Y-14839D01*
X46756Y-17354D01*
X46756Y-17647D01*
G54D10*
G36*
X47620Y-25101D02*
X47149Y-25572D01*
X47149Y-25134D01*
X47149Y-24790D01*
X46905Y-24790D01*
X46845Y-24850D01*
X46845Y-24907D01*
X46845Y-25002D01*
X46882Y-25090D01*
X46949Y-25158D01*
X47037Y-25194D01*
X47089Y-25194D01*
X47149Y-25134D01*
X47149Y-25572D01*
X46401Y-26320D01*
X45059Y-26320D01*
X45053Y-26306D01*
X45014Y-26266D01*
X45007Y-26264D01*
X45070Y-26237D01*
X45138Y-26170D01*
X45174Y-26082D01*
X45174Y-25737D01*
X45138Y-25649D01*
X45070Y-25582D01*
X44982Y-25545D01*
X44887Y-25545D01*
X44830Y-25545D01*
X44770Y-25605D01*
X44770Y-25849D01*
X45114Y-25849D01*
X45174Y-25789D01*
X45174Y-25737D01*
X45174Y-26082D01*
X45174Y-26030D01*
X45114Y-25970D01*
X44770Y-25970D01*
X44770Y-25978D01*
X44649Y-25978D01*
X44649Y-25970D01*
X44649Y-25849D01*
X44649Y-25605D01*
X44589Y-25545D01*
X44532Y-25545D01*
X44437Y-25545D01*
X44349Y-25582D01*
X44281Y-25649D01*
X44245Y-25737D01*
X44245Y-25789D01*
X44305Y-25849D01*
X44649Y-25849D01*
X44649Y-25970D01*
X44305Y-25970D01*
X44263Y-26012D01*
X44256Y-25995D01*
X44217Y-25956D01*
X44165Y-25935D01*
X44110Y-25934D01*
X43874Y-25934D01*
X43823Y-25956D01*
X43783Y-25995D01*
X43769Y-26028D01*
X43756Y-25995D01*
X43717Y-25956D01*
X43665Y-25935D01*
X43610Y-25934D01*
X43374Y-25934D01*
X43344Y-25947D01*
X43340Y-25938D01*
X43273Y-25871D01*
X43185Y-25834D01*
X43138Y-25835D01*
X43079Y-25894D01*
X43079Y-26289D01*
X43088Y-26289D01*
X43088Y-26410D01*
X43079Y-26410D01*
X43079Y-26805D01*
X43138Y-26865D01*
X43185Y-26865D01*
X43273Y-26828D01*
X43340Y-26761D01*
X43344Y-26752D01*
X43374Y-26764D01*
X43429Y-26765D01*
X43477Y-26765D01*
X43502Y-26790D01*
X43321Y-26970D01*
X40758Y-26970D01*
X40673Y-26886D01*
X40612Y-26844D01*
X40540Y-26830D01*
X40425Y-26830D01*
X40348Y-26753D01*
X40254Y-26714D01*
X40277Y-26714D01*
X40328Y-26693D01*
X40368Y-26654D01*
X40389Y-26602D01*
X40389Y-26547D01*
X40389Y-26097D01*
X40380Y-26074D01*
X40419Y-26074D01*
X40410Y-26097D01*
X40410Y-26152D01*
X40410Y-26602D01*
X40431Y-26653D01*
X40470Y-26693D01*
X40522Y-26714D01*
X40577Y-26714D01*
X40777Y-26714D01*
X40828Y-26693D01*
X40868Y-26654D01*
X40889Y-26602D01*
X40889Y-26547D01*
X40889Y-26539D01*
X40910Y-26539D01*
X40910Y-26602D01*
X40931Y-26653D01*
X40970Y-26693D01*
X41022Y-26714D01*
X41077Y-26714D01*
X41277Y-26714D01*
X41328Y-26693D01*
X41368Y-26654D01*
X41389Y-26602D01*
X41389Y-26547D01*
X41389Y-26097D01*
X41368Y-26046D01*
X41329Y-26006D01*
X41277Y-25985D01*
X41222Y-25985D01*
X41099Y-25985D01*
X41156Y-25928D01*
X41186Y-25854D01*
X41336Y-26003D01*
X41397Y-26045D01*
X41470Y-26059D01*
X41624Y-26059D01*
X41683Y-26117D01*
X41622Y-26143D01*
X41533Y-26231D01*
X41485Y-26347D01*
X41485Y-26472D01*
X41533Y-26587D01*
X41621Y-26676D01*
X41737Y-26724D01*
X41862Y-26724D01*
X41977Y-26676D01*
X42066Y-26588D01*
X42086Y-26539D01*
X42262Y-26539D01*
X42262Y-26653D01*
X42283Y-26704D01*
X42322Y-26743D01*
X42374Y-26764D01*
X42429Y-26765D01*
X42665Y-26765D01*
X42695Y-26752D01*
X42699Y-26761D01*
X42766Y-26828D01*
X42854Y-26865D01*
X42901Y-26865D01*
X42961Y-26805D01*
X42961Y-26410D01*
X42951Y-26410D01*
X42951Y-26289D01*
X42961Y-26289D01*
X42961Y-25894D01*
X42901Y-25835D01*
X42854Y-25834D01*
X42766Y-25871D01*
X42699Y-25938D01*
X42695Y-25947D01*
X42665Y-25935D01*
X42610Y-25934D01*
X42394Y-25934D01*
X42394Y-24852D01*
X42394Y-24800D01*
X42334Y-24740D01*
X41990Y-24740D01*
X41990Y-24984D01*
X42050Y-25044D01*
X42107Y-25044D01*
X42202Y-25044D01*
X42290Y-25007D01*
X42358Y-24940D01*
X42394Y-24852D01*
X42394Y-25934D01*
X42374Y-25934D01*
X42323Y-25956D01*
X42283Y-25995D01*
X42262Y-26046D01*
X42262Y-26102D01*
X42262Y-26160D01*
X42000Y-26160D01*
X42057Y-26136D01*
X42146Y-26048D01*
X42194Y-25932D01*
X42194Y-25807D01*
X42146Y-25692D01*
X42058Y-25603D01*
X41942Y-25555D01*
X41869Y-25555D01*
X41869Y-24984D01*
X41869Y-24740D01*
X41525Y-24740D01*
X41465Y-24800D01*
X41465Y-24852D01*
X41501Y-24940D01*
X41569Y-25007D01*
X41657Y-25044D01*
X41752Y-25044D01*
X41809Y-25044D01*
X41869Y-24984D01*
X41869Y-25555D01*
X41817Y-25555D01*
X41702Y-25603D01*
X41624Y-25680D01*
X41548Y-25680D01*
X41153Y-25286D01*
X41092Y-25244D01*
X41020Y-25230D01*
X40387Y-25230D01*
X40783Y-24833D01*
X40825Y-24772D01*
X40839Y-24700D01*
X40839Y-24582D01*
X40868Y-24554D01*
X40889Y-24502D01*
X40889Y-24447D01*
X40889Y-24439D01*
X40910Y-24439D01*
X40910Y-24502D01*
X40931Y-24553D01*
X40970Y-24593D01*
X41022Y-24614D01*
X41077Y-24614D01*
X41277Y-24614D01*
X41328Y-24593D01*
X41368Y-24554D01*
X41389Y-24502D01*
X41389Y-24447D01*
X41389Y-23997D01*
X41368Y-23946D01*
X41329Y-23906D01*
X41277Y-23885D01*
X41222Y-23885D01*
X41022Y-23885D01*
X40971Y-23906D01*
X40931Y-23945D01*
X40910Y-23997D01*
X40910Y-24052D01*
X40910Y-24060D01*
X40889Y-24060D01*
X40889Y-23997D01*
X40868Y-23946D01*
X40829Y-23906D01*
X40777Y-23885D01*
X40722Y-23885D01*
X40532Y-23885D01*
X40558Y-23859D01*
X41603Y-23859D01*
X41586Y-23875D01*
X41565Y-23927D01*
X41565Y-23982D01*
X41565Y-24232D01*
X41586Y-24283D01*
X41625Y-24323D01*
X41632Y-24325D01*
X41569Y-24352D01*
X41501Y-24419D01*
X41465Y-24507D01*
X41465Y-24559D01*
X41525Y-24619D01*
X41869Y-24619D01*
X41869Y-24611D01*
X41990Y-24611D01*
X41990Y-24619D01*
X42298Y-24619D01*
X42322Y-24643D01*
X42374Y-24664D01*
X42429Y-24665D01*
X42665Y-24665D01*
X42716Y-24643D01*
X42756Y-24604D01*
X42770Y-24571D01*
X42783Y-24604D01*
X42822Y-24643D01*
X42874Y-24664D01*
X42929Y-24665D01*
X43165Y-24665D01*
X43216Y-24643D01*
X43256Y-24604D01*
X43270Y-24571D01*
X43283Y-24604D01*
X43322Y-24643D01*
X43374Y-24664D01*
X43429Y-24665D01*
X43665Y-24665D01*
X43716Y-24643D01*
X43756Y-24604D01*
X43770Y-24571D01*
X43783Y-24604D01*
X43822Y-24643D01*
X43874Y-24664D01*
X43929Y-24665D01*
X44165Y-24665D01*
X44216Y-24643D01*
X44256Y-24604D01*
X44277Y-24553D01*
X44277Y-24497D01*
X44277Y-23946D01*
X44256Y-23895D01*
X44217Y-23856D01*
X44165Y-23835D01*
X44110Y-23834D01*
X43874Y-23834D01*
X43823Y-23856D01*
X43783Y-23895D01*
X43769Y-23928D01*
X43756Y-23895D01*
X43717Y-23856D01*
X43665Y-23835D01*
X43610Y-23834D01*
X43374Y-23834D01*
X43323Y-23856D01*
X43283Y-23895D01*
X43269Y-23928D01*
X43256Y-23895D01*
X43217Y-23856D01*
X43165Y-23835D01*
X43110Y-23834D01*
X42874Y-23834D01*
X42823Y-23856D01*
X42783Y-23895D01*
X42769Y-23928D01*
X42756Y-23895D01*
X42717Y-23856D01*
X42665Y-23835D01*
X42610Y-23834D01*
X42374Y-23834D01*
X42323Y-23856D01*
X42288Y-23890D01*
X42279Y-23890D01*
X42273Y-23876D01*
X42247Y-23850D01*
X42327Y-23816D01*
X42416Y-23728D01*
X42464Y-23612D01*
X42464Y-23487D01*
X42432Y-23410D01*
X42676Y-23653D01*
X42676Y-23653D01*
X42712Y-23678D01*
X42737Y-23695D01*
X42737Y-23695D01*
X42810Y-23709D01*
X44858Y-23709D01*
X44821Y-23745D01*
X44800Y-23797D01*
X44800Y-23852D01*
X44800Y-24302D01*
X44821Y-24353D01*
X44860Y-24393D01*
X44912Y-24414D01*
X44967Y-24414D01*
X45167Y-24414D01*
X45218Y-24393D01*
X45258Y-24354D01*
X45279Y-24302D01*
X45279Y-24247D01*
X45279Y-23797D01*
X45258Y-23746D01*
X45221Y-23709D01*
X45358Y-23709D01*
X45321Y-23745D01*
X45300Y-23797D01*
X45300Y-23852D01*
X45300Y-24302D01*
X45321Y-24353D01*
X45360Y-24393D01*
X45412Y-24414D01*
X45467Y-24414D01*
X45667Y-24414D01*
X45718Y-24393D01*
X45758Y-24354D01*
X45779Y-24302D01*
X45779Y-24247D01*
X45779Y-23797D01*
X45758Y-23746D01*
X45721Y-23709D01*
X45858Y-23709D01*
X45821Y-23745D01*
X45800Y-23797D01*
X45800Y-23852D01*
X45800Y-24302D01*
X45821Y-24353D01*
X45860Y-24393D01*
X45912Y-24414D01*
X45967Y-24414D01*
X46167Y-24414D01*
X46218Y-24393D01*
X46258Y-24354D01*
X46279Y-24302D01*
X46279Y-24247D01*
X46279Y-23797D01*
X46258Y-23746D01*
X46221Y-23709D01*
X46311Y-23709D01*
X46334Y-23732D01*
X46321Y-23745D01*
X46300Y-23797D01*
X46300Y-23852D01*
X46300Y-24302D01*
X46321Y-24353D01*
X46360Y-24393D01*
X46412Y-24414D01*
X46467Y-24414D01*
X46667Y-24414D01*
X46718Y-24393D01*
X46726Y-24385D01*
X46737Y-24410D01*
X46804Y-24478D01*
X46845Y-24495D01*
X46845Y-24552D01*
X46845Y-24609D01*
X46905Y-24669D01*
X47149Y-24669D01*
X47149Y-24661D01*
X47270Y-24661D01*
X47270Y-24669D01*
X47278Y-24669D01*
X47278Y-24790D01*
X47270Y-24790D01*
X47270Y-25134D01*
X47330Y-25194D01*
X47382Y-25194D01*
X47470Y-25158D01*
X47537Y-25090D01*
X47564Y-25027D01*
X47566Y-25033D01*
X47605Y-25073D01*
X47620Y-25079D01*
X47620Y-25101D01*
X47620Y-25101D01*
G37*
G54D33*
X47620Y-25101D02*
X47149Y-25572D01*
X47149Y-25134D01*
X47149Y-24790D01*
X46905Y-24790D01*
X46845Y-24850D01*
X46845Y-24907D01*
X46845Y-25002D01*
X46882Y-25090D01*
X46949Y-25158D01*
X47037Y-25194D01*
X47089Y-25194D01*
X47149Y-25134D01*
X47149Y-25572D01*
X46401Y-26320D01*
X45059Y-26320D01*
X45053Y-26306D01*
X45014Y-26266D01*
X45007Y-26264D01*
X45070Y-26237D01*
X45138Y-26170D01*
X45174Y-26082D01*
X45174Y-25737D01*
X45138Y-25649D01*
X45070Y-25582D01*
X44982Y-25545D01*
X44887Y-25545D01*
X44830Y-25545D01*
X44770Y-25605D01*
X44770Y-25849D01*
X45114Y-25849D01*
X45174Y-25789D01*
X45174Y-25737D01*
X45174Y-26082D01*
X45174Y-26030D01*
X45114Y-25970D01*
X44770Y-25970D01*
X44770Y-25978D01*
X44649Y-25978D01*
X44649Y-25970D01*
X44649Y-25849D01*
X44649Y-25605D01*
X44589Y-25545D01*
X44532Y-25545D01*
X44437Y-25545D01*
X44349Y-25582D01*
X44281Y-25649D01*
X44245Y-25737D01*
X44245Y-25789D01*
X44305Y-25849D01*
X44649Y-25849D01*
X44649Y-25970D01*
X44305Y-25970D01*
X44263Y-26012D01*
X44256Y-25995D01*
X44217Y-25956D01*
X44165Y-25935D01*
X44110Y-25934D01*
X43874Y-25934D01*
X43823Y-25956D01*
X43783Y-25995D01*
X43769Y-26028D01*
X43756Y-25995D01*
X43717Y-25956D01*
X43665Y-25935D01*
X43610Y-25934D01*
X43374Y-25934D01*
X43344Y-25947D01*
X43340Y-25938D01*
X43273Y-25871D01*
X43185Y-25834D01*
X43138Y-25835D01*
X43079Y-25894D01*
X43079Y-26289D01*
X43088Y-26289D01*
X43088Y-26410D01*
X43079Y-26410D01*
X43079Y-26805D01*
X43138Y-26865D01*
X43185Y-26865D01*
X43273Y-26828D01*
X43340Y-26761D01*
X43344Y-26752D01*
X43374Y-26764D01*
X43429Y-26765D01*
X43477Y-26765D01*
X43502Y-26790D01*
X43321Y-26970D01*
X40758Y-26970D01*
X40673Y-26886D01*
X40612Y-26844D01*
X40540Y-26830D01*
X40425Y-26830D01*
X40348Y-26753D01*
X40254Y-26714D01*
X40277Y-26714D01*
X40328Y-26693D01*
X40368Y-26654D01*
X40389Y-26602D01*
X40389Y-26547D01*
X40389Y-26097D01*
X40380Y-26074D01*
X40419Y-26074D01*
X40410Y-26097D01*
X40410Y-26152D01*
X40410Y-26602D01*
X40431Y-26653D01*
X40470Y-26693D01*
X40522Y-26714D01*
X40577Y-26714D01*
X40777Y-26714D01*
X40828Y-26693D01*
X40868Y-26654D01*
X40889Y-26602D01*
X40889Y-26547D01*
X40889Y-26539D01*
X40910Y-26539D01*
X40910Y-26602D01*
X40931Y-26653D01*
X40970Y-26693D01*
X41022Y-26714D01*
X41077Y-26714D01*
X41277Y-26714D01*
X41328Y-26693D01*
X41368Y-26654D01*
X41389Y-26602D01*
X41389Y-26547D01*
X41389Y-26097D01*
X41368Y-26046D01*
X41329Y-26006D01*
X41277Y-25985D01*
X41222Y-25985D01*
X41099Y-25985D01*
X41156Y-25928D01*
X41186Y-25854D01*
X41336Y-26003D01*
X41397Y-26045D01*
X41470Y-26059D01*
X41624Y-26059D01*
X41683Y-26117D01*
X41622Y-26143D01*
X41533Y-26231D01*
X41485Y-26347D01*
X41485Y-26472D01*
X41533Y-26587D01*
X41621Y-26676D01*
X41737Y-26724D01*
X41862Y-26724D01*
X41977Y-26676D01*
X42066Y-26588D01*
X42086Y-26539D01*
X42262Y-26539D01*
X42262Y-26653D01*
X42283Y-26704D01*
X42322Y-26743D01*
X42374Y-26764D01*
X42429Y-26765D01*
X42665Y-26765D01*
X42695Y-26752D01*
X42699Y-26761D01*
X42766Y-26828D01*
X42854Y-26865D01*
X42901Y-26865D01*
X42961Y-26805D01*
X42961Y-26410D01*
X42951Y-26410D01*
X42951Y-26289D01*
X42961Y-26289D01*
X42961Y-25894D01*
X42901Y-25835D01*
X42854Y-25834D01*
X42766Y-25871D01*
X42699Y-25938D01*
X42695Y-25947D01*
X42665Y-25935D01*
X42610Y-25934D01*
X42394Y-25934D01*
X42394Y-24852D01*
X42394Y-24800D01*
X42334Y-24740D01*
X41990Y-24740D01*
X41990Y-24984D01*
X42050Y-25044D01*
X42107Y-25044D01*
X42202Y-25044D01*
X42290Y-25007D01*
X42358Y-24940D01*
X42394Y-24852D01*
X42394Y-25934D01*
X42374Y-25934D01*
X42323Y-25956D01*
X42283Y-25995D01*
X42262Y-26046D01*
X42262Y-26102D01*
X42262Y-26160D01*
X42000Y-26160D01*
X42057Y-26136D01*
X42146Y-26048D01*
X42194Y-25932D01*
X42194Y-25807D01*
X42146Y-25692D01*
X42058Y-25603D01*
X41942Y-25555D01*
X41869Y-25555D01*
X41869Y-24984D01*
X41869Y-24740D01*
X41525Y-24740D01*
X41465Y-24800D01*
X41465Y-24852D01*
X41501Y-24940D01*
X41569Y-25007D01*
X41657Y-25044D01*
X41752Y-25044D01*
X41809Y-25044D01*
X41869Y-24984D01*
X41869Y-25555D01*
X41817Y-25555D01*
X41702Y-25603D01*
X41624Y-25680D01*
X41548Y-25680D01*
X41153Y-25286D01*
X41092Y-25244D01*
X41020Y-25230D01*
X40387Y-25230D01*
X40783Y-24833D01*
X40825Y-24772D01*
X40839Y-24700D01*
X40839Y-24582D01*
X40868Y-24554D01*
X40889Y-24502D01*
X40889Y-24447D01*
X40889Y-24439D01*
X40910Y-24439D01*
X40910Y-24502D01*
X40931Y-24553D01*
X40970Y-24593D01*
X41022Y-24614D01*
X41077Y-24614D01*
X41277Y-24614D01*
X41328Y-24593D01*
X41368Y-24554D01*
X41389Y-24502D01*
X41389Y-24447D01*
X41389Y-23997D01*
X41368Y-23946D01*
X41329Y-23906D01*
X41277Y-23885D01*
X41222Y-23885D01*
X41022Y-23885D01*
X40971Y-23906D01*
X40931Y-23945D01*
X40910Y-23997D01*
X40910Y-24052D01*
X40910Y-24060D01*
X40889Y-24060D01*
X40889Y-23997D01*
X40868Y-23946D01*
X40829Y-23906D01*
X40777Y-23885D01*
X40722Y-23885D01*
X40532Y-23885D01*
X40558Y-23859D01*
X41603Y-23859D01*
X41586Y-23875D01*
X41565Y-23927D01*
X41565Y-23982D01*
X41565Y-24232D01*
X41586Y-24283D01*
X41625Y-24323D01*
X41632Y-24325D01*
X41569Y-24352D01*
X41501Y-24419D01*
X41465Y-24507D01*
X41465Y-24559D01*
X41525Y-24619D01*
X41869Y-24619D01*
X41869Y-24611D01*
X41990Y-24611D01*
X41990Y-24619D01*
X42298Y-24619D01*
X42322Y-24643D01*
X42374Y-24664D01*
X42429Y-24665D01*
X42665Y-24665D01*
X42716Y-24643D01*
X42756Y-24604D01*
X42770Y-24571D01*
X42783Y-24604D01*
X42822Y-24643D01*
X42874Y-24664D01*
X42929Y-24665D01*
X43165Y-24665D01*
X43216Y-24643D01*
X43256Y-24604D01*
X43270Y-24571D01*
X43283Y-24604D01*
X43322Y-24643D01*
X43374Y-24664D01*
X43429Y-24665D01*
X43665Y-24665D01*
X43716Y-24643D01*
X43756Y-24604D01*
X43770Y-24571D01*
X43783Y-24604D01*
X43822Y-24643D01*
X43874Y-24664D01*
X43929Y-24665D01*
X44165Y-24665D01*
X44216Y-24643D01*
X44256Y-24604D01*
X44277Y-24553D01*
X44277Y-24497D01*
X44277Y-23946D01*
X44256Y-23895D01*
X44217Y-23856D01*
X44165Y-23835D01*
X44110Y-23834D01*
X43874Y-23834D01*
X43823Y-23856D01*
X43783Y-23895D01*
X43769Y-23928D01*
X43756Y-23895D01*
X43717Y-23856D01*
X43665Y-23835D01*
X43610Y-23834D01*
X43374Y-23834D01*
X43323Y-23856D01*
X43283Y-23895D01*
X43269Y-23928D01*
X43256Y-23895D01*
X43217Y-23856D01*
X43165Y-23835D01*
X43110Y-23834D01*
X42874Y-23834D01*
X42823Y-23856D01*
X42783Y-23895D01*
X42769Y-23928D01*
X42756Y-23895D01*
X42717Y-23856D01*
X42665Y-23835D01*
X42610Y-23834D01*
X42374Y-23834D01*
X42323Y-23856D01*
X42288Y-23890D01*
X42279Y-23890D01*
X42273Y-23876D01*
X42247Y-23850D01*
X42327Y-23816D01*
X42416Y-23728D01*
X42464Y-23612D01*
X42464Y-23487D01*
X42432Y-23410D01*
X42676Y-23653D01*
X42676Y-23653D01*
X42712Y-23678D01*
X42737Y-23695D01*
X42737Y-23695D01*
X42810Y-23709D01*
X44858Y-23709D01*
X44821Y-23745D01*
X44800Y-23797D01*
X44800Y-23852D01*
X44800Y-24302D01*
X44821Y-24353D01*
X44860Y-24393D01*
X44912Y-24414D01*
X44967Y-24414D01*
X45167Y-24414D01*
X45218Y-24393D01*
X45258Y-24354D01*
X45279Y-24302D01*
X45279Y-24247D01*
X45279Y-23797D01*
X45258Y-23746D01*
X45221Y-23709D01*
X45358Y-23709D01*
X45321Y-23745D01*
X45300Y-23797D01*
X45300Y-23852D01*
X45300Y-24302D01*
X45321Y-24353D01*
X45360Y-24393D01*
X45412Y-24414D01*
X45467Y-24414D01*
X45667Y-24414D01*
X45718Y-24393D01*
X45758Y-24354D01*
X45779Y-24302D01*
X45779Y-24247D01*
X45779Y-23797D01*
X45758Y-23746D01*
X45721Y-23709D01*
X45858Y-23709D01*
X45821Y-23745D01*
X45800Y-23797D01*
X45800Y-23852D01*
X45800Y-24302D01*
X45821Y-24353D01*
X45860Y-24393D01*
X45912Y-24414D01*
X45967Y-24414D01*
X46167Y-24414D01*
X46218Y-24393D01*
X46258Y-24354D01*
X46279Y-24302D01*
X46279Y-24247D01*
X46279Y-23797D01*
X46258Y-23746D01*
X46221Y-23709D01*
X46311Y-23709D01*
X46334Y-23732D01*
X46321Y-23745D01*
X46300Y-23797D01*
X46300Y-23852D01*
X46300Y-24302D01*
X46321Y-24353D01*
X46360Y-24393D01*
X46412Y-24414D01*
X46467Y-24414D01*
X46667Y-24414D01*
X46718Y-24393D01*
X46726Y-24385D01*
X46737Y-24410D01*
X46804Y-24478D01*
X46845Y-24495D01*
X46845Y-24552D01*
X46845Y-24609D01*
X46905Y-24669D01*
X47149Y-24669D01*
X47149Y-24661D01*
X47270Y-24661D01*
X47270Y-24669D01*
X47278Y-24669D01*
X47278Y-24790D01*
X47270Y-24790D01*
X47270Y-25134D01*
X47330Y-25194D01*
X47382Y-25194D01*
X47470Y-25158D01*
X47537Y-25090D01*
X47564Y-25027D01*
X47566Y-25033D01*
X47605Y-25073D01*
X47620Y-25079D01*
X47620Y-25101D01*
G54D10*
G36*
X48851Y-27751D02*
X38979Y-27751D01*
X38979Y-27414D01*
X38979Y-27070D01*
X38735Y-27070D01*
X38675Y-27130D01*
X38675Y-27187D01*
X38675Y-27282D01*
X38712Y-27370D01*
X38779Y-27438D01*
X38867Y-27474D01*
X38919Y-27474D01*
X38979Y-27414D01*
X38979Y-27751D01*
X29069Y-27751D01*
X29069Y-24744D01*
X29069Y-23839D01*
X29069Y-23744D01*
X29032Y-23656D01*
X28965Y-23588D01*
X28877Y-23552D01*
X28450Y-23552D01*
X28390Y-23612D01*
X28390Y-24231D01*
X29009Y-24231D01*
X29069Y-24171D01*
X29069Y-23839D01*
X29069Y-24744D01*
X29069Y-24412D01*
X29009Y-24352D01*
X28390Y-24352D01*
X28390Y-24971D01*
X28450Y-25031D01*
X28877Y-25031D01*
X28965Y-24995D01*
X29032Y-24927D01*
X29069Y-24839D01*
X29069Y-24744D01*
X29069Y-27751D01*
X28777Y-27751D01*
X28948Y-27580D01*
X29059Y-27312D01*
X29060Y-27022D01*
X28949Y-26753D01*
X28744Y-26548D01*
X28475Y-26436D01*
X28269Y-26436D01*
X28269Y-24971D01*
X28269Y-24352D01*
X28269Y-24231D01*
X28269Y-23612D01*
X28209Y-23552D01*
X27782Y-23552D01*
X27694Y-23588D01*
X27627Y-23656D01*
X27590Y-23744D01*
X27590Y-23839D01*
X27590Y-24171D01*
X27650Y-24231D01*
X28269Y-24231D01*
X28269Y-24352D01*
X27650Y-24352D01*
X27590Y-24412D01*
X27590Y-24744D01*
X27590Y-24839D01*
X27627Y-24927D01*
X27694Y-24995D01*
X27782Y-25031D01*
X28209Y-25031D01*
X28269Y-24971D01*
X28269Y-26436D01*
X28185Y-26436D01*
X27916Y-26547D01*
X27711Y-26752D01*
X27600Y-27020D01*
X27599Y-27311D01*
X27710Y-27579D01*
X27882Y-27751D01*
X27415Y-27751D01*
X27415Y-24744D01*
X27415Y-23839D01*
X27415Y-23744D01*
X27378Y-23656D01*
X27311Y-23588D01*
X27223Y-23552D01*
X26796Y-23552D01*
X26736Y-23612D01*
X26736Y-24231D01*
X27355Y-24231D01*
X27415Y-24171D01*
X27415Y-23839D01*
X27415Y-24744D01*
X27415Y-24412D01*
X27355Y-24352D01*
X26736Y-24352D01*
X26736Y-24971D01*
X26796Y-25031D01*
X27223Y-25031D01*
X27311Y-24995D01*
X27378Y-24927D01*
X27415Y-24839D01*
X27415Y-24744D01*
X27415Y-27751D01*
X26615Y-27751D01*
X26615Y-24971D01*
X26615Y-24352D01*
X26615Y-24231D01*
X26615Y-23612D01*
X26555Y-23552D01*
X26128Y-23552D01*
X26040Y-23588D01*
X25973Y-23656D01*
X25936Y-23744D01*
X25936Y-23839D01*
X25936Y-24171D01*
X25996Y-24231D01*
X26615Y-24231D01*
X26615Y-24352D01*
X25996Y-24352D01*
X25936Y-24412D01*
X25936Y-24744D01*
X25936Y-24839D01*
X25973Y-24927D01*
X26040Y-24995D01*
X26128Y-25031D01*
X26555Y-25031D01*
X26615Y-24971D01*
X26615Y-27751D01*
X25763Y-27751D01*
X25763Y-24744D01*
X25763Y-23839D01*
X25763Y-23744D01*
X25726Y-23656D01*
X25659Y-23588D01*
X25571Y-23552D01*
X25144Y-23552D01*
X25084Y-23612D01*
X25084Y-24231D01*
X25703Y-24231D01*
X25763Y-24171D01*
X25763Y-23839D01*
X25763Y-24744D01*
X25763Y-24412D01*
X25703Y-24352D01*
X25084Y-24352D01*
X25084Y-24971D01*
X25144Y-25031D01*
X25571Y-25031D01*
X25659Y-24995D01*
X25726Y-24927D01*
X25763Y-24839D01*
X25763Y-24744D01*
X25763Y-27751D01*
X24963Y-27751D01*
X24963Y-24971D01*
X24963Y-24352D01*
X24963Y-24231D01*
X24963Y-23612D01*
X24903Y-23552D01*
X24476Y-23552D01*
X24388Y-23588D01*
X24321Y-23656D01*
X24284Y-23744D01*
X24284Y-23839D01*
X24284Y-24171D01*
X24344Y-24231D01*
X24963Y-24231D01*
X24963Y-24352D01*
X24344Y-24352D01*
X24284Y-24412D01*
X24284Y-24744D01*
X24284Y-24839D01*
X24321Y-24927D01*
X24388Y-24995D01*
X24476Y-25031D01*
X24903Y-25031D01*
X24963Y-24971D01*
X24963Y-27751D01*
X24109Y-27751D01*
X24109Y-24744D01*
X24109Y-23839D01*
X24109Y-23744D01*
X24072Y-23656D01*
X24005Y-23588D01*
X23917Y-23552D01*
X23490Y-23552D01*
X23430Y-23612D01*
X23430Y-24231D01*
X24049Y-24231D01*
X24109Y-24171D01*
X24109Y-23839D01*
X24109Y-24744D01*
X24109Y-24412D01*
X24049Y-24352D01*
X23430Y-24352D01*
X23430Y-24971D01*
X23490Y-25031D01*
X23917Y-25031D01*
X24005Y-24995D01*
X24072Y-24927D01*
X24109Y-24839D01*
X24109Y-24744D01*
X24109Y-27751D01*
X23817Y-27751D01*
X23988Y-27580D01*
X24099Y-27312D01*
X24100Y-27022D01*
X23989Y-26753D01*
X23784Y-26548D01*
X23515Y-26436D01*
X23309Y-26436D01*
X23309Y-24971D01*
X23309Y-24352D01*
X23309Y-24231D01*
X23309Y-23612D01*
X23249Y-23552D01*
X22822Y-23552D01*
X22734Y-23588D01*
X22667Y-23656D01*
X22630Y-23744D01*
X22630Y-23839D01*
X22630Y-24171D01*
X22690Y-24231D01*
X23309Y-24231D01*
X23309Y-24352D01*
X22690Y-24352D01*
X22630Y-24412D01*
X22630Y-24744D01*
X22630Y-24839D01*
X22667Y-24927D01*
X22734Y-24995D01*
X22822Y-25031D01*
X23249Y-25031D01*
X23309Y-24971D01*
X23309Y-26436D01*
X23225Y-26436D01*
X22956Y-26547D01*
X22751Y-26752D01*
X22640Y-27020D01*
X22639Y-27311D01*
X22750Y-27579D01*
X22922Y-27751D01*
X20939Y-27751D01*
X20939Y-25803D01*
X20827Y-25531D01*
X20619Y-25323D01*
X20347Y-25210D01*
X20053Y-25210D01*
X19781Y-25322D01*
X19573Y-25530D01*
X19460Y-25802D01*
X19460Y-26096D01*
X19572Y-26368D01*
X19780Y-26576D01*
X20052Y-26689D01*
X20346Y-26689D01*
X20618Y-26577D01*
X20826Y-26369D01*
X20939Y-26097D01*
X20939Y-25803D01*
X20939Y-27751D01*
X12703Y-27751D01*
X12703Y-24007D01*
X12703Y-23820D01*
X12643Y-23760D01*
X12209Y-23760D01*
X12209Y-24234D01*
X12269Y-24294D01*
X12510Y-24294D01*
X12598Y-24257D01*
X12666Y-24190D01*
X12702Y-24102D01*
X12703Y-24007D01*
X12703Y-27751D01*
X12339Y-27751D01*
X12339Y-25803D01*
X12227Y-25531D01*
X12088Y-25392D01*
X12088Y-24234D01*
X12088Y-23760D01*
X11654Y-23760D01*
X11595Y-23820D01*
X11594Y-24007D01*
X11595Y-24102D01*
X11631Y-24190D01*
X11699Y-24257D01*
X11787Y-24294D01*
X12028Y-24294D01*
X12088Y-24234D01*
X12088Y-25392D01*
X12019Y-25323D01*
X11747Y-25210D01*
X11489Y-25210D01*
X11489Y-23052D01*
X11489Y-22252D01*
X11468Y-22201D01*
X11429Y-22161D01*
X11377Y-22140D01*
X11322Y-22140D01*
X10722Y-22140D01*
X10671Y-22161D01*
X10631Y-22200D01*
X10610Y-22252D01*
X10610Y-22307D01*
X10610Y-23107D01*
X10631Y-23158D01*
X10670Y-23198D01*
X10689Y-23205D01*
X10688Y-23205D01*
X10637Y-23227D01*
X10598Y-23266D01*
X10577Y-23317D01*
X10576Y-23373D01*
X10576Y-24082D01*
X10598Y-24133D01*
X10637Y-24172D01*
X10688Y-24193D01*
X10744Y-24194D01*
X11373Y-24194D01*
X11424Y-24172D01*
X11463Y-24133D01*
X11484Y-24082D01*
X11485Y-24026D01*
X11485Y-23317D01*
X11463Y-23266D01*
X11424Y-23227D01*
X11391Y-23213D01*
X11428Y-23198D01*
X11468Y-23159D01*
X11489Y-23107D01*
X11489Y-23052D01*
X11489Y-25210D01*
X11453Y-25210D01*
X11181Y-25322D01*
X10973Y-25530D01*
X10860Y-25802D01*
X10860Y-26096D01*
X10972Y-26368D01*
X11180Y-26576D01*
X11452Y-26689D01*
X11746Y-26689D01*
X12018Y-26577D01*
X12226Y-26369D01*
X12339Y-26097D01*
X12339Y-25803D01*
X12339Y-27751D01*
X9773Y-27751D01*
X9773Y-10398D01*
X14932Y-10398D01*
X14876Y-10436D01*
X14876Y-10436D01*
X14286Y-11026D01*
X14244Y-11087D01*
X14230Y-11160D01*
X14230Y-11208D01*
X14149Y-11127D01*
X13987Y-11060D01*
X13812Y-11060D01*
X13651Y-11127D01*
X13527Y-11250D01*
X13460Y-11412D01*
X13460Y-11587D01*
X13485Y-11646D01*
X12766Y-12366D01*
X12724Y-12427D01*
X12710Y-12500D01*
X12710Y-22154D01*
X12677Y-22140D01*
X12622Y-22140D01*
X12339Y-22140D01*
X12339Y-11653D01*
X12227Y-11381D01*
X12019Y-11173D01*
X11747Y-11060D01*
X11453Y-11060D01*
X11181Y-11172D01*
X10973Y-11380D01*
X10860Y-11652D01*
X10860Y-11946D01*
X10972Y-12218D01*
X11180Y-12426D01*
X11452Y-12539D01*
X11746Y-12539D01*
X12018Y-12427D01*
X12226Y-12219D01*
X12339Y-11947D01*
X12339Y-11653D01*
X12339Y-22140D01*
X12022Y-22140D01*
X11971Y-22161D01*
X11931Y-22200D01*
X11910Y-22252D01*
X11910Y-22307D01*
X11910Y-23105D01*
X11787Y-23105D01*
X11699Y-23142D01*
X11631Y-23209D01*
X11595Y-23297D01*
X11594Y-23392D01*
X11595Y-23579D01*
X11654Y-23639D01*
X12088Y-23639D01*
X12088Y-23631D01*
X12209Y-23631D01*
X12209Y-23639D01*
X12643Y-23639D01*
X12703Y-23579D01*
X12703Y-23392D01*
X12702Y-23297D01*
X12670Y-23219D01*
X12677Y-23219D01*
X12710Y-23205D01*
X12710Y-26300D01*
X12724Y-26372D01*
X12766Y-26433D01*
X13666Y-27333D01*
X13727Y-27375D01*
X13800Y-27389D01*
X16950Y-27389D01*
X17022Y-27375D01*
X17083Y-27333D01*
X17753Y-26664D01*
X17812Y-26689D01*
X17987Y-26689D01*
X18148Y-26622D01*
X18272Y-26499D01*
X18339Y-26337D01*
X18339Y-26188D01*
X22058Y-22468D01*
X22063Y-22463D01*
X22105Y-22402D01*
X22119Y-22330D01*
X22114Y-22304D01*
X22114Y-21993D01*
X22648Y-21459D01*
X24087Y-21459D01*
X24384Y-21756D01*
X24384Y-22655D01*
X24405Y-22706D01*
X24444Y-22746D01*
X24496Y-22767D01*
X24551Y-22767D01*
X25395Y-22767D01*
X25688Y-23060D01*
X24570Y-23060D01*
X24009Y-22499D01*
X24009Y-21600D01*
X23988Y-21549D01*
X23949Y-21509D01*
X23897Y-21488D01*
X23842Y-21488D01*
X22842Y-21488D01*
X22791Y-21509D01*
X22751Y-21548D01*
X22730Y-21600D01*
X22730Y-21655D01*
X22730Y-22655D01*
X22751Y-22706D01*
X22790Y-22746D01*
X22842Y-22767D01*
X22897Y-22767D01*
X23741Y-22767D01*
X24358Y-23383D01*
X24358Y-23383D01*
X24419Y-23425D01*
X24419Y-23425D01*
X24477Y-23436D01*
X24491Y-23439D01*
X24491Y-23439D01*
X24492Y-23439D01*
X29505Y-23439D01*
X29433Y-23511D01*
X29385Y-23627D01*
X29385Y-23752D01*
X29433Y-23867D01*
X29521Y-23956D01*
X29637Y-24004D01*
X29746Y-24004D01*
X30216Y-24473D01*
X30216Y-24473D01*
X30277Y-24515D01*
X30350Y-24529D01*
X31970Y-24529D01*
X31970Y-24667D01*
X31991Y-24718D01*
X32030Y-24758D01*
X32082Y-24779D01*
X32137Y-24779D01*
X32320Y-24779D01*
X32320Y-25560D01*
X32334Y-25632D01*
X32376Y-25693D01*
X33736Y-27053D01*
X33736Y-27053D01*
X33797Y-27095D01*
X33870Y-27109D01*
X36900Y-27109D01*
X36972Y-27095D01*
X37033Y-27053D01*
X37910Y-26177D01*
X37910Y-26411D01*
X37696Y-26625D01*
X37587Y-26625D01*
X37472Y-26673D01*
X37383Y-26761D01*
X37335Y-26877D01*
X37335Y-27002D01*
X37383Y-27117D01*
X37471Y-27206D01*
X37587Y-27254D01*
X37712Y-27254D01*
X37827Y-27206D01*
X37916Y-27118D01*
X37964Y-27002D01*
X37964Y-26893D01*
X38143Y-26714D01*
X38277Y-26714D01*
X38328Y-26693D01*
X38368Y-26654D01*
X38389Y-26602D01*
X38389Y-26547D01*
X38389Y-26539D01*
X38410Y-26539D01*
X38410Y-26602D01*
X38431Y-26653D01*
X38470Y-26693D01*
X38522Y-26714D01*
X38577Y-26714D01*
X38684Y-26714D01*
X38675Y-26737D01*
X38675Y-26832D01*
X38675Y-26889D01*
X38735Y-26949D01*
X38979Y-26949D01*
X38979Y-26941D01*
X39100Y-26941D01*
X39100Y-26949D01*
X39108Y-26949D01*
X39108Y-27070D01*
X39100Y-27070D01*
X39100Y-27414D01*
X39160Y-27474D01*
X39212Y-27474D01*
X39300Y-27438D01*
X39367Y-27370D01*
X39394Y-27307D01*
X39396Y-27313D01*
X39435Y-27353D01*
X39487Y-27374D01*
X39542Y-27374D01*
X39792Y-27374D01*
X39843Y-27353D01*
X39883Y-27314D01*
X39904Y-27262D01*
X39904Y-27207D01*
X39904Y-27199D01*
X39904Y-27199D01*
X39991Y-27286D01*
X40107Y-27334D01*
X40232Y-27334D01*
X40347Y-27286D01*
X40425Y-27209D01*
X40461Y-27209D01*
X40546Y-27293D01*
X40546Y-27293D01*
X40607Y-27335D01*
X40680Y-27349D01*
X43390Y-27349D01*
X43400Y-27349D01*
X43472Y-27335D01*
X43533Y-27293D01*
X43848Y-26979D01*
X44430Y-26979D01*
X44502Y-26965D01*
X44563Y-26923D01*
X44713Y-26774D01*
X44962Y-26774D01*
X45013Y-26753D01*
X45053Y-26714D01*
X45059Y-26699D01*
X46480Y-26699D01*
X46552Y-26685D01*
X46613Y-26643D01*
X47943Y-25313D01*
X47985Y-25252D01*
X47999Y-25180D01*
X47999Y-25079D01*
X48013Y-25073D01*
X48053Y-25034D01*
X48074Y-24982D01*
X48074Y-24927D01*
X48074Y-24477D01*
X48053Y-24426D01*
X48041Y-24414D01*
X48167Y-24414D01*
X48218Y-24393D01*
X48258Y-24354D01*
X48279Y-24302D01*
X48279Y-24247D01*
X48279Y-23797D01*
X48258Y-23746D01*
X48229Y-23717D01*
X48229Y-23038D01*
X48513Y-22753D01*
X48513Y-22753D01*
X48513Y-22753D01*
X48555Y-22692D01*
X48555Y-22692D01*
X48566Y-22634D01*
X48569Y-22620D01*
X48569Y-22620D01*
X48569Y-22620D01*
X48569Y-20346D01*
X48555Y-20273D01*
X48513Y-20212D01*
X47989Y-19687D01*
X48343Y-19334D01*
X48592Y-19334D01*
X48643Y-19313D01*
X48683Y-19274D01*
X48704Y-19222D01*
X48704Y-19167D01*
X48704Y-18917D01*
X48683Y-18866D01*
X48644Y-18826D01*
X48637Y-18824D01*
X48700Y-18797D01*
X48768Y-18730D01*
X48804Y-18642D01*
X48804Y-18297D01*
X48768Y-18209D01*
X48700Y-18142D01*
X48612Y-18105D01*
X48517Y-18105D01*
X48460Y-18105D01*
X48400Y-18165D01*
X48400Y-18409D01*
X48744Y-18409D01*
X48804Y-18349D01*
X48804Y-18297D01*
X48804Y-18642D01*
X48804Y-18590D01*
X48744Y-18530D01*
X48400Y-18530D01*
X48400Y-18538D01*
X48279Y-18538D01*
X48279Y-18530D01*
X48279Y-18409D01*
X48279Y-18165D01*
X48219Y-18105D01*
X48162Y-18105D01*
X48067Y-18105D01*
X48028Y-18121D01*
X48028Y-17777D01*
X48028Y-17682D01*
X47991Y-17594D01*
X47924Y-17526D01*
X47836Y-17490D01*
X47811Y-17490D01*
X47751Y-17550D01*
X47751Y-17919D01*
X47968Y-17919D01*
X48028Y-17859D01*
X48028Y-17777D01*
X48028Y-18121D01*
X48028Y-18121D01*
X48028Y-18100D01*
X47968Y-18040D01*
X47751Y-18040D01*
X47751Y-18409D01*
X47811Y-18469D01*
X47836Y-18469D01*
X47924Y-18433D01*
X47948Y-18409D01*
X48279Y-18409D01*
X48279Y-18530D01*
X47935Y-18530D01*
X47875Y-18590D01*
X47875Y-18642D01*
X47911Y-18730D01*
X47979Y-18797D01*
X48042Y-18824D01*
X48036Y-18826D01*
X47996Y-18865D01*
X47975Y-18917D01*
X47975Y-18972D01*
X47975Y-19166D01*
X47841Y-19300D01*
X47816Y-19290D01*
X47761Y-19290D01*
X47611Y-19290D01*
X47586Y-19300D01*
X47560Y-19290D01*
X47505Y-19290D01*
X47355Y-19290D01*
X47330Y-19300D01*
X47304Y-19290D01*
X47249Y-19290D01*
X47099Y-19290D01*
X47074Y-19300D01*
X47048Y-19290D01*
X46993Y-19290D01*
X46843Y-19290D01*
X46792Y-19311D01*
X46752Y-19350D01*
X46731Y-19402D01*
X46731Y-19457D01*
X46731Y-19957D01*
X46752Y-20008D01*
X46791Y-20048D01*
X46843Y-20069D01*
X46898Y-20069D01*
X47012Y-20069D01*
X47012Y-20572D01*
X47026Y-20644D01*
X47068Y-20705D01*
X47850Y-21488D01*
X47850Y-21607D01*
X47842Y-21589D01*
X47775Y-21521D01*
X47687Y-21485D01*
X47649Y-21485D01*
X47590Y-21545D01*
X47590Y-21889D01*
X47608Y-21889D01*
X47608Y-22010D01*
X47590Y-22010D01*
X47590Y-22354D01*
X47649Y-22414D01*
X47687Y-22414D01*
X47775Y-22378D01*
X47842Y-22310D01*
X47853Y-22285D01*
X47860Y-22293D01*
X47912Y-22314D01*
X47967Y-22314D01*
X48167Y-22314D01*
X48190Y-22305D01*
X48190Y-22541D01*
X47906Y-22826D01*
X47864Y-22887D01*
X47850Y-22960D01*
X47850Y-23717D01*
X47821Y-23745D01*
X47800Y-23797D01*
X47800Y-23852D01*
X47800Y-24021D01*
X47779Y-24042D01*
X47779Y-23797D01*
X47758Y-23746D01*
X47729Y-23717D01*
X47729Y-23690D01*
X47729Y-23689D01*
X47729Y-23689D01*
X47726Y-23675D01*
X47715Y-23617D01*
X47715Y-23617D01*
X47673Y-23556D01*
X47673Y-23556D01*
X47490Y-23372D01*
X47490Y-22354D01*
X47490Y-22010D01*
X47471Y-22010D01*
X47471Y-21889D01*
X47490Y-21889D01*
X47490Y-21545D01*
X47430Y-21485D01*
X47392Y-21485D01*
X47304Y-21521D01*
X47237Y-21589D01*
X47226Y-21614D01*
X47219Y-21606D01*
X47167Y-21585D01*
X47112Y-21585D01*
X46912Y-21585D01*
X46861Y-21606D01*
X46821Y-21645D01*
X46800Y-21697D01*
X46800Y-21752D01*
X46800Y-22202D01*
X46821Y-22253D01*
X46860Y-22293D01*
X46912Y-22314D01*
X46967Y-22314D01*
X47167Y-22314D01*
X47218Y-22293D01*
X47226Y-22285D01*
X47237Y-22310D01*
X47304Y-22378D01*
X47392Y-22414D01*
X47430Y-22414D01*
X47490Y-22354D01*
X47490Y-23372D01*
X46973Y-22856D01*
X46912Y-22814D01*
X46840Y-22800D01*
X46779Y-22800D01*
X46779Y-22147D01*
X46779Y-21697D01*
X46758Y-21646D01*
X46719Y-21606D01*
X46667Y-21585D01*
X46612Y-21585D01*
X46464Y-21585D01*
X46464Y-19888D01*
X46321Y-19543D01*
X46057Y-19278D01*
X45712Y-19135D01*
X45338Y-19135D01*
X44993Y-19278D01*
X44728Y-19542D01*
X44585Y-19887D01*
X44585Y-20261D01*
X44728Y-20606D01*
X44992Y-20871D01*
X45337Y-21014D01*
X45711Y-21014D01*
X46056Y-20871D01*
X46321Y-20607D01*
X46464Y-20262D01*
X46464Y-19888D01*
X46464Y-21585D01*
X46412Y-21585D01*
X46361Y-21606D01*
X46321Y-21645D01*
X46300Y-21697D01*
X46300Y-21752D01*
X46300Y-22202D01*
X46321Y-22253D01*
X46360Y-22293D01*
X46412Y-22314D01*
X46467Y-22314D01*
X46667Y-22314D01*
X46718Y-22293D01*
X46758Y-22254D01*
X46779Y-22202D01*
X46779Y-22147D01*
X46779Y-22800D01*
X46298Y-22800D01*
X46279Y-22781D01*
X46279Y-22147D01*
X46279Y-21697D01*
X46258Y-21646D01*
X46219Y-21606D01*
X46167Y-21585D01*
X46112Y-21585D01*
X45912Y-21585D01*
X45861Y-21606D01*
X45821Y-21645D01*
X45800Y-21697D01*
X45800Y-21752D01*
X45800Y-22202D01*
X45821Y-22253D01*
X45860Y-22293D01*
X45912Y-22314D01*
X45967Y-22314D01*
X46167Y-22314D01*
X46218Y-22293D01*
X46258Y-22254D01*
X46279Y-22202D01*
X46279Y-22147D01*
X46279Y-22781D01*
X45755Y-22257D01*
X45758Y-22254D01*
X45779Y-22202D01*
X45779Y-22147D01*
X45779Y-21697D01*
X45758Y-21646D01*
X45719Y-21606D01*
X45667Y-21585D01*
X45612Y-21585D01*
X45412Y-21585D01*
X45361Y-21606D01*
X45353Y-21614D01*
X45342Y-21589D01*
X45275Y-21521D01*
X45187Y-21485D01*
X45149Y-21485D01*
X45090Y-21545D01*
X45090Y-21889D01*
X45108Y-21889D01*
X45108Y-22010D01*
X45090Y-22010D01*
X45090Y-22354D01*
X45149Y-22414D01*
X45187Y-22414D01*
X45275Y-22378D01*
X45342Y-22310D01*
X45350Y-22292D01*
X45350Y-22310D01*
X45364Y-22382D01*
X45406Y-22443D01*
X46086Y-23123D01*
X46086Y-23123D01*
X46147Y-23165D01*
X46147Y-23165D01*
X46220Y-23179D01*
X46761Y-23179D01*
X47167Y-23585D01*
X47149Y-23585D01*
X47090Y-23645D01*
X47090Y-23989D01*
X47108Y-23989D01*
X47108Y-24110D01*
X47090Y-24110D01*
X47090Y-24118D01*
X46990Y-24118D01*
X46990Y-24110D01*
X46971Y-24110D01*
X46971Y-23989D01*
X46990Y-23989D01*
X46990Y-23645D01*
X46930Y-23585D01*
X46892Y-23585D01*
X46804Y-23621D01*
X46737Y-23689D01*
X46729Y-23707D01*
X46729Y-23670D01*
X46715Y-23597D01*
X46673Y-23536D01*
X46673Y-23536D01*
X46523Y-23386D01*
X46462Y-23344D01*
X46390Y-23330D01*
X44990Y-23330D01*
X44990Y-22354D01*
X44990Y-22010D01*
X44990Y-21889D01*
X44990Y-21545D01*
X44930Y-21485D01*
X44892Y-21485D01*
X44804Y-21521D01*
X44737Y-21589D01*
X44700Y-21677D01*
X44700Y-21772D01*
X44700Y-21829D01*
X44760Y-21889D01*
X44990Y-21889D01*
X44990Y-22010D01*
X44760Y-22010D01*
X44700Y-22070D01*
X44700Y-22127D01*
X44700Y-22222D01*
X44737Y-22310D01*
X44804Y-22378D01*
X44892Y-22414D01*
X44930Y-22414D01*
X44990Y-22354D01*
X44990Y-23330D01*
X43064Y-23330D01*
X43097Y-23316D01*
X43186Y-23228D01*
X43234Y-23112D01*
X43234Y-22987D01*
X43186Y-22872D01*
X43119Y-22804D01*
X43119Y-22784D01*
X43158Y-22768D01*
X43180Y-22747D01*
X43200Y-22768D01*
X43252Y-22789D01*
X43307Y-22789D01*
X43607Y-22789D01*
X43658Y-22768D01*
X43680Y-22747D01*
X43700Y-22768D01*
X43752Y-22789D01*
X43807Y-22789D01*
X44107Y-22789D01*
X44158Y-22768D01*
X44198Y-22729D01*
X44219Y-22677D01*
X44219Y-22622D01*
X44219Y-22122D01*
X44198Y-22071D01*
X44159Y-22031D01*
X44154Y-22029D01*
X44206Y-21978D01*
X44254Y-21862D01*
X44254Y-21737D01*
X44206Y-21622D01*
X44118Y-21533D01*
X44002Y-21485D01*
X43877Y-21485D01*
X43762Y-21533D01*
X43673Y-21621D01*
X43625Y-21737D01*
X43625Y-21862D01*
X43673Y-21977D01*
X43719Y-22024D01*
X43701Y-22031D01*
X43679Y-22052D01*
X43659Y-22031D01*
X43607Y-22010D01*
X43552Y-22010D01*
X43252Y-22010D01*
X43201Y-22031D01*
X43179Y-22052D01*
X43159Y-22031D01*
X43107Y-22010D01*
X43052Y-22010D01*
X42752Y-22010D01*
X42701Y-22031D01*
X42679Y-22052D01*
X42659Y-22031D01*
X42619Y-22015D01*
X42619Y-21890D01*
X42605Y-21817D01*
X42563Y-21756D01*
X42563Y-21756D01*
X42033Y-21226D01*
X41972Y-21184D01*
X41900Y-21170D01*
X39110Y-21170D01*
X39037Y-21184D01*
X38976Y-21226D01*
X38976Y-21226D01*
X38296Y-21906D01*
X38254Y-21967D01*
X38245Y-22013D01*
X38201Y-22031D01*
X38161Y-22070D01*
X38140Y-22122D01*
X38140Y-22177D01*
X38140Y-22210D01*
X38045Y-22210D01*
X38008Y-22173D01*
X37892Y-22125D01*
X37767Y-22125D01*
X37652Y-22173D01*
X37563Y-22261D01*
X37515Y-22377D01*
X37515Y-22502D01*
X37563Y-22617D01*
X37651Y-22706D01*
X37767Y-22754D01*
X37892Y-22754D01*
X38007Y-22706D01*
X38096Y-22618D01*
X38108Y-22589D01*
X38140Y-22589D01*
X38140Y-22677D01*
X38161Y-22728D01*
X38200Y-22768D01*
X38252Y-22789D01*
X38307Y-22789D01*
X38607Y-22789D01*
X38658Y-22768D01*
X38680Y-22747D01*
X38700Y-22768D01*
X38752Y-22789D01*
X38807Y-22789D01*
X39107Y-22789D01*
X39158Y-22768D01*
X39180Y-22747D01*
X39200Y-22768D01*
X39252Y-22789D01*
X39307Y-22789D01*
X39607Y-22789D01*
X39658Y-22768D01*
X39680Y-22747D01*
X39700Y-22768D01*
X39740Y-22784D01*
X39740Y-23131D01*
X39731Y-23141D01*
X39731Y-23141D01*
X39726Y-23146D01*
X39034Y-23837D01*
X39034Y-23557D01*
X38986Y-23442D01*
X38898Y-23353D01*
X38782Y-23305D01*
X38657Y-23305D01*
X38542Y-23353D01*
X38453Y-23441D01*
X38451Y-23446D01*
X38388Y-23383D01*
X38272Y-23335D01*
X38147Y-23335D01*
X38032Y-23383D01*
X37943Y-23471D01*
X37895Y-23587D01*
X37895Y-23712D01*
X37943Y-23827D01*
X37960Y-23845D01*
X37960Y-23917D01*
X37931Y-23945D01*
X37910Y-23997D01*
X37910Y-24052D01*
X37910Y-24502D01*
X37931Y-24553D01*
X37970Y-24593D01*
X38022Y-24614D01*
X38077Y-24614D01*
X38277Y-24614D01*
X38328Y-24593D01*
X38368Y-24554D01*
X38389Y-24502D01*
X38389Y-24447D01*
X38389Y-23997D01*
X38368Y-23946D01*
X38353Y-23931D01*
X38387Y-23916D01*
X38460Y-23844D01*
X38460Y-23917D01*
X38431Y-23945D01*
X38410Y-23997D01*
X38410Y-24052D01*
X38410Y-24502D01*
X38431Y-24553D01*
X38470Y-24593D01*
X38522Y-24614D01*
X38577Y-24614D01*
X38777Y-24614D01*
X38828Y-24593D01*
X38868Y-24554D01*
X38889Y-24502D01*
X38889Y-24447D01*
X38889Y-23997D01*
X38868Y-23946D01*
X38839Y-23917D01*
X38839Y-23910D01*
X38897Y-23886D01*
X38986Y-23798D01*
X39034Y-23682D01*
X39034Y-23557D01*
X39034Y-23837D01*
X39016Y-23856D01*
X38986Y-23900D01*
X38971Y-23906D01*
X38931Y-23945D01*
X38910Y-23997D01*
X38910Y-24052D01*
X38910Y-24502D01*
X38931Y-24553D01*
X38970Y-24593D01*
X39022Y-24614D01*
X39077Y-24614D01*
X39277Y-24614D01*
X39328Y-24593D01*
X39336Y-24585D01*
X39347Y-24610D01*
X39366Y-24630D01*
X38050Y-24630D01*
X37977Y-24644D01*
X37916Y-24686D01*
X37916Y-24686D01*
X37844Y-24757D01*
X37844Y-24697D01*
X37796Y-24582D01*
X37708Y-24493D01*
X37592Y-24445D01*
X37479Y-24445D01*
X37479Y-23977D01*
X37479Y-23622D01*
X37479Y-23527D01*
X37442Y-23439D01*
X37375Y-23371D01*
X37287Y-23335D01*
X37249Y-23335D01*
X37190Y-23395D01*
X37190Y-23739D01*
X37419Y-23739D01*
X37479Y-23679D01*
X37479Y-23622D01*
X37479Y-23977D01*
X37479Y-23920D01*
X37419Y-23860D01*
X37190Y-23860D01*
X37190Y-24204D01*
X37249Y-24264D01*
X37287Y-24264D01*
X37375Y-24228D01*
X37442Y-24160D01*
X37479Y-24072D01*
X37479Y-23977D01*
X37479Y-24445D01*
X37467Y-24445D01*
X37352Y-24493D01*
X37263Y-24581D01*
X37215Y-24697D01*
X37215Y-24806D01*
X36751Y-25270D01*
X36720Y-25270D01*
X35570Y-25270D01*
X35569Y-25270D01*
X35555Y-25273D01*
X35497Y-25284D01*
X35436Y-25326D01*
X35436Y-25326D01*
X35111Y-25650D01*
X34792Y-25650D01*
X34741Y-25671D01*
X34701Y-25710D01*
X34700Y-25715D01*
X34698Y-25711D01*
X34659Y-25671D01*
X34607Y-25650D01*
X34552Y-25650D01*
X33752Y-25650D01*
X33701Y-25671D01*
X33661Y-25710D01*
X33640Y-25762D01*
X33640Y-25817D01*
X33640Y-26417D01*
X33643Y-26425D01*
X32699Y-25481D01*
X32699Y-24779D01*
X32937Y-24779D01*
X32988Y-24758D01*
X33028Y-24719D01*
X33049Y-24667D01*
X33049Y-24612D01*
X33049Y-24012D01*
X33028Y-23961D01*
X32989Y-23921D01*
X32937Y-23900D01*
X32882Y-23900D01*
X32082Y-23900D01*
X32031Y-23921D01*
X31991Y-23960D01*
X31970Y-24012D01*
X31970Y-24067D01*
X31970Y-24150D01*
X30428Y-24150D01*
X30014Y-23736D01*
X30014Y-23627D01*
X29966Y-23512D01*
X29894Y-23439D01*
X30544Y-23439D01*
X30611Y-23506D01*
X30727Y-23554D01*
X30852Y-23554D01*
X30967Y-23506D01*
X31056Y-23418D01*
X31104Y-23302D01*
X31104Y-23177D01*
X31056Y-23062D01*
X30968Y-22973D01*
X30852Y-22925D01*
X30727Y-22925D01*
X30612Y-22973D01*
X30524Y-23060D01*
X30427Y-23060D01*
X30878Y-22609D01*
X31530Y-22609D01*
X32060Y-22609D01*
X32031Y-22621D01*
X31991Y-22660D01*
X31970Y-22712D01*
X31970Y-22767D01*
X31970Y-22850D01*
X31965Y-22850D01*
X31928Y-22813D01*
X31812Y-22765D01*
X31687Y-22765D01*
X31572Y-22813D01*
X31483Y-22901D01*
X31435Y-23017D01*
X31435Y-23142D01*
X31483Y-23257D01*
X31571Y-23346D01*
X31687Y-23394D01*
X31812Y-23394D01*
X31927Y-23346D01*
X31970Y-23304D01*
X31970Y-23367D01*
X31991Y-23418D01*
X32030Y-23458D01*
X32082Y-23479D01*
X32137Y-23479D01*
X32937Y-23479D01*
X32988Y-23458D01*
X33028Y-23419D01*
X33049Y-23368D01*
X33087Y-23384D01*
X33182Y-23384D01*
X33239Y-23384D01*
X33299Y-23324D01*
X33299Y-23080D01*
X33291Y-23080D01*
X33291Y-22959D01*
X33299Y-22959D01*
X33299Y-22951D01*
X33420Y-22951D01*
X33420Y-22959D01*
X33764Y-22959D01*
X33824Y-22899D01*
X33824Y-22847D01*
X33788Y-22759D01*
X33720Y-22692D01*
X33657Y-22665D01*
X33663Y-22663D01*
X33703Y-22624D01*
X33709Y-22609D01*
X34027Y-22609D01*
X34087Y-22634D01*
X34212Y-22634D01*
X34327Y-22586D01*
X34353Y-22560D01*
X34373Y-22607D01*
X34461Y-22696D01*
X34577Y-22744D01*
X34646Y-22744D01*
X34796Y-22893D01*
X34796Y-22893D01*
X34857Y-22935D01*
X34857Y-22935D01*
X34915Y-22946D01*
X34929Y-22949D01*
X34929Y-22949D01*
X34930Y-22949D01*
X35265Y-22949D01*
X35193Y-23021D01*
X35145Y-23137D01*
X35145Y-23246D01*
X35006Y-23386D01*
X34964Y-23447D01*
X34963Y-23455D01*
X34961Y-23456D01*
X34921Y-23495D01*
X34900Y-23547D01*
X34900Y-23602D01*
X34900Y-23610D01*
X34879Y-23610D01*
X34879Y-23547D01*
X34858Y-23496D01*
X34819Y-23456D01*
X34767Y-23435D01*
X34712Y-23435D01*
X34512Y-23435D01*
X34461Y-23456D01*
X34421Y-23495D01*
X34400Y-23547D01*
X34400Y-23602D01*
X34400Y-24052D01*
X34421Y-24103D01*
X34460Y-24143D01*
X34512Y-24164D01*
X34567Y-24164D01*
X34767Y-24164D01*
X34818Y-24143D01*
X34858Y-24104D01*
X34879Y-24052D01*
X34879Y-23997D01*
X34879Y-23989D01*
X34900Y-23989D01*
X34900Y-24052D01*
X34921Y-24103D01*
X34960Y-24143D01*
X35012Y-24164D01*
X35067Y-24164D01*
X35237Y-24164D01*
X35086Y-24316D01*
X35062Y-24350D01*
X34792Y-24350D01*
X34741Y-24371D01*
X34701Y-24410D01*
X34700Y-24415D01*
X34698Y-24411D01*
X34659Y-24371D01*
X34607Y-24350D01*
X34552Y-24350D01*
X34369Y-24350D01*
X34369Y-24076D01*
X34379Y-24052D01*
X34379Y-23997D01*
X34379Y-23547D01*
X34358Y-23496D01*
X34319Y-23456D01*
X34267Y-23435D01*
X34212Y-23435D01*
X34012Y-23435D01*
X33961Y-23456D01*
X33921Y-23495D01*
X33900Y-23547D01*
X33900Y-23602D01*
X33900Y-24052D01*
X33921Y-24103D01*
X33960Y-24143D01*
X33990Y-24155D01*
X33990Y-24350D01*
X33824Y-24350D01*
X33824Y-23192D01*
X33824Y-23140D01*
X33764Y-23080D01*
X33420Y-23080D01*
X33420Y-23324D01*
X33480Y-23384D01*
X33537Y-23384D01*
X33632Y-23384D01*
X33720Y-23347D01*
X33788Y-23280D01*
X33824Y-23192D01*
X33824Y-24350D01*
X33752Y-24350D01*
X33701Y-24371D01*
X33661Y-24410D01*
X33640Y-24462D01*
X33640Y-24517D01*
X33640Y-25117D01*
X33661Y-25168D01*
X33700Y-25208D01*
X33752Y-25229D01*
X33807Y-25229D01*
X34607Y-25229D01*
X34658Y-25208D01*
X34698Y-25169D01*
X34699Y-25164D01*
X34701Y-25168D01*
X34740Y-25208D01*
X34792Y-25229D01*
X34847Y-25229D01*
X35647Y-25229D01*
X35698Y-25208D01*
X35738Y-25169D01*
X35739Y-25164D01*
X35741Y-25168D01*
X35780Y-25208D01*
X35832Y-25229D01*
X35887Y-25229D01*
X36687Y-25229D01*
X36738Y-25208D01*
X36778Y-25169D01*
X36799Y-25117D01*
X36799Y-25062D01*
X36799Y-24462D01*
X36778Y-24411D01*
X36739Y-24371D01*
X36687Y-24350D01*
X36632Y-24350D01*
X36449Y-24350D01*
X36449Y-24131D01*
X36460Y-24143D01*
X36512Y-24164D01*
X36567Y-24164D01*
X36767Y-24164D01*
X36818Y-24143D01*
X36826Y-24135D01*
X36837Y-24160D01*
X36904Y-24228D01*
X36992Y-24264D01*
X37030Y-24264D01*
X37090Y-24204D01*
X37090Y-23860D01*
X37071Y-23860D01*
X37071Y-23739D01*
X37090Y-23739D01*
X37090Y-23395D01*
X37030Y-23335D01*
X36992Y-23335D01*
X36904Y-23371D01*
X36837Y-23439D01*
X36829Y-23457D01*
X36829Y-23180D01*
X36815Y-23107D01*
X36773Y-23046D01*
X36590Y-22862D01*
X36590Y-22104D01*
X36590Y-21760D01*
X36590Y-21639D01*
X36590Y-21295D01*
X36530Y-21235D01*
X36492Y-21235D01*
X36404Y-21271D01*
X36390Y-21286D01*
X36375Y-21271D01*
X36287Y-21235D01*
X36249Y-21235D01*
X36190Y-21295D01*
X36190Y-21639D01*
X36360Y-21639D01*
X36419Y-21639D01*
X36590Y-21639D01*
X36590Y-21760D01*
X36419Y-21760D01*
X36360Y-21760D01*
X36190Y-21760D01*
X36190Y-22104D01*
X36249Y-22164D01*
X36287Y-22164D01*
X36375Y-22128D01*
X36390Y-22113D01*
X36404Y-22128D01*
X36492Y-22164D01*
X36530Y-22164D01*
X36590Y-22104D01*
X36590Y-22862D01*
X36353Y-22626D01*
X36292Y-22584D01*
X36220Y-22570D01*
X35324Y-22570D01*
X35396Y-22498D01*
X35444Y-22382D01*
X35444Y-22257D01*
X35396Y-22142D01*
X35329Y-22074D01*
X35329Y-22032D01*
X35358Y-22004D01*
X35379Y-21952D01*
X35379Y-21897D01*
X35379Y-21457D01*
X35400Y-21478D01*
X35400Y-21502D01*
X35400Y-21952D01*
X35421Y-22003D01*
X35460Y-22043D01*
X35512Y-22064D01*
X35567Y-22064D01*
X35767Y-22064D01*
X35818Y-22043D01*
X35826Y-22035D01*
X35837Y-22060D01*
X35904Y-22128D01*
X35992Y-22164D01*
X36030Y-22164D01*
X36090Y-22104D01*
X36090Y-21760D01*
X36071Y-21760D01*
X36071Y-21639D01*
X36090Y-21639D01*
X36090Y-21295D01*
X36030Y-21235D01*
X35992Y-21235D01*
X35904Y-21271D01*
X35837Y-21339D01*
X35826Y-21364D01*
X35819Y-21356D01*
X35794Y-21346D01*
X35794Y-21346D01*
X35773Y-21316D01*
X35773Y-21316D01*
X35473Y-21016D01*
X35412Y-20974D01*
X35385Y-20969D01*
X35627Y-20969D01*
X35678Y-20948D01*
X35710Y-20917D01*
X35740Y-20948D01*
X35792Y-20969D01*
X35847Y-20969D01*
X36447Y-20969D01*
X36498Y-20948D01*
X36538Y-20909D01*
X36559Y-20857D01*
X36559Y-20802D01*
X36559Y-20008D01*
X36578Y-19989D01*
X36985Y-19989D01*
X36980Y-20002D01*
X36980Y-20057D01*
X36980Y-20614D01*
X36964Y-20637D01*
X36950Y-20710D01*
X36950Y-21357D01*
X36942Y-21339D01*
X36875Y-21271D01*
X36787Y-21235D01*
X36749Y-21235D01*
X36690Y-21295D01*
X36690Y-21639D01*
X36708Y-21639D01*
X36708Y-21760D01*
X36690Y-21760D01*
X36690Y-22104D01*
X36749Y-22164D01*
X36787Y-22164D01*
X36875Y-22128D01*
X36942Y-22060D01*
X36953Y-22035D01*
X36960Y-22043D01*
X37012Y-22064D01*
X37067Y-22064D01*
X37267Y-22064D01*
X37318Y-22043D01*
X37358Y-22004D01*
X37379Y-21952D01*
X37379Y-21897D01*
X37379Y-21447D01*
X37358Y-21396D01*
X37329Y-21367D01*
X37329Y-20969D01*
X37747Y-20969D01*
X37798Y-20948D01*
X37838Y-20909D01*
X37859Y-20857D01*
X37859Y-20802D01*
X37859Y-20002D01*
X37854Y-19989D01*
X38861Y-19989D01*
X39105Y-20233D01*
X39105Y-20342D01*
X39153Y-20457D01*
X39241Y-20546D01*
X39357Y-20594D01*
X39482Y-20594D01*
X39597Y-20546D01*
X39686Y-20458D01*
X39734Y-20342D01*
X39734Y-20217D01*
X39731Y-20209D01*
X43500Y-20209D01*
X43572Y-20195D01*
X43633Y-20153D01*
X44063Y-19723D01*
X44105Y-19662D01*
X44119Y-19590D01*
X44119Y-18984D01*
X44158Y-18968D01*
X44198Y-18929D01*
X44219Y-18877D01*
X44219Y-18822D01*
X44219Y-18322D01*
X44198Y-18271D01*
X44159Y-18231D01*
X44107Y-18210D01*
X44052Y-18210D01*
X43752Y-18210D01*
X43701Y-18231D01*
X43679Y-18252D01*
X43659Y-18231D01*
X43607Y-18210D01*
X43552Y-18210D01*
X43252Y-18210D01*
X43201Y-18231D01*
X43179Y-18252D01*
X43159Y-18231D01*
X43107Y-18210D01*
X43052Y-18210D01*
X42779Y-18210D01*
X42715Y-18146D01*
X42627Y-18110D01*
X42550Y-18110D01*
X42490Y-18170D01*
X42490Y-18539D01*
X42498Y-18539D01*
X42498Y-18660D01*
X42490Y-18660D01*
X42490Y-19029D01*
X42550Y-19089D01*
X42627Y-19089D01*
X42715Y-19053D01*
X42740Y-19028D01*
X42740Y-19051D01*
X42371Y-19420D01*
X42174Y-19420D01*
X42196Y-19398D01*
X42244Y-19282D01*
X42244Y-19157D01*
X42213Y-19081D01*
X42232Y-19089D01*
X42309Y-19089D01*
X42369Y-19029D01*
X42369Y-18660D01*
X42361Y-18660D01*
X42361Y-18539D01*
X42369Y-18539D01*
X42369Y-18317D01*
X42404Y-18232D01*
X42404Y-18137D01*
X42404Y-18080D01*
X42344Y-18020D01*
X42100Y-18020D01*
X42100Y-18028D01*
X41979Y-18028D01*
X41979Y-18020D01*
X41971Y-18020D01*
X41971Y-17899D01*
X41979Y-17899D01*
X41979Y-17891D01*
X42100Y-17891D01*
X42100Y-17899D01*
X42344Y-17899D01*
X42404Y-17839D01*
X42404Y-17782D01*
X42404Y-17769D01*
X45861Y-17769D01*
X46210Y-18118D01*
X46210Y-18380D01*
X46224Y-18452D01*
X46266Y-18513D01*
X46566Y-18813D01*
X46566Y-18813D01*
X46627Y-18855D01*
X46627Y-18855D01*
X46685Y-18866D01*
X46699Y-18869D01*
X46699Y-18869D01*
X46700Y-18869D01*
X47180Y-18869D01*
X47252Y-18855D01*
X47313Y-18813D01*
X47591Y-18535D01*
X47591Y-18535D01*
X47591Y-18535D01*
X47633Y-18474D01*
X47638Y-18447D01*
X47676Y-18409D01*
X47676Y-18040D01*
X47672Y-18040D01*
X47672Y-17919D01*
X47676Y-17919D01*
X47676Y-17550D01*
X47616Y-17490D01*
X47591Y-17490D01*
X47503Y-17526D01*
X47439Y-17590D01*
X47355Y-17590D01*
X47330Y-17600D01*
X47304Y-17590D01*
X47249Y-17590D01*
X47135Y-17590D01*
X47135Y-17276D01*
X47121Y-17203D01*
X47079Y-17142D01*
X46974Y-17036D01*
X46974Y-15913D01*
X46974Y-13551D01*
X46959Y-13347D01*
X46911Y-13231D01*
X46822Y-13205D01*
X46539Y-13489D01*
X46822Y-13772D01*
X46911Y-13746D01*
X46974Y-13551D01*
X46974Y-15913D01*
X46959Y-15709D01*
X46911Y-15593D01*
X46822Y-15567D01*
X46737Y-15653D01*
X46737Y-15482D01*
X46737Y-13857D01*
X46454Y-13574D01*
X46368Y-13660D01*
X46170Y-13857D01*
X46196Y-13946D01*
X46391Y-14009D01*
X46595Y-13994D01*
X46711Y-13946D01*
X46737Y-13857D01*
X46737Y-15482D01*
X46711Y-15393D01*
X46516Y-15330D01*
X46312Y-15345D01*
X46196Y-15393D01*
X46170Y-15482D01*
X46454Y-15765D01*
X46737Y-15482D01*
X46737Y-15653D01*
X46539Y-15851D01*
X46822Y-16134D01*
X46911Y-16108D01*
X46974Y-15913D01*
X46974Y-17036D01*
X46270Y-16332D01*
X46391Y-16371D01*
X46595Y-16356D01*
X46711Y-16308D01*
X46737Y-16219D01*
X46454Y-15936D01*
X46448Y-15942D01*
X46362Y-15856D01*
X46368Y-15851D01*
X46085Y-15567D01*
X45996Y-15593D01*
X45933Y-15788D01*
X45948Y-15992D01*
X45961Y-16023D01*
X44453Y-14516D01*
X44392Y-14474D01*
X44320Y-14460D01*
X43638Y-14460D01*
X43092Y-13914D01*
X43122Y-13914D01*
X43274Y-13851D01*
X43391Y-13735D01*
X43454Y-13582D01*
X43454Y-13417D01*
X43391Y-13265D01*
X43280Y-13154D01*
X43799Y-13154D01*
X43688Y-13264D01*
X43625Y-13417D01*
X43625Y-13582D01*
X43688Y-13734D01*
X43804Y-13851D01*
X43957Y-13914D01*
X44122Y-13914D01*
X44274Y-13851D01*
X44391Y-13735D01*
X44454Y-13582D01*
X44454Y-13417D01*
X44391Y-13265D01*
X44280Y-13154D01*
X44426Y-13154D01*
X44625Y-13353D01*
X44625Y-13802D01*
X44646Y-13853D01*
X44685Y-13893D01*
X44737Y-13914D01*
X44792Y-13914D01*
X45342Y-13914D01*
X45393Y-13893D01*
X45433Y-13854D01*
X45454Y-13802D01*
X45454Y-13747D01*
X45454Y-13353D01*
X45688Y-13119D01*
X46082Y-13119D01*
X46040Y-13161D01*
X46085Y-13205D01*
X45996Y-13231D01*
X45933Y-13426D01*
X45948Y-13630D01*
X45996Y-13746D01*
X46085Y-13772D01*
X46368Y-13489D01*
X46362Y-13483D01*
X46448Y-13397D01*
X46454Y-13403D01*
X46737Y-13120D01*
X46711Y-13031D01*
X46703Y-13029D01*
X47002Y-12730D01*
X47040Y-12768D01*
X47092Y-12789D01*
X47147Y-12789D01*
X47267Y-12789D01*
X47286Y-12816D01*
X47830Y-13361D01*
X47811Y-13406D01*
X47811Y-13571D01*
X47874Y-13723D01*
X47990Y-13840D01*
X48036Y-13859D01*
X48036Y-15480D01*
X47991Y-15499D01*
X47874Y-15615D01*
X47811Y-15768D01*
X47811Y-15933D01*
X47874Y-16085D01*
X47990Y-16202D01*
X48143Y-16265D01*
X48308Y-16265D01*
X48460Y-16202D01*
X48577Y-16086D01*
X48640Y-15933D01*
X48640Y-15768D01*
X48577Y-15616D01*
X48461Y-15499D01*
X48415Y-15480D01*
X48415Y-13859D01*
X48460Y-13840D01*
X48577Y-13724D01*
X48640Y-13571D01*
X48640Y-13406D01*
X48577Y-13254D01*
X48461Y-13137D01*
X48308Y-13074D01*
X48143Y-13074D01*
X48098Y-13093D01*
X47780Y-12775D01*
X47798Y-12768D01*
X47838Y-12729D01*
X47842Y-12719D01*
X47870Y-12719D01*
X47876Y-12733D01*
X47915Y-12773D01*
X47967Y-12794D01*
X48022Y-12794D01*
X48472Y-12794D01*
X48523Y-12773D01*
X48563Y-12734D01*
X48584Y-12682D01*
X48584Y-12627D01*
X48584Y-12377D01*
X48563Y-12326D01*
X48524Y-12286D01*
X48472Y-12265D01*
X48417Y-12265D01*
X47967Y-12265D01*
X47916Y-12286D01*
X47876Y-12325D01*
X47870Y-12340D01*
X47859Y-12340D01*
X47859Y-12092D01*
X47876Y-12133D01*
X47915Y-12173D01*
X47967Y-12194D01*
X48022Y-12194D01*
X48472Y-12194D01*
X48523Y-12173D01*
X48563Y-12134D01*
X48584Y-12082D01*
X48584Y-12027D01*
X48584Y-11777D01*
X48563Y-11726D01*
X48524Y-11686D01*
X48472Y-11665D01*
X48417Y-11665D01*
X48409Y-11665D01*
X48409Y-11377D01*
X48468Y-11352D01*
X48592Y-11229D01*
X48659Y-11067D01*
X48659Y-10892D01*
X48592Y-10731D01*
X48469Y-10607D01*
X48307Y-10540D01*
X48132Y-10540D01*
X47971Y-10607D01*
X47847Y-10730D01*
X47780Y-10892D01*
X47780Y-11067D01*
X47847Y-11228D01*
X47970Y-11352D01*
X48030Y-11377D01*
X48030Y-11665D01*
X47967Y-11665D01*
X47916Y-11686D01*
X47876Y-11725D01*
X47855Y-11777D01*
X47855Y-11812D01*
X47838Y-11771D01*
X47799Y-11731D01*
X47747Y-11710D01*
X47692Y-11710D01*
X47659Y-11710D01*
X47659Y-10892D01*
X47592Y-10731D01*
X47469Y-10607D01*
X47307Y-10540D01*
X47132Y-10540D01*
X46971Y-10607D01*
X46847Y-10730D01*
X46780Y-10892D01*
X46780Y-11067D01*
X46847Y-11228D01*
X46970Y-11352D01*
X47132Y-11419D01*
X47307Y-11419D01*
X47468Y-11352D01*
X47592Y-11229D01*
X47659Y-11067D01*
X47659Y-10892D01*
X47659Y-11710D01*
X47092Y-11710D01*
X47041Y-11731D01*
X47001Y-11770D01*
X46980Y-11822D01*
X46980Y-11877D01*
X46980Y-12216D01*
X46659Y-12537D01*
X46659Y-10892D01*
X46592Y-10731D01*
X46469Y-10607D01*
X46307Y-10540D01*
X46132Y-10540D01*
X45971Y-10607D01*
X45847Y-10730D01*
X45780Y-10892D01*
X45780Y-11067D01*
X45847Y-11228D01*
X45970Y-11352D01*
X46132Y-11419D01*
X46307Y-11419D01*
X46468Y-11352D01*
X46592Y-11229D01*
X46659Y-11067D01*
X46659Y-10892D01*
X46659Y-12537D01*
X46559Y-12637D01*
X46559Y-12622D01*
X46559Y-11822D01*
X46538Y-11771D01*
X46499Y-11731D01*
X46447Y-11710D01*
X46392Y-11710D01*
X45848Y-11710D01*
X45583Y-11446D01*
X45522Y-11404D01*
X45450Y-11390D01*
X45377Y-11390D01*
X45468Y-11352D01*
X45592Y-11229D01*
X45659Y-11067D01*
X45659Y-10892D01*
X45592Y-10731D01*
X45469Y-10607D01*
X45307Y-10540D01*
X45132Y-10540D01*
X44971Y-10607D01*
X44847Y-10730D01*
X44780Y-10892D01*
X44780Y-11067D01*
X44847Y-11228D01*
X44970Y-11352D01*
X45062Y-11390D01*
X44377Y-11390D01*
X44468Y-11352D01*
X44592Y-11229D01*
X44659Y-11067D01*
X44659Y-10892D01*
X44592Y-10731D01*
X44469Y-10607D01*
X44307Y-10540D01*
X44132Y-10540D01*
X43971Y-10607D01*
X43847Y-10730D01*
X43780Y-10892D01*
X43780Y-11067D01*
X43847Y-11228D01*
X43970Y-11352D01*
X44062Y-11390D01*
X44010Y-11390D01*
X43937Y-11404D01*
X43876Y-11446D01*
X43759Y-11562D01*
X43759Y-11232D01*
X43759Y-10727D01*
X43759Y-10632D01*
X43722Y-10544D01*
X43655Y-10476D01*
X43567Y-10440D01*
X43340Y-10440D01*
X43280Y-10500D01*
X43280Y-10919D01*
X43699Y-10919D01*
X43759Y-10859D01*
X43759Y-10727D01*
X43759Y-11232D01*
X43759Y-11100D01*
X43699Y-11040D01*
X43280Y-11040D01*
X43280Y-11459D01*
X43340Y-11519D01*
X43567Y-11519D01*
X43655Y-11483D01*
X43722Y-11415D01*
X43759Y-11327D01*
X43759Y-11232D01*
X43759Y-11562D01*
X43281Y-12040D01*
X43159Y-12040D01*
X43159Y-11459D01*
X43159Y-11040D01*
X43159Y-10919D01*
X43159Y-10500D01*
X43099Y-10440D01*
X42872Y-10440D01*
X42784Y-10476D01*
X42717Y-10544D01*
X42680Y-10632D01*
X42680Y-10727D01*
X42680Y-10859D01*
X42740Y-10919D01*
X43159Y-10919D01*
X43159Y-11040D01*
X42740Y-11040D01*
X42680Y-11100D01*
X42680Y-11232D01*
X42680Y-11327D01*
X42717Y-11415D01*
X42784Y-11483D01*
X42872Y-11519D01*
X43099Y-11519D01*
X43159Y-11459D01*
X43159Y-12040D01*
X42782Y-12040D01*
X42731Y-12061D01*
X42691Y-12100D01*
X42670Y-12152D01*
X42670Y-12207D01*
X42670Y-12592D01*
X42264Y-12186D01*
X42264Y-10865D01*
X42269Y-10840D01*
X42255Y-10767D01*
X42213Y-10706D01*
X42208Y-10701D01*
X41913Y-10406D01*
X41902Y-10398D01*
X48851Y-10398D01*
X48851Y-27751D01*
X48851Y-27751D01*
G37*
G54D33*
X48851Y-27751D02*
X38979Y-27751D01*
X38979Y-27414D01*
X38979Y-27070D01*
X38735Y-27070D01*
X38675Y-27130D01*
X38675Y-27187D01*
X38675Y-27282D01*
X38712Y-27370D01*
X38779Y-27438D01*
X38867Y-27474D01*
X38919Y-27474D01*
X38979Y-27414D01*
X38979Y-27751D01*
X29069Y-27751D01*
X29069Y-24744D01*
X29069Y-23839D01*
X29069Y-23744D01*
X29032Y-23656D01*
X28965Y-23588D01*
X28877Y-23552D01*
X28450Y-23552D01*
X28390Y-23612D01*
X28390Y-24231D01*
X29009Y-24231D01*
X29069Y-24171D01*
X29069Y-23839D01*
X29069Y-24744D01*
X29069Y-24412D01*
X29009Y-24352D01*
X28390Y-24352D01*
X28390Y-24971D01*
X28450Y-25031D01*
X28877Y-25031D01*
X28965Y-24995D01*
X29032Y-24927D01*
X29069Y-24839D01*
X29069Y-24744D01*
X29069Y-27751D01*
X28777Y-27751D01*
X28948Y-27580D01*
X29059Y-27312D01*
X29060Y-27022D01*
X28949Y-26753D01*
X28744Y-26548D01*
X28475Y-26436D01*
X28269Y-26436D01*
X28269Y-24971D01*
X28269Y-24352D01*
X28269Y-24231D01*
X28269Y-23612D01*
X28209Y-23552D01*
X27782Y-23552D01*
X27694Y-23588D01*
X27627Y-23656D01*
X27590Y-23744D01*
X27590Y-23839D01*
X27590Y-24171D01*
X27650Y-24231D01*
X28269Y-24231D01*
X28269Y-24352D01*
X27650Y-24352D01*
X27590Y-24412D01*
X27590Y-24744D01*
X27590Y-24839D01*
X27627Y-24927D01*
X27694Y-24995D01*
X27782Y-25031D01*
X28209Y-25031D01*
X28269Y-24971D01*
X28269Y-26436D01*
X28185Y-26436D01*
X27916Y-26547D01*
X27711Y-26752D01*
X27600Y-27020D01*
X27599Y-27311D01*
X27710Y-27579D01*
X27882Y-27751D01*
X27415Y-27751D01*
X27415Y-24744D01*
X27415Y-23839D01*
X27415Y-23744D01*
X27378Y-23656D01*
X27311Y-23588D01*
X27223Y-23552D01*
X26796Y-23552D01*
X26736Y-23612D01*
X26736Y-24231D01*
X27355Y-24231D01*
X27415Y-24171D01*
X27415Y-23839D01*
X27415Y-24744D01*
X27415Y-24412D01*
X27355Y-24352D01*
X26736Y-24352D01*
X26736Y-24971D01*
X26796Y-25031D01*
X27223Y-25031D01*
X27311Y-24995D01*
X27378Y-24927D01*
X27415Y-24839D01*
X27415Y-24744D01*
X27415Y-27751D01*
X26615Y-27751D01*
X26615Y-24971D01*
X26615Y-24352D01*
X26615Y-24231D01*
X26615Y-23612D01*
X26555Y-23552D01*
X26128Y-23552D01*
X26040Y-23588D01*
X25973Y-23656D01*
X25936Y-23744D01*
X25936Y-23839D01*
X25936Y-24171D01*
X25996Y-24231D01*
X26615Y-24231D01*
X26615Y-24352D01*
X25996Y-24352D01*
X25936Y-24412D01*
X25936Y-24744D01*
X25936Y-24839D01*
X25973Y-24927D01*
X26040Y-24995D01*
X26128Y-25031D01*
X26555Y-25031D01*
X26615Y-24971D01*
X26615Y-27751D01*
X25763Y-27751D01*
X25763Y-24744D01*
X25763Y-23839D01*
X25763Y-23744D01*
X25726Y-23656D01*
X25659Y-23588D01*
X25571Y-23552D01*
X25144Y-23552D01*
X25084Y-23612D01*
X25084Y-24231D01*
X25703Y-24231D01*
X25763Y-24171D01*
X25763Y-23839D01*
X25763Y-24744D01*
X25763Y-24412D01*
X25703Y-24352D01*
X25084Y-24352D01*
X25084Y-24971D01*
X25144Y-25031D01*
X25571Y-25031D01*
X25659Y-24995D01*
X25726Y-24927D01*
X25763Y-24839D01*
X25763Y-24744D01*
X25763Y-27751D01*
X24963Y-27751D01*
X24963Y-24971D01*
X24963Y-24352D01*
X24963Y-24231D01*
X24963Y-23612D01*
X24903Y-23552D01*
X24476Y-23552D01*
X24388Y-23588D01*
X24321Y-23656D01*
X24284Y-23744D01*
X24284Y-23839D01*
X24284Y-24171D01*
X24344Y-24231D01*
X24963Y-24231D01*
X24963Y-24352D01*
X24344Y-24352D01*
X24284Y-24412D01*
X24284Y-24744D01*
X24284Y-24839D01*
X24321Y-24927D01*
X24388Y-24995D01*
X24476Y-25031D01*
X24903Y-25031D01*
X24963Y-24971D01*
X24963Y-27751D01*
X24109Y-27751D01*
X24109Y-24744D01*
X24109Y-23839D01*
X24109Y-23744D01*
X24072Y-23656D01*
X24005Y-23588D01*
X23917Y-23552D01*
X23490Y-23552D01*
X23430Y-23612D01*
X23430Y-24231D01*
X24049Y-24231D01*
X24109Y-24171D01*
X24109Y-23839D01*
X24109Y-24744D01*
X24109Y-24412D01*
X24049Y-24352D01*
X23430Y-24352D01*
X23430Y-24971D01*
X23490Y-25031D01*
X23917Y-25031D01*
X24005Y-24995D01*
X24072Y-24927D01*
X24109Y-24839D01*
X24109Y-24744D01*
X24109Y-27751D01*
X23817Y-27751D01*
X23988Y-27580D01*
X24099Y-27312D01*
X24100Y-27022D01*
X23989Y-26753D01*
X23784Y-26548D01*
X23515Y-26436D01*
X23309Y-26436D01*
X23309Y-24971D01*
X23309Y-24352D01*
X23309Y-24231D01*
X23309Y-23612D01*
X23249Y-23552D01*
X22822Y-23552D01*
X22734Y-23588D01*
X22667Y-23656D01*
X22630Y-23744D01*
X22630Y-23839D01*
X22630Y-24171D01*
X22690Y-24231D01*
X23309Y-24231D01*
X23309Y-24352D01*
X22690Y-24352D01*
X22630Y-24412D01*
X22630Y-24744D01*
X22630Y-24839D01*
X22667Y-24927D01*
X22734Y-24995D01*
X22822Y-25031D01*
X23249Y-25031D01*
X23309Y-24971D01*
X23309Y-26436D01*
X23225Y-26436D01*
X22956Y-26547D01*
X22751Y-26752D01*
X22640Y-27020D01*
X22639Y-27311D01*
X22750Y-27579D01*
X22922Y-27751D01*
X20939Y-27751D01*
X20939Y-25803D01*
X20827Y-25531D01*
X20619Y-25323D01*
X20347Y-25210D01*
X20053Y-25210D01*
X19781Y-25322D01*
X19573Y-25530D01*
X19460Y-25802D01*
X19460Y-26096D01*
X19572Y-26368D01*
X19780Y-26576D01*
X20052Y-26689D01*
X20346Y-26689D01*
X20618Y-26577D01*
X20826Y-26369D01*
X20939Y-26097D01*
X20939Y-25803D01*
X20939Y-27751D01*
X12703Y-27751D01*
X12703Y-24007D01*
X12703Y-23820D01*
X12643Y-23760D01*
X12209Y-23760D01*
X12209Y-24234D01*
X12269Y-24294D01*
X12510Y-24294D01*
X12598Y-24257D01*
X12666Y-24190D01*
X12702Y-24102D01*
X12703Y-24007D01*
X12703Y-27751D01*
X12339Y-27751D01*
X12339Y-25803D01*
X12227Y-25531D01*
X12088Y-25392D01*
X12088Y-24234D01*
X12088Y-23760D01*
X11654Y-23760D01*
X11595Y-23820D01*
X11594Y-24007D01*
X11595Y-24102D01*
X11631Y-24190D01*
X11699Y-24257D01*
X11787Y-24294D01*
X12028Y-24294D01*
X12088Y-24234D01*
X12088Y-25392D01*
X12019Y-25323D01*
X11747Y-25210D01*
X11489Y-25210D01*
X11489Y-23052D01*
X11489Y-22252D01*
X11468Y-22201D01*
X11429Y-22161D01*
X11377Y-22140D01*
X11322Y-22140D01*
X10722Y-22140D01*
X10671Y-22161D01*
X10631Y-22200D01*
X10610Y-22252D01*
X10610Y-22307D01*
X10610Y-23107D01*
X10631Y-23158D01*
X10670Y-23198D01*
X10689Y-23205D01*
X10688Y-23205D01*
X10637Y-23227D01*
X10598Y-23266D01*
X10577Y-23317D01*
X10576Y-23373D01*
X10576Y-24082D01*
X10598Y-24133D01*
X10637Y-24172D01*
X10688Y-24193D01*
X10744Y-24194D01*
X11373Y-24194D01*
X11424Y-24172D01*
X11463Y-24133D01*
X11484Y-24082D01*
X11485Y-24026D01*
X11485Y-23317D01*
X11463Y-23266D01*
X11424Y-23227D01*
X11391Y-23213D01*
X11428Y-23198D01*
X11468Y-23159D01*
X11489Y-23107D01*
X11489Y-23052D01*
X11489Y-25210D01*
X11453Y-25210D01*
X11181Y-25322D01*
X10973Y-25530D01*
X10860Y-25802D01*
X10860Y-26096D01*
X10972Y-26368D01*
X11180Y-26576D01*
X11452Y-26689D01*
X11746Y-26689D01*
X12018Y-26577D01*
X12226Y-26369D01*
X12339Y-26097D01*
X12339Y-25803D01*
X12339Y-27751D01*
X9773Y-27751D01*
X9773Y-10398D01*
X14932Y-10398D01*
X14876Y-10436D01*
X14876Y-10436D01*
X14286Y-11026D01*
X14244Y-11087D01*
X14230Y-11160D01*
X14230Y-11208D01*
X14149Y-11127D01*
X13987Y-11060D01*
X13812Y-11060D01*
X13651Y-11127D01*
X13527Y-11250D01*
X13460Y-11412D01*
X13460Y-11587D01*
X13485Y-11646D01*
X12766Y-12366D01*
X12724Y-12427D01*
X12710Y-12500D01*
X12710Y-22154D01*
X12677Y-22140D01*
X12622Y-22140D01*
X12339Y-22140D01*
X12339Y-11653D01*
X12227Y-11381D01*
X12019Y-11173D01*
X11747Y-11060D01*
X11453Y-11060D01*
X11181Y-11172D01*
X10973Y-11380D01*
X10860Y-11652D01*
X10860Y-11946D01*
X10972Y-12218D01*
X11180Y-12426D01*
X11452Y-12539D01*
X11746Y-12539D01*
X12018Y-12427D01*
X12226Y-12219D01*
X12339Y-11947D01*
X12339Y-11653D01*
X12339Y-22140D01*
X12022Y-22140D01*
X11971Y-22161D01*
X11931Y-22200D01*
X11910Y-22252D01*
X11910Y-22307D01*
X11910Y-23105D01*
X11787Y-23105D01*
X11699Y-23142D01*
X11631Y-23209D01*
X11595Y-23297D01*
X11594Y-23392D01*
X11595Y-23579D01*
X11654Y-23639D01*
X12088Y-23639D01*
X12088Y-23631D01*
X12209Y-23631D01*
X12209Y-23639D01*
X12643Y-23639D01*
X12703Y-23579D01*
X12703Y-23392D01*
X12702Y-23297D01*
X12670Y-23219D01*
X12677Y-23219D01*
X12710Y-23205D01*
X12710Y-26300D01*
X12724Y-26372D01*
X12766Y-26433D01*
X13666Y-27333D01*
X13727Y-27375D01*
X13800Y-27389D01*
X16950Y-27389D01*
X17022Y-27375D01*
X17083Y-27333D01*
X17753Y-26664D01*
X17812Y-26689D01*
X17987Y-26689D01*
X18148Y-26622D01*
X18272Y-26499D01*
X18339Y-26337D01*
X18339Y-26188D01*
X22058Y-22468D01*
X22063Y-22463D01*
X22105Y-22402D01*
X22119Y-22330D01*
X22114Y-22304D01*
X22114Y-21993D01*
X22648Y-21459D01*
X24087Y-21459D01*
X24384Y-21756D01*
X24384Y-22655D01*
X24405Y-22706D01*
X24444Y-22746D01*
X24496Y-22767D01*
X24551Y-22767D01*
X25395Y-22767D01*
X25688Y-23060D01*
X24570Y-23060D01*
X24009Y-22499D01*
X24009Y-21600D01*
X23988Y-21549D01*
X23949Y-21509D01*
X23897Y-21488D01*
X23842Y-21488D01*
X22842Y-21488D01*
X22791Y-21509D01*
X22751Y-21548D01*
X22730Y-21600D01*
X22730Y-21655D01*
X22730Y-22655D01*
X22751Y-22706D01*
X22790Y-22746D01*
X22842Y-22767D01*
X22897Y-22767D01*
X23741Y-22767D01*
X24358Y-23383D01*
X24358Y-23383D01*
X24419Y-23425D01*
X24419Y-23425D01*
X24477Y-23436D01*
X24491Y-23439D01*
X24491Y-23439D01*
X24492Y-23439D01*
X29505Y-23439D01*
X29433Y-23511D01*
X29385Y-23627D01*
X29385Y-23752D01*
X29433Y-23867D01*
X29521Y-23956D01*
X29637Y-24004D01*
X29746Y-24004D01*
X30216Y-24473D01*
X30216Y-24473D01*
X30277Y-24515D01*
X30350Y-24529D01*
X31970Y-24529D01*
X31970Y-24667D01*
X31991Y-24718D01*
X32030Y-24758D01*
X32082Y-24779D01*
X32137Y-24779D01*
X32320Y-24779D01*
X32320Y-25560D01*
X32334Y-25632D01*
X32376Y-25693D01*
X33736Y-27053D01*
X33736Y-27053D01*
X33797Y-27095D01*
X33870Y-27109D01*
X36900Y-27109D01*
X36972Y-27095D01*
X37033Y-27053D01*
X37910Y-26177D01*
X37910Y-26411D01*
X37696Y-26625D01*
X37587Y-26625D01*
X37472Y-26673D01*
X37383Y-26761D01*
X37335Y-26877D01*
X37335Y-27002D01*
X37383Y-27117D01*
X37471Y-27206D01*
X37587Y-27254D01*
X37712Y-27254D01*
X37827Y-27206D01*
X37916Y-27118D01*
X37964Y-27002D01*
X37964Y-26893D01*
X38143Y-26714D01*
X38277Y-26714D01*
X38328Y-26693D01*
X38368Y-26654D01*
X38389Y-26602D01*
X38389Y-26547D01*
X38389Y-26539D01*
X38410Y-26539D01*
X38410Y-26602D01*
X38431Y-26653D01*
X38470Y-26693D01*
X38522Y-26714D01*
X38577Y-26714D01*
X38684Y-26714D01*
X38675Y-26737D01*
X38675Y-26832D01*
X38675Y-26889D01*
X38735Y-26949D01*
X38979Y-26949D01*
X38979Y-26941D01*
X39100Y-26941D01*
X39100Y-26949D01*
X39108Y-26949D01*
X39108Y-27070D01*
X39100Y-27070D01*
X39100Y-27414D01*
X39160Y-27474D01*
X39212Y-27474D01*
X39300Y-27438D01*
X39367Y-27370D01*
X39394Y-27307D01*
X39396Y-27313D01*
X39435Y-27353D01*
X39487Y-27374D01*
X39542Y-27374D01*
X39792Y-27374D01*
X39843Y-27353D01*
X39883Y-27314D01*
X39904Y-27262D01*
X39904Y-27207D01*
X39904Y-27199D01*
X39904Y-27199D01*
X39991Y-27286D01*
X40107Y-27334D01*
X40232Y-27334D01*
X40347Y-27286D01*
X40425Y-27209D01*
X40461Y-27209D01*
X40546Y-27293D01*
X40546Y-27293D01*
X40607Y-27335D01*
X40680Y-27349D01*
X43390Y-27349D01*
X43400Y-27349D01*
X43472Y-27335D01*
X43533Y-27293D01*
X43848Y-26979D01*
X44430Y-26979D01*
X44502Y-26965D01*
X44563Y-26923D01*
X44713Y-26774D01*
X44962Y-26774D01*
X45013Y-26753D01*
X45053Y-26714D01*
X45059Y-26699D01*
X46480Y-26699D01*
X46552Y-26685D01*
X46613Y-26643D01*
X47943Y-25313D01*
X47985Y-25252D01*
X47999Y-25180D01*
X47999Y-25079D01*
X48013Y-25073D01*
X48053Y-25034D01*
X48074Y-24982D01*
X48074Y-24927D01*
X48074Y-24477D01*
X48053Y-24426D01*
X48041Y-24414D01*
X48167Y-24414D01*
X48218Y-24393D01*
X48258Y-24354D01*
X48279Y-24302D01*
X48279Y-24247D01*
X48279Y-23797D01*
X48258Y-23746D01*
X48229Y-23717D01*
X48229Y-23038D01*
X48513Y-22753D01*
X48513Y-22753D01*
X48513Y-22753D01*
X48555Y-22692D01*
X48555Y-22692D01*
X48566Y-22634D01*
X48569Y-22620D01*
X48569Y-22620D01*
X48569Y-22620D01*
X48569Y-20346D01*
X48555Y-20273D01*
X48513Y-20212D01*
X47989Y-19687D01*
X48343Y-19334D01*
X48592Y-19334D01*
X48643Y-19313D01*
X48683Y-19274D01*
X48704Y-19222D01*
X48704Y-19167D01*
X48704Y-18917D01*
X48683Y-18866D01*
X48644Y-18826D01*
X48637Y-18824D01*
X48700Y-18797D01*
X48768Y-18730D01*
X48804Y-18642D01*
X48804Y-18297D01*
X48768Y-18209D01*
X48700Y-18142D01*
X48612Y-18105D01*
X48517Y-18105D01*
X48460Y-18105D01*
X48400Y-18165D01*
X48400Y-18409D01*
X48744Y-18409D01*
X48804Y-18349D01*
X48804Y-18297D01*
X48804Y-18642D01*
X48804Y-18590D01*
X48744Y-18530D01*
X48400Y-18530D01*
X48400Y-18538D01*
X48279Y-18538D01*
X48279Y-18530D01*
X48279Y-18409D01*
X48279Y-18165D01*
X48219Y-18105D01*
X48162Y-18105D01*
X48067Y-18105D01*
X48028Y-18121D01*
X48028Y-17777D01*
X48028Y-17682D01*
X47991Y-17594D01*
X47924Y-17526D01*
X47836Y-17490D01*
X47811Y-17490D01*
X47751Y-17550D01*
X47751Y-17919D01*
X47968Y-17919D01*
X48028Y-17859D01*
X48028Y-17777D01*
X48028Y-18121D01*
X48028Y-18121D01*
X48028Y-18100D01*
X47968Y-18040D01*
X47751Y-18040D01*
X47751Y-18409D01*
X47811Y-18469D01*
X47836Y-18469D01*
X47924Y-18433D01*
X47948Y-18409D01*
X48279Y-18409D01*
X48279Y-18530D01*
X47935Y-18530D01*
X47875Y-18590D01*
X47875Y-18642D01*
X47911Y-18730D01*
X47979Y-18797D01*
X48042Y-18824D01*
X48036Y-18826D01*
X47996Y-18865D01*
X47975Y-18917D01*
X47975Y-18972D01*
X47975Y-19166D01*
X47841Y-19300D01*
X47816Y-19290D01*
X47761Y-19290D01*
X47611Y-19290D01*
X47586Y-19300D01*
X47560Y-19290D01*
X47505Y-19290D01*
X47355Y-19290D01*
X47330Y-19300D01*
X47304Y-19290D01*
X47249Y-19290D01*
X47099Y-19290D01*
X47074Y-19300D01*
X47048Y-19290D01*
X46993Y-19290D01*
X46843Y-19290D01*
X46792Y-19311D01*
X46752Y-19350D01*
X46731Y-19402D01*
X46731Y-19457D01*
X46731Y-19957D01*
X46752Y-20008D01*
X46791Y-20048D01*
X46843Y-20069D01*
X46898Y-20069D01*
X47012Y-20069D01*
X47012Y-20572D01*
X47026Y-20644D01*
X47068Y-20705D01*
X47850Y-21488D01*
X47850Y-21607D01*
X47842Y-21589D01*
X47775Y-21521D01*
X47687Y-21485D01*
X47649Y-21485D01*
X47590Y-21545D01*
X47590Y-21889D01*
X47608Y-21889D01*
X47608Y-22010D01*
X47590Y-22010D01*
X47590Y-22354D01*
X47649Y-22414D01*
X47687Y-22414D01*
X47775Y-22378D01*
X47842Y-22310D01*
X47853Y-22285D01*
X47860Y-22293D01*
X47912Y-22314D01*
X47967Y-22314D01*
X48167Y-22314D01*
X48190Y-22305D01*
X48190Y-22541D01*
X47906Y-22826D01*
X47864Y-22887D01*
X47850Y-22960D01*
X47850Y-23717D01*
X47821Y-23745D01*
X47800Y-23797D01*
X47800Y-23852D01*
X47800Y-24021D01*
X47779Y-24042D01*
X47779Y-23797D01*
X47758Y-23746D01*
X47729Y-23717D01*
X47729Y-23690D01*
X47729Y-23689D01*
X47729Y-23689D01*
X47726Y-23675D01*
X47715Y-23617D01*
X47715Y-23617D01*
X47673Y-23556D01*
X47673Y-23556D01*
X47490Y-23372D01*
X47490Y-22354D01*
X47490Y-22010D01*
X47471Y-22010D01*
X47471Y-21889D01*
X47490Y-21889D01*
X47490Y-21545D01*
X47430Y-21485D01*
X47392Y-21485D01*
X47304Y-21521D01*
X47237Y-21589D01*
X47226Y-21614D01*
X47219Y-21606D01*
X47167Y-21585D01*
X47112Y-21585D01*
X46912Y-21585D01*
X46861Y-21606D01*
X46821Y-21645D01*
X46800Y-21697D01*
X46800Y-21752D01*
X46800Y-22202D01*
X46821Y-22253D01*
X46860Y-22293D01*
X46912Y-22314D01*
X46967Y-22314D01*
X47167Y-22314D01*
X47218Y-22293D01*
X47226Y-22285D01*
X47237Y-22310D01*
X47304Y-22378D01*
X47392Y-22414D01*
X47430Y-22414D01*
X47490Y-22354D01*
X47490Y-23372D01*
X46973Y-22856D01*
X46912Y-22814D01*
X46840Y-22800D01*
X46779Y-22800D01*
X46779Y-22147D01*
X46779Y-21697D01*
X46758Y-21646D01*
X46719Y-21606D01*
X46667Y-21585D01*
X46612Y-21585D01*
X46464Y-21585D01*
X46464Y-19888D01*
X46321Y-19543D01*
X46057Y-19278D01*
X45712Y-19135D01*
X45338Y-19135D01*
X44993Y-19278D01*
X44728Y-19542D01*
X44585Y-19887D01*
X44585Y-20261D01*
X44728Y-20606D01*
X44992Y-20871D01*
X45337Y-21014D01*
X45711Y-21014D01*
X46056Y-20871D01*
X46321Y-20607D01*
X46464Y-20262D01*
X46464Y-19888D01*
X46464Y-21585D01*
X46412Y-21585D01*
X46361Y-21606D01*
X46321Y-21645D01*
X46300Y-21697D01*
X46300Y-21752D01*
X46300Y-22202D01*
X46321Y-22253D01*
X46360Y-22293D01*
X46412Y-22314D01*
X46467Y-22314D01*
X46667Y-22314D01*
X46718Y-22293D01*
X46758Y-22254D01*
X46779Y-22202D01*
X46779Y-22147D01*
X46779Y-22800D01*
X46298Y-22800D01*
X46279Y-22781D01*
X46279Y-22147D01*
X46279Y-21697D01*
X46258Y-21646D01*
X46219Y-21606D01*
X46167Y-21585D01*
X46112Y-21585D01*
X45912Y-21585D01*
X45861Y-21606D01*
X45821Y-21645D01*
X45800Y-21697D01*
X45800Y-21752D01*
X45800Y-22202D01*
X45821Y-22253D01*
X45860Y-22293D01*
X45912Y-22314D01*
X45967Y-22314D01*
X46167Y-22314D01*
X46218Y-22293D01*
X46258Y-22254D01*
X46279Y-22202D01*
X46279Y-22147D01*
X46279Y-22781D01*
X45755Y-22257D01*
X45758Y-22254D01*
X45779Y-22202D01*
X45779Y-22147D01*
X45779Y-21697D01*
X45758Y-21646D01*
X45719Y-21606D01*
X45667Y-21585D01*
X45612Y-21585D01*
X45412Y-21585D01*
X45361Y-21606D01*
X45353Y-21614D01*
X45342Y-21589D01*
X45275Y-21521D01*
X45187Y-21485D01*
X45149Y-21485D01*
X45090Y-21545D01*
X45090Y-21889D01*
X45108Y-21889D01*
X45108Y-22010D01*
X45090Y-22010D01*
X45090Y-22354D01*
X45149Y-22414D01*
X45187Y-22414D01*
X45275Y-22378D01*
X45342Y-22310D01*
X45350Y-22292D01*
X45350Y-22310D01*
X45364Y-22382D01*
X45406Y-22443D01*
X46086Y-23123D01*
X46086Y-23123D01*
X46147Y-23165D01*
X46147Y-23165D01*
X46220Y-23179D01*
X46761Y-23179D01*
X47167Y-23585D01*
X47149Y-23585D01*
X47090Y-23645D01*
X47090Y-23989D01*
X47108Y-23989D01*
X47108Y-24110D01*
X47090Y-24110D01*
X47090Y-24118D01*
X46990Y-24118D01*
X46990Y-24110D01*
X46971Y-24110D01*
X46971Y-23989D01*
X46990Y-23989D01*
X46990Y-23645D01*
X46930Y-23585D01*
X46892Y-23585D01*
X46804Y-23621D01*
X46737Y-23689D01*
X46729Y-23707D01*
X46729Y-23670D01*
X46715Y-23597D01*
X46673Y-23536D01*
X46673Y-23536D01*
X46523Y-23386D01*
X46462Y-23344D01*
X46390Y-23330D01*
X44990Y-23330D01*
X44990Y-22354D01*
X44990Y-22010D01*
X44990Y-21889D01*
X44990Y-21545D01*
X44930Y-21485D01*
X44892Y-21485D01*
X44804Y-21521D01*
X44737Y-21589D01*
X44700Y-21677D01*
X44700Y-21772D01*
X44700Y-21829D01*
X44760Y-21889D01*
X44990Y-21889D01*
X44990Y-22010D01*
X44760Y-22010D01*
X44700Y-22070D01*
X44700Y-22127D01*
X44700Y-22222D01*
X44737Y-22310D01*
X44804Y-22378D01*
X44892Y-22414D01*
X44930Y-22414D01*
X44990Y-22354D01*
X44990Y-23330D01*
X43064Y-23330D01*
X43097Y-23316D01*
X43186Y-23228D01*
X43234Y-23112D01*
X43234Y-22987D01*
X43186Y-22872D01*
X43119Y-22804D01*
X43119Y-22784D01*
X43158Y-22768D01*
X43180Y-22747D01*
X43200Y-22768D01*
X43252Y-22789D01*
X43307Y-22789D01*
X43607Y-22789D01*
X43658Y-22768D01*
X43680Y-22747D01*
X43700Y-22768D01*
X43752Y-22789D01*
X43807Y-22789D01*
X44107Y-22789D01*
X44158Y-22768D01*
X44198Y-22729D01*
X44219Y-22677D01*
X44219Y-22622D01*
X44219Y-22122D01*
X44198Y-22071D01*
X44159Y-22031D01*
X44154Y-22029D01*
X44206Y-21978D01*
X44254Y-21862D01*
X44254Y-21737D01*
X44206Y-21622D01*
X44118Y-21533D01*
X44002Y-21485D01*
X43877Y-21485D01*
X43762Y-21533D01*
X43673Y-21621D01*
X43625Y-21737D01*
X43625Y-21862D01*
X43673Y-21977D01*
X43719Y-22024D01*
X43701Y-22031D01*
X43679Y-22052D01*
X43659Y-22031D01*
X43607Y-22010D01*
X43552Y-22010D01*
X43252Y-22010D01*
X43201Y-22031D01*
X43179Y-22052D01*
X43159Y-22031D01*
X43107Y-22010D01*
X43052Y-22010D01*
X42752Y-22010D01*
X42701Y-22031D01*
X42679Y-22052D01*
X42659Y-22031D01*
X42619Y-22015D01*
X42619Y-21890D01*
X42605Y-21817D01*
X42563Y-21756D01*
X42563Y-21756D01*
X42033Y-21226D01*
X41972Y-21184D01*
X41900Y-21170D01*
X39110Y-21170D01*
X39037Y-21184D01*
X38976Y-21226D01*
X38976Y-21226D01*
X38296Y-21906D01*
X38254Y-21967D01*
X38245Y-22013D01*
X38201Y-22031D01*
X38161Y-22070D01*
X38140Y-22122D01*
X38140Y-22177D01*
X38140Y-22210D01*
X38045Y-22210D01*
X38008Y-22173D01*
X37892Y-22125D01*
X37767Y-22125D01*
X37652Y-22173D01*
X37563Y-22261D01*
X37515Y-22377D01*
X37515Y-22502D01*
X37563Y-22617D01*
X37651Y-22706D01*
X37767Y-22754D01*
X37892Y-22754D01*
X38007Y-22706D01*
X38096Y-22618D01*
X38108Y-22589D01*
X38140Y-22589D01*
X38140Y-22677D01*
X38161Y-22728D01*
X38200Y-22768D01*
X38252Y-22789D01*
X38307Y-22789D01*
X38607Y-22789D01*
X38658Y-22768D01*
X38680Y-22747D01*
X38700Y-22768D01*
X38752Y-22789D01*
X38807Y-22789D01*
X39107Y-22789D01*
X39158Y-22768D01*
X39180Y-22747D01*
X39200Y-22768D01*
X39252Y-22789D01*
X39307Y-22789D01*
X39607Y-22789D01*
X39658Y-22768D01*
X39680Y-22747D01*
X39700Y-22768D01*
X39740Y-22784D01*
X39740Y-23131D01*
X39731Y-23141D01*
X39731Y-23141D01*
X39726Y-23146D01*
X39034Y-23837D01*
X39034Y-23557D01*
X38986Y-23442D01*
X38898Y-23353D01*
X38782Y-23305D01*
X38657Y-23305D01*
X38542Y-23353D01*
X38453Y-23441D01*
X38451Y-23446D01*
X38388Y-23383D01*
X38272Y-23335D01*
X38147Y-23335D01*
X38032Y-23383D01*
X37943Y-23471D01*
X37895Y-23587D01*
X37895Y-23712D01*
X37943Y-23827D01*
X37960Y-23845D01*
X37960Y-23917D01*
X37931Y-23945D01*
X37910Y-23997D01*
X37910Y-24052D01*
X37910Y-24502D01*
X37931Y-24553D01*
X37970Y-24593D01*
X38022Y-24614D01*
X38077Y-24614D01*
X38277Y-24614D01*
X38328Y-24593D01*
X38368Y-24554D01*
X38389Y-24502D01*
X38389Y-24447D01*
X38389Y-23997D01*
X38368Y-23946D01*
X38353Y-23931D01*
X38387Y-23916D01*
X38460Y-23844D01*
X38460Y-23917D01*
X38431Y-23945D01*
X38410Y-23997D01*
X38410Y-24052D01*
X38410Y-24502D01*
X38431Y-24553D01*
X38470Y-24593D01*
X38522Y-24614D01*
X38577Y-24614D01*
X38777Y-24614D01*
X38828Y-24593D01*
X38868Y-24554D01*
X38889Y-24502D01*
X38889Y-24447D01*
X38889Y-23997D01*
X38868Y-23946D01*
X38839Y-23917D01*
X38839Y-23910D01*
X38897Y-23886D01*
X38986Y-23798D01*
X39034Y-23682D01*
X39034Y-23557D01*
X39034Y-23837D01*
X39016Y-23856D01*
X38986Y-23900D01*
X38971Y-23906D01*
X38931Y-23945D01*
X38910Y-23997D01*
X38910Y-24052D01*
X38910Y-24502D01*
X38931Y-24553D01*
X38970Y-24593D01*
X39022Y-24614D01*
X39077Y-24614D01*
X39277Y-24614D01*
X39328Y-24593D01*
X39336Y-24585D01*
X39347Y-24610D01*
X39366Y-24630D01*
X38050Y-24630D01*
X37977Y-24644D01*
X37916Y-24686D01*
X37916Y-24686D01*
X37844Y-24757D01*
X37844Y-24697D01*
X37796Y-24582D01*
X37708Y-24493D01*
X37592Y-24445D01*
X37479Y-24445D01*
X37479Y-23977D01*
X37479Y-23622D01*
X37479Y-23527D01*
X37442Y-23439D01*
X37375Y-23371D01*
X37287Y-23335D01*
X37249Y-23335D01*
X37190Y-23395D01*
X37190Y-23739D01*
X37419Y-23739D01*
X37479Y-23679D01*
X37479Y-23622D01*
X37479Y-23977D01*
X37479Y-23920D01*
X37419Y-23860D01*
X37190Y-23860D01*
X37190Y-24204D01*
X37249Y-24264D01*
X37287Y-24264D01*
X37375Y-24228D01*
X37442Y-24160D01*
X37479Y-24072D01*
X37479Y-23977D01*
X37479Y-24445D01*
X37467Y-24445D01*
X37352Y-24493D01*
X37263Y-24581D01*
X37215Y-24697D01*
X37215Y-24806D01*
X36751Y-25270D01*
X36720Y-25270D01*
X35570Y-25270D01*
X35569Y-25270D01*
X35555Y-25273D01*
X35497Y-25284D01*
X35436Y-25326D01*
X35436Y-25326D01*
X35111Y-25650D01*
X34792Y-25650D01*
X34741Y-25671D01*
X34701Y-25710D01*
X34700Y-25715D01*
X34698Y-25711D01*
X34659Y-25671D01*
X34607Y-25650D01*
X34552Y-25650D01*
X33752Y-25650D01*
X33701Y-25671D01*
X33661Y-25710D01*
X33640Y-25762D01*
X33640Y-25817D01*
X33640Y-26417D01*
X33643Y-26425D01*
X32699Y-25481D01*
X32699Y-24779D01*
X32937Y-24779D01*
X32988Y-24758D01*
X33028Y-24719D01*
X33049Y-24667D01*
X33049Y-24612D01*
X33049Y-24012D01*
X33028Y-23961D01*
X32989Y-23921D01*
X32937Y-23900D01*
X32882Y-23900D01*
X32082Y-23900D01*
X32031Y-23921D01*
X31991Y-23960D01*
X31970Y-24012D01*
X31970Y-24067D01*
X31970Y-24150D01*
X30428Y-24150D01*
X30014Y-23736D01*
X30014Y-23627D01*
X29966Y-23512D01*
X29894Y-23439D01*
X30544Y-23439D01*
X30611Y-23506D01*
X30727Y-23554D01*
X30852Y-23554D01*
X30967Y-23506D01*
X31056Y-23418D01*
X31104Y-23302D01*
X31104Y-23177D01*
X31056Y-23062D01*
X30968Y-22973D01*
X30852Y-22925D01*
X30727Y-22925D01*
X30612Y-22973D01*
X30524Y-23060D01*
X30427Y-23060D01*
X30878Y-22609D01*
X31530Y-22609D01*
X32060Y-22609D01*
X32031Y-22621D01*
X31991Y-22660D01*
X31970Y-22712D01*
X31970Y-22767D01*
X31970Y-22850D01*
X31965Y-22850D01*
X31928Y-22813D01*
X31812Y-22765D01*
X31687Y-22765D01*
X31572Y-22813D01*
X31483Y-22901D01*
X31435Y-23017D01*
X31435Y-23142D01*
X31483Y-23257D01*
X31571Y-23346D01*
X31687Y-23394D01*
X31812Y-23394D01*
X31927Y-23346D01*
X31970Y-23304D01*
X31970Y-23367D01*
X31991Y-23418D01*
X32030Y-23458D01*
X32082Y-23479D01*
X32137Y-23479D01*
X32937Y-23479D01*
X32988Y-23458D01*
X33028Y-23419D01*
X33049Y-23368D01*
X33087Y-23384D01*
X33182Y-23384D01*
X33239Y-23384D01*
X33299Y-23324D01*
X33299Y-23080D01*
X33291Y-23080D01*
X33291Y-22959D01*
X33299Y-22959D01*
X33299Y-22951D01*
X33420Y-22951D01*
X33420Y-22959D01*
X33764Y-22959D01*
X33824Y-22899D01*
X33824Y-22847D01*
X33788Y-22759D01*
X33720Y-22692D01*
X33657Y-22665D01*
X33663Y-22663D01*
X33703Y-22624D01*
X33709Y-22609D01*
X34027Y-22609D01*
X34087Y-22634D01*
X34212Y-22634D01*
X34327Y-22586D01*
X34353Y-22560D01*
X34373Y-22607D01*
X34461Y-22696D01*
X34577Y-22744D01*
X34646Y-22744D01*
X34796Y-22893D01*
X34796Y-22893D01*
X34857Y-22935D01*
X34857Y-22935D01*
X34915Y-22946D01*
X34929Y-22949D01*
X34929Y-22949D01*
X34930Y-22949D01*
X35265Y-22949D01*
X35193Y-23021D01*
X35145Y-23137D01*
X35145Y-23246D01*
X35006Y-23386D01*
X34964Y-23447D01*
X34963Y-23455D01*
X34961Y-23456D01*
X34921Y-23495D01*
X34900Y-23547D01*
X34900Y-23602D01*
X34900Y-23610D01*
X34879Y-23610D01*
X34879Y-23547D01*
X34858Y-23496D01*
X34819Y-23456D01*
X34767Y-23435D01*
X34712Y-23435D01*
X34512Y-23435D01*
X34461Y-23456D01*
X34421Y-23495D01*
X34400Y-23547D01*
X34400Y-23602D01*
X34400Y-24052D01*
X34421Y-24103D01*
X34460Y-24143D01*
X34512Y-24164D01*
X34567Y-24164D01*
X34767Y-24164D01*
X34818Y-24143D01*
X34858Y-24104D01*
X34879Y-24052D01*
X34879Y-23997D01*
X34879Y-23989D01*
X34900Y-23989D01*
X34900Y-24052D01*
X34921Y-24103D01*
X34960Y-24143D01*
X35012Y-24164D01*
X35067Y-24164D01*
X35237Y-24164D01*
X35086Y-24316D01*
X35062Y-24350D01*
X34792Y-24350D01*
X34741Y-24371D01*
X34701Y-24410D01*
X34700Y-24415D01*
X34698Y-24411D01*
X34659Y-24371D01*
X34607Y-24350D01*
X34552Y-24350D01*
X34369Y-24350D01*
X34369Y-24076D01*
X34379Y-24052D01*
X34379Y-23997D01*
X34379Y-23547D01*
X34358Y-23496D01*
X34319Y-23456D01*
X34267Y-23435D01*
X34212Y-23435D01*
X34012Y-23435D01*
X33961Y-23456D01*
X33921Y-23495D01*
X33900Y-23547D01*
X33900Y-23602D01*
X33900Y-24052D01*
X33921Y-24103D01*
X33960Y-24143D01*
X33990Y-24155D01*
X33990Y-24350D01*
X33824Y-24350D01*
X33824Y-23192D01*
X33824Y-23140D01*
X33764Y-23080D01*
X33420Y-23080D01*
X33420Y-23324D01*
X33480Y-23384D01*
X33537Y-23384D01*
X33632Y-23384D01*
X33720Y-23347D01*
X33788Y-23280D01*
X33824Y-23192D01*
X33824Y-24350D01*
X33752Y-24350D01*
X33701Y-24371D01*
X33661Y-24410D01*
X33640Y-24462D01*
X33640Y-24517D01*
X33640Y-25117D01*
X33661Y-25168D01*
X33700Y-25208D01*
X33752Y-25229D01*
X33807Y-25229D01*
X34607Y-25229D01*
X34658Y-25208D01*
X34698Y-25169D01*
X34699Y-25164D01*
X34701Y-25168D01*
X34740Y-25208D01*
X34792Y-25229D01*
X34847Y-25229D01*
X35647Y-25229D01*
X35698Y-25208D01*
X35738Y-25169D01*
X35739Y-25164D01*
X35741Y-25168D01*
X35780Y-25208D01*
X35832Y-25229D01*
X35887Y-25229D01*
X36687Y-25229D01*
X36738Y-25208D01*
X36778Y-25169D01*
X36799Y-25117D01*
X36799Y-25062D01*
X36799Y-24462D01*
X36778Y-24411D01*
X36739Y-24371D01*
X36687Y-24350D01*
X36632Y-24350D01*
X36449Y-24350D01*
X36449Y-24131D01*
X36460Y-24143D01*
X36512Y-24164D01*
X36567Y-24164D01*
X36767Y-24164D01*
X36818Y-24143D01*
X36826Y-24135D01*
X36837Y-24160D01*
X36904Y-24228D01*
X36992Y-24264D01*
X37030Y-24264D01*
X37090Y-24204D01*
X37090Y-23860D01*
X37071Y-23860D01*
X37071Y-23739D01*
X37090Y-23739D01*
X37090Y-23395D01*
X37030Y-23335D01*
X36992Y-23335D01*
X36904Y-23371D01*
X36837Y-23439D01*
X36829Y-23457D01*
X36829Y-23180D01*
X36815Y-23107D01*
X36773Y-23046D01*
X36590Y-22862D01*
X36590Y-22104D01*
X36590Y-21760D01*
X36590Y-21639D01*
X36590Y-21295D01*
X36530Y-21235D01*
X36492Y-21235D01*
X36404Y-21271D01*
X36390Y-21286D01*
X36375Y-21271D01*
X36287Y-21235D01*
X36249Y-21235D01*
X36190Y-21295D01*
X36190Y-21639D01*
X36360Y-21639D01*
X36419Y-21639D01*
X36590Y-21639D01*
X36590Y-21760D01*
X36419Y-21760D01*
X36360Y-21760D01*
X36190Y-21760D01*
X36190Y-22104D01*
X36249Y-22164D01*
X36287Y-22164D01*
X36375Y-22128D01*
X36390Y-22113D01*
X36404Y-22128D01*
X36492Y-22164D01*
X36530Y-22164D01*
X36590Y-22104D01*
X36590Y-22862D01*
X36353Y-22626D01*
X36292Y-22584D01*
X36220Y-22570D01*
X35324Y-22570D01*
X35396Y-22498D01*
X35444Y-22382D01*
X35444Y-22257D01*
X35396Y-22142D01*
X35329Y-22074D01*
X35329Y-22032D01*
X35358Y-22004D01*
X35379Y-21952D01*
X35379Y-21897D01*
X35379Y-21457D01*
X35400Y-21478D01*
X35400Y-21502D01*
X35400Y-21952D01*
X35421Y-22003D01*
X35460Y-22043D01*
X35512Y-22064D01*
X35567Y-22064D01*
X35767Y-22064D01*
X35818Y-22043D01*
X35826Y-22035D01*
X35837Y-22060D01*
X35904Y-22128D01*
X35992Y-22164D01*
X36030Y-22164D01*
X36090Y-22104D01*
X36090Y-21760D01*
X36071Y-21760D01*
X36071Y-21639D01*
X36090Y-21639D01*
X36090Y-21295D01*
X36030Y-21235D01*
X35992Y-21235D01*
X35904Y-21271D01*
X35837Y-21339D01*
X35826Y-21364D01*
X35819Y-21356D01*
X35794Y-21346D01*
X35794Y-21346D01*
X35773Y-21316D01*
X35773Y-21316D01*
X35473Y-21016D01*
X35412Y-20974D01*
X35385Y-20969D01*
X35627Y-20969D01*
X35678Y-20948D01*
X35710Y-20917D01*
X35740Y-20948D01*
X35792Y-20969D01*
X35847Y-20969D01*
X36447Y-20969D01*
X36498Y-20948D01*
X36538Y-20909D01*
X36559Y-20857D01*
X36559Y-20802D01*
X36559Y-20008D01*
X36578Y-19989D01*
X36985Y-19989D01*
X36980Y-20002D01*
X36980Y-20057D01*
X36980Y-20614D01*
X36964Y-20637D01*
X36950Y-20710D01*
X36950Y-21357D01*
X36942Y-21339D01*
X36875Y-21271D01*
X36787Y-21235D01*
X36749Y-21235D01*
X36690Y-21295D01*
X36690Y-21639D01*
X36708Y-21639D01*
X36708Y-21760D01*
X36690Y-21760D01*
X36690Y-22104D01*
X36749Y-22164D01*
X36787Y-22164D01*
X36875Y-22128D01*
X36942Y-22060D01*
X36953Y-22035D01*
X36960Y-22043D01*
X37012Y-22064D01*
X37067Y-22064D01*
X37267Y-22064D01*
X37318Y-22043D01*
X37358Y-22004D01*
X37379Y-21952D01*
X37379Y-21897D01*
X37379Y-21447D01*
X37358Y-21396D01*
X37329Y-21367D01*
X37329Y-20969D01*
X37747Y-20969D01*
X37798Y-20948D01*
X37838Y-20909D01*
X37859Y-20857D01*
X37859Y-20802D01*
X37859Y-20002D01*
X37854Y-19989D01*
X38861Y-19989D01*
X39105Y-20233D01*
X39105Y-20342D01*
X39153Y-20457D01*
X39241Y-20546D01*
X39357Y-20594D01*
X39482Y-20594D01*
X39597Y-20546D01*
X39686Y-20458D01*
X39734Y-20342D01*
X39734Y-20217D01*
X39731Y-20209D01*
X43500Y-20209D01*
X43572Y-20195D01*
X43633Y-20153D01*
X44063Y-19723D01*
X44105Y-19662D01*
X44119Y-19590D01*
X44119Y-18984D01*
X44158Y-18968D01*
X44198Y-18929D01*
X44219Y-18877D01*
X44219Y-18822D01*
X44219Y-18322D01*
X44198Y-18271D01*
X44159Y-18231D01*
X44107Y-18210D01*
X44052Y-18210D01*
X43752Y-18210D01*
X43701Y-18231D01*
X43679Y-18252D01*
X43659Y-18231D01*
X43607Y-18210D01*
X43552Y-18210D01*
X43252Y-18210D01*
X43201Y-18231D01*
X43179Y-18252D01*
X43159Y-18231D01*
X43107Y-18210D01*
X43052Y-18210D01*
X42779Y-18210D01*
X42715Y-18146D01*
X42627Y-18110D01*
X42550Y-18110D01*
X42490Y-18170D01*
X42490Y-18539D01*
X42498Y-18539D01*
X42498Y-18660D01*
X42490Y-18660D01*
X42490Y-19029D01*
X42550Y-19089D01*
X42627Y-19089D01*
X42715Y-19053D01*
X42740Y-19028D01*
X42740Y-19051D01*
X42371Y-19420D01*
X42174Y-19420D01*
X42196Y-19398D01*
X42244Y-19282D01*
X42244Y-19157D01*
X42213Y-19081D01*
X42232Y-19089D01*
X42309Y-19089D01*
X42369Y-19029D01*
X42369Y-18660D01*
X42361Y-18660D01*
X42361Y-18539D01*
X42369Y-18539D01*
X42369Y-18317D01*
X42404Y-18232D01*
X42404Y-18137D01*
X42404Y-18080D01*
X42344Y-18020D01*
X42100Y-18020D01*
X42100Y-18028D01*
X41979Y-18028D01*
X41979Y-18020D01*
X41971Y-18020D01*
X41971Y-17899D01*
X41979Y-17899D01*
X41979Y-17891D01*
X42100Y-17891D01*
X42100Y-17899D01*
X42344Y-17899D01*
X42404Y-17839D01*
X42404Y-17782D01*
X42404Y-17769D01*
X45861Y-17769D01*
X46210Y-18118D01*
X46210Y-18380D01*
X46224Y-18452D01*
X46266Y-18513D01*
X46566Y-18813D01*
X46566Y-18813D01*
X46627Y-18855D01*
X46627Y-18855D01*
X46685Y-18866D01*
X46699Y-18869D01*
X46699Y-18869D01*
X46700Y-18869D01*
X47180Y-18869D01*
X47252Y-18855D01*
X47313Y-18813D01*
X47591Y-18535D01*
X47591Y-18535D01*
X47591Y-18535D01*
X47633Y-18474D01*
X47638Y-18447D01*
X47676Y-18409D01*
X47676Y-18040D01*
X47672Y-18040D01*
X47672Y-17919D01*
X47676Y-17919D01*
X47676Y-17550D01*
X47616Y-17490D01*
X47591Y-17490D01*
X47503Y-17526D01*
X47439Y-17590D01*
X47355Y-17590D01*
X47330Y-17600D01*
X47304Y-17590D01*
X47249Y-17590D01*
X47135Y-17590D01*
X47135Y-17276D01*
X47121Y-17203D01*
X47079Y-17142D01*
X46974Y-17036D01*
X46974Y-15913D01*
X46974Y-13551D01*
X46959Y-13347D01*
X46911Y-13231D01*
X46822Y-13205D01*
X46539Y-13489D01*
X46822Y-13772D01*
X46911Y-13746D01*
X46974Y-13551D01*
X46974Y-15913D01*
X46959Y-15709D01*
X46911Y-15593D01*
X46822Y-15567D01*
X46737Y-15653D01*
X46737Y-15482D01*
X46737Y-13857D01*
X46454Y-13574D01*
X46368Y-13660D01*
X46170Y-13857D01*
X46196Y-13946D01*
X46391Y-14009D01*
X46595Y-13994D01*
X46711Y-13946D01*
X46737Y-13857D01*
X46737Y-15482D01*
X46711Y-15393D01*
X46516Y-15330D01*
X46312Y-15345D01*
X46196Y-15393D01*
X46170Y-15482D01*
X46454Y-15765D01*
X46737Y-15482D01*
X46737Y-15653D01*
X46539Y-15851D01*
X46822Y-16134D01*
X46911Y-16108D01*
X46974Y-15913D01*
X46974Y-17036D01*
X46270Y-16332D01*
X46391Y-16371D01*
X46595Y-16356D01*
X46711Y-16308D01*
X46737Y-16219D01*
X46454Y-15936D01*
X46448Y-15942D01*
X46362Y-15856D01*
X46368Y-15851D01*
X46085Y-15567D01*
X45996Y-15593D01*
X45933Y-15788D01*
X45948Y-15992D01*
X45961Y-16023D01*
X44453Y-14516D01*
X44392Y-14474D01*
X44320Y-14460D01*
X43638Y-14460D01*
X43092Y-13914D01*
X43122Y-13914D01*
X43274Y-13851D01*
X43391Y-13735D01*
X43454Y-13582D01*
X43454Y-13417D01*
X43391Y-13265D01*
X43280Y-13154D01*
X43799Y-13154D01*
X43688Y-13264D01*
X43625Y-13417D01*
X43625Y-13582D01*
X43688Y-13734D01*
X43804Y-13851D01*
X43957Y-13914D01*
X44122Y-13914D01*
X44274Y-13851D01*
X44391Y-13735D01*
X44454Y-13582D01*
X44454Y-13417D01*
X44391Y-13265D01*
X44280Y-13154D01*
X44426Y-13154D01*
X44625Y-13353D01*
X44625Y-13802D01*
X44646Y-13853D01*
X44685Y-13893D01*
X44737Y-13914D01*
X44792Y-13914D01*
X45342Y-13914D01*
X45393Y-13893D01*
X45433Y-13854D01*
X45454Y-13802D01*
X45454Y-13747D01*
X45454Y-13353D01*
X45688Y-13119D01*
X46082Y-13119D01*
X46040Y-13161D01*
X46085Y-13205D01*
X45996Y-13231D01*
X45933Y-13426D01*
X45948Y-13630D01*
X45996Y-13746D01*
X46085Y-13772D01*
X46368Y-13489D01*
X46362Y-13483D01*
X46448Y-13397D01*
X46454Y-13403D01*
X46737Y-13120D01*
X46711Y-13031D01*
X46703Y-13029D01*
X47002Y-12730D01*
X47040Y-12768D01*
X47092Y-12789D01*
X47147Y-12789D01*
X47267Y-12789D01*
X47286Y-12816D01*
X47830Y-13361D01*
X47811Y-13406D01*
X47811Y-13571D01*
X47874Y-13723D01*
X47990Y-13840D01*
X48036Y-13859D01*
X48036Y-15480D01*
X47991Y-15499D01*
X47874Y-15615D01*
X47811Y-15768D01*
X47811Y-15933D01*
X47874Y-16085D01*
X47990Y-16202D01*
X48143Y-16265D01*
X48308Y-16265D01*
X48460Y-16202D01*
X48577Y-16086D01*
X48640Y-15933D01*
X48640Y-15768D01*
X48577Y-15616D01*
X48461Y-15499D01*
X48415Y-15480D01*
X48415Y-13859D01*
X48460Y-13840D01*
X48577Y-13724D01*
X48640Y-13571D01*
X48640Y-13406D01*
X48577Y-13254D01*
X48461Y-13137D01*
X48308Y-13074D01*
X48143Y-13074D01*
X48098Y-13093D01*
X47780Y-12775D01*
X47798Y-12768D01*
X47838Y-12729D01*
X47842Y-12719D01*
X47870Y-12719D01*
X47876Y-12733D01*
X47915Y-12773D01*
X47967Y-12794D01*
X48022Y-12794D01*
X48472Y-12794D01*
X48523Y-12773D01*
X48563Y-12734D01*
X48584Y-12682D01*
X48584Y-12627D01*
X48584Y-12377D01*
X48563Y-12326D01*
X48524Y-12286D01*
X48472Y-12265D01*
X48417Y-12265D01*
X47967Y-12265D01*
X47916Y-12286D01*
X47876Y-12325D01*
X47870Y-12340D01*
X47859Y-12340D01*
X47859Y-12092D01*
X47876Y-12133D01*
X47915Y-12173D01*
X47967Y-12194D01*
X48022Y-12194D01*
X48472Y-12194D01*
X48523Y-12173D01*
X48563Y-12134D01*
X48584Y-12082D01*
X48584Y-12027D01*
X48584Y-11777D01*
X48563Y-11726D01*
X48524Y-11686D01*
X48472Y-11665D01*
X48417Y-11665D01*
X48409Y-11665D01*
X48409Y-11377D01*
X48468Y-11352D01*
X48592Y-11229D01*
X48659Y-11067D01*
X48659Y-10892D01*
X48592Y-10731D01*
X48469Y-10607D01*
X48307Y-10540D01*
X48132Y-10540D01*
X47971Y-10607D01*
X47847Y-10730D01*
X47780Y-10892D01*
X47780Y-11067D01*
X47847Y-11228D01*
X47970Y-11352D01*
X48030Y-11377D01*
X48030Y-11665D01*
X47967Y-11665D01*
X47916Y-11686D01*
X47876Y-11725D01*
X47855Y-11777D01*
X47855Y-11812D01*
X47838Y-11771D01*
X47799Y-11731D01*
X47747Y-11710D01*
X47692Y-11710D01*
X47659Y-11710D01*
X47659Y-10892D01*
X47592Y-10731D01*
X47469Y-10607D01*
X47307Y-10540D01*
X47132Y-10540D01*
X46971Y-10607D01*
X46847Y-10730D01*
X46780Y-10892D01*
X46780Y-11067D01*
X46847Y-11228D01*
X46970Y-11352D01*
X47132Y-11419D01*
X47307Y-11419D01*
X47468Y-11352D01*
X47592Y-11229D01*
X47659Y-11067D01*
X47659Y-10892D01*
X47659Y-11710D01*
X47092Y-11710D01*
X47041Y-11731D01*
X47001Y-11770D01*
X46980Y-11822D01*
X46980Y-11877D01*
X46980Y-12216D01*
X46659Y-12537D01*
X46659Y-10892D01*
X46592Y-10731D01*
X46469Y-10607D01*
X46307Y-10540D01*
X46132Y-10540D01*
X45971Y-10607D01*
X45847Y-10730D01*
X45780Y-10892D01*
X45780Y-11067D01*
X45847Y-11228D01*
X45970Y-11352D01*
X46132Y-11419D01*
X46307Y-11419D01*
X46468Y-11352D01*
X46592Y-11229D01*
X46659Y-11067D01*
X46659Y-10892D01*
X46659Y-12537D01*
X46559Y-12637D01*
X46559Y-12622D01*
X46559Y-11822D01*
X46538Y-11771D01*
X46499Y-11731D01*
X46447Y-11710D01*
X46392Y-11710D01*
X45848Y-11710D01*
X45583Y-11446D01*
X45522Y-11404D01*
X45450Y-11390D01*
X45377Y-11390D01*
X45468Y-11352D01*
X45592Y-11229D01*
X45659Y-11067D01*
X45659Y-10892D01*
X45592Y-10731D01*
X45469Y-10607D01*
X45307Y-10540D01*
X45132Y-10540D01*
X44971Y-10607D01*
X44847Y-10730D01*
X44780Y-10892D01*
X44780Y-11067D01*
X44847Y-11228D01*
X44970Y-11352D01*
X45062Y-11390D01*
X44377Y-11390D01*
X44468Y-11352D01*
X44592Y-11229D01*
X44659Y-11067D01*
X44659Y-10892D01*
X44592Y-10731D01*
X44469Y-10607D01*
X44307Y-10540D01*
X44132Y-10540D01*
X43971Y-10607D01*
X43847Y-10730D01*
X43780Y-10892D01*
X43780Y-11067D01*
X43847Y-11228D01*
X43970Y-11352D01*
X44062Y-11390D01*
X44010Y-11390D01*
X43937Y-11404D01*
X43876Y-11446D01*
X43759Y-11562D01*
X43759Y-11232D01*
X43759Y-10727D01*
X43759Y-10632D01*
X43722Y-10544D01*
X43655Y-10476D01*
X43567Y-10440D01*
X43340Y-10440D01*
X43280Y-10500D01*
X43280Y-10919D01*
X43699Y-10919D01*
X43759Y-10859D01*
X43759Y-10727D01*
X43759Y-11232D01*
X43759Y-11100D01*
X43699Y-11040D01*
X43280Y-11040D01*
X43280Y-11459D01*
X43340Y-11519D01*
X43567Y-11519D01*
X43655Y-11483D01*
X43722Y-11415D01*
X43759Y-11327D01*
X43759Y-11232D01*
X43759Y-11562D01*
X43281Y-12040D01*
X43159Y-12040D01*
X43159Y-11459D01*
X43159Y-11040D01*
X43159Y-10919D01*
X43159Y-10500D01*
X43099Y-10440D01*
X42872Y-10440D01*
X42784Y-10476D01*
X42717Y-10544D01*
X42680Y-10632D01*
X42680Y-10727D01*
X42680Y-10859D01*
X42740Y-10919D01*
X43159Y-10919D01*
X43159Y-11040D01*
X42740Y-11040D01*
X42680Y-11100D01*
X42680Y-11232D01*
X42680Y-11327D01*
X42717Y-11415D01*
X42784Y-11483D01*
X42872Y-11519D01*
X43099Y-11519D01*
X43159Y-11459D01*
X43159Y-12040D01*
X42782Y-12040D01*
X42731Y-12061D01*
X42691Y-12100D01*
X42670Y-12152D01*
X42670Y-12207D01*
X42670Y-12592D01*
X42264Y-12186D01*
X42264Y-10865D01*
X42269Y-10840D01*
X42255Y-10767D01*
X42213Y-10706D01*
X42208Y-10701D01*
X41913Y-10406D01*
X41902Y-10398D01*
X48851Y-10398D01*
X48851Y-27751D01*
M02*
