G04 (created by PCBNEW (2013-03-31 BZR 4008)-stable) date 28/05/2013 4:07:30 PM*
%MOIN*%
G04 Gerber Fmt 3.4, Leading zero omitted, Abs format*
%FSLAX34Y34*%
G01*
G70*
G90*
G04 APERTURE LIST*
%ADD10C,0.006*%
%ADD11C,0.11811*%
%ADD12R,0.07X0.07*%
%ADD13C,0.16*%
%ADD14C,0.12*%
%ADD15R,0.06X0.06*%
%ADD16C,0.06*%
%ADD17C,0.1378*%
%ADD18C,0.055*%
%ADD19R,0.055X0.055*%
%ADD20C,0.035*%
%ADD21C,0.01*%
%ADD22C,0.0079*%
G04 APERTURE END LIST*
G54D10*
G54D11*
X23320Y-26531D03*
G54D12*
X23320Y-21493D03*
X24974Y-21493D03*
X26626Y-21493D03*
X28280Y-21493D03*
X23320Y-23657D03*
X24974Y-23657D03*
X26626Y-23657D03*
X28280Y-23657D03*
G54D11*
X28280Y-26531D03*
G54D13*
X26400Y-20075D03*
G54D14*
X11600Y-25950D03*
X20200Y-25950D03*
G54D15*
X17900Y-25250D03*
G54D16*
X17900Y-26250D03*
X16900Y-25250D03*
X16900Y-26250D03*
X15900Y-25250D03*
X15900Y-26250D03*
X14900Y-25250D03*
X14900Y-26250D03*
X13900Y-25250D03*
X13900Y-26250D03*
G54D14*
X20200Y-11800D03*
X11600Y-11800D03*
G54D15*
X13900Y-12500D03*
G54D16*
X13900Y-11500D03*
X14900Y-12500D03*
X14900Y-11500D03*
X15900Y-12500D03*
X15900Y-11500D03*
X16900Y-12500D03*
X16900Y-11500D03*
X17900Y-12500D03*
X17900Y-11500D03*
G54D17*
X27900Y-13400D03*
X23900Y-13400D03*
G54D16*
X24900Y-15400D03*
X25900Y-15400D03*
G54D18*
X40319Y-26886D03*
X40319Y-25114D03*
X42681Y-26886D03*
X42681Y-25114D03*
G54D15*
X47200Y-17500D03*
G54D16*
X48200Y-17500D03*
X47200Y-18500D03*
X48200Y-18500D03*
X47200Y-19500D03*
X48200Y-19500D03*
G54D15*
X48100Y-16000D03*
G54D16*
X48100Y-15000D03*
X48100Y-14000D03*
X48100Y-13000D03*
X48100Y-12000D03*
X48100Y-11000D03*
G54D15*
X37500Y-11000D03*
G54D16*
X36500Y-11000D03*
X35500Y-11000D03*
G54D18*
X43500Y-12000D03*
X42500Y-12000D03*
X41500Y-12000D03*
X40500Y-12000D03*
X39500Y-12000D03*
X38500Y-12000D03*
X37500Y-12000D03*
X36500Y-12000D03*
X35500Y-12000D03*
X34500Y-12000D03*
X33500Y-12000D03*
X32500Y-12000D03*
X31500Y-12000D03*
G54D19*
X44500Y-12000D03*
G54D18*
X31500Y-15000D03*
X32500Y-15000D03*
X33500Y-15000D03*
X34500Y-15000D03*
X35500Y-15000D03*
X36500Y-15000D03*
X37500Y-15000D03*
X38500Y-15000D03*
X39500Y-15000D03*
X40500Y-15000D03*
X41500Y-15000D03*
X42500Y-15000D03*
X43500Y-15000D03*
X44500Y-15000D03*
G54D16*
X46500Y-11000D03*
X45500Y-11000D03*
X44500Y-11000D03*
X43500Y-11000D03*
X42500Y-11000D03*
X41500Y-11000D03*
X40500Y-11000D03*
X39500Y-11000D03*
X38500Y-11000D03*
X34500Y-11000D03*
X33500Y-11000D03*
X32500Y-11000D03*
X31500Y-11000D03*
X31500Y-16000D03*
X32500Y-16000D03*
X33500Y-16000D03*
X34500Y-16000D03*
X35500Y-16000D03*
X36500Y-16000D03*
X37500Y-16000D03*
X38500Y-16000D03*
X39500Y-16000D03*
X40500Y-16000D03*
X41500Y-16000D03*
X42500Y-16000D03*
X43500Y-16000D03*
X44500Y-16000D03*
X45500Y-16000D03*
X46500Y-16000D03*
G54D15*
X29725Y-15950D03*
G54D16*
X29725Y-14950D03*
X29725Y-13950D03*
G54D13*
X45525Y-20075D03*
G54D20*
X31925Y-20225D03*
X39375Y-12875D03*
X28825Y-16700D03*
X28825Y-18125D03*
X42000Y-21050D03*
X45475Y-25400D03*
X33900Y-24200D03*
X37700Y-23300D03*
X40150Y-22450D03*
X45500Y-22750D03*
X39400Y-19100D03*
X31775Y-17075D03*
X31100Y-22725D03*
X43880Y-18200D03*
X37350Y-16900D03*
X38175Y-18875D03*
X35500Y-16900D03*
X43000Y-17520D03*
X36250Y-19550D03*
X45600Y-18160D03*
X32400Y-25700D03*
X33850Y-22100D03*
X39100Y-21900D03*
X40550Y-19050D03*
X37700Y-17700D03*
X48300Y-21600D03*
X31950Y-25900D03*
X35950Y-21100D03*
X37100Y-21300D03*
X38675Y-19350D03*
X44700Y-23700D03*
X44700Y-22900D03*
X44600Y-24200D03*
X41400Y-22900D03*
X43500Y-13000D03*
G54D21*
X23320Y-21493D02*
X23320Y-21595D01*
X31925Y-22725D02*
X31925Y-20225D01*
X31250Y-23400D02*
X31925Y-22725D01*
X30725Y-23400D02*
X31250Y-23400D01*
X29950Y-22625D02*
X30725Y-23400D01*
X24350Y-22625D02*
X29950Y-22625D01*
X23320Y-21595D02*
X24350Y-22625D01*
X13900Y-25250D02*
X13900Y-25075D01*
X15400Y-11300D02*
X15700Y-11000D01*
X15700Y-11000D02*
X18150Y-11000D01*
X18150Y-11000D02*
X18450Y-11300D01*
X18450Y-11300D02*
X18450Y-11950D01*
X18450Y-11950D02*
X17900Y-12500D01*
X15400Y-23575D02*
X15400Y-12200D01*
X13900Y-25075D02*
X15400Y-23575D01*
X15400Y-12200D02*
X15400Y-11300D01*
X14900Y-25250D02*
X14900Y-25150D01*
X16900Y-14900D02*
X16900Y-23150D01*
X16900Y-23150D02*
X14900Y-25150D01*
X16900Y-14900D02*
X16900Y-12500D01*
X14400Y-24975D02*
X14400Y-25750D01*
X16400Y-13650D02*
X16400Y-22975D01*
X16400Y-22975D02*
X14400Y-24975D01*
X14400Y-25750D02*
X13900Y-26250D01*
X16400Y-13650D02*
X16400Y-12250D01*
X17400Y-12000D02*
X17900Y-11500D01*
X16650Y-12000D02*
X17400Y-12000D01*
X16400Y-12250D02*
X16650Y-12000D01*
X16400Y-13600D02*
X16400Y-13650D01*
X38500Y-13750D02*
X38500Y-15000D01*
X39375Y-12875D02*
X38500Y-13750D01*
X28825Y-18125D02*
X28825Y-16700D01*
X42000Y-21050D02*
X42375Y-21050D01*
X45125Y-22375D02*
X45500Y-22750D01*
X43700Y-22375D02*
X45125Y-22375D01*
X42375Y-21050D02*
X43700Y-22375D01*
X45475Y-25400D02*
X45500Y-25375D01*
X45500Y-25375D02*
X45500Y-22750D01*
X34800Y-23300D02*
X37700Y-23300D01*
X33900Y-24200D02*
X34800Y-23300D01*
X39400Y-19100D02*
X39400Y-21700D01*
X39400Y-21700D02*
X40150Y-22450D01*
X37700Y-23300D02*
X39300Y-23300D01*
X39300Y-23300D02*
X40150Y-22450D01*
X39000Y-17200D02*
X39000Y-15500D01*
X39400Y-19100D02*
X39000Y-18700D01*
X39000Y-18700D02*
X39000Y-17200D01*
X39000Y-15500D02*
X38500Y-15000D01*
X46500Y-16000D02*
X46700Y-16000D01*
X46700Y-16000D02*
X48200Y-17500D01*
X29725Y-13950D02*
X29825Y-13950D01*
X30775Y-16075D02*
X31775Y-17075D01*
X30775Y-14900D02*
X30775Y-16075D01*
X29825Y-13950D02*
X30775Y-14900D01*
X29725Y-15950D02*
X29725Y-21350D01*
X29725Y-21350D02*
X31100Y-22725D01*
X18400Y-10500D02*
X43800Y-10500D01*
X44000Y-10700D02*
X43800Y-10500D01*
X44000Y-13300D02*
X44000Y-10700D01*
X43500Y-13800D02*
X43500Y-15000D01*
X43500Y-13800D02*
X44000Y-13300D01*
X17900Y-25250D02*
X17900Y-24625D01*
X19100Y-13500D02*
X19100Y-11200D01*
X19100Y-23425D02*
X19100Y-13500D01*
X17900Y-24625D02*
X19100Y-23425D01*
X19100Y-11200D02*
X18400Y-10500D01*
X13300Y-11800D02*
X13300Y-11900D01*
X18400Y-10500D02*
X13850Y-10500D01*
X13850Y-10500D02*
X13300Y-11050D01*
X13300Y-11050D02*
X13300Y-11800D01*
X13300Y-11900D02*
X13900Y-12500D01*
X17412Y-24687D02*
X18800Y-23300D01*
X18800Y-11250D02*
X18300Y-10750D01*
X18800Y-23300D02*
X18800Y-11250D01*
X14900Y-11500D02*
X15650Y-10750D01*
X15650Y-10750D02*
X18300Y-10750D01*
X17412Y-25737D02*
X16900Y-26250D01*
X17412Y-24687D02*
X17412Y-25737D01*
X44180Y-18500D02*
X47200Y-18500D01*
X43880Y-18200D02*
X44180Y-18500D01*
X37350Y-18050D02*
X37350Y-16900D01*
X38175Y-18875D02*
X37350Y-18050D01*
X35500Y-16000D02*
X35500Y-16900D01*
X43000Y-17520D02*
X43000Y-13500D01*
X41500Y-12000D02*
X43000Y-13500D01*
X36300Y-19500D02*
X36250Y-19550D01*
X37000Y-14700D02*
X37000Y-16350D01*
X37000Y-14700D02*
X39200Y-12500D01*
X39200Y-12500D02*
X40000Y-12500D01*
X40500Y-12000D02*
X40000Y-12500D01*
X37000Y-16350D02*
X36300Y-17050D01*
X36300Y-17050D02*
X36300Y-19500D01*
X36500Y-15000D02*
X36500Y-13000D01*
X36500Y-13000D02*
X37500Y-12000D01*
X14900Y-26250D02*
X14975Y-26250D01*
X16400Y-25750D02*
X16900Y-25250D01*
X15475Y-25750D02*
X16400Y-25750D01*
X14975Y-26250D02*
X15475Y-25750D01*
X38500Y-16000D02*
X38500Y-16900D01*
X38500Y-16900D02*
X37700Y-17700D01*
X48200Y-21500D02*
X48200Y-20050D01*
X48300Y-21600D02*
X48200Y-21500D01*
X48200Y-20050D02*
X48200Y-19500D01*
X45500Y-11000D02*
X45500Y-16000D01*
X36500Y-11000D02*
X37500Y-12000D01*
X31950Y-25100D02*
X31950Y-25900D01*
X35950Y-21100D02*
X31950Y-25100D01*
X38700Y-19750D02*
X38700Y-19375D01*
X37150Y-21300D02*
X37100Y-21300D01*
X38700Y-19750D02*
X37150Y-21300D01*
X38700Y-19375D02*
X38675Y-19350D01*
X44700Y-22900D02*
X44700Y-23700D01*
X43400Y-23000D02*
X41500Y-23000D01*
X44600Y-24200D02*
X43400Y-23000D01*
X41500Y-23000D02*
X41400Y-22900D01*
X46000Y-11500D02*
X46000Y-16180D01*
X47200Y-19200D02*
X47700Y-18700D01*
X47700Y-18700D02*
X47700Y-18300D01*
X47700Y-18300D02*
X47400Y-18000D01*
X46500Y-11000D02*
X46000Y-11500D01*
X47200Y-19200D02*
X47200Y-19500D01*
X46860Y-18000D02*
X47400Y-18000D01*
X46720Y-17860D02*
X46860Y-18000D01*
X46720Y-16900D02*
X46720Y-17860D01*
X46000Y-16180D02*
X46720Y-16900D01*
X43500Y-13000D02*
X43500Y-12000D01*
G54D10*
G36*
X16991Y-11505D02*
X16905Y-11591D01*
X16900Y-11585D01*
X16894Y-11591D01*
X16814Y-11511D01*
X16808Y-11505D01*
X16814Y-11500D01*
X16808Y-11494D01*
X16894Y-11408D01*
X16900Y-11414D01*
X16905Y-11408D01*
X16991Y-11494D01*
X16985Y-11500D01*
X16991Y-11505D01*
X16991Y-11505D01*
G37*
G54D22*
X16991Y-11505D02*
X16905Y-11591D01*
X16900Y-11585D01*
X16894Y-11591D01*
X16814Y-11511D01*
X16808Y-11505D01*
X16814Y-11500D01*
X16808Y-11494D01*
X16894Y-11408D01*
X16900Y-11414D01*
X16905Y-11408D01*
X16991Y-11494D01*
X16985Y-11500D01*
X16991Y-11505D01*
G54D10*
G36*
X48851Y-27351D02*
X48745Y-27351D01*
X48745Y-19568D01*
X48730Y-19354D01*
X48677Y-19227D01*
X48639Y-19215D01*
X48639Y-18412D01*
X48572Y-18251D01*
X48449Y-18127D01*
X48287Y-18060D01*
X48112Y-18060D01*
X47951Y-18127D01*
X47865Y-18213D01*
X47833Y-18166D01*
X47833Y-18166D01*
X47582Y-17914D01*
X47618Y-17879D01*
X47639Y-17827D01*
X47639Y-17772D01*
X47639Y-17207D01*
X47785Y-17353D01*
X47760Y-17412D01*
X47760Y-17587D01*
X47827Y-17748D01*
X47950Y-17872D01*
X48112Y-17939D01*
X48287Y-17939D01*
X48448Y-17872D01*
X48572Y-17749D01*
X48639Y-17587D01*
X48639Y-17412D01*
X48639Y-17412D01*
X48639Y-16347D01*
X48639Y-15652D01*
X48603Y-15564D01*
X48539Y-15500D01*
X48539Y-14912D01*
X48539Y-13912D01*
X48539Y-12912D01*
X48539Y-11912D01*
X48539Y-10912D01*
X48472Y-10751D01*
X48349Y-10627D01*
X48187Y-10560D01*
X48012Y-10560D01*
X47851Y-10627D01*
X47727Y-10750D01*
X47660Y-10912D01*
X47660Y-11087D01*
X47727Y-11248D01*
X47850Y-11372D01*
X48012Y-11439D01*
X48187Y-11439D01*
X48348Y-11372D01*
X48472Y-11249D01*
X48539Y-11087D01*
X48539Y-10912D01*
X48539Y-11912D01*
X48472Y-11751D01*
X48349Y-11627D01*
X48187Y-11560D01*
X48012Y-11560D01*
X47851Y-11627D01*
X47727Y-11750D01*
X47660Y-11912D01*
X47660Y-12087D01*
X47727Y-12248D01*
X47850Y-12372D01*
X48012Y-12439D01*
X48187Y-12439D01*
X48348Y-12372D01*
X48472Y-12249D01*
X48539Y-12087D01*
X48539Y-11912D01*
X48539Y-12912D01*
X48472Y-12751D01*
X48349Y-12627D01*
X48187Y-12560D01*
X48012Y-12560D01*
X47851Y-12627D01*
X47727Y-12750D01*
X47660Y-12912D01*
X47660Y-13087D01*
X47727Y-13248D01*
X47850Y-13372D01*
X48012Y-13439D01*
X48187Y-13439D01*
X48348Y-13372D01*
X48472Y-13249D01*
X48539Y-13087D01*
X48539Y-12912D01*
X48539Y-13912D01*
X48472Y-13751D01*
X48349Y-13627D01*
X48187Y-13560D01*
X48012Y-13560D01*
X47851Y-13627D01*
X47727Y-13750D01*
X47660Y-13912D01*
X47660Y-14087D01*
X47727Y-14248D01*
X47850Y-14372D01*
X48012Y-14439D01*
X48187Y-14439D01*
X48348Y-14372D01*
X48472Y-14249D01*
X48539Y-14087D01*
X48539Y-13912D01*
X48539Y-14912D01*
X48472Y-14751D01*
X48349Y-14627D01*
X48187Y-14560D01*
X48012Y-14560D01*
X47851Y-14627D01*
X47727Y-14750D01*
X47660Y-14912D01*
X47660Y-15087D01*
X47727Y-15248D01*
X47850Y-15372D01*
X48012Y-15439D01*
X48187Y-15439D01*
X48348Y-15372D01*
X48472Y-15249D01*
X48539Y-15087D01*
X48539Y-14912D01*
X48539Y-15500D01*
X48535Y-15497D01*
X48447Y-15460D01*
X48352Y-15460D01*
X48220Y-15460D01*
X48160Y-15520D01*
X48160Y-15939D01*
X48579Y-15939D01*
X48639Y-15879D01*
X48639Y-15652D01*
X48639Y-16347D01*
X48639Y-16120D01*
X48579Y-16060D01*
X48160Y-16060D01*
X48160Y-16479D01*
X48220Y-16539D01*
X48352Y-16539D01*
X48447Y-16539D01*
X48535Y-16502D01*
X48603Y-16435D01*
X48639Y-16347D01*
X48639Y-17412D01*
X48572Y-17251D01*
X48449Y-17127D01*
X48287Y-17060D01*
X48112Y-17060D01*
X48053Y-17085D01*
X48039Y-17071D01*
X48039Y-16479D01*
X48039Y-16060D01*
X48039Y-15939D01*
X48039Y-15520D01*
X47979Y-15460D01*
X47847Y-15460D01*
X47752Y-15460D01*
X47664Y-15497D01*
X47596Y-15564D01*
X47560Y-15652D01*
X47560Y-15879D01*
X47620Y-15939D01*
X48039Y-15939D01*
X48039Y-16060D01*
X47620Y-16060D01*
X47560Y-16120D01*
X47560Y-16347D01*
X47596Y-16435D01*
X47664Y-16502D01*
X47752Y-16539D01*
X47847Y-16539D01*
X47979Y-16539D01*
X48039Y-16479D01*
X48039Y-17071D01*
X46939Y-15971D01*
X46939Y-15912D01*
X46872Y-15751D01*
X46749Y-15627D01*
X46587Y-15560D01*
X46412Y-15560D01*
X46251Y-15627D01*
X46189Y-15688D01*
X46189Y-11578D01*
X46353Y-11414D01*
X46412Y-11439D01*
X46587Y-11439D01*
X46748Y-11372D01*
X46872Y-11249D01*
X46939Y-11087D01*
X46939Y-10912D01*
X46872Y-10751D01*
X46749Y-10627D01*
X46587Y-10560D01*
X46412Y-10560D01*
X46251Y-10627D01*
X46127Y-10750D01*
X46060Y-10912D01*
X46060Y-11087D01*
X46085Y-11146D01*
X45987Y-11244D01*
X46045Y-11068D01*
X46030Y-10854D01*
X45977Y-10727D01*
X45886Y-10698D01*
X45801Y-10784D01*
X45801Y-10613D01*
X45772Y-10522D01*
X45568Y-10454D01*
X45354Y-10469D01*
X45227Y-10522D01*
X45198Y-10613D01*
X45500Y-10914D01*
X45801Y-10613D01*
X45801Y-10784D01*
X45585Y-11000D01*
X45591Y-11005D01*
X45505Y-11091D01*
X45500Y-11085D01*
X45414Y-11171D01*
X45414Y-11000D01*
X45113Y-10698D01*
X45022Y-10727D01*
X44954Y-10931D01*
X44969Y-11145D01*
X45022Y-11272D01*
X45113Y-11301D01*
X45414Y-11000D01*
X45414Y-11171D01*
X45198Y-11386D01*
X45227Y-11477D01*
X45431Y-11545D01*
X45645Y-11530D01*
X45772Y-11477D01*
X45801Y-11386D01*
X45801Y-11386D01*
X45831Y-11417D01*
X45824Y-11427D01*
X45810Y-11500D01*
X45810Y-15603D01*
X45801Y-15613D01*
X45801Y-15613D01*
X45772Y-15522D01*
X45568Y-15454D01*
X45354Y-15469D01*
X45227Y-15522D01*
X45198Y-15613D01*
X45500Y-15914D01*
X45505Y-15908D01*
X45591Y-15994D01*
X45585Y-16000D01*
X45821Y-16236D01*
X45824Y-16252D01*
X45866Y-16313D01*
X46530Y-16978D01*
X46530Y-17860D01*
X46544Y-17932D01*
X46586Y-17993D01*
X46726Y-18133D01*
X46726Y-18133D01*
X46787Y-18175D01*
X46860Y-18189D01*
X46888Y-18189D01*
X46827Y-18250D01*
X46802Y-18310D01*
X45801Y-18310D01*
X45801Y-16386D01*
X45500Y-16085D01*
X45414Y-16171D01*
X45414Y-16000D01*
X45113Y-15698D01*
X45022Y-15727D01*
X44954Y-15931D01*
X44969Y-16145D01*
X45022Y-16272D01*
X45113Y-16301D01*
X45414Y-16000D01*
X45414Y-16171D01*
X45198Y-16386D01*
X45227Y-16477D01*
X45431Y-16545D01*
X45645Y-16530D01*
X45772Y-16477D01*
X45801Y-16386D01*
X45801Y-18310D01*
X44939Y-18310D01*
X44939Y-15912D01*
X44914Y-15852D01*
X44914Y-14917D01*
X44851Y-14765D01*
X44735Y-14648D01*
X44582Y-14585D01*
X44417Y-14585D01*
X44265Y-14648D01*
X44148Y-14764D01*
X44085Y-14917D01*
X44085Y-15082D01*
X44148Y-15234D01*
X44264Y-15351D01*
X44417Y-15414D01*
X44582Y-15414D01*
X44734Y-15351D01*
X44851Y-15235D01*
X44914Y-15082D01*
X44914Y-14917D01*
X44914Y-15852D01*
X44872Y-15751D01*
X44749Y-15627D01*
X44587Y-15560D01*
X44412Y-15560D01*
X44251Y-15627D01*
X44127Y-15750D01*
X44060Y-15912D01*
X44060Y-16087D01*
X44127Y-16248D01*
X44250Y-16372D01*
X44412Y-16439D01*
X44587Y-16439D01*
X44748Y-16372D01*
X44872Y-16249D01*
X44939Y-16087D01*
X44939Y-15912D01*
X44939Y-18310D01*
X44258Y-18310D01*
X44194Y-18246D01*
X44194Y-18137D01*
X44146Y-18022D01*
X44058Y-17933D01*
X43942Y-17885D01*
X43817Y-17885D01*
X43702Y-17933D01*
X43613Y-18021D01*
X43565Y-18137D01*
X43565Y-18262D01*
X43613Y-18377D01*
X43701Y-18466D01*
X43817Y-18514D01*
X43926Y-18514D01*
X44046Y-18633D01*
X44046Y-18633D01*
X44107Y-18675D01*
X44107Y-18675D01*
X44165Y-18686D01*
X44179Y-18689D01*
X44179Y-18689D01*
X44180Y-18689D01*
X46802Y-18689D01*
X46827Y-18748D01*
X46950Y-18872D01*
X47112Y-18939D01*
X47192Y-18939D01*
X47066Y-19066D01*
X47053Y-19085D01*
X46951Y-19127D01*
X46827Y-19250D01*
X46760Y-19412D01*
X46760Y-19587D01*
X46827Y-19748D01*
X46950Y-19872D01*
X47112Y-19939D01*
X47287Y-19939D01*
X47448Y-19872D01*
X47572Y-19749D01*
X47639Y-19587D01*
X47639Y-19412D01*
X47572Y-19251D01*
X47494Y-19173D01*
X47833Y-18833D01*
X47865Y-18786D01*
X47950Y-18872D01*
X48112Y-18939D01*
X48287Y-18939D01*
X48448Y-18872D01*
X48572Y-18749D01*
X48639Y-18587D01*
X48639Y-18412D01*
X48639Y-19215D01*
X48586Y-19198D01*
X48501Y-19284D01*
X48501Y-19113D01*
X48472Y-19022D01*
X48268Y-18954D01*
X48054Y-18969D01*
X47927Y-19022D01*
X47898Y-19113D01*
X48200Y-19414D01*
X48501Y-19113D01*
X48501Y-19284D01*
X48285Y-19500D01*
X48586Y-19801D01*
X48677Y-19772D01*
X48745Y-19568D01*
X48745Y-27351D01*
X48501Y-27351D01*
X48501Y-19886D01*
X48200Y-19585D01*
X48114Y-19671D01*
X48114Y-19500D01*
X47813Y-19198D01*
X47722Y-19227D01*
X47654Y-19431D01*
X47669Y-19645D01*
X47722Y-19772D01*
X47813Y-19801D01*
X48114Y-19500D01*
X48114Y-19671D01*
X47898Y-19886D01*
X47927Y-19977D01*
X48131Y-20045D01*
X48345Y-20030D01*
X48472Y-19977D01*
X48501Y-19886D01*
X48501Y-27351D01*
X46464Y-27351D01*
X46464Y-19888D01*
X46321Y-19543D01*
X46057Y-19278D01*
X45712Y-19135D01*
X45338Y-19135D01*
X44993Y-19278D01*
X44728Y-19542D01*
X44585Y-19887D01*
X44585Y-20261D01*
X44728Y-20606D01*
X44992Y-20871D01*
X45337Y-21014D01*
X45711Y-21014D01*
X46056Y-20871D01*
X46321Y-20607D01*
X46464Y-20262D01*
X46464Y-19888D01*
X46464Y-27351D01*
X45814Y-27351D01*
X45814Y-22687D01*
X45766Y-22572D01*
X45678Y-22483D01*
X45562Y-22435D01*
X45453Y-22435D01*
X45258Y-22241D01*
X45197Y-22199D01*
X45125Y-22185D01*
X43778Y-22185D01*
X42508Y-20916D01*
X42447Y-20874D01*
X42375Y-20860D01*
X42255Y-20860D01*
X42178Y-20783D01*
X42062Y-20735D01*
X41939Y-20735D01*
X41939Y-15912D01*
X41914Y-15852D01*
X41914Y-14917D01*
X41851Y-14765D01*
X41735Y-14648D01*
X41582Y-14585D01*
X41417Y-14585D01*
X41265Y-14648D01*
X41148Y-14764D01*
X41085Y-14917D01*
X41085Y-15082D01*
X41148Y-15234D01*
X41264Y-15351D01*
X41417Y-15414D01*
X41582Y-15414D01*
X41734Y-15351D01*
X41851Y-15235D01*
X41914Y-15082D01*
X41914Y-14917D01*
X41914Y-15852D01*
X41872Y-15751D01*
X41749Y-15627D01*
X41587Y-15560D01*
X41412Y-15560D01*
X41251Y-15627D01*
X41127Y-15750D01*
X41060Y-15912D01*
X41060Y-16087D01*
X41127Y-16248D01*
X41250Y-16372D01*
X41412Y-16439D01*
X41587Y-16439D01*
X41748Y-16372D01*
X41872Y-16249D01*
X41939Y-16087D01*
X41939Y-15912D01*
X41939Y-20735D01*
X41937Y-20735D01*
X41822Y-20783D01*
X41733Y-20871D01*
X41685Y-20987D01*
X41685Y-21112D01*
X41733Y-21227D01*
X41821Y-21316D01*
X41937Y-21364D01*
X42062Y-21364D01*
X42177Y-21316D01*
X42255Y-21239D01*
X42296Y-21239D01*
X43566Y-22508D01*
X43566Y-22508D01*
X43627Y-22550D01*
X43627Y-22550D01*
X43685Y-22561D01*
X43699Y-22564D01*
X43699Y-22564D01*
X43700Y-22564D01*
X45046Y-22564D01*
X45185Y-22703D01*
X45185Y-22812D01*
X45233Y-22927D01*
X45310Y-23005D01*
X45310Y-25127D01*
X45297Y-25133D01*
X45208Y-25221D01*
X45160Y-25337D01*
X45160Y-25462D01*
X45208Y-25577D01*
X45296Y-25666D01*
X45412Y-25714D01*
X45537Y-25714D01*
X45652Y-25666D01*
X45741Y-25578D01*
X45789Y-25462D01*
X45789Y-25337D01*
X45741Y-25222D01*
X45689Y-25169D01*
X45689Y-23005D01*
X45766Y-22928D01*
X45814Y-22812D01*
X45814Y-22687D01*
X45814Y-27351D01*
X45014Y-27351D01*
X45014Y-23637D01*
X44966Y-23522D01*
X44889Y-23444D01*
X44889Y-23155D01*
X44966Y-23078D01*
X45014Y-22962D01*
X45014Y-22837D01*
X44966Y-22722D01*
X44878Y-22633D01*
X44762Y-22585D01*
X44637Y-22585D01*
X44522Y-22633D01*
X44433Y-22721D01*
X44385Y-22837D01*
X44385Y-22962D01*
X44433Y-23077D01*
X44510Y-23155D01*
X44510Y-23444D01*
X44433Y-23521D01*
X44385Y-23637D01*
X44385Y-23717D01*
X43533Y-22866D01*
X43472Y-22824D01*
X43400Y-22810D01*
X41703Y-22810D01*
X41666Y-22722D01*
X41578Y-22633D01*
X41462Y-22585D01*
X41337Y-22585D01*
X41222Y-22633D01*
X41133Y-22721D01*
X41085Y-22837D01*
X41085Y-22962D01*
X41133Y-23077D01*
X41221Y-23166D01*
X41337Y-23214D01*
X41462Y-23214D01*
X41522Y-23189D01*
X43321Y-23189D01*
X44285Y-24153D01*
X44285Y-24262D01*
X44333Y-24377D01*
X44421Y-24466D01*
X44537Y-24514D01*
X44662Y-24514D01*
X44777Y-24466D01*
X44866Y-24378D01*
X44914Y-24262D01*
X44914Y-24137D01*
X44866Y-24022D01*
X44830Y-23986D01*
X44877Y-23966D01*
X44966Y-23878D01*
X45014Y-23762D01*
X45014Y-23637D01*
X45014Y-27351D01*
X43201Y-27351D01*
X43201Y-25176D01*
X43186Y-24972D01*
X43138Y-24856D01*
X43049Y-24830D01*
X42964Y-24916D01*
X42964Y-24745D01*
X42938Y-24656D01*
X42743Y-24593D01*
X42539Y-24608D01*
X42423Y-24656D01*
X42397Y-24745D01*
X42681Y-25028D01*
X42964Y-24745D01*
X42964Y-24916D01*
X42766Y-25114D01*
X43049Y-25397D01*
X43138Y-25371D01*
X43201Y-25176D01*
X43201Y-27351D01*
X43095Y-27351D01*
X43095Y-26803D01*
X43032Y-26651D01*
X42964Y-26582D01*
X42964Y-25482D01*
X42681Y-25199D01*
X42595Y-25285D01*
X42595Y-25114D01*
X42312Y-24830D01*
X42223Y-24856D01*
X42160Y-25051D01*
X42175Y-25255D01*
X42223Y-25371D01*
X42312Y-25397D01*
X42595Y-25114D01*
X42595Y-25285D01*
X42397Y-25482D01*
X42423Y-25571D01*
X42618Y-25634D01*
X42822Y-25619D01*
X42938Y-25571D01*
X42964Y-25482D01*
X42964Y-26582D01*
X42916Y-26534D01*
X42763Y-26471D01*
X42598Y-26471D01*
X42446Y-26534D01*
X42329Y-26650D01*
X42266Y-26803D01*
X42266Y-26968D01*
X42329Y-27120D01*
X42445Y-27237D01*
X42598Y-27300D01*
X42763Y-27300D01*
X42915Y-27237D01*
X43032Y-27121D01*
X43095Y-26968D01*
X43095Y-26803D01*
X43095Y-27351D01*
X40939Y-27351D01*
X40939Y-15912D01*
X40914Y-15852D01*
X40914Y-14917D01*
X40914Y-11917D01*
X40851Y-11765D01*
X40735Y-11648D01*
X40582Y-11585D01*
X40417Y-11585D01*
X40265Y-11648D01*
X40148Y-11764D01*
X40085Y-11917D01*
X40085Y-12082D01*
X40104Y-12127D01*
X39921Y-12310D01*
X39775Y-12310D01*
X39851Y-12235D01*
X39914Y-12082D01*
X39914Y-11917D01*
X39851Y-11765D01*
X39735Y-11648D01*
X39582Y-11585D01*
X39417Y-11585D01*
X39265Y-11648D01*
X39148Y-11764D01*
X39085Y-11917D01*
X39085Y-12082D01*
X39148Y-12234D01*
X39224Y-12310D01*
X39200Y-12310D01*
X39127Y-12324D01*
X39066Y-12366D01*
X39066Y-12366D01*
X38914Y-12517D01*
X38914Y-11917D01*
X38851Y-11765D01*
X38735Y-11648D01*
X38582Y-11585D01*
X38417Y-11585D01*
X38265Y-11648D01*
X38148Y-11764D01*
X38085Y-11917D01*
X38085Y-12082D01*
X38148Y-12234D01*
X38264Y-12351D01*
X38417Y-12414D01*
X38582Y-12414D01*
X38734Y-12351D01*
X38851Y-12235D01*
X38914Y-12082D01*
X38914Y-11917D01*
X38914Y-12517D01*
X38020Y-13411D01*
X38020Y-12062D01*
X38005Y-11858D01*
X37957Y-11742D01*
X37868Y-11716D01*
X37783Y-11802D01*
X37783Y-11631D01*
X37757Y-11542D01*
X37562Y-11479D01*
X37358Y-11494D01*
X37242Y-11542D01*
X37216Y-11631D01*
X37500Y-11914D01*
X37783Y-11631D01*
X37783Y-11802D01*
X37585Y-12000D01*
X37868Y-12283D01*
X37957Y-12257D01*
X38020Y-12062D01*
X38020Y-13411D01*
X37783Y-13648D01*
X37783Y-12368D01*
X37500Y-12085D01*
X37414Y-12171D01*
X37414Y-12000D01*
X37131Y-11716D01*
X37045Y-11741D01*
X37042Y-11742D01*
X36979Y-11937D01*
X36994Y-12141D01*
X37042Y-12257D01*
X37131Y-12283D01*
X37414Y-12000D01*
X37414Y-12171D01*
X37216Y-12368D01*
X37242Y-12457D01*
X37437Y-12520D01*
X37641Y-12505D01*
X37757Y-12457D01*
X37783Y-12368D01*
X37783Y-13648D01*
X36914Y-14517D01*
X36914Y-11917D01*
X36851Y-11765D01*
X36801Y-11715D01*
X36801Y-11386D01*
X36500Y-11085D01*
X36414Y-11171D01*
X36198Y-11386D01*
X36227Y-11477D01*
X36431Y-11545D01*
X36645Y-11530D01*
X36772Y-11477D01*
X36801Y-11386D01*
X36801Y-11715D01*
X36735Y-11648D01*
X36582Y-11585D01*
X36417Y-11585D01*
X36265Y-11648D01*
X36148Y-11764D01*
X36085Y-11917D01*
X36085Y-12082D01*
X36148Y-12234D01*
X36264Y-12351D01*
X36417Y-12414D01*
X36582Y-12414D01*
X36734Y-12351D01*
X36851Y-12235D01*
X36914Y-12082D01*
X36914Y-11917D01*
X36914Y-14517D01*
X36866Y-14566D01*
X36842Y-14601D01*
X36827Y-14586D01*
X36783Y-14631D01*
X36757Y-14542D01*
X36562Y-14479D01*
X36358Y-14494D01*
X36242Y-14542D01*
X36216Y-14631D01*
X36500Y-14914D01*
X36505Y-14908D01*
X36591Y-14994D01*
X36585Y-15000D01*
X36591Y-15005D01*
X36505Y-15091D01*
X36500Y-15085D01*
X36414Y-15171D01*
X36414Y-15000D01*
X36131Y-14716D01*
X36042Y-14742D01*
X35979Y-14937D01*
X35994Y-15141D01*
X36042Y-15257D01*
X36131Y-15283D01*
X36414Y-15000D01*
X36414Y-15171D01*
X36216Y-15368D01*
X36242Y-15457D01*
X36321Y-15483D01*
X36227Y-15522D01*
X36198Y-15613D01*
X36500Y-15914D01*
X36505Y-15908D01*
X36591Y-15994D01*
X36585Y-16000D01*
X36591Y-16005D01*
X36505Y-16091D01*
X36500Y-16085D01*
X36414Y-16171D01*
X36414Y-16000D01*
X36113Y-15698D01*
X36022Y-15727D01*
X35954Y-15931D01*
X35969Y-16145D01*
X36022Y-16272D01*
X36113Y-16301D01*
X36414Y-16000D01*
X36414Y-16171D01*
X36198Y-16386D01*
X36227Y-16477D01*
X36431Y-16545D01*
X36544Y-16537D01*
X36166Y-16916D01*
X36124Y-16977D01*
X36110Y-17050D01*
X36110Y-19267D01*
X36072Y-19283D01*
X35983Y-19371D01*
X35939Y-19477D01*
X35939Y-15912D01*
X35914Y-15852D01*
X35914Y-14917D01*
X35914Y-11917D01*
X35851Y-11765D01*
X35735Y-11648D01*
X35582Y-11585D01*
X35417Y-11585D01*
X35265Y-11648D01*
X35148Y-11764D01*
X35085Y-11917D01*
X35085Y-12082D01*
X35148Y-12234D01*
X35264Y-12351D01*
X35417Y-12414D01*
X35582Y-12414D01*
X35734Y-12351D01*
X35851Y-12235D01*
X35914Y-12082D01*
X35914Y-11917D01*
X35914Y-14917D01*
X35851Y-14765D01*
X35735Y-14648D01*
X35582Y-14585D01*
X35417Y-14585D01*
X35265Y-14648D01*
X35148Y-14764D01*
X35085Y-14917D01*
X35085Y-15082D01*
X35148Y-15234D01*
X35264Y-15351D01*
X35417Y-15414D01*
X35582Y-15414D01*
X35734Y-15351D01*
X35851Y-15235D01*
X35914Y-15082D01*
X35914Y-14917D01*
X35914Y-15852D01*
X35872Y-15751D01*
X35749Y-15627D01*
X35587Y-15560D01*
X35412Y-15560D01*
X35251Y-15627D01*
X35127Y-15750D01*
X35060Y-15912D01*
X35060Y-16087D01*
X35127Y-16248D01*
X35250Y-16372D01*
X35310Y-16397D01*
X35310Y-16644D01*
X35233Y-16721D01*
X35185Y-16837D01*
X35185Y-16962D01*
X35233Y-17077D01*
X35321Y-17166D01*
X35437Y-17214D01*
X35562Y-17214D01*
X35677Y-17166D01*
X35766Y-17078D01*
X35814Y-16962D01*
X35814Y-16837D01*
X35766Y-16722D01*
X35689Y-16644D01*
X35689Y-16397D01*
X35748Y-16372D01*
X35872Y-16249D01*
X35939Y-16087D01*
X35939Y-15912D01*
X35939Y-19477D01*
X35935Y-19487D01*
X35935Y-19612D01*
X35983Y-19727D01*
X36071Y-19816D01*
X36187Y-19864D01*
X36312Y-19864D01*
X36427Y-19816D01*
X36516Y-19728D01*
X36564Y-19612D01*
X36564Y-19487D01*
X36516Y-19372D01*
X36489Y-19344D01*
X36489Y-17128D01*
X37133Y-16483D01*
X37133Y-16483D01*
X37133Y-16483D01*
X37175Y-16422D01*
X37175Y-16422D01*
X37186Y-16364D01*
X37189Y-16350D01*
X37189Y-16350D01*
X37189Y-16350D01*
X37189Y-16311D01*
X37250Y-16372D01*
X37412Y-16439D01*
X37587Y-16439D01*
X37748Y-16372D01*
X37872Y-16249D01*
X37939Y-16087D01*
X37939Y-15912D01*
X37872Y-15751D01*
X37749Y-15627D01*
X37587Y-15560D01*
X37412Y-15560D01*
X37251Y-15627D01*
X37189Y-15688D01*
X37189Y-15275D01*
X37264Y-15351D01*
X37417Y-15414D01*
X37582Y-15414D01*
X37734Y-15351D01*
X37851Y-15235D01*
X37914Y-15082D01*
X37914Y-14917D01*
X37851Y-14765D01*
X37735Y-14648D01*
X37582Y-14585D01*
X37417Y-14585D01*
X37357Y-14610D01*
X39060Y-12907D01*
X39060Y-12921D01*
X38366Y-13616D01*
X38324Y-13677D01*
X38310Y-13750D01*
X38310Y-14629D01*
X38265Y-14648D01*
X38148Y-14764D01*
X38085Y-14917D01*
X38085Y-15082D01*
X38148Y-15234D01*
X38264Y-15351D01*
X38417Y-15414D01*
X38582Y-15414D01*
X38627Y-15395D01*
X38744Y-15512D01*
X38568Y-15454D01*
X38354Y-15469D01*
X38227Y-15522D01*
X38198Y-15613D01*
X38500Y-15914D01*
X38505Y-15908D01*
X38591Y-15994D01*
X38585Y-16000D01*
X38591Y-16005D01*
X38505Y-16091D01*
X38500Y-16085D01*
X38414Y-16171D01*
X38414Y-16000D01*
X38113Y-15698D01*
X38022Y-15727D01*
X37954Y-15931D01*
X37969Y-16145D01*
X38022Y-16272D01*
X38113Y-16301D01*
X38414Y-16000D01*
X38414Y-16171D01*
X38198Y-16386D01*
X38227Y-16477D01*
X38431Y-16545D01*
X38645Y-16530D01*
X38772Y-16477D01*
X38801Y-16386D01*
X38801Y-16386D01*
X38810Y-16396D01*
X38810Y-17200D01*
X38810Y-18700D01*
X38824Y-18772D01*
X38866Y-18833D01*
X39085Y-19053D01*
X39085Y-19162D01*
X39133Y-19277D01*
X39210Y-19355D01*
X39210Y-21700D01*
X39224Y-21772D01*
X39266Y-21833D01*
X39835Y-22403D01*
X39835Y-22496D01*
X39221Y-23110D01*
X38989Y-23110D01*
X38989Y-19287D01*
X38941Y-19172D01*
X38853Y-19083D01*
X38801Y-19061D01*
X38737Y-19035D01*
X38612Y-19035D01*
X38497Y-19083D01*
X38489Y-19090D01*
X38489Y-18812D01*
X38441Y-18697D01*
X38353Y-18608D01*
X38237Y-18560D01*
X38128Y-18560D01*
X37539Y-17971D01*
X37539Y-17155D01*
X37616Y-17078D01*
X37664Y-16962D01*
X37664Y-16837D01*
X37616Y-16722D01*
X37528Y-16633D01*
X37412Y-16585D01*
X37287Y-16585D01*
X37172Y-16633D01*
X37083Y-16721D01*
X37035Y-16837D01*
X37035Y-16962D01*
X37083Y-17077D01*
X37160Y-17155D01*
X37160Y-18050D01*
X37174Y-18122D01*
X37216Y-18183D01*
X37860Y-18828D01*
X37860Y-18937D01*
X37908Y-19052D01*
X37996Y-19141D01*
X38112Y-19189D01*
X38237Y-19189D01*
X38352Y-19141D01*
X38441Y-19053D01*
X38489Y-18937D01*
X38489Y-18812D01*
X38489Y-19090D01*
X38408Y-19171D01*
X38360Y-19287D01*
X38360Y-19412D01*
X38408Y-19527D01*
X38496Y-19616D01*
X38510Y-19622D01*
X38510Y-19671D01*
X37186Y-20995D01*
X37162Y-20985D01*
X37037Y-20985D01*
X36922Y-21033D01*
X36833Y-21121D01*
X36785Y-21237D01*
X36785Y-21362D01*
X36833Y-21477D01*
X36921Y-21566D01*
X37037Y-21614D01*
X37162Y-21614D01*
X37277Y-21566D01*
X37366Y-21478D01*
X37414Y-21362D01*
X37414Y-21303D01*
X38833Y-19883D01*
X38833Y-19883D01*
X38833Y-19883D01*
X38875Y-19822D01*
X38875Y-19822D01*
X38886Y-19764D01*
X38889Y-19750D01*
X38889Y-19750D01*
X38889Y-19750D01*
X38889Y-19580D01*
X38941Y-19528D01*
X38989Y-19412D01*
X38989Y-19287D01*
X38989Y-23110D01*
X37955Y-23110D01*
X37878Y-23033D01*
X37762Y-22985D01*
X37637Y-22985D01*
X37522Y-23033D01*
X37444Y-23110D01*
X36264Y-23110D01*
X36264Y-21037D01*
X36216Y-20922D01*
X36128Y-20833D01*
X36012Y-20785D01*
X35887Y-20785D01*
X35772Y-20833D01*
X35683Y-20921D01*
X35635Y-21037D01*
X35635Y-21146D01*
X34939Y-21842D01*
X34939Y-15912D01*
X34914Y-15852D01*
X34914Y-14917D01*
X34914Y-11917D01*
X34851Y-11765D01*
X34735Y-11648D01*
X34582Y-11585D01*
X34417Y-11585D01*
X34265Y-11648D01*
X34148Y-11764D01*
X34085Y-11917D01*
X34085Y-12082D01*
X34148Y-12234D01*
X34264Y-12351D01*
X34417Y-12414D01*
X34582Y-12414D01*
X34734Y-12351D01*
X34851Y-12235D01*
X34914Y-12082D01*
X34914Y-11917D01*
X34914Y-14917D01*
X34851Y-14765D01*
X34735Y-14648D01*
X34582Y-14585D01*
X34417Y-14585D01*
X34265Y-14648D01*
X34148Y-14764D01*
X34085Y-14917D01*
X34085Y-15082D01*
X34148Y-15234D01*
X34264Y-15351D01*
X34417Y-15414D01*
X34582Y-15414D01*
X34734Y-15351D01*
X34851Y-15235D01*
X34914Y-15082D01*
X34914Y-14917D01*
X34914Y-15852D01*
X34872Y-15751D01*
X34749Y-15627D01*
X34587Y-15560D01*
X34412Y-15560D01*
X34251Y-15627D01*
X34127Y-15750D01*
X34060Y-15912D01*
X34060Y-16087D01*
X34127Y-16248D01*
X34250Y-16372D01*
X34412Y-16439D01*
X34587Y-16439D01*
X34748Y-16372D01*
X34872Y-16249D01*
X34939Y-16087D01*
X34939Y-15912D01*
X34939Y-21842D01*
X33939Y-22842D01*
X33939Y-15912D01*
X33914Y-15852D01*
X33914Y-14917D01*
X33914Y-11917D01*
X33851Y-11765D01*
X33735Y-11648D01*
X33582Y-11585D01*
X33417Y-11585D01*
X33265Y-11648D01*
X33148Y-11764D01*
X33085Y-11917D01*
X33085Y-12082D01*
X33148Y-12234D01*
X33264Y-12351D01*
X33417Y-12414D01*
X33582Y-12414D01*
X33734Y-12351D01*
X33851Y-12235D01*
X33914Y-12082D01*
X33914Y-11917D01*
X33914Y-14917D01*
X33851Y-14765D01*
X33735Y-14648D01*
X33582Y-14585D01*
X33417Y-14585D01*
X33265Y-14648D01*
X33148Y-14764D01*
X33085Y-14917D01*
X33085Y-15082D01*
X33148Y-15234D01*
X33264Y-15351D01*
X33417Y-15414D01*
X33582Y-15414D01*
X33734Y-15351D01*
X33851Y-15235D01*
X33914Y-15082D01*
X33914Y-14917D01*
X33914Y-15852D01*
X33872Y-15751D01*
X33749Y-15627D01*
X33587Y-15560D01*
X33412Y-15560D01*
X33251Y-15627D01*
X33127Y-15750D01*
X33060Y-15912D01*
X33060Y-16087D01*
X33127Y-16248D01*
X33250Y-16372D01*
X33412Y-16439D01*
X33587Y-16439D01*
X33748Y-16372D01*
X33872Y-16249D01*
X33939Y-16087D01*
X33939Y-15912D01*
X33939Y-22842D01*
X32939Y-23842D01*
X32939Y-15912D01*
X32914Y-15852D01*
X32914Y-14917D01*
X32914Y-11917D01*
X32851Y-11765D01*
X32735Y-11648D01*
X32582Y-11585D01*
X32417Y-11585D01*
X32265Y-11648D01*
X32148Y-11764D01*
X32085Y-11917D01*
X32085Y-12082D01*
X32148Y-12234D01*
X32264Y-12351D01*
X32417Y-12414D01*
X32582Y-12414D01*
X32734Y-12351D01*
X32851Y-12235D01*
X32914Y-12082D01*
X32914Y-11917D01*
X32914Y-14917D01*
X32851Y-14765D01*
X32735Y-14648D01*
X32582Y-14585D01*
X32417Y-14585D01*
X32265Y-14648D01*
X32148Y-14764D01*
X32085Y-14917D01*
X32085Y-15082D01*
X32148Y-15234D01*
X32264Y-15351D01*
X32417Y-15414D01*
X32582Y-15414D01*
X32734Y-15351D01*
X32851Y-15235D01*
X32914Y-15082D01*
X32914Y-14917D01*
X32914Y-15852D01*
X32872Y-15751D01*
X32749Y-15627D01*
X32587Y-15560D01*
X32412Y-15560D01*
X32251Y-15627D01*
X32127Y-15750D01*
X32060Y-15912D01*
X32060Y-16087D01*
X32127Y-16248D01*
X32250Y-16372D01*
X32412Y-16439D01*
X32587Y-16439D01*
X32748Y-16372D01*
X32872Y-16249D01*
X32939Y-16087D01*
X32939Y-15912D01*
X32939Y-23842D01*
X32239Y-24542D01*
X32239Y-20162D01*
X32191Y-20047D01*
X32103Y-19958D01*
X32089Y-19952D01*
X32089Y-17012D01*
X32041Y-16897D01*
X31953Y-16808D01*
X31837Y-16760D01*
X31728Y-16760D01*
X31404Y-16436D01*
X31412Y-16439D01*
X31587Y-16439D01*
X31748Y-16372D01*
X31872Y-16249D01*
X31939Y-16087D01*
X31939Y-15912D01*
X31914Y-15852D01*
X31914Y-14917D01*
X31914Y-11917D01*
X31851Y-11765D01*
X31735Y-11648D01*
X31582Y-11585D01*
X31417Y-11585D01*
X31265Y-11648D01*
X31148Y-11764D01*
X31085Y-11917D01*
X31085Y-12082D01*
X31148Y-12234D01*
X31264Y-12351D01*
X31417Y-12414D01*
X31582Y-12414D01*
X31734Y-12351D01*
X31851Y-12235D01*
X31914Y-12082D01*
X31914Y-11917D01*
X31914Y-14917D01*
X31851Y-14765D01*
X31735Y-14648D01*
X31582Y-14585D01*
X31417Y-14585D01*
X31265Y-14648D01*
X31148Y-14764D01*
X31085Y-14917D01*
X31085Y-15082D01*
X31148Y-15234D01*
X31264Y-15351D01*
X31417Y-15414D01*
X31582Y-15414D01*
X31734Y-15351D01*
X31851Y-15235D01*
X31914Y-15082D01*
X31914Y-14917D01*
X31914Y-15852D01*
X31872Y-15751D01*
X31749Y-15627D01*
X31587Y-15560D01*
X31412Y-15560D01*
X31251Y-15627D01*
X31127Y-15750D01*
X31060Y-15912D01*
X31060Y-16087D01*
X31064Y-16096D01*
X30964Y-15996D01*
X30964Y-14900D01*
X30950Y-14827D01*
X30908Y-14766D01*
X30908Y-14766D01*
X30164Y-14021D01*
X30164Y-13862D01*
X30097Y-13701D01*
X29974Y-13577D01*
X29812Y-13510D01*
X29637Y-13510D01*
X29476Y-13577D01*
X29352Y-13700D01*
X29285Y-13862D01*
X29285Y-14037D01*
X29352Y-14198D01*
X29475Y-14322D01*
X29637Y-14389D01*
X29812Y-14389D01*
X29942Y-14335D01*
X30585Y-14978D01*
X30585Y-16075D01*
X30599Y-16147D01*
X30641Y-16208D01*
X31460Y-17028D01*
X31460Y-17137D01*
X31508Y-17252D01*
X31596Y-17341D01*
X31712Y-17389D01*
X31837Y-17389D01*
X31952Y-17341D01*
X32041Y-17253D01*
X32089Y-17137D01*
X32089Y-17012D01*
X32089Y-19952D01*
X31987Y-19910D01*
X31862Y-19910D01*
X31747Y-19958D01*
X31658Y-20046D01*
X31610Y-20162D01*
X31610Y-20287D01*
X31658Y-20402D01*
X31735Y-20480D01*
X31735Y-22646D01*
X31414Y-22967D01*
X31414Y-22662D01*
X31366Y-22547D01*
X31278Y-22458D01*
X31162Y-22410D01*
X31053Y-22410D01*
X30164Y-21521D01*
X30164Y-14862D01*
X30097Y-14701D01*
X29974Y-14577D01*
X29812Y-14510D01*
X29637Y-14510D01*
X29476Y-14577D01*
X29352Y-14700D01*
X29285Y-14862D01*
X29285Y-15037D01*
X29352Y-15198D01*
X29475Y-15322D01*
X29637Y-15389D01*
X29812Y-15389D01*
X29973Y-15322D01*
X30097Y-15199D01*
X30164Y-15037D01*
X30164Y-14862D01*
X30164Y-21521D01*
X29914Y-21271D01*
X29914Y-16389D01*
X30052Y-16389D01*
X30103Y-16368D01*
X30143Y-16329D01*
X30164Y-16277D01*
X30164Y-16222D01*
X30164Y-15622D01*
X30143Y-15571D01*
X30104Y-15531D01*
X30052Y-15510D01*
X29997Y-15510D01*
X29397Y-15510D01*
X29346Y-15531D01*
X29306Y-15570D01*
X29285Y-15622D01*
X29285Y-15677D01*
X29285Y-16277D01*
X29306Y-16328D01*
X29345Y-16368D01*
X29397Y-16389D01*
X29452Y-16389D01*
X29535Y-16389D01*
X29535Y-21350D01*
X29549Y-21422D01*
X29591Y-21483D01*
X30785Y-22678D01*
X30785Y-22787D01*
X30833Y-22902D01*
X30921Y-22991D01*
X31037Y-23039D01*
X31162Y-23039D01*
X31277Y-22991D01*
X31366Y-22903D01*
X31414Y-22787D01*
X31414Y-22662D01*
X31414Y-22967D01*
X31171Y-23210D01*
X30803Y-23210D01*
X30083Y-22491D01*
X30022Y-22449D01*
X29950Y-22435D01*
X29139Y-22435D01*
X29139Y-18062D01*
X29091Y-17947D01*
X29014Y-17869D01*
X29014Y-16955D01*
X29091Y-16878D01*
X29139Y-16762D01*
X29139Y-16637D01*
X29091Y-16522D01*
X29003Y-16433D01*
X28887Y-16385D01*
X28762Y-16385D01*
X28728Y-16399D01*
X28728Y-13235D01*
X28602Y-12931D01*
X28369Y-12698D01*
X28065Y-12571D01*
X27735Y-12571D01*
X27431Y-12697D01*
X27198Y-12930D01*
X27071Y-13234D01*
X27071Y-13564D01*
X27197Y-13868D01*
X27430Y-14101D01*
X27734Y-14228D01*
X28064Y-14228D01*
X28368Y-14102D01*
X28601Y-13869D01*
X28728Y-13565D01*
X28728Y-13235D01*
X28728Y-16399D01*
X28647Y-16433D01*
X28558Y-16521D01*
X28510Y-16637D01*
X28510Y-16762D01*
X28558Y-16877D01*
X28635Y-16955D01*
X28635Y-17869D01*
X28558Y-17946D01*
X28510Y-18062D01*
X28510Y-18187D01*
X28558Y-18302D01*
X28646Y-18391D01*
X28762Y-18439D01*
X28887Y-18439D01*
X29002Y-18391D01*
X29091Y-18303D01*
X29139Y-18187D01*
X29139Y-18062D01*
X29139Y-22435D01*
X28769Y-22435D01*
X28769Y-21815D01*
X28769Y-21115D01*
X28748Y-21064D01*
X28709Y-21024D01*
X28657Y-21003D01*
X28602Y-21003D01*
X27902Y-21003D01*
X27851Y-21024D01*
X27811Y-21063D01*
X27790Y-21115D01*
X27790Y-21170D01*
X27790Y-21870D01*
X27811Y-21921D01*
X27850Y-21961D01*
X27902Y-21982D01*
X27957Y-21982D01*
X28657Y-21982D01*
X28708Y-21961D01*
X28748Y-21922D01*
X28769Y-21870D01*
X28769Y-21815D01*
X28769Y-22435D01*
X27339Y-22435D01*
X27339Y-19888D01*
X27196Y-19543D01*
X26932Y-19278D01*
X26587Y-19135D01*
X26339Y-19135D01*
X26339Y-15312D01*
X26272Y-15151D01*
X26149Y-15027D01*
X25987Y-14960D01*
X25812Y-14960D01*
X25651Y-15027D01*
X25527Y-15150D01*
X25460Y-15312D01*
X25460Y-15487D01*
X25527Y-15648D01*
X25650Y-15772D01*
X25812Y-15839D01*
X25987Y-15839D01*
X26148Y-15772D01*
X26272Y-15649D01*
X26339Y-15487D01*
X26339Y-15312D01*
X26339Y-19135D01*
X26213Y-19135D01*
X25868Y-19278D01*
X25603Y-19542D01*
X25460Y-19887D01*
X25460Y-20261D01*
X25603Y-20606D01*
X25867Y-20871D01*
X26212Y-21014D01*
X26222Y-21014D01*
X26197Y-21024D01*
X26157Y-21063D01*
X26136Y-21115D01*
X26136Y-21170D01*
X26136Y-21870D01*
X26157Y-21921D01*
X26196Y-21961D01*
X26248Y-21982D01*
X26303Y-21982D01*
X27003Y-21982D01*
X27054Y-21961D01*
X27094Y-21922D01*
X27115Y-21870D01*
X27115Y-21815D01*
X27115Y-21115D01*
X27094Y-21064D01*
X27055Y-21024D01*
X27003Y-21003D01*
X26948Y-21003D01*
X26613Y-21003D01*
X26931Y-20871D01*
X27196Y-20607D01*
X27339Y-20262D01*
X27339Y-19888D01*
X27339Y-22435D01*
X25463Y-22435D01*
X25463Y-21815D01*
X25463Y-21115D01*
X25445Y-21072D01*
X25445Y-15468D01*
X25430Y-15254D01*
X25377Y-15127D01*
X25286Y-15098D01*
X25201Y-15184D01*
X25201Y-15013D01*
X25172Y-14922D01*
X24968Y-14854D01*
X24754Y-14869D01*
X24728Y-14880D01*
X24728Y-13235D01*
X24602Y-12931D01*
X24369Y-12698D01*
X24065Y-12571D01*
X23735Y-12571D01*
X23431Y-12697D01*
X23198Y-12930D01*
X23071Y-13234D01*
X23071Y-13564D01*
X23197Y-13868D01*
X23430Y-14101D01*
X23734Y-14228D01*
X24064Y-14228D01*
X24368Y-14102D01*
X24601Y-13869D01*
X24728Y-13565D01*
X24728Y-13235D01*
X24728Y-14880D01*
X24627Y-14922D01*
X24598Y-15013D01*
X24900Y-15314D01*
X25201Y-15013D01*
X25201Y-15184D01*
X24985Y-15400D01*
X25286Y-15701D01*
X25377Y-15672D01*
X25445Y-15468D01*
X25445Y-21072D01*
X25442Y-21064D01*
X25403Y-21024D01*
X25351Y-21003D01*
X25296Y-21003D01*
X25201Y-21003D01*
X25201Y-15786D01*
X24900Y-15485D01*
X24814Y-15571D01*
X24814Y-15400D01*
X24513Y-15098D01*
X24422Y-15127D01*
X24354Y-15331D01*
X24369Y-15545D01*
X24422Y-15672D01*
X24513Y-15701D01*
X24814Y-15400D01*
X24814Y-15571D01*
X24598Y-15786D01*
X24627Y-15877D01*
X24831Y-15945D01*
X25045Y-15930D01*
X25172Y-15877D01*
X25201Y-15786D01*
X25201Y-21003D01*
X24596Y-21003D01*
X24545Y-21024D01*
X24505Y-21063D01*
X24484Y-21115D01*
X24484Y-21170D01*
X24484Y-21870D01*
X24505Y-21921D01*
X24544Y-21961D01*
X24596Y-21982D01*
X24651Y-21982D01*
X25351Y-21982D01*
X25402Y-21961D01*
X25442Y-21922D01*
X25463Y-21870D01*
X25463Y-21815D01*
X25463Y-22435D01*
X24428Y-22435D01*
X23809Y-21816D01*
X23809Y-21815D01*
X23809Y-21115D01*
X23788Y-21064D01*
X23749Y-21024D01*
X23697Y-21003D01*
X23642Y-21003D01*
X22942Y-21003D01*
X22891Y-21024D01*
X22851Y-21063D01*
X22830Y-21115D01*
X22830Y-21170D01*
X22830Y-21870D01*
X22851Y-21921D01*
X22890Y-21961D01*
X22942Y-21982D01*
X22997Y-21982D01*
X23439Y-21982D01*
X24216Y-22758D01*
X24216Y-22758D01*
X24277Y-22800D01*
X24350Y-22814D01*
X29871Y-22814D01*
X30591Y-23533D01*
X30591Y-23533D01*
X30652Y-23575D01*
X30725Y-23589D01*
X31250Y-23589D01*
X31322Y-23575D01*
X31383Y-23533D01*
X32058Y-22858D01*
X32100Y-22797D01*
X32114Y-22725D01*
X32114Y-20480D01*
X32191Y-20403D01*
X32239Y-20287D01*
X32239Y-20162D01*
X32239Y-24542D01*
X31816Y-24966D01*
X31774Y-25027D01*
X31760Y-25100D01*
X31760Y-25644D01*
X31683Y-25721D01*
X31635Y-25837D01*
X31635Y-25962D01*
X31683Y-26077D01*
X31771Y-26166D01*
X31887Y-26214D01*
X32012Y-26214D01*
X32127Y-26166D01*
X32216Y-26078D01*
X32264Y-25962D01*
X32264Y-25837D01*
X32216Y-25722D01*
X32139Y-25644D01*
X32139Y-25178D01*
X35903Y-21414D01*
X36012Y-21414D01*
X36127Y-21366D01*
X36216Y-21278D01*
X36264Y-21162D01*
X36264Y-21037D01*
X36264Y-23110D01*
X34800Y-23110D01*
X34727Y-23124D01*
X34666Y-23166D01*
X33946Y-23885D01*
X33837Y-23885D01*
X33722Y-23933D01*
X33633Y-24021D01*
X33585Y-24137D01*
X33585Y-24262D01*
X33633Y-24377D01*
X33721Y-24466D01*
X33837Y-24514D01*
X33962Y-24514D01*
X34077Y-24466D01*
X34166Y-24378D01*
X34214Y-24262D01*
X34214Y-24153D01*
X34878Y-23489D01*
X37444Y-23489D01*
X37521Y-23566D01*
X37637Y-23614D01*
X37762Y-23614D01*
X37877Y-23566D01*
X37955Y-23489D01*
X39300Y-23489D01*
X39372Y-23475D01*
X39433Y-23433D01*
X40103Y-22764D01*
X40212Y-22764D01*
X40327Y-22716D01*
X40416Y-22628D01*
X40464Y-22512D01*
X40464Y-22387D01*
X40416Y-22272D01*
X40328Y-22183D01*
X40212Y-22135D01*
X40103Y-22135D01*
X39589Y-21621D01*
X39589Y-19355D01*
X39666Y-19278D01*
X39714Y-19162D01*
X39714Y-19037D01*
X39666Y-18922D01*
X39578Y-18833D01*
X39462Y-18785D01*
X39353Y-18785D01*
X39189Y-18621D01*
X39189Y-17200D01*
X39189Y-16311D01*
X39250Y-16372D01*
X39412Y-16439D01*
X39587Y-16439D01*
X39748Y-16372D01*
X39872Y-16249D01*
X39939Y-16087D01*
X39939Y-15912D01*
X39914Y-15852D01*
X39914Y-14917D01*
X39851Y-14765D01*
X39735Y-14648D01*
X39582Y-14585D01*
X39417Y-14585D01*
X39265Y-14648D01*
X39148Y-14764D01*
X39085Y-14917D01*
X39085Y-15082D01*
X39148Y-15234D01*
X39264Y-15351D01*
X39417Y-15414D01*
X39582Y-15414D01*
X39734Y-15351D01*
X39851Y-15235D01*
X39914Y-15082D01*
X39914Y-14917D01*
X39914Y-15852D01*
X39872Y-15751D01*
X39749Y-15627D01*
X39587Y-15560D01*
X39412Y-15560D01*
X39251Y-15627D01*
X39189Y-15688D01*
X39189Y-15500D01*
X39175Y-15427D01*
X39133Y-15366D01*
X38895Y-15127D01*
X38914Y-15082D01*
X38914Y-14917D01*
X38851Y-14765D01*
X38735Y-14648D01*
X38689Y-14629D01*
X38689Y-13828D01*
X39328Y-13189D01*
X39437Y-13189D01*
X39552Y-13141D01*
X39641Y-13053D01*
X39689Y-12937D01*
X39689Y-12812D01*
X39641Y-12697D01*
X39634Y-12689D01*
X40000Y-12689D01*
X40072Y-12675D01*
X40133Y-12633D01*
X40372Y-12395D01*
X40417Y-12414D01*
X40582Y-12414D01*
X40734Y-12351D01*
X40851Y-12235D01*
X40914Y-12082D01*
X40914Y-11917D01*
X40914Y-14917D01*
X40851Y-14765D01*
X40735Y-14648D01*
X40582Y-14585D01*
X40417Y-14585D01*
X40265Y-14648D01*
X40148Y-14764D01*
X40085Y-14917D01*
X40085Y-15082D01*
X40148Y-15234D01*
X40264Y-15351D01*
X40417Y-15414D01*
X40582Y-15414D01*
X40734Y-15351D01*
X40851Y-15235D01*
X40914Y-15082D01*
X40914Y-14917D01*
X40914Y-15852D01*
X40872Y-15751D01*
X40749Y-15627D01*
X40587Y-15560D01*
X40412Y-15560D01*
X40251Y-15627D01*
X40127Y-15750D01*
X40060Y-15912D01*
X40060Y-16087D01*
X40127Y-16248D01*
X40250Y-16372D01*
X40412Y-16439D01*
X40587Y-16439D01*
X40748Y-16372D01*
X40872Y-16249D01*
X40939Y-16087D01*
X40939Y-15912D01*
X40939Y-27351D01*
X40839Y-27351D01*
X40839Y-25176D01*
X40824Y-24972D01*
X40776Y-24856D01*
X40687Y-24830D01*
X40602Y-24916D01*
X40602Y-24745D01*
X40576Y-24656D01*
X40381Y-24593D01*
X40177Y-24608D01*
X40061Y-24656D01*
X40035Y-24745D01*
X40319Y-25028D01*
X40602Y-24745D01*
X40602Y-24916D01*
X40404Y-25114D01*
X40687Y-25397D01*
X40776Y-25371D01*
X40839Y-25176D01*
X40839Y-27351D01*
X40733Y-27351D01*
X40733Y-26803D01*
X40670Y-26651D01*
X40602Y-26582D01*
X40602Y-25482D01*
X40319Y-25199D01*
X40233Y-25285D01*
X40233Y-25114D01*
X39950Y-24830D01*
X39861Y-24856D01*
X39798Y-25051D01*
X39813Y-25255D01*
X39861Y-25371D01*
X39950Y-25397D01*
X40233Y-25114D01*
X40233Y-25285D01*
X40035Y-25482D01*
X40061Y-25571D01*
X40256Y-25634D01*
X40460Y-25619D01*
X40576Y-25571D01*
X40602Y-25482D01*
X40602Y-26582D01*
X40554Y-26534D01*
X40401Y-26471D01*
X40236Y-26471D01*
X40084Y-26534D01*
X39967Y-26650D01*
X39904Y-26803D01*
X39904Y-26968D01*
X39967Y-27120D01*
X40083Y-27237D01*
X40236Y-27300D01*
X40401Y-27300D01*
X40553Y-27237D01*
X40670Y-27121D01*
X40733Y-26968D01*
X40733Y-26803D01*
X40733Y-27351D01*
X29010Y-27351D01*
X29010Y-26387D01*
X28899Y-26118D01*
X28869Y-26088D01*
X28869Y-23959D01*
X28869Y-23354D01*
X28869Y-23259D01*
X28832Y-23171D01*
X28765Y-23103D01*
X28677Y-23067D01*
X28400Y-23067D01*
X28340Y-23127D01*
X28340Y-23596D01*
X28809Y-23596D01*
X28869Y-23536D01*
X28869Y-23354D01*
X28869Y-23959D01*
X28869Y-23777D01*
X28809Y-23717D01*
X28340Y-23717D01*
X28340Y-24186D01*
X28400Y-24246D01*
X28677Y-24246D01*
X28765Y-24210D01*
X28832Y-24142D01*
X28869Y-24054D01*
X28869Y-23959D01*
X28869Y-26088D01*
X28694Y-25913D01*
X28425Y-25801D01*
X28219Y-25801D01*
X28219Y-24186D01*
X28219Y-23717D01*
X28219Y-23596D01*
X28219Y-23127D01*
X28159Y-23067D01*
X27882Y-23067D01*
X27794Y-23103D01*
X27727Y-23171D01*
X27690Y-23259D01*
X27690Y-23354D01*
X27690Y-23536D01*
X27750Y-23596D01*
X28219Y-23596D01*
X28219Y-23717D01*
X27750Y-23717D01*
X27690Y-23777D01*
X27690Y-23959D01*
X27690Y-24054D01*
X27727Y-24142D01*
X27794Y-24210D01*
X27882Y-24246D01*
X28159Y-24246D01*
X28219Y-24186D01*
X28219Y-25801D01*
X28135Y-25801D01*
X27866Y-25912D01*
X27661Y-26117D01*
X27550Y-26385D01*
X27549Y-26676D01*
X27660Y-26944D01*
X27865Y-27150D01*
X28134Y-27261D01*
X28424Y-27261D01*
X28693Y-27150D01*
X28898Y-26945D01*
X29009Y-26677D01*
X29010Y-26387D01*
X29010Y-27351D01*
X27215Y-27351D01*
X27215Y-23959D01*
X27215Y-23354D01*
X27215Y-23259D01*
X27178Y-23171D01*
X27111Y-23103D01*
X27023Y-23067D01*
X26746Y-23067D01*
X26686Y-23127D01*
X26686Y-23596D01*
X27155Y-23596D01*
X27215Y-23536D01*
X27215Y-23354D01*
X27215Y-23959D01*
X27215Y-23777D01*
X27155Y-23717D01*
X26686Y-23717D01*
X26686Y-24186D01*
X26746Y-24246D01*
X27023Y-24246D01*
X27111Y-24210D01*
X27178Y-24142D01*
X27215Y-24054D01*
X27215Y-23959D01*
X27215Y-27351D01*
X26565Y-27351D01*
X26565Y-24186D01*
X26565Y-23717D01*
X26565Y-23596D01*
X26565Y-23127D01*
X26505Y-23067D01*
X26228Y-23067D01*
X26140Y-23103D01*
X26073Y-23171D01*
X26036Y-23259D01*
X26036Y-23354D01*
X26036Y-23536D01*
X26096Y-23596D01*
X26565Y-23596D01*
X26565Y-23717D01*
X26096Y-23717D01*
X26036Y-23777D01*
X26036Y-23959D01*
X26036Y-24054D01*
X26073Y-24142D01*
X26140Y-24210D01*
X26228Y-24246D01*
X26505Y-24246D01*
X26565Y-24186D01*
X26565Y-27351D01*
X25563Y-27351D01*
X25563Y-23959D01*
X25563Y-23354D01*
X25563Y-23259D01*
X25526Y-23171D01*
X25459Y-23103D01*
X25371Y-23067D01*
X25094Y-23067D01*
X25034Y-23127D01*
X25034Y-23596D01*
X25503Y-23596D01*
X25563Y-23536D01*
X25563Y-23354D01*
X25563Y-23959D01*
X25563Y-23777D01*
X25503Y-23717D01*
X25034Y-23717D01*
X25034Y-24186D01*
X25094Y-24246D01*
X25371Y-24246D01*
X25459Y-24210D01*
X25526Y-24142D01*
X25563Y-24054D01*
X25563Y-23959D01*
X25563Y-27351D01*
X24913Y-27351D01*
X24913Y-24186D01*
X24913Y-23717D01*
X24913Y-23596D01*
X24913Y-23127D01*
X24853Y-23067D01*
X24576Y-23067D01*
X24488Y-23103D01*
X24421Y-23171D01*
X24384Y-23259D01*
X24384Y-23354D01*
X24384Y-23536D01*
X24444Y-23596D01*
X24913Y-23596D01*
X24913Y-23717D01*
X24444Y-23717D01*
X24384Y-23777D01*
X24384Y-23959D01*
X24384Y-24054D01*
X24421Y-24142D01*
X24488Y-24210D01*
X24576Y-24246D01*
X24853Y-24246D01*
X24913Y-24186D01*
X24913Y-27351D01*
X24050Y-27351D01*
X24050Y-26387D01*
X23939Y-26118D01*
X23909Y-26088D01*
X23909Y-23959D01*
X23909Y-23354D01*
X23909Y-23259D01*
X23872Y-23171D01*
X23805Y-23103D01*
X23717Y-23067D01*
X23440Y-23067D01*
X23380Y-23127D01*
X23380Y-23596D01*
X23849Y-23596D01*
X23909Y-23536D01*
X23909Y-23354D01*
X23909Y-23959D01*
X23909Y-23777D01*
X23849Y-23717D01*
X23380Y-23717D01*
X23380Y-24186D01*
X23440Y-24246D01*
X23717Y-24246D01*
X23805Y-24210D01*
X23872Y-24142D01*
X23909Y-24054D01*
X23909Y-23959D01*
X23909Y-26088D01*
X23734Y-25913D01*
X23465Y-25801D01*
X23259Y-25801D01*
X23259Y-24186D01*
X23259Y-23717D01*
X23259Y-23596D01*
X23259Y-23127D01*
X23199Y-23067D01*
X22922Y-23067D01*
X22834Y-23103D01*
X22767Y-23171D01*
X22730Y-23259D01*
X22730Y-23354D01*
X22730Y-23536D01*
X22790Y-23596D01*
X23259Y-23596D01*
X23259Y-23717D01*
X22790Y-23717D01*
X22730Y-23777D01*
X22730Y-23959D01*
X22730Y-24054D01*
X22767Y-24142D01*
X22834Y-24210D01*
X22922Y-24246D01*
X23199Y-24246D01*
X23259Y-24186D01*
X23259Y-25801D01*
X23175Y-25801D01*
X22906Y-25912D01*
X22701Y-26117D01*
X22590Y-26385D01*
X22589Y-26676D01*
X22700Y-26944D01*
X22905Y-27150D01*
X23174Y-27261D01*
X23464Y-27261D01*
X23733Y-27150D01*
X23938Y-26945D01*
X24049Y-26677D01*
X24050Y-26387D01*
X24050Y-27351D01*
X20939Y-27351D01*
X20939Y-25803D01*
X20939Y-11653D01*
X20827Y-11381D01*
X20619Y-11173D01*
X20347Y-11060D01*
X20053Y-11060D01*
X19781Y-11172D01*
X19573Y-11380D01*
X19460Y-11652D01*
X19460Y-11946D01*
X19572Y-12218D01*
X19780Y-12426D01*
X20052Y-12539D01*
X20346Y-12539D01*
X20618Y-12427D01*
X20826Y-12219D01*
X20939Y-11947D01*
X20939Y-11653D01*
X20939Y-25803D01*
X20827Y-25531D01*
X20619Y-25323D01*
X20347Y-25210D01*
X20053Y-25210D01*
X19781Y-25322D01*
X19573Y-25530D01*
X19460Y-25802D01*
X19460Y-26096D01*
X19572Y-26368D01*
X19780Y-26576D01*
X20052Y-26689D01*
X20346Y-26689D01*
X20618Y-26577D01*
X20826Y-26369D01*
X20939Y-26097D01*
X20939Y-25803D01*
X20939Y-27351D01*
X18339Y-27351D01*
X18339Y-26162D01*
X18272Y-26001D01*
X18149Y-25877D01*
X17987Y-25810D01*
X17812Y-25810D01*
X17651Y-25877D01*
X17527Y-26000D01*
X17460Y-26162D01*
X17460Y-26337D01*
X17527Y-26498D01*
X17650Y-26622D01*
X17812Y-26689D01*
X17987Y-26689D01*
X18148Y-26622D01*
X18272Y-26499D01*
X18339Y-26337D01*
X18339Y-26162D01*
X18339Y-27351D01*
X16339Y-27351D01*
X16339Y-26162D01*
X16339Y-25162D01*
X16272Y-25001D01*
X16149Y-24877D01*
X15987Y-24810D01*
X15812Y-24810D01*
X15651Y-24877D01*
X15527Y-25000D01*
X15460Y-25162D01*
X15460Y-25337D01*
X15527Y-25498D01*
X15650Y-25622D01*
X15812Y-25689D01*
X15987Y-25689D01*
X16148Y-25622D01*
X16272Y-25499D01*
X16339Y-25337D01*
X16339Y-25162D01*
X16339Y-26162D01*
X16272Y-26001D01*
X16149Y-25877D01*
X15987Y-25810D01*
X15812Y-25810D01*
X15651Y-25877D01*
X15527Y-26000D01*
X15460Y-26162D01*
X15460Y-26337D01*
X15527Y-26498D01*
X15650Y-26622D01*
X15812Y-26689D01*
X15987Y-26689D01*
X16148Y-26622D01*
X16272Y-26499D01*
X16339Y-26337D01*
X16339Y-26162D01*
X16339Y-27351D01*
X15445Y-27351D01*
X15445Y-26318D01*
X15430Y-26104D01*
X15377Y-25977D01*
X15286Y-25948D01*
X15201Y-26034D01*
X14985Y-26250D01*
X15286Y-26551D01*
X15377Y-26522D01*
X15445Y-26318D01*
X15445Y-27351D01*
X15201Y-27351D01*
X15201Y-26636D01*
X14900Y-26335D01*
X14598Y-26636D01*
X14627Y-26727D01*
X14831Y-26795D01*
X15045Y-26780D01*
X15172Y-26727D01*
X15201Y-26636D01*
X15201Y-27351D01*
X12339Y-27351D01*
X12339Y-25803D01*
X12339Y-11653D01*
X12227Y-11381D01*
X12019Y-11173D01*
X11747Y-11060D01*
X11453Y-11060D01*
X11181Y-11172D01*
X10973Y-11380D01*
X10860Y-11652D01*
X10860Y-11946D01*
X10972Y-12218D01*
X11180Y-12426D01*
X11452Y-12539D01*
X11746Y-12539D01*
X12018Y-12427D01*
X12226Y-12219D01*
X12339Y-11947D01*
X12339Y-11653D01*
X12339Y-25803D01*
X12227Y-25531D01*
X12019Y-25323D01*
X11747Y-25210D01*
X11453Y-25210D01*
X11181Y-25322D01*
X10973Y-25530D01*
X10860Y-25802D01*
X10860Y-26096D01*
X10972Y-26368D01*
X11180Y-26576D01*
X11452Y-26689D01*
X11746Y-26689D01*
X12018Y-26577D01*
X12226Y-26369D01*
X12339Y-26097D01*
X12339Y-25803D01*
X12339Y-27351D01*
X9773Y-27351D01*
X9773Y-10398D01*
X13683Y-10398D01*
X13166Y-10916D01*
X13124Y-10977D01*
X13110Y-11050D01*
X13110Y-11800D01*
X13110Y-11900D01*
X13124Y-11972D01*
X13166Y-12033D01*
X13460Y-12328D01*
X13460Y-12827D01*
X13481Y-12878D01*
X13520Y-12918D01*
X13572Y-12939D01*
X13627Y-12939D01*
X14227Y-12939D01*
X14278Y-12918D01*
X14318Y-12879D01*
X14339Y-12827D01*
X14339Y-12772D01*
X14339Y-12172D01*
X14318Y-12121D01*
X14279Y-12081D01*
X14227Y-12060D01*
X14172Y-12060D01*
X13728Y-12060D01*
X13489Y-11821D01*
X13489Y-11800D01*
X13489Y-11657D01*
X13527Y-11748D01*
X13650Y-11872D01*
X13812Y-11939D01*
X13987Y-11939D01*
X14148Y-11872D01*
X14272Y-11749D01*
X14339Y-11587D01*
X14339Y-11412D01*
X14272Y-11251D01*
X14149Y-11127D01*
X13987Y-11060D01*
X13812Y-11060D01*
X13651Y-11127D01*
X13527Y-11250D01*
X13489Y-11342D01*
X13489Y-11128D01*
X13928Y-10689D01*
X15442Y-10689D01*
X15046Y-11085D01*
X14987Y-11060D01*
X14812Y-11060D01*
X14651Y-11127D01*
X14527Y-11250D01*
X14460Y-11412D01*
X14460Y-11587D01*
X14527Y-11748D01*
X14650Y-11872D01*
X14812Y-11939D01*
X14987Y-11939D01*
X15148Y-11872D01*
X15210Y-11811D01*
X15210Y-12103D01*
X15201Y-12113D01*
X15172Y-12022D01*
X14968Y-11954D01*
X14754Y-11969D01*
X14627Y-12022D01*
X14598Y-12113D01*
X14900Y-12414D01*
X14905Y-12408D01*
X14991Y-12494D01*
X14985Y-12500D01*
X14991Y-12505D01*
X14905Y-12591D01*
X14900Y-12585D01*
X14814Y-12671D01*
X14814Y-12500D01*
X14513Y-12198D01*
X14422Y-12227D01*
X14354Y-12431D01*
X14369Y-12645D01*
X14422Y-12772D01*
X14513Y-12801D01*
X14814Y-12500D01*
X14814Y-12671D01*
X14598Y-12886D01*
X14627Y-12977D01*
X14831Y-13045D01*
X15045Y-13030D01*
X15172Y-12977D01*
X15201Y-12886D01*
X15201Y-12886D01*
X15210Y-12896D01*
X15210Y-23496D01*
X15201Y-23505D01*
X13896Y-24810D01*
X13812Y-24810D01*
X13651Y-24877D01*
X13527Y-25000D01*
X13460Y-25162D01*
X13460Y-25337D01*
X13527Y-25498D01*
X13650Y-25622D01*
X13812Y-25689D01*
X13987Y-25689D01*
X14148Y-25622D01*
X14210Y-25561D01*
X14210Y-25671D01*
X14046Y-25835D01*
X13987Y-25810D01*
X13812Y-25810D01*
X13651Y-25877D01*
X13527Y-26000D01*
X13460Y-26162D01*
X13460Y-26337D01*
X13527Y-26498D01*
X13650Y-26622D01*
X13812Y-26689D01*
X13987Y-26689D01*
X14148Y-26622D01*
X14272Y-26499D01*
X14339Y-26337D01*
X14339Y-26162D01*
X14314Y-26103D01*
X14412Y-26005D01*
X14354Y-26181D01*
X14369Y-26395D01*
X14422Y-26522D01*
X14513Y-26551D01*
X14814Y-26250D01*
X14808Y-26244D01*
X14894Y-26158D01*
X14900Y-26164D01*
X15201Y-25863D01*
X15172Y-25772D01*
X14968Y-25704D01*
X14754Y-25719D01*
X14627Y-25772D01*
X14598Y-25863D01*
X14568Y-25832D01*
X14575Y-25822D01*
X14589Y-25750D01*
X14589Y-25561D01*
X14650Y-25622D01*
X14812Y-25689D01*
X14987Y-25689D01*
X15148Y-25622D01*
X15272Y-25499D01*
X15339Y-25337D01*
X15339Y-25162D01*
X15285Y-25032D01*
X17033Y-23283D01*
X17033Y-23283D01*
X17033Y-23283D01*
X17075Y-23222D01*
X17075Y-23222D01*
X17086Y-23164D01*
X17089Y-23150D01*
X17089Y-23150D01*
X17089Y-23150D01*
X17089Y-14900D01*
X17089Y-12897D01*
X17148Y-12872D01*
X17272Y-12749D01*
X17339Y-12587D01*
X17339Y-12412D01*
X17272Y-12251D01*
X17211Y-12189D01*
X17400Y-12189D01*
X17472Y-12175D01*
X17533Y-12133D01*
X17753Y-11914D01*
X17812Y-11939D01*
X17987Y-11939D01*
X18148Y-11872D01*
X18260Y-11761D01*
X18260Y-11871D01*
X18046Y-12085D01*
X17987Y-12060D01*
X17812Y-12060D01*
X17651Y-12127D01*
X17527Y-12250D01*
X17460Y-12412D01*
X17460Y-12587D01*
X17527Y-12748D01*
X17650Y-12872D01*
X17812Y-12939D01*
X17987Y-12939D01*
X18148Y-12872D01*
X18272Y-12749D01*
X18339Y-12587D01*
X18339Y-12412D01*
X18314Y-12353D01*
X18583Y-12083D01*
X18583Y-12083D01*
X18583Y-12083D01*
X18610Y-12044D01*
X18610Y-23221D01*
X17278Y-24553D01*
X17237Y-24614D01*
X17223Y-24687D01*
X17223Y-24841D01*
X17201Y-24863D01*
X17172Y-24772D01*
X16968Y-24704D01*
X16754Y-24719D01*
X16627Y-24772D01*
X16598Y-24863D01*
X16900Y-25164D01*
X16905Y-25158D01*
X16991Y-25244D01*
X16985Y-25250D01*
X16991Y-25255D01*
X16905Y-25341D01*
X16900Y-25335D01*
X16814Y-25421D01*
X16814Y-25250D01*
X16513Y-24948D01*
X16422Y-24977D01*
X16354Y-25181D01*
X16369Y-25395D01*
X16422Y-25522D01*
X16513Y-25551D01*
X16814Y-25250D01*
X16814Y-25421D01*
X16598Y-25636D01*
X16627Y-25727D01*
X16831Y-25795D01*
X17045Y-25780D01*
X17141Y-25740D01*
X17046Y-25835D01*
X16987Y-25810D01*
X16812Y-25810D01*
X16651Y-25877D01*
X16527Y-26000D01*
X16460Y-26162D01*
X16460Y-26337D01*
X16527Y-26498D01*
X16650Y-26622D01*
X16812Y-26689D01*
X16987Y-26689D01*
X17148Y-26622D01*
X17272Y-26499D01*
X17339Y-26337D01*
X17339Y-26162D01*
X17314Y-26103D01*
X17546Y-25871D01*
X17546Y-25871D01*
X17546Y-25871D01*
X17587Y-25810D01*
X17602Y-25737D01*
X17602Y-25689D01*
X17627Y-25689D01*
X18227Y-25689D01*
X18278Y-25668D01*
X18318Y-25629D01*
X18339Y-25577D01*
X18339Y-25522D01*
X18339Y-24922D01*
X18318Y-24871D01*
X18279Y-24831D01*
X18227Y-24810D01*
X18172Y-24810D01*
X18089Y-24810D01*
X18089Y-24703D01*
X19233Y-23558D01*
X19233Y-23558D01*
X19233Y-23558D01*
X19275Y-23497D01*
X19275Y-23497D01*
X19286Y-23439D01*
X19289Y-23425D01*
X19289Y-23425D01*
X19289Y-23425D01*
X19289Y-13500D01*
X19289Y-11200D01*
X19289Y-11199D01*
X19289Y-11199D01*
X19286Y-11185D01*
X19275Y-11127D01*
X19275Y-11127D01*
X19233Y-11066D01*
X19233Y-11066D01*
X18857Y-10689D01*
X31188Y-10689D01*
X31127Y-10750D01*
X31060Y-10912D01*
X31060Y-11087D01*
X31127Y-11248D01*
X31250Y-11372D01*
X31412Y-11439D01*
X31587Y-11439D01*
X31748Y-11372D01*
X31872Y-11249D01*
X31939Y-11087D01*
X31939Y-10912D01*
X31872Y-10751D01*
X31811Y-10689D01*
X32188Y-10689D01*
X32127Y-10750D01*
X32060Y-10912D01*
X32060Y-11087D01*
X32127Y-11248D01*
X32250Y-11372D01*
X32412Y-11439D01*
X32587Y-11439D01*
X32748Y-11372D01*
X32872Y-11249D01*
X32939Y-11087D01*
X32939Y-10912D01*
X32872Y-10751D01*
X32811Y-10689D01*
X33188Y-10689D01*
X33127Y-10750D01*
X33060Y-10912D01*
X33060Y-11087D01*
X33127Y-11248D01*
X33250Y-11372D01*
X33412Y-11439D01*
X33587Y-11439D01*
X33748Y-11372D01*
X33872Y-11249D01*
X33939Y-11087D01*
X33939Y-10912D01*
X33872Y-10751D01*
X33811Y-10689D01*
X34188Y-10689D01*
X34127Y-10750D01*
X34060Y-10912D01*
X34060Y-11087D01*
X34127Y-11248D01*
X34250Y-11372D01*
X34412Y-11439D01*
X34587Y-11439D01*
X34748Y-11372D01*
X34872Y-11249D01*
X34939Y-11087D01*
X34939Y-10912D01*
X34872Y-10751D01*
X34811Y-10689D01*
X35188Y-10689D01*
X35127Y-10750D01*
X35060Y-10912D01*
X35060Y-11087D01*
X35127Y-11248D01*
X35250Y-11372D01*
X35412Y-11439D01*
X35587Y-11439D01*
X35748Y-11372D01*
X35872Y-11249D01*
X35939Y-11087D01*
X35939Y-10912D01*
X35872Y-10751D01*
X35811Y-10689D01*
X36103Y-10689D01*
X36113Y-10698D01*
X36022Y-10727D01*
X35954Y-10931D01*
X35969Y-11145D01*
X36022Y-11272D01*
X36113Y-11301D01*
X36414Y-11000D01*
X36408Y-10994D01*
X36494Y-10908D01*
X36500Y-10914D01*
X36505Y-10908D01*
X36591Y-10994D01*
X36585Y-11000D01*
X36886Y-11301D01*
X36977Y-11272D01*
X37045Y-11068D01*
X37030Y-10854D01*
X36977Y-10727D01*
X36886Y-10698D01*
X36896Y-10689D01*
X37060Y-10689D01*
X37060Y-10727D01*
X37060Y-11327D01*
X37081Y-11378D01*
X37120Y-11418D01*
X37172Y-11439D01*
X37227Y-11439D01*
X37827Y-11439D01*
X37878Y-11418D01*
X37918Y-11379D01*
X37939Y-11327D01*
X37939Y-11272D01*
X37939Y-10689D01*
X38188Y-10689D01*
X38127Y-10750D01*
X38060Y-10912D01*
X38060Y-11087D01*
X38127Y-11248D01*
X38250Y-11372D01*
X38412Y-11439D01*
X38587Y-11439D01*
X38748Y-11372D01*
X38872Y-11249D01*
X38939Y-11087D01*
X38939Y-10912D01*
X38872Y-10751D01*
X38811Y-10689D01*
X39188Y-10689D01*
X39127Y-10750D01*
X39060Y-10912D01*
X39060Y-11087D01*
X39127Y-11248D01*
X39250Y-11372D01*
X39412Y-11439D01*
X39587Y-11439D01*
X39748Y-11372D01*
X39872Y-11249D01*
X39939Y-11087D01*
X39939Y-10912D01*
X39872Y-10751D01*
X39811Y-10689D01*
X40188Y-10689D01*
X40127Y-10750D01*
X40060Y-10912D01*
X40060Y-11087D01*
X40127Y-11248D01*
X40250Y-11372D01*
X40412Y-11439D01*
X40587Y-11439D01*
X40748Y-11372D01*
X40872Y-11249D01*
X40939Y-11087D01*
X40939Y-10912D01*
X40872Y-10751D01*
X40811Y-10689D01*
X41188Y-10689D01*
X41127Y-10750D01*
X41060Y-10912D01*
X41060Y-11087D01*
X41127Y-11248D01*
X41250Y-11372D01*
X41412Y-11439D01*
X41587Y-11439D01*
X41748Y-11372D01*
X41872Y-11249D01*
X41939Y-11087D01*
X41939Y-10912D01*
X41872Y-10751D01*
X41811Y-10689D01*
X42188Y-10689D01*
X42127Y-10750D01*
X42060Y-10912D01*
X42060Y-11087D01*
X42127Y-11248D01*
X42250Y-11372D01*
X42412Y-11439D01*
X42587Y-11439D01*
X42748Y-11372D01*
X42872Y-11249D01*
X42939Y-11087D01*
X42939Y-10912D01*
X42872Y-10751D01*
X42811Y-10689D01*
X43188Y-10689D01*
X43127Y-10750D01*
X43060Y-10912D01*
X43060Y-11087D01*
X43127Y-11248D01*
X43250Y-11372D01*
X43412Y-11439D01*
X43587Y-11439D01*
X43748Y-11372D01*
X43810Y-11311D01*
X43810Y-11724D01*
X43735Y-11648D01*
X43582Y-11585D01*
X43417Y-11585D01*
X43265Y-11648D01*
X43148Y-11764D01*
X43085Y-11917D01*
X43085Y-12082D01*
X43148Y-12234D01*
X43264Y-12351D01*
X43310Y-12370D01*
X43310Y-12744D01*
X43233Y-12821D01*
X43185Y-12937D01*
X43185Y-13062D01*
X43233Y-13177D01*
X43321Y-13266D01*
X43437Y-13314D01*
X43562Y-13314D01*
X43677Y-13266D01*
X43766Y-13178D01*
X43810Y-13072D01*
X43810Y-13221D01*
X43366Y-13666D01*
X43324Y-13727D01*
X43310Y-13800D01*
X43310Y-14629D01*
X43265Y-14648D01*
X43189Y-14724D01*
X43189Y-13500D01*
X43175Y-13427D01*
X43175Y-13427D01*
X43133Y-13366D01*
X43133Y-13366D01*
X42914Y-13146D01*
X42914Y-11917D01*
X42851Y-11765D01*
X42735Y-11648D01*
X42582Y-11585D01*
X42417Y-11585D01*
X42265Y-11648D01*
X42148Y-11764D01*
X42085Y-11917D01*
X42085Y-12082D01*
X42148Y-12234D01*
X42264Y-12351D01*
X42417Y-12414D01*
X42582Y-12414D01*
X42734Y-12351D01*
X42851Y-12235D01*
X42914Y-12082D01*
X42914Y-11917D01*
X42914Y-13146D01*
X41895Y-12127D01*
X41914Y-12082D01*
X41914Y-11917D01*
X41851Y-11765D01*
X41735Y-11648D01*
X41582Y-11585D01*
X41417Y-11585D01*
X41265Y-11648D01*
X41148Y-11764D01*
X41085Y-11917D01*
X41085Y-12082D01*
X41148Y-12234D01*
X41264Y-12351D01*
X41417Y-12414D01*
X41582Y-12414D01*
X41627Y-12395D01*
X42810Y-13578D01*
X42810Y-14724D01*
X42735Y-14648D01*
X42582Y-14585D01*
X42417Y-14585D01*
X42265Y-14648D01*
X42148Y-14764D01*
X42085Y-14917D01*
X42085Y-15082D01*
X42148Y-15234D01*
X42264Y-15351D01*
X42417Y-15414D01*
X42582Y-15414D01*
X42734Y-15351D01*
X42810Y-15275D01*
X42810Y-15688D01*
X42749Y-15627D01*
X42587Y-15560D01*
X42412Y-15560D01*
X42251Y-15627D01*
X42127Y-15750D01*
X42060Y-15912D01*
X42060Y-16087D01*
X42127Y-16248D01*
X42250Y-16372D01*
X42412Y-16439D01*
X42587Y-16439D01*
X42748Y-16372D01*
X42810Y-16311D01*
X42810Y-17264D01*
X42733Y-17341D01*
X42685Y-17457D01*
X42685Y-17582D01*
X42733Y-17697D01*
X42821Y-17786D01*
X42937Y-17834D01*
X43062Y-17834D01*
X43177Y-17786D01*
X43266Y-17698D01*
X43314Y-17582D01*
X43314Y-17457D01*
X43266Y-17342D01*
X43189Y-17264D01*
X43189Y-16311D01*
X43250Y-16372D01*
X43412Y-16439D01*
X43587Y-16439D01*
X43748Y-16372D01*
X43872Y-16249D01*
X43939Y-16087D01*
X43939Y-15912D01*
X43872Y-15751D01*
X43749Y-15627D01*
X43587Y-15560D01*
X43412Y-15560D01*
X43251Y-15627D01*
X43189Y-15688D01*
X43189Y-15275D01*
X43264Y-15351D01*
X43417Y-15414D01*
X43582Y-15414D01*
X43734Y-15351D01*
X43851Y-15235D01*
X43914Y-15082D01*
X43914Y-14917D01*
X43851Y-14765D01*
X43735Y-14648D01*
X43689Y-14629D01*
X43689Y-13878D01*
X44133Y-13433D01*
X44175Y-13372D01*
X44189Y-13300D01*
X44189Y-12411D01*
X44197Y-12414D01*
X44252Y-12414D01*
X44802Y-12414D01*
X44853Y-12393D01*
X44893Y-12354D01*
X44914Y-12302D01*
X44914Y-12247D01*
X44914Y-11697D01*
X44893Y-11646D01*
X44854Y-11606D01*
X44802Y-11585D01*
X44747Y-11585D01*
X44197Y-11585D01*
X44189Y-11588D01*
X44189Y-11311D01*
X44250Y-11372D01*
X44412Y-11439D01*
X44587Y-11439D01*
X44748Y-11372D01*
X44872Y-11249D01*
X44939Y-11087D01*
X44939Y-10912D01*
X44872Y-10751D01*
X44749Y-10627D01*
X44587Y-10560D01*
X44412Y-10560D01*
X44251Y-10627D01*
X44187Y-10690D01*
X44175Y-10627D01*
X44133Y-10566D01*
X44133Y-10566D01*
X43966Y-10398D01*
X48851Y-10398D01*
X48851Y-27351D01*
X48851Y-27351D01*
G37*
G54D22*
X48851Y-27351D02*
X48745Y-27351D01*
X48745Y-19568D01*
X48730Y-19354D01*
X48677Y-19227D01*
X48639Y-19215D01*
X48639Y-18412D01*
X48572Y-18251D01*
X48449Y-18127D01*
X48287Y-18060D01*
X48112Y-18060D01*
X47951Y-18127D01*
X47865Y-18213D01*
X47833Y-18166D01*
X47833Y-18166D01*
X47582Y-17914D01*
X47618Y-17879D01*
X47639Y-17827D01*
X47639Y-17772D01*
X47639Y-17207D01*
X47785Y-17353D01*
X47760Y-17412D01*
X47760Y-17587D01*
X47827Y-17748D01*
X47950Y-17872D01*
X48112Y-17939D01*
X48287Y-17939D01*
X48448Y-17872D01*
X48572Y-17749D01*
X48639Y-17587D01*
X48639Y-17412D01*
X48639Y-17412D01*
X48639Y-16347D01*
X48639Y-15652D01*
X48603Y-15564D01*
X48539Y-15500D01*
X48539Y-14912D01*
X48539Y-13912D01*
X48539Y-12912D01*
X48539Y-11912D01*
X48539Y-10912D01*
X48472Y-10751D01*
X48349Y-10627D01*
X48187Y-10560D01*
X48012Y-10560D01*
X47851Y-10627D01*
X47727Y-10750D01*
X47660Y-10912D01*
X47660Y-11087D01*
X47727Y-11248D01*
X47850Y-11372D01*
X48012Y-11439D01*
X48187Y-11439D01*
X48348Y-11372D01*
X48472Y-11249D01*
X48539Y-11087D01*
X48539Y-10912D01*
X48539Y-11912D01*
X48472Y-11751D01*
X48349Y-11627D01*
X48187Y-11560D01*
X48012Y-11560D01*
X47851Y-11627D01*
X47727Y-11750D01*
X47660Y-11912D01*
X47660Y-12087D01*
X47727Y-12248D01*
X47850Y-12372D01*
X48012Y-12439D01*
X48187Y-12439D01*
X48348Y-12372D01*
X48472Y-12249D01*
X48539Y-12087D01*
X48539Y-11912D01*
X48539Y-12912D01*
X48472Y-12751D01*
X48349Y-12627D01*
X48187Y-12560D01*
X48012Y-12560D01*
X47851Y-12627D01*
X47727Y-12750D01*
X47660Y-12912D01*
X47660Y-13087D01*
X47727Y-13248D01*
X47850Y-13372D01*
X48012Y-13439D01*
X48187Y-13439D01*
X48348Y-13372D01*
X48472Y-13249D01*
X48539Y-13087D01*
X48539Y-12912D01*
X48539Y-13912D01*
X48472Y-13751D01*
X48349Y-13627D01*
X48187Y-13560D01*
X48012Y-13560D01*
X47851Y-13627D01*
X47727Y-13750D01*
X47660Y-13912D01*
X47660Y-14087D01*
X47727Y-14248D01*
X47850Y-14372D01*
X48012Y-14439D01*
X48187Y-14439D01*
X48348Y-14372D01*
X48472Y-14249D01*
X48539Y-14087D01*
X48539Y-13912D01*
X48539Y-14912D01*
X48472Y-14751D01*
X48349Y-14627D01*
X48187Y-14560D01*
X48012Y-14560D01*
X47851Y-14627D01*
X47727Y-14750D01*
X47660Y-14912D01*
X47660Y-15087D01*
X47727Y-15248D01*
X47850Y-15372D01*
X48012Y-15439D01*
X48187Y-15439D01*
X48348Y-15372D01*
X48472Y-15249D01*
X48539Y-15087D01*
X48539Y-14912D01*
X48539Y-15500D01*
X48535Y-15497D01*
X48447Y-15460D01*
X48352Y-15460D01*
X48220Y-15460D01*
X48160Y-15520D01*
X48160Y-15939D01*
X48579Y-15939D01*
X48639Y-15879D01*
X48639Y-15652D01*
X48639Y-16347D01*
X48639Y-16120D01*
X48579Y-16060D01*
X48160Y-16060D01*
X48160Y-16479D01*
X48220Y-16539D01*
X48352Y-16539D01*
X48447Y-16539D01*
X48535Y-16502D01*
X48603Y-16435D01*
X48639Y-16347D01*
X48639Y-17412D01*
X48572Y-17251D01*
X48449Y-17127D01*
X48287Y-17060D01*
X48112Y-17060D01*
X48053Y-17085D01*
X48039Y-17071D01*
X48039Y-16479D01*
X48039Y-16060D01*
X48039Y-15939D01*
X48039Y-15520D01*
X47979Y-15460D01*
X47847Y-15460D01*
X47752Y-15460D01*
X47664Y-15497D01*
X47596Y-15564D01*
X47560Y-15652D01*
X47560Y-15879D01*
X47620Y-15939D01*
X48039Y-15939D01*
X48039Y-16060D01*
X47620Y-16060D01*
X47560Y-16120D01*
X47560Y-16347D01*
X47596Y-16435D01*
X47664Y-16502D01*
X47752Y-16539D01*
X47847Y-16539D01*
X47979Y-16539D01*
X48039Y-16479D01*
X48039Y-17071D01*
X46939Y-15971D01*
X46939Y-15912D01*
X46872Y-15751D01*
X46749Y-15627D01*
X46587Y-15560D01*
X46412Y-15560D01*
X46251Y-15627D01*
X46189Y-15688D01*
X46189Y-11578D01*
X46353Y-11414D01*
X46412Y-11439D01*
X46587Y-11439D01*
X46748Y-11372D01*
X46872Y-11249D01*
X46939Y-11087D01*
X46939Y-10912D01*
X46872Y-10751D01*
X46749Y-10627D01*
X46587Y-10560D01*
X46412Y-10560D01*
X46251Y-10627D01*
X46127Y-10750D01*
X46060Y-10912D01*
X46060Y-11087D01*
X46085Y-11146D01*
X45987Y-11244D01*
X46045Y-11068D01*
X46030Y-10854D01*
X45977Y-10727D01*
X45886Y-10698D01*
X45801Y-10784D01*
X45801Y-10613D01*
X45772Y-10522D01*
X45568Y-10454D01*
X45354Y-10469D01*
X45227Y-10522D01*
X45198Y-10613D01*
X45500Y-10914D01*
X45801Y-10613D01*
X45801Y-10784D01*
X45585Y-11000D01*
X45591Y-11005D01*
X45505Y-11091D01*
X45500Y-11085D01*
X45414Y-11171D01*
X45414Y-11000D01*
X45113Y-10698D01*
X45022Y-10727D01*
X44954Y-10931D01*
X44969Y-11145D01*
X45022Y-11272D01*
X45113Y-11301D01*
X45414Y-11000D01*
X45414Y-11171D01*
X45198Y-11386D01*
X45227Y-11477D01*
X45431Y-11545D01*
X45645Y-11530D01*
X45772Y-11477D01*
X45801Y-11386D01*
X45801Y-11386D01*
X45831Y-11417D01*
X45824Y-11427D01*
X45810Y-11500D01*
X45810Y-15603D01*
X45801Y-15613D01*
X45801Y-15613D01*
X45772Y-15522D01*
X45568Y-15454D01*
X45354Y-15469D01*
X45227Y-15522D01*
X45198Y-15613D01*
X45500Y-15914D01*
X45505Y-15908D01*
X45591Y-15994D01*
X45585Y-16000D01*
X45821Y-16236D01*
X45824Y-16252D01*
X45866Y-16313D01*
X46530Y-16978D01*
X46530Y-17860D01*
X46544Y-17932D01*
X46586Y-17993D01*
X46726Y-18133D01*
X46726Y-18133D01*
X46787Y-18175D01*
X46860Y-18189D01*
X46888Y-18189D01*
X46827Y-18250D01*
X46802Y-18310D01*
X45801Y-18310D01*
X45801Y-16386D01*
X45500Y-16085D01*
X45414Y-16171D01*
X45414Y-16000D01*
X45113Y-15698D01*
X45022Y-15727D01*
X44954Y-15931D01*
X44969Y-16145D01*
X45022Y-16272D01*
X45113Y-16301D01*
X45414Y-16000D01*
X45414Y-16171D01*
X45198Y-16386D01*
X45227Y-16477D01*
X45431Y-16545D01*
X45645Y-16530D01*
X45772Y-16477D01*
X45801Y-16386D01*
X45801Y-18310D01*
X44939Y-18310D01*
X44939Y-15912D01*
X44914Y-15852D01*
X44914Y-14917D01*
X44851Y-14765D01*
X44735Y-14648D01*
X44582Y-14585D01*
X44417Y-14585D01*
X44265Y-14648D01*
X44148Y-14764D01*
X44085Y-14917D01*
X44085Y-15082D01*
X44148Y-15234D01*
X44264Y-15351D01*
X44417Y-15414D01*
X44582Y-15414D01*
X44734Y-15351D01*
X44851Y-15235D01*
X44914Y-15082D01*
X44914Y-14917D01*
X44914Y-15852D01*
X44872Y-15751D01*
X44749Y-15627D01*
X44587Y-15560D01*
X44412Y-15560D01*
X44251Y-15627D01*
X44127Y-15750D01*
X44060Y-15912D01*
X44060Y-16087D01*
X44127Y-16248D01*
X44250Y-16372D01*
X44412Y-16439D01*
X44587Y-16439D01*
X44748Y-16372D01*
X44872Y-16249D01*
X44939Y-16087D01*
X44939Y-15912D01*
X44939Y-18310D01*
X44258Y-18310D01*
X44194Y-18246D01*
X44194Y-18137D01*
X44146Y-18022D01*
X44058Y-17933D01*
X43942Y-17885D01*
X43817Y-17885D01*
X43702Y-17933D01*
X43613Y-18021D01*
X43565Y-18137D01*
X43565Y-18262D01*
X43613Y-18377D01*
X43701Y-18466D01*
X43817Y-18514D01*
X43926Y-18514D01*
X44046Y-18633D01*
X44046Y-18633D01*
X44107Y-18675D01*
X44107Y-18675D01*
X44165Y-18686D01*
X44179Y-18689D01*
X44179Y-18689D01*
X44180Y-18689D01*
X46802Y-18689D01*
X46827Y-18748D01*
X46950Y-18872D01*
X47112Y-18939D01*
X47192Y-18939D01*
X47066Y-19066D01*
X47053Y-19085D01*
X46951Y-19127D01*
X46827Y-19250D01*
X46760Y-19412D01*
X46760Y-19587D01*
X46827Y-19748D01*
X46950Y-19872D01*
X47112Y-19939D01*
X47287Y-19939D01*
X47448Y-19872D01*
X47572Y-19749D01*
X47639Y-19587D01*
X47639Y-19412D01*
X47572Y-19251D01*
X47494Y-19173D01*
X47833Y-18833D01*
X47865Y-18786D01*
X47950Y-18872D01*
X48112Y-18939D01*
X48287Y-18939D01*
X48448Y-18872D01*
X48572Y-18749D01*
X48639Y-18587D01*
X48639Y-18412D01*
X48639Y-19215D01*
X48586Y-19198D01*
X48501Y-19284D01*
X48501Y-19113D01*
X48472Y-19022D01*
X48268Y-18954D01*
X48054Y-18969D01*
X47927Y-19022D01*
X47898Y-19113D01*
X48200Y-19414D01*
X48501Y-19113D01*
X48501Y-19284D01*
X48285Y-19500D01*
X48586Y-19801D01*
X48677Y-19772D01*
X48745Y-19568D01*
X48745Y-27351D01*
X48501Y-27351D01*
X48501Y-19886D01*
X48200Y-19585D01*
X48114Y-19671D01*
X48114Y-19500D01*
X47813Y-19198D01*
X47722Y-19227D01*
X47654Y-19431D01*
X47669Y-19645D01*
X47722Y-19772D01*
X47813Y-19801D01*
X48114Y-19500D01*
X48114Y-19671D01*
X47898Y-19886D01*
X47927Y-19977D01*
X48131Y-20045D01*
X48345Y-20030D01*
X48472Y-19977D01*
X48501Y-19886D01*
X48501Y-27351D01*
X46464Y-27351D01*
X46464Y-19888D01*
X46321Y-19543D01*
X46057Y-19278D01*
X45712Y-19135D01*
X45338Y-19135D01*
X44993Y-19278D01*
X44728Y-19542D01*
X44585Y-19887D01*
X44585Y-20261D01*
X44728Y-20606D01*
X44992Y-20871D01*
X45337Y-21014D01*
X45711Y-21014D01*
X46056Y-20871D01*
X46321Y-20607D01*
X46464Y-20262D01*
X46464Y-19888D01*
X46464Y-27351D01*
X45814Y-27351D01*
X45814Y-22687D01*
X45766Y-22572D01*
X45678Y-22483D01*
X45562Y-22435D01*
X45453Y-22435D01*
X45258Y-22241D01*
X45197Y-22199D01*
X45125Y-22185D01*
X43778Y-22185D01*
X42508Y-20916D01*
X42447Y-20874D01*
X42375Y-20860D01*
X42255Y-20860D01*
X42178Y-20783D01*
X42062Y-20735D01*
X41939Y-20735D01*
X41939Y-15912D01*
X41914Y-15852D01*
X41914Y-14917D01*
X41851Y-14765D01*
X41735Y-14648D01*
X41582Y-14585D01*
X41417Y-14585D01*
X41265Y-14648D01*
X41148Y-14764D01*
X41085Y-14917D01*
X41085Y-15082D01*
X41148Y-15234D01*
X41264Y-15351D01*
X41417Y-15414D01*
X41582Y-15414D01*
X41734Y-15351D01*
X41851Y-15235D01*
X41914Y-15082D01*
X41914Y-14917D01*
X41914Y-15852D01*
X41872Y-15751D01*
X41749Y-15627D01*
X41587Y-15560D01*
X41412Y-15560D01*
X41251Y-15627D01*
X41127Y-15750D01*
X41060Y-15912D01*
X41060Y-16087D01*
X41127Y-16248D01*
X41250Y-16372D01*
X41412Y-16439D01*
X41587Y-16439D01*
X41748Y-16372D01*
X41872Y-16249D01*
X41939Y-16087D01*
X41939Y-15912D01*
X41939Y-20735D01*
X41937Y-20735D01*
X41822Y-20783D01*
X41733Y-20871D01*
X41685Y-20987D01*
X41685Y-21112D01*
X41733Y-21227D01*
X41821Y-21316D01*
X41937Y-21364D01*
X42062Y-21364D01*
X42177Y-21316D01*
X42255Y-21239D01*
X42296Y-21239D01*
X43566Y-22508D01*
X43566Y-22508D01*
X43627Y-22550D01*
X43627Y-22550D01*
X43685Y-22561D01*
X43699Y-22564D01*
X43699Y-22564D01*
X43700Y-22564D01*
X45046Y-22564D01*
X45185Y-22703D01*
X45185Y-22812D01*
X45233Y-22927D01*
X45310Y-23005D01*
X45310Y-25127D01*
X45297Y-25133D01*
X45208Y-25221D01*
X45160Y-25337D01*
X45160Y-25462D01*
X45208Y-25577D01*
X45296Y-25666D01*
X45412Y-25714D01*
X45537Y-25714D01*
X45652Y-25666D01*
X45741Y-25578D01*
X45789Y-25462D01*
X45789Y-25337D01*
X45741Y-25222D01*
X45689Y-25169D01*
X45689Y-23005D01*
X45766Y-22928D01*
X45814Y-22812D01*
X45814Y-22687D01*
X45814Y-27351D01*
X45014Y-27351D01*
X45014Y-23637D01*
X44966Y-23522D01*
X44889Y-23444D01*
X44889Y-23155D01*
X44966Y-23078D01*
X45014Y-22962D01*
X45014Y-22837D01*
X44966Y-22722D01*
X44878Y-22633D01*
X44762Y-22585D01*
X44637Y-22585D01*
X44522Y-22633D01*
X44433Y-22721D01*
X44385Y-22837D01*
X44385Y-22962D01*
X44433Y-23077D01*
X44510Y-23155D01*
X44510Y-23444D01*
X44433Y-23521D01*
X44385Y-23637D01*
X44385Y-23717D01*
X43533Y-22866D01*
X43472Y-22824D01*
X43400Y-22810D01*
X41703Y-22810D01*
X41666Y-22722D01*
X41578Y-22633D01*
X41462Y-22585D01*
X41337Y-22585D01*
X41222Y-22633D01*
X41133Y-22721D01*
X41085Y-22837D01*
X41085Y-22962D01*
X41133Y-23077D01*
X41221Y-23166D01*
X41337Y-23214D01*
X41462Y-23214D01*
X41522Y-23189D01*
X43321Y-23189D01*
X44285Y-24153D01*
X44285Y-24262D01*
X44333Y-24377D01*
X44421Y-24466D01*
X44537Y-24514D01*
X44662Y-24514D01*
X44777Y-24466D01*
X44866Y-24378D01*
X44914Y-24262D01*
X44914Y-24137D01*
X44866Y-24022D01*
X44830Y-23986D01*
X44877Y-23966D01*
X44966Y-23878D01*
X45014Y-23762D01*
X45014Y-23637D01*
X45014Y-27351D01*
X43201Y-27351D01*
X43201Y-25176D01*
X43186Y-24972D01*
X43138Y-24856D01*
X43049Y-24830D01*
X42964Y-24916D01*
X42964Y-24745D01*
X42938Y-24656D01*
X42743Y-24593D01*
X42539Y-24608D01*
X42423Y-24656D01*
X42397Y-24745D01*
X42681Y-25028D01*
X42964Y-24745D01*
X42964Y-24916D01*
X42766Y-25114D01*
X43049Y-25397D01*
X43138Y-25371D01*
X43201Y-25176D01*
X43201Y-27351D01*
X43095Y-27351D01*
X43095Y-26803D01*
X43032Y-26651D01*
X42964Y-26582D01*
X42964Y-25482D01*
X42681Y-25199D01*
X42595Y-25285D01*
X42595Y-25114D01*
X42312Y-24830D01*
X42223Y-24856D01*
X42160Y-25051D01*
X42175Y-25255D01*
X42223Y-25371D01*
X42312Y-25397D01*
X42595Y-25114D01*
X42595Y-25285D01*
X42397Y-25482D01*
X42423Y-25571D01*
X42618Y-25634D01*
X42822Y-25619D01*
X42938Y-25571D01*
X42964Y-25482D01*
X42964Y-26582D01*
X42916Y-26534D01*
X42763Y-26471D01*
X42598Y-26471D01*
X42446Y-26534D01*
X42329Y-26650D01*
X42266Y-26803D01*
X42266Y-26968D01*
X42329Y-27120D01*
X42445Y-27237D01*
X42598Y-27300D01*
X42763Y-27300D01*
X42915Y-27237D01*
X43032Y-27121D01*
X43095Y-26968D01*
X43095Y-26803D01*
X43095Y-27351D01*
X40939Y-27351D01*
X40939Y-15912D01*
X40914Y-15852D01*
X40914Y-14917D01*
X40914Y-11917D01*
X40851Y-11765D01*
X40735Y-11648D01*
X40582Y-11585D01*
X40417Y-11585D01*
X40265Y-11648D01*
X40148Y-11764D01*
X40085Y-11917D01*
X40085Y-12082D01*
X40104Y-12127D01*
X39921Y-12310D01*
X39775Y-12310D01*
X39851Y-12235D01*
X39914Y-12082D01*
X39914Y-11917D01*
X39851Y-11765D01*
X39735Y-11648D01*
X39582Y-11585D01*
X39417Y-11585D01*
X39265Y-11648D01*
X39148Y-11764D01*
X39085Y-11917D01*
X39085Y-12082D01*
X39148Y-12234D01*
X39224Y-12310D01*
X39200Y-12310D01*
X39127Y-12324D01*
X39066Y-12366D01*
X39066Y-12366D01*
X38914Y-12517D01*
X38914Y-11917D01*
X38851Y-11765D01*
X38735Y-11648D01*
X38582Y-11585D01*
X38417Y-11585D01*
X38265Y-11648D01*
X38148Y-11764D01*
X38085Y-11917D01*
X38085Y-12082D01*
X38148Y-12234D01*
X38264Y-12351D01*
X38417Y-12414D01*
X38582Y-12414D01*
X38734Y-12351D01*
X38851Y-12235D01*
X38914Y-12082D01*
X38914Y-11917D01*
X38914Y-12517D01*
X38020Y-13411D01*
X38020Y-12062D01*
X38005Y-11858D01*
X37957Y-11742D01*
X37868Y-11716D01*
X37783Y-11802D01*
X37783Y-11631D01*
X37757Y-11542D01*
X37562Y-11479D01*
X37358Y-11494D01*
X37242Y-11542D01*
X37216Y-11631D01*
X37500Y-11914D01*
X37783Y-11631D01*
X37783Y-11802D01*
X37585Y-12000D01*
X37868Y-12283D01*
X37957Y-12257D01*
X38020Y-12062D01*
X38020Y-13411D01*
X37783Y-13648D01*
X37783Y-12368D01*
X37500Y-12085D01*
X37414Y-12171D01*
X37414Y-12000D01*
X37131Y-11716D01*
X37045Y-11741D01*
X37042Y-11742D01*
X36979Y-11937D01*
X36994Y-12141D01*
X37042Y-12257D01*
X37131Y-12283D01*
X37414Y-12000D01*
X37414Y-12171D01*
X37216Y-12368D01*
X37242Y-12457D01*
X37437Y-12520D01*
X37641Y-12505D01*
X37757Y-12457D01*
X37783Y-12368D01*
X37783Y-13648D01*
X36914Y-14517D01*
X36914Y-11917D01*
X36851Y-11765D01*
X36801Y-11715D01*
X36801Y-11386D01*
X36500Y-11085D01*
X36414Y-11171D01*
X36198Y-11386D01*
X36227Y-11477D01*
X36431Y-11545D01*
X36645Y-11530D01*
X36772Y-11477D01*
X36801Y-11386D01*
X36801Y-11715D01*
X36735Y-11648D01*
X36582Y-11585D01*
X36417Y-11585D01*
X36265Y-11648D01*
X36148Y-11764D01*
X36085Y-11917D01*
X36085Y-12082D01*
X36148Y-12234D01*
X36264Y-12351D01*
X36417Y-12414D01*
X36582Y-12414D01*
X36734Y-12351D01*
X36851Y-12235D01*
X36914Y-12082D01*
X36914Y-11917D01*
X36914Y-14517D01*
X36866Y-14566D01*
X36842Y-14601D01*
X36827Y-14586D01*
X36783Y-14631D01*
X36757Y-14542D01*
X36562Y-14479D01*
X36358Y-14494D01*
X36242Y-14542D01*
X36216Y-14631D01*
X36500Y-14914D01*
X36505Y-14908D01*
X36591Y-14994D01*
X36585Y-15000D01*
X36591Y-15005D01*
X36505Y-15091D01*
X36500Y-15085D01*
X36414Y-15171D01*
X36414Y-15000D01*
X36131Y-14716D01*
X36042Y-14742D01*
X35979Y-14937D01*
X35994Y-15141D01*
X36042Y-15257D01*
X36131Y-15283D01*
X36414Y-15000D01*
X36414Y-15171D01*
X36216Y-15368D01*
X36242Y-15457D01*
X36321Y-15483D01*
X36227Y-15522D01*
X36198Y-15613D01*
X36500Y-15914D01*
X36505Y-15908D01*
X36591Y-15994D01*
X36585Y-16000D01*
X36591Y-16005D01*
X36505Y-16091D01*
X36500Y-16085D01*
X36414Y-16171D01*
X36414Y-16000D01*
X36113Y-15698D01*
X36022Y-15727D01*
X35954Y-15931D01*
X35969Y-16145D01*
X36022Y-16272D01*
X36113Y-16301D01*
X36414Y-16000D01*
X36414Y-16171D01*
X36198Y-16386D01*
X36227Y-16477D01*
X36431Y-16545D01*
X36544Y-16537D01*
X36166Y-16916D01*
X36124Y-16977D01*
X36110Y-17050D01*
X36110Y-19267D01*
X36072Y-19283D01*
X35983Y-19371D01*
X35939Y-19477D01*
X35939Y-15912D01*
X35914Y-15852D01*
X35914Y-14917D01*
X35914Y-11917D01*
X35851Y-11765D01*
X35735Y-11648D01*
X35582Y-11585D01*
X35417Y-11585D01*
X35265Y-11648D01*
X35148Y-11764D01*
X35085Y-11917D01*
X35085Y-12082D01*
X35148Y-12234D01*
X35264Y-12351D01*
X35417Y-12414D01*
X35582Y-12414D01*
X35734Y-12351D01*
X35851Y-12235D01*
X35914Y-12082D01*
X35914Y-11917D01*
X35914Y-14917D01*
X35851Y-14765D01*
X35735Y-14648D01*
X35582Y-14585D01*
X35417Y-14585D01*
X35265Y-14648D01*
X35148Y-14764D01*
X35085Y-14917D01*
X35085Y-15082D01*
X35148Y-15234D01*
X35264Y-15351D01*
X35417Y-15414D01*
X35582Y-15414D01*
X35734Y-15351D01*
X35851Y-15235D01*
X35914Y-15082D01*
X35914Y-14917D01*
X35914Y-15852D01*
X35872Y-15751D01*
X35749Y-15627D01*
X35587Y-15560D01*
X35412Y-15560D01*
X35251Y-15627D01*
X35127Y-15750D01*
X35060Y-15912D01*
X35060Y-16087D01*
X35127Y-16248D01*
X35250Y-16372D01*
X35310Y-16397D01*
X35310Y-16644D01*
X35233Y-16721D01*
X35185Y-16837D01*
X35185Y-16962D01*
X35233Y-17077D01*
X35321Y-17166D01*
X35437Y-17214D01*
X35562Y-17214D01*
X35677Y-17166D01*
X35766Y-17078D01*
X35814Y-16962D01*
X35814Y-16837D01*
X35766Y-16722D01*
X35689Y-16644D01*
X35689Y-16397D01*
X35748Y-16372D01*
X35872Y-16249D01*
X35939Y-16087D01*
X35939Y-15912D01*
X35939Y-19477D01*
X35935Y-19487D01*
X35935Y-19612D01*
X35983Y-19727D01*
X36071Y-19816D01*
X36187Y-19864D01*
X36312Y-19864D01*
X36427Y-19816D01*
X36516Y-19728D01*
X36564Y-19612D01*
X36564Y-19487D01*
X36516Y-19372D01*
X36489Y-19344D01*
X36489Y-17128D01*
X37133Y-16483D01*
X37133Y-16483D01*
X37133Y-16483D01*
X37175Y-16422D01*
X37175Y-16422D01*
X37186Y-16364D01*
X37189Y-16350D01*
X37189Y-16350D01*
X37189Y-16350D01*
X37189Y-16311D01*
X37250Y-16372D01*
X37412Y-16439D01*
X37587Y-16439D01*
X37748Y-16372D01*
X37872Y-16249D01*
X37939Y-16087D01*
X37939Y-15912D01*
X37872Y-15751D01*
X37749Y-15627D01*
X37587Y-15560D01*
X37412Y-15560D01*
X37251Y-15627D01*
X37189Y-15688D01*
X37189Y-15275D01*
X37264Y-15351D01*
X37417Y-15414D01*
X37582Y-15414D01*
X37734Y-15351D01*
X37851Y-15235D01*
X37914Y-15082D01*
X37914Y-14917D01*
X37851Y-14765D01*
X37735Y-14648D01*
X37582Y-14585D01*
X37417Y-14585D01*
X37357Y-14610D01*
X39060Y-12907D01*
X39060Y-12921D01*
X38366Y-13616D01*
X38324Y-13677D01*
X38310Y-13750D01*
X38310Y-14629D01*
X38265Y-14648D01*
X38148Y-14764D01*
X38085Y-14917D01*
X38085Y-15082D01*
X38148Y-15234D01*
X38264Y-15351D01*
X38417Y-15414D01*
X38582Y-15414D01*
X38627Y-15395D01*
X38744Y-15512D01*
X38568Y-15454D01*
X38354Y-15469D01*
X38227Y-15522D01*
X38198Y-15613D01*
X38500Y-15914D01*
X38505Y-15908D01*
X38591Y-15994D01*
X38585Y-16000D01*
X38591Y-16005D01*
X38505Y-16091D01*
X38500Y-16085D01*
X38414Y-16171D01*
X38414Y-16000D01*
X38113Y-15698D01*
X38022Y-15727D01*
X37954Y-15931D01*
X37969Y-16145D01*
X38022Y-16272D01*
X38113Y-16301D01*
X38414Y-16000D01*
X38414Y-16171D01*
X38198Y-16386D01*
X38227Y-16477D01*
X38431Y-16545D01*
X38645Y-16530D01*
X38772Y-16477D01*
X38801Y-16386D01*
X38801Y-16386D01*
X38810Y-16396D01*
X38810Y-17200D01*
X38810Y-18700D01*
X38824Y-18772D01*
X38866Y-18833D01*
X39085Y-19053D01*
X39085Y-19162D01*
X39133Y-19277D01*
X39210Y-19355D01*
X39210Y-21700D01*
X39224Y-21772D01*
X39266Y-21833D01*
X39835Y-22403D01*
X39835Y-22496D01*
X39221Y-23110D01*
X38989Y-23110D01*
X38989Y-19287D01*
X38941Y-19172D01*
X38853Y-19083D01*
X38801Y-19061D01*
X38737Y-19035D01*
X38612Y-19035D01*
X38497Y-19083D01*
X38489Y-19090D01*
X38489Y-18812D01*
X38441Y-18697D01*
X38353Y-18608D01*
X38237Y-18560D01*
X38128Y-18560D01*
X37539Y-17971D01*
X37539Y-17155D01*
X37616Y-17078D01*
X37664Y-16962D01*
X37664Y-16837D01*
X37616Y-16722D01*
X37528Y-16633D01*
X37412Y-16585D01*
X37287Y-16585D01*
X37172Y-16633D01*
X37083Y-16721D01*
X37035Y-16837D01*
X37035Y-16962D01*
X37083Y-17077D01*
X37160Y-17155D01*
X37160Y-18050D01*
X37174Y-18122D01*
X37216Y-18183D01*
X37860Y-18828D01*
X37860Y-18937D01*
X37908Y-19052D01*
X37996Y-19141D01*
X38112Y-19189D01*
X38237Y-19189D01*
X38352Y-19141D01*
X38441Y-19053D01*
X38489Y-18937D01*
X38489Y-18812D01*
X38489Y-19090D01*
X38408Y-19171D01*
X38360Y-19287D01*
X38360Y-19412D01*
X38408Y-19527D01*
X38496Y-19616D01*
X38510Y-19622D01*
X38510Y-19671D01*
X37186Y-20995D01*
X37162Y-20985D01*
X37037Y-20985D01*
X36922Y-21033D01*
X36833Y-21121D01*
X36785Y-21237D01*
X36785Y-21362D01*
X36833Y-21477D01*
X36921Y-21566D01*
X37037Y-21614D01*
X37162Y-21614D01*
X37277Y-21566D01*
X37366Y-21478D01*
X37414Y-21362D01*
X37414Y-21303D01*
X38833Y-19883D01*
X38833Y-19883D01*
X38833Y-19883D01*
X38875Y-19822D01*
X38875Y-19822D01*
X38886Y-19764D01*
X38889Y-19750D01*
X38889Y-19750D01*
X38889Y-19750D01*
X38889Y-19580D01*
X38941Y-19528D01*
X38989Y-19412D01*
X38989Y-19287D01*
X38989Y-23110D01*
X37955Y-23110D01*
X37878Y-23033D01*
X37762Y-22985D01*
X37637Y-22985D01*
X37522Y-23033D01*
X37444Y-23110D01*
X36264Y-23110D01*
X36264Y-21037D01*
X36216Y-20922D01*
X36128Y-20833D01*
X36012Y-20785D01*
X35887Y-20785D01*
X35772Y-20833D01*
X35683Y-20921D01*
X35635Y-21037D01*
X35635Y-21146D01*
X34939Y-21842D01*
X34939Y-15912D01*
X34914Y-15852D01*
X34914Y-14917D01*
X34914Y-11917D01*
X34851Y-11765D01*
X34735Y-11648D01*
X34582Y-11585D01*
X34417Y-11585D01*
X34265Y-11648D01*
X34148Y-11764D01*
X34085Y-11917D01*
X34085Y-12082D01*
X34148Y-12234D01*
X34264Y-12351D01*
X34417Y-12414D01*
X34582Y-12414D01*
X34734Y-12351D01*
X34851Y-12235D01*
X34914Y-12082D01*
X34914Y-11917D01*
X34914Y-14917D01*
X34851Y-14765D01*
X34735Y-14648D01*
X34582Y-14585D01*
X34417Y-14585D01*
X34265Y-14648D01*
X34148Y-14764D01*
X34085Y-14917D01*
X34085Y-15082D01*
X34148Y-15234D01*
X34264Y-15351D01*
X34417Y-15414D01*
X34582Y-15414D01*
X34734Y-15351D01*
X34851Y-15235D01*
X34914Y-15082D01*
X34914Y-14917D01*
X34914Y-15852D01*
X34872Y-15751D01*
X34749Y-15627D01*
X34587Y-15560D01*
X34412Y-15560D01*
X34251Y-15627D01*
X34127Y-15750D01*
X34060Y-15912D01*
X34060Y-16087D01*
X34127Y-16248D01*
X34250Y-16372D01*
X34412Y-16439D01*
X34587Y-16439D01*
X34748Y-16372D01*
X34872Y-16249D01*
X34939Y-16087D01*
X34939Y-15912D01*
X34939Y-21842D01*
X33939Y-22842D01*
X33939Y-15912D01*
X33914Y-15852D01*
X33914Y-14917D01*
X33914Y-11917D01*
X33851Y-11765D01*
X33735Y-11648D01*
X33582Y-11585D01*
X33417Y-11585D01*
X33265Y-11648D01*
X33148Y-11764D01*
X33085Y-11917D01*
X33085Y-12082D01*
X33148Y-12234D01*
X33264Y-12351D01*
X33417Y-12414D01*
X33582Y-12414D01*
X33734Y-12351D01*
X33851Y-12235D01*
X33914Y-12082D01*
X33914Y-11917D01*
X33914Y-14917D01*
X33851Y-14765D01*
X33735Y-14648D01*
X33582Y-14585D01*
X33417Y-14585D01*
X33265Y-14648D01*
X33148Y-14764D01*
X33085Y-14917D01*
X33085Y-15082D01*
X33148Y-15234D01*
X33264Y-15351D01*
X33417Y-15414D01*
X33582Y-15414D01*
X33734Y-15351D01*
X33851Y-15235D01*
X33914Y-15082D01*
X33914Y-14917D01*
X33914Y-15852D01*
X33872Y-15751D01*
X33749Y-15627D01*
X33587Y-15560D01*
X33412Y-15560D01*
X33251Y-15627D01*
X33127Y-15750D01*
X33060Y-15912D01*
X33060Y-16087D01*
X33127Y-16248D01*
X33250Y-16372D01*
X33412Y-16439D01*
X33587Y-16439D01*
X33748Y-16372D01*
X33872Y-16249D01*
X33939Y-16087D01*
X33939Y-15912D01*
X33939Y-22842D01*
X32939Y-23842D01*
X32939Y-15912D01*
X32914Y-15852D01*
X32914Y-14917D01*
X32914Y-11917D01*
X32851Y-11765D01*
X32735Y-11648D01*
X32582Y-11585D01*
X32417Y-11585D01*
X32265Y-11648D01*
X32148Y-11764D01*
X32085Y-11917D01*
X32085Y-12082D01*
X32148Y-12234D01*
X32264Y-12351D01*
X32417Y-12414D01*
X32582Y-12414D01*
X32734Y-12351D01*
X32851Y-12235D01*
X32914Y-12082D01*
X32914Y-11917D01*
X32914Y-14917D01*
X32851Y-14765D01*
X32735Y-14648D01*
X32582Y-14585D01*
X32417Y-14585D01*
X32265Y-14648D01*
X32148Y-14764D01*
X32085Y-14917D01*
X32085Y-15082D01*
X32148Y-15234D01*
X32264Y-15351D01*
X32417Y-15414D01*
X32582Y-15414D01*
X32734Y-15351D01*
X32851Y-15235D01*
X32914Y-15082D01*
X32914Y-14917D01*
X32914Y-15852D01*
X32872Y-15751D01*
X32749Y-15627D01*
X32587Y-15560D01*
X32412Y-15560D01*
X32251Y-15627D01*
X32127Y-15750D01*
X32060Y-15912D01*
X32060Y-16087D01*
X32127Y-16248D01*
X32250Y-16372D01*
X32412Y-16439D01*
X32587Y-16439D01*
X32748Y-16372D01*
X32872Y-16249D01*
X32939Y-16087D01*
X32939Y-15912D01*
X32939Y-23842D01*
X32239Y-24542D01*
X32239Y-20162D01*
X32191Y-20047D01*
X32103Y-19958D01*
X32089Y-19952D01*
X32089Y-17012D01*
X32041Y-16897D01*
X31953Y-16808D01*
X31837Y-16760D01*
X31728Y-16760D01*
X31404Y-16436D01*
X31412Y-16439D01*
X31587Y-16439D01*
X31748Y-16372D01*
X31872Y-16249D01*
X31939Y-16087D01*
X31939Y-15912D01*
X31914Y-15852D01*
X31914Y-14917D01*
X31914Y-11917D01*
X31851Y-11765D01*
X31735Y-11648D01*
X31582Y-11585D01*
X31417Y-11585D01*
X31265Y-11648D01*
X31148Y-11764D01*
X31085Y-11917D01*
X31085Y-12082D01*
X31148Y-12234D01*
X31264Y-12351D01*
X31417Y-12414D01*
X31582Y-12414D01*
X31734Y-12351D01*
X31851Y-12235D01*
X31914Y-12082D01*
X31914Y-11917D01*
X31914Y-14917D01*
X31851Y-14765D01*
X31735Y-14648D01*
X31582Y-14585D01*
X31417Y-14585D01*
X31265Y-14648D01*
X31148Y-14764D01*
X31085Y-14917D01*
X31085Y-15082D01*
X31148Y-15234D01*
X31264Y-15351D01*
X31417Y-15414D01*
X31582Y-15414D01*
X31734Y-15351D01*
X31851Y-15235D01*
X31914Y-15082D01*
X31914Y-14917D01*
X31914Y-15852D01*
X31872Y-15751D01*
X31749Y-15627D01*
X31587Y-15560D01*
X31412Y-15560D01*
X31251Y-15627D01*
X31127Y-15750D01*
X31060Y-15912D01*
X31060Y-16087D01*
X31064Y-16096D01*
X30964Y-15996D01*
X30964Y-14900D01*
X30950Y-14827D01*
X30908Y-14766D01*
X30908Y-14766D01*
X30164Y-14021D01*
X30164Y-13862D01*
X30097Y-13701D01*
X29974Y-13577D01*
X29812Y-13510D01*
X29637Y-13510D01*
X29476Y-13577D01*
X29352Y-13700D01*
X29285Y-13862D01*
X29285Y-14037D01*
X29352Y-14198D01*
X29475Y-14322D01*
X29637Y-14389D01*
X29812Y-14389D01*
X29942Y-14335D01*
X30585Y-14978D01*
X30585Y-16075D01*
X30599Y-16147D01*
X30641Y-16208D01*
X31460Y-17028D01*
X31460Y-17137D01*
X31508Y-17252D01*
X31596Y-17341D01*
X31712Y-17389D01*
X31837Y-17389D01*
X31952Y-17341D01*
X32041Y-17253D01*
X32089Y-17137D01*
X32089Y-17012D01*
X32089Y-19952D01*
X31987Y-19910D01*
X31862Y-19910D01*
X31747Y-19958D01*
X31658Y-20046D01*
X31610Y-20162D01*
X31610Y-20287D01*
X31658Y-20402D01*
X31735Y-20480D01*
X31735Y-22646D01*
X31414Y-22967D01*
X31414Y-22662D01*
X31366Y-22547D01*
X31278Y-22458D01*
X31162Y-22410D01*
X31053Y-22410D01*
X30164Y-21521D01*
X30164Y-14862D01*
X30097Y-14701D01*
X29974Y-14577D01*
X29812Y-14510D01*
X29637Y-14510D01*
X29476Y-14577D01*
X29352Y-14700D01*
X29285Y-14862D01*
X29285Y-15037D01*
X29352Y-15198D01*
X29475Y-15322D01*
X29637Y-15389D01*
X29812Y-15389D01*
X29973Y-15322D01*
X30097Y-15199D01*
X30164Y-15037D01*
X30164Y-14862D01*
X30164Y-21521D01*
X29914Y-21271D01*
X29914Y-16389D01*
X30052Y-16389D01*
X30103Y-16368D01*
X30143Y-16329D01*
X30164Y-16277D01*
X30164Y-16222D01*
X30164Y-15622D01*
X30143Y-15571D01*
X30104Y-15531D01*
X30052Y-15510D01*
X29997Y-15510D01*
X29397Y-15510D01*
X29346Y-15531D01*
X29306Y-15570D01*
X29285Y-15622D01*
X29285Y-15677D01*
X29285Y-16277D01*
X29306Y-16328D01*
X29345Y-16368D01*
X29397Y-16389D01*
X29452Y-16389D01*
X29535Y-16389D01*
X29535Y-21350D01*
X29549Y-21422D01*
X29591Y-21483D01*
X30785Y-22678D01*
X30785Y-22787D01*
X30833Y-22902D01*
X30921Y-22991D01*
X31037Y-23039D01*
X31162Y-23039D01*
X31277Y-22991D01*
X31366Y-22903D01*
X31414Y-22787D01*
X31414Y-22662D01*
X31414Y-22967D01*
X31171Y-23210D01*
X30803Y-23210D01*
X30083Y-22491D01*
X30022Y-22449D01*
X29950Y-22435D01*
X29139Y-22435D01*
X29139Y-18062D01*
X29091Y-17947D01*
X29014Y-17869D01*
X29014Y-16955D01*
X29091Y-16878D01*
X29139Y-16762D01*
X29139Y-16637D01*
X29091Y-16522D01*
X29003Y-16433D01*
X28887Y-16385D01*
X28762Y-16385D01*
X28728Y-16399D01*
X28728Y-13235D01*
X28602Y-12931D01*
X28369Y-12698D01*
X28065Y-12571D01*
X27735Y-12571D01*
X27431Y-12697D01*
X27198Y-12930D01*
X27071Y-13234D01*
X27071Y-13564D01*
X27197Y-13868D01*
X27430Y-14101D01*
X27734Y-14228D01*
X28064Y-14228D01*
X28368Y-14102D01*
X28601Y-13869D01*
X28728Y-13565D01*
X28728Y-13235D01*
X28728Y-16399D01*
X28647Y-16433D01*
X28558Y-16521D01*
X28510Y-16637D01*
X28510Y-16762D01*
X28558Y-16877D01*
X28635Y-16955D01*
X28635Y-17869D01*
X28558Y-17946D01*
X28510Y-18062D01*
X28510Y-18187D01*
X28558Y-18302D01*
X28646Y-18391D01*
X28762Y-18439D01*
X28887Y-18439D01*
X29002Y-18391D01*
X29091Y-18303D01*
X29139Y-18187D01*
X29139Y-18062D01*
X29139Y-22435D01*
X28769Y-22435D01*
X28769Y-21815D01*
X28769Y-21115D01*
X28748Y-21064D01*
X28709Y-21024D01*
X28657Y-21003D01*
X28602Y-21003D01*
X27902Y-21003D01*
X27851Y-21024D01*
X27811Y-21063D01*
X27790Y-21115D01*
X27790Y-21170D01*
X27790Y-21870D01*
X27811Y-21921D01*
X27850Y-21961D01*
X27902Y-21982D01*
X27957Y-21982D01*
X28657Y-21982D01*
X28708Y-21961D01*
X28748Y-21922D01*
X28769Y-21870D01*
X28769Y-21815D01*
X28769Y-22435D01*
X27339Y-22435D01*
X27339Y-19888D01*
X27196Y-19543D01*
X26932Y-19278D01*
X26587Y-19135D01*
X26339Y-19135D01*
X26339Y-15312D01*
X26272Y-15151D01*
X26149Y-15027D01*
X25987Y-14960D01*
X25812Y-14960D01*
X25651Y-15027D01*
X25527Y-15150D01*
X25460Y-15312D01*
X25460Y-15487D01*
X25527Y-15648D01*
X25650Y-15772D01*
X25812Y-15839D01*
X25987Y-15839D01*
X26148Y-15772D01*
X26272Y-15649D01*
X26339Y-15487D01*
X26339Y-15312D01*
X26339Y-19135D01*
X26213Y-19135D01*
X25868Y-19278D01*
X25603Y-19542D01*
X25460Y-19887D01*
X25460Y-20261D01*
X25603Y-20606D01*
X25867Y-20871D01*
X26212Y-21014D01*
X26222Y-21014D01*
X26197Y-21024D01*
X26157Y-21063D01*
X26136Y-21115D01*
X26136Y-21170D01*
X26136Y-21870D01*
X26157Y-21921D01*
X26196Y-21961D01*
X26248Y-21982D01*
X26303Y-21982D01*
X27003Y-21982D01*
X27054Y-21961D01*
X27094Y-21922D01*
X27115Y-21870D01*
X27115Y-21815D01*
X27115Y-21115D01*
X27094Y-21064D01*
X27055Y-21024D01*
X27003Y-21003D01*
X26948Y-21003D01*
X26613Y-21003D01*
X26931Y-20871D01*
X27196Y-20607D01*
X27339Y-20262D01*
X27339Y-19888D01*
X27339Y-22435D01*
X25463Y-22435D01*
X25463Y-21815D01*
X25463Y-21115D01*
X25445Y-21072D01*
X25445Y-15468D01*
X25430Y-15254D01*
X25377Y-15127D01*
X25286Y-15098D01*
X25201Y-15184D01*
X25201Y-15013D01*
X25172Y-14922D01*
X24968Y-14854D01*
X24754Y-14869D01*
X24728Y-14880D01*
X24728Y-13235D01*
X24602Y-12931D01*
X24369Y-12698D01*
X24065Y-12571D01*
X23735Y-12571D01*
X23431Y-12697D01*
X23198Y-12930D01*
X23071Y-13234D01*
X23071Y-13564D01*
X23197Y-13868D01*
X23430Y-14101D01*
X23734Y-14228D01*
X24064Y-14228D01*
X24368Y-14102D01*
X24601Y-13869D01*
X24728Y-13565D01*
X24728Y-13235D01*
X24728Y-14880D01*
X24627Y-14922D01*
X24598Y-15013D01*
X24900Y-15314D01*
X25201Y-15013D01*
X25201Y-15184D01*
X24985Y-15400D01*
X25286Y-15701D01*
X25377Y-15672D01*
X25445Y-15468D01*
X25445Y-21072D01*
X25442Y-21064D01*
X25403Y-21024D01*
X25351Y-21003D01*
X25296Y-21003D01*
X25201Y-21003D01*
X25201Y-15786D01*
X24900Y-15485D01*
X24814Y-15571D01*
X24814Y-15400D01*
X24513Y-15098D01*
X24422Y-15127D01*
X24354Y-15331D01*
X24369Y-15545D01*
X24422Y-15672D01*
X24513Y-15701D01*
X24814Y-15400D01*
X24814Y-15571D01*
X24598Y-15786D01*
X24627Y-15877D01*
X24831Y-15945D01*
X25045Y-15930D01*
X25172Y-15877D01*
X25201Y-15786D01*
X25201Y-21003D01*
X24596Y-21003D01*
X24545Y-21024D01*
X24505Y-21063D01*
X24484Y-21115D01*
X24484Y-21170D01*
X24484Y-21870D01*
X24505Y-21921D01*
X24544Y-21961D01*
X24596Y-21982D01*
X24651Y-21982D01*
X25351Y-21982D01*
X25402Y-21961D01*
X25442Y-21922D01*
X25463Y-21870D01*
X25463Y-21815D01*
X25463Y-22435D01*
X24428Y-22435D01*
X23809Y-21816D01*
X23809Y-21815D01*
X23809Y-21115D01*
X23788Y-21064D01*
X23749Y-21024D01*
X23697Y-21003D01*
X23642Y-21003D01*
X22942Y-21003D01*
X22891Y-21024D01*
X22851Y-21063D01*
X22830Y-21115D01*
X22830Y-21170D01*
X22830Y-21870D01*
X22851Y-21921D01*
X22890Y-21961D01*
X22942Y-21982D01*
X22997Y-21982D01*
X23439Y-21982D01*
X24216Y-22758D01*
X24216Y-22758D01*
X24277Y-22800D01*
X24350Y-22814D01*
X29871Y-22814D01*
X30591Y-23533D01*
X30591Y-23533D01*
X30652Y-23575D01*
X30725Y-23589D01*
X31250Y-23589D01*
X31322Y-23575D01*
X31383Y-23533D01*
X32058Y-22858D01*
X32100Y-22797D01*
X32114Y-22725D01*
X32114Y-20480D01*
X32191Y-20403D01*
X32239Y-20287D01*
X32239Y-20162D01*
X32239Y-24542D01*
X31816Y-24966D01*
X31774Y-25027D01*
X31760Y-25100D01*
X31760Y-25644D01*
X31683Y-25721D01*
X31635Y-25837D01*
X31635Y-25962D01*
X31683Y-26077D01*
X31771Y-26166D01*
X31887Y-26214D01*
X32012Y-26214D01*
X32127Y-26166D01*
X32216Y-26078D01*
X32264Y-25962D01*
X32264Y-25837D01*
X32216Y-25722D01*
X32139Y-25644D01*
X32139Y-25178D01*
X35903Y-21414D01*
X36012Y-21414D01*
X36127Y-21366D01*
X36216Y-21278D01*
X36264Y-21162D01*
X36264Y-21037D01*
X36264Y-23110D01*
X34800Y-23110D01*
X34727Y-23124D01*
X34666Y-23166D01*
X33946Y-23885D01*
X33837Y-23885D01*
X33722Y-23933D01*
X33633Y-24021D01*
X33585Y-24137D01*
X33585Y-24262D01*
X33633Y-24377D01*
X33721Y-24466D01*
X33837Y-24514D01*
X33962Y-24514D01*
X34077Y-24466D01*
X34166Y-24378D01*
X34214Y-24262D01*
X34214Y-24153D01*
X34878Y-23489D01*
X37444Y-23489D01*
X37521Y-23566D01*
X37637Y-23614D01*
X37762Y-23614D01*
X37877Y-23566D01*
X37955Y-23489D01*
X39300Y-23489D01*
X39372Y-23475D01*
X39433Y-23433D01*
X40103Y-22764D01*
X40212Y-22764D01*
X40327Y-22716D01*
X40416Y-22628D01*
X40464Y-22512D01*
X40464Y-22387D01*
X40416Y-22272D01*
X40328Y-22183D01*
X40212Y-22135D01*
X40103Y-22135D01*
X39589Y-21621D01*
X39589Y-19355D01*
X39666Y-19278D01*
X39714Y-19162D01*
X39714Y-19037D01*
X39666Y-18922D01*
X39578Y-18833D01*
X39462Y-18785D01*
X39353Y-18785D01*
X39189Y-18621D01*
X39189Y-17200D01*
X39189Y-16311D01*
X39250Y-16372D01*
X39412Y-16439D01*
X39587Y-16439D01*
X39748Y-16372D01*
X39872Y-16249D01*
X39939Y-16087D01*
X39939Y-15912D01*
X39914Y-15852D01*
X39914Y-14917D01*
X39851Y-14765D01*
X39735Y-14648D01*
X39582Y-14585D01*
X39417Y-14585D01*
X39265Y-14648D01*
X39148Y-14764D01*
X39085Y-14917D01*
X39085Y-15082D01*
X39148Y-15234D01*
X39264Y-15351D01*
X39417Y-15414D01*
X39582Y-15414D01*
X39734Y-15351D01*
X39851Y-15235D01*
X39914Y-15082D01*
X39914Y-14917D01*
X39914Y-15852D01*
X39872Y-15751D01*
X39749Y-15627D01*
X39587Y-15560D01*
X39412Y-15560D01*
X39251Y-15627D01*
X39189Y-15688D01*
X39189Y-15500D01*
X39175Y-15427D01*
X39133Y-15366D01*
X38895Y-15127D01*
X38914Y-15082D01*
X38914Y-14917D01*
X38851Y-14765D01*
X38735Y-14648D01*
X38689Y-14629D01*
X38689Y-13828D01*
X39328Y-13189D01*
X39437Y-13189D01*
X39552Y-13141D01*
X39641Y-13053D01*
X39689Y-12937D01*
X39689Y-12812D01*
X39641Y-12697D01*
X39634Y-12689D01*
X40000Y-12689D01*
X40072Y-12675D01*
X40133Y-12633D01*
X40372Y-12395D01*
X40417Y-12414D01*
X40582Y-12414D01*
X40734Y-12351D01*
X40851Y-12235D01*
X40914Y-12082D01*
X40914Y-11917D01*
X40914Y-14917D01*
X40851Y-14765D01*
X40735Y-14648D01*
X40582Y-14585D01*
X40417Y-14585D01*
X40265Y-14648D01*
X40148Y-14764D01*
X40085Y-14917D01*
X40085Y-15082D01*
X40148Y-15234D01*
X40264Y-15351D01*
X40417Y-15414D01*
X40582Y-15414D01*
X40734Y-15351D01*
X40851Y-15235D01*
X40914Y-15082D01*
X40914Y-14917D01*
X40914Y-15852D01*
X40872Y-15751D01*
X40749Y-15627D01*
X40587Y-15560D01*
X40412Y-15560D01*
X40251Y-15627D01*
X40127Y-15750D01*
X40060Y-15912D01*
X40060Y-16087D01*
X40127Y-16248D01*
X40250Y-16372D01*
X40412Y-16439D01*
X40587Y-16439D01*
X40748Y-16372D01*
X40872Y-16249D01*
X40939Y-16087D01*
X40939Y-15912D01*
X40939Y-27351D01*
X40839Y-27351D01*
X40839Y-25176D01*
X40824Y-24972D01*
X40776Y-24856D01*
X40687Y-24830D01*
X40602Y-24916D01*
X40602Y-24745D01*
X40576Y-24656D01*
X40381Y-24593D01*
X40177Y-24608D01*
X40061Y-24656D01*
X40035Y-24745D01*
X40319Y-25028D01*
X40602Y-24745D01*
X40602Y-24916D01*
X40404Y-25114D01*
X40687Y-25397D01*
X40776Y-25371D01*
X40839Y-25176D01*
X40839Y-27351D01*
X40733Y-27351D01*
X40733Y-26803D01*
X40670Y-26651D01*
X40602Y-26582D01*
X40602Y-25482D01*
X40319Y-25199D01*
X40233Y-25285D01*
X40233Y-25114D01*
X39950Y-24830D01*
X39861Y-24856D01*
X39798Y-25051D01*
X39813Y-25255D01*
X39861Y-25371D01*
X39950Y-25397D01*
X40233Y-25114D01*
X40233Y-25285D01*
X40035Y-25482D01*
X40061Y-25571D01*
X40256Y-25634D01*
X40460Y-25619D01*
X40576Y-25571D01*
X40602Y-25482D01*
X40602Y-26582D01*
X40554Y-26534D01*
X40401Y-26471D01*
X40236Y-26471D01*
X40084Y-26534D01*
X39967Y-26650D01*
X39904Y-26803D01*
X39904Y-26968D01*
X39967Y-27120D01*
X40083Y-27237D01*
X40236Y-27300D01*
X40401Y-27300D01*
X40553Y-27237D01*
X40670Y-27121D01*
X40733Y-26968D01*
X40733Y-26803D01*
X40733Y-27351D01*
X29010Y-27351D01*
X29010Y-26387D01*
X28899Y-26118D01*
X28869Y-26088D01*
X28869Y-23959D01*
X28869Y-23354D01*
X28869Y-23259D01*
X28832Y-23171D01*
X28765Y-23103D01*
X28677Y-23067D01*
X28400Y-23067D01*
X28340Y-23127D01*
X28340Y-23596D01*
X28809Y-23596D01*
X28869Y-23536D01*
X28869Y-23354D01*
X28869Y-23959D01*
X28869Y-23777D01*
X28809Y-23717D01*
X28340Y-23717D01*
X28340Y-24186D01*
X28400Y-24246D01*
X28677Y-24246D01*
X28765Y-24210D01*
X28832Y-24142D01*
X28869Y-24054D01*
X28869Y-23959D01*
X28869Y-26088D01*
X28694Y-25913D01*
X28425Y-25801D01*
X28219Y-25801D01*
X28219Y-24186D01*
X28219Y-23717D01*
X28219Y-23596D01*
X28219Y-23127D01*
X28159Y-23067D01*
X27882Y-23067D01*
X27794Y-23103D01*
X27727Y-23171D01*
X27690Y-23259D01*
X27690Y-23354D01*
X27690Y-23536D01*
X27750Y-23596D01*
X28219Y-23596D01*
X28219Y-23717D01*
X27750Y-23717D01*
X27690Y-23777D01*
X27690Y-23959D01*
X27690Y-24054D01*
X27727Y-24142D01*
X27794Y-24210D01*
X27882Y-24246D01*
X28159Y-24246D01*
X28219Y-24186D01*
X28219Y-25801D01*
X28135Y-25801D01*
X27866Y-25912D01*
X27661Y-26117D01*
X27550Y-26385D01*
X27549Y-26676D01*
X27660Y-26944D01*
X27865Y-27150D01*
X28134Y-27261D01*
X28424Y-27261D01*
X28693Y-27150D01*
X28898Y-26945D01*
X29009Y-26677D01*
X29010Y-26387D01*
X29010Y-27351D01*
X27215Y-27351D01*
X27215Y-23959D01*
X27215Y-23354D01*
X27215Y-23259D01*
X27178Y-23171D01*
X27111Y-23103D01*
X27023Y-23067D01*
X26746Y-23067D01*
X26686Y-23127D01*
X26686Y-23596D01*
X27155Y-23596D01*
X27215Y-23536D01*
X27215Y-23354D01*
X27215Y-23959D01*
X27215Y-23777D01*
X27155Y-23717D01*
X26686Y-23717D01*
X26686Y-24186D01*
X26746Y-24246D01*
X27023Y-24246D01*
X27111Y-24210D01*
X27178Y-24142D01*
X27215Y-24054D01*
X27215Y-23959D01*
X27215Y-27351D01*
X26565Y-27351D01*
X26565Y-24186D01*
X26565Y-23717D01*
X26565Y-23596D01*
X26565Y-23127D01*
X26505Y-23067D01*
X26228Y-23067D01*
X26140Y-23103D01*
X26073Y-23171D01*
X26036Y-23259D01*
X26036Y-23354D01*
X26036Y-23536D01*
X26096Y-23596D01*
X26565Y-23596D01*
X26565Y-23717D01*
X26096Y-23717D01*
X26036Y-23777D01*
X26036Y-23959D01*
X26036Y-24054D01*
X26073Y-24142D01*
X26140Y-24210D01*
X26228Y-24246D01*
X26505Y-24246D01*
X26565Y-24186D01*
X26565Y-27351D01*
X25563Y-27351D01*
X25563Y-23959D01*
X25563Y-23354D01*
X25563Y-23259D01*
X25526Y-23171D01*
X25459Y-23103D01*
X25371Y-23067D01*
X25094Y-23067D01*
X25034Y-23127D01*
X25034Y-23596D01*
X25503Y-23596D01*
X25563Y-23536D01*
X25563Y-23354D01*
X25563Y-23959D01*
X25563Y-23777D01*
X25503Y-23717D01*
X25034Y-23717D01*
X25034Y-24186D01*
X25094Y-24246D01*
X25371Y-24246D01*
X25459Y-24210D01*
X25526Y-24142D01*
X25563Y-24054D01*
X25563Y-23959D01*
X25563Y-27351D01*
X24913Y-27351D01*
X24913Y-24186D01*
X24913Y-23717D01*
X24913Y-23596D01*
X24913Y-23127D01*
X24853Y-23067D01*
X24576Y-23067D01*
X24488Y-23103D01*
X24421Y-23171D01*
X24384Y-23259D01*
X24384Y-23354D01*
X24384Y-23536D01*
X24444Y-23596D01*
X24913Y-23596D01*
X24913Y-23717D01*
X24444Y-23717D01*
X24384Y-23777D01*
X24384Y-23959D01*
X24384Y-24054D01*
X24421Y-24142D01*
X24488Y-24210D01*
X24576Y-24246D01*
X24853Y-24246D01*
X24913Y-24186D01*
X24913Y-27351D01*
X24050Y-27351D01*
X24050Y-26387D01*
X23939Y-26118D01*
X23909Y-26088D01*
X23909Y-23959D01*
X23909Y-23354D01*
X23909Y-23259D01*
X23872Y-23171D01*
X23805Y-23103D01*
X23717Y-23067D01*
X23440Y-23067D01*
X23380Y-23127D01*
X23380Y-23596D01*
X23849Y-23596D01*
X23909Y-23536D01*
X23909Y-23354D01*
X23909Y-23959D01*
X23909Y-23777D01*
X23849Y-23717D01*
X23380Y-23717D01*
X23380Y-24186D01*
X23440Y-24246D01*
X23717Y-24246D01*
X23805Y-24210D01*
X23872Y-24142D01*
X23909Y-24054D01*
X23909Y-23959D01*
X23909Y-26088D01*
X23734Y-25913D01*
X23465Y-25801D01*
X23259Y-25801D01*
X23259Y-24186D01*
X23259Y-23717D01*
X23259Y-23596D01*
X23259Y-23127D01*
X23199Y-23067D01*
X22922Y-23067D01*
X22834Y-23103D01*
X22767Y-23171D01*
X22730Y-23259D01*
X22730Y-23354D01*
X22730Y-23536D01*
X22790Y-23596D01*
X23259Y-23596D01*
X23259Y-23717D01*
X22790Y-23717D01*
X22730Y-23777D01*
X22730Y-23959D01*
X22730Y-24054D01*
X22767Y-24142D01*
X22834Y-24210D01*
X22922Y-24246D01*
X23199Y-24246D01*
X23259Y-24186D01*
X23259Y-25801D01*
X23175Y-25801D01*
X22906Y-25912D01*
X22701Y-26117D01*
X22590Y-26385D01*
X22589Y-26676D01*
X22700Y-26944D01*
X22905Y-27150D01*
X23174Y-27261D01*
X23464Y-27261D01*
X23733Y-27150D01*
X23938Y-26945D01*
X24049Y-26677D01*
X24050Y-26387D01*
X24050Y-27351D01*
X20939Y-27351D01*
X20939Y-25803D01*
X20939Y-11653D01*
X20827Y-11381D01*
X20619Y-11173D01*
X20347Y-11060D01*
X20053Y-11060D01*
X19781Y-11172D01*
X19573Y-11380D01*
X19460Y-11652D01*
X19460Y-11946D01*
X19572Y-12218D01*
X19780Y-12426D01*
X20052Y-12539D01*
X20346Y-12539D01*
X20618Y-12427D01*
X20826Y-12219D01*
X20939Y-11947D01*
X20939Y-11653D01*
X20939Y-25803D01*
X20827Y-25531D01*
X20619Y-25323D01*
X20347Y-25210D01*
X20053Y-25210D01*
X19781Y-25322D01*
X19573Y-25530D01*
X19460Y-25802D01*
X19460Y-26096D01*
X19572Y-26368D01*
X19780Y-26576D01*
X20052Y-26689D01*
X20346Y-26689D01*
X20618Y-26577D01*
X20826Y-26369D01*
X20939Y-26097D01*
X20939Y-25803D01*
X20939Y-27351D01*
X18339Y-27351D01*
X18339Y-26162D01*
X18272Y-26001D01*
X18149Y-25877D01*
X17987Y-25810D01*
X17812Y-25810D01*
X17651Y-25877D01*
X17527Y-26000D01*
X17460Y-26162D01*
X17460Y-26337D01*
X17527Y-26498D01*
X17650Y-26622D01*
X17812Y-26689D01*
X17987Y-26689D01*
X18148Y-26622D01*
X18272Y-26499D01*
X18339Y-26337D01*
X18339Y-26162D01*
X18339Y-27351D01*
X16339Y-27351D01*
X16339Y-26162D01*
X16339Y-25162D01*
X16272Y-25001D01*
X16149Y-24877D01*
X15987Y-24810D01*
X15812Y-24810D01*
X15651Y-24877D01*
X15527Y-25000D01*
X15460Y-25162D01*
X15460Y-25337D01*
X15527Y-25498D01*
X15650Y-25622D01*
X15812Y-25689D01*
X15987Y-25689D01*
X16148Y-25622D01*
X16272Y-25499D01*
X16339Y-25337D01*
X16339Y-25162D01*
X16339Y-26162D01*
X16272Y-26001D01*
X16149Y-25877D01*
X15987Y-25810D01*
X15812Y-25810D01*
X15651Y-25877D01*
X15527Y-26000D01*
X15460Y-26162D01*
X15460Y-26337D01*
X15527Y-26498D01*
X15650Y-26622D01*
X15812Y-26689D01*
X15987Y-26689D01*
X16148Y-26622D01*
X16272Y-26499D01*
X16339Y-26337D01*
X16339Y-26162D01*
X16339Y-27351D01*
X15445Y-27351D01*
X15445Y-26318D01*
X15430Y-26104D01*
X15377Y-25977D01*
X15286Y-25948D01*
X15201Y-26034D01*
X14985Y-26250D01*
X15286Y-26551D01*
X15377Y-26522D01*
X15445Y-26318D01*
X15445Y-27351D01*
X15201Y-27351D01*
X15201Y-26636D01*
X14900Y-26335D01*
X14598Y-26636D01*
X14627Y-26727D01*
X14831Y-26795D01*
X15045Y-26780D01*
X15172Y-26727D01*
X15201Y-26636D01*
X15201Y-27351D01*
X12339Y-27351D01*
X12339Y-25803D01*
X12339Y-11653D01*
X12227Y-11381D01*
X12019Y-11173D01*
X11747Y-11060D01*
X11453Y-11060D01*
X11181Y-11172D01*
X10973Y-11380D01*
X10860Y-11652D01*
X10860Y-11946D01*
X10972Y-12218D01*
X11180Y-12426D01*
X11452Y-12539D01*
X11746Y-12539D01*
X12018Y-12427D01*
X12226Y-12219D01*
X12339Y-11947D01*
X12339Y-11653D01*
X12339Y-25803D01*
X12227Y-25531D01*
X12019Y-25323D01*
X11747Y-25210D01*
X11453Y-25210D01*
X11181Y-25322D01*
X10973Y-25530D01*
X10860Y-25802D01*
X10860Y-26096D01*
X10972Y-26368D01*
X11180Y-26576D01*
X11452Y-26689D01*
X11746Y-26689D01*
X12018Y-26577D01*
X12226Y-26369D01*
X12339Y-26097D01*
X12339Y-25803D01*
X12339Y-27351D01*
X9773Y-27351D01*
X9773Y-10398D01*
X13683Y-10398D01*
X13166Y-10916D01*
X13124Y-10977D01*
X13110Y-11050D01*
X13110Y-11800D01*
X13110Y-11900D01*
X13124Y-11972D01*
X13166Y-12033D01*
X13460Y-12328D01*
X13460Y-12827D01*
X13481Y-12878D01*
X13520Y-12918D01*
X13572Y-12939D01*
X13627Y-12939D01*
X14227Y-12939D01*
X14278Y-12918D01*
X14318Y-12879D01*
X14339Y-12827D01*
X14339Y-12772D01*
X14339Y-12172D01*
X14318Y-12121D01*
X14279Y-12081D01*
X14227Y-12060D01*
X14172Y-12060D01*
X13728Y-12060D01*
X13489Y-11821D01*
X13489Y-11800D01*
X13489Y-11657D01*
X13527Y-11748D01*
X13650Y-11872D01*
X13812Y-11939D01*
X13987Y-11939D01*
X14148Y-11872D01*
X14272Y-11749D01*
X14339Y-11587D01*
X14339Y-11412D01*
X14272Y-11251D01*
X14149Y-11127D01*
X13987Y-11060D01*
X13812Y-11060D01*
X13651Y-11127D01*
X13527Y-11250D01*
X13489Y-11342D01*
X13489Y-11128D01*
X13928Y-10689D01*
X15442Y-10689D01*
X15046Y-11085D01*
X14987Y-11060D01*
X14812Y-11060D01*
X14651Y-11127D01*
X14527Y-11250D01*
X14460Y-11412D01*
X14460Y-11587D01*
X14527Y-11748D01*
X14650Y-11872D01*
X14812Y-11939D01*
X14987Y-11939D01*
X15148Y-11872D01*
X15210Y-11811D01*
X15210Y-12103D01*
X15201Y-12113D01*
X15172Y-12022D01*
X14968Y-11954D01*
X14754Y-11969D01*
X14627Y-12022D01*
X14598Y-12113D01*
X14900Y-12414D01*
X14905Y-12408D01*
X14991Y-12494D01*
X14985Y-12500D01*
X14991Y-12505D01*
X14905Y-12591D01*
X14900Y-12585D01*
X14814Y-12671D01*
X14814Y-12500D01*
X14513Y-12198D01*
X14422Y-12227D01*
X14354Y-12431D01*
X14369Y-12645D01*
X14422Y-12772D01*
X14513Y-12801D01*
X14814Y-12500D01*
X14814Y-12671D01*
X14598Y-12886D01*
X14627Y-12977D01*
X14831Y-13045D01*
X15045Y-13030D01*
X15172Y-12977D01*
X15201Y-12886D01*
X15201Y-12886D01*
X15210Y-12896D01*
X15210Y-23496D01*
X15201Y-23505D01*
X13896Y-24810D01*
X13812Y-24810D01*
X13651Y-24877D01*
X13527Y-25000D01*
X13460Y-25162D01*
X13460Y-25337D01*
X13527Y-25498D01*
X13650Y-25622D01*
X13812Y-25689D01*
X13987Y-25689D01*
X14148Y-25622D01*
X14210Y-25561D01*
X14210Y-25671D01*
X14046Y-25835D01*
X13987Y-25810D01*
X13812Y-25810D01*
X13651Y-25877D01*
X13527Y-26000D01*
X13460Y-26162D01*
X13460Y-26337D01*
X13527Y-26498D01*
X13650Y-26622D01*
X13812Y-26689D01*
X13987Y-26689D01*
X14148Y-26622D01*
X14272Y-26499D01*
X14339Y-26337D01*
X14339Y-26162D01*
X14314Y-26103D01*
X14412Y-26005D01*
X14354Y-26181D01*
X14369Y-26395D01*
X14422Y-26522D01*
X14513Y-26551D01*
X14814Y-26250D01*
X14808Y-26244D01*
X14894Y-26158D01*
X14900Y-26164D01*
X15201Y-25863D01*
X15172Y-25772D01*
X14968Y-25704D01*
X14754Y-25719D01*
X14627Y-25772D01*
X14598Y-25863D01*
X14568Y-25832D01*
X14575Y-25822D01*
X14589Y-25750D01*
X14589Y-25561D01*
X14650Y-25622D01*
X14812Y-25689D01*
X14987Y-25689D01*
X15148Y-25622D01*
X15272Y-25499D01*
X15339Y-25337D01*
X15339Y-25162D01*
X15285Y-25032D01*
X17033Y-23283D01*
X17033Y-23283D01*
X17033Y-23283D01*
X17075Y-23222D01*
X17075Y-23222D01*
X17086Y-23164D01*
X17089Y-23150D01*
X17089Y-23150D01*
X17089Y-23150D01*
X17089Y-14900D01*
X17089Y-12897D01*
X17148Y-12872D01*
X17272Y-12749D01*
X17339Y-12587D01*
X17339Y-12412D01*
X17272Y-12251D01*
X17211Y-12189D01*
X17400Y-12189D01*
X17472Y-12175D01*
X17533Y-12133D01*
X17753Y-11914D01*
X17812Y-11939D01*
X17987Y-11939D01*
X18148Y-11872D01*
X18260Y-11761D01*
X18260Y-11871D01*
X18046Y-12085D01*
X17987Y-12060D01*
X17812Y-12060D01*
X17651Y-12127D01*
X17527Y-12250D01*
X17460Y-12412D01*
X17460Y-12587D01*
X17527Y-12748D01*
X17650Y-12872D01*
X17812Y-12939D01*
X17987Y-12939D01*
X18148Y-12872D01*
X18272Y-12749D01*
X18339Y-12587D01*
X18339Y-12412D01*
X18314Y-12353D01*
X18583Y-12083D01*
X18583Y-12083D01*
X18583Y-12083D01*
X18610Y-12044D01*
X18610Y-23221D01*
X17278Y-24553D01*
X17237Y-24614D01*
X17223Y-24687D01*
X17223Y-24841D01*
X17201Y-24863D01*
X17172Y-24772D01*
X16968Y-24704D01*
X16754Y-24719D01*
X16627Y-24772D01*
X16598Y-24863D01*
X16900Y-25164D01*
X16905Y-25158D01*
X16991Y-25244D01*
X16985Y-25250D01*
X16991Y-25255D01*
X16905Y-25341D01*
X16900Y-25335D01*
X16814Y-25421D01*
X16814Y-25250D01*
X16513Y-24948D01*
X16422Y-24977D01*
X16354Y-25181D01*
X16369Y-25395D01*
X16422Y-25522D01*
X16513Y-25551D01*
X16814Y-25250D01*
X16814Y-25421D01*
X16598Y-25636D01*
X16627Y-25727D01*
X16831Y-25795D01*
X17045Y-25780D01*
X17141Y-25740D01*
X17046Y-25835D01*
X16987Y-25810D01*
X16812Y-25810D01*
X16651Y-25877D01*
X16527Y-26000D01*
X16460Y-26162D01*
X16460Y-26337D01*
X16527Y-26498D01*
X16650Y-26622D01*
X16812Y-26689D01*
X16987Y-26689D01*
X17148Y-26622D01*
X17272Y-26499D01*
X17339Y-26337D01*
X17339Y-26162D01*
X17314Y-26103D01*
X17546Y-25871D01*
X17546Y-25871D01*
X17546Y-25871D01*
X17587Y-25810D01*
X17602Y-25737D01*
X17602Y-25689D01*
X17627Y-25689D01*
X18227Y-25689D01*
X18278Y-25668D01*
X18318Y-25629D01*
X18339Y-25577D01*
X18339Y-25522D01*
X18339Y-24922D01*
X18318Y-24871D01*
X18279Y-24831D01*
X18227Y-24810D01*
X18172Y-24810D01*
X18089Y-24810D01*
X18089Y-24703D01*
X19233Y-23558D01*
X19233Y-23558D01*
X19233Y-23558D01*
X19275Y-23497D01*
X19275Y-23497D01*
X19286Y-23439D01*
X19289Y-23425D01*
X19289Y-23425D01*
X19289Y-23425D01*
X19289Y-13500D01*
X19289Y-11200D01*
X19289Y-11199D01*
X19289Y-11199D01*
X19286Y-11185D01*
X19275Y-11127D01*
X19275Y-11127D01*
X19233Y-11066D01*
X19233Y-11066D01*
X18857Y-10689D01*
X31188Y-10689D01*
X31127Y-10750D01*
X31060Y-10912D01*
X31060Y-11087D01*
X31127Y-11248D01*
X31250Y-11372D01*
X31412Y-11439D01*
X31587Y-11439D01*
X31748Y-11372D01*
X31872Y-11249D01*
X31939Y-11087D01*
X31939Y-10912D01*
X31872Y-10751D01*
X31811Y-10689D01*
X32188Y-10689D01*
X32127Y-10750D01*
X32060Y-10912D01*
X32060Y-11087D01*
X32127Y-11248D01*
X32250Y-11372D01*
X32412Y-11439D01*
X32587Y-11439D01*
X32748Y-11372D01*
X32872Y-11249D01*
X32939Y-11087D01*
X32939Y-10912D01*
X32872Y-10751D01*
X32811Y-10689D01*
X33188Y-10689D01*
X33127Y-10750D01*
X33060Y-10912D01*
X33060Y-11087D01*
X33127Y-11248D01*
X33250Y-11372D01*
X33412Y-11439D01*
X33587Y-11439D01*
X33748Y-11372D01*
X33872Y-11249D01*
X33939Y-11087D01*
X33939Y-10912D01*
X33872Y-10751D01*
X33811Y-10689D01*
X34188Y-10689D01*
X34127Y-10750D01*
X34060Y-10912D01*
X34060Y-11087D01*
X34127Y-11248D01*
X34250Y-11372D01*
X34412Y-11439D01*
X34587Y-11439D01*
X34748Y-11372D01*
X34872Y-11249D01*
X34939Y-11087D01*
X34939Y-10912D01*
X34872Y-10751D01*
X34811Y-10689D01*
X35188Y-10689D01*
X35127Y-10750D01*
X35060Y-10912D01*
X35060Y-11087D01*
X35127Y-11248D01*
X35250Y-11372D01*
X35412Y-11439D01*
X35587Y-11439D01*
X35748Y-11372D01*
X35872Y-11249D01*
X35939Y-11087D01*
X35939Y-10912D01*
X35872Y-10751D01*
X35811Y-10689D01*
X36103Y-10689D01*
X36113Y-10698D01*
X36022Y-10727D01*
X35954Y-10931D01*
X35969Y-11145D01*
X36022Y-11272D01*
X36113Y-11301D01*
X36414Y-11000D01*
X36408Y-10994D01*
X36494Y-10908D01*
X36500Y-10914D01*
X36505Y-10908D01*
X36591Y-10994D01*
X36585Y-11000D01*
X36886Y-11301D01*
X36977Y-11272D01*
X37045Y-11068D01*
X37030Y-10854D01*
X36977Y-10727D01*
X36886Y-10698D01*
X36896Y-10689D01*
X37060Y-10689D01*
X37060Y-10727D01*
X37060Y-11327D01*
X37081Y-11378D01*
X37120Y-11418D01*
X37172Y-11439D01*
X37227Y-11439D01*
X37827Y-11439D01*
X37878Y-11418D01*
X37918Y-11379D01*
X37939Y-11327D01*
X37939Y-11272D01*
X37939Y-10689D01*
X38188Y-10689D01*
X38127Y-10750D01*
X38060Y-10912D01*
X38060Y-11087D01*
X38127Y-11248D01*
X38250Y-11372D01*
X38412Y-11439D01*
X38587Y-11439D01*
X38748Y-11372D01*
X38872Y-11249D01*
X38939Y-11087D01*
X38939Y-10912D01*
X38872Y-10751D01*
X38811Y-10689D01*
X39188Y-10689D01*
X39127Y-10750D01*
X39060Y-10912D01*
X39060Y-11087D01*
X39127Y-11248D01*
X39250Y-11372D01*
X39412Y-11439D01*
X39587Y-11439D01*
X39748Y-11372D01*
X39872Y-11249D01*
X39939Y-11087D01*
X39939Y-10912D01*
X39872Y-10751D01*
X39811Y-10689D01*
X40188Y-10689D01*
X40127Y-10750D01*
X40060Y-10912D01*
X40060Y-11087D01*
X40127Y-11248D01*
X40250Y-11372D01*
X40412Y-11439D01*
X40587Y-11439D01*
X40748Y-11372D01*
X40872Y-11249D01*
X40939Y-11087D01*
X40939Y-10912D01*
X40872Y-10751D01*
X40811Y-10689D01*
X41188Y-10689D01*
X41127Y-10750D01*
X41060Y-10912D01*
X41060Y-11087D01*
X41127Y-11248D01*
X41250Y-11372D01*
X41412Y-11439D01*
X41587Y-11439D01*
X41748Y-11372D01*
X41872Y-11249D01*
X41939Y-11087D01*
X41939Y-10912D01*
X41872Y-10751D01*
X41811Y-10689D01*
X42188Y-10689D01*
X42127Y-10750D01*
X42060Y-10912D01*
X42060Y-11087D01*
X42127Y-11248D01*
X42250Y-11372D01*
X42412Y-11439D01*
X42587Y-11439D01*
X42748Y-11372D01*
X42872Y-11249D01*
X42939Y-11087D01*
X42939Y-10912D01*
X42872Y-10751D01*
X42811Y-10689D01*
X43188Y-10689D01*
X43127Y-10750D01*
X43060Y-10912D01*
X43060Y-11087D01*
X43127Y-11248D01*
X43250Y-11372D01*
X43412Y-11439D01*
X43587Y-11439D01*
X43748Y-11372D01*
X43810Y-11311D01*
X43810Y-11724D01*
X43735Y-11648D01*
X43582Y-11585D01*
X43417Y-11585D01*
X43265Y-11648D01*
X43148Y-11764D01*
X43085Y-11917D01*
X43085Y-12082D01*
X43148Y-12234D01*
X43264Y-12351D01*
X43310Y-12370D01*
X43310Y-12744D01*
X43233Y-12821D01*
X43185Y-12937D01*
X43185Y-13062D01*
X43233Y-13177D01*
X43321Y-13266D01*
X43437Y-13314D01*
X43562Y-13314D01*
X43677Y-13266D01*
X43766Y-13178D01*
X43810Y-13072D01*
X43810Y-13221D01*
X43366Y-13666D01*
X43324Y-13727D01*
X43310Y-13800D01*
X43310Y-14629D01*
X43265Y-14648D01*
X43189Y-14724D01*
X43189Y-13500D01*
X43175Y-13427D01*
X43175Y-13427D01*
X43133Y-13366D01*
X43133Y-13366D01*
X42914Y-13146D01*
X42914Y-11917D01*
X42851Y-11765D01*
X42735Y-11648D01*
X42582Y-11585D01*
X42417Y-11585D01*
X42265Y-11648D01*
X42148Y-11764D01*
X42085Y-11917D01*
X42085Y-12082D01*
X42148Y-12234D01*
X42264Y-12351D01*
X42417Y-12414D01*
X42582Y-12414D01*
X42734Y-12351D01*
X42851Y-12235D01*
X42914Y-12082D01*
X42914Y-11917D01*
X42914Y-13146D01*
X41895Y-12127D01*
X41914Y-12082D01*
X41914Y-11917D01*
X41851Y-11765D01*
X41735Y-11648D01*
X41582Y-11585D01*
X41417Y-11585D01*
X41265Y-11648D01*
X41148Y-11764D01*
X41085Y-11917D01*
X41085Y-12082D01*
X41148Y-12234D01*
X41264Y-12351D01*
X41417Y-12414D01*
X41582Y-12414D01*
X41627Y-12395D01*
X42810Y-13578D01*
X42810Y-14724D01*
X42735Y-14648D01*
X42582Y-14585D01*
X42417Y-14585D01*
X42265Y-14648D01*
X42148Y-14764D01*
X42085Y-14917D01*
X42085Y-15082D01*
X42148Y-15234D01*
X42264Y-15351D01*
X42417Y-15414D01*
X42582Y-15414D01*
X42734Y-15351D01*
X42810Y-15275D01*
X42810Y-15688D01*
X42749Y-15627D01*
X42587Y-15560D01*
X42412Y-15560D01*
X42251Y-15627D01*
X42127Y-15750D01*
X42060Y-15912D01*
X42060Y-16087D01*
X42127Y-16248D01*
X42250Y-16372D01*
X42412Y-16439D01*
X42587Y-16439D01*
X42748Y-16372D01*
X42810Y-16311D01*
X42810Y-17264D01*
X42733Y-17341D01*
X42685Y-17457D01*
X42685Y-17582D01*
X42733Y-17697D01*
X42821Y-17786D01*
X42937Y-17834D01*
X43062Y-17834D01*
X43177Y-17786D01*
X43266Y-17698D01*
X43314Y-17582D01*
X43314Y-17457D01*
X43266Y-17342D01*
X43189Y-17264D01*
X43189Y-16311D01*
X43250Y-16372D01*
X43412Y-16439D01*
X43587Y-16439D01*
X43748Y-16372D01*
X43872Y-16249D01*
X43939Y-16087D01*
X43939Y-15912D01*
X43872Y-15751D01*
X43749Y-15627D01*
X43587Y-15560D01*
X43412Y-15560D01*
X43251Y-15627D01*
X43189Y-15688D01*
X43189Y-15275D01*
X43264Y-15351D01*
X43417Y-15414D01*
X43582Y-15414D01*
X43734Y-15351D01*
X43851Y-15235D01*
X43914Y-15082D01*
X43914Y-14917D01*
X43851Y-14765D01*
X43735Y-14648D01*
X43689Y-14629D01*
X43689Y-13878D01*
X44133Y-13433D01*
X44175Y-13372D01*
X44189Y-13300D01*
X44189Y-12411D01*
X44197Y-12414D01*
X44252Y-12414D01*
X44802Y-12414D01*
X44853Y-12393D01*
X44893Y-12354D01*
X44914Y-12302D01*
X44914Y-12247D01*
X44914Y-11697D01*
X44893Y-11646D01*
X44854Y-11606D01*
X44802Y-11585D01*
X44747Y-11585D01*
X44197Y-11585D01*
X44189Y-11588D01*
X44189Y-11311D01*
X44250Y-11372D01*
X44412Y-11439D01*
X44587Y-11439D01*
X44748Y-11372D01*
X44872Y-11249D01*
X44939Y-11087D01*
X44939Y-10912D01*
X44872Y-10751D01*
X44749Y-10627D01*
X44587Y-10560D01*
X44412Y-10560D01*
X44251Y-10627D01*
X44187Y-10690D01*
X44175Y-10627D01*
X44133Y-10566D01*
X44133Y-10566D01*
X43966Y-10398D01*
X48851Y-10398D01*
X48851Y-27351D01*
M02*
