M48
INCH,TZ
T1C0.025
T2C0.032
T3C0.035
T4C0.039
T5C0.040
T6C0.050
T7C0.079
T8C0.100
T9C0.118
T10C0.120
%
T1
X28825Y-16700
X28825Y-18125
X31100Y-22725
X31775Y-17075
X31925Y-20225
X31950Y-25900
X32400Y-25700
X33850Y-22100
X33900Y-24200
X35500Y-16900
X35950Y-21100
X36250Y-19550
X37100Y-21300
X37350Y-16900
X37700Y-17700
X37700Y-23300
X38175Y-18875
X38675Y-19350
X39100Y-21900
X39375Y-12875
X39400Y-19100
X40150Y-22450
X40550Y-19050
X41400Y-22900
X42000Y-21050
X43000Y-17520
X43500Y-13000
X43880Y-18200
X44600Y-24200
X44700Y-22900
X44700Y-23700
X45475Y-25400
X45500Y-22750
X45600Y-18160
X48300Y-21600
T2
X13900Y-11500
X13900Y-12500
X13900Y-25250
X13900Y-26250
X14900Y-11500
X14900Y-12500
X14900Y-25250
X14900Y-26250
X15900Y-11500
X15900Y-12500
X15900Y-25250
X15900Y-26250
X16900Y-11500
X16900Y-12500
X16900Y-25250
X16900Y-26250
X17900Y-11500
X17900Y-12500
X17900Y-25250
X17900Y-26250
X31500Y-12000
X31500Y-15000
X32500Y-12000
X32500Y-15000
X33500Y-12000
X33500Y-15000
X34500Y-12000
X34500Y-15000
X35500Y-12000
X35500Y-15000
X36500Y-12000
X36500Y-15000
X37500Y-12000
X37500Y-15000
X38500Y-12000
X38500Y-15000
X39500Y-12000
X39500Y-15000
X40500Y-12000
X40500Y-15000
X41500Y-12000
X41500Y-15000
X42500Y-12000
X42500Y-15000
X43500Y-12000
X43500Y-15000
X44500Y-12000
X44500Y-15000
T3
X24900Y-15400
X25900Y-15400
T4
X40319Y-25114
X40319Y-26886
X42681Y-25114
X42681Y-26886
T5
X29725Y-13950
X29725Y-14950
X29725Y-15950
X31500Y-11000
X31500Y-16000
X32500Y-11000
X32500Y-16000
X33500Y-11000
X33500Y-16000
X34500Y-11000
X34500Y-16000
X35500Y-11000
X35500Y-16000
X36500Y-11000
X36500Y-16000
X37500Y-11000
X37500Y-16000
X38500Y-11000
X38500Y-16000
X39500Y-11000
X39500Y-16000
X40500Y-11000
X40500Y-16000
X41500Y-11000
X41500Y-16000
X42500Y-11000
X42500Y-16000
X43500Y-11000
X43500Y-16000
X44500Y-11000
X44500Y-16000
X45500Y-11000
X45500Y-16000
X46500Y-11000
X46500Y-16000
X47200Y-17500
X47200Y-18500
X47200Y-19500
X48100Y-11000
X48100Y-12000
X48100Y-13000
X48100Y-14000
X48100Y-15000
X48100Y-16000
X48200Y-17500
X48200Y-18500
X48200Y-19500
T6
X23320Y-21493
X23320Y-23657
X24974Y-21493
X24974Y-23657
X26626Y-21493
X26626Y-23657
X28280Y-21493
X28280Y-23657
T7
X23900Y-13400
X27900Y-13400
T8
X11600Y-11800
X11600Y-25950
X20200Y-11800
X20200Y-25950
T9
X23320Y-26532
X28280Y-26532
T10
X26400Y-20075
X45525Y-20075
M30
