G04 (created by PCBNEW (2013-07-07 BZR 4022)-stable) date 12/17/2013 9:25:27 PM*
%MOIN*%
G04 Gerber Fmt 3.4, Leading zero omitted, Abs format*
%FSLAX34Y34*%
G01*
G70*
G90*
G04 APERTURE LIST*
%ADD10C,0.00590551*%
%ADD11C,0.135748*%
%ADD12R,0.075748X0.075748*%
%ADD13C,0.075748*%
%ADD14C,0.175748*%
%ADD15C,0.133858*%
%ADD16R,0.115748X0.115748*%
%ADD17C,0.153548*%
%ADD18C,0.070748*%
%ADD19R,0.070748X0.070748*%
%ADD20C,0.071748*%
G04 APERTURE END LIST*
G54D10*
G54D11*
X11600Y-25950D03*
X20200Y-25950D03*
G54D12*
X17900Y-25250D03*
G54D13*
X17900Y-26250D03*
X16900Y-25250D03*
X16900Y-26250D03*
X15900Y-25250D03*
X15900Y-26250D03*
X14900Y-25250D03*
X14900Y-26250D03*
X13900Y-25250D03*
X13900Y-26250D03*
G54D14*
X45525Y-20075D03*
X26400Y-20075D03*
G54D15*
X23370Y-27166D03*
G54D16*
X23370Y-22128D03*
X25024Y-22128D03*
X26676Y-22128D03*
X28330Y-22128D03*
X23370Y-24292D03*
X25024Y-24292D03*
X26676Y-24292D03*
X28330Y-24292D03*
G54D15*
X28330Y-27166D03*
G54D11*
X20200Y-11800D03*
X11600Y-11800D03*
G54D12*
X13900Y-12500D03*
G54D13*
X13900Y-11500D03*
X14900Y-12500D03*
X14900Y-11500D03*
X15900Y-12500D03*
X15900Y-11500D03*
X16900Y-12500D03*
X16900Y-11500D03*
X17900Y-12500D03*
X17900Y-11500D03*
G54D17*
X27900Y-13400D03*
X23900Y-13400D03*
G54D13*
X24900Y-15400D03*
X25900Y-15400D03*
G54D18*
X48226Y-15851D03*
X46454Y-15851D03*
X48226Y-13489D03*
X46454Y-13489D03*
G54D12*
X33230Y-11200D03*
G54D13*
X33230Y-12200D03*
X32230Y-11200D03*
X32230Y-12200D03*
X31230Y-11200D03*
X31230Y-12200D03*
G54D12*
X43220Y-10980D03*
G54D13*
X44220Y-10980D03*
X45220Y-10980D03*
X46220Y-10980D03*
X47220Y-10980D03*
X48220Y-10980D03*
G54D18*
X44040Y-13500D03*
X43040Y-13500D03*
X42040Y-13500D03*
X41040Y-13500D03*
X40040Y-13500D03*
X39040Y-13500D03*
X38040Y-13500D03*
X37040Y-13500D03*
X36040Y-13500D03*
X35040Y-13500D03*
X34040Y-13500D03*
X33040Y-13500D03*
X32040Y-13500D03*
G54D19*
X45040Y-13500D03*
G54D18*
X32040Y-16500D03*
X33040Y-16500D03*
X34040Y-16500D03*
X35040Y-16500D03*
X36040Y-16500D03*
X37040Y-16500D03*
X38040Y-16500D03*
X39040Y-16500D03*
X40040Y-16500D03*
X41040Y-16500D03*
X42040Y-16500D03*
X43040Y-16500D03*
X44040Y-16500D03*
X45040Y-16500D03*
G54D12*
X29725Y-15950D03*
G54D13*
X29725Y-14950D03*
X29725Y-13950D03*
G54D20*
X36430Y-11660D03*
X38430Y-11660D03*
G54D12*
X43110Y-12480D03*
G54D13*
X44110Y-12480D03*
M02*
