G04 (created by PCBNEW (2013-03-31 BZR 4008)-stable) date 28/05/2013 4:07:30 PM*
%MOIN*%
G04 Gerber Fmt 3.4, Leading zero omitted, Abs format*
%FSLAX34Y34*%
G01*
G70*
G90*
G04 APERTURE LIST*
%ADD10C,0.006*%
%ADD11C,0.00787402*%
%ADD12C,0.00738189*%
%ADD13C,0.015*%
%ADD14C,0.012*%
%ADD15C,0.005*%
%ADD16C,0.008*%
%ADD17C,0.01*%
%ADD18C,0.0175*%
%ADD19C,0.0026*%
%ADD20C,0.004*%
%ADD21C,0.0001*%
%ADD22C,0.0035*%
%ADD23C,0.0045*%
%ADD24C,0.01125*%
%ADD25C,0.0113*%
%ADD26C,0.00625*%
%ADD27C,0.0063*%
%ADD28C,0.0039*%
G04 APERTURE END LIST*
G54D10*
G54D11*
X30378Y-17154D02*
X30359Y-17139D01*
X30340Y-17109D01*
X30340Y-17034D01*
X30359Y-17004D01*
X30378Y-16989D01*
X30415Y-16974D01*
X30453Y-16974D01*
X30509Y-16989D01*
X30734Y-17169D01*
X30734Y-16974D01*
X30340Y-16779D02*
X30340Y-16749D01*
X30359Y-16719D01*
X30378Y-16704D01*
X30415Y-16689D01*
X30490Y-16674D01*
X30584Y-16674D01*
X30659Y-16689D01*
X30696Y-16704D01*
X30715Y-16719D01*
X30734Y-16749D01*
X30734Y-16779D01*
X30715Y-16809D01*
X30696Y-16824D01*
X30659Y-16839D01*
X30584Y-16854D01*
X30490Y-16854D01*
X30415Y-16839D01*
X30378Y-16824D01*
X30359Y-16809D01*
X30340Y-16779D01*
X30340Y-16584D02*
X30734Y-16479D01*
X30340Y-16374D01*
X30471Y-16270D02*
X30865Y-16270D01*
X30490Y-16270D02*
X30471Y-16240D01*
X30471Y-16180D01*
X30490Y-16150D01*
X30509Y-16135D01*
X30546Y-16120D01*
X30659Y-16120D01*
X30696Y-16135D01*
X30715Y-16150D01*
X30734Y-16180D01*
X30734Y-16240D01*
X30715Y-16270D01*
X30584Y-15985D02*
X30584Y-15745D01*
X30471Y-15595D02*
X30865Y-15595D01*
X30490Y-15595D02*
X30471Y-15565D01*
X30471Y-15505D01*
X30490Y-15475D01*
X30509Y-15460D01*
X30546Y-15445D01*
X30659Y-15445D01*
X30696Y-15460D01*
X30715Y-15475D01*
X30734Y-15505D01*
X30734Y-15565D01*
X30715Y-15595D01*
X30340Y-14114D02*
X30340Y-14264D01*
X30528Y-14279D01*
X30509Y-14264D01*
X30490Y-14234D01*
X30490Y-14159D01*
X30509Y-14129D01*
X30528Y-14114D01*
X30565Y-14099D01*
X30659Y-14099D01*
X30696Y-14114D01*
X30715Y-14129D01*
X30734Y-14159D01*
X30734Y-14234D01*
X30715Y-14264D01*
X30696Y-14279D01*
X30340Y-14009D02*
X30734Y-13904D01*
X30340Y-13799D01*
X30471Y-13694D02*
X30865Y-13694D01*
X30490Y-13694D02*
X30471Y-13664D01*
X30471Y-13604D01*
X30490Y-13575D01*
X30509Y-13560D01*
X30546Y-13545D01*
X30659Y-13545D01*
X30696Y-13560D01*
X30715Y-13575D01*
X30734Y-13604D01*
X30734Y-13664D01*
X30715Y-13694D01*
X30584Y-13410D02*
X30584Y-13170D01*
X30471Y-13020D02*
X30865Y-13020D01*
X30490Y-13020D02*
X30471Y-12990D01*
X30471Y-12930D01*
X30490Y-12900D01*
X30509Y-12885D01*
X30546Y-12870D01*
X30659Y-12870D01*
X30696Y-12885D01*
X30715Y-12900D01*
X30734Y-12930D01*
X30734Y-12990D01*
X30715Y-13020D01*
G54D12*
X10492Y-20454D02*
X10543Y-20475D01*
X10627Y-20475D01*
X10661Y-20454D01*
X10678Y-20434D01*
X10694Y-20392D01*
X10694Y-20351D01*
X10678Y-20310D01*
X10661Y-20289D01*
X10627Y-20269D01*
X10559Y-20248D01*
X10526Y-20227D01*
X10509Y-20207D01*
X10492Y-20165D01*
X10492Y-20124D01*
X10509Y-20083D01*
X10526Y-20062D01*
X10559Y-20042D01*
X10644Y-20042D01*
X10694Y-20062D01*
X10846Y-20475D02*
X10846Y-20186D01*
X10846Y-20042D02*
X10829Y-20062D01*
X10846Y-20083D01*
X10863Y-20062D01*
X10846Y-20042D01*
X10846Y-20083D01*
X11167Y-20186D02*
X11167Y-20537D01*
X11150Y-20578D01*
X11133Y-20599D01*
X11099Y-20619D01*
X11049Y-20619D01*
X11015Y-20599D01*
X11167Y-20454D02*
X11133Y-20475D01*
X11066Y-20475D01*
X11032Y-20454D01*
X11015Y-20434D01*
X10998Y-20392D01*
X10998Y-20269D01*
X11015Y-20227D01*
X11032Y-20207D01*
X11066Y-20186D01*
X11133Y-20186D01*
X11167Y-20207D01*
X11336Y-20186D02*
X11336Y-20475D01*
X11336Y-20227D02*
X11353Y-20207D01*
X11386Y-20186D01*
X11437Y-20186D01*
X11471Y-20207D01*
X11487Y-20248D01*
X11487Y-20475D01*
X11808Y-20475D02*
X11808Y-20248D01*
X11791Y-20207D01*
X11757Y-20186D01*
X11690Y-20186D01*
X11656Y-20207D01*
X11808Y-20454D02*
X11774Y-20475D01*
X11690Y-20475D01*
X11656Y-20454D01*
X11639Y-20413D01*
X11639Y-20372D01*
X11656Y-20330D01*
X11690Y-20310D01*
X11774Y-20310D01*
X11808Y-20289D01*
X12027Y-20475D02*
X11994Y-20454D01*
X11977Y-20413D01*
X11977Y-20042D01*
X12618Y-20062D02*
X12584Y-20042D01*
X12534Y-20042D01*
X12483Y-20062D01*
X12449Y-20104D01*
X12432Y-20145D01*
X12416Y-20227D01*
X12416Y-20289D01*
X12432Y-20372D01*
X12449Y-20413D01*
X12483Y-20454D01*
X12534Y-20475D01*
X12567Y-20475D01*
X12618Y-20454D01*
X12635Y-20434D01*
X12635Y-20289D01*
X12567Y-20289D01*
X12922Y-20454D02*
X12888Y-20475D01*
X12820Y-20475D01*
X12787Y-20454D01*
X12770Y-20413D01*
X12770Y-20248D01*
X12787Y-20207D01*
X12820Y-20186D01*
X12888Y-20186D01*
X12922Y-20207D01*
X12939Y-20248D01*
X12939Y-20289D01*
X12770Y-20330D01*
X13090Y-20186D02*
X13090Y-20475D01*
X13090Y-20227D02*
X13107Y-20207D01*
X13141Y-20186D01*
X13192Y-20186D01*
X13225Y-20207D01*
X13242Y-20248D01*
X13242Y-20475D01*
X13546Y-20454D02*
X13512Y-20475D01*
X13445Y-20475D01*
X13411Y-20454D01*
X13394Y-20413D01*
X13394Y-20248D01*
X13411Y-20207D01*
X13445Y-20186D01*
X13512Y-20186D01*
X13546Y-20207D01*
X13563Y-20248D01*
X13563Y-20289D01*
X13394Y-20330D01*
X13715Y-20475D02*
X13715Y-20186D01*
X13715Y-20269D02*
X13732Y-20227D01*
X13748Y-20207D01*
X13782Y-20186D01*
X13816Y-20186D01*
X14086Y-20475D02*
X14086Y-20248D01*
X14069Y-20207D01*
X14035Y-20186D01*
X13968Y-20186D01*
X13934Y-20207D01*
X14086Y-20454D02*
X14052Y-20475D01*
X13968Y-20475D01*
X13934Y-20454D01*
X13917Y-20413D01*
X13917Y-20372D01*
X13934Y-20330D01*
X13968Y-20310D01*
X14052Y-20310D01*
X14086Y-20289D01*
X14204Y-20186D02*
X14339Y-20186D01*
X14255Y-20042D02*
X14255Y-20413D01*
X14272Y-20454D01*
X14305Y-20475D01*
X14339Y-20475D01*
X14508Y-20475D02*
X14474Y-20454D01*
X14457Y-20434D01*
X14440Y-20392D01*
X14440Y-20269D01*
X14457Y-20227D01*
X14474Y-20207D01*
X14508Y-20186D01*
X14558Y-20186D01*
X14592Y-20207D01*
X14609Y-20227D01*
X14626Y-20269D01*
X14626Y-20392D01*
X14609Y-20434D01*
X14592Y-20454D01*
X14558Y-20475D01*
X14508Y-20475D01*
X14778Y-20475D02*
X14778Y-20186D01*
X14778Y-20269D02*
X14795Y-20227D01*
X14811Y-20207D01*
X14845Y-20186D01*
X14879Y-20186D01*
X10627Y-20928D02*
X10678Y-20949D01*
X10694Y-20969D01*
X10711Y-21011D01*
X10711Y-21072D01*
X10694Y-21114D01*
X10678Y-21134D01*
X10644Y-21155D01*
X10509Y-21155D01*
X10509Y-20722D01*
X10627Y-20722D01*
X10661Y-20742D01*
X10678Y-20763D01*
X10694Y-20804D01*
X10694Y-20846D01*
X10678Y-20887D01*
X10661Y-20907D01*
X10627Y-20928D01*
X10509Y-20928D01*
X10914Y-21155D02*
X10880Y-21134D01*
X10863Y-21114D01*
X10846Y-21072D01*
X10846Y-20949D01*
X10863Y-20907D01*
X10880Y-20887D01*
X10914Y-20866D01*
X10964Y-20866D01*
X10998Y-20887D01*
X11015Y-20907D01*
X11032Y-20949D01*
X11032Y-21072D01*
X11015Y-21114D01*
X10998Y-21134D01*
X10964Y-21155D01*
X10914Y-21155D01*
X11336Y-21155D02*
X11336Y-20928D01*
X11319Y-20887D01*
X11285Y-20866D01*
X11218Y-20866D01*
X11184Y-20887D01*
X11336Y-21134D02*
X11302Y-21155D01*
X11218Y-21155D01*
X11184Y-21134D01*
X11167Y-21093D01*
X11167Y-21052D01*
X11184Y-21011D01*
X11218Y-20990D01*
X11302Y-20990D01*
X11336Y-20969D01*
X11504Y-21155D02*
X11504Y-20866D01*
X11504Y-20949D02*
X11521Y-20907D01*
X11538Y-20887D01*
X11572Y-20866D01*
X11606Y-20866D01*
X11876Y-21155D02*
X11876Y-20722D01*
X11876Y-21134D02*
X11842Y-21155D01*
X11774Y-21155D01*
X11741Y-21134D01*
X11724Y-21114D01*
X11707Y-21072D01*
X11707Y-20949D01*
X11724Y-20907D01*
X11741Y-20887D01*
X11774Y-20866D01*
X11842Y-20866D01*
X11876Y-20887D01*
X12281Y-20866D02*
X12365Y-21155D01*
X12449Y-20866D01*
X12770Y-21155D02*
X12567Y-21155D01*
X12669Y-21155D02*
X12669Y-20722D01*
X12635Y-20784D01*
X12601Y-20825D01*
X12567Y-20846D01*
X12922Y-21114D02*
X12939Y-21134D01*
X12922Y-21155D01*
X12905Y-21134D01*
X12922Y-21114D01*
X12922Y-21155D01*
X13158Y-20722D02*
X13192Y-20722D01*
X13225Y-20742D01*
X13242Y-20763D01*
X13259Y-20804D01*
X13276Y-20887D01*
X13276Y-20990D01*
X13259Y-21072D01*
X13242Y-21114D01*
X13225Y-21134D01*
X13192Y-21155D01*
X13158Y-21155D01*
X13124Y-21134D01*
X13107Y-21114D01*
X13090Y-21072D01*
X13074Y-20990D01*
X13074Y-20887D01*
X13090Y-20804D01*
X13107Y-20763D01*
X13124Y-20742D01*
X13158Y-20722D01*
X10509Y-21835D02*
X10509Y-21402D01*
X10661Y-21835D02*
X10661Y-21608D01*
X10644Y-21567D01*
X10610Y-21546D01*
X10559Y-21546D01*
X10526Y-21567D01*
X10509Y-21588D01*
X10779Y-21546D02*
X10914Y-21546D01*
X10829Y-21402D02*
X10829Y-21773D01*
X10846Y-21814D01*
X10880Y-21835D01*
X10914Y-21835D01*
X10981Y-21546D02*
X11116Y-21546D01*
X11032Y-21402D02*
X11032Y-21773D01*
X11049Y-21814D01*
X11083Y-21835D01*
X11116Y-21835D01*
X11234Y-21546D02*
X11234Y-21979D01*
X11234Y-21567D02*
X11268Y-21546D01*
X11336Y-21546D01*
X11369Y-21567D01*
X11386Y-21588D01*
X11403Y-21629D01*
X11403Y-21753D01*
X11386Y-21794D01*
X11369Y-21814D01*
X11336Y-21835D01*
X11268Y-21835D01*
X11234Y-21814D01*
X11555Y-21794D02*
X11572Y-21814D01*
X11555Y-21835D01*
X11538Y-21814D01*
X11555Y-21794D01*
X11555Y-21835D01*
X11555Y-21567D02*
X11572Y-21588D01*
X11555Y-21608D01*
X11538Y-21588D01*
X11555Y-21567D01*
X11555Y-21608D01*
X11977Y-21381D02*
X11673Y-21938D01*
X12348Y-21381D02*
X12044Y-21938D01*
X12466Y-21835D02*
X12466Y-21546D01*
X12466Y-21588D02*
X12483Y-21567D01*
X12517Y-21546D01*
X12567Y-21546D01*
X12601Y-21567D01*
X12618Y-21608D01*
X12618Y-21835D01*
X12618Y-21608D02*
X12635Y-21567D01*
X12669Y-21546D01*
X12719Y-21546D01*
X12753Y-21567D01*
X12770Y-21608D01*
X12770Y-21835D01*
X12939Y-21835D02*
X12939Y-21546D01*
X12939Y-21402D02*
X12922Y-21423D01*
X12939Y-21443D01*
X12955Y-21423D01*
X12939Y-21402D01*
X12939Y-21443D01*
X13259Y-21814D02*
X13225Y-21835D01*
X13158Y-21835D01*
X13124Y-21814D01*
X13107Y-21794D01*
X13090Y-21753D01*
X13090Y-21629D01*
X13107Y-21588D01*
X13124Y-21567D01*
X13158Y-21546D01*
X13225Y-21546D01*
X13259Y-21567D01*
X13411Y-21835D02*
X13411Y-21546D01*
X13411Y-21629D02*
X13428Y-21588D01*
X13445Y-21567D01*
X13478Y-21546D01*
X13512Y-21546D01*
X13681Y-21835D02*
X13647Y-21814D01*
X13630Y-21794D01*
X13613Y-21753D01*
X13613Y-21629D01*
X13630Y-21588D01*
X13647Y-21567D01*
X13681Y-21546D01*
X13732Y-21546D01*
X13765Y-21567D01*
X13782Y-21588D01*
X13799Y-21629D01*
X13799Y-21753D01*
X13782Y-21794D01*
X13765Y-21814D01*
X13732Y-21835D01*
X13681Y-21835D01*
X13900Y-21546D02*
X14035Y-21546D01*
X13951Y-21835D02*
X13951Y-21464D01*
X13968Y-21423D01*
X14002Y-21402D01*
X14035Y-21402D01*
X14204Y-21835D02*
X14170Y-21814D01*
X14153Y-21773D01*
X14153Y-21402D01*
X14491Y-21546D02*
X14491Y-21835D01*
X14339Y-21546D02*
X14339Y-21773D01*
X14356Y-21814D01*
X14390Y-21835D01*
X14440Y-21835D01*
X14474Y-21814D01*
X14491Y-21794D01*
X14660Y-21835D02*
X14660Y-21546D01*
X14660Y-21402D02*
X14643Y-21423D01*
X14660Y-21443D01*
X14676Y-21423D01*
X14660Y-21402D01*
X14660Y-21443D01*
X14980Y-21835D02*
X14980Y-21402D01*
X14980Y-21814D02*
X14946Y-21835D01*
X14879Y-21835D01*
X14845Y-21814D01*
X14828Y-21794D01*
X14811Y-21753D01*
X14811Y-21629D01*
X14828Y-21588D01*
X14845Y-21567D01*
X14879Y-21546D01*
X14946Y-21546D01*
X14980Y-21567D01*
X15149Y-21835D02*
X15149Y-21546D01*
X15149Y-21402D02*
X15132Y-21423D01*
X15149Y-21443D01*
X15166Y-21423D01*
X15149Y-21402D01*
X15149Y-21443D01*
X15469Y-21814D02*
X15436Y-21835D01*
X15368Y-21835D01*
X15335Y-21814D01*
X15318Y-21794D01*
X15301Y-21753D01*
X15301Y-21629D01*
X15318Y-21588D01*
X15335Y-21567D01*
X15368Y-21546D01*
X15436Y-21546D01*
X15469Y-21567D01*
X15604Y-21814D02*
X15638Y-21835D01*
X15706Y-21835D01*
X15739Y-21814D01*
X15756Y-21773D01*
X15756Y-21753D01*
X15739Y-21711D01*
X15706Y-21691D01*
X15655Y-21691D01*
X15621Y-21670D01*
X15604Y-21629D01*
X15604Y-21608D01*
X15621Y-21567D01*
X15655Y-21546D01*
X15706Y-21546D01*
X15739Y-21567D01*
X15908Y-21794D02*
X15925Y-21814D01*
X15908Y-21835D01*
X15891Y-21814D01*
X15908Y-21794D01*
X15908Y-21835D01*
X16229Y-21546D02*
X16229Y-21835D01*
X16077Y-21546D02*
X16077Y-21773D01*
X16094Y-21814D01*
X16128Y-21835D01*
X16178Y-21835D01*
X16212Y-21814D01*
X16229Y-21794D01*
X16347Y-21546D02*
X16482Y-21546D01*
X16398Y-21402D02*
X16398Y-21773D01*
X16414Y-21814D01*
X16448Y-21835D01*
X16482Y-21835D01*
X16651Y-21835D02*
X16617Y-21814D01*
X16600Y-21794D01*
X16583Y-21753D01*
X16583Y-21629D01*
X16600Y-21588D01*
X16617Y-21567D01*
X16651Y-21546D01*
X16701Y-21546D01*
X16735Y-21567D01*
X16752Y-21588D01*
X16769Y-21629D01*
X16769Y-21753D01*
X16752Y-21794D01*
X16735Y-21814D01*
X16701Y-21835D01*
X16651Y-21835D01*
X16921Y-21835D02*
X16921Y-21546D01*
X16921Y-21629D02*
X16937Y-21588D01*
X16954Y-21567D01*
X16988Y-21546D01*
X17022Y-21546D01*
X17191Y-21835D02*
X17157Y-21814D01*
X17140Y-21794D01*
X17123Y-21753D01*
X17123Y-21629D01*
X17140Y-21588D01*
X17157Y-21567D01*
X17191Y-21546D01*
X17241Y-21546D01*
X17275Y-21567D01*
X17292Y-21588D01*
X17309Y-21629D01*
X17309Y-21753D01*
X17292Y-21794D01*
X17275Y-21814D01*
X17241Y-21835D01*
X17191Y-21835D01*
X17460Y-21546D02*
X17460Y-21835D01*
X17460Y-21588D02*
X17477Y-21567D01*
X17511Y-21546D01*
X17562Y-21546D01*
X17595Y-21567D01*
X17612Y-21608D01*
X17612Y-21835D01*
X17730Y-21546D02*
X17865Y-21546D01*
X17781Y-21402D02*
X17781Y-21773D01*
X17798Y-21814D01*
X17832Y-21835D01*
X17865Y-21835D01*
X18034Y-21835D02*
X18000Y-21814D01*
X17984Y-21794D01*
X17967Y-21753D01*
X17967Y-21629D01*
X17984Y-21588D01*
X18000Y-21567D01*
X18034Y-21546D01*
X18085Y-21546D01*
X18119Y-21567D01*
X18135Y-21588D01*
X18152Y-21629D01*
X18152Y-21753D01*
X18135Y-21794D01*
X18119Y-21814D01*
X18085Y-21835D01*
X18034Y-21835D01*
X18304Y-21794D02*
X18321Y-21814D01*
X18304Y-21835D01*
X18287Y-21814D01*
X18304Y-21794D01*
X18304Y-21835D01*
X18625Y-21814D02*
X18591Y-21835D01*
X18523Y-21835D01*
X18490Y-21814D01*
X18473Y-21794D01*
X18456Y-21753D01*
X18456Y-21629D01*
X18473Y-21588D01*
X18490Y-21567D01*
X18523Y-21546D01*
X18591Y-21546D01*
X18625Y-21567D01*
X18928Y-21835D02*
X18928Y-21608D01*
X18912Y-21567D01*
X18878Y-21546D01*
X18810Y-21546D01*
X18777Y-21567D01*
X18928Y-21814D02*
X18895Y-21835D01*
X18810Y-21835D01*
X18777Y-21814D01*
X18760Y-21773D01*
X18760Y-21732D01*
X18777Y-21691D01*
X18810Y-21670D01*
X18895Y-21670D01*
X18928Y-21649D01*
X19350Y-21381D02*
X19047Y-21938D01*
X19620Y-21835D02*
X19620Y-21402D01*
X19620Y-21814D02*
X19586Y-21835D01*
X19519Y-21835D01*
X19485Y-21814D01*
X19468Y-21794D01*
X19451Y-21753D01*
X19451Y-21629D01*
X19468Y-21588D01*
X19485Y-21567D01*
X19519Y-21546D01*
X19586Y-21546D01*
X19620Y-21567D01*
X19789Y-21835D02*
X19789Y-21546D01*
X19789Y-21629D02*
X19806Y-21588D01*
X19823Y-21567D01*
X19856Y-21546D01*
X19890Y-21546D01*
X20059Y-21835D02*
X20025Y-21814D01*
X20008Y-21794D01*
X19991Y-21753D01*
X19991Y-21629D01*
X20008Y-21588D01*
X20025Y-21567D01*
X20059Y-21546D01*
X20110Y-21546D01*
X20143Y-21567D01*
X20160Y-21588D01*
X20177Y-21629D01*
X20177Y-21753D01*
X20160Y-21794D01*
X20143Y-21814D01*
X20110Y-21835D01*
X20059Y-21835D01*
X20329Y-21546D02*
X20329Y-21979D01*
X20329Y-21567D02*
X20363Y-21546D01*
X20430Y-21546D01*
X20464Y-21567D01*
X20481Y-21588D01*
X20498Y-21629D01*
X20498Y-21753D01*
X20481Y-21794D01*
X20464Y-21814D01*
X20430Y-21835D01*
X20363Y-21835D01*
X20329Y-21814D01*
X20649Y-21835D02*
X20649Y-21402D01*
X20649Y-21567D02*
X20683Y-21546D01*
X20751Y-21546D01*
X20784Y-21567D01*
X20801Y-21588D01*
X20818Y-21629D01*
X20818Y-21753D01*
X20801Y-21794D01*
X20784Y-21814D01*
X20751Y-21835D01*
X20683Y-21835D01*
X20649Y-21814D01*
X21021Y-21835D02*
X20987Y-21814D01*
X20970Y-21794D01*
X20953Y-21753D01*
X20953Y-21629D01*
X20970Y-21588D01*
X20987Y-21567D01*
X21021Y-21546D01*
X21071Y-21546D01*
X21105Y-21567D01*
X21122Y-21588D01*
X21139Y-21629D01*
X21139Y-21753D01*
X21122Y-21794D01*
X21105Y-21814D01*
X21071Y-21835D01*
X21021Y-21835D01*
X21240Y-21546D02*
X21375Y-21546D01*
X21291Y-21402D02*
X21291Y-21773D01*
X21308Y-21814D01*
X21341Y-21835D01*
X21375Y-21835D01*
G54D13*
X27300Y-20075D02*
G75*
G03X27300Y-20075I-900J0D01*
G74*
G01*
G54D14*
X12500Y-24750D02*
X12500Y-26550D01*
X12500Y-26550D02*
X12000Y-27050D01*
X12000Y-27050D02*
X11200Y-27050D01*
X11200Y-27050D02*
X10700Y-26550D01*
X10700Y-26550D02*
X10700Y-24750D01*
X21100Y-24750D02*
X21100Y-26550D01*
X21100Y-26550D02*
X20600Y-27050D01*
X20600Y-27050D02*
X19700Y-27050D01*
X19700Y-27050D02*
X19200Y-26550D01*
X19200Y-26550D02*
X19200Y-24750D01*
X21900Y-24750D02*
X21900Y-27500D01*
X21900Y-24750D02*
X9900Y-24750D01*
X9900Y-24750D02*
X9900Y-27500D01*
X19300Y-13000D02*
X19300Y-11200D01*
X19300Y-11200D02*
X19800Y-10700D01*
X19800Y-10700D02*
X20600Y-10700D01*
X20600Y-10700D02*
X21100Y-11200D01*
X21100Y-11200D02*
X21100Y-13000D01*
X10700Y-13000D02*
X10700Y-11200D01*
X10700Y-11200D02*
X11200Y-10700D01*
X11200Y-10700D02*
X12100Y-10700D01*
X12100Y-10700D02*
X12600Y-11200D01*
X12600Y-11200D02*
X12600Y-13000D01*
X9900Y-13000D02*
X9900Y-10250D01*
X9900Y-13000D02*
X21900Y-13000D01*
X21900Y-13000D02*
X21900Y-10250D01*
G54D15*
X32250Y-19300D02*
X32250Y-19250D01*
X32250Y-19250D02*
X30150Y-19250D01*
X30150Y-20750D02*
X32250Y-20750D01*
X32250Y-20750D02*
X32250Y-19300D01*
X32250Y-20200D02*
X32050Y-20200D01*
X32050Y-20200D02*
X32050Y-19800D01*
X32050Y-19800D02*
X32250Y-19800D01*
X30150Y-20750D02*
X30150Y-19250D01*
X37250Y-24400D02*
X37250Y-24450D01*
X37250Y-24450D02*
X39350Y-24450D01*
X39350Y-22950D02*
X37250Y-22950D01*
X37250Y-22950D02*
X37250Y-24400D01*
X37250Y-23500D02*
X37450Y-23500D01*
X37450Y-23500D02*
X37450Y-23900D01*
X37450Y-23900D02*
X37250Y-23900D01*
X39350Y-22950D02*
X39350Y-24450D01*
G54D16*
X38650Y-18800D02*
X42950Y-18800D01*
X42950Y-18800D02*
X42950Y-20200D01*
X42950Y-20200D02*
X38650Y-20200D01*
X38650Y-20200D02*
X38650Y-18800D01*
X38650Y-19300D02*
X38950Y-19300D01*
X38950Y-19300D02*
X38950Y-19700D01*
X38950Y-19700D02*
X38650Y-19700D01*
X40150Y-22500D02*
X44450Y-22500D01*
X44450Y-22500D02*
X44450Y-23900D01*
X44450Y-23900D02*
X40150Y-23900D01*
X40150Y-23900D02*
X40150Y-22500D01*
X40150Y-23000D02*
X40450Y-23000D01*
X40450Y-23000D02*
X40450Y-23400D01*
X40450Y-23400D02*
X40150Y-23400D01*
X44900Y-22500D02*
X48700Y-22500D01*
X48700Y-22500D02*
X48700Y-24000D01*
X48700Y-24000D02*
X44900Y-24000D01*
X44900Y-24000D02*
X44900Y-22500D01*
X44900Y-23000D02*
X45200Y-23000D01*
X45200Y-23000D02*
X45200Y-23400D01*
X45200Y-23400D02*
X44900Y-23400D01*
X31600Y-23000D02*
X35400Y-23000D01*
X35400Y-23000D02*
X35400Y-24500D01*
X35400Y-24500D02*
X31600Y-24500D01*
X31600Y-24500D02*
X31600Y-23000D01*
X31600Y-23500D02*
X31900Y-23500D01*
X31900Y-23500D02*
X31900Y-23900D01*
X31900Y-23900D02*
X31600Y-23900D01*
G54D15*
X29750Y-24300D02*
X30650Y-24300D01*
X30650Y-24300D02*
X30650Y-23650D01*
X29750Y-22950D02*
X29750Y-22300D01*
X29750Y-22300D02*
X30650Y-22300D01*
X30650Y-22300D02*
X30650Y-22950D01*
X29750Y-23650D02*
X29750Y-24300D01*
X31300Y-17450D02*
X31300Y-18350D01*
X31300Y-18350D02*
X31950Y-18350D01*
X32650Y-17450D02*
X33300Y-17450D01*
X33300Y-17450D02*
X33300Y-18350D01*
X33300Y-18350D02*
X32650Y-18350D01*
X31950Y-17450D02*
X31300Y-17450D01*
X35950Y-18500D02*
X35050Y-18500D01*
X35050Y-18500D02*
X35050Y-19150D01*
X35950Y-19850D02*
X35950Y-20500D01*
X35950Y-20500D02*
X35050Y-20500D01*
X35050Y-20500D02*
X35050Y-19850D01*
X35950Y-19150D02*
X35950Y-18500D01*
X36950Y-17450D02*
X37850Y-17450D01*
X37850Y-17450D02*
X37850Y-17950D01*
X37850Y-17950D02*
X36950Y-17950D01*
X36950Y-17950D02*
X36950Y-17450D01*
X47250Y-12150D02*
X46350Y-12150D01*
X46350Y-12150D02*
X46350Y-11650D01*
X46350Y-11650D02*
X47250Y-11650D01*
X47250Y-11650D02*
X47250Y-12150D01*
X33850Y-25250D02*
X34750Y-25250D01*
X34750Y-25250D02*
X34750Y-25750D01*
X34750Y-25750D02*
X33850Y-25750D01*
X33850Y-25750D02*
X33850Y-25250D01*
X33650Y-25750D02*
X32750Y-25750D01*
X32750Y-25750D02*
X32750Y-25250D01*
X32750Y-25250D02*
X33650Y-25250D01*
X33650Y-25250D02*
X33650Y-25750D01*
X44770Y-18790D02*
X44770Y-17890D01*
X44770Y-17890D02*
X45270Y-17890D01*
X45270Y-17890D02*
X45270Y-18790D01*
X45270Y-18790D02*
X44770Y-18790D01*
X38350Y-21650D02*
X39250Y-21650D01*
X39250Y-21650D02*
X39250Y-22150D01*
X39250Y-22150D02*
X38350Y-22150D01*
X38350Y-22150D02*
X38350Y-21650D01*
X40450Y-21250D02*
X41350Y-21250D01*
X41350Y-21250D02*
X41350Y-21750D01*
X41350Y-21750D02*
X40450Y-21750D01*
X40450Y-21750D02*
X40450Y-21250D01*
X45875Y-21300D02*
X46775Y-21300D01*
X46775Y-21300D02*
X46775Y-21800D01*
X46775Y-21800D02*
X45875Y-21800D01*
X45875Y-21800D02*
X45875Y-21300D01*
X38850Y-17550D02*
X39750Y-17550D01*
X39750Y-17550D02*
X39750Y-18050D01*
X39750Y-18050D02*
X38850Y-18050D01*
X38850Y-18050D02*
X38850Y-17550D01*
X38250Y-22150D02*
X37350Y-22150D01*
X37350Y-22150D02*
X37350Y-21650D01*
X37350Y-21650D02*
X38250Y-21650D01*
X38250Y-21650D02*
X38250Y-22150D01*
G54D13*
X22900Y-16400D02*
X28900Y-16400D01*
X28900Y-16400D02*
X28900Y-10400D01*
X28900Y-10400D02*
X22900Y-10400D01*
X22900Y-10400D02*
X22900Y-16400D01*
G54D17*
X42681Y-27083D02*
X40319Y-27083D01*
X40319Y-27083D02*
X40319Y-24917D01*
X40319Y-24917D02*
X42681Y-24917D01*
X42681Y-24917D02*
X42681Y-27083D01*
G54D18*
X42287Y-26000D02*
G75*
G03X42287Y-26000I-787J0D01*
G74*
G01*
G54D15*
X34350Y-19800D02*
X33450Y-19800D01*
X33450Y-19800D02*
X33450Y-20450D01*
X34350Y-21150D02*
X34350Y-21800D01*
X34350Y-21800D02*
X33450Y-21800D01*
X33450Y-21800D02*
X33450Y-21150D01*
X34350Y-20450D02*
X34350Y-19800D01*
X37050Y-23700D02*
X36150Y-23700D01*
X36150Y-23700D02*
X36150Y-24350D01*
X37050Y-25050D02*
X37050Y-25700D01*
X37050Y-25700D02*
X36150Y-25700D01*
X36150Y-25700D02*
X36150Y-25050D01*
X37050Y-24350D02*
X37050Y-23700D01*
X34400Y-19450D02*
X34400Y-18550D01*
X34400Y-18550D02*
X33750Y-18550D01*
X33050Y-19450D02*
X32400Y-19450D01*
X32400Y-19450D02*
X32400Y-18550D01*
X32400Y-18550D02*
X33050Y-18550D01*
X33750Y-19450D02*
X34400Y-19450D01*
X32800Y-27050D02*
X32800Y-26150D01*
X32800Y-26150D02*
X32150Y-26150D01*
X31450Y-27050D02*
X30800Y-27050D01*
X30800Y-27050D02*
X30800Y-26150D01*
X30800Y-26150D02*
X31450Y-26150D01*
X32150Y-27050D02*
X32800Y-27050D01*
X35000Y-27050D02*
X35000Y-26150D01*
X35000Y-26150D02*
X34350Y-26150D01*
X33650Y-27050D02*
X33000Y-27050D01*
X33000Y-27050D02*
X33000Y-26150D01*
X33000Y-26150D02*
X33650Y-26150D01*
X34350Y-27050D02*
X35000Y-27050D01*
X37100Y-27050D02*
X37100Y-26150D01*
X37100Y-26150D02*
X36450Y-26150D01*
X35750Y-27050D02*
X35100Y-27050D01*
X35100Y-27050D02*
X35100Y-26150D01*
X35100Y-26150D02*
X35750Y-26150D01*
X36450Y-27050D02*
X37100Y-27050D01*
X32350Y-21800D02*
X33250Y-21800D01*
X33250Y-21800D02*
X33250Y-21150D01*
X32350Y-20450D02*
X32350Y-19800D01*
X32350Y-19800D02*
X33250Y-19800D01*
X33250Y-19800D02*
X33250Y-20450D01*
X32350Y-21150D02*
X32350Y-21800D01*
X37050Y-21600D02*
X36150Y-21600D01*
X36150Y-21600D02*
X36150Y-22250D01*
X37050Y-22950D02*
X37050Y-23600D01*
X37050Y-23600D02*
X36150Y-23600D01*
X36150Y-23600D02*
X36150Y-22950D01*
X37050Y-22250D02*
X37050Y-21600D01*
X48700Y-21075D02*
X48700Y-20175D01*
X48700Y-20175D02*
X48050Y-20175D01*
X47350Y-21075D02*
X46700Y-21075D01*
X46700Y-21075D02*
X46700Y-20175D01*
X46700Y-20175D02*
X47350Y-20175D01*
X48050Y-21075D02*
X48700Y-21075D01*
G54D16*
X46700Y-20000D02*
X46700Y-17000D01*
X48700Y-17000D02*
X48700Y-20000D01*
X48700Y-20000D02*
X46700Y-20000D01*
X46700Y-17000D02*
X48700Y-17000D01*
G54D14*
X48600Y-16500D02*
X47600Y-16500D01*
X47600Y-16500D02*
X47600Y-10500D01*
X47600Y-10500D02*
X48600Y-10500D01*
X48600Y-10500D02*
X48600Y-16500D01*
X48600Y-15500D02*
X47600Y-15500D01*
G54D10*
X38000Y-10500D02*
X38000Y-11500D01*
X38000Y-11500D02*
X35000Y-11500D01*
X35000Y-11500D02*
X35000Y-10500D01*
X35000Y-10500D02*
X38000Y-10500D01*
X37000Y-11500D02*
X37000Y-10500D01*
G54D17*
X31000Y-12500D02*
X45000Y-12500D01*
X45000Y-14500D02*
X31000Y-14500D01*
G54D13*
X31000Y-14500D02*
X31000Y-12500D01*
X45000Y-12500D02*
X45000Y-14500D01*
X45000Y-14000D02*
X44500Y-14000D01*
X44500Y-14000D02*
X44500Y-13000D01*
X44500Y-13000D02*
X45000Y-13000D01*
G54D16*
X36150Y-18800D02*
X38050Y-18800D01*
X38050Y-18800D02*
X38050Y-20200D01*
X38050Y-20200D02*
X36150Y-20200D01*
X36150Y-20200D02*
X36150Y-18800D01*
X36550Y-19950D02*
G75*
G03X36550Y-19950I-150J0D01*
G74*
G01*
X44125Y-17750D02*
X44625Y-18225D01*
X44625Y-17750D02*
X43375Y-17750D01*
X43375Y-17750D02*
X43375Y-19000D01*
X43375Y-19000D02*
X44625Y-19000D01*
X44625Y-19000D02*
X44625Y-17750D01*
G54D15*
X30250Y-17950D02*
X31150Y-17950D01*
X31150Y-17950D02*
X31150Y-18450D01*
X31150Y-18450D02*
X30250Y-18450D01*
X30250Y-18450D02*
X30250Y-17950D01*
X31250Y-22050D02*
X30350Y-22050D01*
X30350Y-22050D02*
X30350Y-21550D01*
X30350Y-21550D02*
X31250Y-21550D01*
X31250Y-21550D02*
X31250Y-22050D01*
X30650Y-24500D02*
X29750Y-24500D01*
X29750Y-24500D02*
X29750Y-25150D01*
X30650Y-25850D02*
X30650Y-26500D01*
X30650Y-26500D02*
X29750Y-26500D01*
X29750Y-26500D02*
X29750Y-25850D01*
X30650Y-25150D02*
X30650Y-24500D01*
X47725Y-25850D02*
X47725Y-24950D01*
X47725Y-24950D02*
X47075Y-24950D01*
X46375Y-25850D02*
X45725Y-25850D01*
X45725Y-25850D02*
X45725Y-24950D01*
X45725Y-24950D02*
X46375Y-24950D01*
X47075Y-25850D02*
X47725Y-25850D01*
G54D19*
X46689Y-26311D02*
X46611Y-26311D01*
X46611Y-26311D02*
X46611Y-26389D01*
X46689Y-26389D02*
X46611Y-26389D01*
X46689Y-26311D02*
X46689Y-26389D01*
X46473Y-26075D02*
X46336Y-26075D01*
X46336Y-26075D02*
X46336Y-26173D01*
X46473Y-26173D02*
X46336Y-26173D01*
X46473Y-26075D02*
X46473Y-26173D01*
X46336Y-26075D02*
X46296Y-26075D01*
X46296Y-26075D02*
X46296Y-26546D01*
X46336Y-26546D02*
X46296Y-26546D01*
X46336Y-26075D02*
X46336Y-26546D01*
X46336Y-26566D02*
X46296Y-26566D01*
X46296Y-26566D02*
X46296Y-26625D01*
X46336Y-26625D02*
X46296Y-26625D01*
X46336Y-26566D02*
X46336Y-26625D01*
X47004Y-26075D02*
X46964Y-26075D01*
X46964Y-26075D02*
X46964Y-26546D01*
X47004Y-26546D02*
X46964Y-26546D01*
X47004Y-26075D02*
X47004Y-26546D01*
X47004Y-26566D02*
X46964Y-26566D01*
X46964Y-26566D02*
X46964Y-26625D01*
X47004Y-26625D02*
X46964Y-26625D01*
X47004Y-26566D02*
X47004Y-26625D01*
X46473Y-26075D02*
X46414Y-26075D01*
X46414Y-26075D02*
X46414Y-26173D01*
X46473Y-26173D02*
X46414Y-26173D01*
X46473Y-26075D02*
X46473Y-26173D01*
G54D20*
X46040Y-26055D02*
X47260Y-26055D01*
X47260Y-26055D02*
X47260Y-26645D01*
X47260Y-26645D02*
X46040Y-26645D01*
X46040Y-26645D02*
X46040Y-26055D01*
X46865Y-26153D02*
G75*
G03X46433Y-26154I-215J-196D01*
G74*
G01*
X46865Y-26546D02*
G75*
G03X46866Y-26154I-215J196D01*
G74*
G01*
X46434Y-26546D02*
G75*
G03X46866Y-26545I215J196D01*
G74*
G01*
X46434Y-26153D02*
G75*
G03X46433Y-26545I215J-196D01*
G74*
G01*
G54D21*
G36*
X17325Y-19216D02*
X17325Y-19316D01*
X17325Y-19416D01*
X17092Y-19416D01*
X16964Y-19420D01*
X16887Y-19431D01*
X16844Y-19455D01*
X16827Y-19478D01*
X16812Y-19542D01*
X16850Y-19585D01*
X16944Y-19609D01*
X17098Y-19616D01*
X17325Y-19616D01*
X17325Y-19717D01*
X17325Y-19818D01*
X16466Y-19809D01*
X15608Y-19800D01*
X15600Y-19594D01*
X15604Y-19435D01*
X15636Y-19329D01*
X15706Y-19267D01*
X15822Y-19239D01*
X15934Y-19234D01*
X16098Y-19245D01*
X16207Y-19284D01*
X16269Y-19356D01*
X16284Y-19433D01*
X15941Y-19433D01*
X15842Y-19436D01*
X15793Y-19450D01*
X15776Y-19483D01*
X15775Y-19516D01*
X15783Y-19572D01*
X15823Y-19599D01*
X15903Y-19610D01*
X16028Y-19612D01*
X16097Y-19588D01*
X16120Y-19535D01*
X16119Y-19508D01*
X16104Y-19463D01*
X16066Y-19441D01*
X15987Y-19434D01*
X15941Y-19433D01*
X16284Y-19433D01*
X16291Y-19467D01*
X16291Y-19488D01*
X16291Y-19616D01*
X16471Y-19616D01*
X16651Y-19616D01*
X16648Y-19496D01*
X16661Y-19391D01*
X16720Y-19310D01*
X16736Y-19296D01*
X16795Y-19253D01*
X16861Y-19229D01*
X16957Y-19219D01*
X17076Y-19216D01*
X17325Y-19216D01*
X17325Y-19216D01*
X17325Y-19216D01*
G37*
G36*
X17325Y-18616D02*
X17325Y-18789D01*
X17116Y-18789D01*
X17074Y-18797D01*
X17059Y-18851D01*
X17058Y-18879D01*
X17073Y-18969D01*
X17113Y-19009D01*
X17160Y-18999D01*
X17186Y-18949D01*
X17181Y-18876D01*
X17151Y-18812D01*
X17116Y-18789D01*
X17325Y-18789D01*
X17325Y-18845D01*
X17320Y-18979D01*
X17305Y-19064D01*
X17274Y-19117D01*
X17264Y-19128D01*
X17165Y-19178D01*
X17056Y-19164D01*
X16999Y-19131D01*
X16948Y-19078D01*
X16927Y-18997D01*
X16925Y-18931D01*
X16918Y-18834D01*
X16896Y-18789D01*
X16873Y-18783D01*
X16818Y-18810D01*
X16797Y-18877D01*
X16816Y-18962D01*
X16829Y-19037D01*
X16809Y-19101D01*
X16766Y-19135D01*
X16713Y-19121D01*
X16666Y-19045D01*
X16645Y-18935D01*
X16651Y-18815D01*
X16681Y-18709D01*
X16732Y-18644D01*
X16784Y-18632D01*
X16883Y-18622D01*
X17011Y-18617D01*
X17050Y-18617D01*
X17325Y-18616D01*
X17325Y-18616D01*
X17325Y-18616D01*
G37*
G36*
X17325Y-17483D02*
X17325Y-17655D01*
X16985Y-17655D01*
X16889Y-17671D01*
X16823Y-17714D01*
X16813Y-17732D01*
X16819Y-17796D01*
X16872Y-17851D01*
X16955Y-17882D01*
X16979Y-17883D01*
X17087Y-17866D01*
X17157Y-17824D01*
X17182Y-17768D01*
X17157Y-17711D01*
X17087Y-17671D01*
X16985Y-17655D01*
X17325Y-17655D01*
X17325Y-17716D01*
X17322Y-17841D01*
X17312Y-17918D01*
X17288Y-17965D01*
X17246Y-18000D01*
X17242Y-18002D01*
X17156Y-18037D01*
X17031Y-18047D01*
X16962Y-18045D01*
X16851Y-18041D01*
X16797Y-18049D01*
X16793Y-18068D01*
X16796Y-18073D01*
X16820Y-18138D01*
X16819Y-18173D01*
X16820Y-18242D01*
X16856Y-18286D01*
X16937Y-18309D01*
X17073Y-18316D01*
X17093Y-18316D01*
X17325Y-18316D01*
X17325Y-18416D01*
X17325Y-18516D01*
X16995Y-18516D01*
X16666Y-18516D01*
X16649Y-18325D01*
X16646Y-18179D01*
X16665Y-18082D01*
X16672Y-18069D01*
X16696Y-18005D01*
X16677Y-17932D01*
X16668Y-17914D01*
X16641Y-17812D01*
X16656Y-17737D01*
X16673Y-17683D01*
X16660Y-17658D01*
X16603Y-17650D01*
X16540Y-17650D01*
X16448Y-17646D01*
X16405Y-17629D01*
X16392Y-17588D01*
X16391Y-17566D01*
X16391Y-17483D01*
X16858Y-17483D01*
X17325Y-17483D01*
X17325Y-17483D01*
X17325Y-17483D01*
G37*
G36*
X17325Y-15916D02*
X17325Y-16123D01*
X17116Y-16123D01*
X17071Y-16132D01*
X17058Y-16193D01*
X17058Y-16195D01*
X17075Y-16276D01*
X17118Y-16310D01*
X17160Y-16299D01*
X17186Y-16250D01*
X17177Y-16183D01*
X17138Y-16132D01*
X17116Y-16123D01*
X17325Y-16123D01*
X17325Y-16165D01*
X17322Y-16296D01*
X17312Y-16378D01*
X17291Y-16427D01*
X17253Y-16463D01*
X17250Y-16465D01*
X17142Y-16510D01*
X17046Y-16495D01*
X16971Y-16428D01*
X16930Y-16316D01*
X16925Y-16250D01*
X16917Y-16158D01*
X16890Y-16119D01*
X16873Y-16116D01*
X16819Y-16143D01*
X16796Y-16207D01*
X16816Y-16281D01*
X16817Y-16283D01*
X16834Y-16347D01*
X16802Y-16415D01*
X16768Y-16471D01*
X16763Y-16497D01*
X16798Y-16510D01*
X16881Y-16538D01*
X16997Y-16574D01*
X17041Y-16587D01*
X17173Y-16629D01*
X17254Y-16663D01*
X17297Y-16695D01*
X17315Y-16735D01*
X17318Y-16758D01*
X17319Y-16809D01*
X17296Y-16843D01*
X17235Y-16872D01*
X17135Y-16904D01*
X16941Y-16961D01*
X17125Y-17015D01*
X17231Y-17051D01*
X17289Y-17086D01*
X17314Y-17131D01*
X17318Y-17157D01*
X17319Y-17201D01*
X17302Y-17234D01*
X17254Y-17263D01*
X17165Y-17296D01*
X17052Y-17332D01*
X16918Y-17374D01*
X16805Y-17409D01*
X16730Y-17432D01*
X16716Y-17437D01*
X16674Y-17436D01*
X16659Y-17389D01*
X16658Y-17356D01*
X16663Y-17299D01*
X16688Y-17263D01*
X16749Y-17236D01*
X16850Y-17209D01*
X17041Y-17161D01*
X16850Y-17099D01*
X16740Y-17060D01*
X16681Y-17024D01*
X16659Y-16983D01*
X16658Y-16962D01*
X16669Y-16915D01*
X16711Y-16879D01*
X16798Y-16843D01*
X16847Y-16827D01*
X17036Y-16767D01*
X16855Y-16713D01*
X16749Y-16677D01*
X16692Y-16641D01*
X16668Y-16594D01*
X16664Y-16571D01*
X16667Y-16507D01*
X16687Y-16483D01*
X16699Y-16456D01*
X16680Y-16386D01*
X16672Y-16365D01*
X16640Y-16232D01*
X16651Y-16103D01*
X16700Y-15999D01*
X16736Y-15966D01*
X16822Y-15934D01*
X16970Y-15918D01*
X17065Y-15916D01*
X17325Y-15916D01*
X17325Y-15916D01*
X17325Y-15916D01*
G37*
G36*
X16716Y-15351D02*
X16766Y-15388D01*
X16803Y-15450D01*
X16811Y-15490D01*
X16821Y-15569D01*
X16854Y-15617D01*
X16921Y-15641D01*
X17036Y-15649D01*
X17093Y-15650D01*
X17214Y-15651D01*
X17284Y-15658D01*
X17315Y-15677D01*
X17324Y-15712D01*
X17325Y-15733D01*
X17325Y-15816D01*
X16990Y-15816D01*
X16656Y-15816D01*
X16655Y-15708D01*
X16653Y-15590D01*
X16651Y-15491D01*
X16656Y-15409D01*
X16670Y-15360D01*
X16671Y-15359D01*
X16716Y-15351D01*
X16716Y-15351D01*
X16716Y-15351D01*
G37*
G36*
X17058Y-14783D02*
X17058Y-14983D01*
X16878Y-14983D01*
X16827Y-15010D01*
X16806Y-15070D01*
X16826Y-15134D01*
X16828Y-15137D01*
X16881Y-15180D01*
X16914Y-15160D01*
X16925Y-15083D01*
X16911Y-15006D01*
X16878Y-14983D01*
X17058Y-14983D01*
X17058Y-14986D01*
X17065Y-15111D01*
X17087Y-15171D01*
X17123Y-15167D01*
X17172Y-15106D01*
X17188Y-15039D01*
X17163Y-14979D01*
X17136Y-14918D01*
X17157Y-14871D01*
X17170Y-14857D01*
X17231Y-14824D01*
X17279Y-14851D01*
X17312Y-14933D01*
X17324Y-15065D01*
X17325Y-15071D01*
X17321Y-15178D01*
X17304Y-15242D01*
X17263Y-15286D01*
X17216Y-15317D01*
X17078Y-15371D01*
X16936Y-15377D01*
X16807Y-15338D01*
X16707Y-15258D01*
X16660Y-15175D01*
X16644Y-15035D01*
X16685Y-14916D01*
X16775Y-14829D01*
X16904Y-14786D01*
X16949Y-14783D01*
X17058Y-14783D01*
X17058Y-14783D01*
X17058Y-14783D01*
G37*
G36*
X15929Y-19883D02*
X16058Y-19896D01*
X16168Y-19930D01*
X16203Y-19952D01*
X16272Y-20045D01*
X16273Y-20053D01*
X15920Y-20053D01*
X15822Y-20082D01*
X15780Y-20122D01*
X15766Y-20191D01*
X15808Y-20246D01*
X15897Y-20279D01*
X15956Y-20283D01*
X16057Y-20277D01*
X16107Y-20249D01*
X16124Y-20189D01*
X16125Y-20162D01*
X16100Y-20092D01*
X16045Y-20064D01*
X15920Y-20053D01*
X16273Y-20053D01*
X16296Y-20163D01*
X16276Y-20284D01*
X16214Y-20377D01*
X16112Y-20433D01*
X15979Y-20456D01*
X15839Y-20445D01*
X15719Y-20403D01*
X15673Y-20368D01*
X15608Y-20260D01*
X15598Y-20137D01*
X15640Y-20016D01*
X15722Y-19926D01*
X15808Y-19892D01*
X15929Y-19883D01*
X15929Y-19883D01*
X15929Y-19883D01*
G37*
G36*
X16025Y-18574D02*
X16025Y-18791D01*
X15816Y-18791D01*
X15784Y-18832D01*
X15775Y-18883D01*
X15790Y-18949D01*
X15816Y-18975D01*
X15848Y-18957D01*
X15858Y-18883D01*
X15847Y-18807D01*
X15816Y-18791D01*
X16025Y-18791D01*
X16025Y-18794D01*
X16027Y-18914D01*
X16037Y-18978D01*
X16057Y-18999D01*
X16072Y-18996D01*
X16130Y-18943D01*
X16137Y-18857D01*
X16118Y-18798D01*
X16097Y-18727D01*
X16122Y-18673D01*
X16137Y-18657D01*
X16184Y-18619D01*
X16218Y-18633D01*
X16243Y-18665D01*
X16281Y-18761D01*
X16290Y-18886D01*
X16269Y-19008D01*
X16230Y-19085D01*
X16171Y-19134D01*
X16081Y-19163D01*
X15981Y-19176D01*
X15870Y-19182D01*
X15799Y-19171D01*
X15741Y-19136D01*
X15693Y-19090D01*
X15614Y-18973D01*
X15595Y-18853D01*
X15630Y-18743D01*
X15716Y-18654D01*
X15847Y-18600D01*
X15883Y-18593D01*
X16025Y-18574D01*
X16025Y-18574D01*
X16025Y-18574D01*
G37*
G36*
X16023Y-17950D02*
X16156Y-17951D01*
X16235Y-17956D01*
X16275Y-17970D01*
X16289Y-17998D01*
X16291Y-18033D01*
X16287Y-18078D01*
X16265Y-18103D01*
X16210Y-18114D01*
X16106Y-18116D01*
X16081Y-18116D01*
X15921Y-18127D01*
X15815Y-18158D01*
X15766Y-18207D01*
X15778Y-18272D01*
X15778Y-18273D01*
X15814Y-18307D01*
X15880Y-18328D01*
X15992Y-18340D01*
X16053Y-18343D01*
X16177Y-18349D01*
X16248Y-18360D01*
X16281Y-18379D01*
X16291Y-18414D01*
X16291Y-18435D01*
X16289Y-18471D01*
X16275Y-18495D01*
X16237Y-18508D01*
X16163Y-18515D01*
X16041Y-18516D01*
X15945Y-18516D01*
X15598Y-18516D01*
X15598Y-18312D01*
X15602Y-18188D01*
X15620Y-18108D01*
X15658Y-18048D01*
X15676Y-18028D01*
X15724Y-17988D01*
X15780Y-17965D01*
X15862Y-17953D01*
X15988Y-17950D01*
X16023Y-17950D01*
X16023Y-17950D01*
X16023Y-17950D01*
G37*
G36*
X16069Y-17023D02*
X16165Y-17040D01*
X16225Y-17083D01*
X16271Y-17170D01*
X16290Y-17293D01*
X16281Y-17427D01*
X16243Y-17550D01*
X16237Y-17562D01*
X16199Y-17626D01*
X16169Y-17636D01*
X16126Y-17600D01*
X16120Y-17594D01*
X16080Y-17545D01*
X16077Y-17498D01*
X16108Y-17427D01*
X16139Y-17330D01*
X16130Y-17254D01*
X16085Y-17218D01*
X16071Y-17216D01*
X16035Y-17247D01*
X16025Y-17326D01*
X16001Y-17458D01*
X15934Y-17546D01*
X15828Y-17582D01*
X15808Y-17583D01*
X15697Y-17556D01*
X15624Y-17481D01*
X15593Y-17366D01*
X15609Y-17219D01*
X15628Y-17155D01*
X15674Y-17072D01*
X15729Y-17054D01*
X15791Y-17100D01*
X15816Y-17154D01*
X15793Y-17198D01*
X15768Y-17258D01*
X15765Y-17330D01*
X15783Y-17386D01*
X15807Y-17400D01*
X15833Y-17370D01*
X15856Y-17297D01*
X15861Y-17269D01*
X15904Y-17143D01*
X15978Y-17059D01*
X16069Y-17023D01*
X16069Y-17023D01*
X16069Y-17023D01*
G37*
G36*
X15951Y-16416D02*
X16072Y-16421D01*
X16149Y-16441D01*
X16206Y-16481D01*
X16219Y-16494D01*
X16267Y-16582D01*
X15966Y-16582D01*
X15870Y-16593D01*
X15798Y-16630D01*
X15765Y-16685D01*
X15780Y-16744D01*
X15850Y-16798D01*
X15959Y-16814D01*
X16045Y-16802D01*
X16103Y-16761D01*
X16126Y-16696D01*
X16109Y-16632D01*
X16072Y-16603D01*
X15966Y-16582D01*
X16267Y-16582D01*
X16278Y-16600D01*
X16293Y-16725D01*
X16262Y-16844D01*
X16214Y-16911D01*
X16149Y-16956D01*
X16063Y-16978D01*
X15946Y-16983D01*
X15780Y-16963D01*
X15666Y-16901D01*
X15604Y-16798D01*
X15591Y-16700D01*
X15616Y-16568D01*
X15692Y-16477D01*
X15820Y-16428D01*
X15951Y-16416D01*
X15951Y-16416D01*
X15951Y-16416D01*
G37*
G36*
X16291Y-15750D02*
X16291Y-15978D01*
X16288Y-16108D01*
X16274Y-16190D01*
X16245Y-16245D01*
X16221Y-16270D01*
X16171Y-16303D01*
X16101Y-16323D01*
X15994Y-16332D01*
X15879Y-16333D01*
X15746Y-16332D01*
X15664Y-16327D01*
X15622Y-16313D01*
X15604Y-16285D01*
X15597Y-16243D01*
X15587Y-16153D01*
X15847Y-16143D01*
X15978Y-16137D01*
X16055Y-16128D01*
X16094Y-16111D01*
X16107Y-16081D01*
X16108Y-16050D01*
X16104Y-16007D01*
X16083Y-15981D01*
X16032Y-15966D01*
X15935Y-15955D01*
X15858Y-15950D01*
X15731Y-15940D01*
X15655Y-15928D01*
X15617Y-15908D01*
X15602Y-15873D01*
X15597Y-15841D01*
X15587Y-15750D01*
X15939Y-15750D01*
X16291Y-15750D01*
X16291Y-15750D01*
X16291Y-15750D01*
G37*
G36*
X15664Y-15187D02*
X15715Y-15205D01*
X15761Y-15267D01*
X15766Y-15317D01*
X15770Y-15396D01*
X15812Y-15447D01*
X15900Y-15474D01*
X16043Y-15483D01*
X16062Y-15483D01*
X16183Y-15484D01*
X16251Y-15492D01*
X16282Y-15511D01*
X16291Y-15546D01*
X16291Y-15566D01*
X16291Y-15650D01*
X15945Y-15650D01*
X15598Y-15650D01*
X15598Y-15455D01*
X15604Y-15306D01*
X15626Y-15218D01*
X15664Y-15187D01*
X15664Y-15187D01*
X15664Y-15187D01*
G37*
G36*
X15718Y-14653D02*
X15758Y-14670D01*
X15778Y-14689D01*
X15813Y-14747D01*
X15794Y-14810D01*
X15761Y-14894D01*
X15775Y-14956D01*
X15810Y-14997D01*
X15888Y-15039D01*
X15986Y-15047D01*
X16069Y-15022D01*
X16085Y-15010D01*
X16117Y-14945D01*
X16122Y-14866D01*
X16098Y-14806D01*
X16089Y-14798D01*
X16079Y-14760D01*
X16111Y-14713D01*
X16158Y-14670D01*
X16197Y-14677D01*
X16230Y-14705D01*
X16280Y-14791D01*
X16294Y-14906D01*
X16273Y-15027D01*
X16217Y-15126D01*
X16209Y-15135D01*
X16141Y-15187D01*
X16056Y-15212D01*
X15957Y-15216D01*
X15844Y-15210D01*
X15766Y-15183D01*
X15693Y-15124D01*
X15684Y-15115D01*
X15619Y-15040D01*
X15596Y-14972D01*
X15601Y-14877D01*
X15625Y-14777D01*
X15662Y-14700D01*
X15672Y-14688D01*
X15718Y-14653D01*
X15718Y-14653D01*
X15718Y-14653D01*
G37*
G36*
X16025Y-14083D02*
X16025Y-14257D01*
X15821Y-14257D01*
X15816Y-14258D01*
X15774Y-14301D01*
X15767Y-14371D01*
X15795Y-14438D01*
X15806Y-14448D01*
X15840Y-14468D01*
X15855Y-14444D01*
X15858Y-14368D01*
X15849Y-14281D01*
X15821Y-14257D01*
X16025Y-14257D01*
X16025Y-14282D01*
X16028Y-14394D01*
X16039Y-14452D01*
X16062Y-14466D01*
X16072Y-14463D01*
X16130Y-14410D01*
X16137Y-14324D01*
X16118Y-14265D01*
X16097Y-14193D01*
X16122Y-14140D01*
X16137Y-14124D01*
X16184Y-14086D01*
X16218Y-14100D01*
X16243Y-14131D01*
X16286Y-14238D01*
X16291Y-14368D01*
X16259Y-14492D01*
X16209Y-14568D01*
X16141Y-14621D01*
X16056Y-14645D01*
X15957Y-14650D01*
X15843Y-14643D01*
X15765Y-14616D01*
X15693Y-14557D01*
X15689Y-14552D01*
X15612Y-14438D01*
X15594Y-14321D01*
X15628Y-14214D01*
X15710Y-14132D01*
X15832Y-14087D01*
X15890Y-14083D01*
X16025Y-14083D01*
X16025Y-14083D01*
X16025Y-14083D01*
G37*
G36*
X13488Y-14783D02*
X13510Y-14908D01*
X13530Y-15013D01*
X13555Y-15146D01*
X13571Y-15229D01*
X13609Y-15424D01*
X13854Y-15522D01*
X14098Y-15619D01*
X14369Y-15434D01*
X14639Y-15249D01*
X14882Y-15490D01*
X14983Y-15593D01*
X15064Y-15681D01*
X15113Y-15740D01*
X15125Y-15760D01*
X15107Y-15798D01*
X15058Y-15877D01*
X14989Y-15982D01*
X14951Y-16037D01*
X14870Y-16154D01*
X14822Y-16232D01*
X14802Y-16284D01*
X14806Y-16325D01*
X14828Y-16369D01*
X14834Y-16381D01*
X14874Y-16461D01*
X14891Y-16524D01*
X14891Y-16525D01*
X14860Y-16557D01*
X14769Y-16610D01*
X14622Y-16680D01*
X14422Y-16768D01*
X14357Y-16795D01*
X14181Y-16867D01*
X14026Y-16930D01*
X13903Y-16978D01*
X13821Y-17008D01*
X13793Y-17016D01*
X13759Y-16991D01*
X13708Y-16926D01*
X13691Y-16900D01*
X13568Y-16759D01*
X13411Y-16665D01*
X13233Y-16619D01*
X13047Y-16621D01*
X12867Y-16670D01*
X12705Y-16767D01*
X12592Y-16887D01*
X12501Y-17064D01*
X12468Y-17247D01*
X12489Y-17428D01*
X12558Y-17594D01*
X12670Y-17736D01*
X12819Y-17843D01*
X13000Y-17905D01*
X13124Y-17916D01*
X13307Y-17898D01*
X13458Y-17838D01*
X13597Y-17725D01*
X13647Y-17671D01*
X13722Y-17590D01*
X13780Y-17534D01*
X13806Y-17516D01*
X13857Y-17529D01*
X13952Y-17564D01*
X14080Y-17616D01*
X14229Y-17680D01*
X14387Y-17749D01*
X14542Y-17820D01*
X14682Y-17886D01*
X14794Y-17942D01*
X14868Y-17982D01*
X14891Y-18001D01*
X14876Y-18058D01*
X14838Y-18138D01*
X14834Y-18143D01*
X14778Y-18242D01*
X14951Y-18493D01*
X15027Y-18607D01*
X15087Y-18700D01*
X15120Y-18760D01*
X15125Y-18773D01*
X15102Y-18807D01*
X15042Y-18876D01*
X14956Y-18968D01*
X14899Y-19026D01*
X14797Y-19123D01*
X14709Y-19199D01*
X14647Y-19243D01*
X14629Y-19250D01*
X14584Y-19232D01*
X14500Y-19183D01*
X14392Y-19114D01*
X14345Y-19081D01*
X14103Y-18913D01*
X13856Y-19011D01*
X13609Y-19109D01*
X13571Y-19304D01*
X13545Y-19437D01*
X13521Y-19565D01*
X13510Y-19626D01*
X13488Y-19752D01*
X13132Y-19743D01*
X12776Y-19733D01*
X12713Y-19412D01*
X12651Y-19090D01*
X12446Y-19003D01*
X12334Y-18959D01*
X12243Y-18927D01*
X12195Y-18916D01*
X12148Y-18935D01*
X12064Y-18983D01*
X11959Y-19053D01*
X11939Y-19067D01*
X11831Y-19142D01*
X11738Y-19202D01*
X11679Y-19236D01*
X11674Y-19238D01*
X11626Y-19230D01*
X11549Y-19178D01*
X11438Y-19079D01*
X11388Y-19030D01*
X11290Y-18928D01*
X11212Y-18841D01*
X11166Y-18780D01*
X11158Y-18761D01*
X11176Y-18718D01*
X11224Y-18635D01*
X11294Y-18526D01*
X11336Y-18463D01*
X11515Y-18204D01*
X11433Y-18002D01*
X11388Y-17894D01*
X11349Y-17811D01*
X11327Y-17774D01*
X11285Y-17757D01*
X11194Y-17732D01*
X11068Y-17705D01*
X10988Y-17690D01*
X10675Y-17631D01*
X10675Y-17267D01*
X10675Y-16903D01*
X11006Y-16835D01*
X11337Y-16766D01*
X11426Y-16550D01*
X11515Y-16333D01*
X11336Y-16072D01*
X11259Y-15955D01*
X11199Y-15856D01*
X11164Y-15790D01*
X11159Y-15772D01*
X11183Y-15727D01*
X11242Y-15652D01*
X11325Y-15559D01*
X11418Y-15463D01*
X11509Y-15376D01*
X11583Y-15311D01*
X11630Y-15283D01*
X11632Y-15283D01*
X11680Y-15301D01*
X11766Y-15350D01*
X11875Y-15420D01*
X11918Y-15450D01*
X12029Y-15525D01*
X12121Y-15583D01*
X12179Y-15614D01*
X12189Y-15616D01*
X12235Y-15605D01*
X12324Y-15573D01*
X12436Y-15529D01*
X12439Y-15528D01*
X12654Y-15440D01*
X12714Y-15111D01*
X12773Y-14783D01*
X13131Y-14783D01*
X13488Y-14783D01*
X13488Y-14783D01*
X13488Y-14783D01*
G37*
G36*
X20492Y-18707D02*
X20730Y-18726D01*
X20942Y-18785D01*
X20970Y-18797D01*
X21138Y-18899D01*
X20420Y-18899D01*
X20167Y-18946D01*
X19945Y-19046D01*
X19761Y-19194D01*
X19621Y-19383D01*
X19532Y-19605D01*
X19500Y-19855D01*
X19500Y-19861D01*
X19529Y-20128D01*
X19615Y-20362D01*
X19756Y-20561D01*
X19951Y-20721D01*
X20059Y-20782D01*
X20265Y-20853D01*
X20488Y-20880D01*
X20705Y-20862D01*
X20895Y-20798D01*
X20900Y-20796D01*
X21122Y-20647D01*
X21294Y-20463D01*
X21413Y-20252D01*
X21477Y-20021D01*
X21481Y-19780D01*
X21424Y-19536D01*
X21381Y-19435D01*
X21243Y-19223D01*
X21063Y-19061D01*
X20847Y-18953D01*
X20601Y-18901D01*
X20420Y-18899D01*
X21138Y-18899D01*
X21214Y-18945D01*
X21411Y-19141D01*
X21561Y-19382D01*
X21653Y-19637D01*
X21689Y-19815D01*
X21690Y-19973D01*
X21656Y-20145D01*
X21652Y-20158D01*
X21584Y-20351D01*
X21489Y-20518D01*
X21351Y-20686D01*
X21338Y-20700D01*
X21137Y-20875D01*
X20903Y-20997D01*
X20707Y-21058D01*
X20463Y-21082D01*
X20217Y-21047D01*
X19981Y-20957D01*
X19764Y-20817D01*
X19578Y-20634D01*
X19432Y-20412D01*
X19426Y-20400D01*
X19372Y-20283D01*
X19339Y-20188D01*
X19323Y-20089D01*
X19317Y-19960D01*
X19317Y-19876D01*
X19320Y-19716D01*
X19333Y-19598D01*
X19359Y-19497D01*
X19404Y-19389D01*
X19407Y-19383D01*
X19532Y-19178D01*
X19700Y-18996D01*
X19894Y-18852D01*
X20024Y-18788D01*
X20249Y-18727D01*
X20492Y-18707D01*
X20492Y-18707D01*
X20492Y-18707D01*
G37*
G36*
X20492Y-16158D02*
X20738Y-16175D01*
X20944Y-16231D01*
X21128Y-16333D01*
X20528Y-16333D01*
X20279Y-16355D01*
X20045Y-16439D01*
X19836Y-16579D01*
X19740Y-16675D01*
X19601Y-16880D01*
X19520Y-17107D01*
X19495Y-17345D01*
X19527Y-17582D01*
X19615Y-17807D01*
X19759Y-18009D01*
X19787Y-18038D01*
X19985Y-18192D01*
X20207Y-18288D01*
X20444Y-18327D01*
X20684Y-18309D01*
X20918Y-18232D01*
X21135Y-18097D01*
X21156Y-18079D01*
X21312Y-17906D01*
X21420Y-17697D01*
X21478Y-17466D01*
X21483Y-17227D01*
X21432Y-16994D01*
X21399Y-16914D01*
X21289Y-16742D01*
X21137Y-16583D01*
X20962Y-16455D01*
X20783Y-16374D01*
X20781Y-16373D01*
X20528Y-16333D01*
X21128Y-16333D01*
X21257Y-16438D01*
X21449Y-16646D01*
X21582Y-16869D01*
X21652Y-17066D01*
X21687Y-17230D01*
X21693Y-17372D01*
X21670Y-17526D01*
X21646Y-17624D01*
X21544Y-17881D01*
X21385Y-18108D01*
X21178Y-18297D01*
X20947Y-18432D01*
X20842Y-18472D01*
X20731Y-18495D01*
X20590Y-18506D01*
X20483Y-18508D01*
X20328Y-18505D01*
X20216Y-18495D01*
X20122Y-18471D01*
X20022Y-18429D01*
X19985Y-18411D01*
X19753Y-18264D01*
X19559Y-18073D01*
X19415Y-17850D01*
X19406Y-17832D01*
X19359Y-17717D01*
X19332Y-17609D01*
X19320Y-17480D01*
X19317Y-17358D01*
X19330Y-17117D01*
X19373Y-16918D01*
X19456Y-16743D01*
X19585Y-16574D01*
X19650Y-16506D01*
X19834Y-16344D01*
X20022Y-16237D01*
X20233Y-16177D01*
X20483Y-16158D01*
X20492Y-16158D01*
X20492Y-16158D01*
X20492Y-16158D01*
G37*
G36*
X20483Y-13612D02*
X20733Y-13631D01*
X20953Y-13700D01*
X21121Y-13802D01*
X20541Y-13802D01*
X20302Y-13822D01*
X20076Y-13894D01*
X19873Y-14014D01*
X19705Y-14176D01*
X19582Y-14374D01*
X19552Y-14450D01*
X19507Y-14656D01*
X19502Y-14878D01*
X19535Y-15088D01*
X19578Y-15208D01*
X19679Y-15368D01*
X19822Y-15525D01*
X19987Y-15657D01*
X20110Y-15727D01*
X20250Y-15768D01*
X20426Y-15789D01*
X20608Y-15788D01*
X20767Y-15764D01*
X20803Y-15753D01*
X21025Y-15645D01*
X21209Y-15490D01*
X21351Y-15300D01*
X21445Y-15084D01*
X21487Y-14852D01*
X21474Y-14615D01*
X21399Y-14383D01*
X21399Y-14380D01*
X21289Y-14208D01*
X21137Y-14050D01*
X20962Y-13921D01*
X20783Y-13840D01*
X20781Y-13840D01*
X20541Y-13802D01*
X21121Y-13802D01*
X21158Y-13824D01*
X21275Y-13922D01*
X21440Y-14097D01*
X21557Y-14277D01*
X21638Y-14486D01*
X21654Y-14542D01*
X21688Y-14702D01*
X21693Y-14844D01*
X21669Y-15001D01*
X21646Y-15091D01*
X21546Y-15344D01*
X21397Y-15562D01*
X21207Y-15741D01*
X20986Y-15875D01*
X20742Y-15958D01*
X20484Y-15987D01*
X20221Y-15955D01*
X20181Y-15944D01*
X19988Y-15869D01*
X19799Y-15760D01*
X19636Y-15633D01*
X19549Y-15538D01*
X19434Y-15363D01*
X19362Y-15188D01*
X19325Y-14990D01*
X19317Y-14808D01*
X19319Y-14655D01*
X19329Y-14544D01*
X19353Y-14450D01*
X19395Y-14349D01*
X19426Y-14285D01*
X19579Y-14043D01*
X19774Y-13852D01*
X20005Y-13714D01*
X20267Y-13633D01*
X20483Y-13612D01*
X20483Y-13612D01*
X20483Y-13612D01*
G37*
G36*
X20291Y-19912D02*
X20315Y-19989D01*
X20320Y-20065D01*
X20303Y-20102D01*
X20269Y-20175D01*
X20278Y-20260D01*
X20327Y-20322D01*
X20331Y-20324D01*
X20420Y-20351D01*
X20526Y-20357D01*
X20619Y-20341D01*
X20660Y-20318D01*
X20692Y-20250D01*
X20697Y-20159D01*
X20675Y-20083D01*
X20665Y-20071D01*
X20648Y-20020D01*
X20660Y-19961D01*
X20692Y-19926D01*
X20699Y-19925D01*
X20753Y-19955D01*
X20799Y-20031D01*
X20830Y-20134D01*
X20839Y-20241D01*
X20829Y-20304D01*
X20763Y-20436D01*
X20656Y-20520D01*
X20517Y-20552D01*
X20356Y-20527D01*
X20351Y-20526D01*
X20236Y-20456D01*
X20162Y-20349D01*
X20134Y-20222D01*
X20158Y-20092D01*
X20212Y-20004D01*
X20291Y-19912D01*
X20291Y-19912D01*
X20291Y-19912D01*
G37*
G36*
X20291Y-19212D02*
X20315Y-19289D01*
X20320Y-19365D01*
X20303Y-19402D01*
X20269Y-19476D01*
X20278Y-19565D01*
X20319Y-19628D01*
X20389Y-19659D01*
X20483Y-19672D01*
X20576Y-19659D01*
X20646Y-19628D01*
X20688Y-19558D01*
X20698Y-19465D01*
X20675Y-19384D01*
X20663Y-19368D01*
X20645Y-19309D01*
X20658Y-19275D01*
X20685Y-19239D01*
X20717Y-19250D01*
X20758Y-19291D01*
X20825Y-19397D01*
X20844Y-19531D01*
X20839Y-19599D01*
X20796Y-19709D01*
X20705Y-19793D01*
X20583Y-19843D01*
X20445Y-19853D01*
X20315Y-19819D01*
X20214Y-19739D01*
X20153Y-19624D01*
X20138Y-19493D01*
X20171Y-19365D01*
X20212Y-19304D01*
X20291Y-19212D01*
X20291Y-19212D01*
X20291Y-19212D01*
G37*
G36*
X20538Y-17028D02*
X20615Y-17032D01*
X20653Y-17045D01*
X20665Y-17072D01*
X20666Y-17090D01*
X20671Y-17124D01*
X20695Y-17144D01*
X20750Y-17154D01*
X20850Y-17158D01*
X20950Y-17158D01*
X21233Y-17158D01*
X21233Y-17325D01*
X21233Y-17492D01*
X20963Y-17492D01*
X20828Y-17493D01*
X20745Y-17501D01*
X20701Y-17516D01*
X20680Y-17544D01*
X20676Y-17558D01*
X20660Y-17592D01*
X20626Y-17612D01*
X20558Y-17622D01*
X20442Y-17625D01*
X20394Y-17625D01*
X20130Y-17625D01*
X20140Y-17333D01*
X20150Y-17042D01*
X20408Y-17032D01*
X20538Y-17028D01*
X20538Y-17028D01*
X20538Y-17028D01*
G37*
G36*
X19843Y-17198D02*
X19950Y-17209D01*
X20016Y-17269D01*
X20033Y-17347D01*
X20003Y-17428D01*
X19954Y-17463D01*
X19853Y-17481D01*
X19777Y-17445D01*
X19740Y-17363D01*
X19739Y-17315D01*
X19757Y-17238D01*
X19803Y-17205D01*
X19843Y-17198D01*
X19843Y-17198D01*
X19843Y-17198D01*
G37*
G36*
X20507Y-14206D02*
X20683Y-14229D01*
X20845Y-14295D01*
X20980Y-14403D01*
X21069Y-14539D01*
X21123Y-14725D01*
X21121Y-14912D01*
X21074Y-15058D01*
X21011Y-15147D01*
X20922Y-15233D01*
X20827Y-15298D01*
X20748Y-15325D01*
X20745Y-15325D01*
X20712Y-15295D01*
X20700Y-15203D01*
X20700Y-15192D01*
X20707Y-15108D01*
X20725Y-15062D01*
X20733Y-15058D01*
X20800Y-15029D01*
X20858Y-14954D01*
X20894Y-14854D01*
X20899Y-14800D01*
X20891Y-14694D01*
X20859Y-14624D01*
X20786Y-14561D01*
X20767Y-14548D01*
X20663Y-14505D01*
X20532Y-14490D01*
X20392Y-14501D01*
X20264Y-14533D01*
X20166Y-14586D01*
X20120Y-14643D01*
X20099Y-14757D01*
X20115Y-14870D01*
X20160Y-14967D01*
X20226Y-15032D01*
X20305Y-15049D01*
X20324Y-15045D01*
X20399Y-15054D01*
X20466Y-15108D01*
X20545Y-15192D01*
X20449Y-15292D01*
X20386Y-15348D01*
X20343Y-15370D01*
X20335Y-15367D01*
X20296Y-15339D01*
X20218Y-15294D01*
X20159Y-15263D01*
X20011Y-15155D01*
X19914Y-15011D01*
X19872Y-14842D01*
X19888Y-14658D01*
X19930Y-14539D01*
X20030Y-14392D01*
X20168Y-14287D01*
X20331Y-14225D01*
X20507Y-14206D01*
X20507Y-14206D01*
X20507Y-14206D01*
G37*
G54D10*
X30225Y-16450D02*
X29225Y-16450D01*
X29225Y-16450D02*
X29225Y-13450D01*
X29225Y-13450D02*
X30225Y-13450D01*
X30225Y-13450D02*
X30225Y-16450D01*
X29225Y-15450D02*
X30225Y-15450D01*
G54D13*
X46425Y-20075D02*
G75*
G03X46425Y-20075I-900J0D01*
G74*
G01*
G54D22*
X25455Y-23827D02*
X25455Y-23327D01*
X25646Y-23327D01*
X25694Y-23351D01*
X25717Y-23375D01*
X25741Y-23422D01*
X25741Y-23494D01*
X25717Y-23541D01*
X25694Y-23565D01*
X25646Y-23589D01*
X25455Y-23589D01*
X25932Y-23375D02*
X25955Y-23351D01*
X26003Y-23327D01*
X26122Y-23327D01*
X26170Y-23351D01*
X26194Y-23375D01*
X26217Y-23422D01*
X26217Y-23470D01*
X26194Y-23541D01*
X25908Y-23827D01*
X26217Y-23827D01*
G54D14*
X15838Y-24532D02*
X15838Y-23833D01*
X16076Y-23833D01*
X16136Y-23867D01*
X16166Y-23900D01*
X16195Y-23967D01*
X16195Y-24066D01*
X16166Y-24133D01*
X16136Y-24166D01*
X16076Y-24200D01*
X15838Y-24200D01*
X16731Y-24066D02*
X16731Y-24532D01*
X16582Y-23800D02*
X16433Y-24299D01*
X16820Y-24299D01*
X15963Y-13882D02*
X15963Y-13183D01*
X16201Y-13183D01*
X16261Y-13217D01*
X16291Y-13250D01*
X16320Y-13317D01*
X16320Y-13416D01*
X16291Y-13483D01*
X16261Y-13516D01*
X16201Y-13550D01*
X15963Y-13550D01*
X16916Y-13882D02*
X16558Y-13882D01*
X16737Y-13882D02*
X16737Y-13183D01*
X16677Y-13283D01*
X16618Y-13350D01*
X16558Y-13383D01*
G54D10*
X29110Y-20207D02*
X29110Y-19757D01*
X29582Y-20164D02*
X29560Y-20185D01*
X29496Y-20207D01*
X29453Y-20207D01*
X29389Y-20185D01*
X29346Y-20142D01*
X29325Y-20100D01*
X29303Y-20014D01*
X29303Y-19950D01*
X29325Y-19864D01*
X29346Y-19821D01*
X29389Y-19778D01*
X29453Y-19757D01*
X29496Y-19757D01*
X29560Y-19778D01*
X29582Y-19800D01*
X29967Y-19757D02*
X29882Y-19757D01*
X29839Y-19778D01*
X29817Y-19800D01*
X29775Y-19864D01*
X29753Y-19950D01*
X29753Y-20121D01*
X29775Y-20164D01*
X29796Y-20185D01*
X29839Y-20207D01*
X29925Y-20207D01*
X29967Y-20185D01*
X29989Y-20164D01*
X30010Y-20121D01*
X30010Y-20014D01*
X29989Y-19971D01*
X29967Y-19950D01*
X29925Y-19928D01*
X29839Y-19928D01*
X29796Y-19950D01*
X29775Y-19971D01*
X29753Y-20014D01*
X30275Y-19741D02*
X30275Y-19391D01*
X30475Y-19741D01*
X30475Y-19391D01*
X30641Y-19558D02*
X30758Y-19558D01*
X30808Y-19741D02*
X30641Y-19741D01*
X30641Y-19391D01*
X30808Y-19391D01*
X31124Y-19391D02*
X30958Y-19391D01*
X30941Y-19558D01*
X30958Y-19541D01*
X30991Y-19525D01*
X31074Y-19525D01*
X31108Y-19541D01*
X31124Y-19558D01*
X31141Y-19591D01*
X31141Y-19675D01*
X31124Y-19708D01*
X31108Y-19725D01*
X31074Y-19741D01*
X30991Y-19741D01*
X30958Y-19725D01*
X30941Y-19708D01*
X31458Y-19391D02*
X31291Y-19391D01*
X31274Y-19558D01*
X31291Y-19541D01*
X31324Y-19525D01*
X31408Y-19525D01*
X31441Y-19541D01*
X31458Y-19558D01*
X31474Y-19591D01*
X31474Y-19675D01*
X31458Y-19708D01*
X31441Y-19725D01*
X31408Y-19741D01*
X31324Y-19741D01*
X31291Y-19725D01*
X31274Y-19708D01*
X31591Y-19391D02*
X31808Y-19391D01*
X31691Y-19525D01*
X31741Y-19525D01*
X31775Y-19541D01*
X31791Y-19558D01*
X31808Y-19591D01*
X31808Y-19675D01*
X31791Y-19708D01*
X31775Y-19725D01*
X31741Y-19741D01*
X31641Y-19741D01*
X31608Y-19725D01*
X31591Y-19708D01*
X31941Y-19425D02*
X31958Y-19408D01*
X31991Y-19391D01*
X32075Y-19391D01*
X32108Y-19408D01*
X32125Y-19425D01*
X32141Y-19458D01*
X32141Y-19491D01*
X32125Y-19541D01*
X31925Y-19741D01*
X32141Y-19741D01*
X37860Y-25607D02*
X37860Y-25157D01*
X38332Y-25564D02*
X38310Y-25585D01*
X38246Y-25607D01*
X38203Y-25607D01*
X38139Y-25585D01*
X38096Y-25542D01*
X38075Y-25500D01*
X38053Y-25414D01*
X38053Y-25350D01*
X38075Y-25264D01*
X38096Y-25221D01*
X38139Y-25178D01*
X38203Y-25157D01*
X38246Y-25157D01*
X38310Y-25178D01*
X38332Y-25200D01*
X38717Y-25307D02*
X38717Y-25607D01*
X38610Y-25135D02*
X38503Y-25457D01*
X38782Y-25457D01*
X37366Y-24241D02*
X37366Y-23891D01*
X37483Y-24141D01*
X37599Y-23891D01*
X37599Y-24241D01*
X37749Y-24141D02*
X37916Y-24141D01*
X37716Y-24241D02*
X37833Y-23891D01*
X37949Y-24241D01*
X38033Y-23891D02*
X38266Y-24241D01*
X38266Y-23891D02*
X38033Y-24241D01*
X38383Y-23925D02*
X38400Y-23908D01*
X38433Y-23891D01*
X38516Y-23891D01*
X38550Y-23908D01*
X38566Y-23925D01*
X38583Y-23958D01*
X38583Y-23991D01*
X38566Y-24041D01*
X38366Y-24241D01*
X38583Y-24241D01*
X38750Y-24241D02*
X38816Y-24241D01*
X38850Y-24225D01*
X38866Y-24208D01*
X38900Y-24158D01*
X38916Y-24091D01*
X38916Y-23958D01*
X38900Y-23925D01*
X38883Y-23908D01*
X38850Y-23891D01*
X38783Y-23891D01*
X38750Y-23908D01*
X38733Y-23925D01*
X38716Y-23958D01*
X38716Y-24041D01*
X38733Y-24075D01*
X38750Y-24091D01*
X38783Y-24108D01*
X38850Y-24108D01*
X38883Y-24091D01*
X38900Y-24075D01*
X38916Y-24041D01*
X39033Y-23891D02*
X39266Y-23891D01*
X39116Y-24241D01*
G54D15*
X40860Y-18086D02*
X40860Y-17686D01*
X41332Y-18048D02*
X41310Y-18067D01*
X41246Y-18086D01*
X41203Y-18086D01*
X41139Y-18067D01*
X41096Y-18029D01*
X41075Y-17991D01*
X41053Y-17915D01*
X41053Y-17858D01*
X41075Y-17782D01*
X41096Y-17744D01*
X41139Y-17705D01*
X41203Y-17686D01*
X41246Y-17686D01*
X41310Y-17705D01*
X41332Y-17725D01*
X41482Y-17686D02*
X41760Y-17686D01*
X41610Y-17839D01*
X41675Y-17839D01*
X41717Y-17858D01*
X41739Y-17877D01*
X41760Y-17915D01*
X41760Y-18010D01*
X41739Y-18048D01*
X41717Y-18067D01*
X41675Y-18086D01*
X41546Y-18086D01*
X41503Y-18067D01*
X41482Y-18048D01*
X39857Y-19923D02*
X39835Y-19942D01*
X39771Y-19961D01*
X39728Y-19961D01*
X39664Y-19942D01*
X39621Y-19904D01*
X39600Y-19866D01*
X39578Y-19790D01*
X39578Y-19733D01*
X39600Y-19657D01*
X39621Y-19619D01*
X39664Y-19580D01*
X39728Y-19561D01*
X39771Y-19561D01*
X39835Y-19580D01*
X39857Y-19600D01*
X40050Y-19961D02*
X40050Y-19561D01*
X40157Y-19561D01*
X40221Y-19580D01*
X40264Y-19619D01*
X40285Y-19657D01*
X40307Y-19733D01*
X40307Y-19790D01*
X40285Y-19866D01*
X40264Y-19904D01*
X40221Y-19942D01*
X40157Y-19961D01*
X40050Y-19961D01*
X40692Y-19695D02*
X40692Y-19961D01*
X40585Y-19542D02*
X40478Y-19828D01*
X40757Y-19828D01*
X41014Y-19561D02*
X41057Y-19561D01*
X41100Y-19580D01*
X41121Y-19600D01*
X41142Y-19638D01*
X41164Y-19714D01*
X41164Y-19809D01*
X41142Y-19885D01*
X41121Y-19923D01*
X41100Y-19942D01*
X41057Y-19961D01*
X41014Y-19961D01*
X40971Y-19942D01*
X40950Y-19923D01*
X40928Y-19885D01*
X40907Y-19809D01*
X40907Y-19714D01*
X40928Y-19638D01*
X40950Y-19600D01*
X40971Y-19580D01*
X41014Y-19561D01*
X41592Y-19961D02*
X41335Y-19961D01*
X41464Y-19961D02*
X41464Y-19561D01*
X41421Y-19619D01*
X41378Y-19657D01*
X41335Y-19676D01*
X41742Y-19561D02*
X42042Y-19561D01*
X41850Y-19961D01*
X42035Y-21811D02*
X42035Y-21411D01*
X42507Y-21773D02*
X42485Y-21792D01*
X42421Y-21811D01*
X42378Y-21811D01*
X42314Y-21792D01*
X42271Y-21754D01*
X42250Y-21716D01*
X42228Y-21640D01*
X42228Y-21583D01*
X42250Y-21507D01*
X42271Y-21469D01*
X42314Y-21430D01*
X42378Y-21411D01*
X42421Y-21411D01*
X42485Y-21430D01*
X42507Y-21450D01*
X42678Y-21450D02*
X42700Y-21430D01*
X42742Y-21411D01*
X42850Y-21411D01*
X42892Y-21430D01*
X42914Y-21450D01*
X42935Y-21488D01*
X42935Y-21526D01*
X42914Y-21583D01*
X42657Y-21811D01*
X42935Y-21811D01*
X41357Y-23623D02*
X41335Y-23642D01*
X41271Y-23661D01*
X41228Y-23661D01*
X41164Y-23642D01*
X41121Y-23604D01*
X41100Y-23566D01*
X41078Y-23490D01*
X41078Y-23433D01*
X41100Y-23357D01*
X41121Y-23319D01*
X41164Y-23280D01*
X41228Y-23261D01*
X41271Y-23261D01*
X41335Y-23280D01*
X41357Y-23300D01*
X41550Y-23661D02*
X41550Y-23261D01*
X41657Y-23261D01*
X41721Y-23280D01*
X41764Y-23319D01*
X41785Y-23357D01*
X41807Y-23433D01*
X41807Y-23490D01*
X41785Y-23566D01*
X41764Y-23604D01*
X41721Y-23642D01*
X41657Y-23661D01*
X41550Y-23661D01*
X42192Y-23395D02*
X42192Y-23661D01*
X42085Y-23242D02*
X41978Y-23528D01*
X42257Y-23528D01*
X42514Y-23261D02*
X42557Y-23261D01*
X42600Y-23280D01*
X42621Y-23300D01*
X42642Y-23338D01*
X42664Y-23414D01*
X42664Y-23509D01*
X42642Y-23585D01*
X42621Y-23623D01*
X42600Y-23642D01*
X42557Y-23661D01*
X42514Y-23661D01*
X42471Y-23642D01*
X42450Y-23623D01*
X42428Y-23585D01*
X42407Y-23509D01*
X42407Y-23414D01*
X42428Y-23338D01*
X42450Y-23300D01*
X42471Y-23280D01*
X42514Y-23261D01*
X43092Y-23661D02*
X42835Y-23661D01*
X42964Y-23661D02*
X42964Y-23261D01*
X42921Y-23319D01*
X42878Y-23357D01*
X42835Y-23376D01*
X43242Y-23261D02*
X43542Y-23261D01*
X43350Y-23661D01*
X47860Y-24986D02*
X47860Y-24586D01*
X48332Y-24948D02*
X48310Y-24967D01*
X48246Y-24986D01*
X48203Y-24986D01*
X48139Y-24967D01*
X48096Y-24929D01*
X48075Y-24891D01*
X48053Y-24815D01*
X48053Y-24758D01*
X48075Y-24682D01*
X48096Y-24644D01*
X48139Y-24605D01*
X48203Y-24586D01*
X48246Y-24586D01*
X48310Y-24605D01*
X48332Y-24625D01*
X48760Y-24986D02*
X48503Y-24986D01*
X48632Y-24986D02*
X48632Y-24586D01*
X48589Y-24644D01*
X48546Y-24682D01*
X48503Y-24701D01*
X45961Y-23723D02*
X45942Y-23742D01*
X45885Y-23761D01*
X45847Y-23761D01*
X45790Y-23742D01*
X45752Y-23704D01*
X45733Y-23666D01*
X45714Y-23590D01*
X45714Y-23533D01*
X45733Y-23457D01*
X45752Y-23419D01*
X45790Y-23380D01*
X45847Y-23361D01*
X45885Y-23361D01*
X45942Y-23380D01*
X45961Y-23400D01*
X46133Y-23761D02*
X46133Y-23361D01*
X46228Y-23361D01*
X46285Y-23380D01*
X46323Y-23419D01*
X46342Y-23457D01*
X46361Y-23533D01*
X46361Y-23590D01*
X46342Y-23666D01*
X46323Y-23704D01*
X46285Y-23742D01*
X46228Y-23761D01*
X46133Y-23761D01*
X46704Y-23495D02*
X46704Y-23761D01*
X46609Y-23342D02*
X46514Y-23628D01*
X46761Y-23628D01*
X46990Y-23361D02*
X47028Y-23361D01*
X47066Y-23380D01*
X47085Y-23400D01*
X47104Y-23438D01*
X47123Y-23514D01*
X47123Y-23609D01*
X47104Y-23685D01*
X47085Y-23723D01*
X47066Y-23742D01*
X47028Y-23761D01*
X46990Y-23761D01*
X46952Y-23742D01*
X46933Y-23723D01*
X46914Y-23685D01*
X46895Y-23609D01*
X46895Y-23514D01*
X46914Y-23438D01*
X46933Y-23400D01*
X46952Y-23380D01*
X46990Y-23361D01*
X47371Y-23361D02*
X47409Y-23361D01*
X47447Y-23380D01*
X47466Y-23400D01*
X47485Y-23438D01*
X47504Y-23514D01*
X47504Y-23609D01*
X47485Y-23685D01*
X47466Y-23723D01*
X47447Y-23742D01*
X47409Y-23761D01*
X47371Y-23761D01*
X47333Y-23742D01*
X47314Y-23723D01*
X47295Y-23685D01*
X47276Y-23609D01*
X47276Y-23514D01*
X47295Y-23438D01*
X47314Y-23400D01*
X47333Y-23380D01*
X47371Y-23361D01*
X47885Y-23761D02*
X47657Y-23761D01*
X47771Y-23761D02*
X47771Y-23361D01*
X47733Y-23419D01*
X47695Y-23457D01*
X47657Y-23476D01*
X33060Y-23561D02*
X33060Y-23161D01*
X33532Y-23523D02*
X33510Y-23542D01*
X33446Y-23561D01*
X33403Y-23561D01*
X33339Y-23542D01*
X33296Y-23504D01*
X33275Y-23466D01*
X33253Y-23390D01*
X33253Y-23333D01*
X33275Y-23257D01*
X33296Y-23219D01*
X33339Y-23180D01*
X33403Y-23161D01*
X33446Y-23161D01*
X33510Y-23180D01*
X33532Y-23200D01*
X33939Y-23161D02*
X33725Y-23161D01*
X33703Y-23352D01*
X33725Y-23333D01*
X33767Y-23314D01*
X33875Y-23314D01*
X33917Y-23333D01*
X33939Y-23352D01*
X33960Y-23390D01*
X33960Y-23485D01*
X33939Y-23523D01*
X33917Y-23542D01*
X33875Y-23561D01*
X33767Y-23561D01*
X33725Y-23542D01*
X33703Y-23523D01*
X32204Y-24261D02*
X32204Y-23861D01*
X32338Y-24147D01*
X32471Y-23861D01*
X32471Y-24261D01*
X32890Y-24223D02*
X32871Y-24242D01*
X32814Y-24261D01*
X32776Y-24261D01*
X32719Y-24242D01*
X32680Y-24204D01*
X32661Y-24166D01*
X32642Y-24090D01*
X32642Y-24033D01*
X32661Y-23957D01*
X32680Y-23919D01*
X32719Y-23880D01*
X32776Y-23861D01*
X32814Y-23861D01*
X32871Y-23880D01*
X32890Y-23900D01*
X33061Y-24261D02*
X33061Y-23861D01*
X33214Y-23861D01*
X33252Y-23880D01*
X33271Y-23900D01*
X33290Y-23938D01*
X33290Y-23995D01*
X33271Y-24033D01*
X33252Y-24052D01*
X33214Y-24071D01*
X33061Y-24071D01*
X33633Y-23861D02*
X33557Y-23861D01*
X33519Y-23880D01*
X33500Y-23900D01*
X33461Y-23957D01*
X33442Y-24033D01*
X33442Y-24185D01*
X33461Y-24223D01*
X33480Y-24242D01*
X33519Y-24261D01*
X33595Y-24261D01*
X33633Y-24242D01*
X33652Y-24223D01*
X33671Y-24185D01*
X33671Y-24090D01*
X33652Y-24052D01*
X33633Y-24033D01*
X33595Y-24014D01*
X33519Y-24014D01*
X33480Y-24033D01*
X33461Y-24052D01*
X33442Y-24090D01*
X33919Y-23861D02*
X33957Y-23861D01*
X33995Y-23880D01*
X34014Y-23900D01*
X34033Y-23938D01*
X34052Y-24014D01*
X34052Y-24109D01*
X34033Y-24185D01*
X34014Y-24223D01*
X33995Y-24242D01*
X33957Y-24261D01*
X33919Y-24261D01*
X33880Y-24242D01*
X33861Y-24223D01*
X33842Y-24185D01*
X33823Y-24109D01*
X33823Y-24014D01*
X33842Y-23938D01*
X33861Y-23900D01*
X33880Y-23880D01*
X33919Y-23861D01*
X34204Y-23900D02*
X34223Y-23880D01*
X34261Y-23861D01*
X34357Y-23861D01*
X34395Y-23880D01*
X34414Y-23900D01*
X34433Y-23938D01*
X34433Y-23976D01*
X34414Y-24033D01*
X34185Y-24261D01*
X34433Y-24261D01*
X34776Y-23995D02*
X34776Y-24261D01*
X34680Y-23842D02*
X34585Y-24128D01*
X34833Y-24128D01*
X30967Y-23492D02*
X30982Y-23507D01*
X30996Y-23550D01*
X30996Y-23578D01*
X30982Y-23621D01*
X30953Y-23650D01*
X30925Y-23664D01*
X30867Y-23678D01*
X30825Y-23678D01*
X30767Y-23664D01*
X30739Y-23650D01*
X30710Y-23621D01*
X30696Y-23578D01*
X30696Y-23550D01*
X30710Y-23507D01*
X30725Y-23492D01*
X30996Y-23207D02*
X30996Y-23378D01*
X30996Y-23292D02*
X30696Y-23292D01*
X30739Y-23321D01*
X30767Y-23350D01*
X30782Y-23378D01*
X30996Y-22921D02*
X30996Y-23092D01*
X30996Y-23007D02*
X30696Y-23007D01*
X30739Y-23035D01*
X30767Y-23064D01*
X30782Y-23092D01*
X32107Y-17342D02*
X32092Y-17357D01*
X32050Y-17371D01*
X32021Y-17371D01*
X31978Y-17357D01*
X31950Y-17328D01*
X31935Y-17300D01*
X31921Y-17242D01*
X31921Y-17200D01*
X31935Y-17142D01*
X31950Y-17114D01*
X31978Y-17085D01*
X32021Y-17071D01*
X32050Y-17071D01*
X32092Y-17085D01*
X32107Y-17100D01*
X32392Y-17371D02*
X32221Y-17371D01*
X32307Y-17371D02*
X32307Y-17071D01*
X32278Y-17114D01*
X32250Y-17142D01*
X32221Y-17157D01*
X32492Y-17071D02*
X32678Y-17071D01*
X32578Y-17185D01*
X32621Y-17185D01*
X32650Y-17200D01*
X32664Y-17214D01*
X32678Y-17242D01*
X32678Y-17314D01*
X32664Y-17342D01*
X32650Y-17357D01*
X32621Y-17371D01*
X32535Y-17371D01*
X32507Y-17357D01*
X32492Y-17342D01*
X35592Y-18250D02*
X35607Y-18264D01*
X35621Y-18307D01*
X35621Y-18335D01*
X35607Y-18378D01*
X35578Y-18407D01*
X35550Y-18421D01*
X35492Y-18435D01*
X35450Y-18435D01*
X35392Y-18421D01*
X35364Y-18407D01*
X35335Y-18378D01*
X35321Y-18335D01*
X35321Y-18307D01*
X35335Y-18264D01*
X35350Y-18250D01*
X35321Y-18150D02*
X35321Y-17950D01*
X35621Y-18078D01*
G54D23*
X36695Y-17786D02*
X36686Y-17796D01*
X36660Y-17805D01*
X36643Y-17805D01*
X36617Y-17796D01*
X36600Y-17777D01*
X36592Y-17758D01*
X36583Y-17720D01*
X36583Y-17691D01*
X36592Y-17653D01*
X36600Y-17634D01*
X36617Y-17615D01*
X36643Y-17605D01*
X36660Y-17605D01*
X36686Y-17615D01*
X36695Y-17625D01*
X36857Y-17605D02*
X36772Y-17605D01*
X36763Y-17701D01*
X36772Y-17691D01*
X36789Y-17682D01*
X36832Y-17682D01*
X36849Y-17691D01*
X36857Y-17701D01*
X36866Y-17720D01*
X36866Y-17767D01*
X36857Y-17786D01*
X36849Y-17796D01*
X36832Y-17805D01*
X36789Y-17805D01*
X36772Y-17796D01*
X36763Y-17786D01*
X46770Y-11961D02*
X46761Y-11971D01*
X46735Y-11980D01*
X46718Y-11980D01*
X46692Y-11971D01*
X46675Y-11952D01*
X46667Y-11933D01*
X46658Y-11895D01*
X46658Y-11866D01*
X46667Y-11828D01*
X46675Y-11809D01*
X46692Y-11790D01*
X46718Y-11780D01*
X46735Y-11780D01*
X46761Y-11790D01*
X46770Y-11800D01*
X46941Y-11980D02*
X46838Y-11980D01*
X46890Y-11980D02*
X46890Y-11780D01*
X46872Y-11809D01*
X46855Y-11828D01*
X46838Y-11838D01*
X34959Y-25611D02*
X34950Y-25621D01*
X34925Y-25630D01*
X34907Y-25630D01*
X34882Y-25621D01*
X34865Y-25602D01*
X34856Y-25583D01*
X34847Y-25545D01*
X34847Y-25516D01*
X34856Y-25478D01*
X34865Y-25459D01*
X34882Y-25440D01*
X34907Y-25430D01*
X34925Y-25430D01*
X34950Y-25440D01*
X34959Y-25450D01*
X35130Y-25630D02*
X35027Y-25630D01*
X35079Y-25630D02*
X35079Y-25430D01*
X35062Y-25459D01*
X35045Y-25478D01*
X35027Y-25488D01*
X35199Y-25450D02*
X35207Y-25440D01*
X35225Y-25430D01*
X35267Y-25430D01*
X35285Y-25440D01*
X35293Y-25450D01*
X35302Y-25469D01*
X35302Y-25488D01*
X35293Y-25516D01*
X35190Y-25630D01*
X35302Y-25630D01*
X33070Y-25986D02*
X33061Y-25996D01*
X33035Y-26005D01*
X33018Y-26005D01*
X32992Y-25996D01*
X32975Y-25977D01*
X32967Y-25958D01*
X32958Y-25920D01*
X32958Y-25891D01*
X32967Y-25853D01*
X32975Y-25834D01*
X32992Y-25815D01*
X33018Y-25805D01*
X33035Y-25805D01*
X33061Y-25815D01*
X33070Y-25825D01*
X33155Y-26005D02*
X33190Y-26005D01*
X33207Y-25996D01*
X33215Y-25986D01*
X33232Y-25958D01*
X33241Y-25920D01*
X33241Y-25844D01*
X33232Y-25825D01*
X33224Y-25815D01*
X33207Y-25805D01*
X33172Y-25805D01*
X33155Y-25815D01*
X33147Y-25825D01*
X33138Y-25844D01*
X33138Y-25891D01*
X33147Y-25910D01*
X33155Y-25920D01*
X33172Y-25929D01*
X33207Y-25929D01*
X33224Y-25920D01*
X33232Y-25910D01*
X33241Y-25891D01*
X45086Y-17730D02*
X45096Y-17738D01*
X45105Y-17764D01*
X45105Y-17781D01*
X45096Y-17807D01*
X45077Y-17824D01*
X45058Y-17832D01*
X45020Y-17841D01*
X44991Y-17841D01*
X44953Y-17832D01*
X44934Y-17824D01*
X44915Y-17807D01*
X44905Y-17781D01*
X44905Y-17764D01*
X44915Y-17738D01*
X44925Y-17730D01*
X44925Y-17661D02*
X44915Y-17652D01*
X44905Y-17635D01*
X44905Y-17592D01*
X44915Y-17575D01*
X44925Y-17567D01*
X44944Y-17558D01*
X44963Y-17558D01*
X44991Y-17567D01*
X45105Y-17670D01*
X45105Y-17558D01*
X38770Y-21961D02*
X38761Y-21971D01*
X38735Y-21980D01*
X38718Y-21980D01*
X38692Y-21971D01*
X38675Y-21952D01*
X38667Y-21933D01*
X38658Y-21895D01*
X38658Y-21866D01*
X38667Y-21828D01*
X38675Y-21809D01*
X38692Y-21790D01*
X38718Y-21780D01*
X38735Y-21780D01*
X38761Y-21790D01*
X38770Y-21800D01*
X38872Y-21866D02*
X38855Y-21857D01*
X38847Y-21847D01*
X38838Y-21828D01*
X38838Y-21819D01*
X38847Y-21800D01*
X38855Y-21790D01*
X38872Y-21780D01*
X38907Y-21780D01*
X38924Y-21790D01*
X38932Y-21800D01*
X38941Y-21819D01*
X38941Y-21828D01*
X38932Y-21847D01*
X38924Y-21857D01*
X38907Y-21866D01*
X38872Y-21866D01*
X38855Y-21876D01*
X38847Y-21885D01*
X38838Y-21904D01*
X38838Y-21942D01*
X38847Y-21961D01*
X38855Y-21971D01*
X38872Y-21980D01*
X38907Y-21980D01*
X38924Y-21971D01*
X38932Y-21961D01*
X38941Y-21942D01*
X38941Y-21904D01*
X38932Y-21885D01*
X38924Y-21876D01*
X38907Y-21866D01*
X40870Y-21561D02*
X40861Y-21571D01*
X40835Y-21580D01*
X40818Y-21580D01*
X40792Y-21571D01*
X40775Y-21552D01*
X40767Y-21533D01*
X40758Y-21495D01*
X40758Y-21466D01*
X40767Y-21428D01*
X40775Y-21409D01*
X40792Y-21390D01*
X40818Y-21380D01*
X40835Y-21380D01*
X40861Y-21390D01*
X40870Y-21400D01*
X41024Y-21447D02*
X41024Y-21580D01*
X40981Y-21371D02*
X40938Y-21514D01*
X41050Y-21514D01*
X45570Y-21636D02*
X45561Y-21646D01*
X45535Y-21655D01*
X45518Y-21655D01*
X45492Y-21646D01*
X45475Y-21627D01*
X45467Y-21608D01*
X45458Y-21570D01*
X45458Y-21541D01*
X45467Y-21503D01*
X45475Y-21484D01*
X45492Y-21465D01*
X45518Y-21455D01*
X45535Y-21455D01*
X45561Y-21465D01*
X45570Y-21475D01*
X45630Y-21455D02*
X45741Y-21455D01*
X45681Y-21532D01*
X45707Y-21532D01*
X45724Y-21541D01*
X45732Y-21551D01*
X45741Y-21570D01*
X45741Y-21617D01*
X45732Y-21636D01*
X45724Y-21646D01*
X45707Y-21655D01*
X45655Y-21655D01*
X45638Y-21646D01*
X45630Y-21636D01*
X39270Y-17461D02*
X39261Y-17471D01*
X39235Y-17480D01*
X39218Y-17480D01*
X39192Y-17471D01*
X39175Y-17452D01*
X39167Y-17433D01*
X39158Y-17395D01*
X39158Y-17366D01*
X39167Y-17328D01*
X39175Y-17309D01*
X39192Y-17290D01*
X39218Y-17280D01*
X39235Y-17280D01*
X39261Y-17290D01*
X39270Y-17300D01*
X39424Y-17280D02*
X39390Y-17280D01*
X39372Y-17290D01*
X39364Y-17300D01*
X39347Y-17328D01*
X39338Y-17366D01*
X39338Y-17442D01*
X39347Y-17461D01*
X39355Y-17471D01*
X39372Y-17480D01*
X39407Y-17480D01*
X39424Y-17471D01*
X39432Y-17461D01*
X39441Y-17442D01*
X39441Y-17395D01*
X39432Y-17376D01*
X39424Y-17366D01*
X39407Y-17357D01*
X39372Y-17357D01*
X39355Y-17366D01*
X39347Y-17376D01*
X39338Y-17395D01*
X37684Y-21961D02*
X37675Y-21971D01*
X37650Y-21980D01*
X37632Y-21980D01*
X37607Y-21971D01*
X37590Y-21952D01*
X37581Y-21933D01*
X37572Y-21895D01*
X37572Y-21866D01*
X37581Y-21828D01*
X37590Y-21809D01*
X37607Y-21790D01*
X37632Y-21780D01*
X37650Y-21780D01*
X37675Y-21790D01*
X37684Y-21800D01*
X37855Y-21980D02*
X37752Y-21980D01*
X37804Y-21980D02*
X37804Y-21780D01*
X37787Y-21809D01*
X37770Y-21828D01*
X37752Y-21838D01*
X38010Y-21847D02*
X38010Y-21980D01*
X37967Y-21771D02*
X37924Y-21914D01*
X38035Y-21914D01*
G54D17*
X25704Y-17011D02*
X25704Y-16611D01*
X25857Y-16611D01*
X25895Y-16630D01*
X25914Y-16650D01*
X25933Y-16688D01*
X25933Y-16745D01*
X25914Y-16783D01*
X25895Y-16802D01*
X25857Y-16821D01*
X25704Y-16821D01*
X26295Y-16611D02*
X26104Y-16611D01*
X26085Y-16802D01*
X26104Y-16783D01*
X26142Y-16764D01*
X26238Y-16764D01*
X26276Y-16783D01*
X26295Y-16802D01*
X26314Y-16840D01*
X26314Y-16935D01*
X26295Y-16973D01*
X26276Y-16992D01*
X26238Y-17011D01*
X26142Y-17011D01*
X26104Y-16992D01*
X26085Y-16973D01*
G54D16*
X42916Y-26492D02*
X42973Y-26511D01*
X43069Y-26511D01*
X43107Y-26492D01*
X43126Y-26473D01*
X43145Y-26435D01*
X43145Y-26397D01*
X43126Y-26359D01*
X43107Y-26340D01*
X43069Y-26321D01*
X42992Y-26302D01*
X42954Y-26283D01*
X42935Y-26264D01*
X42916Y-26226D01*
X42916Y-26188D01*
X42935Y-26150D01*
X42954Y-26130D01*
X42992Y-26111D01*
X43088Y-26111D01*
X43145Y-26130D01*
X43278Y-26111D02*
X43373Y-26511D01*
X43450Y-26226D01*
X43526Y-26511D01*
X43621Y-26111D01*
X43983Y-26511D02*
X43754Y-26511D01*
X43869Y-26511D02*
X43869Y-26111D01*
X43830Y-26169D01*
X43792Y-26207D01*
X43754Y-26226D01*
X43102Y-25911D02*
X43102Y-25511D01*
X43197Y-25511D01*
X43254Y-25530D01*
X43292Y-25569D01*
X43311Y-25607D01*
X43330Y-25683D01*
X43330Y-25740D01*
X43311Y-25816D01*
X43292Y-25854D01*
X43254Y-25892D01*
X43197Y-25911D01*
X43102Y-25911D01*
X43502Y-25911D02*
X43502Y-25511D01*
X43654Y-25511D01*
X43692Y-25530D01*
X43711Y-25550D01*
X43730Y-25588D01*
X43730Y-25645D01*
X43711Y-25683D01*
X43692Y-25702D01*
X43654Y-25721D01*
X43502Y-25721D01*
X43883Y-25892D02*
X43940Y-25911D01*
X44035Y-25911D01*
X44073Y-25892D01*
X44092Y-25873D01*
X44111Y-25835D01*
X44111Y-25797D01*
X44092Y-25759D01*
X44073Y-25740D01*
X44035Y-25721D01*
X43959Y-25702D01*
X43921Y-25683D01*
X43902Y-25664D01*
X43883Y-25626D01*
X43883Y-25588D01*
X43902Y-25550D01*
X43921Y-25530D01*
X43959Y-25511D01*
X44054Y-25511D01*
X44111Y-25530D01*
X44226Y-25511D02*
X44454Y-25511D01*
X44340Y-25911D02*
X44340Y-25511D01*
G54D15*
X34696Y-20825D02*
X34553Y-20925D01*
X34696Y-20996D02*
X34396Y-20996D01*
X34396Y-20882D01*
X34410Y-20853D01*
X34425Y-20839D01*
X34453Y-20825D01*
X34496Y-20825D01*
X34525Y-20839D01*
X34539Y-20853D01*
X34553Y-20882D01*
X34553Y-20996D01*
X34396Y-20553D02*
X34396Y-20696D01*
X34539Y-20710D01*
X34525Y-20696D01*
X34510Y-20667D01*
X34510Y-20596D01*
X34525Y-20567D01*
X34539Y-20553D01*
X34567Y-20539D01*
X34639Y-20539D01*
X34667Y-20553D01*
X34682Y-20567D01*
X34696Y-20596D01*
X34696Y-20667D01*
X34682Y-20696D01*
X34667Y-20710D01*
X36071Y-24750D02*
X35928Y-24850D01*
X36071Y-24921D02*
X35771Y-24921D01*
X35771Y-24807D01*
X35785Y-24778D01*
X35800Y-24764D01*
X35828Y-24750D01*
X35871Y-24750D01*
X35900Y-24764D01*
X35914Y-24778D01*
X35928Y-24807D01*
X35928Y-24921D01*
X35771Y-24650D02*
X35771Y-24464D01*
X35885Y-24564D01*
X35885Y-24521D01*
X35900Y-24492D01*
X35914Y-24478D01*
X35942Y-24464D01*
X36014Y-24464D01*
X36042Y-24478D01*
X36057Y-24492D01*
X36071Y-24521D01*
X36071Y-24607D01*
X36057Y-24635D01*
X36042Y-24650D01*
X33775Y-18471D02*
X33675Y-18328D01*
X33603Y-18471D02*
X33603Y-18171D01*
X33717Y-18171D01*
X33746Y-18185D01*
X33760Y-18200D01*
X33775Y-18228D01*
X33775Y-18271D01*
X33760Y-18300D01*
X33746Y-18314D01*
X33717Y-18328D01*
X33603Y-18328D01*
X33917Y-18471D02*
X33975Y-18471D01*
X34003Y-18457D01*
X34017Y-18442D01*
X34046Y-18400D01*
X34060Y-18342D01*
X34060Y-18228D01*
X34046Y-18200D01*
X34032Y-18185D01*
X34003Y-18171D01*
X33946Y-18171D01*
X33917Y-18185D01*
X33903Y-18200D01*
X33889Y-18228D01*
X33889Y-18300D01*
X33903Y-18328D01*
X33917Y-18342D01*
X33946Y-18357D01*
X34003Y-18357D01*
X34032Y-18342D01*
X34046Y-18328D01*
X34060Y-18300D01*
X31200Y-26071D02*
X31100Y-25928D01*
X31028Y-26071D02*
X31028Y-25771D01*
X31142Y-25771D01*
X31171Y-25785D01*
X31185Y-25800D01*
X31200Y-25828D01*
X31200Y-25871D01*
X31185Y-25900D01*
X31171Y-25914D01*
X31142Y-25928D01*
X31028Y-25928D01*
X31457Y-25871D02*
X31457Y-26071D01*
X31385Y-25757D02*
X31314Y-25971D01*
X31500Y-25971D01*
X34050Y-27396D02*
X33950Y-27253D01*
X33878Y-27396D02*
X33878Y-27096D01*
X33992Y-27096D01*
X34021Y-27110D01*
X34035Y-27125D01*
X34050Y-27153D01*
X34050Y-27196D01*
X34035Y-27225D01*
X34021Y-27239D01*
X33992Y-27253D01*
X33878Y-27253D01*
X34307Y-27096D02*
X34250Y-27096D01*
X34221Y-27110D01*
X34207Y-27125D01*
X34178Y-27167D01*
X34164Y-27225D01*
X34164Y-27339D01*
X34178Y-27367D01*
X34192Y-27382D01*
X34221Y-27396D01*
X34278Y-27396D01*
X34307Y-27382D01*
X34321Y-27367D01*
X34335Y-27339D01*
X34335Y-27267D01*
X34321Y-27239D01*
X34307Y-27225D01*
X34278Y-27210D01*
X34221Y-27210D01*
X34192Y-27225D01*
X34178Y-27239D01*
X34164Y-27267D01*
X36025Y-27421D02*
X35925Y-27278D01*
X35853Y-27421D02*
X35853Y-27121D01*
X35967Y-27121D01*
X35996Y-27135D01*
X36010Y-27150D01*
X36025Y-27178D01*
X36025Y-27221D01*
X36010Y-27250D01*
X35996Y-27264D01*
X35967Y-27278D01*
X35853Y-27278D01*
X36125Y-27121D02*
X36325Y-27121D01*
X36196Y-27421D01*
X32971Y-22150D02*
X32828Y-22250D01*
X32971Y-22321D02*
X32671Y-22321D01*
X32671Y-22207D01*
X32685Y-22178D01*
X32700Y-22164D01*
X32728Y-22150D01*
X32771Y-22150D01*
X32800Y-22164D01*
X32814Y-22178D01*
X32828Y-22207D01*
X32828Y-22321D01*
X32800Y-21978D02*
X32785Y-22007D01*
X32771Y-22021D01*
X32742Y-22035D01*
X32728Y-22035D01*
X32700Y-22021D01*
X32685Y-22007D01*
X32671Y-21978D01*
X32671Y-21921D01*
X32685Y-21892D01*
X32700Y-21878D01*
X32728Y-21864D01*
X32742Y-21864D01*
X32771Y-21878D01*
X32785Y-21892D01*
X32800Y-21921D01*
X32800Y-21978D01*
X32814Y-22007D01*
X32828Y-22021D01*
X32857Y-22035D01*
X32914Y-22035D01*
X32942Y-22021D01*
X32957Y-22007D01*
X32971Y-21978D01*
X32971Y-21921D01*
X32957Y-21892D01*
X32942Y-21878D01*
X32914Y-21864D01*
X32857Y-21864D01*
X32828Y-21878D01*
X32814Y-21892D01*
X32800Y-21921D01*
X36046Y-22650D02*
X35903Y-22750D01*
X36046Y-22821D02*
X35746Y-22821D01*
X35746Y-22707D01*
X35760Y-22678D01*
X35775Y-22664D01*
X35803Y-22650D01*
X35846Y-22650D01*
X35875Y-22664D01*
X35889Y-22678D01*
X35903Y-22707D01*
X35903Y-22821D01*
X35775Y-22535D02*
X35760Y-22521D01*
X35746Y-22492D01*
X35746Y-22421D01*
X35760Y-22392D01*
X35775Y-22378D01*
X35803Y-22364D01*
X35832Y-22364D01*
X35875Y-22378D01*
X36046Y-22550D01*
X36046Y-22364D01*
X48325Y-21421D02*
X48225Y-21278D01*
X48153Y-21421D02*
X48153Y-21121D01*
X48267Y-21121D01*
X48296Y-21135D01*
X48310Y-21150D01*
X48325Y-21178D01*
X48325Y-21221D01*
X48310Y-21250D01*
X48296Y-21264D01*
X48267Y-21278D01*
X48153Y-21278D01*
X48610Y-21421D02*
X48439Y-21421D01*
X48525Y-21421D02*
X48525Y-21121D01*
X48496Y-21164D01*
X48467Y-21192D01*
X48439Y-21207D01*
G54D16*
X46611Y-19895D02*
X46211Y-19895D01*
X46211Y-19742D01*
X46230Y-19704D01*
X46250Y-19685D01*
X46288Y-19666D01*
X46345Y-19666D01*
X46383Y-19685D01*
X46402Y-19704D01*
X46421Y-19742D01*
X46421Y-19895D01*
X46211Y-19323D02*
X46211Y-19399D01*
X46230Y-19438D01*
X46250Y-19457D01*
X46307Y-19495D01*
X46383Y-19514D01*
X46535Y-19514D01*
X46573Y-19495D01*
X46592Y-19476D01*
X46611Y-19438D01*
X46611Y-19361D01*
X46592Y-19323D01*
X46573Y-19304D01*
X46535Y-19285D01*
X46440Y-19285D01*
X46402Y-19304D01*
X46383Y-19323D01*
X46364Y-19361D01*
X46364Y-19438D01*
X46383Y-19476D01*
X46402Y-19495D01*
X46440Y-19514D01*
X46448Y-18647D02*
X46467Y-18666D01*
X46486Y-18723D01*
X46486Y-18761D01*
X46467Y-18819D01*
X46429Y-18857D01*
X46391Y-18876D01*
X46315Y-18895D01*
X46258Y-18895D01*
X46182Y-18876D01*
X46144Y-18857D01*
X46105Y-18819D01*
X46086Y-18761D01*
X46086Y-18723D01*
X46105Y-18666D01*
X46125Y-18647D01*
X46086Y-18399D02*
X46086Y-18323D01*
X46105Y-18285D01*
X46144Y-18247D01*
X46220Y-18228D01*
X46353Y-18228D01*
X46429Y-18247D01*
X46467Y-18285D01*
X46486Y-18323D01*
X46486Y-18399D01*
X46467Y-18438D01*
X46429Y-18476D01*
X46353Y-18495D01*
X46220Y-18495D01*
X46144Y-18476D01*
X46105Y-18438D01*
X46086Y-18399D01*
X46486Y-18057D02*
X46086Y-18057D01*
X46486Y-17828D01*
X46086Y-17828D01*
X46486Y-17638D02*
X46086Y-17638D01*
X46486Y-17409D01*
X46086Y-17409D01*
X46525Y-17314D02*
X46525Y-17009D01*
X46086Y-16742D02*
X46086Y-16819D01*
X46105Y-16857D01*
X46125Y-16876D01*
X46182Y-16914D01*
X46258Y-16933D01*
X46410Y-16933D01*
X46448Y-16914D01*
X46467Y-16895D01*
X46486Y-16857D01*
X46486Y-16780D01*
X46467Y-16742D01*
X46448Y-16723D01*
X46410Y-16704D01*
X46315Y-16704D01*
X46277Y-16723D01*
X46258Y-16742D01*
X46239Y-16780D01*
X46239Y-16857D01*
X46258Y-16895D01*
X46277Y-16914D01*
X46315Y-16933D01*
X47411Y-13795D02*
X47011Y-13795D01*
X47011Y-13642D01*
X47030Y-13604D01*
X47050Y-13585D01*
X47088Y-13566D01*
X47145Y-13566D01*
X47183Y-13585D01*
X47202Y-13604D01*
X47221Y-13642D01*
X47221Y-13795D01*
X47011Y-13433D02*
X47011Y-13185D01*
X47164Y-13319D01*
X47164Y-13261D01*
X47183Y-13223D01*
X47202Y-13204D01*
X47240Y-13185D01*
X47335Y-13185D01*
X47373Y-13204D01*
X47392Y-13223D01*
X47411Y-13261D01*
X47411Y-13376D01*
X47392Y-13414D01*
X47373Y-13433D01*
G54D24*
X45335Y-13842D02*
X45335Y-13242D01*
X45807Y-13785D02*
X45785Y-13814D01*
X45721Y-13842D01*
X45678Y-13842D01*
X45614Y-13814D01*
X45571Y-13757D01*
X45550Y-13700D01*
X45528Y-13585D01*
X45528Y-13500D01*
X45550Y-13385D01*
X45571Y-13328D01*
X45614Y-13271D01*
X45678Y-13242D01*
X45721Y-13242D01*
X45785Y-13271D01*
X45807Y-13300D01*
X45957Y-13242D02*
X46257Y-13242D01*
X46064Y-13842D01*
G54D25*
G54D24*
X31932Y-13571D02*
X32146Y-13571D01*
X31889Y-13742D02*
X32039Y-13142D01*
X32189Y-13742D01*
X32275Y-13142D02*
X32532Y-13142D01*
X32403Y-13742D02*
X32403Y-13142D01*
X32682Y-13742D02*
X32682Y-13142D01*
X32832Y-13571D01*
X32982Y-13142D01*
X32982Y-13742D01*
X33196Y-13428D02*
X33346Y-13428D01*
X33410Y-13742D02*
X33196Y-13742D01*
X33196Y-13142D01*
X33410Y-13142D01*
X33839Y-13171D02*
X33796Y-13142D01*
X33732Y-13142D01*
X33667Y-13171D01*
X33625Y-13228D01*
X33603Y-13285D01*
X33582Y-13400D01*
X33582Y-13485D01*
X33603Y-13600D01*
X33625Y-13657D01*
X33667Y-13714D01*
X33732Y-13742D01*
X33775Y-13742D01*
X33839Y-13714D01*
X33860Y-13685D01*
X33860Y-13485D01*
X33775Y-13485D01*
X34010Y-13142D02*
X34289Y-13142D01*
X34139Y-13371D01*
X34203Y-13371D01*
X34246Y-13400D01*
X34267Y-13428D01*
X34289Y-13485D01*
X34289Y-13628D01*
X34267Y-13685D01*
X34246Y-13714D01*
X34203Y-13742D01*
X34075Y-13742D01*
X34032Y-13714D01*
X34010Y-13685D01*
X34460Y-13200D02*
X34482Y-13171D01*
X34525Y-13142D01*
X34632Y-13142D01*
X34675Y-13171D01*
X34696Y-13200D01*
X34717Y-13257D01*
X34717Y-13314D01*
X34696Y-13400D01*
X34439Y-13742D01*
X34717Y-13742D01*
X34975Y-13400D02*
X34932Y-13371D01*
X34910Y-13342D01*
X34889Y-13285D01*
X34889Y-13257D01*
X34910Y-13200D01*
X34932Y-13171D01*
X34975Y-13142D01*
X35060Y-13142D01*
X35103Y-13171D01*
X35125Y-13200D01*
X35146Y-13257D01*
X35146Y-13285D01*
X35125Y-13342D01*
X35103Y-13371D01*
X35060Y-13400D01*
X34975Y-13400D01*
X34932Y-13428D01*
X34910Y-13457D01*
X34889Y-13514D01*
X34889Y-13628D01*
X34910Y-13685D01*
X34932Y-13714D01*
X34975Y-13742D01*
X35060Y-13742D01*
X35103Y-13714D01*
X35125Y-13685D01*
X35146Y-13628D01*
X35146Y-13514D01*
X35125Y-13457D01*
X35103Y-13428D01*
X35060Y-13400D01*
X35339Y-13742D02*
X35339Y-13142D01*
X35510Y-13142D01*
X35553Y-13171D01*
X35574Y-13200D01*
X35596Y-13257D01*
X35596Y-13342D01*
X35574Y-13400D01*
X35553Y-13428D01*
X35510Y-13457D01*
X35339Y-13457D01*
X35789Y-13142D02*
X35789Y-13628D01*
X35810Y-13685D01*
X35832Y-13714D01*
X35874Y-13742D01*
X35960Y-13742D01*
X36003Y-13714D01*
X36024Y-13685D01*
X36046Y-13628D01*
X36046Y-13142D01*
G54D25*
G54D26*
X36755Y-18696D02*
X36755Y-18396D01*
X37017Y-18667D02*
X37005Y-18682D01*
X36970Y-18696D01*
X36946Y-18696D01*
X36910Y-18682D01*
X36886Y-18653D01*
X36875Y-18625D01*
X36863Y-18567D01*
X36863Y-18525D01*
X36875Y-18467D01*
X36886Y-18439D01*
X36910Y-18410D01*
X36946Y-18396D01*
X36970Y-18396D01*
X37005Y-18410D01*
X37017Y-18425D01*
X37136Y-18696D02*
X37184Y-18696D01*
X37208Y-18682D01*
X37220Y-18667D01*
X37244Y-18625D01*
X37255Y-18567D01*
X37255Y-18453D01*
X37244Y-18425D01*
X37232Y-18410D01*
X37208Y-18396D01*
X37160Y-18396D01*
X37136Y-18410D01*
X37125Y-18425D01*
X37113Y-18453D01*
X37113Y-18525D01*
X37125Y-18553D01*
X37136Y-18567D01*
X37160Y-18582D01*
X37208Y-18582D01*
X37232Y-18567D01*
X37244Y-18553D01*
X37255Y-18525D01*
G54D27*
X36307Y-19735D02*
X36450Y-19735D01*
X36278Y-19821D02*
X36378Y-19521D01*
X36478Y-19821D01*
X36578Y-19821D02*
X36578Y-19521D01*
X36650Y-19521D01*
X36692Y-19535D01*
X36721Y-19564D01*
X36735Y-19592D01*
X36750Y-19650D01*
X36750Y-19692D01*
X36735Y-19750D01*
X36721Y-19778D01*
X36692Y-19807D01*
X36650Y-19821D01*
X36578Y-19821D01*
X37021Y-19521D02*
X36878Y-19521D01*
X36864Y-19664D01*
X36878Y-19650D01*
X36907Y-19635D01*
X36978Y-19635D01*
X37007Y-19650D01*
X37021Y-19664D01*
X37035Y-19692D01*
X37035Y-19764D01*
X37021Y-19792D01*
X37007Y-19807D01*
X36978Y-19821D01*
X36907Y-19821D01*
X36878Y-19807D01*
X36864Y-19792D01*
X37150Y-19550D02*
X37164Y-19535D01*
X37192Y-19521D01*
X37264Y-19521D01*
X37292Y-19535D01*
X37307Y-19550D01*
X37321Y-19578D01*
X37321Y-19607D01*
X37307Y-19650D01*
X37135Y-19821D01*
X37321Y-19821D01*
X37507Y-19521D02*
X37535Y-19521D01*
X37564Y-19535D01*
X37578Y-19550D01*
X37592Y-19578D01*
X37607Y-19635D01*
X37607Y-19707D01*
X37592Y-19764D01*
X37578Y-19792D01*
X37564Y-19807D01*
X37535Y-19821D01*
X37507Y-19821D01*
X37478Y-19807D01*
X37464Y-19792D01*
X37450Y-19764D01*
X37435Y-19707D01*
X37435Y-19635D01*
X37450Y-19578D01*
X37464Y-19550D01*
X37478Y-19535D01*
X37507Y-19521D01*
X37707Y-19521D02*
X37907Y-19521D01*
X37778Y-19821D01*
G54D10*
X43790Y-17059D02*
X43790Y-16665D01*
X44203Y-17021D02*
X44184Y-17040D01*
X44128Y-17059D01*
X44090Y-17059D01*
X44034Y-17040D01*
X43996Y-17003D01*
X43978Y-16965D01*
X43959Y-16890D01*
X43959Y-16834D01*
X43978Y-16759D01*
X43996Y-16721D01*
X44034Y-16684D01*
X44090Y-16665D01*
X44128Y-16665D01*
X44184Y-16684D01*
X44203Y-16703D01*
X44428Y-16834D02*
X44390Y-16815D01*
X44372Y-16796D01*
X44353Y-16759D01*
X44353Y-16740D01*
X44372Y-16703D01*
X44390Y-16684D01*
X44428Y-16665D01*
X44503Y-16665D01*
X44540Y-16684D01*
X44559Y-16703D01*
X44578Y-16740D01*
X44578Y-16759D01*
X44559Y-16796D01*
X44540Y-16815D01*
X44503Y-16834D01*
X44428Y-16834D01*
X44390Y-16853D01*
X44372Y-16871D01*
X44353Y-16909D01*
X44353Y-16984D01*
X44372Y-17021D01*
X44390Y-17040D01*
X44428Y-17059D01*
X44503Y-17059D01*
X44540Y-17040D01*
X44559Y-17021D01*
X44578Y-16984D01*
X44578Y-16909D01*
X44559Y-16871D01*
X44540Y-16853D01*
X44503Y-16834D01*
G54D23*
X30559Y-17836D02*
X30550Y-17846D01*
X30525Y-17855D01*
X30507Y-17855D01*
X30482Y-17846D01*
X30465Y-17827D01*
X30456Y-17808D01*
X30447Y-17770D01*
X30447Y-17741D01*
X30456Y-17703D01*
X30465Y-17684D01*
X30482Y-17665D01*
X30507Y-17655D01*
X30525Y-17655D01*
X30550Y-17665D01*
X30559Y-17675D01*
X30730Y-17855D02*
X30627Y-17855D01*
X30679Y-17855D02*
X30679Y-17655D01*
X30662Y-17684D01*
X30645Y-17703D01*
X30627Y-17713D01*
X30893Y-17655D02*
X30807Y-17655D01*
X30799Y-17751D01*
X30807Y-17741D01*
X30825Y-17732D01*
X30867Y-17732D01*
X30885Y-17741D01*
X30893Y-17751D01*
X30902Y-17770D01*
X30902Y-17817D01*
X30893Y-17836D01*
X30885Y-17846D01*
X30867Y-17855D01*
X30825Y-17855D01*
X30807Y-17846D01*
X30799Y-17836D01*
X31459Y-21861D02*
X31450Y-21871D01*
X31425Y-21880D01*
X31407Y-21880D01*
X31382Y-21871D01*
X31365Y-21852D01*
X31356Y-21833D01*
X31347Y-21795D01*
X31347Y-21766D01*
X31356Y-21728D01*
X31365Y-21709D01*
X31382Y-21690D01*
X31407Y-21680D01*
X31425Y-21680D01*
X31450Y-21690D01*
X31459Y-21700D01*
X31630Y-21880D02*
X31527Y-21880D01*
X31579Y-21880D02*
X31579Y-21680D01*
X31562Y-21709D01*
X31545Y-21728D01*
X31527Y-21738D01*
X31785Y-21680D02*
X31750Y-21680D01*
X31733Y-21690D01*
X31725Y-21700D01*
X31707Y-21728D01*
X31699Y-21766D01*
X31699Y-21842D01*
X31707Y-21861D01*
X31716Y-21871D01*
X31733Y-21880D01*
X31767Y-21880D01*
X31785Y-21871D01*
X31793Y-21861D01*
X31802Y-21842D01*
X31802Y-21795D01*
X31793Y-21776D01*
X31785Y-21766D01*
X31767Y-21757D01*
X31733Y-21757D01*
X31716Y-21766D01*
X31707Y-21776D01*
X31699Y-21795D01*
G54D15*
X31042Y-25092D02*
X31057Y-25107D01*
X31071Y-25150D01*
X31071Y-25178D01*
X31057Y-25221D01*
X31028Y-25250D01*
X31000Y-25264D01*
X30942Y-25278D01*
X30900Y-25278D01*
X30842Y-25264D01*
X30814Y-25250D01*
X30785Y-25221D01*
X30771Y-25178D01*
X30771Y-25150D01*
X30785Y-25107D01*
X30800Y-25092D01*
X31071Y-24807D02*
X31071Y-24978D01*
X31071Y-24892D02*
X30771Y-24892D01*
X30814Y-24921D01*
X30842Y-24950D01*
X30857Y-24978D01*
X30771Y-24621D02*
X30771Y-24592D01*
X30785Y-24564D01*
X30800Y-24550D01*
X30828Y-24535D01*
X30885Y-24521D01*
X30957Y-24521D01*
X31014Y-24535D01*
X31042Y-24550D01*
X31057Y-24564D01*
X31071Y-24592D01*
X31071Y-24621D01*
X31057Y-24650D01*
X31042Y-24664D01*
X31014Y-24678D01*
X30957Y-24692D01*
X30885Y-24692D01*
X30828Y-24678D01*
X30800Y-24664D01*
X30785Y-24650D01*
X30771Y-24621D01*
G54D28*
X47079Y-11107D02*
X46985Y-11173D01*
X47079Y-11220D02*
X46882Y-11220D01*
X46882Y-11145D01*
X46892Y-11126D01*
X46901Y-11117D01*
X46920Y-11107D01*
X46948Y-11107D01*
X46967Y-11117D01*
X46976Y-11126D01*
X46985Y-11145D01*
X46985Y-11220D01*
X47070Y-11032D02*
X47079Y-11004D01*
X47079Y-10957D01*
X47070Y-10939D01*
X47060Y-10929D01*
X47042Y-10920D01*
X47023Y-10920D01*
X47004Y-10929D01*
X46995Y-10939D01*
X46985Y-10957D01*
X46976Y-10995D01*
X46967Y-11014D01*
X46957Y-11023D01*
X46939Y-11032D01*
X46920Y-11032D01*
X46901Y-11023D01*
X46892Y-11014D01*
X46882Y-10995D01*
X46882Y-10948D01*
X46892Y-10920D01*
X46882Y-10863D02*
X46882Y-10751D01*
X47079Y-10807D02*
X46882Y-10807D01*
X44882Y-11037D02*
X44882Y-11131D01*
X44976Y-11140D01*
X44967Y-11131D01*
X44957Y-11112D01*
X44957Y-11065D01*
X44967Y-11046D01*
X44976Y-11037D01*
X44995Y-11028D01*
X45042Y-11028D01*
X45060Y-11037D01*
X45070Y-11046D01*
X45079Y-11065D01*
X45079Y-11112D01*
X45070Y-11131D01*
X45060Y-11140D01*
X44882Y-10971D02*
X45079Y-10906D01*
X44882Y-10840D01*
X45892Y-10948D02*
X45882Y-10967D01*
X45882Y-10995D01*
X45892Y-11023D01*
X45910Y-11042D01*
X45929Y-11051D01*
X45967Y-11060D01*
X45995Y-11060D01*
X46032Y-11051D01*
X46051Y-11042D01*
X46070Y-11023D01*
X46079Y-10995D01*
X46079Y-10976D01*
X46070Y-10948D01*
X46060Y-10939D01*
X45995Y-10939D01*
X45995Y-10976D01*
X44079Y-11032D02*
X43985Y-11098D01*
X44079Y-11145D02*
X43882Y-11145D01*
X43882Y-11070D01*
X43892Y-11051D01*
X43901Y-11042D01*
X43920Y-11032D01*
X43948Y-11032D01*
X43967Y-11042D01*
X43976Y-11051D01*
X43985Y-11070D01*
X43985Y-11145D01*
X43882Y-10967D02*
X44079Y-10835D01*
X43882Y-10835D02*
X44079Y-10967D01*
X41079Y-11145D02*
X40882Y-11145D01*
X40882Y-11098D01*
X40892Y-11070D01*
X40910Y-11051D01*
X40929Y-11042D01*
X40967Y-11032D01*
X40995Y-11032D01*
X41032Y-11042D01*
X41051Y-11051D01*
X41070Y-11070D01*
X41079Y-11098D01*
X41079Y-11145D01*
X40882Y-10967D02*
X40882Y-10845D01*
X40957Y-10910D01*
X40957Y-10882D01*
X40967Y-10863D01*
X40976Y-10854D01*
X40995Y-10845D01*
X41042Y-10845D01*
X41060Y-10854D01*
X41070Y-10863D01*
X41079Y-10882D01*
X41079Y-10939D01*
X41070Y-10957D01*
X41060Y-10967D01*
X42882Y-11150D02*
X42882Y-11037D01*
X43079Y-11093D02*
X42882Y-11093D01*
X42882Y-10990D02*
X43079Y-10859D01*
X42882Y-10859D02*
X43079Y-10990D01*
X42079Y-11145D02*
X41882Y-11145D01*
X41882Y-11098D01*
X41892Y-11070D01*
X41910Y-11051D01*
X41929Y-11042D01*
X41967Y-11032D01*
X41995Y-11032D01*
X42032Y-11042D01*
X42051Y-11051D01*
X42070Y-11070D01*
X42079Y-11098D01*
X42079Y-11145D01*
X41901Y-10957D02*
X41892Y-10948D01*
X41882Y-10929D01*
X41882Y-10882D01*
X41892Y-10863D01*
X41901Y-10854D01*
X41920Y-10845D01*
X41939Y-10845D01*
X41967Y-10854D01*
X42079Y-10967D01*
X42079Y-10845D01*
X40079Y-11145D02*
X39882Y-11145D01*
X39882Y-11098D01*
X39892Y-11070D01*
X39910Y-11051D01*
X39929Y-11042D01*
X39967Y-11032D01*
X39995Y-11032D01*
X40032Y-11042D01*
X40051Y-11051D01*
X40070Y-11070D01*
X40079Y-11098D01*
X40079Y-11145D01*
X39948Y-10863D02*
X40079Y-10863D01*
X39873Y-10910D02*
X40014Y-10957D01*
X40014Y-10835D01*
X38882Y-11037D02*
X38882Y-11131D01*
X38976Y-11140D01*
X38967Y-11131D01*
X38957Y-11112D01*
X38957Y-11065D01*
X38967Y-11046D01*
X38976Y-11037D01*
X38995Y-11028D01*
X39042Y-11028D01*
X39060Y-11037D01*
X39070Y-11046D01*
X39079Y-11065D01*
X39079Y-11112D01*
X39070Y-11131D01*
X39060Y-11140D01*
X38882Y-10971D02*
X39079Y-10906D01*
X38882Y-10840D01*
X34079Y-11145D02*
X33882Y-11145D01*
X33882Y-11098D01*
X33892Y-11070D01*
X33910Y-11051D01*
X33929Y-11042D01*
X33967Y-11032D01*
X33995Y-11032D01*
X34032Y-11042D01*
X34051Y-11051D01*
X34070Y-11070D01*
X34079Y-11098D01*
X34079Y-11145D01*
X33882Y-10863D02*
X33882Y-10901D01*
X33892Y-10920D01*
X33901Y-10929D01*
X33929Y-10948D01*
X33967Y-10957D01*
X34042Y-10957D01*
X34060Y-10948D01*
X34070Y-10939D01*
X34079Y-10920D01*
X34079Y-10882D01*
X34070Y-10863D01*
X34060Y-10854D01*
X34042Y-10845D01*
X33995Y-10845D01*
X33976Y-10854D01*
X33967Y-10863D01*
X33957Y-10882D01*
X33957Y-10920D01*
X33967Y-10939D01*
X33976Y-10948D01*
X33995Y-10957D01*
X33079Y-11145D02*
X32882Y-11145D01*
X32882Y-11098D01*
X32892Y-11070D01*
X32910Y-11051D01*
X32929Y-11042D01*
X32967Y-11032D01*
X32995Y-11032D01*
X33032Y-11042D01*
X33051Y-11051D01*
X33070Y-11070D01*
X33079Y-11098D01*
X33079Y-11145D01*
X32882Y-10967D02*
X32882Y-10835D01*
X33079Y-10920D01*
X35079Y-11145D02*
X34882Y-11145D01*
X34882Y-11098D01*
X34892Y-11070D01*
X34910Y-11051D01*
X34929Y-11042D01*
X34967Y-11032D01*
X34995Y-11032D01*
X35032Y-11042D01*
X35051Y-11051D01*
X35070Y-11070D01*
X35079Y-11098D01*
X35079Y-11145D01*
X34882Y-10854D02*
X34882Y-10948D01*
X34976Y-10957D01*
X34967Y-10948D01*
X34957Y-10929D01*
X34957Y-10882D01*
X34967Y-10863D01*
X34976Y-10854D01*
X34995Y-10845D01*
X35042Y-10845D01*
X35060Y-10854D01*
X35070Y-10863D01*
X35079Y-10882D01*
X35079Y-10929D01*
X35070Y-10948D01*
X35060Y-10957D01*
X32079Y-11145D02*
X31882Y-11145D01*
X31882Y-11098D01*
X31892Y-11070D01*
X31910Y-11051D01*
X31929Y-11042D01*
X31967Y-11032D01*
X31995Y-11032D01*
X32032Y-11042D01*
X32051Y-11051D01*
X32070Y-11070D01*
X32079Y-11098D01*
X32079Y-11145D01*
X31967Y-10920D02*
X31957Y-10939D01*
X31948Y-10948D01*
X31929Y-10957D01*
X31920Y-10957D01*
X31901Y-10948D01*
X31892Y-10939D01*
X31882Y-10920D01*
X31882Y-10882D01*
X31892Y-10863D01*
X31901Y-10854D01*
X31920Y-10845D01*
X31929Y-10845D01*
X31948Y-10854D01*
X31957Y-10863D01*
X31967Y-10882D01*
X31967Y-10920D01*
X31976Y-10939D01*
X31985Y-10948D01*
X32004Y-10957D01*
X32042Y-10957D01*
X32060Y-10948D01*
X32070Y-10939D01*
X32079Y-10920D01*
X32079Y-10882D01*
X32070Y-10863D01*
X32060Y-10854D01*
X32042Y-10845D01*
X32004Y-10845D01*
X31985Y-10854D01*
X31976Y-10863D01*
X31967Y-10882D01*
X32079Y-16145D02*
X31882Y-16145D01*
X31882Y-16098D01*
X31892Y-16070D01*
X31910Y-16051D01*
X31929Y-16042D01*
X31967Y-16032D01*
X31995Y-16032D01*
X32032Y-16042D01*
X32051Y-16051D01*
X32070Y-16070D01*
X32079Y-16098D01*
X32079Y-16145D01*
X32079Y-15939D02*
X32079Y-15901D01*
X32070Y-15882D01*
X32060Y-15873D01*
X32032Y-15854D01*
X31995Y-15845D01*
X31920Y-15845D01*
X31901Y-15854D01*
X31892Y-15863D01*
X31882Y-15882D01*
X31882Y-15920D01*
X31892Y-15939D01*
X31901Y-15948D01*
X31920Y-15957D01*
X31967Y-15957D01*
X31985Y-15948D01*
X31995Y-15939D01*
X32004Y-15920D01*
X32004Y-15882D01*
X31995Y-15863D01*
X31985Y-15854D01*
X31967Y-15845D01*
X36079Y-16239D02*
X35882Y-16239D01*
X35882Y-16192D01*
X35892Y-16164D01*
X35910Y-16145D01*
X35929Y-16136D01*
X35967Y-16126D01*
X35995Y-16126D01*
X36032Y-16136D01*
X36051Y-16145D01*
X36070Y-16164D01*
X36079Y-16192D01*
X36079Y-16239D01*
X36079Y-15939D02*
X36079Y-16051D01*
X36079Y-15995D02*
X35882Y-15995D01*
X35910Y-16014D01*
X35929Y-16032D01*
X35939Y-16051D01*
X35882Y-15873D02*
X35882Y-15751D01*
X35957Y-15817D01*
X35957Y-15788D01*
X35967Y-15770D01*
X35976Y-15760D01*
X35995Y-15751D01*
X36042Y-15751D01*
X36060Y-15760D01*
X36070Y-15770D01*
X36079Y-15788D01*
X36079Y-15845D01*
X36070Y-15863D01*
X36060Y-15873D01*
X35079Y-16239D02*
X34882Y-16239D01*
X34882Y-16192D01*
X34892Y-16164D01*
X34910Y-16145D01*
X34929Y-16136D01*
X34967Y-16126D01*
X34995Y-16126D01*
X35032Y-16136D01*
X35051Y-16145D01*
X35070Y-16164D01*
X35079Y-16192D01*
X35079Y-16239D01*
X35079Y-15939D02*
X35079Y-16051D01*
X35079Y-15995D02*
X34882Y-15995D01*
X34910Y-16014D01*
X34929Y-16032D01*
X34939Y-16051D01*
X34901Y-15863D02*
X34892Y-15854D01*
X34882Y-15835D01*
X34882Y-15788D01*
X34892Y-15770D01*
X34901Y-15760D01*
X34920Y-15751D01*
X34939Y-15751D01*
X34967Y-15760D01*
X35079Y-15873D01*
X35079Y-15751D01*
X33079Y-16239D02*
X32882Y-16239D01*
X32882Y-16192D01*
X32892Y-16164D01*
X32910Y-16145D01*
X32929Y-16136D01*
X32967Y-16126D01*
X32995Y-16126D01*
X33032Y-16136D01*
X33051Y-16145D01*
X33070Y-16164D01*
X33079Y-16192D01*
X33079Y-16239D01*
X33079Y-15939D02*
X33079Y-16051D01*
X33079Y-15995D02*
X32882Y-15995D01*
X32910Y-16014D01*
X32929Y-16032D01*
X32939Y-16051D01*
X32882Y-15817D02*
X32882Y-15798D01*
X32892Y-15779D01*
X32901Y-15770D01*
X32920Y-15760D01*
X32957Y-15751D01*
X33004Y-15751D01*
X33042Y-15760D01*
X33060Y-15770D01*
X33070Y-15779D01*
X33079Y-15798D01*
X33079Y-15817D01*
X33070Y-15835D01*
X33060Y-15845D01*
X33042Y-15854D01*
X33004Y-15863D01*
X32957Y-15863D01*
X32920Y-15854D01*
X32901Y-15845D01*
X32892Y-15835D01*
X32882Y-15817D01*
X34079Y-16239D02*
X33882Y-16239D01*
X33882Y-16192D01*
X33892Y-16164D01*
X33910Y-16145D01*
X33929Y-16136D01*
X33967Y-16126D01*
X33995Y-16126D01*
X34032Y-16136D01*
X34051Y-16145D01*
X34070Y-16164D01*
X34079Y-16192D01*
X34079Y-16239D01*
X34079Y-15939D02*
X34079Y-16051D01*
X34079Y-15995D02*
X33882Y-15995D01*
X33910Y-16014D01*
X33929Y-16032D01*
X33939Y-16051D01*
X34079Y-15751D02*
X34079Y-15863D01*
X34079Y-15807D02*
X33882Y-15807D01*
X33910Y-15826D01*
X33929Y-15845D01*
X33939Y-15863D01*
X38023Y-16145D02*
X38023Y-16051D01*
X38079Y-16164D02*
X37882Y-16098D01*
X38079Y-16032D01*
X38079Y-15854D02*
X37985Y-15920D01*
X38079Y-15967D02*
X37882Y-15967D01*
X37882Y-15892D01*
X37892Y-15873D01*
X37901Y-15863D01*
X37920Y-15854D01*
X37948Y-15854D01*
X37967Y-15863D01*
X37976Y-15873D01*
X37985Y-15892D01*
X37985Y-15967D01*
X36892Y-15948D02*
X36882Y-15967D01*
X36882Y-15995D01*
X36892Y-16023D01*
X36910Y-16042D01*
X36929Y-16051D01*
X36967Y-16060D01*
X36995Y-16060D01*
X37032Y-16051D01*
X37051Y-16042D01*
X37070Y-16023D01*
X37079Y-15995D01*
X37079Y-15976D01*
X37070Y-15948D01*
X37060Y-15939D01*
X36995Y-15939D01*
X36995Y-15976D01*
X38892Y-15948D02*
X38882Y-15967D01*
X38882Y-15995D01*
X38892Y-16023D01*
X38910Y-16042D01*
X38929Y-16051D01*
X38967Y-16060D01*
X38995Y-16060D01*
X39032Y-16051D01*
X39051Y-16042D01*
X39070Y-16023D01*
X39079Y-15995D01*
X39079Y-15976D01*
X39070Y-15948D01*
X39060Y-15939D01*
X38995Y-15939D01*
X38995Y-15976D01*
X43023Y-16140D02*
X43023Y-16046D01*
X43079Y-16159D02*
X42882Y-16093D01*
X43079Y-16028D01*
X42882Y-15981D02*
X42882Y-15859D01*
X42957Y-15924D01*
X42957Y-15896D01*
X42967Y-15878D01*
X42976Y-15868D01*
X42995Y-15859D01*
X43042Y-15859D01*
X43060Y-15868D01*
X43070Y-15878D01*
X43079Y-15896D01*
X43079Y-15953D01*
X43070Y-15971D01*
X43060Y-15981D01*
X42023Y-16140D02*
X42023Y-16046D01*
X42079Y-16159D02*
X41882Y-16093D01*
X42079Y-16028D01*
X41901Y-15971D02*
X41892Y-15962D01*
X41882Y-15943D01*
X41882Y-15896D01*
X41892Y-15878D01*
X41901Y-15868D01*
X41920Y-15859D01*
X41939Y-15859D01*
X41967Y-15868D01*
X42079Y-15981D01*
X42079Y-15859D01*
X40023Y-16140D02*
X40023Y-16046D01*
X40079Y-16159D02*
X39882Y-16093D01*
X40079Y-16028D01*
X39882Y-15924D02*
X39882Y-15906D01*
X39892Y-15887D01*
X39901Y-15878D01*
X39920Y-15868D01*
X39957Y-15859D01*
X40004Y-15859D01*
X40042Y-15868D01*
X40060Y-15878D01*
X40070Y-15887D01*
X40079Y-15906D01*
X40079Y-15924D01*
X40070Y-15943D01*
X40060Y-15953D01*
X40042Y-15962D01*
X40004Y-15971D01*
X39957Y-15971D01*
X39920Y-15962D01*
X39901Y-15953D01*
X39892Y-15943D01*
X39882Y-15924D01*
X41023Y-16140D02*
X41023Y-16046D01*
X41079Y-16159D02*
X40882Y-16093D01*
X41079Y-16028D01*
X41079Y-15859D02*
X41079Y-15971D01*
X41079Y-15915D02*
X40882Y-15915D01*
X40910Y-15934D01*
X40929Y-15953D01*
X40939Y-15971D01*
X45023Y-16140D02*
X45023Y-16046D01*
X45079Y-16159D02*
X44882Y-16093D01*
X45079Y-16028D01*
X44882Y-15868D02*
X44882Y-15962D01*
X44976Y-15971D01*
X44967Y-15962D01*
X44957Y-15943D01*
X44957Y-15896D01*
X44967Y-15878D01*
X44976Y-15868D01*
X44995Y-15859D01*
X45042Y-15859D01*
X45060Y-15868D01*
X45070Y-15878D01*
X45079Y-15896D01*
X45079Y-15943D01*
X45070Y-15962D01*
X45060Y-15971D01*
X44023Y-16140D02*
X44023Y-16046D01*
X44079Y-16159D02*
X43882Y-16093D01*
X44079Y-16028D01*
X43948Y-15878D02*
X44079Y-15878D01*
X43873Y-15924D02*
X44014Y-15971D01*
X44014Y-15849D01*
X45892Y-15948D02*
X45882Y-15967D01*
X45882Y-15995D01*
X45892Y-16023D01*
X45910Y-16042D01*
X45929Y-16051D01*
X45967Y-16060D01*
X45995Y-16060D01*
X46032Y-16051D01*
X46051Y-16042D01*
X46070Y-16023D01*
X46079Y-15995D01*
X46079Y-15976D01*
X46070Y-15948D01*
X46060Y-15939D01*
X45995Y-15939D01*
X45995Y-15976D01*
X46882Y-16037D02*
X46882Y-16131D01*
X46976Y-16140D01*
X46967Y-16131D01*
X46957Y-16112D01*
X46957Y-16065D01*
X46967Y-16046D01*
X46976Y-16037D01*
X46995Y-16028D01*
X47042Y-16028D01*
X47060Y-16037D01*
X47070Y-16046D01*
X47079Y-16065D01*
X47079Y-16112D01*
X47070Y-16131D01*
X47060Y-16140D01*
X46882Y-15971D02*
X47079Y-15906D01*
X46882Y-15840D01*
G54D15*
X47982Y-25821D02*
X47882Y-25678D01*
X47810Y-25821D02*
X47810Y-25521D01*
X47925Y-25521D01*
X47953Y-25535D01*
X47967Y-25550D01*
X47982Y-25578D01*
X47982Y-25621D01*
X47967Y-25650D01*
X47953Y-25664D01*
X47925Y-25678D01*
X47810Y-25678D01*
X48267Y-25821D02*
X48096Y-25821D01*
X48182Y-25821D02*
X48182Y-25521D01*
X48153Y-25564D01*
X48125Y-25592D01*
X48096Y-25607D01*
X48453Y-25521D02*
X48482Y-25521D01*
X48510Y-25535D01*
X48525Y-25550D01*
X48539Y-25578D01*
X48553Y-25635D01*
X48553Y-25707D01*
X48539Y-25764D01*
X48525Y-25792D01*
X48510Y-25807D01*
X48482Y-25821D01*
X48453Y-25821D01*
X48425Y-25807D01*
X48410Y-25792D01*
X48396Y-25764D01*
X48382Y-25707D01*
X48382Y-25635D01*
X48396Y-25578D01*
X48410Y-25550D01*
X48425Y-25535D01*
X48453Y-25521D01*
G54D22*
X47628Y-26521D02*
X47628Y-26221D01*
X47700Y-26221D01*
X47742Y-26235D01*
X47771Y-26264D01*
X47785Y-26292D01*
X47800Y-26350D01*
X47800Y-26392D01*
X47785Y-26450D01*
X47771Y-26478D01*
X47742Y-26507D01*
X47700Y-26521D01*
X47628Y-26521D01*
X48085Y-26521D02*
X47914Y-26521D01*
X48000Y-26521D02*
X48000Y-26221D01*
X47971Y-26264D01*
X47942Y-26292D01*
X47914Y-26307D01*
X46032Y-27096D02*
X46032Y-26796D01*
X46146Y-26796D01*
X46175Y-26810D01*
X46189Y-26825D01*
X46203Y-26853D01*
X46203Y-26896D01*
X46189Y-26925D01*
X46175Y-26939D01*
X46146Y-26953D01*
X46032Y-26953D01*
X46389Y-26796D02*
X46446Y-26796D01*
X46475Y-26810D01*
X46503Y-26839D01*
X46517Y-26896D01*
X46517Y-26996D01*
X46503Y-27053D01*
X46475Y-27082D01*
X46446Y-27096D01*
X46389Y-27096D01*
X46360Y-27082D01*
X46332Y-27053D01*
X46317Y-26996D01*
X46317Y-26896D01*
X46332Y-26839D01*
X46360Y-26810D01*
X46389Y-26796D01*
X46617Y-26796D02*
X46689Y-27096D01*
X46746Y-26882D01*
X46803Y-27096D01*
X46875Y-26796D01*
X46989Y-26939D02*
X47089Y-26939D01*
X47132Y-27096D02*
X46989Y-27096D01*
X46989Y-26796D01*
X47132Y-26796D01*
X47432Y-27096D02*
X47332Y-26953D01*
X47260Y-27096D02*
X47260Y-26796D01*
X47375Y-26796D01*
X47403Y-26810D01*
X47417Y-26825D01*
X47432Y-26853D01*
X47432Y-26896D01*
X47417Y-26925D01*
X47403Y-26939D01*
X47375Y-26953D01*
X47260Y-26953D01*
G54D10*
X29661Y-13345D02*
X29261Y-13345D01*
X29261Y-13192D01*
X29280Y-13154D01*
X29300Y-13135D01*
X29338Y-13116D01*
X29395Y-13116D01*
X29433Y-13135D01*
X29452Y-13154D01*
X29471Y-13192D01*
X29471Y-13345D01*
X29261Y-12983D02*
X29261Y-12716D01*
X29661Y-12888D01*
M02*
